# Blender 4.4.1
# www.blender.org
mtllib merchant_house_1.mtl
o merchant_house_1
v 2.911793 5.957013 -4.116435
v 3.007206 6.039036 -4.210100
v 2.706655 6.195457 -3.915062
v 2.517884 3.050618 -3.729762
v 2.580808 -0.094214 -3.791526
v 2.706655 3.050618 -3.915062
v 2.580808 0.220272 -3.791526
v 2.517884 0.220272 -3.729762
v 2.580817 -0.094213 4.002125
v 2.517892 3.050618 3.921805
v 2.706665 3.050618 4.155256
v 2.580817 0.220273 4.002125
v 2.517892 0.220273 3.921805
v 0.000173 9.451843 -1.259072
v -2.911794 5.957028 -4.116112
v -3.007215 6.039051 -4.209762
v -2.706632 6.195472 -3.914764
v -2.517851 3.050633 -3.729480
v -2.580791 -0.094198 -3.791244
v -2.706640 3.050633 -3.914763
v -2.580791 0.220279 -3.791244
v -2.517860 0.220279 -3.729480
v -2.579905 -0.094198 4.002408
v -2.516973 3.050634 3.922078
v -2.705720 3.050626 4.155256
v -2.579896 0.220281 4.002408
v -2.516989 0.220281 3.922079
v 0.000487 10.731650 4.155255
v -2.801126 7.663289 4.155256
v -3.006264 6.039037 4.155256
v -2.910850 5.957015 4.155256
v -2.705705 6.195457 4.155256
v 2.706664 6.195442 4.155256
v 2.911802 5.957006 4.155256
v 3.007215 6.039021 4.155256
v 2.801150 7.663289 4.155256
v -2.801183 7.663280 3.913053
v 0.000455 10.731764 3.913052
v 2.801150 7.663281 3.913052
v -2.801183 6.277487 3.913053
v -2.801118 6.277480 4.155256
v 2.802078 6.277463 4.155256
v 2.802078 6.277480 3.913544
v 0.000455 9.513253 3.913544
v 1.448062 9.227937 3.913053
v 1.448062 9.228147 4.155255
v 2.125167 8.446257 3.913052
v 2.125167 8.446257 4.155255
v 0.773190 9.649159 3.913052
v 0.773190 9.649159 4.155255
v -1.448031 9.228147 4.155256
v -1.448095 9.227937 3.913053
v -0.773166 9.649159 4.155255
v -0.773222 9.649159 3.913053
v -2.125134 8.446257 4.155256
v -2.125199 8.446257 3.913052
v -2.124755 7.663169 3.913053
v -2.124691 7.663169 4.155256
v -1.448328 8.446257 3.913053
v -1.448264 8.446257 4.155256
v -0.433687 10.220534 3.913052
v -0.771902 9.225704 3.913053
v -0.771845 9.228147 4.155256
v -0.433631 10.220534 4.155255
v 0.433526 10.220534 4.155255
v 0.772079 9.228147 4.155256
v 0.772079 9.228147 3.913052
v 0.433526 10.220534 3.913052
v 1.448062 8.446257 4.155255
v 1.448062 8.446257 3.913053
v 2.125658 7.663169 4.155256
v 2.125658 7.663169 3.913052
v -0.433631 9.649159 4.155255
v 0.433526 9.649159 4.155255
v 0.433526 9.649159 3.913052
v -0.433687 9.649159 3.913052
v 2.517892 2.913037 1.383806
v 2.517892 2.913028 3.577427
v 2.517892 0.220273 3.577427
v 2.517892 0.220273 1.383806
v -2.517013 2.913028 3.577427
v -2.517174 2.913035 1.383806
v -2.517279 0.220280 1.383808
v -2.517029 0.220281 3.577427
v -1.340803 2.672337 3.577427
v -1.340803 2.672337 3.922014
v -1.933357 2.437454 3.577427
v -1.933357 2.437454 3.922046
v -2.178800 1.870408 3.577427
v -2.178800 1.870408 3.922062
v 1.933357 2.437455 3.577427
v 1.933357 2.437455 3.921836
v 1.340796 2.672337 3.577427
v 1.340796 2.672337 3.921868
v 2.178800 1.870408 3.921820
v 2.178800 1.870408 3.577427
v -2.178800 0.220281 3.922062
v 2.179220 0.220273 3.921820
v 2.178800 0.220201 3.577427
v -2.178800 0.220273 3.577427
v 2.650791 5.240483 2.160915
v 2.650791 4.084351 2.160915
v 2.650791 4.084351 -1.920737
v 2.650791 5.240492 -1.920737
v -2.650073 4.084373 2.160973
v -2.650065 5.240507 2.160973
v -2.650541 5.240507 -1.920479
v -2.650549 4.084373 -1.920479
v 0.481148 7.616755 4.100410
v 0.481148 6.460284 4.100410
v -0.481157 7.616729 4.100410
v -0.481157 6.460284 4.100410
v -1.833786 5.240499 4.100414
v -1.833769 4.084374 4.100414
v -0.871465 4.084367 4.100414
v -0.871465 5.240492 4.100414
v 0.872408 5.240492 4.100414
v 0.872415 4.084367 4.100414
v 1.834720 4.084358 4.100414
v 1.834720 5.240484 4.100414
v -1.352617 5.510225 4.100414
v 1.353568 5.510225 4.100414
v 0.000197 7.886188 4.100410
v -2.649968 4.084373 3.123276
v -2.649968 5.240507 3.123276
v -2.650258 5.240499 0.601395
v -2.650258 4.084358 0.601403
v -2.650355 4.084367 -0.360910
v -2.650355 5.240507 -0.360910
v -2.650646 5.240507 -2.882782
v -2.650646 4.084373 -2.882782
v -2.650017 5.510241 2.642123
v -2.650307 5.510232 0.120242
v -2.650589 5.510241 -2.401631
v 2.650791 5.240483 3.123219
v 2.650791 4.084351 3.123219
v 2.650791 4.084342 0.601242
v 2.650791 5.240483 0.601241
v 2.650791 5.240483 -0.361062
v 2.650791 4.084342 -0.361062
v 2.650789 4.084351 -2.883048
v 2.650789 5.240492 -2.883049
v 2.650791 5.510232 -2.401889
v 2.650791 5.510232 0.120090
v 2.650791 5.510232 2.642067
v -0.111476 0.964772 1.329666
v -0.111452 2.167472 1.329666
v 1.888490 0.220273 1.438641
v 1.888506 2.913037 1.438640
v 0.629745 2.913035 1.438640
v 0.629704 0.220273 1.438641
v -1.776147 2.167472 1.329666
v -1.776188 0.964772 1.329666
v -2.461543 1.027036 0.587334
v -2.461502 2.183661 0.587334
v -2.461615 2.183676 -0.374970
v -2.461648 1.027036 -0.374970
v -2.461535 2.452950 0.105940
v 2.461962 2.183652 0.587261
v 2.461962 1.027028 0.587261
v 2.461962 1.027028 -0.375042
v 2.461962 2.183677 -0.375042
v 2.461986 2.452950 0.105812
v -2.517359 2.254209 0.707630
v -2.517392 2.590798 0.105916
v -2.517497 2.254192 -0.495257
v -2.517538 0.906746 -0.495250
v -2.517408 0.906755 0.707630
v -0.751176 5.310959 4.155256
v -1.352617 5.648129 4.155256
v -1.954057 5.310959 4.155256
v -1.954065 3.964085 4.155256
v -0.751176 3.964078 4.155256
v 0.752127 3.964078 4.155256
v 1.955009 3.964070 4.155256
v 1.955008 5.310951 4.155256
v 1.353568 5.648129 4.155256
v 0.752127 5.310950 4.155256
v 0.601437 7.687245 4.155256
v 0.000221 8.024060 4.155256
v -0.601444 7.687245 4.155256
v -0.601444 6.339994 4.155256
v 0.601437 6.339994 4.155256
v 0.000254 0.844483 1.384507
v 0.000278 2.287762 1.384499
v -1.887878 2.287762 1.384499
v -1.887926 0.844483 1.384507
v 1.888506 2.913037 1.383806
v 0.629745 2.913035 1.383806
v 0.629704 0.220273 1.383806
v 1.888490 0.220273 1.383806
v 2.706664 3.964061 3.243508
v 2.706664 3.964061 2.040628
v 2.706655 5.310959 2.040627
v 2.706664 5.648135 2.642067
v 2.706664 5.310951 3.243508
v 2.706655 3.964052 0.721529
v 2.706655 3.964052 -0.481351
v 2.706655 5.310959 -0.481351
v 2.706655 5.648135 0.120090
v 2.706655 5.310950 0.721529
v 2.706655 3.964061 -1.800449
v 2.706655 3.964061 -3.003329
v 2.706655 5.310959 -3.003337
v 2.706655 5.648135 -2.401889
v 2.706655 5.310959 -1.800449
v 2.517827 2.254185 -0.495331
v 2.517860 2.590798 0.105779
v 2.517827 2.254200 0.707550
v 2.517827 0.906746 0.707557
v 2.517827 0.906739 -0.495331
v -2.706398 5.310982 -1.800182
v -2.706455 5.648135 -2.401623
v -2.706519 5.310982 -3.003062
v -2.706527 3.964085 -3.003062
v -2.706398 3.964085 -1.800182
v -2.706236 3.964070 -0.481188
v -2.706116 3.964070 0.721691
v -2.706108 5.310966 0.721690
v -2.706172 5.648135 0.120251
v -2.706236 5.310973 -0.481189
v -2.705947 3.964085 2.040684
v -2.705825 3.964077 3.243572
v -2.705818 5.310974 3.243572
v -2.705882 5.648135 2.642132
v -2.705947 5.310973 2.040684
v -1.023686 8.303285 -0.904873
v 1.024057 8.303286 -0.904873
v -1.199404 8.112020 1.129056
v 1.199992 8.112022 1.129056
v 1.110888 8.214020 1.187186
v -1.110284 8.214019 1.187186
v -1.100518 8.214026 -1.242030
v 1.100848 8.214026 -1.242030
v 0.374406 9.049081 -0.027418
v -0.373939 9.049081 -0.027418
v 1.190435 8.112022 -1.183900
v -1.190106 8.112020 -1.183900
v 1.031301 8.303286 0.850027
v -1.030745 8.303285 0.850029
v 2.346396 8.112022 1.129056
v 2.346396 8.112022 -1.183900
v 2.346396 8.214020 1.187186
v 2.346396 8.214026 -1.242030
v 2.133086 9.049082 -0.027418
v 2.133086 9.495558 0.556955
v 2.346396 9.495558 0.556955
v 2.133086 9.495558 -0.611799
v 2.346396 9.495558 -0.611799
v 2.133086 9.792131 0.206477
v 2.346396 9.792131 0.206477
v 2.133086 8.998302 0.908157
v 2.346396 8.998302 0.908157
v 2.133086 9.792131 -0.261315
v 2.346396 9.792131 -0.261315
v 2.133086 8.998302 -0.963003
v 2.346396 8.998302 -0.963003
v 2.346396 9.495558 0.206477
v 2.346396 9.495558 -0.261315
v 2.133086 9.495558 -0.261315
v 2.133086 9.495558 0.206477
v 2.133086 8.405282 0.908157
v 2.346396 8.405282 0.908158
v 2.133086 8.405291 -0.963002
v 2.346396 8.405291 -0.963002
v 2.133086 8.998284 0.556955
v 2.133086 8.998284 -0.611799
v -2.346404 8.112020 1.129056
v -2.346404 8.112020 -1.183900
v -2.346404 8.214019 1.187186
v -2.346404 8.214026 -1.242030
v -2.133088 9.049081 -0.027418
v -2.133088 9.495558 0.556955
v -2.346404 9.495558 0.556955
v -2.133088 9.495558 -0.611799
v -2.346404 9.495558 -0.611799
v -2.133088 9.792131 0.206477
v -2.346404 9.792131 0.206477
v -2.133088 8.998301 0.908158
v -2.346404 8.998301 0.908158
v -2.133088 9.792131 -0.261315
v -2.346404 9.792131 -0.261315
v -2.133088 8.998301 -0.963003
v -2.346404 8.998301 -0.963003
v -2.346404 9.495558 0.206477
v -2.346404 9.495558 -0.261315
v -2.133088 9.495558 -0.261315
v -2.133088 9.495558 0.206477
v -2.133088 8.405282 0.908158
v -2.346404 8.405282 0.908158
v -2.133088 8.405291 -0.963002
v -2.346404 8.405291 -0.963002
v -2.133088 8.998284 0.556955
v -2.133088 8.998284 -0.611799
v 2.290530 7.035484 -0.508578
v 2.290530 7.041277 0.453734
v -2.290531 7.040673 0.453734
v -2.290531 7.035033 -0.508578
v -2.346404 8.998284 0.556955
v -2.346404 8.998284 -0.611799
v -2.346404 8.303285 -0.904873
v -2.346404 6.793246 -0.904873
v -2.346404 6.801295 0.850029
v -2.346404 8.303285 0.850029
v 2.346396 8.998284 -0.611799
v 2.346396 8.998284 0.556955
v 2.346396 8.303286 0.850027
v 2.346396 6.801931 0.850027
v 2.346396 6.793649 -0.904873
v 2.346396 8.303286 -0.904873
v 2.290530 8.172029 -0.508578
v 2.290530 8.175300 0.453733
v -2.290531 8.172069 -0.508578
v -2.290531 8.175251 0.453734
v 2.290530 8.462358 -0.027112
v -2.290531 8.462358 -0.027120
v -2.346404 6.914042 -0.628866
v -2.346404 6.921085 0.574022
v -2.346404 8.243526 0.574021
v -2.346404 8.602638 -0.027426
v -2.346404 8.240005 -0.628866
v 2.346396 6.921714 0.574022
v 2.346396 6.914462 -0.628866
v 2.346396 8.239957 -0.628866
v 2.346396 8.602638 -0.027426
v 2.346396 8.243576 0.574021
v -2.761691 3.964085 3.243580
v -2.761684 5.310974 3.243580
v -2.761747 5.648135 2.642132
v -2.761812 5.310973 2.040692
v -2.761820 3.964085 2.040693
v -2.761707 4.084373 3.123293
v -2.761699 5.240507 3.123292
v -2.761747 5.510241 2.642132
v -2.761804 5.240507 2.160980
v -2.761804 4.084373 2.160980
v -2.762102 3.964070 -0.481181
v -2.761981 3.964070 0.721699
v -2.761974 5.310966 0.721699
v -2.762037 5.648135 0.120259
v -2.762102 5.310973 -0.481181
v -2.762094 4.084367 -0.360893
v -2.761989 4.084358 0.601410
v -2.761989 5.240499 0.601410
v -2.762037 5.510232 0.120259
v -2.762087 5.240507 -0.360893
v -2.762264 3.964085 -1.800175
v -2.762264 5.310982 -1.800175
v -2.762328 5.648135 -2.401615
v -2.762392 5.310982 -3.003062
v -2.762392 3.964085 -3.003054
v -2.762279 4.084373 -1.920462
v -2.762279 5.240507 -1.920462
v -2.762328 5.510241 -2.401623
v -2.762377 5.240507 -2.882775
v -2.762377 4.084373 -2.882766
v -2.573402 0.906746 -0.495242
v -2.573273 0.906755 0.707639
v -2.573225 2.254209 0.707639
v -2.573257 2.590798 0.105925
v -2.573362 2.254192 -0.495250
v -2.573378 1.027036 -0.374953
v -2.573282 1.027045 0.587350
v -2.573242 2.183661 0.587341
v -2.573266 2.452950 0.105956
v -2.573355 2.183676 -0.374961
v -2.402270 6.921085 0.574022
v -2.402270 8.243526 0.574021
v -2.402270 8.602638 -0.027426
v -2.402270 8.240005 -0.628866
v -2.402270 6.914042 -0.628866
v -2.402270 7.040673 0.453734
v -2.402270 8.175251 0.453734
v -2.402270 8.462358 -0.027120
v -2.402270 8.172069 -0.508578
v -2.402270 7.035033 -0.508578
v -1.887926 0.844483 1.439350
v 0.000254 0.844483 1.439350
v 0.000278 2.287762 1.439341
v -1.887878 2.287762 1.439341
v -1.776188 0.964772 1.439350
v -0.111476 0.964772 1.439350
v -0.111452 2.167472 1.439341
v -1.776147 2.167472 1.439341
v -0.751176 5.310959 4.210098
v -1.352617 5.648129 4.210098
v -1.954057 5.310959 4.210098
v -1.954065 3.964085 4.210098
v -0.751176 3.964078 4.210098
v -0.871465 5.240492 4.210098
v -1.352617 5.510225 4.210098
v -1.833786 5.240499 4.210098
v -1.833769 4.084374 4.210098
v -0.871465 4.084367 4.210098
v 1.955008 5.310951 4.210098
v 1.353568 5.648129 4.210098
v 0.752127 5.310950 4.210098
v 0.752127 3.964070 4.210098
v 1.955009 3.964070 4.210098
v 1.834720 5.240484 4.210098
v 1.353568 5.510225 4.210098
v 0.872408 5.240492 4.210098
v 0.872415 4.084367 4.210098
v 1.834720 4.084358 4.210098
v 0.601437 6.339994 4.210098
v 0.601437 7.687245 4.210098
v 0.000221 8.024060 4.210098
v -0.601444 7.687245 4.210098
v -0.601444 6.339994 4.210098
v 0.481148 6.460284 4.210098
v 0.481148 7.616755 4.210098
v 0.000197 7.886189 4.210098
v -0.481157 7.616730 4.210098
v -0.481157 6.460284 4.210098
v 2.573693 2.254185 -0.495331
v 2.573725 2.590798 0.105779
v 2.573693 2.254200 0.707550
v 2.573693 0.906739 0.707557
v 2.573693 0.906739 -0.495331
v 2.573693 2.183677 -0.375042
v 2.573725 2.452950 0.105812
v 2.573693 2.183652 0.587261
v 2.573693 1.027028 0.587261
v 2.573693 1.027028 -0.375042
v 2.762529 3.964061 2.040628
v 2.762529 5.310959 2.040627
v 2.762529 5.648135 2.642067
v 2.762529 5.310951 3.243508
v 2.762529 3.964061 3.243508
v 2.762529 4.084351 2.160915
v 2.762529 5.240492 2.160915
v 2.762529 5.510232 2.642067
v 2.762529 5.240483 3.123219
v 2.762529 4.084351 3.123219
v 2.762521 5.310950 -0.481351
v 2.762521 5.648135 0.120090
v 2.762521 5.310950 0.721529
v 2.762529 3.964052 0.721529
v 2.762521 3.964052 -0.481351
v 2.762521 5.240483 -0.361062
v 2.762521 5.510232 0.120090
v 2.762521 5.240483 0.601241
v 2.762529 4.084342 0.601242
v 2.762521 4.084342 -0.361062
v 2.762521 3.964061 -3.003329
v 2.762521 5.310959 -3.003337
v 2.762521 5.648135 -2.401889
v 2.762521 5.310959 -1.800449
v 2.762521 3.964061 -1.800449
v 2.762521 4.084351 -2.883041
v 2.762521 5.240492 -2.883049
v 2.762521 5.510232 -2.401889
v 2.762521 5.240492 -1.920737
v 2.762521 4.084351 -1.920737
v 2.402261 6.914462 -0.628866
v 2.402261 8.239957 -0.628866
v 2.402260 8.602638 -0.027426
v 2.402261 8.243583 0.574021
v 2.402261 6.921714 0.574022
v 2.402261 7.035484 -0.508578
v 2.402261 8.172029 -0.508578
v 2.402260 8.462358 -0.027112
v 2.402261 8.175300 0.453733
v 2.402261 7.041277 0.453734
v -0.223465 9.227388 2.604929
v -0.893866 8.461141 2.604929
v -0.893866 8.457088 1.727474
v -0.223465 9.223336 1.727474
v -0.391069 9.528869 1.892000
v -0.726269 9.528869 1.892000
v -0.726269 9.528869 2.440403
v -0.391069 9.528869 2.440403
v -0.893866 10.130317 2.604929
v -0.223465 10.130317 2.604929
v -0.223466 10.130317 1.727474
v -0.893866 10.130317 1.727474
v -0.726269 10.130317 2.440403
v -0.391069 10.130317 2.440403
v -0.391069 10.130317 1.892000
v -0.726270 10.130317 1.892000
v 2.580817 0.220273 1.383316
v -2.580195 0.220280 1.383566
vn 0.1437 -0.9782 -0.1496
vn -0.0186 -0.9995 0.0264
vn -0.1438 -0.9782 -0.1496
vn 0.0186 -0.9995 0.0264
vn 0.5773 -0.5773 -0.5774
vn -0.5774 -0.5773 -0.5773
vn 0.5773 0.5774 -0.5774
vn -0.5774 0.5774 -0.5773
vn 0.5774 -0.5774 0.5773
vn 0.5774 0.5773 0.5773
vn -0.5773 -0.5773 0.5774
vn -0.5773 0.5774 0.5774
vn -0.0000 0.9691 -0.2466
vn 0.7075 -0.0500 -0.7049
vn -0.7076 -0.0500 -0.7049
vn -0.7071 0.7071 0.0001
vn 0.7071 0.7071 -0.0000
vn 0.5830 0.7329 -0.3508
vn 0.5760 0.8174 -0.0067
vn 0.5695 0.2115 0.7943
vn 0.8144 -0.0612 0.5771
vn 0.8519 0.5100 -0.1192
vn -0.0008 0.3861 -0.9224
vn 0.5892 0.7303 0.3456
vn 0.8243 -0.4842 0.2934
vn 0.9703 0.1397 0.1975
vn 0.8530 0.5084 0.1179
vn 0.8232 -0.4852 -0.2947
vn 0.8487 0.5152 -0.1196
vn 0.9690 0.1413 -0.2025
vn -0.5830 0.7329 -0.3508
vn -0.5722 0.8201 -0.0040
vn -0.5694 0.2112 0.7945
vn -0.8518 0.5101 -0.1192
vn -0.8144 -0.0612 0.5771
vn -0.5861 0.7301 0.3514
vn -0.8461 0.5193 -0.1204
vn -0.4557 0.6956 -0.5554
vn -0.8243 -0.4842 0.2934
vn -0.8531 0.5083 0.1179
vn -0.9701 0.1404 0.1982
vn -0.8232 -0.4852 -0.2947
vn -0.9691 0.1413 -0.2024
vn -0.8487 0.5152 -0.1195
vn -0.8504 0.5136 0.1143
vn -0.4717 0.6907 0.5481
vn 0.7236 0.2653 0.6372
vn 0.3015 0.3015 0.9045
vn 0.7234 0.2652 -0.6375
vn 0.3009 0.3013 -0.9048
vn 0.5782 0.5767 -0.5772
vn 0.5782 0.5767 0.5772
vn 0.3011 0.3003 -0.9051
vn 0.3015 0.3006 0.9048
vn 0.5773 0.5776 0.5771
vn 0.5774 0.5771 -0.5776
vn 0.3010 0.3011 -0.9048
vn -0.3015 0.3015 0.9046
vn -0.7234 0.2658 0.6372
vn -0.3009 0.3014 -0.9048
vn -0.7234 0.2657 -0.6373
vn 0.5771 0.5775 -0.5775
vn 0.5771 0.5776 0.5774
vn 0.5772 0.5775 0.5774
vn 0.3015 0.3017 0.9045
vn 0.5771 0.5775 -0.5774
vn 0.3010 0.3013 -0.9048
vn -0.5772 0.5774 0.5774
vn -0.3014 0.3013 0.9047
vn -0.5774 0.5772 0.5774
vn -0.3012 0.3013 -0.9047
vn -0.5776 0.5772 -0.5773
vn -0.5765 0.5786 0.5769
vn -0.5765 0.5782 -0.5774
vn -0.3015 0.3015 0.9045
vn -0.3011 0.3013 -0.9048
vn -0.2982 0.2995 -0.9063
vn -0.3040 0.3011 0.9039
vn -0.5784 0.5765 -0.5771
vn -0.5783 0.5765 0.5772
vn 0.0004 0.8222 -0.5692
vn 0.0006 0.8221 0.5694
vn -0.3015 0.9047 -0.3011
vn -0.3016 0.9044 0.3018
vn -0.6413 -0.1329 -0.7557
vn -0.6413 -0.1329 0.7557
vn 0.3015 0.9045 0.3015
vn 0.5774 0.5774 0.5773
vn 0.3015 0.9045 -0.3015
vn -0.3015 0.9045 0.3015
vn -0.5772 0.5772 0.5776
vn -0.3017 0.9044 0.3016
vn -0.3015 0.9046 -0.3015
vn -0.3015 0.9045 -0.3015
vn 0.3015 -0.9045 -0.3015
vn -0.3015 -0.9045 -0.3015
vn 0.5773 -0.5774 -0.5774
vn -0.5774 -0.5774 -0.5773
vn 0.6091 -0.4009 -0.6843
vn 0.6118 -0.7910 -0.0000
vn 0.8403 -0.2740 -0.4678
vn 0.8353 -0.5498 -0.0000
vn -0.0001 -0.7909 0.6119
vn -0.0001 -0.5500 0.8352
vn 0.6842 -0.4011 0.6091
vn 0.4676 -0.2741 0.8404
vn -0.6843 -0.4010 0.6091
vn -0.5773 0.5773 0.5774
vn -0.4677 -0.2741 0.8403
vn -0.6090 -0.4011 0.6843
vn -0.6120 -0.7909 0.0002
vn -0.8403 -0.2740 0.4677
vn -0.8351 -0.5500 0.0002
vn -0.9045 0.3015 0.3016
vn -0.9046 0.3015 -0.3014
vn -0.8353 -0.5498 0.0001
vn -0.8403 -0.2740 0.4678
vn -0.6118 -0.7910 -0.0000
vn -0.6090 -0.4009 0.6844
vn -0.0000 -0.7910 0.6118
vn -0.0000 -0.5498 0.8353
vn 0.6843 -0.4009 0.6091
vn 0.4678 -0.2740 0.8403
vn 0.5773 0.5773 0.5774
vn -0.5773 0.5774 0.5773
vn 0.6413 -0.1328 0.7557
vn 0.3015 -0.9045 0.3015
vn -0.4137 -0.4268 0.8041
vn -0.1236 -0.6476 0.7519
vn -0.3015 -0.9045 0.3015
vn 0.1237 -0.6476 0.7519
vn 0.4138 -0.4268 0.8041
vn -0.6843 -0.4009 0.6091
vn -0.4678 -0.2740 0.8403
vn -0.6092 -0.4009 -0.6842
vn -0.8404 -0.2740 -0.4677
vn -0.6118 -0.7910 0.0001
vn -0.8402 -0.2740 0.4679
vn -0.6119 -0.7910 0.0001
vn 0.0613 -0.8142 0.5774
vn -0.0669 -0.1804 0.9813
vn 0.5773 0.5774 -0.5773
vn 0.9045 0.3015 -0.3015
vn 0.5774 0.5773 -0.5774
vn 0.9045 0.3015 0.3015
vn 0.6091 -0.4009 0.6843
vn 0.8403 -0.2740 0.4678
vn -0.0613 -0.8142 0.5774
vn 0.5774 0.5773 0.5774
vn 0.0669 -0.1804 0.9813
vn 0.5773 -0.5774 0.5774
vn -0.5773 -0.5774 0.5774
vn -0.5774 -0.5773 0.5773
vn -0.3015 -0.3015 0.9045
vn 0.3015 -0.3015 0.9045
vn 0.9045 -0.3015 0.3015
vn 0.9045 -0.3015 -0.3015
vn -0.9046 -0.3015 -0.3014
vn -0.9045 -0.3016 0.3016
vn -0.5772 -0.5772 0.5776
vn 0.6413 -0.1328 -0.7557
vn -0.4138 -0.4268 -0.8041
vn -0.1237 -0.6476 -0.7519
vn 0.1237 -0.6476 -0.7519
vn 0.4138 -0.4268 -0.8041
vn -0.9045 0.3015 -0.3014
vn -0.6091 -0.4012 -0.6841
vn -0.8405 -0.2741 -0.4674
vn -0.9045 0.3016 0.3016
vn 0.6090 -0.4012 -0.6842
vn 0.6119 -0.7909 0.0002
vn 0.8404 -0.2742 -0.4675
vn 0.8351 -0.5501 0.0001
vn 0.5773 0.5773 -0.5774
vn 0.6091 -0.4011 0.6843
vn 0.8403 -0.2741 0.4676
vn -0.8404 0.2741 -0.4675
vn -0.9045 -0.3015 0.3017
vn -0.8351 0.5501 -0.0000
vn -0.8403 0.2742 0.4676
vn -0.3016 -0.3015 0.9045
vn -0.4678 0.2740 0.8403
vn 0.4678 0.2740 0.8403
vn -0.0000 0.5498 0.8353
vn 0.4677 0.2741 0.8403
vn 0.0001 0.5500 0.8352
vn -0.4676 0.2741 0.8404
vn 0.3019 -0.3019 0.9043
vn -0.3019 -0.3019 0.9043
vn 0.3019 0.3019 0.9043
vn -0.3019 0.3019 0.9043
vn 0.8403 0.2740 0.4678
vn 0.8403 0.2740 -0.4677
vn 0.8403 0.2740 -0.4678
vn 0.8353 0.5498 -0.0000
vn 0.8404 0.2741 -0.4676
vn 0.8351 0.5500 -0.0001
vn 0.8404 0.2741 0.4675
vn -0.8402 0.2741 0.4679
vn -0.9045 -0.3015 0.3016
vn -0.8404 0.2740 -0.4677
vn -0.8403 0.2740 -0.4677
vn -0.8403 0.2741 -0.4677
vn -0.8353 0.5498 0.0001
vn -0.9038 0.3017 -0.3034
vn -0.5777 0.5755 -0.5789
vn -0.9052 0.3014 0.2996
vn -0.5770 0.5792 0.5758
vn 0.9052 0.3014 0.2996
vn 0.5770 0.5792 0.5758
vn 0.9038 0.3017 -0.3035
vn 0.5777 0.5754 -0.5789
vn -0.5773 0.5773 -0.5774
vn -0.9045 0.3015 -0.3015
vn -0.5774 0.5773 0.5774
vn -0.9045 0.3015 0.3015
vn -0.5774 0.5774 0.5773
vn -0.5774 0.5773 -0.5774
vn -0.5731 -0.7986 -0.1836
vn -0.9641 -0.2351 -0.1239
vn -0.5818 0.1822 -0.7926
vn -0.8285 0.2611 -0.4955
vn -0.5731 -0.7986 0.1836
vn -0.5818 0.1822 0.7926
vn -0.9641 -0.2351 0.1239
vn -0.8285 0.2611 0.4955
vn -0.9052 -0.3014 -0.2996
vn -0.8361 0.2697 -0.4776
vn -0.8430 0.5379 -0.0012
vn -0.8367 0.2703 0.4763
vn -0.9038 -0.3017 0.3034
vn 0.5731 -0.7986 -0.1836
vn 0.5818 0.1822 -0.7926
vn 0.9640 -0.2351 -0.1239
vn 0.8285 0.2611 -0.4955
vn 0.5731 -0.7986 0.1836
vn 0.9640 -0.2351 0.1239
vn 0.5818 0.1822 0.7926
vn 0.8285 0.2611 0.4955
vn 0.5774 0.5774 -0.5773
vn 0.9052 -0.3014 -0.2995
vn 0.8361 0.2697 -0.4776
vn 0.8430 0.5379 -0.0012
vn 0.8367 0.2703 0.4763
vn 0.9038 -0.3017 0.3035
vn -0.6090 0.4009 0.6844
vn -0.6118 0.7910 -0.0000
vn -0.6092 0.4009 -0.6843
vn -0.6118 0.7910 0.0001
vn -0.6091 0.4009 -0.6843
vn -0.5775 -0.5773 -0.5773
vn -0.6089 0.4013 0.6843
vn -0.6119 0.7909 -0.0001
vn -0.6091 0.4011 -0.6842
vn -0.5777 -0.5755 0.5789
vn -0.5771 -0.5792 -0.5758
vn -0.5774 -0.5773 0.5774
vn 0.5773 -0.5773 0.5774
vn 0.6843 0.4009 0.6091
vn -0.0000 0.7910 0.6118
vn -0.6843 0.4009 0.6091
vn -0.5773 -0.5774 0.5773
vn 0.6843 0.4010 0.6091
vn 0.0001 0.7909 0.6119
vn -0.6842 0.4011 0.6090
vn 0.6090 0.4011 -0.6843
vn 0.6119 0.7909 -0.0002
vn 0.6090 0.4012 0.6842
vn 0.5773 -0.5774 0.5773
vn 0.5774 -0.5773 -0.5773
vn 0.6091 0.4009 -0.6843
vn 0.6118 0.7910 -0.0000
vn 0.6091 0.4009 0.6843
vn 0.5774 -0.5773 0.5773
vn 0.6091 0.4008 -0.6843
vn 0.5774 -0.5774 -0.5773
vn 0.5771 -0.5792 -0.5758
vn 0.5777 -0.5754 0.5789
vn 0.5773 0.5774 0.5773
vn -0.5774 0.5773 0.5773
vn 0.5773 0.5774 0.5774
vn 0.5774 0.5773 -0.5773
vn -0.5773 0.5774 -0.5774
vn -0.1660 0.6664 0.7268
vn -0.1660 0.6664 -0.7268
vn -0.5773 0.5774 -0.5773
vn -0.8592 0.5116 -0.0000
vn 0.8592 0.5116 -0.0000
vn 0.1660 0.6664 0.7268
vn 0.1660 0.6664 -0.7268
vn 0.6111 -0.3908 -0.6884
vn 0.8367 -0.2703 -0.4763
vn -0.6114 -0.3891 0.6890
vn -0.8361 -0.2697 0.4776
vn 0.6114 -0.3891 0.6890
vn 0.8361 -0.2697 0.4776
vn 0.8430 -0.5378 0.0012
vn 0.6076 -0.7942 0.0018
vn -0.6111 -0.3907 -0.6884
vn -0.8367 -0.2703 -0.4763
vn -0.6076 -0.7943 0.0017
vn -0.8430 -0.5378 0.0012
vn -0.6111 0.3908 0.6884
vn -0.6076 0.7943 -0.0017
vn -0.6114 0.3892 -0.6890
vn 0.6114 0.3891 -0.6891
vn 0.6076 0.7943 -0.0018
vn 0.6110 0.3908 0.6884
vt 0.924195 0.452064
vt 0.912794 0.444650
vt 0.924188 0.243054
vt 0.912787 0.250398
vt 0.820895 0.136032
vt 0.641682 0.136314
vt 0.819888 0.123809
vt 0.641361 0.124019
vt 0.819643 0.111565
vt 0.820649 0.123787
vt 0.640430 0.111796
vt 0.641437 0.124019
vt 0.288266 0.621476
vt 0.392080 0.790176
vt 0.183918 0.790010
vt 0.946122 0.597063
vt 0.941548 0.592023
vt 0.945733 0.380713
vt 0.942592 0.385371
vt 0.530314 0.020937
vt 0.530313 0.009332
vt 0.623825 0.009325
vt 0.809959 0.009311
vt 0.809960 0.020916
vt 0.623683 0.042941
vt 0.529485 0.042941
vt 0.529485 0.031336
vt 0.809886 0.031336
vt 0.809886 0.042941
vt 0.103603 0.625732
vt 0.068889 0.625732
vt 0.103597 0.604227
vt 0.068882 0.604248
vt 0.117651 0.878462
vt 0.118062 0.818876
vt 0.162857 0.836964
vt 0.312103 0.970901
vt 0.312103 0.981676
vt 0.303899 0.970902
vt 0.011405 0.981675
vt 0.303898 0.815405
vt 0.205857 0.878232
vt 0.194084 0.873516
vt 0.203597 0.882638
vt 0.194084 0.946279
vt 0.131630 0.873630
vt 0.131630 0.945418
vt 0.119911 0.882789
vt 0.510082 0.876144
vt 0.466800 0.836558
vt 0.510558 0.816820
vt 0.316212 0.968965
vt 0.325181 0.968965
vt 0.316213 0.980500
vt 0.422766 0.876303
vt 0.403558 0.864436
vt 0.403556 0.827833
vt 0.616639 0.980500
vt 0.434837 0.871868
vt 0.434840 0.944128
vt 0.424985 0.881190
vt 0.498080 0.871754
vt 0.507933 0.881039
vt 0.498084 0.944271
vt 0.372278 0.864365
vt 0.325160 0.814932
vt 0.372277 0.827762
vt 0.470320 0.043213
vt 0.450603 0.043402
vt 0.470270 0.033927
vt 0.450552 0.034116
vt 0.438683 0.034218
vt 0.438732 0.043504
vt 0.424313 0.034105
vt 0.424363 0.043392
vt 0.401042 0.043241
vt 0.373228 0.043590
vt 0.400992 0.033955
vt 0.373178 0.035020
vt 0.450335 0.043429
vt 0.470133 0.043243
vt 0.450383 0.052822
vt 0.470182 0.052564
vt 0.299919 0.033805
vt 0.299968 0.043159
vt 0.251895 0.034066
vt 0.251957 0.043348
vt 0.349920 0.043412
vt 0.323278 0.043299
vt 0.349871 0.034132
vt 0.323228 0.034017
vt 0.251857 0.043362
vt 0.299727 0.043169
vt 0.251908 0.052704
vt 0.299777 0.052437
vt 0.323073 0.043329
vt 0.349674 0.043442
vt 0.323123 0.052670
vt 0.349724 0.052783
vt 0.401141 0.043698
vt 0.400773 0.052528
vt 0.373368 0.043179
vt 0.372999 0.052954
vt 0.424451 0.053189
vt 0.424402 0.043854
vt 0.438463 0.052927
vt 0.438832 0.043968
vt 0.493602 0.052661
vt 0.493552 0.043266
vt 0.538147 0.755337
vt 0.538303 0.726170
vt 0.561644 0.755407
vt 0.561523 0.784658
vt 0.583750 0.785218
vt 0.584721 0.800332
vt 0.596657 0.800574
vt 0.514810 0.726060
vt 0.514815 0.674772
vt 0.611110 0.841075
vt 0.596435 0.822244
vt 0.611085 0.795565
vt 0.660882 0.785563
vt 0.637853 0.785007
vt 0.662651 0.756385
vt 0.684942 0.757707
vt 0.686162 0.727296
vt 0.637678 0.800525
vt 0.626188 0.800745
vt 0.708904 0.727383
vt 0.709665 0.676787
vt 0.625966 0.822415
vt 0.493591 0.033932
vt 0.493642 0.043217
vt 0.821696 0.086949
vt 0.821300 0.099163
vt 0.765066 0.086459
vt 0.764669 0.098747
vt 0.646809 0.331876
vt 0.658847 0.331876
vt 0.644476 0.334658
vt 0.669663 0.240860
vt 0.669663 0.242247
vt 0.646806 0.240861
vt 0.646809 0.319555
vt 0.658857 0.319555
vt 0.815912 0.331876
vt 0.815912 0.319549
vt 0.714827 0.242247
vt 0.714827 0.240859
vt 0.828012 0.240855
vt 0.828008 0.319549
vt 0.830272 0.334658
vt 0.828007 0.331876
vt 0.640148 0.193206
vt 0.640229 0.190913
vt 0.826362 0.190913
vt 0.824056 0.193206
vt 0.819708 0.170530
vt 0.640489 0.170744
vt 0.817216 0.168162
vt 0.642728 0.168133
vt 0.823709 0.197851
vt 0.825946 0.200144
vt 0.639806 0.197851
vt 0.830276 0.240849
vt 0.398176 0.332674
vt 0.223600 0.332632
vt 0.398762 0.228556
vt 0.224116 0.227730
vt 0.215355 0.106078
vt 0.410369 0.106078
vt 0.215355 0.218986
vt 0.410369 0.218986
vt 0.810305 0.963375
vt 0.810295 0.983187
vt 0.806795 0.963373
vt 0.806785 0.983185
vt 0.884809 0.797957
vt 0.888263 0.797959
vt 0.884801 0.817738
vt 0.888255 0.817739
vt 0.884787 0.958388
vt 0.884772 0.916810
vt 0.888243 0.958387
vt 0.888229 0.916809
vt 0.888230 0.907829
vt 0.884775 0.907828
vt 0.888234 0.873351
vt 0.884779 0.873351
vt 0.790059 0.817785
vt 0.790059 0.797966
vt 0.793573 0.817785
vt 0.793573 0.797966
vt 0.831531 0.873530
vt 0.835725 0.873531
vt 0.831523 0.908039
vt 0.835717 0.908040
vt 0.849120 0.983181
vt 0.849100 0.963383
vt 0.852627 0.983177
vt 0.852607 0.963379
vt 0.830630 0.696122
vt 0.802037 0.677941
vt 0.858510 0.677944
vt 0.858515 0.610015
vt 0.802238 0.610015
vt 0.884799 0.822758
vt 0.888253 0.822759
vt 0.884783 0.864302
vt 0.888237 0.864304
vt 0.915707 0.983184
vt 0.911571 0.983186
vt 0.915695 0.963428
vt 0.911560 0.963430
vt 0.911543 0.907947
vt 0.911546 0.873474
vt 0.915683 0.907948
vt 0.915686 0.873475
vt 0.915677 0.916914
vt 0.915695 0.958416
vt 0.911541 0.916916
vt 0.911559 0.958418
vt 0.590380 0.232374
vt 0.601436 0.232376
vt 0.590187 0.293609
vt 0.439096 0.232657
vt 0.439264 0.293528
vt 0.427414 0.232605
vt 0.601428 0.337827
vt 0.582308 0.315098
vt 0.561543 0.324273
vt 0.427046 0.337719
vt 0.468953 0.324173
vt 0.448202 0.315116
vt 0.915702 0.864424
vt 0.911555 0.864422
vt 0.915722 0.822817
vt 0.911576 0.822815
vt 0.905628 0.983183
vt 0.901418 0.983184
vt 0.905621 0.963398
vt 0.901412 0.963399
vt 0.905612 0.873370
vt 0.905611 0.907850
vt 0.901402 0.873370
vt 0.901401 0.907850
vt 0.830633 0.696122
vt 0.802037 0.677955
vt 0.858512 0.677946
vt 0.802230 0.610010
vt 0.858515 0.610016
vt 0.905612 0.916825
vt 0.905621 0.958379
vt 0.901402 0.916826
vt 0.901411 0.958380
vt 0.905613 0.864323
vt 0.901403 0.864323
vt 0.905622 0.822773
vt 0.901412 0.822772
vt 0.830629 0.696122
vt 0.802038 0.677950
vt 0.858513 0.677941
vt 0.802105 0.610010
vt 0.915737 0.797972
vt 0.915727 0.817790
vt 0.911589 0.797970
vt 0.911580 0.817788
vt 0.905628 0.797965
vt 0.905624 0.817753
vt 0.901417 0.797964
vt 0.901414 0.817752
vt 0.888246 0.963411
vt 0.888257 0.983198
vt 0.884789 0.963413
vt 0.884800 0.983200
vt 0.852598 0.822762
vt 0.852561 0.864293
vt 0.849096 0.822758
vt 0.849059 0.864289
vt 0.831552 0.917020
vt 0.835733 0.917016
vt 0.831594 0.958477
vt 0.835775 0.958473
vt 0.863614 0.864274
vt 0.859425 0.864283
vt 0.863519 0.822736
vt 0.859330 0.822745
vt 0.831562 0.817791
vt 0.831581 0.797960
vt 0.835762 0.817795
vt 0.835781 0.797964
vt 0.863510 0.963413
vt 0.863458 0.983207
vt 0.859318 0.963402
vt 0.859266 0.983197
vt 0.863606 0.916821
vt 0.863521 0.958387
vt 0.859415 0.916813
vt 0.859330 0.958378
vt 0.961288 0.463076
vt 0.966210 0.463531
vt 0.961465 0.771388
vt 0.966173 0.775244
vt 0.849057 0.873332
vt 0.852561 0.873332
vt 0.849057 0.907813
vt 0.852561 0.907813
vt 0.888760 0.136697
vt 0.898691 0.136110
vt 0.888635 0.437891
vt 0.898655 0.444718
vt 0.863615 0.907828
vt 0.859424 0.907827
vt 0.863626 0.873343
vt 0.859435 0.873342
vt 0.852627 0.797974
vt 0.852603 0.817748
vt 0.849125 0.797969
vt 0.849101 0.817743
vt 0.830753 0.696122
vt 0.802036 0.677948
vt 0.858506 0.677943
vt 0.802238 0.610016
vt 0.858514 0.610016
vt 0.831638 0.983207
vt 0.831609 0.963487
vt 0.835815 0.983201
vt 0.835785 0.963481
vt 0.830757 0.696122
vt 0.858515 0.677942
vt 0.802238 0.610010
vt 0.863448 0.797938
vt 0.863505 0.817714
vt 0.859260 0.797949
vt 0.859317 0.817725
vt 0.802034 0.677940
vt 0.858514 0.677940
vt 0.821366 0.864159
vt 0.821394 0.822695
vt 0.825548 0.864162
vt 0.825575 0.822698
vt 0.810313 0.907772
vt 0.806809 0.907773
vt 0.810311 0.873295
vt 0.806807 0.873296
vt 0.821317 0.915867
vt 0.825516 0.915864
vt 0.821340 0.957586
vt 0.825539 0.957584
vt 0.810301 0.864248
vt 0.806801 0.864250
vt 0.810282 0.822737
vt 0.806782 0.822739
vt 0.802034 0.677948
vt 0.858515 0.677948
vt 0.972307 0.462806
vt 0.972580 0.771146
vt 0.967455 0.462352
vt 0.969017 0.772334
vt 0.810390 0.916826
vt 0.814650 0.916824
vt 0.810408 0.958381
vt 0.814668 0.958379
vt 0.825538 0.873129
vt 0.825527 0.907661
vt 0.821350 0.873127
vt 0.821340 0.907660
vt 0.821400 0.817687
vt 0.821414 0.797951
vt 0.825581 0.817690
vt 0.825594 0.797954
vt 0.802034 0.677949
vt 0.858514 0.677949
vt 0.877931 0.138846
vt 0.877813 0.440140
vt 0.867323 0.138657
vt 0.867295 0.447288
vt 0.810425 0.797960
vt 0.814686 0.797962
vt 0.810418 0.817749
vt 0.814679 0.817750
vt 0.814669 0.873371
vt 0.814652 0.907844
vt 0.810409 0.873369
vt 0.810393 0.907842
vt 0.816626 0.144405
vt 0.822032 0.156266
vt 0.642135 0.144393
vt 0.636463 0.155358
vt 0.527004 0.052893
vt 0.817124 0.052871
vt 0.535687 0.059843
vt 0.810345 0.059822
vt 0.645002 0.183600
vt 0.637670 0.177432
vt 0.819559 0.183636
vt 0.823932 0.178363
vt 0.812196 0.069993
vt 0.818975 0.076943
vt 0.537538 0.069993
vt 0.528848 0.076944
vt 0.830758 0.696122
vt 0.802034 0.677943
vt 0.858515 0.677943
vt 0.810410 0.963403
vt 0.814671 0.963400
vt 0.810424 0.983191
vt 0.814685 0.983188
vt 0.810271 0.797957
vt 0.810280 0.817723
vt 0.806771 0.797959
vt 0.806780 0.817725
vt 0.821335 0.963334
vt 0.825539 0.963331
vt 0.821353 0.983185
vt 0.825557 0.983181
vt 0.870467 0.113217
vt 0.868363 0.113228
vt 0.870485 0.012806
vt 0.868382 0.012817
vt 0.914494 0.112406
vt 0.914511 0.012706
vt 0.769774 0.983042
vt 0.766319 0.983044
vt 0.769748 0.939519
vt 0.766293 0.939521
vt 0.766466 0.871234
vt 0.769920 0.871232
vt 0.766494 0.931535
vt 0.769948 0.931533
vt 0.766471 0.811678
vt 0.766519 0.751425
vt 0.769927 0.811681
vt 0.769975 0.751429
vt 0.037700 0.116023
vt 0.013543 0.116023
vt 0.037700 0.118533
vt 0.013543 0.200320
vt 0.086697 0.118533
vt 0.205577 0.200320
vt 0.205603 0.116023
vt 0.086697 0.116023
vt 0.793276 0.724348
vt 0.851415 0.724266
vt 0.793053 0.768795
vt 0.850506 0.768712
vt 0.769714 0.819735
vt 0.769713 0.863250
vt 0.765574 0.819735
vt 0.765572 0.863250
vt 0.435878 0.120921
vt 0.436073 0.182095
vt 0.424462 0.121270
vt 0.586116 0.120772
vt 0.598843 0.121164
vt 0.586996 0.182016
vt 0.424657 0.221431
vt 0.443950 0.202946
vt 0.464785 0.212048
vt 0.599038 0.221323
vt 0.557306 0.211948
vt 0.578126 0.202963
vt 0.790093 0.916955
vt 0.793590 0.916956
vt 0.790085 0.958442
vt 0.793582 0.958443
vt 0.790077 0.873514
vt 0.793581 0.873514
vt 0.790080 0.907989
vt 0.793583 0.907989
vt 0.830751 0.696129
vt 0.802037 0.677924
vt 0.790060 0.864458
vt 0.790062 0.822816
vt 0.793572 0.864458
vt 0.793574 0.822816
vt 0.793582 0.963457
vt 0.793580 0.983205
vt 0.790085 0.963457
vt 0.790083 0.983205
vt 0.789080 0.963568
vt 0.789068 0.983218
vt 0.785604 0.963566
vt 0.785592 0.983216
vt 0.785675 0.873845
vt 0.789175 0.873847
vt 0.785663 0.908291
vt 0.789163 0.908292
vt 0.789095 0.958649
vt 0.785613 0.958647
vt 0.789121 0.917243
vt 0.785639 0.917241
vt 0.830755 0.696129
vt 0.802037 0.677940
vt 0.858512 0.677934
vt 0.789975 0.823662
vt 0.789989 0.865554
vt 0.785691 0.823663
vt 0.785706 0.865555
vt 0.785682 0.797975
vt 0.789971 0.797973
vt 0.785694 0.817895
vt 0.789983 0.817892
vt 0.320423 0.455349
vt 0.320423 0.354403
vt 0.436363 0.427337
vt 0.436362 0.378911
vt 0.504772 0.354404
vt 0.479778 0.378911
vt 0.458586 0.439186
vt 0.504772 0.450667
vt 0.583139 0.354402
vt 0.595101 0.354402
vt 0.583141 0.450667
vt 0.479778 0.427337
vt 0.595103 0.455349
vt 0.730920 0.635594
vt 0.715014 0.616851
vt 0.746046 0.616851
vt 0.746046 0.596591
vt 0.715014 0.596591
vt 0.757601 0.391831
vt 0.757601 0.440453
vt 0.703482 0.391831
vt 0.703482 0.440454
vt 0.678184 0.581649
vt 0.678178 0.553133
vt 0.702987 0.581649
vt 0.782878 0.581648
vt 0.758081 0.581649
vt 0.782878 0.553133
vt 0.807018 0.553133
vt 0.807029 0.525372
vt 0.654046 0.553133
vt 0.654056 0.525372
vt 0.800600 0.391831
vt 0.828037 0.359304
vt 0.633045 0.359306
vt 0.758107 0.596591
vt 0.702955 0.596591
vt 0.972409 0.450879
vt 0.967487 0.450425
vt 0.961320 0.451157
vt 0.966242 0.451611
vt 0.779101 0.452601
vt 0.681983 0.452602
vt 0.629933 0.525375
vt 0.629933 0.475037
vt 0.831129 0.525375
vt 0.831151 0.475035
vt 0.752408 0.477318
vt 0.752408 0.525950
vt 0.730158 0.538090
vt 0.708653 0.525950
vt 0.708653 0.477318
vt 0.660483 0.391832
vt 0.633046 0.472214
vt 0.828038 0.472213
vt 0.800601 0.440453
vt 0.660484 0.440454
vt 0.915842 0.112395
vt 0.915859 0.011983
vt 0.155552 0.223805
vt 0.134327 0.246733
vt 0.046717 0.223760
vt 0.068807 0.246620
vt 0.134216 0.300489
vt 0.155870 0.324562
vt 0.047037 0.324517
vt 0.068696 0.300377
vt 0.191476 0.227157
vt 0.191476 0.324305
vt 0.169237 0.227157
vt 0.169237 0.324305
vt 0.810321 0.916757
vt 0.810304 0.957637
vt 0.806812 0.916043
vt 0.806796 0.957636
vt 0.810410 0.864324
vt 0.810417 0.822770
vt 0.814670 0.864324
vt 0.814678 0.822771
vt 0.233186 0.546952
vt 0.185821 0.546952
vt 0.233186 0.498402
vt 0.185821 0.498402
vt 0.094769 0.546952
vt 0.094769 0.498402
vt 0.142136 0.546952
vt 0.142136 0.498402
vt 0.276185 0.546952
vt 0.309042 0.578784
vt 0.254686 0.558389
vt 0.163635 0.558389
vt 0.073270 0.558389
vt 0.276185 0.498402
vt 0.309042 0.465092
vt 0.018914 0.578784
vt 0.051770 0.546952
vt 0.051770 0.498402
vt 0.018914 0.465092
vt 0.306915 0.456468
vt 0.190809 0.427604
vt 0.306915 0.354380
vt 0.190809 0.379040
vt 0.123005 0.354381
vt 0.147124 0.379040
vt 0.169317 0.439740
vt 0.123005 0.451529
vt 0.044428 0.354380
vt 0.044430 0.451529
vt 0.032255 0.354381
vt 0.147124 0.427605
vt 0.032256 0.456469
vt 0.831525 0.864464
vt 0.831559 0.822823
vt 0.835724 0.864467
vt 0.835758 0.822826
vt 0.852601 0.957646
vt 0.849095 0.957649
vt 0.852569 0.916785
vt 0.849062 0.916788
vt 0.394783 0.547172
vt 0.394783 0.498408
vt 0.443599 0.547172
vt 0.443599 0.498408
vt 0.533657 0.547172
vt 0.487805 0.547172
vt 0.533657 0.498408
vt 0.487805 0.498408
vt 0.353541 0.547172
vt 0.375266 0.557439
vt 0.320805 0.578786
vt 0.465325 0.557439
vt 0.555383 0.557438
vt 0.353541 0.498408
vt 0.320804 0.465196
vt 0.610532 0.578786
vt 0.577864 0.547172
vt 0.577864 0.498408
vt 0.610532 0.465196
vt 0.867981 0.907657
vt 0.863721 0.907656
vt 0.867987 0.873106
vt 0.863727 0.873105
vt 0.880492 0.873141
vt 0.884682 0.873140
vt 0.880501 0.907694
vt 0.884691 0.907693
vt 0.441321 0.703834
vt 0.441321 0.692732
vt 0.458035 0.703834
vt 0.458035 0.692732
vt 0.470355 0.692732
vt 0.470355 0.675033
vt 0.428931 0.692732
vt 0.428931 0.675033
vt 0.961444 0.390136
vt 0.960945 0.379834
vt 0.966372 0.390717
vt 0.965874 0.380411
vt 0.976490 0.390357
vt 0.971562 0.389749
vt 0.973933 0.379145
vt 0.970632 0.380240
vt 0.415838 0.675033
vt 0.415838 0.653543
vt 0.483449 0.675033
vt 0.483449 0.653543
vt 0.417987 0.596066
vt 0.427766 0.599818
vt 0.417987 0.650241
vt 0.427766 0.647867
vt 0.450021 0.660698
vt 0.471521 0.647952
vt 0.481300 0.650241
vt 0.471521 0.599988
vt 0.481300 0.596259
vt 0.617642 0.703824
vt 0.600172 0.703824
vt 0.617642 0.692722
vt 0.600172 0.692722
vt 0.587852 0.692722
vt 0.587852 0.675023
vt 0.629962 0.692722
vt 0.629962 0.675023
vt 0.964681 0.422694
vt 0.967027 0.423362
vt 0.966119 0.435861
vt 0.971049 0.436541
vt 0.980671 0.422921
vt 0.979346 0.434669
vt 0.975743 0.422341
vt 0.974425 0.433449
vt 0.642370 0.675023
vt 0.642370 0.653533
vt 0.575443 0.675023
vt 0.575443 0.653533
vt 0.640151 0.596066
vt 0.640151 0.650231
vt 0.630441 0.599819
vt 0.630441 0.647856
vt 0.608872 0.660689
vt 0.587373 0.647943
vt 0.577593 0.650231
vt 0.587372 0.599993
vt 0.577593 0.596265
vt 0.844636 0.820210
vt 0.844593 0.868808
vt 0.842542 0.820208
vt 0.842498 0.868807
vt 0.842572 0.795562
vt 0.844666 0.795564
vt 0.844655 0.985588
vt 0.842558 0.985590
vt 0.844631 0.960912
vt 0.842534 0.960913
vt 0.844593 0.912265
vt 0.842496 0.912266
vt 0.840183 0.912569
vt 0.840194 0.869005
vt 0.842278 0.912568
vt 0.842292 0.869006
vt 0.840232 0.961009
vt 0.842322 0.961006
vt 0.840269 0.985587
vt 0.842358 0.985584
vt 0.840257 0.795562
vt 0.842358 0.795564
vt 0.840234 0.820279
vt 0.842334 0.820281
vt 0.854972 0.868815
vt 0.852877 0.868817
vt 0.854862 0.820210
vt 0.852767 0.820215
vt 0.854791 0.795562
vt 0.852696 0.795568
vt 0.854793 0.985587
vt 0.852696 0.985582
vt 0.854859 0.960916
vt 0.852763 0.960911
vt 0.854958 0.912278
vt 0.852862 0.912276
vt 0.797978 0.912440
vt 0.797975 0.868990
vt 0.800141 0.912440
vt 0.800141 0.868990
vt 0.797969 0.960987
vt 0.800130 0.960987
vt 0.797967 0.985599
vt 0.800128 0.985599
vt 0.797978 0.795562
vt 0.800147 0.795562
vt 0.797978 0.820265
vt 0.800146 0.820265
vt 0.871689 0.912093
vt 0.871697 0.868638
vt 0.873854 0.912093
vt 0.873861 0.868638
vt 0.759930 0.815210
vt 0.759985 0.747884
vt 0.762071 0.815283
vt 0.762125 0.747886
vt 0.762132 0.986787
vt 0.759992 0.986788
vt 0.762100 0.935072
vt 0.759961 0.935073
vt 0.759929 0.866990
vt 0.762069 0.866989
vt 0.907107 0.820264
vt 0.905719 0.820263
vt 0.907119 0.795563
vt 0.905731 0.795562
vt 0.907101 0.960962
vt 0.907115 0.985586
vt 0.905718 0.960964
vt 0.905733 0.985587
vt 0.907080 0.912398
vt 0.905696 0.912399
vt 0.907083 0.868950
vt 0.905697 0.868950
vt 0.897017 0.820226
vt 0.894877 0.820225
vt 0.897022 0.795562
vt 0.894881 0.795562
vt 0.897016 0.960927
vt 0.897023 0.985586
vt 0.894876 0.960927
vt 0.894883 0.985587
vt 0.897006 0.912302
vt 0.894865 0.912302
vt 0.897007 0.868846
vt 0.894867 0.868846
vt 0.892710 0.960933
vt 0.892693 0.912281
vt 0.894782 0.960932
vt 0.894765 0.912281
vt 0.892725 0.985595
vt 0.894797 0.985594
vt 0.892726 0.795562
vt 0.894797 0.795563
vt 0.892717 0.820215
vt 0.894787 0.820216
vt 0.892698 0.868828
vt 0.894769 0.868829
vt 0.781198 0.820462
vt 0.779090 0.820464
vt 0.781183 0.795562
vt 0.779074 0.795563
vt 0.781170 0.961106
vt 0.781155 0.985595
vt 0.779088 0.961104
vt 0.779074 0.985594
vt 0.781201 0.912810
vt 0.779113 0.912809
vt 0.779115 0.869324
vt 0.781215 0.869324
vt 0.829329 0.960061
vt 0.829233 0.912112
vt 0.831430 0.960059
vt 0.831399 0.912111
vt 0.829351 0.985586
vt 0.831453 0.985584
vt 0.830049 0.795562
vt 0.831453 0.795563
vt 0.829346 0.820160
vt 0.831437 0.820161
vt 0.829246 0.868680
vt 0.831407 0.868681
vt 0.802321 0.820198
vt 0.800227 0.820199
vt 0.802309 0.795562
vt 0.800216 0.795563
vt 0.802326 0.960894
vt 0.802314 0.985587
vt 0.800229 0.960893
vt 0.800216 0.985586
vt 0.802346 0.912225
vt 0.800249 0.912224
vt 0.802343 0.868772
vt 0.800248 0.868772
vt 0.819044 0.912298
vt 0.821209 0.912298
vt 0.819065 0.960923
vt 0.821230 0.960922
vt 0.819082 0.985587
vt 0.821247 0.985585
vt 0.819074 0.820226
vt 0.819082 0.795562
vt 0.821238 0.820226
vt 0.821247 0.795563
vt 0.819065 0.868850
vt 0.821230 0.868850
vt 0.873930 0.868673
vt 0.876025 0.868673
vt 0.873943 0.912130
vt 0.876037 0.912130
vt 0.644473 0.240849
vt 0.639812 0.200144
vt 0.627914 0.098962
vt 0.628314 0.086674
vt 0.719876 0.099644
vt 0.720273 0.087428
vt 0.583120 0.099859
vt 0.583522 0.087639
vt 0.606689 0.097575
vt 0.607090 0.085359
vt 0.526963 0.087224
vt 0.526491 0.099440
vt 0.743442 0.097832
vt 0.743908 0.085612
vt 0.700344 0.893094
vt 0.675679 0.893094
vt 0.700344 0.860820
vt 0.675679 0.832751
vt 0.652185 0.940247
vt 0.640231 0.940247
vt 0.652185 0.919194
vt 0.640231 0.919194
vt 0.620759 0.940247
vt 0.620759 0.919194
vt 0.707415 0.847386
vt 0.707415 0.836069
vt 0.726887 0.847386
vt 0.726887 0.836069
vt 0.672344 0.940247
vt 0.672344 0.919194
vt 0.684297 0.940247
vt 0.684297 0.919194
vt 0.731622 0.860722
vt 0.731622 0.893094
vt 0.620493 0.893094
vt 0.620493 0.860722
vt 0.644401 0.893094
vt 0.644401 0.832654
vt 0.729320 0.906974
vt 0.722965 0.912631
vt 0.705343 0.906974
vt 0.711012 0.912631
vt 0.729320 0.937853
vt 0.722965 0.932268
vt 0.705343 0.937853
vt 0.711012 0.932268
vt 0.358364 0.087442
vt 0.375853 0.087438
vt 0.358365 0.094980
vt 0.375855 0.094977
vt 0.426944 0.087437
vt 0.426943 0.094977
vt 0.415916 0.087437
vt 0.415916 0.094976
vt 0.388929 0.087437
vt 0.399202 0.087437
vt 0.388930 0.094975
vt 0.399202 0.094975
vt 0.439266 0.087439
vt 0.457443 0.087442
vt 0.439265 0.094979
vt 0.457442 0.094982
vt 0.345273 0.094983
vt 0.323979 0.094988
vt 0.345272 0.087446
vt 0.323977 0.087451
vt 0.491152 0.087450
vt 0.491151 0.094988
vt 0.469852 0.087444
vt 0.469851 0.094984
vt 0.084447 0.085195
vt 0.084447 0.075125
vt 0.100771 0.085195
vt 0.100765 0.075119
vt 0.113101 0.075120
vt 0.113095 0.057635
vt 0.071425 0.075125
vt 0.071426 0.057635
vt 0.058444 0.057635
vt 0.058444 0.036081
vt 0.125343 0.057635
vt 0.125343 0.036081
vt 0.091893 0.058575
vt 0.920031 0.461273
vt 0.920031 0.508350
vt 0.907934 0.466958
vt 0.907934 0.508350
vt 0.965453 0.382027
vt 0.970598 0.380240
vt 0.463362 0.077763
vt 0.464142 0.070131
vt 0.480911 0.077968
vt 0.481006 0.070336
vt 0.375882 0.067642
vt 0.386842 0.067375
vt 0.376892 0.075780
vt 0.387235 0.075513
vt 0.413074 0.067474
vt 0.413468 0.075614
vt 0.402799 0.067742
vt 0.403123 0.075880
vt 0.973314 0.429970
vt 0.969624 0.434352
vt 0.347058 0.075850
vt 0.346733 0.067713
vt 0.365026 0.075622
vt 0.364015 0.067484
vt 0.960951 0.432770
vt 0.966252 0.436723
vt 0.085430 0.717538
vt 0.021807 0.717155
vt 0.085662 0.675946
vt 0.049429 0.663762
vt 0.093773 0.664741
vt 0.093705 0.675992
vt 0.103130 0.716946
vt 0.103051 0.675561
vt 0.165425 0.714729
vt 0.139103 0.662522
vt 0.094784 0.663538
vt 0.094830 0.675801
vt 0.493289 0.070059
vt 0.493195 0.077691
vt 0.978579 0.382035
vt 0.975427 0.379996
vt 0.882960 0.461273
vt 0.895744 0.466903
vt 0.882960 0.508524
vt 0.895744 0.508524
vt 0.451170 0.070389
vt 0.451008 0.078021
vt 0.431459 0.070059
vt 0.431295 0.077691
vt 0.098747 0.788009
vt 0.098747 0.746344
vt 0.162372 0.788009
vt 0.136234 0.734381
vt 0.091459 0.734381
vt 0.091459 0.746344
vt 0.313983 0.067642
vt 0.334867 0.067538
vt 0.314307 0.075780
vt 0.335191 0.075676
vt 0.907852 0.508363
vt 0.895825 0.502608
vt 0.907852 0.461273
vt 0.895825 0.461273
vt 0.174324 0.085074
vt 0.157610 0.085075
vt 0.174324 0.074611
vt 0.157610 0.074611
vt 0.144534 0.074611
vt 0.144534 0.056272
vt 0.186715 0.074611
vt 0.186715 0.056272
vt 0.199808 0.056273
vt 0.199808 0.035422
vt 0.132197 0.056273
vt 0.132196 0.035422
vt 0.165625 0.058274
vt 0.870850 0.508533
vt 0.870850 0.461273
vt 0.882879 0.502831
vt 0.882879 0.461273
vt 0.082265 0.787452
vt 0.018989 0.786128
vt 0.082276 0.746387
vt 0.045018 0.733850
vt 0.089783 0.734251
vt 0.089785 0.746423
vt 0.884697 0.956929
vt 0.880508 0.956929
vt 0.884690 0.915850
vt 0.880502 0.915851
vt 0.863711 0.823725
vt 0.867971 0.823724
vt 0.863727 0.864100
vt 0.867986 0.864099
vt 0.370603 0.650240
vt 0.528583 0.650241
vt 0.530393 0.650231
vt 0.687595 0.650231
vt 0.884693 0.823816
vt 0.884685 0.864131
vt 0.880502 0.823815
vt 0.880493 0.864130
vt 0.880508 0.961771
vt 0.884696 0.961771
vt 0.880508 0.981747
vt 0.884696 0.981747
vt 0.863705 0.956933
vt 0.863716 0.915815
vt 0.867966 0.956934
vt 0.867977 0.915816
vt 0.830753 0.696126
vt 0.802033 0.677940
vt 0.858512 0.677942
vt 0.858506 0.610018
vt 0.802229 0.610014
vt 0.884703 0.798081
vt 0.884696 0.818917
vt 0.880510 0.798080
vt 0.880504 0.818916
vt 0.863697 0.798082
vt 0.867956 0.798080
vt 0.863709 0.818902
vt 0.867968 0.818900
vt 0.858514 0.677944
vt 0.858509 0.610019
vt 0.867965 0.961777
vt 0.867958 0.981770
vt 0.863704 0.961776
vt 0.863697 0.981768
vt 0.871676 0.959357
vt 0.873841 0.959357
vt 0.873832 0.984359
vt 0.871667 0.984358
vt 0.871663 0.795563
vt 0.873828 0.795562
vt 0.871678 0.821310
vt 0.873843 0.821309
vt 0.876035 0.821329
vt 0.873939 0.821328
vt 0.873948 0.795562
vt 0.876043 0.795563
vt 0.876045 0.984332
vt 0.873952 0.984332
vt 0.876045 0.959351
vt 0.873951 0.959351
s 1
usemtl mat_merchant_house_1
f 1/1/1 3/2/2 15/3/3
f 15/3/3 3/2/2 17/4/4
f 5/5/5 19/6/6 7/7/7
f 7/7/7 19/6/6 21/8/8
f 9/9/9 12/10/10 23/11/11
f 23/11/11 12/10/10 26/12/12
f 14/13/13 2/14/14 16/15/15
f 2/16/14 1/17/1 16/18/15
f 16/18/15 1/17/1 15/19/3
f 23/20/11 26/21/12 482/22/16
f 482/22/16 21/23/8 19/24/6
f 23/20/11 482/22/16 19/24/6
f 481/25/17 12/26/10 9/27/9
f 5/28/5 7/29/7 481/25/17
f 9/27/9 5/28/5 481/25/17
f 5/30/5 9/31/9 19/32/6
f 19/32/6 9/31/9 23/33/11
f 234/34/18 14/35/13 235/36/19
f 42/37/20 35/38/21 43/39/22
f 14/35/13 234/34/18 2/40/14
f 14/35/13 44/41/23 235/36/19
f 235/36/19 44/41/23 231/42/24
f 44/41/23 43/39/22 231/42/24
f 239/43/25 230/44/26 308/45/27
f 228/46/28 309/47/29 237/48/30
f 231/42/24 43/39/22 230/44/26
f 230/44/26 43/39/22 308/45/27
f 43/39/22 35/38/21 308/45/27
f 308/45/27 35/38/21 309/47/29
f 35/38/21 2/40/14 309/47/29
f 309/47/29 2/40/14 237/48/30
f 237/48/30 2/40/14 234/34/18
f 233/49/31 236/50/32 14/51/13
f 41/52/33 40/53/34 30/54/35
f 232/55/36 467/56/37 236/50/32
f 467/56/37 468/57/38 236/50/32
f 236/50/32 468/57/38 14/51/13
f 14/51/13 16/58/15 233/49/31
f 240/59/39 303/60/40 229/61/41
f 227/62/42 238/63/43 302/64/44
f 232/55/36 229/61/41 467/56/37
f 467/56/37 229/61/41 466/65/45
f 229/61/41 303/60/40 466/65/45
f 233/49/31 16/58/15 238/63/43
f 238/63/43 16/58/15 302/64/44
f 16/58/15 30/54/35 302/64/44
f 302/64/44 30/54/35 303/60/40
f 30/54/35 40/53/34 303/60/40
f 303/60/40 40/53/34 466/65/45
f 40/53/34 44/66/23 466/65/45
f 466/65/45 44/66/23 465/67/46
f 14/51/13 468/57/38 44/66/23
f 44/66/23 468/57/38 465/67/46
f 65/68/47 74/69/48 68/70/49
f 68/70/49 74/69/48 75/71/50
f 49/72/51 50/73/52 67/74/53
f 67/74/53 50/73/52 66/75/54
f 46/76/55 69/77/48 45/78/56
f 45/78/56 69/77/48 70/79/57
f 73/80/58 64/81/59 76/82/60
f 76/82/60 64/81/59 61/83/61
f 39/84/62 36/85/63 43/86/22
f 43/86/22 36/85/63 42/87/20
f 48/88/64 71/89/65 47/90/66
f 47/90/66 71/89/65 72/91/67
f 41/92/33 29/93/68 40/94/34
f 40/94/34 29/93/68 37/95/8
f 58/96/69 55/97/70 57/98/71
f 57/98/71 55/97/70 56/99/72
f 37/95/8 29/93/68 57/98/71
f 57/98/71 29/93/68 58/96/69
f 51/100/73 52/101/74 60/102/75
f 60/102/75 52/101/74 59/103/76
f 56/99/72 55/97/70 59/103/76
f 59/103/76 55/97/70 60/102/75
f 62/104/77 63/105/78 54/106/79
f 54/106/79 63/105/78 53/107/80
f 63/105/78 62/104/77 51/100/73
f 51/100/73 62/104/77 52/101/74
f 46/76/55 45/78/56 66/75/54
f 66/75/54 45/78/56 67/74/53
f 72/91/67 71/89/65 39/84/62
f 39/84/62 71/89/65 36/85/63
f 48/88/64 47/90/66 69/77/48
f 69/77/48 47/90/66 70/79/57
f 38/108/81 61/83/61 28/109/82
f 28/109/82 61/83/61 64/81/59
f 50/73/52 49/72/51 74/69/48
f 74/69/48 49/72/51 75/71/50
f 47/110/66 72/111/67 70/112/57
f 45/113/56 70/112/57 67/114/53
f 49/115/51 67/114/53 75/116/50
f 39/117/62 43/118/22 72/111/67
f 38/119/81 68/120/49 44/121/23
f 68/120/49 75/116/50 44/121/23
f 75/116/50 67/114/53 44/121/23
f 67/114/53 70/112/57 44/121/23
f 43/118/22 44/121/23 72/111/67
f 72/111/67 44/121/23 70/112/57
f 52/122/74 62/123/77 59/124/76
f 56/125/72 59/124/76 57/126/71
f 54/127/79 76/128/60 62/123/77
f 37/129/8 57/126/71 40/130/34
f 38/119/81 44/121/23 61/131/61
f 61/131/61 44/121/23 76/128/60
f 76/128/60 44/121/23 62/123/77
f 62/123/77 44/121/23 59/124/76
f 40/130/34 57/126/71 44/121/23
f 44/121/23 57/126/71 59/124/76
f 54/106/79 53/107/80 76/82/60
f 76/82/60 53/107/80 73/80/58
f 38/132/81 28/133/82 68/70/49
f 68/70/49 28/133/82 65/68/47
f 99/134/83 98/135/84 96/136/85
f 96/136/85 98/135/84 95/137/86
f 13/138/87 98/139/84 12/140/10
f 191/141/88 148/142/87 80/143/87
f 80/143/87 148/142/87 79/144/89
f 98/139/84 99/145/83 97/146/87
f 97/146/87 99/145/83 100/147/89
f 79/144/89 148/142/87 99/145/83
f 148/142/87 151/148/90 99/145/83
f 99/145/83 151/148/90 100/147/89
f 13/138/87 12/140/10 79/144/89
f 190/149/91 83/150/92 151/148/90
f 151/148/90 83/150/92 100/147/89
f 100/147/89 83/150/92 84/151/93
f 12/140/10 98/139/84 26/152/12
f 98/139/84 97/146/87 26/152/12
f 97/146/87 27/153/90 26/152/12
f 27/153/90 84/151/93 26/152/12
f 79/144/89 12/140/10 80/143/87
f 84/151/93 83/150/92 26/152/12
f 80/154/87 481/155/17 7/156/7
f 80/154/87 7/156/7 8/157/89
f 7/158/7 21/159/8 8/160/89
f 8/160/89 21/159/8 22/161/94
f 22/162/94 21/163/8 83/164/92
f 83/150/92 482/165/16 26/152/12
f 8/166/89 22/167/94 4/168/95
f 4/168/95 22/167/94 18/169/96
f 6/170/97 20/171/98 3/172/2
f 3/172/2 20/171/98 17/173/4
f 138/174/99 144/175/100 442/176/101
f 442/176/101 144/175/100 441/177/102
f 123/178/103 412/179/104 111/180/105
f 111/180/105 412/179/104 413/181/106
f 109/182/107 110/183/108 411/184/109
f 411/184/109 110/183/108 410/185/75
f 410/186/75 110/187/108 414/188/48
f 414/188/48 110/187/108 112/189/10
f 156/190/110 158/191/111 366/192/112
f 366/192/112 158/191/111 365/193/113
f 128/194/108 342/195/114 127/196/8
f 127/196/8 342/195/114 343/197/115
f 334/198/116 335/199/117 132/200/118
f 132/200/118 335/199/117 106/201/119
f 123/202/103 111/203/105 109/204/107
f 109/204/107 111/203/105 110/205/108
f 110/205/108 111/203/105 112/206/10
f 111/207/105 413/208/106 112/209/10
f 112/209/10 413/208/106 414/210/48
f 121/211/120 391/212/121 113/213/122
f 113/213/122 391/212/121 392/214/123
f 393/215/48 394/216/75 114/217/124
f 114/217/124 394/216/75 115/218/125
f 114/219/124 113/220/122 393/221/48
f 393/221/48 113/220/122 392/222/123
f 98/223/84 13/224/87 95/225/86
f 97/226/87 90/227/126 27/228/90
f 13/224/87 10/229/127 95/225/86
f 95/225/86 10/229/127 92/230/128
f 92/230/128 10/229/127 94/231/129
f 10/229/127 24/232/130 94/231/129
f 94/231/129 24/232/130 86/233/131
f 86/233/131 24/232/130 88/234/132
f 88/234/132 24/232/130 90/227/126
f 90/227/126 24/232/130 27/228/90
f 115/235/125 394/236/75 116/237/133
f 116/237/133 394/236/75 390/238/134
f 122/239/120 401/240/121 117/241/122
f 117/241/122 401/240/121 402/242/123
f 119/243/125 118/244/124 404/245/75
f 404/245/75 118/244/124 403/246/48
f 122/247/120 117/248/122 120/249/133
f 117/248/122 118/250/124 120/249/133
f 120/249/133 118/250/124 119/251/125
f 118/252/124 117/253/122 403/254/48
f 403/254/48 117/253/122 402/255/123
f 119/256/125 404/257/75 120/258/133
f 120/258/133 404/257/75 400/259/134
f 121/260/120 113/261/122 116/262/133
f 113/261/122 114/263/124 116/262/133
f 116/262/133 114/263/124 115/251/125
f 121/264/120 116/265/133 391/266/121
f 391/266/121 116/265/133 390/267/134
f 122/268/120 120/269/133 401/270/121
f 401/270/121 120/269/133 400/271/134
f 411/272/109 412/273/104 109/274/107
f 109/274/107 412/273/104 123/275/103
f 125/276/135 124/277/8 333/278/136
f 333/278/136 124/277/8 332/279/115
f 127/280/8 343/281/115 126/282/135
f 126/282/135 343/281/115 344/283/136
f 108/284/8 352/285/115 107/286/135
f 107/286/135 352/285/115 353/287/136
f 129/288/119 133/289/137 346/290/138
f 346/290/138 133/289/137 345/291/116
f 130/292/119 134/293/139 355/294/138
f 355/294/138 134/293/139 354/295/116
f 131/296/108 130/297/119 356/298/114
f 356/298/114 130/297/119 355/299/138
f 31/300/140 30/301/35 15/302/3
f 15/302/3 30/301/35 16/303/15
f 332/304/115 124/305/8 336/306/114
f 336/306/114 124/305/8 105/307/108
f 32/308/141 31/309/140 17/310/4
f 17/310/4 31/309/140 15/311/3
f 131/312/108 356/313/114 108/314/8
f 108/314/8 356/313/114 352/315/115
f 132/316/118 125/317/135 334/318/116
f 334/318/116 125/317/135 333/319/136
f 132/320/118 106/321/119 125/322/135
f 106/321/119 105/323/108 125/322/135
f 125/322/135 105/323/108 124/324/8
f 133/325/137 126/326/135 345/327/116
f 345/327/116 126/326/135 344/328/136
f 133/329/137 129/203/119 126/330/135
f 129/203/119 128/331/108 126/330/135
f 126/330/135 128/331/108 127/251/8
f 134/332/139 107/333/135 354/334/116
f 354/334/116 107/333/135 353/335/136
f 134/320/139 130/336/119 107/337/135
f 130/336/119 131/323/108 107/337/135
f 107/337/135 131/323/108 108/324/8
f 136/338/142 135/339/99 434/340/143
f 434/340/143 135/339/99 433/341/101
f 137/342/144 443/343/143 140/344/10
f 140/344/10 443/343/143 444/345/145
f 102/346/10 430/347/145 101/348/146
f 101/348/146 430/347/145 431/349/147
f 140/350/10 444/351/145 139/352/146
f 139/352/146 444/351/145 440/353/147
f 144/320/100 138/354/99 139/355/146
f 139/355/146 138/354/99 140/251/10
f 140/251/10 138/354/99 137/323/144
f 34/356/148 1/357/1 35/358/21
f 35/358/21 1/357/1 2/359/14
f 141/360/149 450/361/145 142/362/146
f 142/362/146 450/361/145 451/363/147
f 434/364/143 430/365/145 136/366/142
f 136/366/142 430/365/145 102/367/10
f 135/368/99 145/369/100 433/370/101
f 433/370/101 145/369/100 432/371/102
f 145/320/100 135/372/99 101/373/146
f 101/373/146 135/372/99 102/324/10
f 102/324/10 135/372/99 136/323/142
f 33/374/150 3/375/2 34/376/148
f 34/376/148 3/375/2 1/377/1
f 143/378/100 452/379/102 104/380/99
f 104/380/99 452/379/102 453/381/101
f 454/382/143 450/383/145 103/384/142
f 103/384/142 450/383/145 141/385/149
f 10/386/127 11/387/151 24/388/130
f 11/387/151 25/389/152 24/388/130
f 25/390/152 20/391/98 24/392/130
f 24/392/130 20/391/98 18/393/96
f 18/394/96 20/395/98 4/396/95
f 20/395/98 6/397/97 4/396/95
f 4/398/95 6/399/97 10/400/127
f 10/400/127 6/399/97 11/401/151
f 143/402/100 104/403/99 142/404/146
f 142/404/146 104/403/99 141/251/149
f 141/251/149 104/403/99 103/323/142
f 142/405/146 451/406/147 143/407/100
f 143/407/100 451/406/147 452/408/102
f 144/409/100 139/410/146 441/411/102
f 441/411/102 139/410/146 440/412/147
f 101/413/146 431/414/147 145/415/100
f 145/415/100 431/414/147 432/416/102
f 148/417/87 191/418/88 149/419/127
f 149/419/127 191/418/88 188/420/151
f 151/421/90 148/417/87 150/422/130
f 150/422/130 148/417/87 149/419/127
f 146/423/12 382/424/75 147/425/153
f 147/425/153 382/424/75 383/426/154
f 384/427/155 152/428/151 383/429/154
f 383/429/154 152/428/151 147/430/153
f 381/431/48 382/432/75 153/433/10
f 153/433/10 382/432/75 146/434/12
f 188/435/151 77/436/156 149/437/127
f 77/436/156 78/438/157 149/437/127
f 149/437/127 78/438/157 150/439/130
f 78/438/157 81/440/158 150/439/130
f 81/440/158 82/441/159 150/439/130
f 150/439/130 82/441/159 189/442/160
f 153/443/10 146/444/12 152/445/151
f 152/445/151 146/444/12 147/446/153
f 153/447/10 152/448/151 381/449/48
f 381/449/48 152/448/151 384/450/155
f 99/451/83 96/452/85 79/453/89
f 100/454/89 84/455/93 89/456/161
f 79/453/89 96/452/85 78/457/157
f 96/452/85 91/458/162 78/457/157
f 91/458/162 93/459/163 78/457/157
f 78/457/157 93/459/163 81/460/158
f 93/459/163 85/461/164 81/460/158
f 85/461/164 87/462/165 81/460/158
f 87/462/165 89/456/161 81/460/158
f 81/460/158 89/456/161 84/455/93
f 154/463/8 363/464/166 155/465/167
f 155/465/167 363/464/166 364/466/168
f 157/467/108 362/468/169 154/469/8
f 154/469/8 362/468/169 363/470/166
f 158/471/111 156/472/110 155/249/167
f 156/472/110 157/323/108 155/249/167
f 155/249/167 157/323/108 154/251/8
f 157/473/108 156/474/110 362/475/169
f 362/475/169 156/474/110 366/476/112
f 364/477/168 365/478/113 155/479/167
f 155/479/167 365/478/113 158/480/111
f 159/481/170 163/482/171 422/483/172
f 422/483/172 163/482/171 421/484/173
f 424/485/145 161/486/10 423/487/143
f 423/487/143 161/486/10 160/488/174
f 159/489/170 422/490/172 160/491/174
f 160/491/174 422/490/172 423/492/143
f 163/493/171 159/494/170 162/495/175
f 162/495/175 159/494/170 161/251/10
f 161/251/10 159/494/170 160/323/174
f 162/496/175 161/497/10 420/498/176
f 420/498/176 161/497/10 424/499/145
f 421/500/173 163/501/171 420/502/176
f 420/502/176 163/501/171 162/503/175
f 18/504/96 22/505/94 166/506/177
f 166/506/177 22/505/94 167/507/158
f 22/505/94 83/508/92 167/507/158
f 167/507/158 83/508/92 168/509/178
f 166/506/177 165/510/179 18/504/96
f 83/508/92 82/511/159 168/509/178
f 84/512/93 27/513/90 81/514/158
f 168/509/178 82/511/159 164/515/180
f 164/515/180 82/511/159 165/510/179
f 27/513/90 24/516/130 81/514/158
f 165/510/179 82/511/159 18/504/96
f 81/514/158 24/516/130 82/511/159
f 82/511/159 24/516/130 18/504/96
f 28/517/82 64/518/59 65/519/47
f 65/519/47 64/518/59 74/520/48
f 64/518/59 73/521/58 74/520/48
f 174/522/181 178/523/182 173/524/155
f 173/524/155 178/523/182 169/525/183
f 51/526/73 60/527/75 63/528/78
f 46/529/55 66/530/54 69/531/48
f 48/532/64 69/531/48 71/533/65
f 55/534/70 58/535/69 60/527/75
f 175/536/155 174/522/181 11/537/151
f 11/537/151 174/522/181 25/538/152
f 50/539/52 74/520/48 66/530/54
f 53/540/80 63/528/78 73/521/58
f 73/521/58 63/528/78 74/520/48
f 74/520/48 63/528/78 66/530/54
f 66/530/54 63/528/78 69/531/48
f 63/528/78 60/527/75 69/531/48
f 34/356/148 35/358/21 33/541/150
f 35/358/21 42/542/20 33/541/150
f 31/300/140 32/543/141 30/301/35
f 30/301/35 32/543/141 41/544/33
f 178/523/182 177/545/184 169/525/183
f 169/525/183 177/545/184 170/546/184
f 29/547/68 41/548/33 58/535/69
f 36/549/63 71/533/65 42/550/20
f 42/550/20 71/533/65 183/551/155
f 183/551/155 71/533/65 179/552/185
f 71/533/65 69/531/48 179/552/185
f 179/552/185 69/531/48 180/553/186
f 69/531/48 60/527/75 180/553/186
f 180/553/186 60/527/75 181/554/187
f 60/527/75 58/535/69 181/554/187
f 181/554/187 58/535/69 182/555/154
f 58/535/69 41/548/33 182/555/154
f 174/522/181 173/524/155 25/538/152
f 173/524/155 172/556/154 25/538/152
f 41/548/33 32/557/141 182/555/154
f 42/550/20 183/551/155 33/558/150
f 25/538/152 172/556/154 32/557/141
f 11/537/151 33/558/150 175/536/155
f 175/536/155 33/558/150 176/559/183
f 176/559/183 33/558/150 177/545/184
f 33/558/150 183/551/155 177/545/184
f 177/545/184 183/551/155 170/546/184
f 183/551/155 182/555/154 170/546/184
f 182/555/154 32/557/141 170/546/184
f 170/546/184 32/557/141 171/560/182
f 171/560/182 32/557/141 172/556/154
f 151/421/90 150/422/130 190/561/91
f 190/561/91 150/422/130 189/562/160
f 190/563/91 184/564/188 83/565/92
f 184/564/188 187/566/189 83/565/92
f 184/564/188 190/563/91 185/567/190
f 190/563/91 189/568/160 185/567/190
f 189/568/160 82/569/159 185/567/190
f 185/567/190 82/569/159 186/570/191
f 82/569/159 83/565/92 186/570/191
f 186/570/191 83/565/92 187/566/189
f 80/571/87 77/572/156 191/573/88
f 191/573/88 77/572/156 188/574/151
f 137/575/144 138/576/99 443/577/143
f 443/577/143 138/576/99 442/578/101
f 103/579/142 104/580/99 454/581/143
f 454/581/143 104/580/99 453/582/101
f 206/583/192 199/584/193 202/585/156
f 199/584/193 198/586/157 202/585/156
f 194/587/194 193/588/157 201/589/192
f 201/589/192 193/588/157 197/590/156
f 204/591/194 3/592/2 205/593/195
f 201/589/192 200/594/195 194/587/194
f 194/587/194 200/594/195 195/595/195
f 199/584/193 206/583/192 200/594/195
f 206/583/192 205/593/195 200/594/195
f 204/591/194 203/596/157 3/592/2
f 3/592/2 203/596/157 6/597/97
f 203/596/157 202/585/156 6/597/97
f 202/585/156 198/586/157 6/597/97
f 205/593/195 3/592/2 200/594/195
f 3/592/2 33/598/150 200/594/195
f 200/594/195 33/598/150 195/595/195
f 195/595/195 33/598/150 196/599/192
f 196/599/192 33/598/150 192/600/156
f 33/598/150 11/601/151 192/600/156
f 192/600/156 11/601/151 193/588/157
f 193/588/157 11/601/151 197/590/156
f 11/601/151 6/597/97 197/590/156
f 197/590/156 6/597/97 198/586/157
f 4/602/95 207/603/196 8/604/89
f 207/603/196 211/605/157 8/604/89
f 8/604/89 211/605/157 80/606/87
f 211/605/157 210/607/156 80/606/87
f 207/603/196 4/602/95 208/608/197
f 80/606/87 210/607/156 77/609/156
f 79/610/89 78/611/157 13/612/87
f 210/607/156 209/613/198 77/609/156
f 209/613/198 208/608/197 77/609/156
f 13/612/87 78/611/157 10/614/127
f 208/608/197 4/602/95 77/609/156
f 78/611/157 77/609/156 10/614/127
f 10/614/127 77/609/156 4/602/95
f 128/615/108 129/616/119 342/617/114
f 342/617/114 129/616/119 346/618/138
f 106/619/119 335/620/117 105/621/108
f 105/621/108 335/620/117 336/622/114
f 212/623/199 216/624/200 221/625/201
f 221/625/201 216/624/200 217/626/158
f 226/627/202 219/628/199 222/629/158
f 219/628/199 218/630/200 222/629/158
f 214/631/203 213/632/204 17/633/4
f 219/628/199 226/627/202 220/634/204
f 226/627/202 225/635/204 220/634/204
f 221/625/201 220/634/204 212/623/199
f 212/623/199 220/634/204 213/632/204
f 214/631/203 17/633/4 215/636/158
f 17/633/4 20/637/98 215/636/158
f 215/636/158 20/637/98 216/624/200
f 216/624/200 20/637/98 217/626/158
f 213/632/204 220/634/204 17/633/4
f 17/633/4 220/634/204 32/638/141
f 220/634/204 225/635/204 32/638/141
f 225/635/204 224/639/199 32/638/141
f 224/639/199 223/640/200 32/638/141
f 32/638/141 223/640/200 25/641/152
f 223/640/200 222/629/158 25/641/152
f 222/629/158 218/630/200 25/641/152
f 25/641/152 218/630/200 20/637/98
f 20/637/98 218/630/200 217/626/158
f 372/642/205 297/643/206 376/644/207
f 376/644/207 297/643/206 298/645/208
f 460/646/209 295/647/210 464/648/211
f 464/648/211 295/647/210 296/649/212
f 282/650/213 286/651/214 278/652/215
f 278/652/215 286/651/214 285/653/216
f 274/654/217 285/653/216 299/655/216
f 276/656/218 300/657/214 286/651/214
f 269/658/219 301/659/220 271/660/221
f 271/660/221 301/659/220 292/661/222
f 268/662/223 270/663/224 304/664/225
f 270/663/224 290/665/226 304/664/225
f 284/666/8 292/667/222 300/657/214
f 280/668/217 299/655/216 290/669/226
f 286/651/214 300/657/214 285/653/216
f 285/653/216 300/657/214 299/655/216
f 302/670/44 317/671/227 301/672/220
f 317/671/227 321/673/228 301/672/220
f 301/672/220 321/673/228 292/667/222
f 321/673/228 320/674/229 292/667/222
f 292/667/222 320/674/229 300/657/214
f 300/657/214 320/674/229 299/655/216
f 299/655/216 320/674/229 290/669/226
f 320/674/229 319/675/230 290/669/226
f 290/669/226 319/675/230 304/676/225
f 319/675/230 318/677/231 304/676/225
f 304/676/225 318/677/231 303/678/40
f 302/670/44 303/678/40 317/671/227
f 317/671/227 303/678/40 318/677/231
f 255/679/174 251/680/149 259/681/143
f 251/680/149 258/682/145 259/681/143
f 247/683/88 306/684/145 258/682/145
f 249/685/144 259/681/143 305/686/143
f 242/687/232 244/688/233 310/689/234
f 244/688/233 265/690/235 310/689/234
f 241/691/236 307/692/237 243/693/238
f 243/693/238 307/692/237 263/694/239
f 257/695/240 305/686/143 265/696/235
f 253/697/88 263/698/239 306/684/145
f 259/681/143 258/682/145 305/686/143
f 258/682/145 306/684/145 305/686/143
f 309/699/29 310/700/234 323/701/241
f 323/701/241 310/700/234 324/702/242
f 310/700/234 265/696/235 324/702/242
f 324/702/242 265/696/235 325/703/243
f 265/696/235 305/686/143 325/703/243
f 305/686/143 306/684/145 325/703/243
f 306/684/145 263/698/239 325/703/243
f 325/703/243 263/698/239 326/704/244
f 263/698/239 307/705/237 326/704/244
f 326/704/244 307/705/237 322/706/245
f 307/705/237 308/707/27 322/706/245
f 309/699/29 323/701/241 308/707/27
f 308/707/27 323/701/241 322/706/245
f 328/708/246 327/709/11 224/710/199
f 224/710/199 327/709/11 223/711/200
f 225/712/204 329/713/247 224/710/199
f 224/710/199 329/713/247 328/708/246
f 329/714/247 225/715/204 330/716/248
f 330/716/248 225/715/204 226/717/202
f 330/716/248 226/717/202 331/718/6
f 331/718/6 226/717/202 222/719/158
f 222/719/158 223/711/200 331/718/6
f 331/718/6 223/711/200 327/709/11
f 335/199/117 334/198/116 330/716/248
f 330/716/248 334/198/116 329/714/247
f 329/713/247 334/318/116 328/708/246
f 334/318/116 333/319/136 328/708/246
f 335/620/117 330/716/248 336/622/114
f 333/278/136 332/279/115 328/708/246
f 330/716/248 331/718/6 336/622/114
f 336/306/114 331/718/6 332/304/115
f 331/718/6 327/709/11 332/304/115
f 332/279/115 327/709/11 328/708/246
f 338/720/11 337/721/98 218/722/200
f 218/722/200 337/721/98 217/723/158
f 338/720/11 218/722/200 339/724/246
f 339/724/246 218/722/200 219/725/199
f 339/724/246 219/725/199 340/726/249
f 340/726/249 219/725/199 220/727/204
f 340/728/249 220/729/204 341/730/248
f 341/730/248 220/729/204 221/731/201
f 337/721/98 341/730/248 217/723/158
f 217/723/158 341/730/248 221/731/201
f 346/290/138 345/291/116 341/730/248
f 341/730/248 345/291/116 340/728/249
f 340/726/249 345/327/116 339/724/246
f 345/327/116 344/328/136 339/724/246
f 346/618/138 341/730/248 342/617/114
f 344/283/136 343/281/115 339/724/246
f 339/724/246 343/281/115 338/720/11
f 338/720/11 343/197/115 337/721/98
f 343/197/115 342/195/114 337/721/98
f 337/721/98 342/617/114 341/730/248
f 347/732/11 216/733/200 348/734/246
f 348/734/246 216/733/200 212/735/199
f 348/734/246 212/735/199 349/736/249
f 349/736/249 212/735/199 213/737/204
f 349/738/249 213/739/204 350/740/250
f 350/740/250 213/739/204 214/741/203
f 351/742/98 350/740/250 215/743/158
f 215/743/158 350/740/250 214/741/203
f 347/732/11 351/742/98 216/733/200
f 216/733/200 351/742/98 215/743/158
f 355/294/138 354/295/116 350/740/250
f 350/740/250 354/295/116 349/738/249
f 349/736/249 354/334/116 348/734/246
f 354/334/116 353/335/136 348/734/246
f 353/287/136 352/285/115 348/734/246
f 355/299/138 350/740/250 356/298/114
f 350/740/250 351/742/98 356/298/114
f 356/313/114 351/742/98 352/315/115
f 351/742/98 347/732/11 352/315/115
f 352/285/115 347/732/11 348/734/246
f 358/744/11 357/745/251 168/746/178
f 168/746/178 357/745/251 167/747/158
f 359/748/252 358/744/11 164/749/180
f 164/749/180 358/744/11 168/746/178
f 359/748/252 164/749/180 360/750/253
f 360/750/253 164/749/180 165/751/179
f 360/752/253 165/753/179 361/754/254
f 361/754/254 165/753/179 166/755/177
f 361/754/254 166/755/177 357/745/251
f 357/745/251 166/755/177 167/747/158
f 366/192/112 365/193/113 361/754/254
f 361/754/254 365/193/113 360/752/253
f 360/750/253 365/478/113 359/748/252
f 365/478/113 364/477/168 359/748/252
f 366/476/112 361/754/254 362/475/169
f 364/466/168 363/464/166 359/748/252
f 361/754/254 357/745/251 362/475/169
f 357/745/251 358/744/11 362/468/169
f 362/468/169 358/744/11 363/470/166
f 363/464/166 358/744/11 359/748/252
f 367/756/255 371/757/256 318/758/231
f 318/758/231 371/757/256 317/759/227
f 371/757/256 367/756/255 376/644/207
f 376/644/207 367/756/255 372/642/205
f 187/760/189 184/761/188 377/762/257
f 377/762/257 184/761/188 378/763/258
f 378/764/258 184/765/188 379/766/149
f 379/766/149 184/765/188 185/767/190
f 186/768/191 380/769/12 185/767/190
f 185/767/190 380/769/12 379/766/149
f 377/762/257 380/769/12 187/760/189
f 187/760/189 380/769/12 186/768/191
f 382/432/75 381/431/48 378/763/258
f 378/763/258 381/431/48 377/762/257
f 382/424/75 378/764/258 383/426/154
f 378/764/258 379/766/149 383/426/154
f 379/766/149 380/769/12 383/429/154
f 383/429/154 380/769/12 384/427/155
f 380/769/12 377/762/257 384/450/155
f 384/450/155 377/762/257 381/449/48
f 385/770/259 169/771/183 386/772/260
f 386/772/260 169/771/183 170/773/184
f 387/774/261 386/775/260 171/776/182
f 171/776/182 386/775/260 170/777/184
f 388/778/11 387/774/261 172/779/154
f 172/779/154 387/774/261 171/776/182
f 389/780/258 388/778/11 173/781/155
f 173/781/155 388/778/11 172/779/154
f 389/780/258 173/781/155 385/770/259
f 385/770/259 173/781/155 169/771/183
f 389/780/258 394/216/75 388/778/11
f 394/216/75 393/215/48 388/778/11
f 388/778/11 393/221/48 387/774/261
f 393/221/48 392/222/123 387/774/261
f 392/214/123 391/212/121 387/774/261
f 387/774/261 391/212/121 386/775/260
f 386/772/260 391/266/121 385/770/259
f 391/266/121 390/267/134 385/770/259
f 390/238/134 394/236/75 385/770/259
f 385/770/259 394/236/75 389/780/258
f 395/782/259 176/783/183 396/784/260
f 396/784/260 176/783/183 177/785/184
f 397/786/261 396/787/260 178/788/182
f 178/788/182 396/787/260 177/789/184
f 398/790/262 397/786/261 174/791/181
f 174/791/181 397/786/261 178/788/182
f 399/792/258 398/790/262 175/793/155
f 175/793/155 398/790/262 174/791/181
f 399/792/258 175/793/155 395/782/259
f 395/782/259 175/793/155 176/783/183
f 399/792/258 404/245/75 398/790/262
f 404/245/75 403/246/48 398/790/262
f 398/790/262 403/254/48 397/786/261
f 403/254/48 402/255/123 397/786/261
f 402/242/123 401/240/121 397/786/261
f 397/786/261 401/240/121 396/787/260
f 396/784/260 401/270/121 395/782/259
f 401/270/121 400/271/134 395/782/259
f 400/259/134 404/257/75 395/782/259
f 395/782/259 404/257/75 399/792/258
f 406/794/263 405/795/258 179/796/185
f 179/796/185 405/795/258 183/797/155
f 407/798/264 406/794/263 180/799/186
f 180/799/186 406/794/263 179/796/185
f 407/800/264 180/801/186 408/802/265
f 408/802/265 180/801/186 181/803/187
f 408/802/265 181/803/187 409/804/11
f 409/804/11 181/803/187 182/805/154
f 183/797/155 405/795/258 182/805/154
f 182/805/154 405/795/258 409/804/11
f 405/795/258 410/186/75 409/804/11
f 410/186/75 414/188/48 409/804/11
f 409/804/11 414/210/48 408/802/265
f 414/210/48 413/208/106 408/802/265
f 413/181/106 412/179/104 408/802/265
f 408/802/265 412/179/104 407/800/264
f 407/798/264 412/273/104 406/794/263
f 412/273/104 411/272/109 406/794/263
f 411/184/109 410/185/75 406/794/263
f 406/794/263 410/185/75 405/795/258
f 415/806/266 207/807/196 416/808/267
f 416/808/267 207/807/196 208/809/197
f 417/810/268 416/811/267 209/812/198
f 209/812/198 416/811/267 208/813/197
f 418/814/269 417/810/268 210/815/156
f 210/815/156 417/810/268 209/812/198
f 211/816/157 419/817/270 210/815/156
f 210/815/156 419/817/270 418/814/269
f 207/807/196 415/806/266 211/816/157
f 211/816/157 415/806/266 419/817/270
f 420/502/176 415/806/266 421/500/173
f 415/806/266 416/808/267 421/500/173
f 416/811/267 417/810/268 421/484/173
f 421/484/173 417/810/268 422/483/172
f 420/498/176 424/499/145 415/806/266
f 422/490/172 417/810/268 423/492/143
f 415/806/266 424/499/145 419/817/270
f 419/817/270 424/485/145 418/814/269
f 424/485/145 423/487/143 418/814/269
f 418/814/269 423/492/143 417/810/268
f 426/818/271 425/819/270 194/820/194
f 194/820/194 425/819/270 193/821/157
f 427/822/272 426/818/271 195/823/195
f 195/823/195 426/818/271 194/820/194
f 427/824/272 195/825/195 428/826/273
f 428/826/273 195/825/195 196/827/192
f 428/826/273 196/827/192 429/828/274
f 429/828/274 196/827/192 192/829/156
f 193/821/157 425/819/270 192/829/156
f 192/829/156 425/819/270 429/828/274
f 431/414/147 426/818/271 432/416/102
f 426/818/271 427/822/272 432/416/102
f 427/824/272 428/826/273 432/371/102
f 432/371/102 428/826/273 433/370/101
f 431/349/147 430/347/145 426/818/271
f 433/341/101 428/826/273 434/340/143
f 426/818/271 430/347/145 425/819/270
f 430/365/145 434/364/143 425/819/270
f 425/819/270 434/364/143 429/828/274
f 429/828/274 434/340/143 428/826/273
f 435/830/275 199/831/193 436/832/272
f 436/832/272 199/831/193 200/833/195
f 437/834/273 436/835/272 201/836/192
f 201/836/192 436/835/272 200/837/195
f 438/838/274 437/834/273 197/839/156
f 197/839/156 437/834/273 201/836/192
f 439/840/270 438/838/274 198/841/157
f 198/841/157 438/838/274 197/839/156
f 439/840/270 198/841/157 435/830/275
f 435/830/275 198/841/157 199/831/193
f 440/412/147 435/830/275 441/411/102
f 435/830/275 436/832/272 441/411/102
f 436/835/272 437/834/273 441/177/102
f 441/177/102 437/834/273 442/176/101
f 442/578/101 437/834/273 443/577/143
f 440/353/147 444/351/145 435/830/275
f 435/830/275 444/351/145 439/840/270
f 444/345/145 443/343/143 439/840/270
f 439/840/270 443/343/143 438/838/274
f 438/838/274 443/577/143 437/834/273
f 445/842/276 203/843/157 446/844/271
f 446/844/271 203/843/157 204/845/194
f 447/846/272 446/844/271 205/847/195
f 205/847/195 446/844/271 204/845/194
f 448/848/273 447/849/272 206/850/192
f 206/850/192 447/849/272 205/851/195
f 449/852/274 448/848/273 202/853/156
f 202/853/156 448/848/273 206/850/192
f 203/843/157 445/842/276 202/853/156
f 202/853/156 445/842/276 449/852/274
f 451/406/147 446/844/271 452/408/102
f 446/844/271 447/846/272 452/408/102
f 447/849/272 448/848/273 452/379/102
f 452/379/102 448/848/273 453/381/101
f 451/363/147 450/361/145 446/844/271
f 453/582/101 448/848/273 454/581/143
f 448/848/273 449/852/274 454/581/143
f 449/852/274 445/842/276 454/382/143
f 454/382/143 445/842/276 450/383/145
f 450/361/145 445/842/276 446/844/271
f 323/854/241 455/855/277 322/856/245
f 322/856/245 455/855/277 459/857/278
f 455/855/277 460/646/209 459/857/278
f 459/857/278 460/646/209 464/648/211
f 481/858/17 80/143/87 12/140/10
f 482/859/16 83/164/92 21/163/8
f 86/860/131 85/861/164 94/862/129
f 94/862/129 85/861/164 93/863/163
f 90/864/126 89/865/161 88/866/132
f 88/866/132 89/865/161 87/867/165
f 88/866/132 87/867/165 86/860/131
f 86/860/131 87/867/165 85/861/164
f 100/868/89 89/865/161 97/869/87
f 97/869/87 89/865/161 90/864/126
f 92/870/128 91/871/162 95/137/86
f 95/137/86 91/871/162 96/136/85
f 94/862/129 93/863/163 92/870/128
f 92/870/128 93/863/163 91/871/162
f 474/872/279 473/873/108 465/874/46
f 465/874/46 473/873/108 466/875/45
f 479/876/90 480/877/87 469/878/280
f 469/878/280 480/877/87 470/879/281
f 477/880/89 471/881/282 480/877/87
f 480/877/87 471/881/282 470/879/281
f 471/882/282 472/883/8 470/884/281
f 470/884/281 472/883/8 469/885/280
f 479/876/90 469/878/280 478/886/94
f 478/886/94 469/878/280 472/887/8
f 478/886/94 472/887/8 477/888/89
f 477/888/89 472/887/8 471/889/282
f 468/890/38 475/891/144 465/874/46
f 465/874/46 475/891/144 474/872/279
f 475/892/144 468/893/38 476/894/283
f 476/894/283 468/893/38 467/895/37
f 467/895/37 466/875/45 476/894/283
f 476/894/283 466/875/45 473/873/108
f 474/896/279 478/897/94 473/898/108
f 473/898/108 478/897/94 477/899/89
f 474/896/279 475/900/144 478/897/94
f 478/897/94 475/900/144 479/901/90
f 476/902/283 480/903/87 475/900/144
f 475/900/144 480/903/87 479/901/90
f 473/898/108 477/899/89 476/902/283
f 476/902/283 477/899/89 480/903/87
f 306/904/145 247/905/88 266/906/216
f 266/906/216 247/905/88 246/907/215
f 259/908/143 260/909/214 255/910/174
f 255/910/174 260/909/214 254/911/218
f 258/912/145 251/913/149 261/914/216
f 261/914/216 251/913/149 250/915/280
f 249/916/144 305/917/143 248/918/8
f 248/918/8 305/917/143 267/919/214
f 248/918/8 260/909/214 249/916/144
f 249/916/144 260/909/214 259/908/143
f 261/914/216 246/907/215 258/912/145
f 258/912/145 246/907/215 247/905/88
f 252/920/125 262/921/284 253/922/88
f 253/922/88 262/921/284 263/923/239
f 265/924/235 264/925/285 257/926/240
f 257/926/240 264/925/285 256/927/286
f 254/928/218 260/929/214 250/930/280
f 250/930/280 260/929/214 261/931/216
f 246/932/215 261/931/216 266/933/216
f 248/934/8 267/935/214 260/929/214
f 256/936/286 264/937/285 267/935/214
f 252/938/125 266/933/216 262/939/284
f 262/939/284 266/933/216 245/940/287
f 266/933/216 261/931/216 245/940/287
f 261/931/216 260/929/214 245/940/287
f 260/929/214 267/935/214 245/940/287
f 245/940/287 267/935/214 264/937/285
f 239/941/25 307/942/237 230/943/26
f 230/943/26 307/942/237 241/944/236
f 242/687/232 237/945/30 244/688/233
f 244/688/233 237/945/30 234/946/18
f 299/947/216 293/948/145 274/949/217
f 274/949/217 293/948/145 273/950/149
f 286/951/214 282/952/213 287/953/143
f 287/953/143 282/952/213 281/954/144
f 285/955/216 288/956/145 278/957/215
f 278/957/215 288/956/145 277/958/10
f 268/662/223 229/959/41 270/663/224
f 270/663/224 229/959/41 232/960/36
f 294/961/143 300/962/214 275/963/240
f 275/963/240 300/962/214 276/964/218
f 269/658/219 271/660/221 238/965/43
f 238/965/43 271/660/221 233/966/31
f 286/951/214 287/953/143 276/964/218
f 276/964/218 287/953/143 275/963/240
f 245/967/287 235/968/19 262/969/284
f 235/968/19 231/970/24 262/969/284
f 231/970/24 243/971/238 262/969/284
f 262/969/284 243/971/238 263/972/239
f 272/973/288 289/974/289 236/975/32
f 236/975/32 289/974/289 232/976/36
f 232/976/36 289/974/289 270/977/224
f 270/977/224 289/974/289 290/978/226
f 288/979/145 285/980/216 273/950/149
f 273/950/149 285/980/216 274/949/217
f 241/691/236 243/693/238 230/981/26
f 230/981/26 243/693/238 231/982/24
f 228/983/28 237/984/30 310/985/234
f 310/985/234 237/984/30 242/986/232
f 279/987/279 280/988/217 289/989/289
f 289/989/289 280/988/217 290/990/226
f 245/991/287 264/992/285 235/993/19
f 235/993/19 264/992/285 234/994/18
f 234/994/18 264/992/285 244/995/233
f 244/995/233 264/992/285 265/996/235
f 292/997/222 284/998/8 291/999/290
f 291/999/290 284/998/8 283/1000/142
f 240/1001/39 229/1002/41 304/1003/225
f 304/1003/225 229/1002/41 268/1004/223
f 281/1005/144 277/1006/10 287/1007/143
f 277/1006/10 288/1008/145 287/1007/143
f 273/1009/149 293/1010/145 288/1008/145
f 275/1011/240 287/1007/143 294/1012/143
f 283/1013/142 294/1012/143 291/1014/290
f 279/1015/279 289/1016/289 293/1010/145
f 289/1016/289 272/1017/288 293/1010/145
f 293/1010/145 272/1017/288 288/1008/145
f 288/1008/145 272/1017/288 287/1007/143
f 287/1007/143 272/1017/288 294/1012/143
f 294/1012/143 272/1017/288 291/1014/290
f 227/1018/42 301/1019/220 238/1020/43
f 238/1020/43 301/1019/220 269/1021/219
f 272/1022/288 236/1023/32 291/1024/290
f 236/1023/32 233/1025/31 291/1024/290
f 233/1025/31 271/1026/221 291/1024/290
f 291/1024/290 271/1026/221 292/1027/222
f 255/910/174 254/911/218 251/913/149
f 251/913/149 254/911/218 250/915/280
f 312/1028/291 463/1029/292 296/1030/212
f 296/1030/212 463/1029/292 464/1031/211
f 282/952/213 278/957/215 281/954/144
f 281/954/144 278/957/215 277/958/10
f 313/1032/293 375/1033/294 298/1034/208
f 298/1034/208 375/1033/294 376/1035/207
f 279/987/279 293/948/145 280/988/217
f 280/988/217 293/948/145 299/947/216
f 294/961/143 283/1000/142 300/962/214
f 300/962/214 283/1000/142 284/998/8
f 301/672/220 227/1036/42 302/670/44
f 303/678/40 240/1037/39 304/676/225
f 267/919/214 305/917/143 256/927/286
f 256/927/286 305/917/143 257/926/240
f 252/920/125 253/922/88 266/906/216
f 266/906/216 253/922/88 306/904/145
f 307/705/237 239/1038/25 308/707/27
f 309/699/29 228/1039/28 310/700/234
f 311/1040/295 295/1041/210 461/1042/296
f 461/1042/296 295/1041/210 460/1043/209
f 463/1044/292 312/1045/291 462/1046/297
f 462/1046/297 312/1045/291 315/1047/298
f 314/1048/299 297/1049/206 373/1050/300
f 373/1050/300 297/1049/206 372/1051/205
f 315/1052/298 312/1053/291 311/1054/295
f 295/1055/210 311/1054/295 296/1056/212
f 296/1056/212 311/1054/295 312/1053/291
f 315/1057/298 311/1058/295 462/1059/297
f 462/1059/297 311/1058/295 461/1060/296
f 316/1061/301 374/1062/302 313/1063/293
f 313/1063/293 374/1062/302 375/1064/294
f 316/471/301 313/494/293 314/1065/299
f 298/323/208 297/1066/206 313/494/293
f 313/494/293 297/1066/206 314/1065/299
f 373/1067/300 374/1068/302 314/1069/299
f 314/1069/299 374/1068/302 316/1070/301
f 368/1071/303 367/756/255 319/1072/230
f 319/1072/230 367/756/255 318/758/231
f 319/1072/230 320/1073/229 368/1071/303
f 368/1071/303 320/1073/229 369/1074/304
f 369/1075/304 320/1076/229 370/1077/305
f 370/1077/305 320/1076/229 321/1078/228
f 370/1077/305 321/1078/228 371/757/256
f 371/757/256 321/1078/228 317/759/227
f 367/756/255 368/1071/303 372/1051/205
f 372/1051/205 368/1071/303 373/1050/300
f 373/1067/300 368/1071/303 374/1068/302
f 368/1071/303 369/1074/304 374/1068/302
f 369/1075/304 370/1077/305 374/1062/302
f 374/1062/302 370/1077/305 375/1064/294
f 375/1033/294 370/1077/305 376/1035/207
f 376/1035/207 370/1077/305 371/757/256
f 456/1079/306 455/855/277 324/1080/242
f 324/1080/242 455/855/277 323/854/241
f 324/1080/242 325/1081/243 456/1079/306
f 456/1079/306 325/1081/243 457/1082/307
f 457/1083/307 325/1084/243 458/1085/308
f 458/1085/308 325/1084/243 326/1086/244
f 458/1085/308 326/1086/244 459/857/278
f 459/857/278 326/1086/244 322/856/245
f 459/857/278 464/1031/211 458/1085/308
f 464/1031/211 463/1029/292 458/1085/308
f 463/1044/292 462/1046/297 458/1085/308
f 458/1085/308 462/1046/297 457/1083/307
f 457/1082/307 462/1059/297 456/1079/306
f 462/1059/297 461/1060/296 456/1079/306
f 461/1042/296 460/1043/209 456/1079/306
f 456/1079/306 460/1043/209 455/855/277
