# Blender 4.4.1
# www.blender.org
mtllib bridge_pillar_brick.mtl
o bridge_pillar_brick
v 0.878578 -0.144967 -0.627556
v 0.878578 5.096583 -0.627556
v 1.055381 -0.144967 -0.602135
v 1.055381 5.096583 -0.602135
v 1.217861 -0.144967 -0.527934
v 1.217861 5.096583 -0.527934
v 1.352853 -0.144967 -0.410962
v 1.352853 5.096583 -0.410962
v 1.449423 -0.144967 -0.260696
v 1.449423 5.096583 -0.260696
v 1.499747 -0.144967 -0.089311
v 1.499747 5.096583 -0.089311
v 1.499747 -0.144967 0.089311
v 1.499747 5.096583 0.089311
v 1.449423 -0.144967 0.260696
v 1.449423 5.096583 0.260696
v 1.352853 -0.144967 0.410962
v 1.352853 5.096583 0.410962
v 1.217861 -0.144967 0.527934
v 1.217861 5.096583 0.527934
v 1.055381 -0.144967 0.602135
v 1.055381 5.096583 0.602135
v 0.878578 -0.144967 0.627556
v 0.878578 5.096583 0.627556
v -0.878578 -0.144967 -0.627556
v -0.878578 5.096583 -0.627556
v -0.878578 -0.144967 0.627556
v -0.878578 5.096583 0.627556
v -1.055381 -0.144967 0.602135
v -1.055381 5.096583 0.602135
v -1.217861 -0.144967 0.527934
v -1.217861 5.096583 0.527934
v -1.352854 -0.144967 0.410962
v -1.352854 5.096583 0.410962
v -1.449423 -0.144967 0.260696
v -1.449423 5.096583 0.260696
v -1.499747 -0.144967 0.089311
v -1.499747 5.096583 0.089311
v -1.499747 -0.144967 -0.089311
v -1.499747 5.096583 -0.089311
v -1.449423 -0.144967 -0.260696
v -1.449423 5.096583 -0.260696
v -1.352854 -0.144967 -0.410962
v -1.352854 5.096583 -0.410962
v -1.217861 -0.144967 -0.527934
v -1.217861 5.096583 -0.527934
v -1.055381 -0.144967 -0.602135
v -1.055381 5.096583 -0.602135
v -0.000000 4.652946 -0.139504
v -0.000000 5.540219 -0.139504
v 0.053386 4.652946 -0.128885
v 0.053386 5.540219 -0.128885
v 0.098644 4.652946 -0.098644
v 0.098644 5.540219 -0.098644
v 0.128885 4.652946 -0.053386
v 0.128885 5.540219 -0.053386
v 0.139504 4.652946 0.000000
v 0.139504 5.540219 0.000000
v 0.128885 4.652946 0.053386
v 0.128885 5.540219 0.053386
v 0.098644 4.652946 0.098644
v 0.098644 5.540219 0.098644
v 0.053386 4.652946 0.128885
v 0.053386 5.540219 0.128885
v -0.000000 4.652946 0.139504
v -0.000000 5.540219 0.139504
v -0.053386 4.652946 0.128885
v -0.053386 5.540219 0.128885
v -0.098644 4.652946 0.098644
v -0.098644 5.540219 0.098644
v -0.128885 4.652946 0.053386
v -0.128885 5.540219 0.053386
v -0.139504 4.652946 0.000000
v -0.139504 5.540219 0.000000
v -0.128885 4.652946 -0.053386
v -0.128885 5.540219 -0.053386
v -0.098644 4.652946 -0.098644
v -0.098644 5.540219 -0.098644
v -0.053386 4.652946 -0.128885
v -0.053386 5.540219 -0.128885
v -0.296705 5.503016 0.296705
v -0.395410 5.706816 0.354966
v -0.296705 5.503016 -0.296705
v -0.395410 5.706816 -0.354966
v 0.296705 5.503016 0.296705
v 0.395410 5.706816 0.354966
v 0.296705 5.503016 -0.296705
v 0.395410 5.706816 -0.354966
vn 0.1423 -0.0000 -0.9898
vn 0.4154 -0.0000 -0.9096
vn 0.6549 -0.0000 -0.7557
vn 0.8413 -0.0000 -0.5406
vn 0.9595 -0.0000 -0.2817
vn 1.0000 -0.0000 -0.0000
vn 0.9595 -0.0000 0.2817
vn 0.8413 -0.0000 0.5406
vn 0.6549 -0.0000 0.7557
vn 0.4154 -0.0000 0.9096
vn 0.1423 -0.0000 0.9898
vn -0.1423 -0.0000 0.9898
vn -0.4154 -0.0000 0.9096
vn -0.6549 -0.0000 0.7557
vn -0.8413 -0.0000 0.5406
vn -0.9595 -0.0000 0.2817
vn -1.0000 -0.0000 -0.0000
vn -0.9595 -0.0000 -0.2817
vn -0.8413 -0.0000 -0.5406
vn -0.6549 -0.0000 -0.7557
vn -0.4154 -0.0000 -0.9096
vn -0.1423 -0.0000 -0.9898
vn -0.0000 -0.0000 -1.0000
vn -0.0000 -0.0000 1.0000
vn -0.0000 1.0000 -0.0000
vn 0.1951 -0.0000 -0.9808
vn 0.5556 -0.0000 -0.8315
vn 0.8315 -0.0000 -0.5556
vn 0.9808 -0.0000 -0.1951
vn 0.9808 -0.0000 0.1951
vn 0.8315 -0.0000 0.5556
vn 0.5556 -0.0000 0.8315
vn 0.1951 -0.0000 0.9808
vn -0.1951 -0.0000 0.9808
vn -0.5556 -0.0000 0.8315
vn -0.8315 -0.0000 0.5556
vn -0.9808 -0.0000 0.1951
vn -0.9808 -0.0000 -0.1951
vn -0.8315 -0.0000 -0.5556
vn -0.5556 -0.0000 -0.8315
vn -0.1951 -0.0000 -0.9808
vn -0.0000 -1.0000 -0.0000
vn -0.9000 -0.4359 -0.0000
vn -0.0000 -0.2749 -0.9615
vn 0.9000 -0.4359 -0.0000
vn -0.0000 -0.2749 0.9615
vt 0.401146 0.934013
vt 0.401146 0.051102
vt 0.430927 0.051102
vt 0.430927 0.934013
vt 0.458296 0.051102
vt 0.458296 0.934013
vt 0.481035 0.051102
vt 0.481035 0.934013
vt 0.392530 0.934013
vt 0.392530 0.051102
vt 0.417841 0.051102
vt 0.417841 0.934013
vt 0.446710 0.051102
vt 0.446710 0.934013
vt 0.476798 0.051102
vt 0.476798 0.934013
vt 0.505667 0.051102
vt 0.505667 0.934013
vt 0.530978 0.051102
vt 0.530978 0.934013
vt 0.014487 0.934013
vt 0.014487 0.051102
vt 0.037226 0.051102
vt 0.037226 0.934013
vt 0.064594 0.051102
vt 0.064594 0.934013
vt 0.094376 0.051102
vt 0.094376 0.934013
vt 0.430350 0.934013
vt 0.430350 0.051102
vt 0.460131 0.051102
vt 0.460131 0.934013
vt 0.487500 0.051102
vt 0.487500 0.934013
vt 0.510239 0.051102
vt 0.510239 0.934013
vt 0.556290 0.051102
vt 0.556290 0.934013
vt 0.585159 0.051102
vt 0.585159 0.934013
vt 0.615246 0.051102
vt 0.615246 0.934013
vt 0.644115 0.051102
vt 0.644115 0.934013
vt 0.669427 0.051102
vt 0.669427 0.934013
vt 0.016657 0.934013
vt 0.016657 0.051102
vt 0.039396 0.051102
vt 0.039396 0.934013
vt 0.066765 0.051102
vt 0.066765 0.934013
vt 0.096546 0.051102
vt 0.096546 0.934013
vt 0.390359 0.051102
vt 0.390359 0.934013
vt 0.646226 0.389493
vt 0.618458 0.393485
vt 0.342480 0.393485
vt 0.314711 0.389493
vt 0.289192 0.377839
vt 0.267990 0.359467
vt 0.252823 0.335867
vt 0.244919 0.308949
vt 0.244919 0.280895
vt 0.252823 0.253977
vt 0.267990 0.230376
vt 0.289192 0.212005
vt 0.314711 0.200351
vt 0.342480 0.196358
vt 0.618458 0.196358
vt 0.646226 0.200351
vt 0.671745 0.212005
vt 0.692947 0.230376
vt 0.708114 0.253977
vt 0.716018 0.280895
vt 0.716018 0.308949
vt 0.708114 0.335867
vt 0.692947 0.359467
vt 0.671745 0.377839
vt 0.984129 0.923870
vt 0.724783 0.923870
vt 0.724839 0.907937
vt 0.984186 0.907937
vt 0.725333 0.893519
vt 0.984679 0.893519
vt 0.984927 0.836324
vt 0.726654 0.836324
vt 0.725409 0.824527
vt 0.983682 0.824527
vt 0.724783 0.809518
vt 0.983055 0.809518
vt 0.724870 0.793584
vt 0.983142 0.793584
vt 0.725657 0.779150
vt 0.983929 0.779150
vt 0.724839 0.879102
vt 0.984186 0.879102
vt 0.724783 0.863169
vt 0.984129 0.863169
vt 0.725170 0.848148
vt 0.984517 0.848148
vt 0.725944 0.836324
vt 0.985290 0.836324
vt 0.984927 0.779150
vt 0.726654 0.779150
vt 0.725409 0.767352
vt 0.983682 0.767352
vt 0.724783 0.752344
vt 0.983055 0.752344
vt 0.724870 0.736410
vt 0.983142 0.736410
vt 0.725657 0.721975
vt 0.983930 0.721975
vt 0.881612 0.787264
vt 0.859901 0.778270
vt 0.843283 0.761653
vt 0.834290 0.739942
vt 0.834290 0.716441
vt 0.843283 0.694730
vt 0.859901 0.678113
vt 0.881612 0.669120
vt 0.905112 0.669120
vt 0.926824 0.678113
vt 0.943441 0.694730
vt 0.952434 0.716441
vt 0.952434 0.739942
vt 0.943441 0.761653
vt 0.926824 0.778270
vt 0.905112 0.787264
vt 0.985290 0.950715
vt 0.725944 0.950715
vt 0.725170 0.938891
vt 0.984517 0.938891
vt 0.943441 0.879797
vt 0.926824 0.896415
vt 0.905112 0.905408
vt 0.881612 0.905408
vt 0.859901 0.896415
vt 0.843283 0.879797
vt 0.834290 0.858086
vt 0.834290 0.834586
vt 0.843283 0.812874
vt 0.859901 0.796257
vt 0.881612 0.787264
vt 0.905112 0.787264
vt 0.926824 0.796257
vt 0.943441 0.812874
vt 0.952434 0.834586
vt 0.952434 0.858086
vt 0.982797 0.858960
vt 0.900323 0.885393
vt 0.900323 0.614748
vt 0.982797 0.632737
vt 0.820336 0.876238
vt 0.740350 0.916310
vt 0.740350 0.614748
vt 0.820336 0.649955
vt 0.910456 0.659270
vt 0.930553 0.721975
vt 0.724783 0.721975
vt 0.738459 0.659270
vt 0.820336 0.649955
vt 0.900322 0.614748
vt 0.900322 0.916310
vt 0.820336 0.876238
vt 0.988836 0.626361
vt 0.988836 0.882558
vt 0.732638 0.882558
vt 0.732638 0.626361
vt 0.992359 0.585701
vt 0.992359 0.878027
vt 0.729933 0.878027
vt 0.729933 0.585701
s 0
usemtl mat_pillar
f 1/1/1 2/2/1 4/3/1 3/4/1
f 3/4/2 4/3/2 6/5/2 5/6/2
f 5/6/3 6/5/3 8/7/3 7/8/3
f 7/9/4 8/10/4 10/11/4 9/12/4
f 9/12/5 10/11/5 12/13/5 11/14/5
f 11/14/6 12/13/6 14/15/6 13/16/6
f 13/16/7 14/15/7 16/17/7 15/18/7
f 15/18/8 16/17/8 18/19/8 17/20/8
f 17/21/9 18/22/9 20/23/9 19/24/9
f 19/24/10 20/23/10 22/25/10 21/26/10
f 21/26/11 22/25/11 24/27/11 23/28/11
f 27/29/12 28/30/12 30/31/12 29/32/12
f 29/32/13 30/31/13 32/33/13 31/34/13
f 31/34/14 32/33/14 34/35/14 33/36/14
f 33/20/15 34/19/15 36/37/15 35/38/15
f 35/38/16 36/37/16 38/39/16 37/40/16
f 37/40/17 38/39/17 40/41/17 39/42/17
f 39/42/18 40/41/18 42/43/18 41/44/18
f 41/44/19 42/43/19 44/45/19 43/46/19
f 43/47/20 44/48/20 46/49/20 45/50/20
f 45/50/21 46/49/21 48/51/21 47/52/21
f 47/52/22 48/51/22 26/53/22 25/54/22
f 2/10/23 1/9/23 25/54/23 26/53/23
f 23/28/24 24/27/24 28/55/24 27/56/24
f 4/57/25 2/58/25 26/59/25 48/60/25 46/61/25 44/62/25 42/63/25 40/64/25 38/65/25 36/66/25 34/67/25 32/68/25 30/69/25 28/70/25 24/71/25 22/72/25 20/73/25 18/74/25 16/75/25 14/76/25 12/77/25 10/78/25 8/79/25 6/80/25
f 49/81/26 50/82/26 52/83/26 51/84/26
f 51/84/27 52/83/27 54/85/27 53/86/27
f 53/87/28 54/88/28 56/89/28 55/90/28
f 55/90/29 56/89/29 58/91/29 57/92/29
f 57/92/30 58/91/30 60/93/30 59/94/30
f 59/94/31 60/93/31 62/95/31 61/96/31
f 61/86/32 62/85/32 64/97/32 63/98/32
f 63/98/33 64/97/33 66/99/33 65/100/33
f 65/100/34 66/99/34 68/101/34 67/102/34
f 67/102/35 68/101/35 70/103/35 69/104/35
f 69/105/36 70/106/36 72/107/36 71/108/36
f 71/108/37 72/107/37 74/109/37 73/110/37
f 73/110/38 74/109/38 76/111/38 75/112/38
f 75/112/39 76/111/39 78/113/39 77/114/39
f 52/115/25 50/116/25 80/117/25 78/118/25 76/119/25 74/120/25 72/121/25 70/122/25 68/123/25 66/124/25 64/125/25 62/126/25 60/127/25 58/128/25 56/129/25 54/130/25
f 77/131/40 78/132/40 80/133/40 79/134/40
f 79/134/41 80/133/41 50/82/41 49/81/41
f 49/135/42 51/136/42 53/137/42 55/138/42 57/139/42 59/140/42 61/141/42 63/142/42 65/143/42 67/144/42 69/145/42 71/146/42 73/147/42 75/148/42 77/149/42 79/150/42
f 81/151/43 82/152/43 84/153/43 83/154/43
f 83/155/44 84/156/44 88/157/44 87/158/44
f 87/159/45 88/160/45 86/161/45 85/162/45
f 85/163/46 86/164/46 82/165/46 81/166/46
f 83/167/42 87/168/42 85/169/42 81/170/42
f 88/171/25 84/172/25 82/173/25 86/174/25
