# Blender 4.4.1
# www.blender.org
mtllib rail_track_600mm_ground.mtl
o RailBed
v 1.744465 -1.794786 -0.025433
v 1.501743 -0.828653 -0.025432
v -1.701594 -1.794786 0.003633
v -1.458871 -0.828653 0.003633
v 1.744465 -1.794786 -2.900642
v 1.501743 -0.828653 -2.900642
v -1.701594 -1.794786 -2.900642
v -1.458872 -0.828653 -2.900642
v 0.719377 -0.030752 -2.900642
v 0.305974 -0.048075 -2.900642
v -0.250224 -0.048075 -2.900642
v -0.663626 -0.030752 -2.900642
v 0.719377 -1.794786 0.003633
v 0.305974 -1.794786 0.003633
v -0.250224 -1.794786 0.003633
v -0.663626 -1.794786 0.003633
v -0.663626 -1.794786 -2.900642
v -0.250224 -1.794786 -2.900642
v 0.305974 -1.794786 -2.900642
v 0.719377 -1.794786 -2.900642
v -0.663626 -0.030752 0.003633
v -0.250224 -0.048074 0.003633
v 0.305974 -0.048074 0.003633
v 0.719376 -0.030752 0.003633
v -1.162810 -0.314752 -2.900642
v -1.084521 -1.794786 0.003633
v -1.084521 -1.794786 -2.900642
v -1.162810 -0.314751 0.003633
v 1.140272 -1.794786 -2.900642
v 1.205682 -0.314751 0.003633
v 1.205682 -0.314752 -2.900642
v 1.140272 -1.794786 0.003633
v 1.530498 -0.828653 -1.463023
v -1.735300 -1.794786 -1.463023
v -1.492577 -0.828652 -1.463023
v 1.773220 -1.794786 -1.463023
v 0.719376 -0.030752 -1.463023
v 0.305974 -0.048074 -1.463023
v -0.250224 -0.048074 -1.463023
v -0.663626 -0.030752 -1.463023
v 0.719377 -1.794786 -1.463023
v 0.305974 -1.794786 -1.463023
v -0.250224 -1.794786 -1.463023
v -0.663626 -1.794786 -1.463023
v -1.162810 -0.314752 -1.463023
v -1.084521 -1.794786 -1.463023
v 1.140272 -1.794786 -1.463023
v 1.205682 -0.314752 -1.463023
v 0.981641 -0.079516 -2.900642
v 0.929824 -1.794786 -1.463023
v 0.929824 -1.794786 -2.900642
v 0.929824 -1.794786 0.003633
v 0.981641 -0.079516 -1.463023
v 0.981641 -0.079515 0.003633
v -1.337569 -1.794786 -1.463023
v -1.337569 -1.794786 0.003633
v -1.344547 -0.571702 -1.463023
v -1.310841 -0.571702 0.003633
v -1.337569 -1.794786 -2.900642
v -1.310841 -0.571702 -2.900642
v -0.874073 -1.794786 -2.900642
v -0.874073 -0.079516 -2.900642
v -0.874073 -1.794786 -1.463023
v -0.874073 -0.079515 0.003633
v -0.874073 -1.794786 0.003633
v -0.874073 -0.079516 -1.463023
v 1.393320 -1.794786 -0.010900
v 1.382467 -0.571703 -1.463023
v 1.353713 -0.571702 -0.010899
v 1.393320 -1.794786 -1.463023
v 1.393320 -1.794786 -2.900642
v 1.353713 -0.571703 -2.900642
vn -0.0000 -1.0000 -0.0000
vn -0.9265 0.3756 -0.0217
vn -0.9699 0.2437 -0.0002
vn -0.9273 0.3743 -0.0002
vn -0.0000 -0.0000 -1.0000
vn -0.8663 0.4991 0.0199
vn -0.8441 0.5361 -0.0042
vn -0.0000 -0.0000 1.0000
vn 0.9273 0.3744 -0.0000
vn 0.9697 0.2436 0.0194
vn 0.9699 0.2437 -0.0000
vn 0.0709 0.9975 -0.0000
vn 0.4766 0.8791 -0.0000
vn -0.0209 0.9998 -0.0000
vn 0.0209 0.9998 -0.0000
vn -0.0928 0.9957 -0.0000
vn -0.4401 0.8980 -0.0000
vn -0.7576 0.6527 0.0088
vn 0.7780 0.6282 0.0036
vn 0.8657 0.5004 0.0092
vn 0.8473 0.5311 0.0035
vn 0.0888 0.0006 0.9960
vn 0.0293 0.0007 0.9996
vn 0.0488 0.0012 0.9988
vn 0.7977 0.6030 -0.0075
vn 0.8664 0.4991 -0.0173
vn -0.7617 0.6480 -0.0000
vn 0.9697 0.2436 -0.0194
vn 0.9266 0.3755 -0.0185
vn -0.8632 0.5047 -0.0114
vn -0.9265 0.3756 0.0213
vn -0.9696 0.2436 0.0223
vn 0.7999 0.6002 -0.0000
vn 0.0178 -0.0008 0.9998
vn -0.7328 0.6804 -0.0042
vn 0.0958 0.0043 0.9954
vn 0.0414 0.0104 0.9991
vn 0.9260 0.3771 0.0185
vn -0.9696 0.2436 -0.0227
vt 0.503412 0.501997
vt 0.464047 0.725648
vt 0.464045 0.502031
vt 0.954547 0.715839
vt 0.731235 0.870035
vt 0.731235 0.715838
vt 0.035294 0.875599
vt 0.039356 0.725340
vt 0.056878 0.915590
vt 0.503412 0.670456
vt 0.731235 0.670456
vt 0.466723 0.123556
vt 0.463646 0.273909
vt 0.444862 0.083681
vt 0.731235 0.154196
vt 0.507927 0.000000
vt 0.731235 0.000000
vt 0.109194 0.009749
vt 0.144886 0.275153
vt 0.112386 0.275302
vt 0.206176 0.003821
vt 0.141796 0.001804
vt 0.292856 0.003096
vt 0.208720 0.274896
vt 0.358902 0.274299
vt 0.294766 0.274562
vt 0.731235 0.327547
vt 0.503412 0.293991
vt 0.731235 0.293991
vt 0.731235 0.391819
vt 0.503412 0.327547
vt 0.731235 0.478216
vt 0.503412 0.391819
vt 0.731235 0.542488
vt 0.503412 0.478216
vt 0.391798 0.992434
vt 0.359225 0.725616
vt 0.391955 0.725628
vt 0.294741 0.997263
vt 0.359055 1.000000
vt 0.208204 0.997194
vt 0.294931 0.725588
vt 0.144146 0.725472
vt 0.208430 0.725532
vt 0.144397 0.502108
vt 0.111426 0.725435
vt 0.111735 0.502051
vt 0.208601 0.502158
vt 0.295011 0.502151
vt 0.359256 0.502116
vt 0.446210 0.915902
vt 0.424686 0.725637
vt 0.422997 0.043816
vt 0.391594 0.274175
vt 0.390028 0.007393
vt 0.731235 0.576044
vt 0.503412 0.625073
vt 0.503412 0.576044
vt 0.424689 0.502065
vt 0.391968 0.502092
vt 0.079069 0.501973
vt 0.039760 0.501839
vt 0.731235 0.244962
vt 0.505670 0.199579
vt 0.731235 0.199579
vt 0.055647 0.087068
vt 0.079962 0.275457
vt 0.040950 0.276788
vt 0.078464 0.955579
vt 0.111162 0.992205
vt 0.954547 0.244962
vt 0.954547 0.199579
vt 0.424300 0.274054
vt 0.954547 0.625073
vt 0.954547 0.576044
vt 0.954547 0.542488
vt 0.954547 0.478216
vt 0.954547 0.391819
vt 0.954547 0.327547
vt 0.954547 0.293991
vt 0.954547 0.000000
vt 0.954547 0.154196
vt 0.954547 0.670456
vt 0.503412 0.715839
vt 0.503412 0.870035
vt 0.503022 0.273765
vt 0.143889 0.999823
vt 0.078705 0.725394
vt 0.503412 0.244962
vt 0.076949 0.046667
vt 0.731235 0.625073
vt 0.467862 0.875941
vt 0.503412 0.725659
vt 0.503412 0.542488
vt 0.357230 -0.000000
vt 0.424557 0.955860
vt 0.001650 0.278106
vt 0.000421 0.501693
vt 0.034557 0.127254
vt 0.507927 0.154196
vt 0.000000 0.725283
vt 0.954547 0.870035
s 1
usemtl matRailTrack
f 34/1/1 59/2/1 55/3/1
f 8/4/2 34/5/3 35/6/4
f 6/7/5 71/8/5 72/9/5
f 35/6/4 58/10/6 57/11/7
f 4/12/8 56/13/8 58/14/8
f 33/15/9 1/16/10 36/17/11
f 54/18/8 13/19/8 52/20/8
f 23/21/8 13/19/8 24/22/8
f 22/23/8 14/24/8 23/21/8
f 22/23/8 16/25/8 15/26/8
f 37/27/12 54/28/13 53/29/13
f 38/30/14 24/31/12 37/27/12
f 39/32/15 23/33/14 38/30/14
f 40/34/16 22/35/15 39/32/15
f 62/36/5 17/37/5 61/38/5
f 11/39/5 17/37/5 12/40/5
f 10/41/5 18/42/5 11/39/5
f 10/41/5 20/43/5 19/44/5
f 41/45/1 51/46/1 50/47/1
f 42/48/1 20/43/1 41/45/1
f 43/49/1 19/44/1 42/48/1
f 44/50/1 18/42/1 43/49/1
f 60/51/5 27/52/5 59/2/5
f 28/53/8 65/54/8 64/55/8
f 66/56/17 28/57/18 64/58/17
f 46/59/1 61/38/1 63/60/1
f 47/61/1 71/8/1 70/62/1
f 48/63/19 69/64/20 68/65/21
f 69/66/22 32/67/23 67/68/24
f 31/69/5 51/46/5 49/70/5
f 31/71/25 68/65/21 72/72/26
f 67/68/1 47/61/1 70/62/1
f 26/73/1 63/60/1 65/54/1
f 25/74/27 66/56/17 62/75/17
f 16/25/1 43/49/1 15/26/1
f 15/26/1 42/48/1 14/24/1
f 14/24/1 41/45/1 13/19/1
f 13/19/1 50/47/1 52/20/1
f 12/76/16 39/32/15 11/77/15
f 11/77/15 38/30/14 10/78/14
f 10/78/14 37/27/12 9/79/12
f 9/79/12 53/29/13 49/80/13
f 33/15/9 5/81/28 6/82/29
f 8/4/2 57/11/7 60/83/30
f 4/84/31 34/5/3 3/85/32
f 3/86/1 55/3/1 56/13/1
f 49/80/13 48/63/19 31/71/25
f 52/20/1 47/61/1 32/67/1
f 49/70/5 20/43/5 9/87/5
f 50/47/1 29/88/1 47/61/1
f 53/29/13 30/89/33 48/63/19
f 30/90/34 52/20/8 32/67/23
f 56/13/1 46/59/1 26/73/1
f 60/83/30 45/91/35 25/74/27
f 8/92/5 59/2/5 7/93/5
f 58/14/8 26/73/8 28/53/8
f 57/11/7 28/57/18 45/91/35
f 55/3/1 27/52/1 46/59/1
f 62/75/17 40/34/16 12/76/16
f 65/54/1 44/50/1 16/25/1
f 63/60/1 17/37/1 44/50/1
f 66/56/17 21/94/16 40/34/16
f 64/55/8 16/25/8 21/95/8
f 25/96/5 61/38/5 27/52/5
f 1/97/1 70/62/1 36/98/1
f 72/72/26 33/15/9 6/82/29
f 2/99/36 67/68/24 1/97/37
f 68/65/21 2/100/38 33/15/9
f 70/62/1 5/101/1 36/98/1
f 72/9/5 29/88/5 31/69/5
f 34/1/1 7/93/1 59/2/1
f 8/4/2 7/102/39 34/5/3
f 6/7/5 5/101/5 71/8/5
f 35/6/4 4/84/31 58/10/6
f 4/12/8 3/86/8 56/13/8
f 33/15/9 2/100/38 1/16/10
f 54/18/8 24/22/8 13/19/8
f 23/21/8 14/24/8 13/19/8
f 22/23/8 15/26/8 14/24/8
f 22/23/8 21/95/8 16/25/8
f 37/27/12 24/31/12 54/28/13
f 38/30/14 23/33/14 24/31/12
f 39/32/15 22/35/15 23/33/14
f 40/34/16 21/94/16 22/35/15
f 62/36/5 12/40/5 17/37/5
f 11/39/5 18/42/5 17/37/5
f 10/41/5 19/44/5 18/42/5
f 10/41/5 9/87/5 20/43/5
f 41/45/1 20/43/1 51/46/1
f 42/48/1 19/44/1 20/43/1
f 43/49/1 18/42/1 19/44/1
f 44/50/1 17/37/1 18/42/1
f 60/51/5 25/96/5 27/52/5
f 28/53/8 26/73/8 65/54/8
f 66/56/17 45/91/35 28/57/18
f 46/59/1 27/52/1 61/38/1
f 47/61/1 29/88/1 71/8/1
f 48/63/19 30/89/33 69/64/20
f 69/66/22 30/90/34 32/67/23
f 31/69/5 29/88/5 51/46/5
f 31/71/25 48/63/19 68/65/21
f 67/68/1 32/67/1 47/61/1
f 26/73/1 46/59/1 63/60/1
f 25/74/27 45/91/35 66/56/17
f 16/25/1 44/50/1 43/49/1
f 15/26/1 43/49/1 42/48/1
f 14/24/1 42/48/1 41/45/1
f 13/19/1 41/45/1 50/47/1
f 12/76/16 40/34/16 39/32/15
f 11/77/15 39/32/15 38/30/14
f 10/78/14 38/30/14 37/27/12
f 9/79/12 37/27/12 53/29/13
f 33/15/9 36/17/11 5/81/28
f 8/4/2 35/6/4 57/11/7
f 4/84/31 35/6/4 34/5/3
f 3/86/1 34/1/1 55/3/1
f 49/80/13 53/29/13 48/63/19
f 52/20/1 50/47/1 47/61/1
f 49/70/5 51/46/5 20/43/5
f 50/47/1 51/46/1 29/88/1
f 53/29/13 54/28/13 30/89/33
f 30/90/34 54/18/8 52/20/8
f 56/13/1 55/3/1 46/59/1
f 60/83/30 57/11/7 45/91/35
f 8/92/5 60/51/5 59/2/5
f 58/14/8 56/13/8 26/73/8
f 57/11/7 58/10/6 28/57/18
f 55/3/1 59/2/1 27/52/1
f 62/75/17 66/56/17 40/34/16
f 65/54/1 63/60/1 44/50/1
f 63/60/1 61/38/1 17/37/1
f 66/56/17 64/58/17 21/94/16
f 64/55/8 65/54/8 16/25/8
f 25/96/5 62/36/5 61/38/5
f 1/97/1 67/68/1 70/62/1
f 72/72/26 68/65/21 33/15/9
f 2/99/36 69/66/22 67/68/24
f 68/65/21 69/64/20 2/100/38
f 70/62/1 71/8/1 5/101/1
f 72/9/5 71/8/5 29/88/5
