# Blender 4.4.1
# www.blender.org
mtllib rail_track_600mm_tracks.mtl
o RailTrackLogs
v -0.497189 0.009972 -0.120374
v -0.497189 0.107886 -0.120374
v 0.544484 0.009972 -0.120374
v 0.544484 0.107886 -0.120374
v -0.497189 0.009972 -0.393974
v -0.497189 0.107886 -0.393974
v 0.544484 0.009972 -0.393974
v 0.544484 0.107886 -0.393974
v -0.481845 0.009972 -0.725030
v -0.481845 0.107886 -0.725030
v 0.559829 0.009972 -0.725029
v 0.559829 0.107886 -0.725029
v -0.481845 0.009972 -0.998630
v -0.481845 0.107886 -0.998630
v 0.559829 0.009972 -0.998629
v 0.559829 0.107886 -0.998629
v -0.497189 0.009972 -1.329686
v -0.497189 0.107886 -1.329686
v 0.544484 0.009972 -1.329686
v 0.544484 0.107886 -1.329686
v -0.497189 0.009972 -1.603285
v -0.497189 0.107886 -1.603285
v 0.544484 0.009972 -1.603285
v 0.544484 0.107886 -1.603285
v -0.518361 0.009972 -1.934342
v -0.518361 0.107886 -1.934342
v 0.523312 0.009972 -1.934342
v 0.523312 0.107886 -1.934342
v -0.518361 0.009972 -2.207942
v -0.518361 0.107886 -2.207942
v 0.523312 0.009972 -2.207941
v 0.523312 0.107886 -2.207941
v -0.497189 0.009972 -2.538997
v -0.497189 0.107886 -2.538997
v 0.544484 0.009972 -2.538997
v 0.544484 0.107886 -2.538997
v -0.497189 0.009972 -2.812597
v -0.497189 0.107886 -2.812597
v 0.544484 0.009972 -2.812597
v 0.544484 0.107886 -2.812597
v -0.497189 0.009972 -3.143653
v -0.497189 0.107886 -3.143653
v 0.544484 0.009972 -3.143653
v 0.544484 0.107886 -3.143653
v -0.497189 0.009972 -3.417253
v -0.497189 0.107886 -3.417253
v 0.544484 0.009972 -3.417253
v 0.544484 0.107886 -3.417253
vn -0.0000 -0.0000 1.0000
vn 1.0000 -0.0000 -0.0000
vn -0.0000 -0.0000 -1.0000
vn -1.0000 -0.0000 -0.0000
vn -0.0000 -1.0000 -0.0000
vn -0.0000 1.0000 -0.0000
vt 0.037889 0.418163
vt 0.964315 0.339554
vt 0.964315 0.418163
vt 0.402159 0.415707
vt 0.557445 0.310676
vt 0.557444 0.415707
vt 0.050081 0.412140
vt 0.975415 0.333623
vt 0.975415 0.412141
vt 0.266950 0.433132
vt 0.433128 0.320743
vt 0.433128 0.433133
vt 0.875734 0.410254
vt 0.188615 0.326819
vt 0.188902 0.413152
vt 0.095518 0.270497
vt 0.896754 0.455270
vt 0.897082 0.275723
vt 0.094836 0.449272
vt 0.875160 0.324274
vt 0.037889 0.339554
vt 0.402159 0.310676
vt 0.050081 0.333622
vt 0.266950 0.320742
s 1
usemtl matRailTrack
f 3/1/1 2/2/1 1/3/1
f 7/4/2 4/5/2 3/6/2
f 5/7/3 8/8/3 7/9/3
f 1/10/4 6/11/4 5/12/4
f 1/13/5 7/14/5 3/15/5
f 6/16/6 4/17/6 8/18/6
f 11/1/1 10/2/1 9/3/1
f 15/4/2 12/5/2 11/6/2
f 13/7/3 16/8/3 15/9/3
f 9/10/4 14/11/4 13/12/4
f 9/13/5 15/14/5 11/15/5
f 16/18/6 10/19/6 12/17/6
f 19/1/1 18/2/1 17/3/1
f 23/4/2 20/5/2 19/6/2
f 21/7/3 24/8/3 23/9/3
f 17/10/4 22/11/4 21/12/4
f 17/13/5 23/14/5 19/15/5
f 22/16/6 20/17/6 24/18/6
f 27/1/1 26/2/1 25/3/1
f 31/4/2 28/5/2 27/6/2
f 29/7/3 32/8/3 31/9/3
f 25/10/4 30/11/4 29/12/4
f 25/13/5 31/14/5 27/15/5
f 32/18/6 26/19/6 28/17/6
f 35/1/1 34/2/1 33/3/1
f 39/4/2 36/5/2 35/6/2
f 37/7/3 40/8/3 39/9/3
f 33/10/4 38/11/4 37/12/4
f 33/13/5 39/14/5 35/15/5
f 38/16/6 36/17/6 40/18/6
f 43/1/1 42/2/1 41/3/1
f 47/4/2 44/5/2 43/6/2
f 45/7/3 48/8/3 47/9/3
f 41/10/4 46/11/4 45/12/4
f 43/15/5 45/20/5 47/14/5
f 46/16/6 44/17/6 48/18/6
f 3/1/1 4/21/1 2/2/1
f 7/4/2 8/22/2 4/5/2
f 5/7/3 6/23/3 8/8/3
f 1/10/4 2/24/4 6/11/4
f 1/13/5 5/20/5 7/14/5
f 6/16/6 2/19/6 4/17/6
f 11/1/1 12/21/1 10/2/1
f 15/4/2 16/22/2 12/5/2
f 13/7/3 14/23/3 16/8/3
f 9/10/4 10/24/4 14/11/4
f 9/13/5 13/20/5 15/14/5
f 16/18/6 14/16/6 10/19/6
f 19/1/1 20/21/1 18/2/1
f 23/4/2 24/22/2 20/5/2
f 21/7/3 22/23/3 24/8/3
f 17/10/4 18/24/4 22/11/4
f 17/13/5 21/20/5 23/14/5
f 22/16/6 18/19/6 20/17/6
f 27/1/1 28/21/1 26/2/1
f 31/4/2 32/22/2 28/5/2
f 29/7/3 30/23/3 32/8/3
f 25/10/4 26/24/4 30/11/4
f 25/13/5 29/20/5 31/14/5
f 32/18/6 30/16/6 26/19/6
f 35/1/1 36/21/1 34/2/1
f 39/4/2 40/22/2 36/5/2
f 37/7/3 38/23/3 40/8/3
f 33/10/4 34/24/4 38/11/4
f 33/13/5 37/20/5 39/14/5
f 38/16/6 34/19/6 36/17/6
f 43/1/1 44/21/1 42/2/1
f 47/4/2 48/22/2 44/5/2
f 45/7/3 46/23/3 48/8/3
f 41/10/4 42/24/4 46/11/4
f 43/15/5 41/13/5 45/20/5
f 46/16/6 42/19/6 44/17/6
o RailTrackTrack
v -0.296066 0.098967 -3.578412
v -0.296066 0.239918 -3.578412
v -0.217313 0.098967 -3.578411
v -0.217313 0.239918 -3.578411
v -0.296066 0.098967 -0.000000
v -0.296066 0.239918 -0.000000
v -0.217313 0.098967 -0.000000
v -0.217313 0.239918 -0.000000
v -0.278265 0.128469 -3.578411
v -0.296066 0.218164 -3.578412
v -0.217313 0.218164 -3.578411
v -0.235114 0.128469 -3.578412
v -0.217313 0.218164 -0.000000
v -0.235114 0.128469 -0.000000
v -0.296066 0.218164 -0.000000
v -0.278264 0.128469 -0.000000
v -0.243564 0.098967 -3.578412
v -0.269815 0.098967 -3.578411
v -0.269815 0.262066 -3.578411
v -0.243564 0.262066 -3.578412
v -0.269815 0.098967 -0.000000
v -0.243564 0.098967 -0.000000
v -0.243564 0.262066 -0.000000
v -0.269815 0.262066 -0.000000
v -0.243564 0.133935 -0.000000
v -0.269815 0.133935 -0.000000
v -0.243564 0.227098 -0.000000
v -0.269815 0.227098 -0.000000
v -0.269815 0.133935 -3.578411
v -0.243564 0.133935 -3.578412
v -0.269815 0.227098 -3.578411
v -0.243564 0.227098 -3.578412
v -0.272804 0.208290 -3.578412
v -0.240574 0.208290 -3.578411
v -0.240574 0.208290 -0.000000
v -0.272804 0.208290 -0.000000
v -0.269815 0.208290 -3.578411
v -0.243564 0.208290 -3.578412
v -0.243564 0.208290 -0.000000
v -0.269815 0.208290 -0.000000
v -0.311598 0.083360 -0.288937
v -0.311598 0.119228 -0.288937
v -0.201125 0.083360 -0.288937
v -0.201125 0.119228 -0.288937
v -0.311598 0.083360 -0.225410
v -0.311598 0.119228 -0.225410
v -0.201125 0.083360 -0.225410
v -0.201125 0.119228 -0.225410
v -0.229101 0.087511 -0.288937
v -0.283623 0.087511 -0.288937
v -0.283623 0.123379 -0.288937
v -0.229101 0.123379 -0.288937
v -0.283623 0.087511 -0.225410
v -0.229100 0.087511 -0.225410
v -0.229100 0.123379 -0.225410
v -0.283623 0.123379 -0.225410
v -0.275588 0.149727 -0.288937
v -0.237135 0.149727 -0.288937
v -0.237135 0.149726 -0.225410
v -0.275588 0.149726 -0.225410
v -0.311598 0.083360 -0.893592
v -0.311598 0.119228 -0.893592
v -0.201125 0.083360 -0.893592
v -0.201125 0.119228 -0.893592
v -0.311598 0.083360 -0.830066
v -0.311598 0.119228 -0.830066
v -0.201125 0.083360 -0.830066
v -0.201125 0.119228 -0.830066
v -0.229100 0.087511 -0.893592
v -0.283622 0.087511 -0.893592
v -0.283622 0.123379 -0.893592
v -0.229100 0.123379 -0.893592
v -0.283623 0.087511 -0.830066
v -0.229101 0.087511 -0.830066
v -0.229101 0.123379 -0.830066
v -0.283623 0.123379 -0.830066
v -0.275588 0.149727 -0.893592
v -0.237135 0.149727 -0.893592
v -0.237135 0.149727 -0.830066
v -0.275588 0.149727 -0.830066
v -0.311598 0.083360 -1.498248
v -0.311598 0.119228 -1.498248
v -0.201125 0.083360 -1.498248
v -0.201125 0.119228 -1.498248
v -0.311598 0.083360 -1.434722
v -0.311598 0.119228 -1.434722
v -0.201125 0.083360 -1.434722
v -0.201125 0.119228 -1.434722
v -0.229101 0.087511 -1.498248
v -0.283622 0.087511 -1.498248
v -0.283622 0.123379 -1.498248
v -0.229101 0.123379 -1.498248
v -0.283622 0.087511 -1.434722
v -0.229100 0.087511 -1.434722
v -0.229100 0.123379 -1.434722
v -0.283622 0.123379 -1.434722
v -0.275588 0.149727 -1.498248
v -0.237135 0.149726 -1.498248
v -0.237135 0.149727 -1.434722
v -0.275588 0.149727 -1.434722
v -0.311598 0.083360 -2.102904
v -0.311598 0.119228 -2.102904
v -0.201125 0.083360 -2.102904
v -0.201125 0.119228 -2.102904
v -0.311598 0.083360 -2.039378
v -0.311598 0.119228 -2.039378
v -0.201125 0.083360 -2.039378
v -0.201125 0.119228 -2.039378
v -0.229100 0.087511 -2.102904
v -0.283622 0.087511 -2.102904
v -0.283622 0.123379 -2.102904
v -0.229100 0.123379 -2.102904
v -0.283622 0.087511 -2.039378
v -0.229101 0.087511 -2.039378
v -0.229101 0.123379 -2.039378
v -0.283622 0.123379 -2.039378
v -0.275588 0.149726 -2.102904
v -0.237135 0.149727 -2.102904
v -0.237135 0.149727 -2.039378
v -0.275588 0.149727 -2.039378
v -0.311598 0.083360 -2.707560
v -0.311598 0.119228 -2.707560
v -0.201125 0.083360 -2.707560
v -0.201125 0.119228 -2.707560
v -0.311598 0.083360 -2.644034
v -0.311598 0.119228 -2.644034
v -0.201125 0.083360 -2.644034
v -0.201125 0.119228 -2.644034
v -0.229100 0.087511 -2.707560
v -0.283623 0.087511 -2.707560
v -0.283623 0.123379 -2.707560
v -0.229100 0.123379 -2.707560
v -0.283623 0.087511 -2.644034
v -0.229100 0.087511 -2.644034
v -0.229100 0.123379 -2.644034
v -0.283623 0.123379 -2.644034
v -0.275588 0.149727 -2.707560
v -0.237135 0.149727 -2.707560
v -0.237135 0.149727 -2.644034
v -0.275588 0.149727 -2.644034
v -0.311598 0.083360 -3.312216
v -0.311598 0.119228 -3.312216
v -0.201125 0.083360 -3.312216
v -0.201125 0.119228 -3.312216
v -0.311598 0.083360 -3.248690
v -0.311598 0.119228 -3.248690
v -0.201125 0.083360 -3.248690
v -0.201125 0.119228 -3.248690
v -0.229100 0.087511 -3.312216
v -0.283622 0.087511 -3.312216
v -0.283622 0.123379 -3.312216
v -0.229100 0.123379 -3.312216
v -0.283623 0.087511 -3.248690
v -0.229100 0.087511 -3.248690
v -0.229100 0.123379 -3.248690
v -0.283623 0.123379 -3.248690
v -0.275588 0.149727 -3.312216
v -0.237135 0.149727 -3.312216
v -0.237135 0.149727 -3.248690
v -0.275588 0.149727 -3.248690
v 0.296066 0.098967 -3.578412
v 0.296066 0.239918 -3.578412
v 0.217313 0.098967 -3.578411
v 0.217313 0.239918 -3.578411
v 0.296066 0.098967 -0.000000
v 0.296066 0.239918 -0.000000
v 0.217313 0.098967 -0.000000
v 0.217313 0.239918 -0.000000
v 0.278265 0.128469 -3.578411
v 0.296066 0.218164 -3.578412
v 0.217313 0.218164 -3.578411
v 0.235114 0.128469 -3.578412
v 0.217313 0.218164 -0.000000
v 0.235114 0.128469 -0.000000
v 0.296066 0.218164 -0.000000
v 0.278264 0.128469 -0.000000
v 0.243564 0.098967 -3.578412
v 0.269815 0.098967 -3.578411
v 0.269815 0.262066 -3.578411
v 0.243564 0.262066 -3.578412
v 0.269815 0.098967 -0.000000
v 0.243564 0.098967 -0.000000
v 0.243564 0.262066 -0.000000
v 0.269815 0.262066 -0.000000
v 0.243564 0.133935 -0.000000
v 0.269815 0.133935 -0.000000
v 0.243564 0.227098 -0.000000
v 0.269815 0.227098 -0.000000
v 0.269815 0.133935 -3.578411
v 0.243564 0.133935 -3.578412
v 0.269815 0.227098 -3.578411
v 0.243564 0.227098 -3.578412
v 0.272804 0.208290 -3.578412
v 0.240575 0.208290 -3.578411
v 0.240575 0.208290 -0.000000
v 0.272804 0.208290 -0.000000
v 0.269815 0.208290 -3.578411
v 0.243564 0.208290 -3.578412
v 0.243564 0.208290 -0.000000
v 0.269815 0.208290 -0.000000
v 0.311599 0.083360 -0.288937
v 0.311599 0.119228 -0.288937
v 0.201125 0.083360 -0.288937
v 0.201125 0.119228 -0.288937
v 0.311599 0.083360 -0.225410
v 0.311599 0.119228 -0.225410
v 0.201125 0.083360 -0.225410
v 0.201125 0.119228 -0.225410
v 0.229101 0.087511 -0.288937
v 0.283623 0.087511 -0.288937
v 0.283623 0.123379 -0.288937
v 0.229101 0.123379 -0.288937
v 0.283623 0.087511 -0.225410
v 0.229100 0.087511 -0.225410
v 0.229100 0.123379 -0.225410
v 0.283623 0.123379 -0.225410
v 0.275588 0.149727 -0.288937
v 0.237135 0.149727 -0.288937
v 0.237135 0.149726 -0.225410
v 0.275588 0.149726 -0.225410
v 0.311599 0.083360 -0.893592
v 0.311599 0.119228 -0.893592
v 0.201125 0.083360 -0.893592
v 0.201125 0.119228 -0.893592
v 0.311599 0.083360 -0.830066
v 0.311599 0.119228 -0.830066
v 0.201125 0.083360 -0.830066
v 0.201125 0.119228 -0.830066
v 0.229100 0.087511 -0.893592
v 0.283623 0.087511 -0.893592
v 0.283623 0.123379 -0.893592
v 0.229100 0.123379 -0.893592
v 0.283623 0.087511 -0.830066
v 0.229101 0.087511 -0.830066
v 0.229101 0.123379 -0.830066
v 0.283623 0.123379 -0.830066
v 0.275588 0.149727 -0.893592
v 0.237135 0.149727 -0.893592
v 0.237135 0.149727 -0.830066
v 0.275588 0.149727 -0.830066
v 0.311599 0.083360 -1.498248
v 0.311599 0.119228 -1.498248
v 0.201125 0.083360 -1.498248
v 0.201125 0.119228 -1.498248
v 0.311599 0.083360 -1.434722
v 0.311599 0.119228 -1.434722
v 0.201125 0.083360 -1.434722
v 0.201125 0.119228 -1.434722
v 0.229101 0.087511 -1.498248
v 0.283623 0.087511 -1.498248
v 0.283623 0.123379 -1.498248
v 0.229101 0.123379 -1.498248
v 0.283623 0.087511 -1.434722
v 0.229100 0.087511 -1.434722
v 0.229100 0.123379 -1.434722
v 0.283623 0.123379 -1.434722
v 0.275588 0.149727 -1.498248
v 0.237135 0.149726 -1.498248
v 0.237135 0.149727 -1.434722
v 0.275588 0.149727 -1.434722
v 0.311599 0.083360 -2.102904
v 0.311599 0.119228 -2.102904
v 0.201125 0.083360 -2.102904
v 0.201125 0.119228 -2.102904
v 0.311599 0.083360 -2.039378
v 0.311599 0.119228 -2.039378
v 0.201125 0.083360 -2.039378
v 0.201125 0.119228 -2.039378
v 0.229100 0.087511 -2.102904
v 0.283623 0.087511 -2.102904
v 0.283623 0.123379 -2.102904
v 0.229100 0.123379 -2.102904
v 0.283623 0.087511 -2.039378
v 0.229101 0.087511 -2.039378
v 0.229101 0.123379 -2.039378
v 0.283623 0.123379 -2.039378
v 0.275588 0.149726 -2.102904
v 0.237135 0.149727 -2.102904
v 0.237135 0.149727 -2.039378
v 0.275588 0.149727 -2.039378
v 0.311599 0.083360 -2.707560
v 0.311599 0.119228 -2.707560
v 0.201125 0.083360 -2.707560
v 0.201125 0.119228 -2.707560
v 0.311599 0.083360 -2.644034
v 0.311599 0.119228 -2.644034
v 0.201125 0.083360 -2.644034
v 0.201125 0.119228 -2.644034
v 0.229100 0.087511 -2.707560
v 0.283623 0.087511 -2.707560
v 0.283623 0.123379 -2.707560
v 0.229100 0.123379 -2.707560
v 0.283623 0.087511 -2.644034
v 0.229100 0.087511 -2.644034
v 0.229100 0.123379 -2.644034
v 0.283623 0.123379 -2.644034
v 0.275588 0.149727 -2.707560
v 0.237135 0.149727 -2.707560
v 0.237135 0.149727 -2.644034
v 0.275588 0.149727 -2.644034
v 0.311599 0.083360 -3.312216
v 0.311599 0.119228 -3.312216
v 0.201125 0.083360 -3.312216
v 0.201125 0.119228 -3.312216
v 0.311599 0.083360 -3.248690
v 0.311599 0.119228 -3.248690
v 0.201125 0.083360 -3.248690
v 0.201125 0.119228 -3.248690
v 0.229100 0.087511 -3.312216
v 0.283623 0.087511 -3.312216
v 0.283623 0.123379 -3.312216
v 0.229100 0.123379 -3.312216
v 0.283623 0.087511 -3.248690
v 0.229100 0.087511 -3.248690
v 0.229100 0.123379 -3.248690
v 0.283623 0.123379 -3.248690
v 0.275588 0.149727 -3.312216
v 0.237135 0.149727 -3.312216
v 0.237135 0.149727 -3.248690
v 0.275588 0.149727 -3.248690
vn -0.0000 -0.0000 -1.0000
vn 1.0000 -0.0000 -0.0000
vn -0.0000 -0.0000 1.0000
vn -1.0000 -0.0000 -0.0000
vn -0.0000 -1.0000 -0.0000
vn -0.6449 0.7643 -0.0000
vn -0.8562 0.5166 -0.0000
vn -0.3907 -0.9205 -0.0000
vn 0.8562 0.5166 -0.0000
vn 0.3907 -0.9205 -0.0000
vn 0.0002 -0.0000 -1.0000
vn 0.0001 -0.0000 -1.0000
vn 0.6449 0.7643 -0.0000
vn -0.0000 1.0000 -0.0000
vn -0.5432 0.8396 -0.0000
vn 0.5432 0.8396 -0.0000
vn 0.1468 -0.9892 -0.0000
vn -0.1468 0.9892 -0.0000
vn 0.1468 0.9892 -0.0000
vn -0.9565 0.2917 -0.0000
vn -0.1468 -0.9892 -0.0000
vn 0.9565 0.2917 -0.0000
vn -0.0002 -0.0000 -1.0000
vn -0.0001 -0.0000 -1.0000
vt 0.553835 0.806370
vt 0.504871 0.824402
vt 0.504871 0.793803
vt 1.359019 0.598841
vt -0.887866 0.554494
vt 1.359019 0.586876
vt 0.813860 0.824802
vt 0.778782 0.837720
vt 0.778782 0.815799
vt -0.887866 0.569234
vt 1.359020 0.610807
vt -0.887866 0.583974
vt 1.359019 0.839939
vt -0.887866 0.842653
vt 1.359020 0.820792
vt 1.359019 0.801645
vt -0.887866 0.819066
vt -0.887866 0.603964
vt 1.359020 0.643261
vt -0.887866 0.623954
vt -0.887866 0.647541
vt 1.359020 0.679375
vt -0.887867 0.668443
vt 0.813860 0.695688
vt 0.802570 0.725416
vt 0.778782 0.695688
vt 0.809866 0.805850
vt 0.813860 0.805850
vt 1.359020 0.627034
vt 1.359019 0.610807
vt 1.359019 0.662408
vt -0.887867 0.626640
vt 1.359019 0.645441
vt 0.553835 0.626144
vt 0.538074 0.667641
vt 0.504871 0.626144
vt 0.548259 0.779915
vt 0.553835 0.779915
vt 0.608376 0.779915
vt 0.602800 0.806370
vt 0.602800 0.779915
vt 0.618561 0.667641
vt 0.602800 0.626144
vt 0.651765 0.626144
vt 0.602800 0.675329
vt 0.852934 0.805850
vt 0.848939 0.824802
vt 0.848939 0.805850
vt 0.860230 0.725416
vt 0.848939 0.695688
vt 0.884017 0.695688
vt 0.848939 0.730924
vt 1.359019 0.763350
vt -0.887866 0.795478
vt -0.887866 0.771891
vt 1.359019 0.878234
vt -0.887866 0.889828
vt 1.359020 0.859087
vt 0.884017 0.837720
vt 0.884017 0.815799
vt 0.848939 0.860038
vt 0.651765 0.824402
vt 0.651765 0.793803
vt 0.602800 0.855555
vt 0.813860 0.730924
vt 0.553835 0.675329
vt -0.887866 0.554493
vt 1.359019 0.580713
vt 1.359020 0.574550
vt -0.887866 0.546902
vt -0.887866 0.539310
vt -0.887866 0.721510
vt 1.359019 0.681555
vt 1.359019 0.722453
vt -0.887867 0.623954
vt 1.359020 0.763350
vt 1.359020 0.722453
vt 0.608988 0.119277
vt 0.507544 0.106686
vt 0.622265 0.106686
vt 0.393237 0.168559
vt 0.638367 0.032642
vt 0.638367 0.168559
vt 0.733344 0.081706
vt 0.568674 0.061267
vt 0.754897 0.061267
vt 0.393237 0.172017
vt 0.638367 0.036101
vt 0.638367 0.172017
vt 0.768850 0.143816
vt 0.622265 0.156408
vt 0.622265 0.143816
vt 0.382441 0.206744
vt 0.282974 0.041211
vt 0.382441 0.036948
vt 0.944317 0.205734
vt 0.849307 0.037996
vt 0.944317 0.042107
vt 0.591519 0.036101
vt 0.410580 0.172017
vt 0.410580 0.036101
vt 0.768850 0.119277
vt 0.622265 0.119277
vt 0.568674 0.141979
vt 0.733344 0.121540
vt 0.754897 0.141979
vt 0.547121 0.121540
vt 0.507544 0.156408
vt 0.608988 0.143816
vt 0.494266 0.143816
vt 0.497874 0.169759
vt 0.412445 0.033843
vt 0.497872 0.033843
vt 0.410332 0.087576
vt 0.547121 0.081706
vt 0.494266 0.119277
vt 0.409998 0.140201
vt 0.409998 0.122893
vt 0.758765 0.080752
vt 0.589072 0.123187
vt 0.589072 0.080752
vt 0.382441 0.038855
vt 0.282974 0.211370
vt 0.282974 0.041722
vt 0.944317 0.042601
vt 0.849307 0.203602
vt 0.849305 0.039835
vt 0.768850 0.106686
vt 0.758765 0.123187
vt 0.382443 0.203941
vt 0.282974 0.035620
vt 0.382443 0.034148
vt 0.944317 0.200340
vt 0.849307 0.035296
vt 0.944317 0.036715
vt 0.591519 0.172017
vt 0.410332 0.115670
vt 0.382443 0.209635
vt 0.282974 0.039916
vt 0.382443 0.039840
vt 0.944317 0.040859
vt 0.849307 0.204553
vt 0.849305 0.040785
vt 0.382441 0.210726
vt 0.282974 0.039611
vt 0.382441 0.040930
vt 0.944317 0.204190
vt 0.849307 0.041836
vt 0.944317 0.040564
vt 0.382441 0.042022
vt 0.282974 0.208954
vt 0.282974 0.039306
vt 0.944317 0.203896
vt 0.849307 0.042890
vt 0.944317 0.040270
vt 0.604838 0.806370
vt 0.653802 0.824402
vt 0.604838 0.855555
vt 0.013894 0.625795
vt 2.072692 0.589107
vt 2.072692 0.602438
vt 0.847584 0.824802
vt 0.882663 0.837720
vt 0.847584 0.860038
vt 2.072693 0.602438
vt 0.013894 0.636617
vt 2.072692 0.892396
vt 0.013894 0.878489
vt 0.013894 0.861171
vt 0.013894 0.774583
vt 2.072692 0.807062
vt 0.013894 0.791901
vt 2.072693 0.633849
vt 0.013894 0.665970
vt 0.013894 0.651294
vt 2.072693 0.675691
vt 0.013894 0.700605
vt 0.013894 0.685259
vt 0.847584 0.695688
vt 0.858875 0.725416
vt 0.847584 0.730924
vt 0.851579 0.805850
vt 0.847584 0.805850
vt 2.072692 0.633849
vt 0.013894 0.636617
vt 2.072693 0.615769
vt 0.013894 0.681315
vt 2.072692 0.651929
vt 2.072692 0.670833
vt 0.604838 0.626144
vt 0.620598 0.667641
vt 0.604838 0.675329
vt 0.610413 0.779915
vt 0.604838 0.779915
vt 0.550296 0.779915
vt 0.555872 0.806370
vt 0.506908 0.793803
vt 0.555872 0.779915
vt 0.555872 0.626144
vt 0.540111 0.667641
vt 0.506908 0.626144
vt 0.555872 0.675329
vt 0.808511 0.805850
vt 0.812505 0.824802
vt 0.777427 0.815799
vt 0.812505 0.805850
vt 0.812505 0.695688
vt 0.801214 0.725416
vt 0.777427 0.695688
vt 0.812505 0.730924
vt 0.013894 0.809219
vt 2.072692 0.849729
vt 0.013894 0.826536
vt 2.072693 0.828396
vt 0.013894 0.843853
vt 2.072693 0.871062
vt 0.777427 0.837720
vt 0.812505 0.860038
vt 0.506908 0.824402
vt 0.555872 0.855555
vt 0.013894 0.609399
vt 2.072692 0.582240
vt 0.013894 0.603825
vt 2.072693 0.582240
vt 2.072692 0.740162
vt 2.072692 0.694595
vt 0.013894 0.683287
vt 2.072692 0.673262
vt 2.072693 0.740162
vt 2.072693 0.785729
vt 0.952703 0.011104
vt 0.835402 0.211971
vt 0.835402 0.011104
vt 0.387736 0.009113
vt 0.270435 0.209980
vt 0.270435 0.009113
vt 0.835402 0.009767
vt 0.952703 0.210630
vt 0.835399 0.210630
vt 0.270435 0.007775
vt 0.387736 0.208639
vt 0.270435 0.208639
vt 0.952703 0.012317
vt 0.835399 0.213181
vt 0.835399 0.012317
vt 0.387736 0.009333
vt 0.270435 0.210197
vt 0.270435 0.009333
vt 0.952703 0.009842
vt 0.835399 0.210707
vt 0.835399 0.009842
vt 0.270435 0.010189
vt 0.387736 0.211054
vt 0.270435 0.211054
vt 0.952703 0.010276
vt 0.835402 0.211139
vt 0.835402 0.010276
vt 0.387736 0.008284
vt 0.270435 0.209148
vt 0.270435 0.008284
vt 0.835402 0.007802
vt 0.952703 0.208666
vt 0.835399 0.208666
vt 0.387736 0.008455
vt 0.270435 0.209319
vt 0.270435 0.008455
vt 0.553835 0.855555
vt 0.813860 0.860038
vt 1.359020 0.598841
vt -0.887866 0.866241
vt 1.359019 0.627034
vt 1.359020 0.662408
vt -0.887866 0.603964
vt -0.887866 0.647541
vt 1.359020 0.782497
vt -0.887866 0.913416
vt 1.359020 0.580713
vt -0.887866 0.671128
vt -0.887866 0.671128
vt 0.393237 0.032642
vt 0.393237 0.036101
vt 0.768850 0.156408
vt 0.282974 0.210859
vt 0.849305 0.201765
vt 0.412445 0.169759
vt 0.382443 0.208649
vt 0.944317 0.206226
vt 0.282974 0.205267
vt 0.849305 0.199061
vt 0.282974 0.209564
vt 0.944317 0.204484
vt 0.282974 0.209259
vt 0.849307 0.205605
vt 0.382443 0.211816
vt 0.849307 0.206656
vt 0.653802 0.793803
vt 0.013894 0.614973
vt 0.882663 0.815799
vt 2.072693 0.913729
vt 2.072693 0.694595
vt 0.882663 0.695688
vt 0.013894 0.665970
vt 0.653802 0.626144
vt 0.013894 0.614973
vt 2.072693 0.575373
vt 0.013894 0.737594
vt 2.072693 0.673262
vt 0.952703 0.211971
vt 0.387740 0.209980
vt 0.952703 0.009767
vt 0.387740 0.007775
vt 0.952703 0.213181
vt 0.387740 0.210197
vt 0.952703 0.210707
vt 0.387740 0.010189
vt 0.952703 0.211139
vt 0.387736 0.209148
vt 0.952703 0.007802
vt 0.387736 0.209319
s 1
usemtl matRailTrack
f 80/25/7 52/26/7 59/27/7
f 52/28/8 61/29/8 59/30/8
f 76/31/9 54/32/9 63/33/9
f 54/34/10 58/35/10 63/36/10
f 66/37/11 53/38/11 49/39/11
f 67/40/12 54/38/12 72/41/12
f 64/42/13 49/43/13 53/44/13
f 63/45/14 81/46/14 84/47/14
f 69/48/9 64/49/9 53/50/9
f 76/31/9 84/51/9 88/52/9
f 60/53/15 55/36/15 51/54/15
f 59/55/16 83/56/16 82/57/16
f 65/58/7 60/59/7 51/60/7
f 80/25/7 82/61/17 86/62/18
f 81/63/17 79/64/7 85/65/18
f 79/64/7 86/62/18 85/65/18
f 57/66/7 66/67/7 49/68/7
f 77/69/7 65/58/7 66/67/7
f 83/70/9 75/71/9 87/72/9
f 75/71/9 88/52/9 87/72/9
f 62/73/9 70/74/9 55/75/9
f 73/76/9 69/48/9 70/74/9
f 52/77/19 71/78/19 56/79/19
f 71/78/20 67/40/20 72/41/20
f 51/80/11 70/81/11 65/82/11
f 70/81/11 66/37/11 65/82/11
f 56/83/9 75/71/9 61/84/9
f 71/85/9 76/31/9 75/71/9
f 50/86/7 79/64/7 58/87/7
f 67/88/7 80/25/7 79/64/7
f 87/72/9 74/89/9 73/76/9
f 85/65/18 78/90/7 77/69/7
f 64/91/21 77/92/21 57/30/21
f 60/93/22 73/94/22 62/95/22
f 74/96/10 85/97/10 77/98/10
f 87/99/11 82/57/11 83/56/11
f 85/97/11 84/47/11 81/46/11
f 86/100/8 73/96/8 78/101/8
f 97/102/7 92/103/7 91/104/7
f 92/105/8 95/106/8 91/107/8
f 101/108/9 94/109/9 93/110/9
f 94/111/10 89/112/10 93/113/10
f 101/114/23 89/115/23 98/116/23
f 99/117/24 94/118/24 104/119/24
f 92/120/25 103/121/25 96/122/25
f 99/123/26 108/124/26 105/125/26
f 91/104/27 102/126/27 97/127/27
f 97/127/11 101/114/11 98/116/11
f 96/128/9 102/129/9 95/130/9
f 103/131/9 101/108/9 102/129/9
f 90/132/7 98/133/7 89/115/7
f 99/134/7 97/102/7 98/133/7
f 106/135/20 108/136/20 107/137/20
f 103/131/9 108/138/9 104/139/9
f 100/140/7 105/141/7 106/142/7
f 100/143/28 107/144/28 103/145/28
f 117/102/7 112/103/7 111/104/7
f 112/105/8 115/106/8 111/107/8
f 121/108/9 114/109/9 113/110/9
f 114/111/10 109/112/10 113/113/10
f 121/114/23 109/115/23 118/116/23
f 124/146/24 110/147/24 114/148/24
f 116/149/25 120/150/25 123/151/25
f 119/123/26 128/124/26 125/125/26
f 115/152/27 117/127/27 111/104/27
f 122/126/11 118/116/11 117/127/11
f 116/128/9 122/129/9 115/130/9
f 123/131/9 121/108/9 122/129/9
f 110/132/7 118/133/7 109/115/7
f 119/134/7 117/102/7 118/133/7
f 126/135/20 128/136/20 127/137/20
f 123/131/9 128/138/9 124/139/9
f 119/134/7 126/142/7 120/140/7
f 123/145/28 126/153/28 127/144/28
f 137/102/7 132/103/7 131/104/7
f 132/105/8 135/106/8 131/107/8
f 141/108/9 134/109/9 133/110/9
f 134/111/10 129/112/10 133/113/10
f 141/114/23 129/115/23 138/116/23
f 139/154/24 134/155/24 144/156/24
f 132/157/25 143/158/25 136/159/25
f 144/160/26 145/125/26 139/123/26
f 131/104/27 142/126/27 137/127/27
f 137/127/11 141/114/11 138/116/11
f 136/128/9 142/129/9 135/130/9
f 143/131/9 141/108/9 142/129/9
f 130/132/7 138/133/7 129/115/7
f 139/134/7 137/102/7 138/133/7
f 146/135/20 148/136/20 147/137/20
f 144/139/9 147/161/9 148/138/9
f 139/134/7 146/142/7 140/140/7
f 143/145/28 146/153/28 147/144/28
f 157/102/7 152/103/7 151/104/7
f 152/105/8 155/106/8 151/107/8
f 161/108/9 154/109/9 153/110/9
f 154/111/10 149/112/10 153/113/10
f 161/114/23 149/115/23 158/116/23
f 159/162/24 154/163/24 164/164/24
f 156/165/25 160/166/25 163/167/25
f 164/160/26 165/125/26 159/123/26
f 155/152/27 157/127/27 151/104/27
f 162/126/11 158/116/11 157/127/11
f 156/128/9 162/129/9 155/130/9
f 163/131/9 161/108/9 162/129/9
f 150/132/7 158/133/7 149/115/7
f 159/134/7 157/102/7 158/133/7
f 166/135/20 168/136/20 167/137/20
f 164/139/9 167/161/9 168/138/9
f 159/134/7 166/142/7 160/140/7
f 163/145/28 166/153/28 167/144/28
f 177/102/7 172/103/7 171/104/7
f 172/105/8 175/106/8 171/107/8
f 181/108/9 174/109/9 173/110/9
f 174/111/10 169/112/10 173/113/10
f 181/114/23 169/115/23 178/116/23
f 179/168/24 174/169/24 184/170/24
f 172/171/25 183/172/25 176/173/25
f 184/160/26 185/125/26 179/123/26
f 175/152/27 177/127/27 171/104/27
f 182/126/11 178/116/11 177/127/11
f 176/128/9 182/129/9 175/130/9
f 183/131/9 181/108/9 182/129/9
f 170/132/7 178/133/7 169/115/7
f 179/134/7 177/102/7 178/133/7
f 186/135/20 188/136/20 187/137/20
f 183/131/9 188/138/9 184/139/9
f 179/134/7 186/142/7 180/140/7
f 180/143/28 187/144/28 183/145/28
f 197/102/7 192/103/7 191/104/7
f 192/105/8 195/106/8 191/107/8
f 201/108/9 194/109/9 193/110/9
f 194/111/10 189/112/10 193/113/10
f 201/114/23 189/115/23 198/116/23
f 204/174/24 190/175/24 194/176/24
f 192/177/25 203/178/25 196/179/25
f 199/123/26 208/124/26 205/125/26
f 195/152/27 197/127/27 191/104/27
f 202/126/11 198/116/11 197/127/11
f 196/128/9 202/129/9 195/130/9
f 203/131/9 201/108/9 202/129/9
f 190/132/7 198/133/7 189/115/7
f 199/134/7 197/102/7 198/133/7
f 206/135/20 208/136/20 207/137/20
f 203/131/9 208/138/9 204/139/9
f 199/134/7 206/142/7 200/140/7
f 200/143/28 207/144/28 203/145/28
f 240/180/7 212/181/7 228/182/7
f 221/183/10 212/184/10 219/185/10
f 236/186/9 214/187/9 232/188/9
f 218/189/8 214/190/8 223/183/8
f 226/191/11 213/192/11 229/193/11
f 214/194/19 227/195/19 232/196/19
f 209/197/15 224/198/15 213/199/15
f 241/200/16 223/201/16 244/202/16
f 229/203/9 224/204/9 234/205/9
f 244/206/9 236/186/9 248/207/9
f 211/208/13 222/209/13 220/210/13
f 243/211/14 219/212/14 242/213/14
f 225/214/7 220/215/7 238/216/7
f 242/217/29 240/180/7 246/218/30
f 241/219/29 239/220/7 218/221/7
f 246/218/30 239/220/7 245/222/30
f 226/223/7 217/224/7 209/225/7
f 225/214/7 237/226/7 226/223/7
f 243/227/9 235/228/9 221/229/9
f 248/207/9 235/228/9 247/230/9
f 230/231/9 222/232/9 215/233/9
f 229/203/9 233/234/9 230/231/9
f 231/235/12 212/236/12 216/237/12
f 231/235/20 227/195/20 228/238/20
f 211/236/11 230/239/11 215/237/11
f 226/191/11 230/239/11 225/240/11
f 235/228/9 216/241/9 221/229/9
f 236/186/9 231/242/9 235/228/9
f 239/220/7 210/243/7 218/221/7
f 240/180/7 227/244/7 239/220/7
f 234/205/9 247/230/9 233/234/9
f 238/216/7 245/222/30 237/226/7
f 237/184/22 224/245/22 217/246/22
f 233/247/21 220/248/21 222/245/21
f 245/249/8 234/201/8 237/250/8
f 242/213/11 247/251/11 243/211/11
f 244/202/11 245/252/11 241/200/11
f 233/194/10 246/253/10 238/254/10
f 257/102/7 252/103/7 260/140/7
f 255/106/10 252/105/10 251/107/10
f 261/108/9 254/109/9 264/139/9
f 249/112/8 254/111/8 253/113/8
f 249/115/27 261/114/27 258/116/27
f 254/255/25 259/256/25 264/257/25
f 263/258/24 252/259/24 256/260/24
f 259/123/28 268/124/28 264/160/28
f 251/104/23 262/126/23 255/152/23
f 257/127/11 261/114/11 262/126/11
f 262/129/9 256/128/9 255/130/9
f 261/108/9 263/131/9 262/129/9
f 258/133/7 250/132/7 249/115/7
f 257/102/7 259/134/7 258/133/7
f 268/136/20 266/135/20 267/137/20
f 268/138/9 263/131/9 264/139/9
f 260/140/7 265/141/7 259/134/7
f 267/144/26 260/143/26 263/145/26
f 277/102/7 272/103/7 280/140/7
f 275/106/10 272/105/10 271/107/10
f 281/108/9 274/109/9 284/139/9
f 269/112/8 274/111/8 273/113/8
f 269/115/27 281/114/27 278/116/27
f 284/261/25 270/262/25 279/263/25
f 276/264/24 280/265/24 272/266/24
f 279/123/28 288/124/28 284/160/28
f 277/127/23 275/152/23 271/104/23
f 278/116/11 282/126/11 277/127/11
f 282/129/9 276/128/9 275/130/9
f 281/108/9 283/131/9 282/129/9
f 278/133/7 270/132/7 269/115/7
f 277/102/7 279/134/7 278/133/7
f 288/136/20 286/135/20 287/137/20
f 288/138/9 283/131/9 284/139/9
f 286/142/7 279/134/7 280/140/7
f 283/145/26 286/153/26 280/143/26
f 297/102/7 292/103/7 300/140/7
f 295/106/10 292/105/10 291/107/10
f 301/108/9 294/109/9 304/139/9
f 289/112/8 294/111/8 293/113/8
f 289/115/27 301/114/27 298/116/27
f 294/267/25 299/268/25 304/269/25
f 303/270/24 292/271/24 296/272/24
f 305/125/28 304/160/28 299/123/28
f 291/104/23 302/126/23 295/152/23
f 297/127/11 301/114/11 302/126/11
f 302/129/9 296/128/9 295/130/9
f 301/108/9 303/131/9 302/129/9
f 298/133/7 290/132/7 289/115/7
f 297/102/7 299/134/7 298/133/7
f 308/136/20 306/135/20 307/137/20
f 304/139/9 307/161/9 303/131/9
f 306/142/7 299/134/7 300/140/7
f 303/145/26 306/153/26 300/143/26
f 317/102/7 312/103/7 320/140/7
f 315/106/10 312/105/10 311/107/10
f 321/108/9 314/109/9 324/139/9
f 309/112/8 314/111/8 313/113/8
f 309/115/27 321/114/27 318/116/27
f 314/273/25 319/274/25 324/275/25
f 316/276/24 320/277/24 312/278/24
f 325/125/28 324/160/28 319/123/28
f 317/127/23 315/152/23 311/104/23
f 318/116/11 322/126/11 317/127/11
f 322/129/9 316/128/9 315/130/9
f 321/108/9 323/131/9 322/129/9
f 318/133/7 310/132/7 309/115/7
f 317/102/7 319/134/7 318/133/7
f 328/136/20 326/135/20 327/137/20
f 324/139/9 327/161/9 323/131/9
f 326/142/7 319/134/7 320/140/7
f 323/145/26 326/153/26 320/143/26
f 337/102/7 332/103/7 340/140/7
f 335/106/10 332/105/10 331/107/10
f 341/108/9 334/109/9 344/139/9
f 329/112/8 334/111/8 333/113/8
f 329/115/27 341/114/27 338/116/27
f 334/279/25 339/280/25 344/281/25
f 343/282/24 332/283/24 336/284/24
f 345/125/28 344/160/28 339/123/28
f 337/127/23 335/152/23 331/104/23
f 338/116/11 342/126/11 337/127/11
f 342/129/9 336/128/9 335/130/9
f 341/108/9 343/131/9 342/129/9
f 338/133/7 330/132/7 329/115/7
f 337/102/7 339/134/7 338/133/7
f 348/136/20 346/135/20 347/137/20
f 348/138/9 343/131/9 344/139/9
f 346/142/7 339/134/7 340/140/7
f 347/144/26 340/143/26 343/145/26
f 357/102/7 352/103/7 360/140/7
f 355/106/10 352/105/10 351/107/10
f 361/108/9 354/109/9 364/139/9
f 349/112/8 354/111/8 353/113/8
f 349/115/27 361/114/27 358/116/27
f 364/285/25 350/286/25 359/287/25
f 363/288/24 352/289/24 356/290/24
f 359/123/28 368/124/28 364/160/28
f 357/127/23 355/152/23 351/104/23
f 358/116/11 362/126/11 357/127/11
f 362/129/9 356/128/9 355/130/9
f 361/108/9 363/131/9 362/129/9
f 358/133/7 350/132/7 349/115/7
f 357/102/7 359/134/7 358/133/7
f 368/136/20 366/135/20 367/137/20
f 368/138/9 363/131/9 364/139/9
f 366/142/7 359/134/7 360/140/7
f 367/144/26 360/143/26 363/145/26
f 80/25/7 68/291/7 52/26/7
f 52/28/8 56/34/8 61/29/8
f 76/31/9 72/292/9 54/32/9
f 54/34/10 50/293/10 58/35/10
f 66/37/11 69/294/11 53/38/11
f 67/40/12 50/39/12 54/38/12
f 64/42/13 57/295/13 49/43/13
f 63/45/14 58/296/14 81/46/14
f 69/48/9 74/89/9 64/49/9
f 76/31/9 63/33/9 84/51/9
f 60/53/15 62/297/15 55/36/15
f 59/55/16 61/298/16 83/56/16
f 65/58/7 78/90/7 60/59/7
f 80/25/7 59/27/7 82/61/17
f 81/63/17 58/87/7 79/64/7
f 79/64/7 80/25/7 86/62/18
f 57/66/7 77/69/7 66/67/7
f 77/69/7 78/90/7 65/58/7
f 83/70/9 61/84/9 75/71/9
f 75/71/9 76/31/9 88/52/9
f 62/73/9 73/76/9 70/74/9
f 73/76/9 74/89/9 69/48/9
f 52/77/19 68/299/19 71/78/19
f 71/78/20 68/299/20 67/40/20
f 51/80/11 55/300/11 70/81/11
f 70/81/11 69/294/11 66/37/11
f 56/83/9 71/85/9 75/71/9
f 71/85/9 72/292/9 76/31/9
f 50/86/7 67/88/7 79/64/7
f 67/88/7 68/291/7 80/25/7
f 87/72/9 88/52/9 74/89/9
f 85/65/18 86/62/18 78/90/7
f 64/91/21 74/94/21 77/92/21
f 60/93/22 78/301/22 73/94/22
f 74/96/10 88/302/10 85/97/10
f 87/99/11 86/43/11 82/57/11
f 85/97/11 88/303/11 84/47/11
f 86/100/8 87/79/8 73/96/8
f 97/102/7 100/140/7 92/103/7
f 92/105/8 96/304/8 95/106/8
f 101/108/9 104/139/9 94/109/9
f 94/111/10 90/305/10 89/112/10
f 101/114/23 93/306/23 89/115/23
f 99/117/24 90/307/24 94/118/24
f 92/120/25 100/308/25 103/121/25
f 99/123/26 104/160/26 108/124/26
f 91/104/27 95/152/27 102/126/27
f 97/127/11 102/126/11 101/114/11
f 96/128/9 103/131/9 102/129/9
f 103/131/9 104/139/9 101/108/9
f 90/132/7 99/134/7 98/133/7
f 99/134/7 100/140/7 97/102/7
f 106/135/20 105/309/20 108/136/20
f 103/131/9 107/161/9 108/138/9
f 100/140/7 99/134/7 105/141/7
f 100/143/28 106/153/28 107/144/28
f 117/102/7 120/140/7 112/103/7
f 112/105/8 116/304/8 115/106/8
f 121/108/9 124/139/9 114/109/9
f 114/111/10 110/305/10 109/112/10
f 121/114/23 113/306/23 109/115/23
f 124/146/24 119/310/24 110/147/24
f 116/149/25 112/311/25 120/150/25
f 119/123/26 124/160/26 128/124/26
f 115/152/27 122/126/27 117/127/27
f 122/126/11 121/114/11 118/116/11
f 116/128/9 123/131/9 122/129/9
f 123/131/9 124/139/9 121/108/9
f 110/132/7 119/134/7 118/133/7
f 119/134/7 120/140/7 117/102/7
f 126/135/20 125/309/20 128/136/20
f 123/131/9 127/161/9 128/138/9
f 119/134/7 125/141/7 126/142/7
f 123/145/28 120/143/28 126/153/28
f 137/102/7 140/140/7 132/103/7
f 132/105/8 136/304/8 135/106/8
f 141/108/9 144/139/9 134/109/9
f 134/111/10 130/305/10 129/112/10
f 141/114/23 133/306/23 129/115/23
f 139/154/24 130/312/24 134/155/24
f 132/157/25 140/313/25 143/158/25
f 144/160/26 148/124/26 145/125/26
f 131/104/27 135/152/27 142/126/27
f 137/127/11 142/126/11 141/114/11
f 136/128/9 143/131/9 142/129/9
f 143/131/9 144/139/9 141/108/9
f 130/132/7 139/134/7 138/133/7
f 139/134/7 140/140/7 137/102/7
f 146/135/20 145/309/20 148/136/20
f 144/139/9 143/131/9 147/161/9
f 139/134/7 145/141/7 146/142/7
f 143/145/28 140/143/28 146/153/28
f 157/102/7 160/140/7 152/103/7
f 152/105/8 156/304/8 155/106/8
f 161/108/9 164/139/9 154/109/9
f 154/111/10 150/305/10 149/112/10
f 161/114/23 153/306/23 149/115/23
f 159/162/24 150/314/24 154/163/24
f 156/165/25 152/315/25 160/166/25
f 164/160/26 168/124/26 165/125/26
f 155/152/27 162/126/27 157/127/27
f 162/126/11 161/114/11 158/116/11
f 156/128/9 163/131/9 162/129/9
f 163/131/9 164/139/9 161/108/9
f 150/132/7 159/134/7 158/133/7
f 159/134/7 160/140/7 157/102/7
f 166/135/20 165/309/20 168/136/20
f 164/139/9 163/131/9 167/161/9
f 159/134/7 165/141/7 166/142/7
f 163/145/28 160/143/28 166/153/28
f 177/102/7 180/140/7 172/103/7
f 172/105/8 176/304/8 175/106/8
f 181/108/9 184/139/9 174/109/9
f 174/111/10 170/305/10 169/112/10
f 181/114/23 173/306/23 169/115/23
f 179/168/24 170/316/24 174/169/24
f 172/171/25 180/317/25 183/172/25
f 184/160/26 188/124/26 185/125/26
f 175/152/27 182/126/27 177/127/27
f 182/126/11 181/114/11 178/116/11
f 176/128/9 183/131/9 182/129/9
f 183/131/9 184/139/9 181/108/9
f 170/132/7 179/134/7 178/133/7
f 179/134/7 180/140/7 177/102/7
f 186/135/20 185/309/20 188/136/20
f 183/131/9 187/161/9 188/138/9
f 179/134/7 185/141/7 186/142/7
f 180/143/28 186/153/28 187/144/28
f 197/102/7 200/140/7 192/103/7
f 192/105/8 196/304/8 195/106/8
f 201/108/9 204/139/9 194/109/9
f 194/111/10 190/305/10 189/112/10
f 201/114/23 193/306/23 189/115/23
f 204/174/24 199/318/24 190/175/24
f 192/177/25 200/319/25 203/178/25
f 199/123/26 204/160/26 208/124/26
f 195/152/27 202/126/27 197/127/27
f 202/126/11 201/114/11 198/116/11
f 196/128/9 203/131/9 202/129/9
f 203/131/9 204/139/9 201/108/9
f 190/132/7 199/134/7 198/133/7
f 199/134/7 200/140/7 197/102/7
f 206/135/20 205/309/20 208/136/20
f 203/131/9 207/161/9 208/138/9
f 199/134/7 205/141/7 206/142/7
f 200/143/28 206/153/28 207/144/28
f 240/180/7 219/320/7 212/181/7
f 221/183/10 216/321/10 212/184/10
f 236/186/9 223/322/9 214/187/9
f 218/189/8 210/210/8 214/190/8
f 226/191/11 209/323/11 213/192/11
f 214/194/19 210/254/19 227/195/19
f 209/197/15 217/212/15 224/198/15
f 241/200/16 218/324/16 223/201/16
f 229/203/9 213/325/9 224/204/9
f 244/206/9 223/322/9 236/186/9
f 211/208/13 215/199/13 222/209/13
f 243/211/14 221/326/14 219/212/14
f 225/214/7 211/327/7 220/215/7
f 242/217/29 219/320/7 240/180/7
f 241/219/29 245/222/30 239/220/7
f 246/218/30 240/180/7 239/220/7
f 226/223/7 237/226/7 217/224/7
f 225/214/7 238/216/7 237/226/7
f 243/227/9 247/230/9 235/228/9
f 248/207/9 236/186/9 235/228/9
f 230/231/9 233/234/9 222/232/9
f 229/203/9 234/205/9 233/234/9
f 231/235/12 228/238/12 212/236/12
f 231/235/20 232/196/20 227/195/20
f 211/236/11 225/240/11 230/239/11
f 226/191/11 229/193/11 230/239/11
f 235/228/9 231/242/9 216/241/9
f 236/186/9 232/188/9 231/242/9
f 239/220/7 227/244/7 210/243/7
f 240/180/7 228/182/7 227/244/7
f 234/205/9 248/207/9 247/230/9
f 238/216/7 246/218/30 245/222/30
f 237/184/22 234/328/22 224/245/22
f 233/247/21 238/329/21 220/248/21
f 245/249/8 248/330/8 234/201/8
f 242/213/11 246/331/11 247/251/11
f 244/202/11 248/251/11 245/252/11
f 233/194/10 247/330/10 246/253/10
f 257/102/7 251/104/7 252/103/7
f 255/106/10 256/304/10 252/105/10
f 261/108/9 253/110/9 254/109/9
f 249/112/8 250/305/8 254/111/8
f 249/115/27 253/306/27 261/114/27
f 254/255/25 250/332/25 259/256/25
f 263/258/24 260/333/24 252/259/24
f 259/123/28 265/125/28 268/124/28
f 251/104/23 257/127/23 262/126/23
f 257/127/11 258/116/11 261/114/11
f 262/129/9 263/131/9 256/128/9
f 261/108/9 264/139/9 263/131/9
f 258/133/7 259/134/7 250/132/7
f 257/102/7 260/140/7 259/134/7
f 268/136/20 265/309/20 266/135/20
f 268/138/9 267/161/9 263/131/9
f 260/140/7 266/142/7 265/141/7
f 267/144/26 266/153/26 260/143/26
f 277/102/7 271/104/7 272/103/7
f 275/106/10 276/304/10 272/105/10
f 281/108/9 273/110/9 274/109/9
f 269/112/8 270/305/8 274/111/8
f 269/115/27 273/306/27 281/114/27
f 284/261/25 274/334/25 270/262/25
f 276/264/24 283/335/24 280/265/24
f 279/123/28 285/125/28 288/124/28
f 277/127/23 282/126/23 275/152/23
f 278/116/11 281/114/11 282/126/11
f 282/129/9 283/131/9 276/128/9
f 281/108/9 284/139/9 283/131/9
f 278/133/7 279/134/7 270/132/7
f 277/102/7 280/140/7 279/134/7
f 288/136/20 285/309/20 286/135/20
f 288/138/9 287/161/9 283/131/9
f 286/142/7 285/141/7 279/134/7
f 283/145/26 287/144/26 286/153/26
f 297/102/7 291/104/7 292/103/7
f 295/106/10 296/304/10 292/105/10
f 301/108/9 293/110/9 294/109/9
f 289/112/8 290/305/8 294/111/8
f 289/115/27 293/306/27 301/114/27
f 294/267/25 290/336/25 299/268/25
f 303/270/24 300/337/24 292/271/24
f 305/125/28 308/124/28 304/160/28
f 291/104/23 297/127/23 302/126/23
f 297/127/11 298/116/11 301/114/11
f 302/129/9 303/131/9 296/128/9
f 301/108/9 304/139/9 303/131/9
f 298/133/7 299/134/7 290/132/7
f 297/102/7 300/140/7 299/134/7
f 308/136/20 305/309/20 306/135/20
f 304/139/9 308/138/9 307/161/9
f 306/142/7 305/141/7 299/134/7
f 303/145/26 307/144/26 306/153/26
f 317/102/7 311/104/7 312/103/7
f 315/106/10 316/304/10 312/105/10
f 321/108/9 313/110/9 314/109/9
f 309/112/8 310/305/8 314/111/8
f 309/115/27 313/306/27 321/114/27
f 314/273/25 310/338/25 319/274/25
f 316/276/24 323/339/24 320/277/24
f 325/125/28 328/124/28 324/160/28
f 317/127/23 322/126/23 315/152/23
f 318/116/11 321/114/11 322/126/11
f 322/129/9 323/131/9 316/128/9
f 321/108/9 324/139/9 323/131/9
f 318/133/7 319/134/7 310/132/7
f 317/102/7 320/140/7 319/134/7
f 328/136/20 325/309/20 326/135/20
f 324/139/9 328/138/9 327/161/9
f 326/142/7 325/141/7 319/134/7
f 323/145/26 327/144/26 326/153/26
f 337/102/7 331/104/7 332/103/7
f 335/106/10 336/304/10 332/105/10
f 341/108/9 333/110/9 334/109/9
f 329/112/8 330/305/8 334/111/8
f 329/115/27 333/306/27 341/114/27
f 334/279/25 330/340/25 339/280/25
f 343/282/24 340/341/24 332/283/24
f 345/125/28 348/124/28 344/160/28
f 337/127/23 342/126/23 335/152/23
f 338/116/11 341/114/11 342/126/11
f 342/129/9 343/131/9 336/128/9
f 341/108/9 344/139/9 343/131/9
f 338/133/7 339/134/7 330/132/7
f 337/102/7 340/140/7 339/134/7
f 348/136/20 345/309/20 346/135/20
f 348/138/9 347/161/9 343/131/9
f 346/142/7 345/141/7 339/134/7
f 347/144/26 346/153/26 340/143/26
f 357/102/7 351/104/7 352/103/7
f 355/106/10 356/304/10 352/105/10
f 361/108/9 353/110/9 354/109/9
f 349/112/8 350/305/8 354/111/8
f 349/115/27 353/306/27 361/114/27
f 364/285/25 354/342/25 350/286/25
f 363/288/24 360/343/24 352/289/24
f 359/123/28 365/125/28 368/124/28
f 357/127/23 362/126/23 355/152/23
f 358/116/11 361/114/11 362/126/11
f 362/129/9 363/131/9 356/128/9
f 361/108/9 364/139/9 363/131/9
f 358/133/7 359/134/7 350/132/7
f 357/102/7 360/140/7 359/134/7
f 368/136/20 365/309/20 366/135/20
f 368/138/9 367/161/9 363/131/9
f 366/142/7 365/141/7 359/134/7
f 367/144/26 366/153/26 360/143/26
