# Blender 4.4.1
# www.blender.org
mtllib city_house_1.mtl
o apartmenthouseE
v -3.800008 10.774999 0.600030
v -3.800006 11.699989 0.000030
v -3.800008 10.699988 1.300025
v -3.800006 10.774999 -0.599969
v -3.800007 10.699988 -1.299968
v -3.800006 9.079668 -1.299968
v -3.800008 9.324998 0.600030
v -3.800000 9.079668 1.300025
v -3.800006 9.324998 -0.599968
v -3.800008 9.424997 0.600030
v -3.800006 9.424999 -0.599968
v -3.700007 9.424997 0.600030
v -3.700007 9.424999 -0.599968
v -3.700007 10.774999 -0.599969
v -3.900007 9.424999 -0.599968
v -3.900007 9.324998 -0.599969
v -3.900007 9.424999 0.600030
v -3.900008 9.324998 0.600030
v -3.700007 10.774999 0.600030
v -4.208660 2.899635 1.400033
v -4.208652 2.899707 4.500030
v -4.208652 2.700292 4.500024
v -4.208660 2.700542 1.400029
v -4.318997 2.700544 1.400029
v -4.318997 2.899635 1.400032
v -4.318999 2.899580 -1.399920
v -4.318999 2.700512 -1.399923
v -4.208661 2.899580 -1.399966
v -4.208661 2.700459 -1.399969
v -4.208661 2.899508 -4.500006
v -4.208661 2.700416 -4.500009
v -4.108654 2.700292 4.500024
v -4.108660 2.700545 1.300029
v -4.218998 2.700546 1.300029
v -4.108654 2.899707 4.500030
v -4.108660 2.899637 1.300032
v -4.218999 2.700512 -1.299966
v -4.218998 2.899637 1.300033
v -4.218999 2.899579 -1.299963
v -4.108661 2.700458 -1.300012
v -4.108658 2.700416 -4.500009
v -4.108661 2.899579 -1.300010
v -4.108658 2.899508 -4.500006
v -4.108665 8.499366 1.300028
v -4.108659 4.899999 2.200033
v -4.108660 8.499033 4.500024
v -4.108659 4.900000 3.400026
v -4.108654 3.550086 2.200037
v -4.108654 3.550086 3.400028
v -4.108654 3.450000 3.400028
v -4.108654 3.450000 2.200032
v 4.108666 8.500952 4.500021
v 4.108669 -0.100945 4.500025
v -4.108665 8.499366 -1.300018
v -4.108665 4.899992 -2.199969
v -4.108665 8.499027 -4.500019
v -4.108665 4.899991 -3.399957
v -4.108655 3.550084 -2.199963
v -4.108655 3.550084 -3.399957
v -4.108655 3.449996 -3.399957
v -4.108655 3.449996 -2.199960
v 4.108665 8.500942 -4.500021
v 4.108668 -0.100953 -4.500015
v -4.218999 8.499375 1.300028
v -4.219000 8.499374 -1.299968
v -4.218778 4.899997 -0.600022
v -4.218778 4.900000 0.600038
v -4.218771 3.550086 -0.600022
v -4.218771 3.550086 0.600040
v -4.218771 3.450000 0.600040
v -4.218771 3.449999 -0.600022
v -4.108659 0.359386 -1.300009
v -4.108655 2.399995 -2.199962
v -4.108655 2.399995 -3.399956
v -4.108654 0.360953 -4.500005
v -4.218999 0.359336 -1.299963
v -4.219117 2.549999 -0.700005
v -4.219117 2.549999 0.700024
v -4.218998 0.359338 1.300032
v -4.108659 0.359386 1.300032
v -4.108654 2.399998 2.200038
v -4.108654 2.399998 3.400028
v -4.108654 0.360962 4.500030
v -4.499950 8.518535 -4.499967
v -1.778834 10.699988 -1.299968
v -1.854888 10.639018 -1.379231
v -3.900007 10.639018 -1.379231
v -3.900007 11.699989 0.000030
v -1.756017 10.718287 -1.440202
v -3.900007 10.718287 -1.440202
v -1.778835 10.699988 1.300024
v -1.854889 10.639018 1.379287
v -4.499949 8.518538 4.499976
v -0.086618 12.056589 -4.499997
v -4.218793 8.618838 -4.500019
v -4.443707 8.438711 -4.499988
v -4.443706 8.438718 4.499995
v 4.108669 0.100010 0.600025
v 4.108668 1.050100 2.200028
v 4.108668 2.400002 2.200027
v 4.108668 2.100003 0.600022
v 4.108668 3.450001 0.600027
v 4.108668 3.450001 2.200027
v -4.108660 5.949996 3.400023
v -4.108660 6.050084 3.400026
v -4.108660 5.949996 2.200032
v -4.108654 0.950000 2.200038
v -4.108654 0.950000 3.400028
v -4.108654 1.050092 3.400030
v 4.108669 1.050101 3.400023
v 4.108669 0.952183 3.400023
v 4.202419 1.050101 3.400023
v 4.202419 0.952183 3.400023
v 4.202419 0.952182 2.200028
v 4.108668 0.952182 2.200028
v 4.202419 1.050100 2.200028
v -4.202406 1.050092 2.200038
v -4.202404 1.050092 3.400030
v -4.202404 0.950000 3.400028
v -4.202406 0.950000 2.200038
v -4.108654 1.050092 2.200038
v 4.108668 3.450001 3.400023
v 4.108668 2.400006 3.400022
v 4.017365 2.400006 3.400022
v 4.017365 1.050101 3.400023
v 4.017365 2.400002 2.200027
v 4.017365 1.050100 2.200028
v -4.017352 2.399998 2.200038
v -4.017352 2.399998 3.400028
v -4.017351 1.050097 3.400030
v -4.017350 1.050092 2.200038
v 4.108666 4.899999 0.600027
v 4.108666 4.900002 2.200027
v 4.108666 5.949998 2.200027
v 4.108668 3.550086 2.200028
v 4.108668 3.550086 0.600027
v 4.108666 5.950000 0.600026
v 4.108666 5.949998 3.400022
v 4.108666 4.900002 3.400022
v 4.108668 3.550092 3.400023
v 4.017365 4.900002 3.400022
v 4.017365 3.550092 3.400023
v 4.017365 3.550086 2.200028
v 4.017365 4.900002 2.200027
v -4.017352 3.550086 2.200037
v -4.017353 4.900000 3.400026
v -4.017352 3.550086 3.400028
v -4.017353 4.899999 2.200033
v 4.202419 3.450001 3.400023
v 4.202418 3.450001 2.200027
v 4.202419 3.550092 3.400023
v 4.202418 3.550086 2.200028
v -4.202407 3.550086 2.200037
v -4.202407 3.550086 3.400028
v -4.202407 3.450000 3.400028
v -4.202407 3.450000 2.200032
v 4.108665 7.399998 0.600027
v 4.108666 7.399997 2.200026
v 4.108666 6.050083 2.200027
v 4.108666 6.050085 0.600025
v 4.108666 7.399998 3.400023
v 4.108666 6.050084 3.400023
v -4.108659 7.399990 3.400023
v -4.108659 7.399989 2.200032
v 4.017358 6.050084 2.200027
v 4.017358 6.050085 3.400023
v 4.017358 7.399998 3.400023
v 4.017358 7.399997 2.200026
v -4.017353 6.050083 2.200033
v -4.017354 7.399990 3.400023
v -4.017353 6.050084 3.400026
v -4.017354 7.399989 2.200032
v -4.108660 6.050083 2.200033
v 4.202418 5.949998 2.200027
v 4.202418 5.949998 3.400022
v 4.202418 6.050084 3.400023
v 4.202418 6.050083 2.200027
v -4.202412 6.050083 2.200033
v -4.202412 6.050084 3.400026
v -4.202412 5.949996 3.400023
v -4.202412 5.949996 2.200032
v -4.108665 5.949993 -2.199964
v -4.108665 6.050076 -2.199969
v -4.108665 7.399985 -2.199969
v -4.108654 0.949998 -2.199962
v -4.108654 1.050090 -2.199963
v 4.108668 0.952180 -3.399962
v 4.108669 -0.100949 -0.600011
v 4.108666 0.952179 -2.199964
v 4.108669 0.100009 -0.600011
v 4.108666 1.050097 -2.199964
v 4.108666 2.100003 -0.600011
v 4.108666 2.399997 -2.199966
v 4.108668 3.449999 -0.600021
v 4.108666 3.449997 -2.199968
v -4.108665 5.949987 -3.399957
v -4.108665 6.050074 -3.399960
v -4.108655 0.949998 -3.399954
v -4.108655 1.050090 -3.399955
v 4.108668 1.050092 -3.399960
v 4.202418 0.952180 -3.399962
v 4.202418 1.050092 -3.399960
v 4.202418 0.952180 -2.199964
v 4.202418 1.050097 -2.199964
v -4.202407 0.949998 -3.399954
v -4.202407 1.050090 -2.199963
v -4.202407 0.949998 -2.199962
v -4.202407 1.050090 -3.399955
v 4.108666 2.399997 -3.399962
v 4.108665 3.449997 -3.399963
v 4.017365 1.050092 -3.399960
v 4.017364 2.399997 -3.399962
v 4.017365 2.399997 -2.199966
v 4.017365 1.050092 -2.199964
v -4.017353 1.050092 -3.399955
v -4.017353 2.399995 -2.199962
v -4.017351 1.050090 -2.199963
v -4.017353 2.399995 -3.399956
v 4.108666 4.899998 -0.600022
v 4.108665 5.949995 -2.199970
v 4.108665 4.899995 -2.199970
v 4.108666 3.550083 -2.199970
v 4.108668 3.550085 -0.600021
v 4.108665 5.949997 -0.600023
v 4.108665 4.899992 -3.399965
v 4.108665 5.949994 -3.399966
v 4.108665 3.550085 -3.399963
v 4.017364 3.550085 -3.399963
v 4.017364 4.899992 -3.399965
v 4.017365 3.550083 -2.199970
v 4.017364 4.899995 -2.199970
v -4.017354 4.899991 -3.399957
v -4.017354 4.899992 -2.199969
v -4.017353 3.550084 -2.199963
v -4.017354 3.550084 -3.399957
v 4.202417 3.449997 -2.199968
v 4.202415 3.449997 -3.399963
v 4.202415 3.550085 -3.399963
v 4.202417 3.550083 -2.199970
v -4.202408 3.550084 -3.399957
v -4.202408 3.550084 -2.199963
v -4.202408 3.449996 -2.199960
v -4.202408 3.449996 -3.399957
v 4.108665 7.399991 -2.199972
v 4.108665 7.399994 -0.600026
v 4.108665 6.050078 -2.199970
v 4.108665 6.050083 -0.600022
v 4.108665 6.050076 -3.399966
v 4.108665 7.399991 -3.399970
v -4.108665 7.399983 -3.399965
v 4.017354 6.050076 -3.399966
v 4.017354 6.050079 -2.199970
v 4.017354 7.399991 -2.199972
v 4.017354 7.399991 -3.399970
v -4.017354 6.050074 -3.399960
v -4.017354 7.399985 -2.199969
v -4.017354 6.050076 -2.199969
v -4.017355 7.399983 -3.399965
v 4.202415 5.949994 -3.399966
v 4.202415 5.949995 -2.199970
v 4.202415 6.050078 -2.199970
v 4.202415 6.050076 -3.399966
v -4.202415 5.949987 -3.399957
v -4.202415 6.050076 -2.199969
v -4.202415 5.949993 -2.199964
v -4.202415 6.050074 -3.399960
v -3.900007 11.863945 0.073522
v -3.900006 11.863945 -0.073462
v -3.900006 11.899337 0.000030
v -3.900007 11.784420 0.091673
v -3.900007 11.784420 -0.091613
v -0.282777 11.899337 0.000025
v -0.326926 11.863945 0.073518
v -3.900008 11.766593 -0.077396
v -3.900008 11.766592 0.077456
v -3.900007 10.718287 1.440260
v -3.900007 10.639018 1.379289
v -0.086608 12.056592 4.499993
v -0.326926 11.863945 -0.073462
v -0.426125 11.784420 0.091669
v -0.426125 11.784420 -0.091613
v -1.756017 10.718287 1.440258
v -0.448363 11.766593 0.077456
v -0.448362 11.766594 -0.077397
v -4.219000 0.180007 -0.699925
v -4.100000 0.180007 -0.700010
v -4.100000 0.180008 0.700033
v -4.219000 0.180007 0.699946
v -4.341811 0.180006 -0.700003
v -4.341811 0.180007 0.700025
v -4.341811 -0.100955 -0.700001
v -4.341811 -0.100955 0.700024
v -4.218997 0.360963 4.500030
v -4.218997 -0.099037 4.500031
v -4.219001 -0.100953 0.700024
v 4.108669 -0.100949 0.600026
v 1.531255 10.963326 -2.999969
v 2.531254 10.162197 -2.999969
v 2.531254 10.162199 -1.999969
v 1.531255 10.963327 -1.999969
v 2.499993 10.123176 -2.999969
v 2.499993 10.123177 -1.999969
v 1.499993 10.924305 -1.999969
v 1.499993 10.924304 -2.999969
v 1.174993 12.499985 1.200024
v 1.299993 12.499988 1.050024
v 1.299993 12.499988 1.550024
v 1.174993 12.499985 1.400024
v 0.824993 12.499985 1.400024
v 0.699993 12.499988 1.550024
v 0.699993 12.499988 1.050024
v 0.824993 12.499985 1.200024
v -4.219001 -0.100955 -0.700001
v -4.218998 0.360953 -4.500005
v -4.218998 -0.099044 -4.500008
v 0.824993 11.499990 1.200024
v 1.174993 11.499990 1.200024
v 1.174993 11.499990 1.400024
v 0.824993 11.499990 1.400024
v -4.219000 0.359527 -0.699925
v -4.218781 7.399990 -0.600024
v -4.218781 6.050082 -0.600021
v -4.218781 7.399990 0.600036
v -4.218781 5.949995 -0.600021
v -4.218778 5.949996 0.600037
v -4.218778 6.050084 0.600037
v -4.219000 0.359529 0.699946
v -4.218793 8.619372 1.300028
v -4.218794 8.619371 -1.300018
v -4.218792 8.618844 4.500024
v -4.218792 8.499033 4.500024
v -4.218793 8.499027 -4.500019
v -4.100000 0.359571 0.700033
v -3.652140 0.360004 0.699868
v -3.651998 2.549999 0.700023
v -4.127471 3.550086 0.600040
v -4.127471 4.900000 0.600038
v -4.312528 3.450000 0.600040
v -4.312528 3.550086 0.600040
v -4.127471 6.050084 0.600037
v -4.127472 7.399990 0.600036
v -4.312529 5.949996 0.600037
v -4.312529 6.050084 0.600037
v 4.218804 0.100010 0.600025
v 4.218804 -0.100949 0.600026
v 3.888397 2.100004 0.600023
v 3.888400 0.100010 0.600025
v 4.017361 4.899999 0.600027
v 4.017365 3.550085 0.600027
v 4.202418 3.550086 0.600027
v 4.202418 3.450001 0.600027
v 4.017354 7.399998 0.600027
v 4.017358 6.050085 0.600025
v 4.202418 6.050085 0.600025
v 4.202418 5.950000 0.600026
v 0.086619 12.056607 4.499995
v 4.218801 8.621140 4.500021
v 4.218801 8.500952 4.500021
v 4.499990 8.520936 4.500018
v 4.443688 8.440977 4.500038
v -0.066289 12.145688 4.500021
v 0.000003 12.174978 4.500021
v 0.066295 12.145688 4.500022
v -0.093748 12.074979 4.500021
v 0.093754 12.074979 4.500022
v -4.100000 0.359569 -0.700011
v -3.652142 0.360002 -0.699846
v -3.651998 2.549999 -0.700004
v -4.127471 4.899997 -0.600022
v -4.127471 3.550086 -0.600022
v -4.312528 3.550086 -0.600022
v -4.312528 3.449999 -0.600022
v -4.127471 6.050082 -0.600021
v -4.127472 7.399990 -0.600024
v -4.312531 5.949995 -0.600021
v -4.312531 6.050084 -0.600021
v 0.699993 11.565211 1.550024
v 1.299993 11.084538 1.550024
v 0.699993 11.565211 1.050024
v 0.086609 12.056602 -4.499996
v 1.299993 11.084538 1.050024
v 4.499990 8.520928 -4.500020
v 4.218804 -0.100949 -0.600012
v 4.218804 0.100009 -0.600011
v 3.888398 0.100009 -0.600010
v 3.888397 2.100004 -0.600011
v 4.017365 3.550085 -0.600021
v 4.017361 4.899998 -0.600022
v 4.202418 3.449999 -0.600021
v 4.202418 3.550085 -0.600021
v 4.017354 6.050083 -0.600022
v 4.017354 7.399994 -0.600026
v 4.202415 6.050083 -0.600022
v 4.202415 5.949999 -0.600023
v 4.218801 8.500942 -4.500021
v 4.218801 8.621131 -4.500021
v 4.443686 8.440969 -4.500039
v 0.093744 12.074973 -4.500020
v -0.093758 12.074973 -4.500020
v -0.066299 12.145683 -4.500020
v 0.066285 12.145683 -4.500020
v -0.000007 12.174973 -4.500020
vn -1.0000 -0.0000 -0.0000
vn -0.0000 1.0000 -0.0000
vn -0.0000 -0.0000 1.0000
vn -0.0000 -0.0000 -1.0000
vn -0.0000 -1.0000 -0.0000
vn -0.0004 -0.0000 -1.0000
vn -0.0000 -1.0000 -0.0001
vn -0.0005 -1.0000 0.0005
vn -1.0000 -0.0000 0.0003
vn -1.0000 -0.0003 0.0003
vn -1.0000 -0.0000 -0.0003
vn -1.0000 0.0004 -0.0000
vn -0.0005 -0.0000 -1.0000
vn -1.0000 -0.0000 -0.0002
vn -1.0000 0.0008 -0.0000
vn -1.0000 -0.0000 0.0002
vn -0.6255 0.7802 -0.0000
vn -0.0000 -0.7926 0.6097
vn -0.0000 -0.6097 -0.7927
vn -0.0000 -0.6097 -0.7926
vn -0.0002 0.0002 -1.0000
vn -0.0006 0.0005 -1.0000
vn -0.0002 0.0001 -1.0000
vn -0.8175 -0.5760 -0.0000
vn 1.0000 -0.0000 -0.0000
vn -0.0001 1.0000 -0.0000
vn -0.0000 0.0001 1.0000
vn -0.0000 0.9010 0.4339
vn -0.0000 0.2225 0.9749
vn -0.0000 0.2225 -0.9749
vn -0.0002 -1.0000 0.0004
vn -0.0001 -1.0000 0.0001
vn -0.0002 -1.0000 0.0005
vn 0.6252 0.7804 -0.0000
vn 0.7804 -0.6252 -0.0000
vn -0.7804 0.6252 -0.0000
vn -0.0002 -1.0000 -0.0004
vn -0.0001 -1.0000 -0.0001
vn -0.0000 -0.7926 -0.6097
vn -0.0000 -0.6097 0.7927
vn -0.0000 0.7926 0.6097
vn -0.0000 0.7926 -0.6097
vn -1.0000 -0.0001 -0.0000
vn -1.0000 -0.0003 0.0004
vn -1.0000 -0.0002 -0.0000
vn -1.0000 -0.0004 0.0002
vn -1.0000 0.0003 0.0003
vn -1.0000 0.0020 0.0002
vn -1.0000 0.0017 -0.0000
vn -1.0000 -0.0000 0.0001
vn -1.0000 0.0002 0.0002
vn -1.0000 0.0017 -0.0001
vn -1.0000 -0.0002 0.0001
vn 0.0002 -1.0000 0.0002
vn 0.0002 -1.0000 -0.0001
vn -0.0000 1.0000 -0.0005
vn -0.0004 1.0000 -0.0005
vn -0.0004 1.0000 0.0005
vn -0.0000 1.0000 0.0005
vn -0.0005 1.0000 0.0005
vn 0.0007 -0.0000 -1.0000
vn -0.0003 0.0001 -1.0000
vn -0.0004 0.0001 -1.0000
vn 0.0002 0.0001 1.0000
vn 0.0005 0.0002 1.0000
vn 0.0001 0.0002 1.0000
vn -0.0003 0.0003 1.0000
vn -0.0002 0.0002 1.0000
vn -0.0002 0.0001 1.0000
vn -0.0000 -0.0015 1.0000
vn 0.0007 -0.0000 1.0000
vn -0.0010 1.0000 -0.0000
vn -0.0003 0.0001 1.0000
vn 0.0005 0.0002 -1.0000
vn 0.0002 0.0001 -1.0000
vn 0.6262 -0.7796 -0.0000
vn 0.6251 -0.7805 -0.0001
vn 0.6250 -0.7806 0.0004
vn 0.6251 -0.7805 0.0001
vn 0.0001 0.0002 -1.0000
vn 0.9322 -0.3620 -0.0000
vn -0.9322 -0.3620 -0.0000
vn -0.0000 -0.0012 -1.0000
vn -0.0000 -0.0013 -1.0000
vn 0.0003 -0.0000 -1.0000
vn -0.6252 -0.7804 -0.0000
vn 0.9322 0.3620 -0.0000
vn -1.0000 0.0001 -0.0000
vn 0.8176 -0.5757 -0.0000
vn -0.9322 0.3620 -0.0000
vn -0.4041 0.9147 -0.0000
vn 0.4041 0.9147 -0.0000
vn -0.0000 -0.6234 0.7819
vn -0.0000 -0.6235 0.7819
vn -0.0000 -0.6236 -0.7818
vn -0.0000 -0.6235 -0.7818
vn -0.0000 0.9010 -0.4339
vn -0.0002 -0.0002 -1.0000
vn -0.0003 0.0004 -1.0000
vn -0.0002 -1.0000 -0.0005
vn -1.0000 0.0020 -0.0003
vn -0.0000 -1.0000 0.0001
vn 0.0006 0.0003 1.0000
vn -0.0003 0.0004 1.0000
vn -0.0004 0.0001 1.0000
vn 0.0006 0.0003 -1.0000
vt 0.741180 0.132157
vt 0.767038 0.129386
vt 0.719015 0.166326
vt 0.696852 0.132157
vt 0.670994 0.129386
vt 0.767038 0.069532
vt 0.741180 0.078594
vt 0.670994 0.069532
vt 0.696852 0.078594
vt 0.741180 0.082288
vt 0.696852 0.082288
vt 0.618949 0.193198
vt 0.622645 0.148869
vt 0.622643 0.193198
vt 0.618946 0.287399
vt 0.622645 0.337261
vt 0.618950 0.337261
vt 0.810334 0.290157
vt 0.814027 0.286463
vt 0.814027 0.290157
vt 0.806640 0.334484
vt 0.810334 0.334484
vt 0.814027 0.334484
vt 0.817721 0.290157
vt 0.817721 0.334484
vt 0.810333 0.338178
vt 0.814027 0.338178
vt 0.021125 0.233406
vt 0.065453 0.283274
vt 0.021125 0.283274
vt 0.622641 0.243070
vt 0.622639 0.287397
vt 0.618946 0.243070
vt 0.085108 0.018383
vt 0.199621 0.025743
vt 0.085108 0.025737
vt 0.196701 0.057942
vt 0.192625 0.050587
vt 0.196699 0.050587
vt 0.089183 0.057945
vt 0.089182 0.050590
vt 0.085106 0.057945
vt 0.085106 0.050588
vt 0.199622 0.034486
vt 0.085108 0.041841
vt 0.085108 0.034486
vt 0.199621 0.014682
vt 0.199621 0.018377
vt 0.196317 0.046892
vt 0.203315 0.025743
vt 0.203315 0.018377
vt 0.199621 0.029436
vt 0.081413 0.029431
vt 0.188929 0.046892
vt 0.196318 0.061635
vt 0.192625 0.057942
vt 0.188930 0.061637
vt 0.092876 0.061638
vt 0.085491 0.046894
vt 0.085108 0.030793
vt 0.203314 0.030793
vt 0.085490 0.061638
vt 0.199622 0.041841
vt 0.085108 0.045536
vt 0.081413 0.034486
vt 0.831921 0.449480
vt 0.865167 0.523373
vt 0.831925 0.656334
vt 0.909495 0.523372
vt 0.950128 0.449480
vt 0.950132 0.656319
vt 0.865167 0.473508
vt 0.909494 0.473506
vt 0.909494 0.469809
vt 0.865166 0.469810
vt 0.581632 0.395972
vt 0.278076 0.189092
vt 0.581606 0.078226
vt 0.694483 0.523378
vt 0.727725 0.449482
vt 0.727731 0.656335
vt 0.609517 0.449483
vt 0.650156 0.523379
vt 0.609524 0.656327
vt 0.694482 0.473513
vt 0.650154 0.473514
vt 0.650154 0.469816
vt 0.694482 0.469814
vt 0.581621 0.651743
vt 0.278054 0.858641
vt 0.278077 0.540883
vt 0.827844 0.449480
vt 0.731801 0.449482
vt 0.757659 0.523376
vt 0.731806 0.656336
vt 0.801989 0.523375
vt 0.827850 0.656334
vt 0.757657 0.473510
vt 0.801987 0.473509
vt 0.801987 0.469812
vt 0.757657 0.469813
vt 0.727721 0.435919
vt 0.694479 0.424818
vt 0.727725 0.349441
vt 0.650151 0.424816
vt 0.609517 0.435912
vt 0.609520 0.349495
vt 0.753960 0.430361
vt 0.731798 0.435920
vt 0.731801 0.349439
vt 0.827840 0.435924
vt 0.805675 0.430362
vt 0.827840 0.349441
vt 0.831917 0.349442
vt 0.865161 0.424822
vt 0.831917 0.435924
vt 0.909490 0.424822
vt 0.950123 0.435914
vt 0.950123 0.349500
vt 0.070898 0.766727
vt 0.070908 0.862770
vt 0.037780 0.980981
vt 0.644508 0.264736
vt 0.640393 0.192906
vt 0.644066 0.189192
vt 0.651410 0.181760
vt 0.712733 0.185100
vt 0.647739 0.185476
vt 0.647760 0.189170
vt 0.162988 0.763790
vt 0.166589 0.766718
vt 0.037747 0.648524
vt 0.162999 0.865688
vt 0.167681 0.867940
vt 0.166599 0.862760
vt 0.246728 0.980960
vt 0.596306 0.859125
vt 0.585675 0.863019
vt 0.594225 0.856172
vt 0.034141 0.648524
vt 0.034174 0.980981
vt 0.596333 0.129386
vt 0.841699 0.129386
vt 0.753927 0.753552
vt 0.694825 0.714769
vt 0.753927 0.679673
vt 0.753927 0.803420
vt 0.694825 0.764634
vt 0.694824 0.803420
vt 0.909495 0.562158
vt 0.909495 0.565855
vt 0.865169 0.562159
vt 0.909490 0.371258
vt 0.865161 0.371258
vt 0.909490 0.374956
vt 0.650496 0.711152
vt 0.650496 0.714769
vt 0.609862 0.672250
vt 0.826156 0.334716
vt 0.822539 0.338178
vt 0.822539 0.334716
vt 0.822539 0.290389
vt 0.819077 0.334716
vt 0.819077 0.290389
vt 0.826156 0.290389
vt 0.826156 0.286925
vt 0.822539 0.286925
vt 0.906289 0.282107
vt 0.902590 0.237780
vt 0.906289 0.237780
vt 0.902591 0.285569
vt 0.906289 0.285569
vt 0.909751 0.237780
vt 0.906289 0.234316
vt 0.650496 0.764634
vt 0.650496 0.803420
vt 0.904873 0.196118
vt 0.954735 0.192735
vt 0.954735 0.196108
vt 0.860545 0.192742
vt 0.860545 0.196115
vt 0.202505 0.283274
vt 0.158177 0.233409
vt 0.202505 0.233409
vt 0.810677 0.196108
vt 0.810677 0.192735
vt 0.065453 0.079744
vt 0.021125 0.129608
vt 0.021125 0.079744
vt 0.904870 0.172431
vt 0.954735 0.169058
vt 0.954735 0.172431
vt 0.860543 0.169058
vt 0.810677 0.172439
vt 0.810677 0.169066
vt 0.904870 0.169058
vt 0.829621 0.334716
vt 0.829621 0.290389
vt 0.832993 0.290389
vt 0.832993 0.334716
vt 0.902590 0.282107
vt 0.899128 0.237780
vt 0.895755 0.282107
vt 0.899128 0.282107
vt 0.694824 0.895769
vt 0.694824 0.856983
vt 0.753927 0.856983
vt 0.694824 0.807117
vt 0.753927 0.807117
vt 0.753927 0.895769
vt 0.650496 0.856983
vt 0.650496 0.895769
vt 0.609862 0.990000
vt 0.650496 0.807118
vt 0.904870 0.158234
vt 0.954735 0.154863
vt 0.954735 0.158236
vt 0.156820 0.232049
vt 0.112492 0.182185
vt 0.156820 0.182185
vt 0.860542 0.154861
vt 0.810677 0.158236
vt 0.810677 0.154863
vt 0.860542 0.158234
vt 0.112491 0.079744
vt 0.156817 0.129608
vt 0.112491 0.129608
vt 0.904863 0.162969
vt 0.954735 0.159591
vt 0.954735 0.162964
vt 0.860532 0.159599
vt 0.904863 0.159597
vt 0.810677 0.159591
vt 0.860532 0.162972
vt 0.810677 0.162962
vt 0.929922 0.237779
vt 0.926458 0.282107
vt 0.926458 0.237779
vt 0.933618 0.282107
vt 0.929921 0.285569
vt 0.929921 0.282107
vt 0.933618 0.237779
vt 0.933618 0.234316
vt 0.929922 0.234316
vt 0.936990 0.334716
vt 0.933293 0.290389
vt 0.936990 0.290388
vt 0.940454 0.290388
vt 0.936990 0.286925
vt 0.933293 0.338178
vt 0.936990 0.338178
vt 0.937082 0.237779
vt 0.937082 0.282107
vt 0.940454 0.237779
vt 0.940454 0.282107
vt 0.929830 0.334716
vt 0.933293 0.334716
vt 0.926458 0.334716
vt 0.929830 0.290389
vt 0.694825 0.949332
vt 0.753927 0.949332
vt 0.753927 0.899466
vt 0.694824 0.899466
vt 0.650496 0.899466
vt 0.650496 0.949332
vt 0.909496 0.615721
vt 0.865170 0.615721
vt 0.066810 0.232049
vt 0.111137 0.182185
vt 0.111137 0.232049
vt 0.904869 0.167703
vt 0.860541 0.164328
vt 0.904869 0.164329
vt 0.954735 0.164329
vt 0.954735 0.167703
vt 0.810677 0.164329
vt 0.860541 0.167701
vt 0.810677 0.167703
vt 0.066808 0.079744
vt 0.111136 0.129608
vt 0.066808 0.129608
vt 0.904869 0.186633
vt 0.954735 0.183257
vt 0.954735 0.186630
vt 0.860541 0.183263
vt 0.904869 0.183260
vt 0.810677 0.186635
vt 0.810677 0.183263
vt 0.856859 0.290388
vt 0.853162 0.334714
vt 0.853162 0.290388
vt 0.856859 0.334714
vt 0.853162 0.338178
vt 0.849700 0.334714
vt 0.849700 0.290388
vt 0.856859 0.286924
vt 0.853162 0.286924
vt 0.890935 0.282105
vt 0.887239 0.237777
vt 0.890935 0.237777
vt 0.894399 0.237777
vt 0.890935 0.234314
vt 0.887239 0.285568
vt 0.890935 0.285568
vt 0.860323 0.290388
vt 0.860323 0.334714
vt 0.883776 0.282105
vt 0.887239 0.282105
vt 0.863696 0.290388
vt 0.863696 0.334714
vt 0.880403 0.282105
vt 0.883776 0.237777
vt 0.694484 0.565861
vt 0.694484 0.562163
vt 0.694485 0.615725
vt 0.694480 0.374953
vt 0.694482 0.371256
vt 0.942322 0.672250
vt 0.857358 0.711152
vt 0.798257 0.672250
vt 0.798257 0.679673
vt 0.857358 0.714769
vt 0.798257 0.753552
vt 0.857358 0.764634
vt 0.798257 0.803420
vt 0.857358 0.803420
vt 0.650157 0.562165
vt 0.650157 0.565862
vt 0.650154 0.371254
vt 0.650154 0.374952
vt 0.901686 0.714769
vt 0.901686 0.711152
vt 0.826156 0.234315
vt 0.822539 0.237778
vt 0.822541 0.234315
vt 0.819077 0.237778
vt 0.822539 0.282106
vt 0.819077 0.282106
vt 0.826156 0.237778
vt 0.826158 0.285569
vt 0.822539 0.285569
vt 0.921640 0.237776
vt 0.917942 0.282103
vt 0.917942 0.237776
vt 0.921640 0.234313
vt 0.925102 0.237776
vt 0.921640 0.282103
vt 0.917942 0.285567
vt 0.921640 0.285567
vt 0.901686 0.803420
vt 0.901686 0.764634
vt 0.860539 0.150125
vt 0.810678 0.153505
vt 0.810678 0.150132
vt 0.904867 0.153502
vt 0.860541 0.153498
vt 0.158174 0.129608
vt 0.202500 0.079744
vt 0.202500 0.129608
vt 0.954735 0.150132
vt 0.954735 0.153505
vt 0.158177 0.182185
vt 0.202504 0.232049
vt 0.158177 0.232049
vt 0.954735 0.148770
vt 0.904870 0.145396
vt 0.954735 0.145397
vt 0.810678 0.145397
vt 0.860543 0.148769
vt 0.810678 0.148770
vt 0.860543 0.145396
vt 0.904870 0.148769
vt 0.826156 0.282106
vt 0.829621 0.237778
vt 0.829621 0.282106
vt 0.832993 0.237778
vt 0.832993 0.282106
vt 0.914480 0.282103
vt 0.911107 0.237776
vt 0.914480 0.237776
vt 0.857358 0.856983
vt 0.857358 0.895769
vt 0.798257 0.856983
vt 0.857358 0.807117
vt 0.798257 0.807117
vt 0.798257 0.895769
vt 0.901686 0.895769
vt 0.901686 0.856983
vt 0.942322 0.990000
vt 0.901686 0.807118
vt 0.904871 0.200861
vt 0.954733 0.197473
vt 0.954735 0.200846
vt 0.158179 0.180829
vt 0.202507 0.130964
vt 0.202507 0.180829
vt 0.810677 0.197497
vt 0.860545 0.200870
vt 0.810677 0.200870
vt 0.860543 0.197497
vt 0.904870 0.197488
vt 0.066811 0.130964
vt 0.111138 0.180829
vt 0.066811 0.180829
vt 0.954735 0.177170
vt 0.904866 0.173794
vt 0.954735 0.173797
vt 0.860539 0.173794
vt 0.904866 0.177167
vt 0.860539 0.177167
vt 0.810677 0.177170
vt 0.810677 0.173797
vt 0.868514 0.237778
vt 0.865052 0.282106
vt 0.865052 0.237778
vt 0.872211 0.234315
vt 0.868514 0.234315
vt 0.872212 0.282106
vt 0.872211 0.237778
vt 0.868515 0.285569
vt 0.868514 0.282106
vt 0.906287 0.290388
vt 0.902590 0.334716
vt 0.902590 0.290388
vt 0.909751 0.290388
vt 0.906287 0.334716
vt 0.902590 0.338178
vt 0.906287 0.338178
vt 0.906287 0.286925
vt 0.875675 0.282106
vt 0.875675 0.237778
vt 0.879048 0.282106
vt 0.879048 0.237778
vt 0.899128 0.334716
vt 0.895755 0.334716
vt 0.899128 0.290388
vt 0.798257 0.949332
vt 0.857358 0.949332
vt 0.798257 0.899466
vt 0.857358 0.899466
vt 0.901686 0.949332
vt 0.901686 0.899466
vt 0.650158 0.615726
vt 0.021125 0.232049
vt 0.065453 0.182185
vt 0.065454 0.232049
vt 0.860548 0.188006
vt 0.904874 0.191373
vt 0.860548 0.191379
vt 0.954735 0.191364
vt 0.904873 0.188000
vt 0.954735 0.187991
vt 0.810677 0.191366
vt 0.810678 0.187991
vt 0.066808 0.233409
vt 0.111136 0.283274
vt 0.066808 0.283274
vt 0.904869 0.181899
vt 0.954735 0.178529
vt 0.954735 0.181902
vt 0.860542 0.178528
vt 0.860542 0.181901
vt 0.810677 0.181902
vt 0.810677 0.178529
vt 0.887562 0.290388
vt 0.883866 0.334714
vt 0.883866 0.290388
vt 0.887562 0.286924
vt 0.883866 0.286924
vt 0.880403 0.290388
vt 0.880403 0.334714
vt 0.887562 0.334714
vt 0.883866 0.338178
vt 0.875586 0.290388
vt 0.871887 0.334714
vt 0.871887 0.290388
vt 0.879048 0.290388
vt 0.875583 0.334716
vt 0.871887 0.338178
vt 0.875583 0.338178
vt 0.875586 0.286925
vt 0.891026 0.290388
vt 0.891026 0.334714
vt 0.868425 0.334714
vt 0.894399 0.290388
vt 0.894399 0.334714
vt 0.865052 0.334714
vt 0.868425 0.290388
vt 0.544622 0.486231
vt 0.541608 0.486231
vt 0.546501 0.483874
vt 0.545830 0.480937
vt 0.539731 0.483874
vt 0.974260 0.744973
vt 0.971248 0.612982
vt 0.974262 0.612982
vt 0.539918 0.483053
vt 0.787491 0.185476
vt 0.723959 0.188799
vt 0.723213 0.185100
vt 0.541427 0.479596
vt 0.545071 0.480572
vt 0.711271 0.188799
vt 0.237424 0.814731
vt 0.246695 0.648502
vt 0.235334 0.812016
vt 0.235334 0.817446
vt 0.230637 0.811347
vt 0.230638 0.818117
vt 0.167670 0.761537
vt 0.229584 0.811871
vt 0.229584 0.817593
vt 0.977274 0.741308
vt 0.977275 0.612982
vt 0.968234 0.612982
vt 0.965220 0.741308
vt 0.965222 0.612982
vt 0.319569 0.949260
vt 0.267854 0.953656
vt 0.267857 0.949260
vt 0.267854 0.944723
vt 0.319572 0.944723
vt 0.267854 0.934346
vt 0.967114 0.016992
vt 0.848916 0.033985
vt 0.826744 0.016992
vt 0.826746 0.027371
vt 0.893138 0.051378
vt 0.858045 0.128284
vt 0.858045 0.051378
vt 0.254431 0.281635
vt 0.217491 0.234303
vt 0.254431 0.234303
vt 0.217491 0.283483
vt 0.217491 0.281635
vt 0.256278 0.234303
vt 0.256278 0.281635
vt 0.215645 0.234303
vt 0.215645 0.281635
vt 0.254431 0.232457
vt 0.217491 0.232457
vt 0.444360 0.062286
vt 0.457287 0.066904
vt 0.449900 0.066904
vt 0.426813 0.067827
vt 0.422196 0.062286
vt 0.416654 0.066904
vt 0.403726 0.062286
vt 0.399109 0.067827
vt 0.381562 0.062286
vt 0.362888 0.015268
vt 0.362886 0.025646
vt 0.340716 0.032259
vt 0.222516 0.015267
vt 0.222509 0.032259
vt 0.906067 0.051378
vt 0.941160 0.128284
vt 0.905144 0.128284
vt 0.281810 0.488600
vt 0.294740 0.481212
vt 0.294740 0.488600
vt 0.315056 0.525539
vt 0.302127 0.488600
vt 0.315056 0.488600
vt 0.274422 0.525539
vt 0.274422 0.488600
vt 0.294739 0.525539
vt 0.302127 0.525539
vt 0.865161 0.374956
vt 0.794837 0.192908
vt 0.790722 0.264736
vt 0.791164 0.189192
vt 0.783819 0.181760
vt 0.787470 0.189170
vt 0.787006 0.268366
vt 0.723213 0.316298
vt 0.648223 0.268366
vt 0.865169 0.565857
vt 0.753966 0.349447
vt 0.757660 0.565859
vt 0.757661 0.615724
vt 0.801992 0.615724
vt 0.757660 0.562162
vt 0.801989 0.562161
vt 0.801989 0.565858
vt 0.805673 0.349447
vt 0.692064 0.046597
vt 0.596021 0.042168
vt 0.692066 0.042164
vt 0.596021 0.046601
vt 0.477820 0.042184
vt 0.596021 0.050677
vt 0.477820 0.046610
vt 0.810278 0.046610
vt 0.810278 0.042184
vt 0.692066 0.050672
vt 0.826749 0.034002
vt 0.967121 0.033985
vt 0.848916 0.038059
vt 0.362882 0.032278
vt 0.340715 0.036336
vt 0.976824 0.769821
vt 0.972427 0.763190
vt 0.976824 0.763190
vt 0.972427 0.769823
vt 0.955878 0.850736
vt 0.955884 0.769838
vt 0.976827 0.850736
vt 0.810674 0.211689
vt 0.860539 0.215059
vt 0.810674 0.215061
vt 0.841184 0.285567
vt 0.844880 0.282103
vt 0.844880 0.285567
vt 0.954735 0.205599
vt 0.904870 0.202226
vt 0.954735 0.202226
vt 0.841184 0.338178
vt 0.844880 0.334716
vt 0.844880 0.338178
vt 0.324107 0.934346
vt 0.319572 0.934346
vt 0.278068 0.095312
vt 0.273825 0.078312
vt 0.520081 0.965334
vt 0.516013 0.957911
vt 0.520081 0.957911
vt 0.597253 0.337261
vt 0.605390 0.263383
vt 0.605388 0.337261
vt 0.904870 0.210329
vt 0.954735 0.206957
vt 0.954735 0.210331
vt 0.856859 0.282105
vt 0.853162 0.285568
vt 0.853162 0.282105
vt 0.954735 0.219791
vt 0.904871 0.216417
vt 0.954735 0.216417
vt 0.918266 0.334714
vt 0.914569 0.338178
vt 0.914569 0.334714
vt 0.426673 0.527325
vt 0.278091 0.395926
vt 0.585701 0.400410
vt 0.585701 0.395971
vt 0.595986 0.396786
vt 0.593908 0.393834
vt 0.274023 0.400351
vt 0.263617 0.396631
vt 0.265695 0.393682
vt 0.540813 0.505700
vt 0.539731 0.503252
vt 0.540813 0.500802
vt 0.543423 0.499787
vt 0.543425 0.506714
vt 0.544102 0.506449
vt 0.544102 0.500051
vt 0.274023 0.395926
vt 0.319572 0.960289
vt 0.267854 0.960289
vt 0.972428 0.990000
vt 0.976824 0.983368
vt 0.976824 0.990000
vt 0.267860 0.976833
vt 0.972428 0.983366
vt 0.955878 0.902453
vt 0.976827 0.902453
vt 0.904869 0.215059
vt 0.954735 0.211689
vt 0.954735 0.215061
vt 0.860539 0.211686
vt 0.904869 0.211686
vt 0.841184 0.237774
vt 0.844880 0.237774
vt 0.848345 0.237774
vt 0.844880 0.234310
vt 0.021219 0.028431
vt 0.065547 0.078297
vt 0.021219 0.078297
vt 0.860541 0.202227
vt 0.904870 0.205599
vt 0.860541 0.205600
vt 0.810675 0.205600
vt 0.810675 0.202227
vt 0.848345 0.290385
vt 0.844880 0.290385
vt 0.841184 0.286923
vt 0.844880 0.286923
vt 0.841184 0.290385
vt 0.837721 0.282103
vt 0.841184 0.282103
vt 0.156823 0.130964
vt 0.112494 0.180829
vt 0.112494 0.130964
vt 0.834348 0.282103
vt 0.837721 0.237774
vt 0.841184 0.334716
vt 0.837721 0.290385
vt 0.837721 0.334716
vt 0.834348 0.290385
vt 0.263319 0.934346
vt 0.023506 0.862780
vt 0.023496 0.766733
vt 0.023496 0.648524
vt 0.023530 0.980983
vt 0.585421 0.540992
vt 0.581628 0.557968
vt 0.893138 0.050245
vt 0.906067 0.050245
vt 0.080929 0.411459
vt 0.052530 0.411459
vt 0.023498 0.302487
vt 0.052530 0.429929
vt 0.232391 0.302487
vt 0.023496 0.634945
vt 0.080929 0.429929
vt 0.090394 0.542594
vt 0.137727 0.542594
vt 0.090394 0.579534
vt 0.232390 0.634946
vt 0.137727 0.579534
vt 0.894062 0.129301
vt 0.894062 0.128284
vt 0.564411 0.965334
vt 0.564411 0.957911
vt 0.568479 0.965334
vt 0.568479 0.957911
vt 0.605390 0.219055
vt 0.597253 0.145173
vt 0.605390 0.145173
vt 0.564411 0.977538
vt 0.520081 0.969403
vt 0.564411 0.969402
vt 0.217623 0.131998
vt 0.261953 0.058119
vt 0.261953 0.131998
vt 0.860541 0.206955
vt 0.810675 0.210331
vt 0.810675 0.206957
vt 0.860541 0.210329
vt 0.853162 0.237775
vt 0.856859 0.237775
vt 0.849700 0.282105
vt 0.849700 0.237775
vt 0.856859 0.234312
vt 0.853162 0.234312
vt 0.860323 0.237775
vt 0.860323 0.282105
vt 0.065456 0.180829
vt 0.021125 0.130964
vt 0.065456 0.130964
vt 0.860542 0.216417
vt 0.904871 0.219791
vt 0.860542 0.219791
vt 0.810674 0.219791
vt 0.810674 0.216417
vt 0.918266 0.290387
vt 0.914569 0.290385
vt 0.911107 0.334714
vt 0.911107 0.290385
vt 0.918266 0.286923
vt 0.914569 0.286923
vt 0.921730 0.334714
vt 0.921730 0.290385
vt 0.433020 0.990000
vt 0.581606 0.858592
vt 0.273985 0.863079
vt 0.273985 0.858640
vt 0.810272 0.024167
vt 0.477820 0.020099
vt 0.810272 0.020099
vt 0.263617 0.859393
vt 0.265696 0.856440
vt 0.477820 0.028606
vt 0.810272 0.028606
vt 0.967186 0.256442
vt 0.966460 0.588930
vt 0.966460 0.256443
vt 0.978145 0.256442
vt 0.978873 0.588930
vt 0.978145 0.588932
vt 0.562032 0.503252
vt 0.560950 0.505700
vt 0.560950 0.500802
vt 0.558337 0.506714
vt 0.558339 0.499787
vt 0.557660 0.506449
vt 0.557660 0.500051
vt 0.585675 0.858592
vt 0.694825 0.711152
vt 0.753927 0.672250
vt 0.236003 0.634946
vt 0.246646 0.302487
vt 0.246648 0.634945
vt 0.969989 0.588932
vt 0.969989 0.256442
vt 0.156821 0.283274
vt 0.112491 0.233409
vt 0.156821 0.233409
vt 0.214956 0.141462
vt 0.266667 0.222360
vt 0.214950 0.222360
vt 0.597253 0.219055
vt 0.597253 0.263383
vt 0.863696 0.237775
vt 0.863696 0.282105
vt 0.925102 0.334714
vt 0.925102 0.290385
vt 0.236003 0.302486
vt 0.975344 0.256442
vt 0.975344 0.588932
vt 0.972666 0.256442
vt 0.972666 0.588932
vt 0.403726 0.027756
vt 0.381562 0.010000
vt 0.462830 0.010000
vt 0.462830 0.062286
vt 0.422196 0.027756
vt 0.444360 0.010000
vt 0.978116 0.740486
vt 0.978117 0.612982
vt 0.964378 0.740488
vt 0.964378 0.612982
vt 0.968234 0.744973
vt 0.278074 0.181725
vt 0.581621 0.644388
vt 0.618950 0.148869
vt 0.810334 0.286463
vt 0.806640 0.290157
vt 0.065453 0.233406
vt 0.081413 0.014689
vt 0.200394 0.046891
vt 0.092874 0.046895
vt 0.200395 0.061635
vt 0.081415 0.046892
vt 0.081413 0.061639
vt 0.203314 0.045536
vt 0.081413 0.041841
vt 0.640830 0.267567
vt 0.712755 0.181406
vt 0.826156 0.338178
vt 0.909751 0.282107
vt 0.902590 0.234316
vt 0.904873 0.192744
vt 0.158177 0.283274
vt 0.065453 0.129608
vt 0.860543 0.172431
vt 0.895755 0.237780
vt 0.904870 0.154863
vt 0.112492 0.232049
vt 0.156817 0.079744
vt 0.933617 0.285569
vt 0.940454 0.334716
vt 0.933293 0.286925
vt 0.926458 0.290389
vt 0.066810 0.182185
vt 0.111136 0.079744
vt 0.860541 0.186635
vt 0.856859 0.338178
vt 0.894399 0.282105
vt 0.887239 0.234314
vt 0.880403 0.237777
vt 0.917942 0.234313
vt 0.925102 0.282103
vt 0.904867 0.150129
vt 0.158174 0.079744
vt 0.202504 0.182185
vt 0.911107 0.282103
vt 0.158179 0.130964
vt 0.111138 0.130964
vt 0.872212 0.285569
vt 0.909751 0.334716
vt 0.902590 0.286925
vt 0.895755 0.290388
vt 0.021125 0.182185
vt 0.111136 0.233409
vt 0.904869 0.178526
vt 0.887562 0.338178
vt 0.879048 0.334716
vt 0.871887 0.286925
vt 0.865052 0.290388
vt 0.971248 0.746603
vt 0.319572 0.953656
vt 0.254431 0.283483
vt 0.439742 0.067827
vt 0.409267 0.066904
vt 0.386179 0.067827
vt 0.941160 0.051378
vt 0.281810 0.481212
vt 0.281810 0.525539
vt 0.794400 0.267567
vt 0.723235 0.181406
vt 0.712017 0.316299
vt 0.477820 0.050679
vt 0.810278 0.050679
vt 0.967121 0.038061
vt 0.222509 0.036336
vt 0.324107 0.944723
vt 0.273825 0.095312
vt 0.516013 0.965334
vt 0.904870 0.206955
vt 0.856859 0.285568
vt 0.918266 0.338178
vt 0.433072 0.527325
vt 0.319566 0.976833
vt 0.955884 0.983351
vt 0.848345 0.282103
vt 0.841184 0.234310
vt 0.065547 0.028431
vt 0.848345 0.334716
vt 0.156823 0.180829
vt 0.834348 0.237774
vt 0.834348 0.334716
vt 0.263319 0.944723
vt 0.585418 0.557968
vt 0.905144 0.129301
vt 0.520081 0.977538
vt 0.217623 0.058119
vt 0.021125 0.180829
vt 0.426620 0.990000
vt 0.477820 0.024167
vt 0.967186 0.588932
vt 0.978875 0.256443
vt 0.112491 0.283274
vt 0.266662 0.141462
s 1
usemtl apartmenthouseE
f 1/1/1 3/2/1 2/3/1
f 1/1/1 2/3/1 4/4/1
f 5/5/1 4/4/1 2/3/1
f 8/6/1 7/7/1 6/8/1
f 9/9/1 6/8/1 7/7/1
f 10/10/1 7/7/1 8/6/1
f 9/9/1 11/11/1 6/8/1
f 12/12/2 11/13/2 10/14/2
f 14/15/3 11/16/3 13/17/3
f 15/18/4 9/19/4 16/20/4
f 10/21/2 15/18/2 17/22/2
f 18/23/5 9/24/5 7/25/5
f 10/26/3 18/23/3 7/27/3
f 11/11/1 5/5/1 6/8/1
f 10/10/1 3/2/1 1/1/1
f 13/28/1 19/29/1 14/30/1
f 1/31/4 12/12/4 10/14/4
f 4/32/5 19/33/5 1/31/5
f 18/23/1 15/18/1 16/20/1
f 23/34/1 21/35/1 20/36/1
f 20/37/3 24/38/3 23/39/3
f 24/38/1 26/40/1 27/41/1
f 27/41/6 28/42/6 29/43/6
f 29/44/1 30/45/1 31/46/1
f 23/34/7 32/47/7 22/48/7
f 34/49/5 23/39/5 24/38/5
f 35/50/3 22/48/3 32/51/3
f 20/36/2 35/52/2 36/53/2
f 27/41/5 34/54/5 24/38/5
f 20/37/2 38/55/2 25/56/2
f 26/40/2 38/57/2 39/58/2
f 29/43/8 37/59/8 27/41/8
f 29/44/5 41/60/5 40/61/5
f 39/62/2 28/42/2 26/40/2
f 28/63/2 43/64/2 30/45/2
f 30/45/4 41/65/4 31/46/4
f 36/66/1 45/67/1 44/68/1
f 47/69/1 35/70/1 46/71/1
f 36/66/1 48/72/1 45/67/1
f 49/73/1 35/70/1 47/69/1
f 50/74/1 36/66/1 35/70/1
f 49/73/1 50/74/1 35/70/1
f 51/75/1 36/66/1 50/74/1
f 51/75/1 48/72/1 36/66/1
f 52/76/3 35/77/3 53/78/3
f 55/79/1 42/80/1 54/81/1
f 43/82/1 57/83/1 56/84/1
f 58/85/1 42/80/1 55/79/1
f 43/82/1 59/86/1 57/83/1
f 60/87/1 59/86/1 43/82/1
f 42/80/1 60/87/1 43/82/1
f 42/80/1 61/88/1 60/87/1
f 58/85/1 61/88/1 42/80/1
f 43/89/4 62/90/4 63/91/4
f 44/68/3 38/92/3 36/66/3
f 39/93/9 66/94/9 65/95/10
f 67/96/11 38/92/11 64/97/11
f 39/93/9 68/98/9 66/94/9
f 69/99/11 38/92/11 67/96/11
f 70/100/12 39/93/12 38/92/12
f 69/99/11 70/100/11 38/92/11
f 71/101/12 39/93/12 70/100/12
f 71/101/9 68/98/9 39/93/9
f 39/93/6 54/81/13 42/80/6
f 40/102/1 73/103/1 72/104/1
f 74/105/1 73/103/1 40/102/1
f 41/106/1 74/105/1 40/102/1
f 74/105/1 41/106/1 75/107/1
f 77/108/14 37/109/14 76/110/14
f 77/108/15 34/111/15 37/109/15
f 34/111/16 78/112/16 79/113/16
f 76/110/6 40/102/6 72/104/6
f 80/114/3 34/111/3 79/113/3
f 81/115/1 33/116/1 80/114/1
f 82/117/1 32/118/1 33/116/1
f 82/117/1 33/116/1 81/115/1
f 32/118/1 82/117/1 83/119/1
f 8/120/17 6/121/17 84/122/17
f 86/123/18 5/124/18 87/125/18
f 5/126/18 88/127/18 87/128/18
f 90/129/19 86/123/20 87/125/19
f 8/120/17 92/130/17 91/131/17
f 92/130/17 8/120/17 93/132/17
f 8/120/17 84/122/17 93/132/17
f 86/133/17 84/122/17 6/121/17
f 86/133/17 89/134/17 84/122/17
f 86/133/17 6/121/17 85/135/17
f 84/122/17 89/134/17 94/136/17
f 84/137/21 95/138/22 96/139/23
f 97/140/24 84/122/24 96/141/24
f 6/8/4 5/5/4 85/142/4
f 91/143/3 3/2/3 8/6/3
f 101/144/25 99/145/25 98/146/25
f 101/144/25 102/147/25 100/148/25
f 103/149/25 100/148/25 102/147/25
f 104/150/1 47/69/1 46/71/1
f 105/151/1 104/150/1 46/71/1
f 47/69/1 104/150/1 45/67/1
f 106/152/1 45/67/1 104/150/1
f 108/153/1 107/154/1 83/119/1
f 109/155/1 108/153/1 83/119/1
f 111/156/25 110/157/25 53/158/25
f 112/159/3 111/160/3 113/161/3
f 114/162/5 111/163/5 115/164/5
f 116/165/25 113/161/25 114/162/25
f 99/166/4 114/162/4 115/167/4
f 119/168/1 117/169/1 120/170/1
f 109/171/3 119/168/3 108/172/3
f 107/173/5 119/168/5 120/170/5
f 117/169/4 107/174/4 120/170/4
f 123/175/25 122/176/25 53/158/25
f 122/176/25 123/175/25 103/149/25
f 100/148/25 103/149/25 123/175/25
f 109/155/1 83/119/1 82/117/1
f 110/157/25 123/175/25 53/158/25
f 124/177/4 110/178/4 125/179/4
f 100/180/5 124/177/5 126/181/5
f 126/182/25 125/183/25 127/184/25
f 100/180/3 127/185/3 99/186/3
f 130/187/1 128/188/1 131/189/1
f 128/190/3 121/191/3 131/192/3
f 82/193/4 130/194/4 109/195/4
f 128/190/5 82/193/5 81/196/5
f 110/197/2 116/165/2 99/198/2
f 110/197/2 127/199/2 125/200/2
f 118/201/2 121/202/2 117/169/2
f 130/203/26 121/202/2 109/204/26
f 134/205/25 133/206/25 132/207/25
f 133/206/25 135/208/25 132/207/25
f 136/209/25 132/207/25 135/208/25
f 135/208/25 103/149/25 102/147/25
f 102/147/25 136/209/25 135/208/25
f 132/207/25 137/210/25 134/205/25
f 139/211/25 138/212/25 52/213/25
f 133/206/25 134/205/25 138/212/25
f 138/212/25 139/211/25 133/206/25
f 140/214/25 139/211/25 52/213/25
f 141/215/4 140/216/4 142/217/4
f 144/218/25 142/219/25 143/220/25
f 133/221/3 143/222/3 135/223/3
f 133/221/5 141/215/5 144/224/5
f 145/225/1 146/226/1 148/227/1
f 148/228/3 48/229/3 145/230/3
f 148/228/5 47/231/5 45/232/5
f 49/233/4 146/234/4 147/235/4
f 122/176/25 140/214/25 53/158/25
f 150/236/5 122/237/5 103/238/5
f 151/239/3 122/240/3 149/241/3
f 152/242/25 149/241/25 150/236/25
f 135/243/4 150/236/4 103/244/4
f 155/245/1 153/246/1 156/247/1
f 51/248/5 155/245/5 156/247/5
f 153/246/4 51/249/4 156/247/4
f 49/250/3 155/245/3 50/251/3
f 53/158/25 140/214/25 52/213/25
f 151/239/2 135/252/2 140/253/2
f 140/253/2 143/254/2 142/255/2
f 49/256/2 153/246/2 154/257/2
f 147/258/2 48/259/2 49/256/2
f 158/260/25 157/261/25 52/213/25
f 160/262/25 157/261/25 159/263/25
f 158/260/25 159/263/25 157/261/25
f 159/263/25 134/205/25 160/262/25
f 137/210/25 160/262/25 134/205/25
f 162/264/25 161/265/25 52/213/25
f 161/265/25 158/260/25 52/213/25
f 163/266/1 105/151/1 46/71/1
f 164/267/1 163/266/1 46/71/1
f 167/268/25 165/269/25 168/270/25
f 158/271/5 167/272/5 168/273/5
f 158/271/3 165/274/3 159/275/3
f 166/276/4 161/277/4 162/278/4
f 169/279/1 170/280/1 172/281/1
f 172/282/3 173/283/3 169/284/3
f 172/282/5 163/285/5 164/286/5
f 163/285/4 171/287/4 105/288/4
f 138/212/25 162/264/25 52/213/25
f 177/289/25 175/290/25 174/291/25
f 176/292/3 138/293/3 175/290/3
f 174/291/5 138/294/5 134/295/5
f 159/296/4 174/291/4 134/297/4
f 180/298/1 178/299/1 181/300/1
f 106/301/5 180/298/5 181/300/5
f 178/299/4 106/302/4 181/300/4
f 105/303/3 180/298/3 104/304/3
f 176/292/2 159/305/2 162/306/2
f 105/307/2 178/299/2 179/308/2
f 162/306/2 165/309/2 166/310/2
f 171/311/2 173/312/2 105/307/2
f 183/313/1 182/314/1 54/81/1
f 184/315/1 183/313/1 54/81/1
f 184/315/1 54/81/1 56/84/1
f 182/314/1 55/79/1 54/81/1
f 186/316/1 185/317/1 72/104/1
f 72/104/1 185/317/1 75/107/1
f 186/316/1 72/104/1 73/103/1
f 63/318/25 189/319/25 188/320/25
f 190/321/25 189/319/25 191/322/25
f 192/323/25 191/322/25 193/324/25
f 194/325/25 192/323/25 193/324/25
f 193/324/25 195/326/25 194/325/25
f 57/83/1 196/327/1 56/84/1
f 196/327/1 197/328/1 56/84/1
f 55/79/1 182/314/1 196/327/1
f 196/327/1 57/83/1 55/79/1
f 185/317/1 198/329/1 75/107/1
f 198/329/1 199/330/1 75/107/1
f 200/331/25 187/332/25 63/318/25
f 200/333/4 201/334/4 187/335/4
f 187/336/5 203/337/5 189/338/5
f 202/339/25 203/337/25 201/334/25
f 203/337/3 191/340/3 189/341/3
f 205/342/1 206/343/1 208/344/1
f 208/344/4 198/345/4 205/342/4
f 198/346/5 207/347/5 205/342/5
f 186/348/3 207/347/3 185/349/3
f 210/350/25 209/351/25 63/318/25
f 209/351/25 210/350/25 195/326/25
f 195/326/25 193/324/25 209/351/25
f 75/107/1 199/330/1 74/105/1
f 209/351/25 200/331/25 63/318/25
f 209/352/3 211/353/3 200/354/3
f 209/352/5 213/355/5 212/356/5
f 213/357/25 211/358/25 212/359/25
f 213/355/4 191/360/4 214/361/4
f 215/362/1 216/363/1 218/364/1
f 186/365/4 216/366/4 217/367/4
f 215/368/3 74/369/3 199/370/3
f 218/371/5 73/372/5 74/369/5
f 204/373/2 200/374/2 191/375/2
f 191/375/26 211/376/2 214/377/26
f 186/378/2 208/344/2 206/343/2
f 186/378/2 215/379/2 199/380/2
f 221/381/25 220/382/25 219/383/25
f 222/384/25 221/381/25 219/383/25
f 219/383/25 223/385/25 222/384/25
f 195/326/25 222/384/25 194/325/25
f 223/385/25 194/325/25 222/384/25
f 224/386/25 219/383/25 220/382/25
f 226/387/25 225/388/25 62/389/25
f 220/382/25 221/381/25 226/387/25
f 225/388/25 226/387/25 221/381/25
f 225/388/25 227/390/25 62/389/25
f 225/391/3 228/392/3 227/393/3
f 231/394/25 228/395/25 229/396/25
f 230/397/4 221/398/4 222/399/4
f 225/391/5 231/400/5 229/401/5
f 235/402/1 233/403/1 232/404/1
f 58/405/4 233/406/4 234/407/4
f 232/408/5 55/409/5 57/410/5
f 232/408/3 59/411/3 235/412/3
f 227/390/25 210/350/25 63/318/25
f 237/413/5 195/414/5 210/415/5
f 227/416/4 237/413/4 210/417/4
f 239/418/25 237/413/25 238/419/25
f 239/418/3 195/420/3 236/421/3
f 243/422/1 241/423/1 240/424/1
f 60/425/5 242/426/5 243/422/5
f 58/427/3 242/426/3 61/428/3
f 240/424/4 60/429/4 243/422/4
f 227/390/25 63/318/25 62/389/25
f 222/430/2 238/419/2 227/431/2
f 230/432/2 227/431/2 228/433/2
f 58/434/2 240/424/2 241/423/2
f 234/435/2 59/436/2 58/434/2
f 245/437/25 244/438/25 62/389/25
f 245/437/25 247/439/25 246/440/25
f 246/440/25 244/438/25 245/437/25
f 220/382/25 246/440/25 247/439/25
f 247/439/25 224/386/25 220/382/25
f 249/441/25 248/442/25 62/389/25
f 244/438/25 249/441/25 62/389/25
f 197/328/1 250/443/1 56/84/1
f 250/443/1 184/315/1 56/84/1
f 253/444/25 251/445/25 254/446/25
f 249/447/5 253/448/5 254/449/5
f 252/450/4 244/451/4 246/452/4
f 249/447/3 251/453/3 248/454/3
f 255/455/1 256/456/1 258/457/1
f 184/458/4 257/459/4 183/460/4
f 258/461/5 184/458/5 250/462/5
f 258/461/3 197/463/3 255/464/3
f 248/442/25 226/387/25 62/389/25
f 262/465/25 260/466/25 259/467/25
f 248/468/4 259/467/4 226/469/4
f 226/470/5 260/466/5 220/471/5
f 261/472/3 220/473/3 260/466/3
f 263/474/1 264/475/1 266/476/1
f 196/477/5 265/478/5 263/474/5
f 183/479/27 265/478/27 182/480/27
f 266/476/4 196/481/4 263/474/4
f 261/472/2 248/482/2 246/483/2
f 183/484/2 266/476/2 264/475/2
f 246/483/2 251/485/2 252/486/2
f 257/487/2 197/488/2 183/484/2
f 269/489/1 268/490/1 267/491/1
f 270/492/1 268/490/1 271/493/1
f 273/494/28 269/495/28 267/496/28
f 274/497/1 270/492/1 271/493/1
f 277/498/1 275/499/1 88/500/1
f 274/497/1 88/501/1 275/502/1
f 87/128/1 274/503/1 90/129/1
f 272/504/17 278/505/17 94/136/17
f 272/504/17 273/506/17 278/505/17
f 279/507/17 272/504/17 94/136/17
f 273/506/17 280/508/17 278/505/17
f 281/509/17 279/507/17 94/136/17
f 280/508/17 282/510/17 278/505/17
f 281/509/17 94/136/17 89/134/17
f 280/508/17 283/511/17 282/510/17
f 284/512/17 281/509/17 89/134/17
f 280/513/29 267/496/29 270/514/29
f 268/515/30 281/516/30 271/517/30
f 288/518/2 286/519/2 285/520/2
f 288/518/2 289/521/2 290/522/2
f 291/523/1 290/522/1 289/521/1
f 294/524/1 79/525/1 295/526/1
f 295/526/1 79/525/1 288/527/1
f 295/528/31 53/529/32 294/530/33
f 299/531/34 297/532/34 300/533/34
f 299/531/35 301/534/35 298/535/35
f 299/531/3 303/536/3 302/537/3
f 304/538/4 298/535/4 301/539/4
f 303/540/36 297/532/36 304/541/36
f 307/542/2 305/543/2 308/544/2
f 307/542/2 309/545/2 310/546/2
f 309/547/2 311/548/2 310/546/2
f 312/549/2 306/550/2 311/548/2
f 313/551/1 285/552/1 76/553/1
f 315/554/1 76/553/1 314/555/1
f 313/556/37 63/557/38 188/558/5
f 318/559/2 316/560/2 319/561/2
f 305/562/3 316/563/3 317/564/3
f 318/559/1 305/565/1 317/566/1
f 309/567/4 318/559/4 319/561/4
f 309/567/25 316/563/25 312/568/25
f 107/154/1 121/569/1 80/114/1
f 3/570/39 92/571/39 277/572/39
f 88/500/39 3/573/39 277/498/39
f 92/571/40 276/574/40 277/572/40
f 275/499/41 282/575/41 283/576/41
f 274/503/42 89/577/42 90/129/42
f 80/114/1 121/569/1 81/115/1
f 282/510/17 92/130/17 93/132/17
f 282/510/17 93/132/17 278/505/17
f 107/154/1 80/114/1 83/119/1
f 45/67/1 106/152/1 44/68/1
f 173/578/1 164/267/1 44/68/1
f 320/579/43 77/108/43 76/110/43
f 322/580/9 321/581/9 65/95/44
f 323/582/45 64/97/45 65/95/10
f 323/582/45 65/95/46 321/581/45
f 324/583/9 322/580/9 65/95/47
f 64/97/11 325/584/11 67/96/11
f 324/583/9 65/95/44 66/94/9
f 64/97/11 323/582/11 326/585/11
f 64/97/11 326/585/11 325/584/11
f 79/113/43 78/112/43 327/586/43
f 65/587/48 328/588/49 329/589/49
f 64/590/49 330/591/50 328/588/49
f 44/592/38 331/593/7 64/590/38
f 332/594/51 329/589/52 95/595/53
f 332/594/54 54/596/32 65/587/55
f 79/525/1 327/597/1 288/527/1
f 293/598/56 80/599/57 79/525/57
f 320/600/1 76/553/1 285/552/1
f 72/601/58 314/555/59 76/553/60
f 327/602/61 287/603/61 288/604/61
f 333/605/62 335/606/4 334/607/63
f 78/608/61 333/605/61 327/602/61
f 69/609/4 337/610/4 336/611/4
f 69/612/3 338/613/3 70/614/3
f 326/615/4 341/616/4 340/617/4
f 326/618/3 342/619/3 325/620/3
f 295/621/64 290/522/65 292/622/3
f 83/623/3 294/624/3 53/78/3
f 344/625/3 296/626/3 345/627/3
f 347/628/4 101/629/4 98/630/4
f 348/631/4 136/632/4 349/633/4
f 350/634/3 102/635/3 351/636/3
f 353/637/4 157/638/4 160/639/4
f 354/640/3 137/641/3 355/642/3
f 52/76/3 278/643/3 46/644/3
f 357/645/3 52/76/3 358/646/3
f 359/647/66 357/645/27 360/648/66
f 330/649/67 93/650/68 97/651/69
f 363/652/3 362/653/3 361/654/3
f 363/652/3 364/655/3 365/656/3
f 356/657/70 364/655/70 278/658/70
f 46/644/3 330/649/3 331/659/3
f 286/519/1 333/660/1 366/661/1
f 286/662/71 320/663/71 285/664/71
f 333/660/72 367/665/72 366/661/72
f 366/666/73 368/667/3 77/668/3
f 366/666/71 77/668/71 320/663/71
f 369/669/3 68/670/3 370/671/3
f 369/669/5 67/672/5 66/673/5
f 338/613/1 371/674/1 372/675/1
f 71/676/5 338/613/5 372/675/5
f 371/674/4 71/677/4 372/675/4
f 373/678/1 341/679/1 374/680/1
f 374/681/5 323/682/5 321/683/5
f 374/681/3 322/684/3 373/685/3
f 324/686/5 342/619/5 375/687/5
f 375/687/4 322/688/4 324/689/4
f 342/619/1 376/690/1 375/687/1
f 368/667/5 78/608/5 77/668/5
f 69/691/2 371/674/2 339/692/2
f 67/96/1 325/584/1 324/583/1
f 67/96/1 324/583/1 66/94/1
f 336/693/1 369/694/1 370/695/1
f 336/696/2 68/697/2 69/691/2
f 343/698/2 322/699/2 376/690/2
f 326/700/2 373/701/2 322/699/2
f 289/521/74 313/702/75 291/523/4
f 329/703/76 97/140/76 96/141/76
f 328/704/77 330/705/77 97/140/77
f 95/706/78 329/703/79 96/141/79
f 315/707/4 75/708/4 63/91/4
f 188/558/5 295/528/5 313/556/5
f 313/556/5 292/709/5 291/710/5
f 378/711/34 377/712/34 356/713/34
f 379/714/34 356/713/34 377/712/34
f 378/711/34 356/713/34 359/715/34
f 379/714/34 380/716/34 356/713/34
f 378/711/34 359/715/34 381/717/34
f 379/714/34 303/718/34 380/716/34
f 381/717/34 359/715/34 302/719/34
f 304/720/34 380/716/34 303/718/34
f 379/714/34 381/717/34 303/718/34
f 302/719/34 359/715/34 382/721/34
f 381/717/34 302/719/34 303/718/34
f 301/722/34 380/716/34 304/720/34
f 301/722/34 302/719/34 382/721/34
f 301/722/34 382/721/34 380/716/34
f 188/558/5 345/723/5 296/724/5
f 384/725/25 345/627/25 383/726/25
f 190/727/4 383/726/4 188/728/4
f 192/729/3 385/730/3 190/731/3
f 385/732/2 98/733/2 190/734/2
f 346/735/25 385/736/25 386/737/25
f 219/738/3 387/739/3 223/740/3
f 219/738/5 348/631/5 388/741/5
f 350/634/25 389/742/25 390/743/25
f 389/742/5 102/744/5 194/745/5
f 223/746/4 389/742/4 194/747/4
f 350/634/2 223/748/2 136/749/2
f 62/389/25 157/261/25 245/437/25
f 392/750/25 353/751/25 391/752/25
f 245/753/5 352/754/5 392/755/5
f 245/753/3 391/756/3 247/757/3
f 393/758/25 355/642/25 394/759/25
f 394/759/5 137/760/5 224/761/5
f 247/762/4 394/759/4 224/763/4
f 160/764/2 393/758/2 247/765/2
f 94/766/4 62/90/4 56/767/4
f 62/90/4 396/768/4 395/769/4
f 395/770/5 52/771/5 62/772/5
f 396/768/4 382/773/80 397/774/80
f 357/775/25 395/770/25 396/776/25
f 44/68/1 164/267/1 46/71/1
f 398/777/81 356/778/81 380/779/81
f 399/780/82 278/781/82 364/782/82
f 402/783/4 401/784/4 400/785/4
f 400/785/4 398/786/4 399/787/4
f 399/787/83 380/788/84 94/789/83
f 95/138/85 56/767/4 332/790/80
f 106/152/1 173/578/1 44/68/1
f 115/791/25 53/158/25 296/792/25
f 397/793/86 357/794/86 396/795/86
f 363/796/87 398/777/87 401/797/87
f 388/798/25 349/799/25 387/800/25
f 224/386/25 132/207/25 219/383/25
f 367/801/88 335/802/88 368/803/88
f 344/625/2 190/734/2 98/733/2
f 102/147/25 192/323/25 194/325/25
f 386/804/5 101/629/5 346/805/5
f 136/749/2 387/806/2 349/807/2
f 353/808/2 247/765/2 391/809/2
f 382/721/89 360/810/89 397/793/89
f 364/782/90 400/811/90 399/780/90
f 361/812/91 402/813/91 400/811/91
f 362/814/92 401/797/92 402/813/92
f 98/146/25 115/791/25 296/792/25
f 379/815/4 306/550/4 381/816/4
f 307/542/25 381/817/25 306/818/25
f 307/542/3 377/819/3 378/820/3
f 377/819/1 311/548/1 379/815/1
f 283/821/93 270/514/94 275/822/94
f 271/517/95 284/823/96 274/824/95
f 269/495/97 279/825/97 268/515/97
f 32/826/3 83/623/3 53/78/3
f 35/77/3 32/826/3 53/78/3
f 41/827/4 43/89/4 63/91/4
f 75/708/4 41/827/4 63/91/4
f 12/12/2 13/828/2 11/13/2
f 14/15/3 4/32/3 11/16/3
f 15/18/4 11/829/4 9/19/4
f 10/21/2 11/830/2 15/18/2
f 18/23/5 16/20/5 9/24/5
f 10/26/3 17/22/3 18/23/3
f 11/11/1 4/4/1 5/5/1
f 10/10/1 8/6/1 3/2/1
f 13/28/1 12/831/1 19/29/1
f 1/31/4 19/33/4 12/12/4
f 4/32/5 14/15/5 19/33/5
f 18/23/1 17/22/1 15/18/1
f 23/34/1 22/48/1 21/35/1
f 20/37/3 25/56/3 24/38/3
f 24/38/1 25/56/1 26/40/1
f 27/41/6 26/40/6 28/42/6
f 29/44/1 28/63/1 30/45/1
f 23/34/7 33/832/7 32/47/7
f 34/49/5 33/833/5 23/39/5
f 35/50/3 21/35/3 22/48/3
f 20/36/2 21/35/2 35/52/2
f 27/41/5 37/834/5 34/54/5
f 20/37/2 36/835/2 38/55/2
f 26/40/2 25/56/2 38/57/2
f 29/43/8 40/836/8 37/59/8
f 29/44/5 31/46/5 41/60/5
f 39/62/2 42/837/2 28/42/2
f 28/63/2 42/838/2 43/64/2
f 30/45/4 43/839/4 41/65/4
f 52/76/3 46/644/3 35/77/3
f 43/89/4 56/767/4 62/90/4
f 44/68/3 64/97/3 38/92/3
f 39/93/6 65/95/98 54/81/13
f 77/108/15 78/112/15 34/111/15
f 76/110/6 37/109/6 40/102/6
f 80/114/3 33/116/3 34/111/3
f 86/123/18 85/840/18 5/124/18
f 5/126/18 2/841/18 88/127/18
f 90/129/19 89/577/20 86/123/20
f 84/137/21 94/766/99 95/138/22
f 97/140/24 93/132/24 84/122/24
f 101/144/25 100/148/25 99/145/25
f 112/159/3 110/842/3 111/160/3
f 114/162/5 113/161/5 111/163/5
f 116/165/25 112/159/25 113/161/25
f 99/166/4 116/165/4 114/162/4
f 119/168/1 118/201/1 117/169/1
f 109/171/3 118/201/3 119/168/3
f 107/173/5 108/843/5 119/168/5
f 117/169/4 121/844/4 107/174/4
f 124/177/4 123/845/4 110/178/4
f 100/180/5 123/845/5 124/177/5
f 126/182/25 124/846/25 125/183/25
f 100/180/3 126/181/3 127/185/3
f 130/187/1 129/847/1 128/188/1
f 128/190/3 81/196/3 121/191/3
f 82/193/4 129/848/4 130/194/4
f 128/190/5 129/848/5 82/193/5
f 110/197/2 112/159/2 116/165/2
f 110/197/2 99/198/2 127/199/2
f 118/201/2 109/204/2 121/202/2
f 130/203/26 131/849/2 121/202/2
f 141/215/4 139/850/4 140/216/4
f 144/218/25 141/851/25 142/219/25
f 133/221/3 144/224/3 143/222/3
f 133/221/5 139/850/5 141/215/5
f 145/225/1 147/852/1 146/226/1
f 148/228/3 45/232/3 48/229/3
f 148/228/5 146/234/5 47/231/5
f 49/233/4 47/231/4 146/234/4
f 150/236/5 149/241/5 122/237/5
f 151/239/3 140/853/3 122/240/3
f 152/242/25 151/239/25 149/241/25
f 135/243/4 152/242/4 150/236/4
f 155/245/1 154/257/1 153/246/1
f 51/248/5 50/854/5 155/245/5
f 153/246/4 48/855/4 51/249/4
f 49/250/3 154/257/3 155/245/3
f 151/239/2 152/242/2 135/252/2
f 140/253/2 135/252/2 143/254/2
f 49/256/2 48/259/2 153/246/2
f 147/258/2 145/856/2 48/259/2
f 167/268/25 166/857/25 165/269/25
f 158/271/5 161/277/5 167/272/5
f 158/271/3 168/273/3 165/274/3
f 166/276/4 167/272/4 161/277/4
f 169/279/1 171/858/1 170/280/1
f 172/282/3 164/286/3 173/283/3
f 172/282/5 170/859/5 163/285/5
f 163/285/4 170/859/4 171/287/4
f 177/289/25 176/292/25 175/290/25
f 176/292/3 162/860/3 138/293/3
f 174/291/5 175/290/5 138/294/5
f 159/296/4 177/289/4 174/291/4
f 180/298/1 179/308/1 178/299/1
f 106/301/5 104/861/5 180/298/5
f 178/299/4 173/862/4 106/302/4
f 105/303/3 179/308/3 180/298/3
f 176/292/2 177/289/2 159/305/2
f 105/307/2 173/312/2 178/299/2
f 162/306/2 159/305/2 165/309/2
f 171/311/2 169/863/2 173/312/2
f 63/318/25 187/332/25 189/319/25
f 190/321/25 188/320/25 189/319/25
f 192/323/25 190/321/25 191/322/25
f 200/333/4 202/339/4 201/334/4
f 187/336/5 201/334/5 203/337/5
f 202/339/25 204/373/25 203/337/25
f 203/337/3 204/373/3 191/340/3
f 205/342/1 207/347/1 206/343/1
f 208/344/4 199/864/4 198/345/4
f 198/346/5 185/865/5 207/347/5
f 186/348/3 206/343/3 207/347/3
f 209/352/3 212/356/3 211/353/3
f 209/352/5 193/866/5 213/355/5
f 213/357/25 214/867/25 211/358/25
f 213/355/4 193/866/4 191/360/4
f 215/362/1 217/868/1 216/363/1
f 186/365/4 73/372/4 216/366/4
f 215/368/3 218/371/3 74/369/3
f 218/371/5 216/366/5 73/372/5
f 204/373/2 202/339/2 200/374/2
f 191/375/26 200/374/2 211/376/2
f 186/378/2 199/380/2 208/344/2
f 186/378/2 217/869/2 215/379/2
f 225/391/3 229/401/3 228/392/3
f 231/394/25 230/870/25 228/395/25
f 230/397/4 231/400/4 221/398/4
f 225/391/5 221/398/5 231/400/5
f 235/402/1 234/871/1 233/403/1
f 58/405/4 55/409/4 233/406/4
f 232/408/5 233/406/5 55/409/5
f 232/408/3 57/410/3 59/411/3
f 237/413/5 236/421/5 195/414/5
f 227/416/4 238/419/4 237/413/4
f 239/418/25 236/421/25 237/413/25
f 239/418/3 222/872/3 195/420/3
f 243/422/1 242/426/1 241/423/1
f 60/425/5 61/873/5 242/426/5
f 58/427/3 241/423/3 242/426/3
f 240/424/4 59/874/4 60/429/4
f 222/430/2 239/418/2 238/419/2
f 230/432/2 222/430/2 227/431/2
f 58/434/2 59/436/2 240/424/2
f 234/435/2 235/875/2 59/436/2
f 253/444/25 252/876/25 251/445/25
f 249/447/5 244/451/5 253/448/5
f 252/450/4 253/448/4 244/451/4
f 249/447/3 254/449/3 251/453/3
f 255/455/1 257/877/1 256/456/1
f 184/458/4 256/878/4 257/459/4
f 258/461/5 256/878/5 184/458/5
f 258/461/3 250/462/3 197/463/3
f 262/465/25 261/472/25 260/466/25
f 248/468/4 262/465/4 259/467/4
f 226/470/5 259/467/5 260/466/5
f 261/472/3 246/879/3 220/473/3
f 263/474/1 265/478/1 264/475/1
f 196/477/5 182/880/5 265/478/5
f 183/479/27 264/475/27 265/478/27
f 266/476/4 197/881/4 196/481/4
f 261/472/2 262/465/2 248/482/2
f 183/484/2 197/488/2 266/476/2
f 246/483/2 248/482/2 251/485/2
f 257/487/2 255/882/2 197/488/2
f 270/492/1 267/491/1 268/490/1
f 273/494/28 272/883/28 269/495/28
f 274/497/1 275/502/1 270/492/1
f 277/498/1 276/574/1 275/499/1
f 87/128/1 88/127/1 274/503/1
f 280/513/29 273/494/29 267/496/29
f 268/515/30 279/825/30 281/516/30
f 288/518/2 287/884/2 286/519/2
f 288/518/2 285/520/2 289/521/2
f 291/523/1 292/622/1 290/522/1
f 294/524/1 293/598/1 79/525/1
f 295/528/31 296/724/5 53/529/32
f 299/531/34 298/535/34 297/532/34
f 299/531/35 302/885/35 301/534/35
f 299/531/3 300/533/3 303/536/3
f 304/538/4 297/532/4 298/535/4
f 303/540/36 300/533/36 297/532/36
f 307/542/2 306/818/2 305/543/2
f 307/542/2 308/886/2 309/545/2
f 309/547/2 312/887/2 311/548/2
f 312/549/2 305/888/2 306/550/2
f 315/554/1 313/551/1 76/553/1
f 313/556/37 315/889/100 63/557/38
f 318/559/2 317/890/2 316/560/2
f 305/562/3 312/568/3 316/563/3
f 318/559/1 308/891/1 305/565/1
f 309/567/4 308/891/4 318/559/4
f 309/567/25 319/561/25 316/563/25
f 3/570/39 91/892/39 92/571/39
f 88/500/39 2/893/39 3/573/39
f 92/571/40 282/575/40 276/574/40
f 275/499/41 276/574/41 282/575/41
f 274/503/42 284/894/42 89/577/42
f 65/587/48 64/590/49 328/588/49
f 64/590/49 331/593/50 330/591/50
f 44/592/38 46/895/7 331/593/7
f 332/594/51 65/587/101 329/589/52
f 332/594/54 56/896/102 54/596/32
f 293/598/56 83/897/56 80/599/57
f 72/601/58 75/898/59 314/555/59
f 327/602/61 333/605/61 287/603/61
f 333/605/62 78/608/4 335/606/4
f 69/609/4 67/672/4 337/610/4
f 69/612/3 339/692/3 338/613/3
f 326/615/4 323/682/4 341/616/4
f 326/618/3 343/698/3 342/619/3
f 295/621/64 288/899/103 290/522/65
f 83/623/3 293/900/3 294/624/3
f 344/625/3 98/901/3 296/626/3
f 347/628/4 346/805/4 101/629/4
f 348/631/4 132/902/4 136/632/4
f 350/634/3 136/903/3 102/635/3
f 353/637/4 352/754/4 157/638/4
f 354/640/3 160/904/3 137/641/3
f 52/76/3 356/905/3 278/643/3
f 357/645/3 356/905/3 52/76/3
f 359/647/66 356/905/3 357/645/27
f 330/649/67 278/643/104 93/650/68
f 363/652/3 361/654/3 364/655/3
f 356/657/70 365/656/70 364/655/70
f 46/644/3 278/643/3 330/649/3
f 286/519/1 287/884/1 333/660/1
f 286/662/71 366/666/71 320/663/71
f 333/660/72 334/906/72 367/665/72
f 366/666/73 367/907/105 368/667/3
f 369/669/3 66/673/3 68/670/3
f 369/669/5 337/610/5 67/672/5
f 338/613/1 339/692/1 371/674/1
f 71/676/5 70/908/5 338/613/5
f 371/674/4 68/909/4 71/677/4
f 373/678/1 340/910/1 341/679/1
f 374/681/5 341/616/5 323/682/5
f 374/681/3 321/683/3 322/684/3
f 324/686/5 325/911/5 342/619/5
f 375/687/4 376/690/4 322/688/4
f 342/619/1 343/698/1 376/690/1
f 368/667/5 335/606/5 78/608/5
f 69/691/2 68/697/2 371/674/2
f 336/693/1 337/912/1 369/694/1
f 336/696/2 370/913/2 68/697/2
f 343/698/2 326/700/2 322/699/2
f 326/700/2 340/914/2 373/701/2
f 289/521/74 285/915/106 313/702/75
f 329/703/76 328/704/76 97/140/76
f 315/707/4 314/916/4 75/708/4
f 188/558/5 296/724/5 295/528/5
f 313/556/5 295/528/5 292/709/5
f 188/558/5 383/917/5 345/723/5
f 384/725/25 344/625/25 345/627/25
f 190/727/4 384/725/4 383/726/4
f 192/729/3 386/804/3 385/730/3
f 385/732/2 347/918/2 98/733/2
f 346/735/25 347/919/25 385/736/25
f 219/738/3 388/741/3 387/739/3
f 219/738/5 132/902/5 348/631/5
f 350/634/25 351/636/25 389/742/25
f 389/742/5 351/636/5 102/744/5
f 223/746/4 390/743/4 389/742/4
f 350/634/2 390/743/2 223/748/2
f 62/389/25 52/213/25 157/261/25
f 392/750/25 352/920/25 353/751/25
f 245/753/5 157/638/5 352/754/5
f 245/753/3 392/755/3 391/756/3
f 393/758/25 354/640/25 355/642/25
f 394/759/5 355/642/5 137/760/5
f 247/762/4 393/758/4 394/759/4
f 160/764/2 354/640/2 393/758/2
f 94/766/4 380/921/4 62/90/4
f 62/90/4 380/921/4 396/768/4
f 395/770/5 358/922/5 52/771/5
f 396/768/4 380/921/4 382/773/80
f 357/775/25 358/922/25 395/770/25
f 398/777/81 365/923/81 356/778/81
f 399/780/82 94/924/82 278/781/82
f 400/785/4 401/784/4 398/786/4
f 399/787/83 398/786/84 380/788/84
f 95/138/85 94/766/4 56/767/4
f 115/791/25 111/156/25 53/158/25
f 397/793/86 360/810/86 357/794/86
f 363/796/87 365/923/87 398/777/87
f 388/798/25 348/925/25 349/799/25
f 224/386/25 137/210/25 132/207/25
f 367/801/88 334/926/88 335/802/88
f 344/625/2 384/725/2 190/734/2
f 102/147/25 101/144/25 192/323/25
f 386/804/5 192/729/5 101/629/5
f 136/749/2 223/748/2 387/806/2
f 353/808/2 160/764/2 247/765/2
f 382/721/89 359/715/89 360/810/89
f 364/782/90 361/812/90 400/811/90
f 361/812/91 362/814/91 402/813/91
f 362/814/92 363/796/92 401/797/92
f 98/146/25 99/145/25 115/791/25
f 379/815/4 311/548/4 306/550/4
f 307/542/25 378/820/25 381/817/25
f 307/542/3 310/546/3 377/819/3
f 377/819/1 310/546/1 311/548/1
f 283/821/93 280/513/93 270/514/94
f 271/517/95 281/516/96 284/823/96
f 269/495/97 272/883/97 279/825/97
