# Blender 5.0.1
# www.blender.org
mtllib harz_house_1.mtl
o HarzHouse1
v -0.520041 1.491477 -6.517350
v 4.793166 0.318438 6.618591
v -0.520041 3.181021 -6.517350
v -0.801542 0.318543 6.361050
v -0.801542 3.207147 6.361050
v 4.707523 4.597790 5.525311
v 0.801542 0.318543 6.361055
v 4.793166 6.296967 6.618591
v 0.801542 3.207147 6.361055
v 4.707523 6.041263 5.525311
v 3.540597 8.841838 6.618591
v 0.520041 1.491477 -6.517350
v 4.707523 4.597790 4.564143
v 0.520041 3.181021 -6.517350
v 0.000000 10.883779 6.618591
v 4.707523 6.041263 4.564143
v 0.000000 0.318438 6.618591
v -0.520041 4.597416 -6.517350
v 0.000000 6.296967 6.618591
v -0.520041 6.286960 -6.517350
v 0.000000 8.841838 6.618591
v 4.793166 0.318438 0.000000
v 4.793166 6.296967 0.000000
v 0.520041 4.597416 -6.517350
v 4.917715 -0.164078 6.790574
v 0.520041 6.286960 -6.517350
v 4.707521 4.597790 3.359344
v 4.707521 6.041263 3.359344
v 4.707523 4.597790 2.398176
v 4.707523 6.041263 2.398176
v 4.705044 1.469311 5.552511
v 4.705044 3.030621 5.552511
v 4.705044 1.469311 4.563519
v 4.705044 3.030621 4.563519
v 4.705044 1.469311 3.386544
v 4.705044 3.030621 3.386544
v 4.705044 1.469311 2.397552
v -0.520041 4.597416 6.517350
v 4.705044 3.030621 2.397552
v -0.520041 6.286960 6.517350
v 4.793166 6.041263 5.525311
v 4.793166 4.597790 4.564143
v 0.520041 4.597416 6.517350
v 4.793166 4.597790 3.359344
v 4.793166 6.041263 3.359344
v 0.520041 6.286960 6.517350
v 4.793166 6.041263 4.564143
v 4.793166 1.509175 0.436577
v 4.793166 3.070485 0.436577
v 4.793166 3.030621 2.397552
v 4.793166 4.597790 2.398176
v 4.793166 3.070485 0.000000
v 4.793166 4.573203 0.000000
v 4.793166 4.573203 0.414830
v 4.793166 6.065850 0.000000
v 4.793166 6.065850 0.414830
v 4.793166 1.509175 0.000000
v 4.793166 6.041263 2.398176
v 4.793166 1.469311 5.552511
v 4.793166 3.030621 5.552511
v 4.793166 4.597790 5.525311
v 4.793166 1.469311 3.386544
v 4.793166 1.469311 4.563519
v 4.793166 3.030621 3.386544
v 4.793166 3.030621 4.563519
v 4.793166 1.469311 2.397552
v 4.707521 1.509175 0.436577
v 4.707521 3.070485 0.436577
v 4.707521 3.070485 0.000000
v 4.707521 4.573203 0.000000
v 4.707521 4.573203 0.414830
v 4.707521 6.065850 0.000000
v 4.707521 6.065850 0.414830
v 4.707521 1.509175 0.000000
v -4.793166 0.318438 6.618591
v -4.707523 4.597790 5.525311
v -4.793166 6.296967 6.618591
v -4.707523 6.041263 5.525311
v -3.540597 8.841838 6.618591
v -4.707523 4.597790 4.564143
v -4.707523 6.041263 4.564143
v -4.793166 0.318438 0.000000
v -4.793166 6.296967 0.000000
v -4.707521 4.597790 3.359344
v -4.707521 6.041263 3.359344
v -4.707522 4.597790 2.398176
v -4.707522 6.041263 2.398176
v -4.705044 1.469311 5.552511
v -4.705044 3.030621 5.552511
v -4.705044 1.469311 4.563519
v -4.705044 3.030621 4.563519
v -4.705044 1.469311 3.386544
v -4.705044 3.030621 3.386544
v -4.705044 1.469311 2.397552
v -4.705044 3.030621 2.397552
v -4.793166 6.041263 5.525311
v -4.793166 4.597790 4.564143
v -4.793166 4.597790 3.359344
v -4.793166 6.041263 3.359344
v -4.793166 6.041263 4.564143
v -4.793166 1.509175 0.436577
v -4.793166 3.070485 0.436577
v -4.793166 3.030621 2.397552
v -4.793166 4.597790 2.398176
v -4.793166 3.070485 0.000000
v -4.793166 4.573203 0.000000
v -4.793166 4.573203 0.414830
v -4.793166 6.065850 0.000000
v -4.793166 6.065850 0.414830
v -4.793166 1.509175 0.000000
v -4.793166 6.041263 2.398176
v -4.793166 1.469311 5.552511
v -4.793166 3.030621 5.552511
v -4.793166 4.597790 5.525311
v -4.793166 1.469311 3.386544
v -4.793166 1.469311 4.563519
v -4.793166 3.030621 3.386544
v -4.793166 3.030621 4.563519
v -4.793166 1.469311 2.397552
v -4.707521 1.509175 0.436577
v -4.707521 3.070485 0.436577
v -4.707521 3.070485 0.000000
v -4.707521 4.573203 0.000000
v -4.707521 4.573203 0.414830
v -4.707521 6.065850 0.000000
v -4.707521 6.065850 0.414830
v -4.707521 1.509175 0.000000
v 4.793166 0.318438 -6.618591
v 4.707523 4.597790 -5.525311
v 4.793166 6.296967 -6.618591
v 4.707523 6.041263 -5.525311
v 3.540597 8.841838 -6.618591
v 4.707523 4.597790 -4.564143
v 0.000000 10.883779 -6.618591
v 4.707523 6.041263 -4.564143
v 0.000000 0.318438 -6.618591
v 0.000000 6.296967 -6.618591
v 0.000000 8.841838 -6.618591
v 4.707521 4.597790 -3.359344
v 4.707521 6.041263 -3.359344
v 4.707523 4.597790 -2.398176
v 4.707523 6.041263 -2.398176
v 4.705044 1.469311 -5.552511
v 4.705044 3.030621 -5.552511
v 4.705044 1.469311 -4.563519
v 4.705044 3.030621 -4.563519
v 4.705044 1.469311 -3.386544
v 4.705044 3.030621 -3.386544
v 4.705044 1.469311 -2.397552
v 4.705044 3.030621 -2.397552
v 4.793166 6.041263 -5.525311
v 4.793166 4.597790 -4.564143
v 4.793166 4.597790 -3.359344
v 4.793166 6.041263 -3.359344
v 4.793166 6.041263 -4.564143
v 4.793166 1.509175 -0.436577
v 4.793166 3.070485 -0.436577
v 4.793166 3.030621 -2.397552
v 4.793166 4.597790 -2.398176
v 4.793166 4.573203 -0.414830
v 4.793166 6.065850 -0.414830
v 4.793166 6.041263 -2.398176
v 4.793166 1.469311 -5.552511
v 4.793166 3.030621 -5.552511
v 4.793166 4.597790 -5.525311
v 4.793166 1.469311 -3.386544
v 4.793166 1.469311 -4.563519
v 4.793166 3.030621 -3.386544
v 4.793166 3.030621 -4.563519
v 4.793166 1.469311 -2.397552
v 4.707521 1.509175 -0.436577
v 4.707521 3.070485 -0.436577
v 4.707521 4.573203 -0.414830
v 4.707521 6.065850 -0.414830
v -4.793166 0.318438 -6.618591
v -4.707523 4.597790 -5.525311
v -4.793166 6.296967 -6.618591
v -4.707523 6.041263 -5.525311
v -3.540597 8.841838 -6.618591
v -4.707523 4.597790 -4.564143
v -4.707523 6.041263 -4.564143
v -4.707521 4.597790 -3.359344
v -4.707521 6.041263 -3.359344
v -4.707522 4.597790 -2.398176
v -4.707522 6.041263 -2.398176
v -4.705044 1.469311 -5.552511
v -4.705044 3.030621 -5.552511
v -4.705044 1.469311 -4.563519
v -4.705044 3.030621 -4.563519
v -4.705044 1.469311 -3.386544
v -4.705044 3.030621 -3.386544
v -4.705044 1.469311 -2.397552
v -4.705044 3.030621 -2.397552
v -4.793166 6.041263 -5.525311
v -4.793166 4.597790 -4.564143
v -4.793166 4.597790 -3.359344
v -4.793166 6.041263 -3.359344
v -4.793166 6.041263 -4.564143
v -4.793166 1.509175 -0.436577
v -4.793166 3.070485 -0.436577
v -4.793166 3.030621 -2.397552
v -4.793166 4.597790 -2.398176
v -4.793166 4.573203 -0.414830
v -4.793166 6.065850 -0.414830
v -4.793166 6.041263 -2.398176
v -4.793166 1.469311 -5.552511
v -4.793166 3.030621 -5.552511
v -4.793166 4.597790 -5.525311
v -4.793166 1.469311 -3.386544
v -4.793166 1.469311 -4.563519
v -4.793166 3.030621 -3.386544
v -4.793166 3.030621 -4.563519
v -4.793166 1.469311 -2.397552
v -4.707521 1.509175 -0.436577
v -4.707521 3.070485 -0.436577
v -4.707521 4.573203 -0.414830
v -4.707521 6.065850 -0.414830
v 4.793166 6.296967 6.781639
v 3.540597 8.841838 6.781639
v 0.000000 10.883779 6.781639
v 3.540597 8.841838 0.000000
v 0.000000 10.883779 0.000000
v 4.895973 6.359848 0.000000
v 4.895973 6.359848 6.781639
v 3.579674 9.018723 0.000000
v 3.579674 9.018723 6.781639
v 0.000000 11.060663 6.781639
v 0.000000 11.060663 0.000000
v 3.540439 7.055237 4.889083
v 3.540439 8.845312 4.889083
v 3.540439 7.055237 3.227085
v 3.540439 8.845312 3.227085
v 4.518677 7.055237 4.889083
v 4.518677 8.440123 4.889083
v 4.518677 7.055237 3.227085
v 4.518677 8.440123 3.227085
v 4.518677 8.257781 3.445912
v 4.518677 7.237579 3.445912
v 4.518677 7.237579 4.670256
v 4.518677 8.257781 4.670256
v 4.464196 8.257781 3.445912
v 4.464196 7.237579 3.445912
v 4.464196 7.237579 4.670256
v 4.464196 8.257781 4.670256
v -4.793166 6.296967 6.781639
v -3.540597 8.841838 6.781639
v -3.540597 8.841838 0.000000
v -4.895974 6.359848 0.000000
v -4.895974 6.359848 6.781639
v -3.579674 9.018723 0.000000
v -3.579674 9.018723 6.781639
v -3.540438 7.055237 4.889083
v -3.540438 8.845312 4.889083
v -3.540438 7.055237 3.227085
v -3.540438 8.845312 3.227085
v -4.518677 7.055237 4.889083
v -4.518677 8.440123 4.889083
v -4.518677 7.055237 3.227085
v -4.518677 8.440123 3.227085
v -4.518677 8.257781 3.445912
v -4.518677 7.237579 3.445912
v -4.518677 7.237579 4.670256
v -4.518677 8.257781 4.670256
v -4.464196 8.257781 3.445912
v -4.464196 7.237579 3.445912
v -4.464196 7.237579 4.670256
v -4.464196 8.257781 4.670256
v 4.793166 6.296967 -6.781639
v 3.540597 8.841838 -6.781639
v 0.000000 10.883779 -6.781639
v 4.895973 6.359848 -6.781639
v 3.579674 9.018723 -6.781639
v 0.000000 11.060663 -6.781639
v 3.540439 7.055237 -4.889083
v 3.540439 8.845312 -4.889083
v 3.540439 7.055237 -3.227085
v 3.540439 8.845312 -3.227085
v 4.518677 7.055237 -4.889083
v 4.518677 8.440123 -4.889083
v 4.518677 7.055237 -3.227085
v 4.518677 8.440123 -3.227085
v 4.518677 8.257781 -3.445913
v 4.518677 7.237579 -3.445913
v 4.518677 7.237579 -4.670256
v 4.518677 8.257781 -4.670256
v 4.464196 8.257781 -3.445913
v 4.464196 7.237579 -3.445913
v 4.464196 7.237579 -4.670256
v 4.464196 8.257781 -4.670256
v -4.793166 6.296967 -6.781639
v -3.540597 8.841838 -6.781639
v -4.895974 6.359848 -6.781639
v -3.579674 9.018723 -6.781639
v -3.540438 7.055237 -4.889083
v -3.540438 8.845312 -4.889083
v -3.540438 7.055237 -3.227085
v -3.540438 8.845312 -3.227085
v -4.518677 7.055237 -4.889083
v -4.518677 8.440123 -4.889083
v -4.518677 7.055237 -3.227085
v -4.518677 8.440123 -3.227085
v -4.518677 8.257781 -3.445913
v -4.518677 7.237579 -3.445913
v -4.518677 7.237579 -4.670256
v -4.518677 8.257781 -4.670256
v -4.464196 8.257781 -3.445913
v -4.464196 7.237579 -3.445913
v -4.464196 7.237579 -4.670256
v -4.464196 8.257781 -4.670256
v 0.000000 7.117234 2.275409
v 0.000000 8.275321 2.275409
v 4.518678 7.117234 2.275409
v 4.518678 8.275321 2.275409
v 0.000000 7.117234 0.000000
v 0.000000 10.701733 0.000000
v 4.518678 7.117234 0.000000
v 3.240417 7.117234 2.275409
v 3.240417 8.275321 2.275409
v 3.240417 7.117234 0.000000
v 3.240417 10.701733 0.000000
v 0.000000 7.117234 0.907976
v 0.000000 9.754700 0.907976
v 4.518678 7.117234 0.907976
v 3.240417 9.754700 0.907976
v 3.240417 7.117234 0.907976
v 3.283936 10.701733 0.000000
v 4.518678 9.627357 0.907976
v 4.518678 9.627357 1.012389
v 4.391332 9.754702 0.907976
v 4.518678 9.627356 0.000000
v 0.000000 7.117234 -2.275409
v 0.000000 8.275321 -2.275409
v 4.518678 7.117234 -2.275409
v 4.518678 8.275321 -2.275409
v 3.240417 7.117234 -2.275409
v 3.240417 8.275321 -2.275409
v 0.000000 7.117234 -0.907976
v 0.000000 9.754700 -0.907976
v 4.518678 7.117234 -0.907976
v 3.240417 9.754700 -0.907976
v 3.240417 7.117234 -0.907976
v 4.518678 9.627357 -0.907976
v 4.518678 9.627357 -1.012389
v 4.391332 9.754702 -0.907976
v 4.917715 0.318438 6.790574
v 4.917715 0.318438 0.000000
v 0.000000 0.318438 6.790574
v -4.917715 0.318438 6.790574
v -4.917715 0.318438 0.000000
v 4.917715 0.318438 -6.790574
v 0.000000 0.318438 -6.790574
v -4.917715 0.318438 -6.790574
v 4.917715 -0.164078 0.000000
v 0.000000 -0.164078 6.790574
v 0.000000 -0.164078 0.000000
v -4.917715 -0.164078 6.790574
v -4.917715 -0.164078 0.000000
v 4.917715 -0.164078 -6.790574
v 0.000000 -0.164078 -6.790574
v -4.917715 -0.164078 -6.790574
v 0.520041 6.286960 6.618591
v 0.000000 4.597416 6.618591
v 0.520041 4.597416 6.618591
v 0.000000 6.286960 6.618591
v -0.520041 4.597416 6.618591
v -0.520041 6.286960 6.618591
v 0.000000 6.286960 -6.618591
v 0.520041 4.597416 -6.618591
v 0.520041 1.491477 -6.618591
v 0.520041 3.181021 -6.618591
v 0.000000 1.491477 -6.618591
v 0.000000 3.181021 -6.618591
v 0.000000 4.597416 -6.618591
v 0.520041 6.286960 -6.618591
v -0.520041 6.286960 -6.618591
v -0.520041 1.491477 -6.618591
v -0.520041 3.181021 -6.618591
v -0.520041 4.597416 -6.618591
v 0.000000 0.318543 6.618591
v 0.000000 3.207147 6.618591
v 0.801542 3.207147 6.618591
v 0.801542 0.318543 6.618591
v -0.801542 0.318543 6.618591
v -0.801542 3.207147 6.618591
v 0.000000 0.318543 6.361050
v 0.000000 3.207147 6.361050
vn 1.0000 -0.0000 -0.0000
vn -0.0000 1.0000 -0.0000
vn -0.0000 -0.0000 1.0000
vn -0.0000 -0.0000 -1.0000
vn -0.0000 -1.0000 -0.0000
vn -1.0000 -0.0000 -0.0000
vn -0.4996 -0.8663 -0.0000
vn -0.8972 -0.4416 -0.0000
vn 0.4955 0.8686 -0.0000
vn 0.8962 0.4437 -0.0000
vn 0.5218 -0.8531 -0.0000
vn 0.3827 0.9239 -0.0000
vn 0.4996 -0.8663 -0.0000
vn 0.8972 -0.4416 -0.0000
vn -0.4955 0.8686 -0.0000
vn -0.8962 0.4437 -0.0000
vn -0.5218 -0.8531 -0.0000
vn -0.3827 0.9239 -0.0000
vn -0.0000 0.6788 0.7343
vn -0.0000 0.6921 0.7218
vn 0.0083 0.6826 0.7307
vn 0.7071 0.7071 -0.0000
vn 0.6564 0.7543 -0.0137
vn -0.0000 0.6788 -0.7343
vn -0.0000 0.6921 -0.7218
vn 0.0076 0.6788 -0.7343
vn 0.6564 0.7543 0.0137
vn -0.0000 -0.0004 1.0000
vn -0.0000 0.0112 0.9999
vn -0.0000 -0.0001 1.0000
vn -0.0000 -0.0001 -1.0000
vn -0.0000 -0.0004 -1.0000
vn -0.0000 0.6340 0.7733
vn -0.0000 0.6340 -0.7733
vn -0.0000 0.6826 -0.7308
vt 0.074479 0.858569
vt 0.000559 0.502818
vt 0.072640 0.728287
vt 0.219086 0.598492
vt 0.139508 0.598492
vt 0.448060 0.502818
vt 0.764440 0.047648
vt 0.756426 0.473564
vt 0.756426 0.036581
vt 0.085821 0.388612
vt 0.243642 0.388612
vt 0.085821 0.474507
vt 0.085821 0.281560
vt 0.299452 0.018773
vt 0.105908 0.204615
vt 0.118658 0.144234
vt 0.140557 0.857254
vt 0.076002 0.974364
vt 0.076002 0.857254
vt 0.277945 0.711613
vt 0.284026 0.609123
vt 0.284026 0.711613
vt 0.283567 0.708584
vt 0.277605 0.608100
vt 0.283567 0.608100
vt 0.221181 0.607515
vt 0.282584 0.602044
vt 0.282584 0.607515
vt 0.280264 0.600860
vt 0.222681 0.605991
vt 0.222681 0.600860
vt 0.286029 0.857254
vt 0.221474 0.974364
vt 0.221474 0.857254
vt 0.277945 0.711613
vt 0.284026 0.711613
vt 0.283567 0.608100
vt 0.277605 0.708584
vt 0.277605 0.608100
vt 0.222123 0.607515
vt 0.283526 0.602044
vt 0.283526 0.607515
vt 0.279167 0.600860
vt 0.221584 0.605990
vt 0.221584 0.600860
vt 0.140599 0.603438
vt 0.074176 0.730108
vt 0.074176 0.603438
vt 0.277769 0.719171
vt 0.284026 0.608314
vt 0.284026 0.719171
vt 0.283739 0.605503
vt 0.277605 0.714190
vt 0.277605 0.605503
vt 0.219444 0.607673
vt 0.282624 0.602044
vt 0.282624 0.607673
vt 0.280302 0.600711
vt 0.221051 0.605991
vt 0.221051 0.600711
vt 0.286071 0.603438
vt 0.219647 0.730108
vt 0.219647 0.603438
vt 0.277769 0.719171
vt 0.220386 0.607673
vt 0.283566 0.602044
vt 0.283566 0.607673
vt 0.560646 0.196966
vt 0.441432 0.207588
vt 0.441432 0.196966
vt 0.269588 0.602044
vt 0.241698 0.607515
vt 0.241698 0.602044
vt 0.237639 0.605990
vt 0.262492 0.600860
vt 0.262492 0.605990
vt 0.557428 0.208388
vt 0.569424 0.417453
vt 0.557428 0.417453
vt 0.277605 0.608278
vt 0.283567 0.716965
vt 0.277605 0.716965
vt 0.269588 0.602044
vt 0.243087 0.607515
vt 0.243087 0.602044
vt 0.474394 0.207588
vt 0.527019 0.197264
vt 0.527019 0.207588
vt 0.419235 0.855259
vt 0.447096 0.976359
vt 0.419235 0.976359
vt 0.447096 0.733343
vt 0.417775 0.606673
vt 0.447096 0.606673
vt 0.139508 0.728287
vt 0.139466 0.978568
vt 0.000559 0.999825
vt 0.420012 0.980612
vt 0.760843 0.035344
vt 0.769331 0.486384
vt 0.760843 0.486384
vt 0.299475 0.281560
vt 0.299452 0.278428
vt 0.118658 0.144233
vt 0.105908 0.204615
vt 0.222123 0.602044
vt 0.763103 0.475086
vt 0.754662 0.026496
vt 0.763103 0.026496
vt 0.105908 0.273072
vt 0.299452 0.273507
vt 0.105908 0.199693
vt 0.757896 0.486609
vt 0.766071 0.258781
vt 0.766070 0.492529
vt 0.105908 0.199693
vt 0.105908 0.138177
vt 0.317935 0.460225
vt 0.706154 0.198648
vt 0.317935 0.198648
vt 0.706154 0.020714
vt 0.317935 0.020714
vt 0.706154 0.205105
vt 0.317935 0.468513
vt 0.317935 0.205105
vt 0.706154 0.018843
vt 0.317935 0.018843
vt 0.706153 0.468513
vt 0.706153 0.460225
vt 0.523402 0.061718
vt 0.505326 0.446686
vt 0.508065 0.042373
vt 0.507682 0.042577
vt 0.486816 0.455087
vt 0.492072 0.033413
vt 0.625000 0.000000
vt 0.375000 0.250000
vt 0.375000 0.000000
vt 0.192791 0.334709
vt 0.254531 0.422115
vt 0.254531 0.334709
vt 0.523801 0.523943
vt 0.534706 0.603672
vt 0.523801 0.616321
vt 0.192791 0.334709
vt 0.375000 0.283374
vt 0.125000 0.533374
vt 0.125000 0.283374
vt 0.488689 0.338523
vt 0.393536 0.282517
vt 0.488689 0.282517
vt 0.595716 0.532901
vt 0.534706 0.532901
vt 0.595716 0.603672
vt 0.606620 0.616321
vt 0.606620 0.523943
vt 0.507708 0.400631
vt 0.491235 0.019478
vt 0.507424 0.017979
vt 0.490985 0.410147
vt 0.476041 0.061002
vt 0.490997 0.056282
vt 0.192791 0.447688
vt 0.521249 0.438159
vt 0.507313 0.031214
vt 0.524605 0.029769
vt 0.504764 0.439957
vt 0.490175 0.021572
vt 0.508136 0.016060
vt 0.509407 0.053549
vt 0.491494 0.446229
vt 0.493737 0.033838
vt 0.510539 0.024910
vt 0.491742 0.461954
vt 0.493934 0.015330
vt 0.609187 0.819990
vt 0.519417 0.641583
vt 0.616608 0.641583
vt 0.409273 0.237108
vt 0.144671 0.132044
vt 0.409273 0.132044
vt 0.375000 0.458254
vt 0.304279 0.533374
vt 0.304279 0.458254
vt 0.625000 0.075120
vt 0.375000 0.125000
vt 0.375000 0.075120
vt 0.589557 0.482644
vt 0.490405 0.247683
vt 0.589557 0.247683
vt 0.125000 0.458254
vt 0.517032 0.235386
vt 0.410741 0.128397
vt 0.517032 0.128396
vt 0.304279 0.408374
vt 0.125000 0.408374
vt 0.655394 0.482644
vt 0.655394 0.247683
vt 0.375000 0.408374
vt 0.681142 0.819990
vt 0.681142 0.641583
vt 0.490405 0.154997
vt 0.581986 0.154997
vt 0.655394 0.244527
vt 0.589557 0.164231
vt 0.563374 0.210014
vt 0.553818 0.204278
vt 0.563374 0.187375
vt 0.655394 0.154997
vt 0.519417 0.723894
vt 0.746848 0.489701
vt 0.780176 0.020666
vt 0.746848 0.020666
vt 0.739984 0.473845
vt 0.783232 0.033074
vt 0.739984 0.033074
vt 0.749912 0.017799
vt 0.783403 0.489120
vt 0.749912 0.489120
vt 0.741019 0.035571
vt 0.785297 0.486851
vt 0.741019 0.486851
vt 0.762943 0.047542
vt 0.754820 0.479194
vt 0.754820 0.036326
vt 0.756368 0.030779
vt 0.764498 0.257369
vt 0.756368 0.257369
vt 0.756368 0.483958
vt 0.764498 0.489846
vt 0.757896 0.030953
vt 0.757896 0.258781
vt 0.500000 0.497336
vt 0.281909 0.497336
vt 0.739984 0.033075
vt 0.783232 0.473845
vt 0.739984 0.473845
vt 0.780176 0.489701
vt 0.741019 0.486850
vt 0.785297 0.035571
vt 0.741019 0.035571
vt 0.749912 0.489120
vt 0.783403 0.017799
vt 0.625000 0.125000
vt 0.375000 0.750000
vt 0.625000 0.625000
vt 0.375000 0.625000
vt 0.484609 0.598578
vt 0.420748 0.729386
vt 0.420748 0.598578
vt 0.250000 0.625000
vt 0.125000 0.750000
vt 0.750000 0.625000
vt 0.625000 0.750000
vt 0.875000 0.625000
vt 0.220636 0.856533
vt 0.287682 0.980401
vt 0.287682 0.856533
vt 0.625000 0.124999
vt 0.375000 0.124999
vt 0.375000 0.625001
vt 0.625000 0.625001
vt 0.287682 0.980401
vt 0.220636 0.856534
vt 0.287682 0.856534
vt 0.250000 0.625001
vt 0.125000 0.625001
vt 0.750000 0.625001
vt 0.875000 0.750000
vt 0.746917 0.407922
vt 0.781123 0.024263
vt 0.746917 0.024263
vt 0.746918 0.024263
vt 0.781123 0.407921
vt 0.746917 0.407921
vt 0.779776 0.251535
vt 0.740648 0.129756
vt 0.740648 0.251535
vt 0.779775 0.373314
vt 0.779776 0.129756
vt 0.740648 0.373314
vt 0.695410 0.512974
vt 0.744492 0.704298
vt 0.695410 0.704298
vt 0.793574 0.512974
vt 0.793574 0.704298
vt 0.220926 0.858569
vt 0.220926 0.978568
vt 0.139466 0.858569
vt 0.285955 0.728287
vt 0.285913 0.858569
vt 0.219086 0.728287
vt 0.074479 0.978568
vt 0.072640 0.598492
vt 0.448060 0.980612
vt 0.448060 0.999825
vt 0.448060 0.731601
vt 0.448060 0.856525
vt 0.420012 0.856525
vt 0.285913 0.978568
vt 0.418542 0.731601
vt 0.285955 0.598492
vt 0.418542 0.601806
vt 0.448060 0.601806
vt 0.764441 0.473564
vt 0.118658 0.018778
vt 0.082353 0.018778
vt 0.082353 0.018773
vt 0.082353 0.278428
vt 0.082353 0.277994
vt 0.105908 0.277994
vt 0.082353 0.204615
vt 0.082353 0.144233
vt 0.140557 0.974364
vt 0.277945 0.609123
vt 0.221181 0.602044
vt 0.280264 0.605991
vt 0.286029 0.974364
vt 0.277945 0.609123
vt 0.283567 0.708584
vt 0.279167 0.605990
vt 0.140599 0.730108
vt 0.277769 0.608314
vt 0.283739 0.714190
vt 0.219444 0.602044
vt 0.280302 0.605991
vt 0.286071 0.730108
vt 0.277769 0.608314
vt 0.220386 0.602044
vt 0.560646 0.207588
vt 0.269588 0.607515
vt 0.237639 0.600860
vt 0.569424 0.208388
vt 0.283567 0.608278
vt 0.474394 0.197264
vt 0.447096 0.855259
vt 0.417775 0.733343
vt 0.769331 0.023624
vt 0.118658 0.018778
vt 0.754662 0.486743
vt 0.082353 0.273072
vt 0.082353 0.273507
vt 0.299452 0.013852
vt 0.082353 0.013852
vt 0.082353 0.064798
vt 0.105908 0.064798
vt 0.105908 0.138177
vt 0.082353 0.138177
vt 0.082353 0.199693
vt 0.521674 0.448260
vt 0.504450 0.460802
vt 0.625000 0.250000
vt 0.192791 0.447688
vt 0.375000 0.533374
vt 0.393536 0.338523
vt 0.492454 0.419724
vt 0.477718 0.417797
vt 0.504787 0.458391
vt 0.488799 0.448996
vt 0.508170 0.447813
vt 0.510463 0.467866
vt 0.616608 0.819990
vt 0.144671 0.237108
vt 0.490405 0.482644
vt 0.410741 0.235386
vt 0.589557 0.154997
vt 0.783232 0.473845
vt 0.785297 0.035571
vt 0.762943 0.479194
vt 0.764498 0.024891
vt 0.766071 0.025033
vt 0.783232 0.033075
vt 0.785297 0.486850
vt 0.783403 0.489120
vt 0.484609 0.729386
vt 0.125000 0.625000
vt 0.220636 0.980401
vt 0.220636 0.980401
vt 0.875000 0.625001
vt 0.781123 0.407922
vt 0.781123 0.024263
vt 0.744492 0.512974
s 0
usemtl mat_full
f 61/1/1 2/2/1 60/3/1
f 62/4/1 63/5/1 22/6/1
f 75/7/2 349/8/2 348/9/2
f 21/10/3 11/11/3 15/12/3
f 19/13/3 11/11/3 21/10/3
f 2/14/3 363/15/3 381/16/3
f 13/17/1 10/18/1 6/19/1
f 16/20/3 42/21/3 47/22/3
f 10/23/4 61/24/4 6/25/4
f 6/26/2 42/27/2 13/28/2
f 16/29/5 41/30/5 10/31/5
f 29/32/1 28/33/1 27/34/1
f 30/35/3 51/21/3 58/36/3
f 27/37/4 45/38/4 44/39/4
f 27/40/2 51/41/2 29/42/2
f 30/43/5 45/44/5 28/45/5
f 33/46/1 32/47/1 31/48/1
f 34/49/3 63/50/3 65/51/3
f 31/52/4 60/53/4 59/54/4
f 31/55/2 63/56/2 33/57/2
f 34/58/5 60/59/5 32/60/5
f 37/61/1 36/62/1 35/63/1
f 39/64/3 66/50/3 50/51/3
f 35/52/4 64/53/4 62/54/4
f 35/65/2 66/66/2 37/67/2
f 39/68/5 64/69/5 36/70/5
f 57/71/2 67/72/2 48/73/2
f 56/74/5 72/75/5 55/76/5
f 54/77/4 73/78/4 56/79/4
f 48/80/4 68/81/4 49/82/4
f 53/83/2 71/84/2 54/85/2
f 49/86/5 69/87/5 52/88/5
f 71/89/1 72/90/1 73/91/1
f 69/92/1 67/93/1 74/94/1
f 114/1/6 118/95/6 113/3/6
f 100/96/6 77/97/6 109/98/6
f 175/99/2 349/100/2 82/101/2
f 21/10/3 15/12/3 79/11/3
f 19/13/3 79/11/3 77/102/3
f 77/103/3 384/104/3 365/105/3
f 78/18/6 80/17/6 76/19/6
f 97/21/3 81/20/3 100/22/3
f 114/24/4 78/23/4 76/25/4
f 97/27/2 76/26/2 80/28/2
f 96/30/5 81/29/5 78/31/5
f 85/33/6 86/32/6 84/34/6
f 104/21/3 87/35/3 111/36/3
f 99/38/4 84/37/4 98/39/4
f 86/42/2 98/106/2 84/40/2
f 99/44/5 87/43/5 85/45/5
f 89/47/6 90/46/6 88/48/6
f 116/50/3 91/49/3 118/51/3
f 113/53/4 88/52/4 112/54/4
f 116/56/2 88/55/2 90/57/2
f 113/59/5 91/58/5 89/60/5
f 93/62/6 94/61/6 92/63/6
f 119/50/3 95/64/3 103/51/3
f 117/53/4 92/52/4 115/54/4
f 119/66/2 92/65/2 94/67/2
f 117/69/5 95/68/5 93/70/5
f 120/72/2 110/71/2 101/73/2
f 125/75/5 109/74/5 108/76/5
f 126/78/4 107/77/4 109/79/4
f 121/81/4 101/80/4 102/82/4
f 124/84/2 106/83/2 107/85/2
f 122/87/5 102/86/5 105/88/5
f 125/90/6 124/89/6 126/91/6
f 120/93/6 122/92/6 127/94/6
f 165/1/1 169/95/1 164/3/1
f 155/96/1 130/97/1 161/98/1
f 2/107/2 346/108/2 22/109/2
f 138/10/4 134/12/4 132/11/4
f 137/13/4 132/11/4 130/102/4
f 374/110/4 130/111/4 368/112/4
f 131/18/1 133/17/1 129/19/1
f 152/21/4 135/20/4 155/22/4
f 165/24/3 131/23/3 129/25/3
f 152/27/2 129/26/2 133/28/2
f 151/30/5 135/29/5 131/31/5
f 140/33/1 141/32/1 139/34/1
f 159/21/4 142/35/4 162/36/4
f 154/38/3 139/37/3 153/39/3
f 159/41/2 139/40/2 141/42/2
f 154/44/5 142/43/5 140/45/5
f 144/47/1 145/46/1 143/48/1
f 167/50/4 146/49/4 169/51/4
f 164/53/3 143/52/3 163/54/3
f 167/56/2 143/55/2 145/57/2
f 164/59/5 146/58/5 144/60/5
f 148/62/1 149/61/1 147/63/1
f 170/50/4 150/64/4 158/51/4
f 168/53/3 147/52/3 166/54/3
f 170/66/2 147/65/2 149/67/2
f 168/69/5 150/68/5 148/70/5
f 171/72/2 57/71/2 156/73/2
f 72/75/5 161/74/5 55/76/5
f 174/78/3 160/77/3 161/79/3
f 172/81/3 156/80/3 157/82/3
f 173/84/2 53/83/2 160/85/2
f 69/87/5 157/86/5 52/88/5
f 72/90/1 173/89/1 174/91/1
f 171/93/1 69/92/1 74/94/1
f 208/1/6 175/2/6 207/3/6
f 209/4/6 210/5/6 82/6/6
f 175/113/2 351/114/2 352/115/2
f 138/10/4 179/11/4 134/12/4
f 137/13/4 179/11/4 138/10/4
f 177/111/4 378/116/4 377/117/4
f 180/17/6 178/18/6 176/19/6
f 181/20/4 195/21/4 198/22/4
f 178/23/3 208/24/3 176/25/3
f 176/26/2 195/27/2 180/28/2
f 181/29/5 194/30/5 178/31/5
f 184/32/6 183/33/6 182/34/6
f 185/35/4 202/21/4 205/36/4
f 182/37/3 197/38/3 196/39/3
f 182/40/2 202/41/2 184/42/2
f 185/43/5 197/44/5 183/45/5
f 188/46/6 187/47/6 186/48/6
f 189/49/4 210/50/4 212/51/4
f 186/52/3 207/53/3 206/54/3
f 186/55/2 210/56/2 188/57/2
f 189/58/5 207/59/5 187/60/5
f 192/61/6 191/62/6 190/63/6
f 193/64/4 213/50/4 201/51/4
f 190/52/3 211/53/3 209/54/3
f 190/65/2 213/66/2 192/67/2
f 193/68/5 211/69/5 191/70/5
f 110/71/2 214/72/2 199/73/2
f 204/74/5 125/75/5 108/76/5
f 203/77/3 217/78/3 204/79/3
f 199/80/3 215/81/3 200/82/3
f 106/83/2 216/84/2 203/85/2
f 200/86/5 122/87/5 105/88/5
f 216/89/6 125/90/6 217/91/6
f 122/92/6 214/93/6 127/94/6
f 220/118/7 221/119/7 219/120/7
f 219/120/8 23/121/8 218/122/8
f 225/123/9 227/124/9 226/125/9
f 223/126/10 226/125/10 224/127/10
f 23/121/11 224/127/11 218/122/11
f 220/118/6 228/128/6 222/129/6
f 219/130/3 224/131/3 226/132/3
f 220/133/3 226/134/3 227/135/3
f 230/136/6 231/137/6 229/138/6
f 231/139/4 236/140/4 235/141/4
f 233/142/1 240/143/1 234/144/1
f 234/140/3 229/145/3 233/141/3
f 235/146/5 229/147/5 231/148/5
f 232/149/12 234/150/12 236/151/12
f 238/152/2 243/153/2 239/153/2
f 233/142/1 238/152/1 239/153/1
f 234/144/1 237/154/1 236/155/1
f 236/155/1 238/152/1 235/156/1
f 241/154/1 243/153/1 242/152/1
f 240/143/5 241/154/5 237/154/5
f 237/154/3 242/152/3 238/152/3
f 239/153/4 244/143/4 240/143/4
f 247/119/13 220/118/13 246/120/13
f 83/121/14 246/120/14 245/122/14
f 227/124/15 250/123/15 251/125/15
f 251/125/16 248/126/16 249/127/16
f 249/127/17 83/121/17 245/122/17
f 246/157/3 249/158/3 245/159/3
f 220/160/3 251/161/3 246/162/3
f 254/137/1 253/136/1 252/138/1
f 254/139/4 259/140/4 255/163/4
f 263/143/6 256/142/6 257/144/6
f 252/145/3 257/140/3 256/141/3
f 252/147/5 258/146/5 254/148/5
f 257/150/18 255/149/18 259/151/18
f 266/153/2 261/152/2 262/153/2
f 256/142/6 261/152/6 258/156/6
f 260/154/6 257/144/6 259/155/6
f 261/152/6 259/155/6 258/156/6
f 266/153/6 264/154/6 265/152/6
f 264/154/5 263/143/5 260/154/5
f 265/152/3 260/154/3 261/152/3
f 267/143/4 262/153/4 263/143/4
f 221/119/7 270/118/7 269/120/7
f 23/121/8 269/120/8 268/122/8
f 273/124/9 225/123/9 272/125/9
f 272/125/10 223/126/10 271/127/10
f 271/127/11 23/121/11 268/122/11
f 228/128/6 270/118/6 222/129/6
f 269/164/4 271/165/4 268/166/4
f 270/167/4 272/168/4 269/169/4
f 276/137/6 275/136/6 274/138/6
f 276/139/3 281/140/3 277/163/3
f 285/143/1 278/142/1 279/144/1
f 274/145/4 279/140/4 278/141/4
f 274/147/5 280/146/5 276/148/5
f 279/150/12 277/149/12 281/151/12
f 288/153/2 283/152/2 284/153/2
f 278/142/1 283/152/1 280/156/1
f 282/154/1 279/144/1 281/155/1
f 283/152/1 281/155/1 280/156/1
f 288/153/1 286/154/1 287/152/1
f 286/154/5 285/143/5 282/154/5
f 287/152/4 282/154/4 283/152/4
f 289/143/3 284/153/3 285/143/3
f 270/118/13 247/119/13 291/120/13
f 291/120/14 83/121/14 290/122/14
f 250/123/15 273/124/15 293/125/15
f 248/126/16 293/125/16 292/127/16
f 83/121/17 292/127/17 290/122/17
f 291/170/4 292/171/4 293/172/4
f 270/173/4 293/174/4 273/175/4
f 295/136/1 296/137/1 294/138/1
f 296/139/3 301/140/3 300/141/3
f 298/142/6 305/143/6 299/144/6
f 299/140/4 294/145/4 298/141/4
f 300/146/5 294/147/5 296/148/5
f 297/149/18 299/150/18 301/151/18
f 303/152/2 308/153/2 304/153/2
f 298/142/6 303/152/6 304/153/6
f 299/144/6 302/154/6 301/155/6
f 301/155/6 303/152/6 300/156/6
f 306/154/6 308/153/6 307/152/6
f 305/143/5 306/154/5 302/154/5
f 302/154/4 307/152/4 303/152/4
f 304/153/3 309/143/3 305/143/3
f 328/176/1 312/177/1 323/178/1
f 318/179/3 310/180/3 317/181/3
f 323/182/5 317/183/5 325/184/5
f 322/185/6 314/186/6 321/187/6
f 322/188/19 318/189/19 324/190/19
f 325/184/5 310/147/5 321/191/5
f 313/192/3 317/193/3 312/194/3
f 319/195/5 321/191/5 314/196/5
f 315/197/20 324/190/20 320/198/20
f 311/136/6 321/187/6 310/138/6
f 316/199/5 325/184/5 319/195/5
f 330/200/1 323/178/1 316/201/1
f 324/190/21 313/202/21 328/203/21
f 326/204/20 324/190/20 329/205/20
f 328/206/22 327/207/22 329/208/22
f 329/205/23 330/209/23 326/204/23
f 339/178/1 334/210/1 343/176/1
f 331/180/4 336/179/4 335/181/4
f 335/183/5 339/182/5 341/184/5
f 314/186/6 338/185/6 337/187/6
f 336/189/24 338/188/24 340/190/24
f 331/147/5 341/184/5 337/191/5
f 335/193/4 334/192/4 333/194/4
f 337/191/5 319/195/5 314/196/5
f 340/190/25 315/197/25 320/198/25
f 337/187/6 332/136/6 331/138/6
f 341/184/5 316/199/5 319/195/5
f 339/178/1 330/200/1 316/201/1
f 343/203/26 336/189/26 340/190/26
f 340/190/25 326/204/25 344/205/25
f 343/206/22 344/208/22 342/207/22
f 330/209/27 344/205/27 326/204/27
f 349/211/6 356/212/6 348/213/6
f 348/214/3 354/215/3 347/216/3
f 352/217/6 357/218/6 349/219/6
f 347/220/3 25/221/3 345/222/3
f 128/223/2 346/224/2 350/225/2
f 75/226/2 347/227/2 17/228/2
f 2/229/2 347/227/2 345/230/2
f 128/231/2 351/114/2 136/232/2
f 353/233/5 354/234/5 355/233/5
f 354/234/5 357/233/5 355/233/5
f 359/234/5 353/233/5 355/233/5
f 357/233/5 359/234/5 355/233/5
f 351/235/4 360/236/4 352/237/4
f 345/213/1 353/238/1 346/211/1
f 350/239/4 359/240/4 351/241/4
f 346/242/1 358/243/1 350/217/1
f 3/136/1 376/186/1 377/244/1
f 12/245/6 370/246/6 369/247/6
f 1/248/4 14/249/4 12/250/4
f 371/251/2 1/252/2 369/247/2
f 372/253/5 14/254/5 377/255/5
f 20/136/1 378/186/1 375/244/1
f 24/245/6 374/246/6 368/247/6
f 18/256/4 26/257/4 24/258/4
f 373/251/2 18/252/2 368/247/2
f 367/253/5 26/254/5 375/255/5
f 38/138/1 366/259/1 365/260/1
f 46/254/6 363/261/6 361/262/6
f 46/263/3 38/264/3 43/265/3
f 362/266/2 43/245/2 365/267/2
f 364/268/5 40/269/5 361/262/5
f 5/270/1 383/271/1 4/272/1
f 7/273/6 381/274/6 9/275/6
f 385/276/2 383/277/2 379/278/2
f 379/278/2 7/279/2 385/276/2
f 380/278/5 5/280/5 386/276/5
f 380/278/5 9/279/5 381/281/5
f 4/282/3 386/283/3 5/284/3
f 386/283/3 7/285/3 9/286/3
f 44/287/1 45/288/1 47/96/1
f 44/287/1 47/96/1 42/289/1
f 50/290/1 51/291/1 44/287/1
f 64/292/1 50/290/1 44/287/1
f 64/292/1 44/287/1 42/289/1
f 65/95/1 64/292/1 42/289/1
f 61/1/1 41/293/1 8/97/1
f 65/95/1 42/289/1 61/1/1
f 2/2/1 59/294/1 60/3/1
f 60/3/1 65/95/1 61/1/1
f 61/1/1 8/97/1 2/2/1
f 56/98/1 55/295/1 23/296/1
f 23/296/1 8/97/1 41/293/1
f 23/296/1 41/293/1 47/96/1
f 56/98/1 23/296/1 47/96/1
f 56/98/1 47/96/1 45/288/1
f 52/297/1 53/298/1 54/299/1
f 56/98/1 45/288/1 58/300/1
f 58/300/1 51/291/1 50/290/1
f 56/98/1 58/300/1 50/290/1
f 49/301/1 52/297/1 54/299/1
f 54/299/1 56/98/1 50/290/1
f 54/299/1 50/290/1 66/302/1
f 49/301/1 54/299/1 66/302/1
f 62/4/1 64/292/1 65/95/1
f 48/303/1 49/301/1 66/302/1
f 62/4/1 65/95/1 63/5/1
f 57/304/1 48/303/1 66/302/1
f 22/6/1 57/304/1 66/302/1
f 59/294/1 2/2/1 22/6/1
f 63/5/1 59/294/1 22/6/1
f 22/6/1 66/302/1 62/4/1
f 75/7/2 82/305/2 349/8/2
f 19/13/3 8/102/3 11/11/3
f 382/306/3 379/307/3 17/308/3
f 8/103/3 19/309/3 364/310/3
f 8/103/28 364/310/28 361/311/28
f 382/306/3 17/308/3 2/14/3
f 362/312/3 380/313/3 381/16/3
f 381/16/3 382/306/3 2/14/3
f 2/14/3 8/103/3 361/311/3
f 363/15/3 362/312/3 381/16/3
f 2/14/3 361/311/3 363/15/3
f 13/17/1 16/314/1 10/18/1
f 16/20/3 13/315/3 42/21/3
f 10/23/4 41/38/4 61/24/4
f 6/26/2 61/316/2 42/27/2
f 16/29/5 47/317/5 41/30/5
f 29/32/1 30/318/1 28/33/1
f 30/35/3 29/319/3 51/21/3
f 27/37/4 28/320/4 45/38/4
f 27/40/2 44/106/2 51/41/2
f 30/43/5 58/321/5 45/44/5
f 33/46/1 34/322/1 32/47/1
f 34/49/3 33/323/3 63/50/3
f 31/52/4 32/324/4 60/53/4
f 31/55/2 59/325/2 63/56/2
f 34/58/5 65/326/5 60/59/5
f 37/61/1 39/327/1 36/62/1
f 39/64/3 37/328/3 66/50/3
f 35/52/4 36/324/4 64/53/4
f 35/65/2 62/329/2 66/66/2
f 39/68/5 50/330/5 64/69/5
f 57/71/2 74/331/2 67/72/2
f 56/74/5 73/332/5 72/75/5
f 54/77/4 71/333/4 73/78/4
f 48/80/4 67/334/4 68/81/4
f 53/83/2 70/331/2 71/84/2
f 49/86/5 68/335/5 69/87/5
f 71/89/1 70/336/1 72/90/1
f 69/92/1 68/337/1 67/93/1
f 97/289/6 100/96/6 99/288/6
f 98/287/6 104/291/6 103/290/6
f 97/289/6 99/288/6 98/287/6
f 77/97/6 96/293/6 114/1/6
f 97/289/6 98/287/6 103/290/6
f 75/2/6 77/97/6 114/1/6
f 114/1/6 97/289/6 103/290/6
f 114/1/6 103/290/6 117/292/6
f 113/3/6 112/294/6 75/2/6
f 114/1/6 117/292/6 118/95/6
f 113/3/6 75/2/6 114/1/6
f 116/5/6 118/95/6 117/292/6
f 116/5/6 117/292/6 115/4/6
f 75/2/6 112/294/6 116/5/6
f 110/304/6 82/6/6 75/2/6
f 101/303/6 110/304/6 75/2/6
f 75/2/6 116/5/6 115/4/6
f 75/2/6 115/4/6 119/302/6
f 106/298/6 105/297/6 102/301/6
f 107/299/6 106/298/6 102/301/6
f 101/303/6 75/2/6 119/302/6
f 103/290/6 104/291/6 111/300/6
f 101/303/6 119/302/6 103/290/6
f 109/98/6 107/299/6 102/301/6
f 102/301/6 101/303/6 103/290/6
f 102/301/6 103/290/6 111/300/6
f 83/296/6 108/295/6 109/98/6
f 109/98/6 102/301/6 111/300/6
f 109/98/6 111/300/6 99/288/6
f 77/97/6 83/296/6 109/98/6
f 100/96/6 96/293/6 77/97/6
f 109/98/6 99/288/6 100/96/6
f 175/99/2 352/338/2 349/100/2
f 19/13/3 21/10/3 79/11/3
f 366/311/3 364/310/3 19/309/3
f 75/14/3 17/308/3 379/307/3
f 75/14/29 379/307/29 383/339/29
f 366/311/30 19/309/30 77/103/30
f 380/313/3 362/312/3 365/105/3
f 365/105/3 366/311/3 77/103/3
f 77/103/3 75/14/3 383/339/3
f 384/104/3 380/313/3 365/105/3
f 77/103/3 383/339/3 384/104/3
f 78/18/6 81/314/6 80/17/6
f 97/21/3 80/315/3 81/20/3
f 114/24/4 96/38/4 78/23/4
f 97/27/2 114/316/2 76/26/2
f 96/30/5 100/317/5 81/29/5
f 85/33/6 87/318/6 86/32/6
f 104/21/3 86/319/3 87/35/3
f 99/38/4 85/320/4 84/37/4
f 86/42/2 104/41/2 98/106/2
f 99/44/5 111/321/5 87/43/5
f 89/47/6 91/322/6 90/46/6
f 116/50/3 90/323/3 91/49/3
f 113/53/4 89/324/4 88/52/4
f 116/56/2 112/325/2 88/55/2
f 113/59/5 118/326/5 91/58/5
f 93/62/6 95/327/6 94/61/6
f 119/50/3 94/328/3 95/64/3
f 117/53/4 93/324/4 92/52/4
f 119/66/2 115/329/2 92/65/2
f 117/69/5 103/330/5 95/68/5
f 120/72/2 127/331/2 110/71/2
f 125/75/5 126/332/5 109/74/5
f 126/78/4 124/333/4 107/77/4
f 121/81/4 120/334/4 101/80/4
f 124/84/2 123/331/2 106/83/2
f 122/87/5 121/335/5 102/86/5
f 125/90/6 123/336/6 124/89/6
f 120/93/6 121/337/6 122/92/6
f 152/289/1 155/96/1 154/288/1
f 153/287/1 159/291/1 158/290/1
f 152/289/1 154/288/1 153/287/1
f 130/97/1 151/293/1 165/1/1
f 152/289/1 153/287/1 158/290/1
f 128/2/1 130/97/1 165/1/1
f 165/1/1 152/289/1 158/290/1
f 165/1/1 158/290/1 168/292/1
f 164/3/1 163/294/1 128/2/1
f 165/1/1 168/292/1 169/95/1
f 164/3/1 128/2/1 165/1/1
f 167/5/1 169/95/1 168/292/1
f 167/5/1 168/292/1 166/4/1
f 128/2/1 163/294/1 167/5/1
f 57/304/1 22/6/1 128/2/1
f 156/303/1 57/304/1 128/2/1
f 128/2/1 167/5/1 166/4/1
f 128/2/1 166/4/1 170/302/1
f 53/298/1 52/297/1 157/301/1
f 160/299/1 53/298/1 157/301/1
f 156/303/1 128/2/1 170/302/1
f 158/290/1 159/291/1 162/300/1
f 156/303/1 170/302/1 158/290/1
f 161/98/1 160/299/1 157/301/1
f 157/301/1 156/303/1 158/290/1
f 157/301/1 158/290/1 162/300/1
f 23/296/1 55/295/1 161/98/1
f 161/98/1 157/301/1 162/300/1
f 161/98/1 162/300/1 154/288/1
f 130/97/1 23/296/1 161/98/1
f 155/96/1 151/293/1 130/97/1
f 161/98/1 154/288/1 155/96/1
f 2/107/2 345/340/2 346/108/2
f 137/13/4 138/10/4 132/11/4
f 374/110/4 367/341/4 137/342/4
f 130/111/4 128/343/4 136/344/4
f 136/344/4 371/345/4 369/346/4
f 370/347/4 372/348/4 373/349/4
f 130/111/4 136/344/4 369/346/4
f 370/347/4 373/349/4 368/112/4
f 130/111/4 369/346/4 370/347/4
f 374/110/31 137/342/31 130/111/31
f 130/111/4 370/347/4 368/112/4
f 131/18/1 135/314/1 133/17/1
f 152/21/4 133/315/4 135/20/4
f 165/24/3 151/38/3 131/23/3
f 152/27/2 165/316/2 129/26/2
f 151/30/5 155/317/5 135/29/5
f 140/33/1 142/318/1 141/32/1
f 159/21/4 141/319/4 142/35/4
f 154/38/3 140/320/3 139/37/3
f 159/41/2 153/106/2 139/40/2
f 154/44/5 162/321/5 142/43/5
f 144/47/1 146/322/1 145/46/1
f 167/50/4 145/323/4 146/49/4
f 164/53/3 144/324/3 143/52/3
f 167/56/2 163/325/2 143/55/2
f 164/59/5 169/326/5 146/58/5
f 148/62/1 150/327/1 149/61/1
f 170/50/4 149/328/4 150/64/4
f 168/53/3 148/324/3 147/52/3
f 170/66/2 166/329/2 147/65/2
f 168/69/5 158/330/5 150/68/5
f 171/72/2 74/331/2 57/71/2
f 72/75/5 174/332/5 161/74/5
f 174/78/3 173/333/3 160/77/3
f 172/81/3 171/334/3 156/80/3
f 173/84/2 70/331/2 53/83/2
f 69/87/5 172/335/5 157/86/5
f 72/90/1 70/336/1 173/89/1
f 171/93/1 172/337/1 69/92/1
f 196/287/6 197/288/6 198/96/6
f 196/287/6 198/96/6 195/289/6
f 201/290/6 202/291/6 196/287/6
f 211/292/6 201/290/6 196/287/6
f 211/292/6 196/287/6 195/289/6
f 212/95/6 211/292/6 195/289/6
f 208/1/6 194/293/6 177/97/6
f 212/95/6 195/289/6 208/1/6
f 175/2/6 206/294/6 207/3/6
f 207/3/6 212/95/6 208/1/6
f 208/1/6 177/97/6 175/2/6
f 204/98/6 108/295/6 83/296/6
f 83/296/6 177/97/6 194/293/6
f 83/296/6 194/293/6 198/96/6
f 204/98/6 83/296/6 198/96/6
f 204/98/6 198/96/6 197/288/6
f 105/297/6 106/298/6 203/299/6
f 204/98/6 197/288/6 205/300/6
f 205/300/6 202/291/6 201/290/6
f 204/98/6 205/300/6 201/290/6
f 200/301/6 105/297/6 203/299/6
f 203/299/6 204/98/6 201/290/6
f 203/299/6 201/290/6 213/302/6
f 200/301/6 203/299/6 213/302/6
f 209/4/6 211/292/6 212/95/6
f 199/303/6 200/301/6 213/302/6
f 209/4/6 212/95/6 210/5/6
f 110/304/6 199/303/6 213/302/6
f 82/6/6 110/304/6 213/302/6
f 206/294/6 175/2/6 82/6/6
f 210/5/6 206/294/6 82/6/6
f 82/6/6 213/302/6 209/4/6
f 175/113/2 136/232/2 351/114/2
f 137/13/4 177/102/4 179/11/4
f 376/346/4 371/345/4 136/344/4
f 136/344/4 175/343/4 177/111/4
f 177/111/4 137/342/4 367/341/4
f 177/111/32 367/341/32 375/110/32
f 376/346/4 136/344/4 177/111/4
f 373/349/4 372/348/4 377/117/4
f 377/117/4 376/346/4 177/111/4
f 177/111/4 375/110/4 378/116/4
f 378/116/4 373/349/4 377/117/4
f 180/17/6 181/314/6 178/18/6
f 181/20/4 180/315/4 195/21/4
f 178/23/3 194/38/3 208/24/3
f 176/26/2 208/316/2 195/27/2
f 181/29/5 198/317/5 194/30/5
f 184/32/6 185/318/6 183/33/6
f 185/35/4 184/319/4 202/21/4
f 182/37/3 183/320/3 197/38/3
f 182/40/2 196/106/2 202/41/2
f 185/43/5 205/321/5 197/44/5
f 188/46/6 189/322/6 187/47/6
f 189/49/4 188/323/4 210/50/4
f 186/52/3 187/324/3 207/53/3
f 186/55/2 206/325/2 210/56/2
f 189/58/5 212/326/5 207/59/5
f 192/61/6 193/327/6 191/62/6
f 193/64/4 192/328/4 213/50/4
f 190/52/3 191/324/3 211/53/3
f 190/65/2 209/329/2 213/66/2
f 193/68/5 201/330/5 211/69/5
f 110/71/2 127/331/2 214/72/2
f 204/74/5 217/332/5 125/75/5
f 203/77/3 216/333/3 217/78/3
f 199/80/3 214/334/3 215/81/3
f 106/83/2 123/331/2 216/84/2
f 200/86/5 215/335/5 122/87/5
f 216/89/6 123/336/6 125/90/6
f 122/92/6 215/337/6 214/93/6
f 220/118/7 222/129/7 221/119/7
f 219/120/8 221/119/8 23/121/8
f 225/123/9 228/128/9 227/124/9
f 223/126/10 225/123/10 226/125/10
f 23/121/11 223/126/11 224/127/11
f 220/118/6 227/124/6 228/128/6
f 219/130/3 218/350/3 224/131/3
f 220/133/3 219/351/3 226/134/3
f 230/136/6 232/352/6 231/137/6
f 231/139/4 232/163/4 236/140/4
f 233/142/1 239/153/1 240/143/1
f 234/140/3 230/353/3 229/145/3
f 235/146/5 233/354/5 229/147/5
f 232/149/12 230/355/12 234/150/12
f 238/152/2 242/152/2 243/153/2
f 233/142/1 235/156/1 238/152/1
f 234/144/1 240/143/1 237/154/1
f 236/155/1 237/154/1 238/152/1
f 241/154/1 244/143/1 243/153/1
f 240/143/5 244/143/5 241/154/5
f 237/154/3 241/154/3 242/152/3
f 239/153/4 243/153/4 244/143/4
f 247/119/13 222/129/13 220/118/13
f 83/121/14 247/119/14 246/120/14
f 227/124/15 228/128/15 250/123/15
f 251/125/16 250/123/16 248/126/16
f 249/127/17 248/126/17 83/121/17
f 246/157/3 251/356/3 249/158/3
f 220/160/3 227/357/3 251/161/3
f 254/137/1 255/352/1 253/136/1
f 254/139/4 258/141/4 259/140/4
f 263/143/6 262/153/6 256/142/6
f 252/145/3 253/353/3 257/140/3
f 252/147/5 256/354/5 258/146/5
f 257/150/18 253/355/18 255/149/18
f 266/153/2 265/152/2 261/152/2
f 256/142/6 262/153/6 261/152/6
f 260/154/6 263/143/6 257/144/6
f 261/152/6 260/154/6 259/155/6
f 266/153/6 267/143/6 264/154/6
f 264/154/5 267/143/5 263/143/5
f 265/152/3 264/154/3 260/154/3
f 267/143/4 266/153/4 262/153/4
f 221/119/7 222/129/7 270/118/7
f 23/121/8 221/119/8 269/120/8
f 273/124/9 228/128/9 225/123/9
f 272/125/10 225/123/10 223/126/10
f 271/127/11 223/126/11 23/121/11
f 228/128/6 273/124/6 270/118/6
f 269/164/4 272/358/4 271/165/4
f 270/167/4 273/359/4 272/168/4
f 276/137/6 277/352/6 275/136/6
f 276/139/3 280/141/3 281/140/3
f 285/143/1 284/153/1 278/142/1
f 274/145/4 275/353/4 279/140/4
f 274/147/5 278/354/5 280/146/5
f 279/150/12 275/355/12 277/149/12
f 288/153/2 287/152/2 283/152/2
f 278/142/1 284/153/1 283/152/1
f 282/154/1 285/143/1 279/144/1
f 283/152/1 282/154/1 281/155/1
f 288/153/1 289/143/1 286/154/1
f 286/154/5 289/143/5 285/143/5
f 287/152/4 286/154/4 282/154/4
f 289/143/3 288/153/3 284/153/3
f 270/118/13 222/129/13 247/119/13
f 291/120/14 247/119/14 83/121/14
f 250/123/15 228/128/15 273/124/15
f 248/126/16 250/123/16 293/125/16
f 83/121/17 248/126/17 292/127/17
f 291/170/4 290/360/4 292/171/4
f 270/173/4 291/361/4 293/174/4
f 295/136/1 297/352/1 296/137/1
f 296/139/3 297/163/3 301/140/3
f 298/142/6 304/153/6 305/143/6
f 299/140/4 295/353/4 294/145/4
f 300/146/5 298/354/5 294/147/5
f 297/149/18 295/355/18 299/150/18
f 303/152/2 307/152/2 308/153/2
f 298/142/6 300/156/6 303/152/6
f 299/144/6 305/143/6 302/154/6
f 301/155/6 302/154/6 303/152/6
f 306/154/6 309/143/6 308/153/6
f 305/143/5 309/143/5 306/154/5
f 302/154/4 306/154/4 307/152/4
f 304/153/3 308/153/3 309/143/3
f 323/178/1 327/362/1 328/176/1
f 328/176/1 313/210/1 312/177/1
f 318/179/3 311/363/3 310/180/3
f 323/182/5 312/354/5 317/183/5
f 322/185/6 315/244/6 314/186/6
f 322/188/19 311/364/19 318/189/19
f 325/184/5 317/183/5 310/147/5
f 313/192/3 318/365/3 317/193/3
f 319/195/5 325/184/5 321/191/5
f 315/197/20 322/188/20 324/190/20
f 311/136/6 322/185/6 321/187/6
f 316/199/5 323/182/5 325/184/5
f 330/200/1 327/362/1 323/178/1
f 328/203/33 329/205/33 324/190/33
f 324/190/19 318/189/19 313/202/19
f 326/204/20 320/198/20 324/190/20
f 329/205/22 327/366/22 330/209/22
f 343/176/1 342/362/1 339/178/1
f 339/178/1 333/177/1 334/210/1
f 331/180/4 332/363/4 336/179/4
f 335/183/5 333/354/5 339/182/5
f 314/186/6 315/244/6 338/185/6
f 336/189/24 332/364/24 338/188/24
f 331/147/5 335/183/5 341/184/5
f 335/193/4 336/365/4 334/192/4
f 337/191/5 341/184/5 319/195/5
f 340/190/25 338/188/25 315/197/25
f 337/187/6 338/185/6 332/136/6
f 341/184/5 339/182/5 316/199/5
f 339/178/1 342/362/1 330/200/1
f 340/190/34 344/205/34 343/203/34
f 343/203/35 334/202/35 336/189/35
f 340/190/25 320/198/25 326/204/25
f 330/209/22 342/366/22 344/205/22
f 349/211/6 357/238/6 356/212/6
f 348/214/3 356/367/3 354/215/3
f 352/217/6 360/243/6 357/218/6
f 347/220/3 354/368/3 25/221/3
f 128/223/2 22/369/2 346/224/2
f 75/226/2 348/370/2 347/227/2
f 2/229/2 17/228/2 347/227/2
f 128/231/2 350/371/2 351/114/2
f 353/233/5 25/234/5 354/234/5
f 354/234/5 356/234/5 357/233/5
f 359/234/5 358/234/5 353/233/5
f 357/233/5 360/234/5 359/234/5
f 351/235/4 359/372/4 360/236/4
f 345/213/1 25/212/1 353/238/1
f 350/239/4 358/373/4 359/240/4
f 346/242/1 353/374/1 358/243/1
f 3/136/1 1/138/1 376/186/1
f 12/245/6 14/254/6 370/246/6
f 1/248/4 3/375/4 14/249/4
f 371/251/2 376/376/2 1/252/2
f 1/252/2 12/245/2 369/247/2
f 372/253/5 370/246/5 14/254/5
f 14/254/5 3/269/5 377/255/5
f 20/136/1 18/138/1 378/186/1
f 24/245/6 26/254/6 374/246/6
f 18/256/4 20/377/4 26/257/4
f 373/251/2 378/376/2 18/252/2
f 18/252/2 24/245/2 368/247/2
f 367/253/5 374/246/5 26/254/5
f 26/254/5 20/269/5 375/255/5
f 38/138/1 40/136/1 366/259/1
f 46/254/6 43/245/6 363/261/6
f 46/263/3 40/378/3 38/264/3
f 362/266/2 363/261/2 43/245/2
f 43/245/2 38/252/2 365/267/2
f 364/268/5 366/379/5 40/269/5
f 40/269/5 46/254/5 361/262/5
f 5/270/1 384/380/1 383/271/1
f 7/273/6 382/381/6 381/274/6
f 385/276/2 4/280/2 383/277/2
f 379/278/2 382/281/2 7/279/2
f 380/278/5 384/277/5 5/280/5
f 380/278/5 386/276/5 9/279/5
f 4/282/3 385/382/3 386/283/3
f 386/283/3 385/382/3 7/285/3
