# Blender 5.0.1
# www.blender.org
mtllib andreaskreuz.mtl
o andreaskreuz
v -0.013900 2.120745 -0.373300
v -0.013900 2.209646 -0.234500
v -0.013900 1.969545 -0.102400
v -0.013900 1.879545 -0.243400
v -0.013900 1.795045 -0.003700
v -0.013900 1.714245 -0.152400
v -0.013900 1.883045 0.252400
v -0.013900 1.972745 0.114500
v -0.013900 2.188745 0.245500
v -0.013900 2.101346 0.386900
v -0.013900 1.708445 0.149000
v -0.013900 1.793846 0.006900
v -0.013900 1.705345 0.015200
v -0.013900 1.707045 0.002200
v -0.013900 1.795645 0.002200
v -0.013900 1.701845 0.027900
v -0.013900 1.697345 0.039700
v -0.013900 1.690945 0.050500
v -0.013900 1.683745 0.060600
v -0.013900 1.704445 0.153000
v -0.013900 1.674645 0.069600
v -0.013900 1.664345 0.077200
v -0.013900 1.653845 0.083100
v -0.013900 1.525045 0.152400
v -0.013900 1.644245 0.087000
v -0.013900 1.520746 0.145500
v -0.013900 1.584845 0.085000
v -0.013900 1.594245 0.088800
v -0.013900 1.605045 0.092100
v -0.013900 1.614145 0.093700
v -0.013900 1.623145 0.093100
v -0.013900 1.438246 0.000400
v -0.013900 1.346145 0.242000
v -0.013900 1.272245 0.095100
v -0.008800 1.041146 0.222800
v -0.008800 1.118445 0.366200
v -0.013900 1.527445 0.025900
v -0.013900 1.532145 0.040300
v -0.013900 1.540645 0.053200
v -0.013900 1.547845 0.062400
v -0.013900 1.558745 0.071900
v -0.013900 1.570745 0.078500
v -0.013900 1.435745 -0.005800
v -0.013900 1.524345 0.006200
v -0.013900 1.438946 -0.012400
v -0.013900 1.525945 -0.012300
v -0.013900 1.528345 -0.159000
v -0.013900 1.549645 -0.063900
v -0.013900 1.539645 -0.051600
v -0.013900 1.531145 -0.033600
v -0.013900 1.563145 -0.076500
v -0.013900 1.577345 -0.085400
v -0.013900 1.709645 -0.159000
v -0.013900 1.625545 -0.092000
v -0.013900 1.608745 -0.092600
v -0.013900 1.592445 -0.090100
v -0.013900 1.639945 -0.089300
v -0.013900 1.692945 -0.049900
v -0.013900 1.678545 -0.067800
v -0.013900 1.662045 -0.080200
v -0.013900 1.650945 -0.085700
v -0.013900 1.702545 -0.028600
v -0.013900 1.706045 -0.011200
v -0.013900 1.265245 -0.117400
v -0.013900 1.357345 -0.258000
v -0.013900 1.519845 -0.159000
v -0.013900 1.046845 -0.248900
v -0.013900 1.130745 -0.390900
v -0.014100 1.677245 -0.059300
v 0.109100 1.677245 -0.059300
v 0.109100 1.669345 -0.069400
v -0.014100 1.650245 -0.077300
v -0.014100 1.650245 0.076300
v 0.109100 1.668545 0.068800
v 0.109100 1.677245 0.058200
v -0.014100 1.677245 0.058200
v 0.109100 1.695245 0.031300
v -0.014100 1.695245 0.031300
v 0.109100 1.701545 -0.000500
v -0.014100 1.701545 -0.000500
v 0.109100 1.695245 -0.032300
v -0.014100 1.695245 -0.032300
v -0.014100 1.618445 0.082600
v -0.014100 1.618445 -0.083700
v -0.221000 -0.065455 0.068000
v -0.221000 1.136646 0.068000
v -0.221000 1.136646 -0.064900
v -0.221000 -0.065455 -0.064900
v -0.078100 1.136646 -0.064900
v -0.078100 1.136646 0.068000
v -0.078100 -0.065455 0.068000
v -0.078100 -0.065455 -0.064900
v -0.039300 1.528345 -0.159000
v -0.039300 1.438945 -0.012400
v -0.039300 1.435745 -0.005800
v -0.039300 1.438245 0.000400
v -0.039300 1.519845 -0.159000
v -0.016600 1.528345 -0.159000
v -0.016600 1.519845 -0.159000
v -0.016600 1.438946 -0.012400
v -0.016600 1.357345 -0.258000
v -0.016600 1.130745 -0.390900
v -0.016600 1.046845 -0.248900
v -0.016600 1.265245 -0.117400
v -0.016600 1.795045 -0.003700
v -0.020840 1.706045 -0.011200
v -0.020840 1.707045 0.002200
v -0.016600 1.795645 0.002200
v -0.020840 1.702545 -0.028600
v -0.020840 1.692945 -0.049900
v -0.016600 1.714246 -0.152400
v -0.020840 1.639945 -0.089300
v -0.020840 1.650945 -0.085700
v -0.020840 1.662045 -0.080200
v -0.020840 1.678545 -0.067800
v -0.016600 1.709645 -0.159000
v -0.020840 1.625545 -0.092000
v -0.020840 1.577345 -0.085400
v -0.020840 1.592445 -0.090100
v -0.020840 1.608745 -0.092600
v -0.020840 1.563145 -0.076500
v -0.020840 1.549645 -0.063900
v -0.020840 1.525945 -0.012300
v -0.020840 1.531145 -0.033600
v -0.020840 1.539645 -0.051600
v -0.016600 1.435745 -0.005800
v -0.020840 1.524345 0.006200
v -0.016600 1.438246 0.000400
v -0.020840 1.527445 0.025900
v -0.016600 1.520746 0.145500
v -0.020840 1.584845 0.085000
v -0.020840 1.570745 0.078500
v -0.020840 1.558745 0.071900
v -0.020840 1.547845 0.062400
v -0.020840 1.540645 0.053200
v -0.020840 1.532145 0.040300
v -0.012700 1.041146 0.222800
v -0.012700 1.118445 0.366200
v -0.016600 1.346145 0.242000
v -0.016600 1.272245 0.095100
v -0.016600 1.525045 0.152400
v -0.020840 1.644245 0.087000
v -0.020840 1.623145 0.093100
v -0.020840 1.614145 0.093700
v -0.020840 1.605045 0.092100
v -0.020840 1.594245 0.088800
v -0.016600 1.704445 0.153000
v -0.020840 1.653845 0.083100
v -0.020840 1.664345 0.077200
v -0.020840 1.674645 0.069600
v -0.016600 1.708445 0.149000
v -0.020840 1.683745 0.060600
v -0.020840 1.690945 0.050500
v -0.020840 1.697345 0.039700
v -0.020840 1.701845 0.027900
v -0.016600 1.793846 0.006900
v -0.020840 1.705345 0.015200
v -0.016600 1.883045 0.252400
v -0.016600 1.972745 0.114500
v -0.016600 2.101346 0.386900
v -0.016600 2.188745 0.245500
v -0.016600 1.879545 -0.243400
v -0.016600 1.969545 -0.102400
v -0.016600 2.120745 -0.373300
v -0.016600 2.209646 -0.234500
v -0.013900 1.611445 0.000500
v -0.020840 1.611445 0.000500
v -0.078936 0.910245 0.066000
v -0.062400 1.107745 -0.059000
v -0.062400 1.262945 -0.060100
v -0.078936 0.911745 -0.061000
v -0.062400 0.911745 -0.061000
v -0.060300 0.911745 -0.061000
v -0.060300 0.910245 0.066000
v -0.062400 0.910245 0.066000
v -0.078936 1.107745 -0.059000
v -0.078936 1.103445 0.066700
v -0.062400 1.103445 0.066700
v -0.062400 1.263045 0.066700
v -0.060300 1.103445 0.066700
v -0.060300 1.263045 0.066700
v -0.060300 1.107745 -0.059000
v -0.060300 1.262945 -0.060100
v -0.060300 1.466245 -0.060100
v -0.060300 1.466346 0.065500
v -0.062400 1.466346 0.065500
v -0.062400 1.466245 -0.060100
v -0.095700 1.576246 0.128900
v -0.021000 1.576246 0.128900
v -0.021000 1.712545 0.128900
v -0.095700 1.712545 0.128900
v -0.095700 1.464545 0.061300
v -0.021000 1.464545 0.061300
v -0.095700 1.464545 -0.056500
v -0.021000 1.464545 -0.056500
v -0.095700 1.576246 -0.124100
v -0.021000 1.576246 -0.124100
v -0.095700 1.712545 -0.124100
v -0.021000 1.712545 -0.124100
v -0.072200 0.927345 0.022900
v -0.072200 0.933145 0.022900
v -0.072200 0.933145 -0.018100
v -0.072200 0.927345 -0.018100
v -0.040248 2.120745 -0.373300
v -0.040248 2.209646 -0.234500
v -0.040248 1.969545 -0.102400
v -0.040248 1.879545 -0.243400
v -0.040248 1.795045 -0.003700
v -0.040248 1.714245 -0.152400
v -0.040248 1.883045 0.252400
v -0.040248 1.972745 0.114500
v -0.040248 2.188745 0.245500
v -0.040248 2.101346 0.386900
v -0.040248 1.708445 0.149000
v -0.040248 1.793846 0.006900
v -0.041098 1.520746 0.145500
v -0.041098 1.438246 0.000400
v -0.041098 1.346145 0.242000
v -0.041098 1.272245 0.095100
v -0.035998 1.041146 0.222800
v -0.035998 1.118445 0.366200
v -0.041098 1.438946 -0.012400
v -0.041098 1.265245 -0.117400
v -0.041098 1.357345 -0.258000
v -0.041098 1.519845 -0.159000
v -0.041098 1.046845 -0.248900
v -0.041098 1.130745 -0.390900
v -0.087467 1.103445 0.066700
v -0.087467 1.263045 0.066700
v -0.087467 1.107745 -0.059000
v -0.087467 1.262945 -0.060100
v -0.087467 1.466245 -0.060100
v -0.087467 1.466346 0.065500
v -0.012900 1.665781 0.049500
v -0.012900 1.643081 0.064700
v -0.012900 1.566781 -0.049500
v -0.012900 1.589481 -0.064700
v -0.012900 1.616281 0.070000
v -0.012900 1.551581 -0.026800
v -0.012900 1.589481 0.064700
v -0.012900 1.546281 -0.000000
v -0.012900 1.566781 0.049500
v -0.012900 1.551581 0.026800
v -0.012900 1.680981 0.026800
v -0.012900 1.616281 -0.070000
v -0.012900 1.686281 -0.000000
v -0.012900 1.643081 -0.064700
v -0.012900 1.665781 -0.049500
v -0.012900 1.680981 -0.026800
vn 1.0000 -0.0000 -0.0000
vn 0.9998 0.0173 -0.0087
vn 0.9998 0.0173 -0.0093
vn -0.0156 0.7143 -0.6996
vn -0.0000 0.8104 -0.5858
vn -0.0004 0.7047 -0.7095
vn 0.0032 0.3643 -0.9313
vn 0.0147 0.3737 0.9274
vn -0.0644 0.7177 0.6934
vn -0.0321 0.7882 0.6145
vn -0.0000 0.7074 0.7068
vn -0.0000 0.9239 0.3826
vn -0.0000 1.0000 -0.0000
vn -0.0000 0.9242 -0.3818
vn 0.0308 0.1942 0.9805
vn 0.0323 0.1972 -0.9798
vn -1.0000 -0.0000 -0.0000
vn -0.0000 -0.0000 -1.0000
vn -0.0000 -0.0000 1.0000
vn -0.0000 -0.8998 -0.4363
vn -0.0000 -0.9274 0.3740
vn -0.9988 0.0479 -0.0036
vn -0.9988 0.0478 -0.0049
vn -0.9988 0.0484 -0.0097
vn -0.9984 0.0521 -0.0235
vn -0.9987 0.0159 -0.0484
vn -0.9988 0.0214 -0.0432
vn -0.9989 0.0286 -0.0380
vn -0.9986 0.0408 -0.0328
vn -0.9980 0.0550 -0.0299
vn -0.9992 0.0324 -0.0226
vn -0.9984 0.0103 -0.0550
vn -0.9988 -0.0148 -0.0477
vn -0.9985 -0.0082 -0.0538
vn -0.9980 -0.0000 -0.0637
vn -0.9982 0.0022 -0.0605
vn -0.9989 -0.0254 -0.0406
vn -0.9987 -0.0344 -0.0368
vn -0.9987 -0.0487 -0.0119
vn -0.9984 -0.0515 -0.0243
vn -0.9979 -0.0551 -0.0336
vn -0.9985 -0.0429 -0.0349
vn -0.9988 -0.0449 -0.0217
vn -0.9988 -0.0487 -0.0042
vn -0.9983 -0.0536 0.0216
vn -0.9988 -0.0488 0.0077
vn -0.9987 -0.0217 0.0470
vn -0.9987 -0.0246 0.0448
vn -0.9986 -0.0346 0.0397
vn -0.9983 -0.0459 0.0360
vn -0.9980 -0.0524 0.0345
vn -0.9977 -0.0594 0.0338
vn -0.9985 -0.0523 0.0171
vn -0.9999 -0.0132 0.0071
vn -0.9999 -0.0132 0.0066
vn -0.9900 0.0392 0.1357
vn -0.9968 0.0053 0.0801
vn -0.9983 -0.0100 0.0569
vn -0.9986 -0.0153 0.0500
vn -0.9989 -0.0389 0.0243
vn -0.9986 -0.0198 0.0490
vn -0.9982 -0.0002 0.0607
vn -0.9655 0.0980 0.2412
vn -0.9988 0.0242 0.0431
vn -0.9988 0.0296 0.0402
vn -0.9986 0.0374 0.0374
vn -0.9986 0.0371 0.0375
vn -0.9982 0.0483 0.0344
vn -0.9979 0.0558 0.0330
vn -0.9963 0.0800 0.0305
vn -0.9983 0.0507 0.0305
vn -0.9940 0.1054 0.0291
vn -0.9987 0.0478 0.0183
vn -0.9988 0.0484 0.0063
vn -0.0000 -0.0036 1.0000
vn -0.0000 0.0102 -0.9999
vn -0.0000 -1.0000 -0.0000
vn -0.0000 -0.8610 -0.5087
vn -0.0000 0.8421 -0.5393
vn -0.0000 0.8506 0.5258
vn -0.0000 0.9274 -0.3740
vn -0.0000 0.8998 0.4363
vn -0.0000 -0.8803 0.4745
vn -0.0000 -0.9999 -0.0118
vn -0.0000 1.0000 -0.0008
vn -0.0000 0.5178 0.8555
vn -0.0000 -0.5178 0.8555
vn -0.0000 -0.5246 0.8514
vn -0.0000 0.5154 -0.8569
vn -0.0000 -0.4823 -0.8760
vn -0.0000 -0.4742 -0.8804
vn -0.0000 -0.5096 0.8604
vn -0.0000 0.5186 -0.8550
vn -0.0000 0.4923 0.8704
vn -0.0000 0.4820 0.8761
vn -0.0000 -0.4955 -0.8686
vn -0.0000 -0.4836 -0.8753
vn -0.0000 -0.5158 0.8567
vn -0.0000 0.5203 -0.8540
vn -0.0000 0.4789 0.8779
vn -0.0000 0.5059 -0.8626
vn -0.0000 0.4837 0.8752
vn -0.0000 -0.5173 0.8558
vn -0.0000 -0.0071 -1.0000
vn -0.0000 0.0059 1.0000
vn -0.0000 0.9937 0.1125
vn -0.0000 0.9937 0.1124
vt 0.326883 0.969953
vt 0.266604 0.997383
vt 0.206795 0.898375
vt 0.267565 0.870150
vt 0.166772 0.827279
vt 0.223248 0.798295
vt 0.065626 0.858049
vt 0.119271 0.894518
vt 0.071706 0.976959
vt 0.018932 0.942804
vt 0.095161 0.797574
vt 0.153127 0.830446
vt 0.149531 0.793196
vt 0.155023 0.793884
vt 0.155130 0.831167
vt 0.144181 0.791727
vt 0.139212 0.789827
vt 0.134651 0.787173
vt 0.130415 0.784129
vt 0.091519 0.792965
vt 0.126588 0.780331
vt 0.123402 0.776000
vt 0.120899 0.771599
vt 0.091054 0.714999
vt 0.119219 0.767537
vt 0.093961 0.713176
vt 0.120012 0.742517
vt 0.118438 0.746482
vt 0.117052 0.751061
vt 0.116395 0.754892
vt 0.116623 0.758672
vt 0.154950 0.678249
vt 0.053634 0.642208
vt 0.110483 0.603613
vt 0.061314 0.513788
vt 0.001049 0.546518
vt 0.144800 0.718283
vt 0.138750 0.720282
vt 0.133355 0.723885
vt 0.129466 0.726939
vt 0.125491 0.731532
vt 0.122705 0.736572
vt 0.157579 0.677201
vt 0.153099 0.716953
vt 0.161824 0.679528
vt 0.160916 0.717600
vt 0.221083 0.718272
vt 0.182656 0.727528
vt 0.177454 0.723347
vt 0.169861 0.719794
vt 0.187976 0.733195
vt 0.191724 0.739181
vt 0.226009 0.796351
vt 0.194558 0.759470
vt 0.194798 0.752382
vt 0.193732 0.745505
vt 0.193450 0.765538
vt 0.176941 0.787885
vt 0.184452 0.781798
vt 0.189634 0.774831
vt 0.191975 0.770144
vt 0.167985 0.791965
vt 0.160669 0.793450
vt 0.205379 0.599170
vt 0.265788 0.633901
vt 0.221073 0.714676
vt 0.261888 0.498041
vt 0.322767 0.531712
vt 0.605839 0.661671
vt 0.645978 0.596095
vt 0.648752 0.597793
vt 0.610782 0.664697
vt 0.568644 0.638903
vt 0.610834 0.574583
vt 0.613727 0.576355
vt 0.573588 0.641929
vt 0.621126 0.580883
vt 0.580985 0.646458
vt 0.629853 0.586225
vt 0.589713 0.651800
vt 0.638581 0.591567
vt 0.598440 0.657142
vt 0.566908 0.637841
vt 0.612518 0.665760
vt 0.565275 0.763132
vt 0.565276 0.994416
vt 0.523364 0.994416
vt 0.523364 0.763130
vt 0.720449 0.994418
vt 0.678537 0.994418
vt 0.678539 0.763128
vt 0.720450 0.763130
vt 0.565275 0.994418
vt 0.520214 0.994418
vt 0.520215 0.763130
vt 0.520216 0.763130
vt 0.565277 0.994414
vt 0.520217 0.994414
vt 0.514787 0.815897
vt 0.514787 0.754575
vt 0.571818 0.754575
vt 0.571818 0.815897
vt 0.551610 0.181481
vt 0.550597 0.181491
vt 0.550785 0.200279
vt 0.551796 0.200267
vt 0.551372 0.181484
vt 0.551558 0.200271
vt 0.565914 0.361640
vt 0.515019 0.277744
vt 0.575502 0.242236
vt 0.624647 0.325659
vt 0.674743 0.418935
vt 0.619080 0.450332
vt 0.677080 0.571566
vt 0.682001 0.547131
vt 0.687854 0.547564
vt 0.682550 0.572549
vt 0.674415 0.545614
vt 0.665121 0.541412
vt 0.620773 0.538657
vt 0.647945 0.518303
vt 0.649488 0.523071
vt 0.651928 0.527922
vt 0.657319 0.535126
vt 0.618470 0.537044
vt 0.646779 0.512017
vt 0.649656 0.490983
vt 0.647594 0.497542
vt 0.646509 0.504673
vt 0.653522 0.484768
vt 0.659018 0.478878
vt 0.681520 0.468526
vt 0.672256 0.470826
vt 0.664398 0.474530
vt 0.687431 0.419025
vt 0.689618 0.467831
vt 0.694994 0.420379
vt 0.698223 0.469185
vt 0.748798 0.451762
vt 0.723983 0.494226
vt 0.721176 0.488073
vt 0.718272 0.482859
vt 0.714140 0.478110
vt 0.710100 0.474957
vt 0.704499 0.471239
vt 0.788117 0.245027
vt 0.848636 0.280929
vt 0.793843 0.377346
vt 0.736988 0.340221
vt 0.751223 0.453273
vt 0.724880 0.520153
vt 0.727545 0.510958
vt 0.727769 0.507041
vt 0.727077 0.503071
vt 0.725627 0.498331
vt 0.750447 0.533746
vt 0.723151 0.524368
vt 0.720571 0.528936
vt 0.717282 0.533434
vt 0.747580 0.536125
vt 0.713326 0.537381
vt 0.708945 0.540548
vt 0.704227 0.543312
vt 0.699083 0.545297
vt 0.687634 0.569990
vt 0.693543 0.546835
vt 0.792140 0.616406
vt 0.735494 0.650761
vt 0.832930 0.686606
vt 0.776052 0.719667
vt 0.574826 0.613690
vt 0.630393 0.647693
vt 0.523194 0.698274
vt 0.581011 0.725773
vt 0.579622 0.181201
vt 0.576947 0.181230
vt 0.577133 0.200017
vt 0.579810 0.199989
vt 0.155596 0.753637
vt 0.526854 0.494738
vt 0.527083 0.495149
vt 0.526854 0.494738
vt 0.687139 0.505856
vt 0.668395 0.358456
vt 0.668786 0.302510
vt 0.710469 0.302510
vt 0.710463 0.358471
vt 0.709940 0.856902
vt 0.702740 0.917272
vt 0.708576 0.917404
vt 0.708587 0.916934
vt 0.704135 0.855423
vt 0.709971 0.855555
vt 0.707850 0.950129
vt 0.680275 0.950138
vt 0.680271 0.915424
vt 0.707608 0.916371
vt 0.680411 0.873406
vt 0.708041 0.873729
vt 0.707854 0.994332
vt 0.680518 0.994355
vt 0.710463 0.408389
vt 0.668388 0.408352
vt 0.584322 0.566011
vt 0.584322 0.471191
vt 0.489502 0.471191
vt 0.489502 0.566011
vt 0.193932 0.476781
vt 0.320361 0.443871
vt 0.297792 0.928832
vt 0.179418 0.889778
vt 0.843052 0.892688
vt 0.717133 0.927053
vt 0.267536 0.504137
vt 0.269153 0.505456
vt 0.259164 0.508254
vt 0.257547 0.506935
vt 0.265828 0.502745
vt 0.255839 0.505543
vt 0.749787 0.412386
vt 0.872498 0.446693
vt 0.882064 0.441468
vt 0.759352 0.407161
vt 0.750613 0.795723
vt 0.811888 0.876797
vt 0.700987 0.909547
vt 0.590924 0.830941
vt 0.799282 0.189513
vt 0.556130 0.185448
vt 0.799282 0.185448
vt 0.658197 0.222270
vt 0.658048 0.194123
vt 0.702435 0.193889
vt 0.702583 0.222036
vt 0.608852 0.194383
vt 0.609001 0.222530
vt 0.751779 0.221776
vt 0.751630 0.193629
vt 0.802988 0.193358
vt 0.803137 0.221504
vt 0.557643 0.222801
vt 0.557495 0.194655
vt 0.766788 0.188126
vt 0.651145 0.173637
vt 0.651082 0.187602
vt 0.560917 0.185723
vt 0.672396 0.172387
vt 0.671952 0.188740
vt 0.561612 0.187197
vt 0.649290 0.173629
vt 0.649226 0.187594
vt 0.777134 0.174208
vt 0.777071 0.188173
vt 0.558601 0.173218
vt 0.558537 0.187183
vt 0.806457 0.176028
vt 0.806013 0.192381
vt 0.696930 0.187810
vt 0.604502 0.173426
vt 0.604438 0.187391
vt 0.824191 0.188386
vt 0.696993 0.173845
vt 0.701709 0.189548
vt 0.805196 0.175466
vt 0.804738 0.192346
vt 0.558649 0.171936
vt 0.702168 0.172667
vt 0.683002 0.187747
vt 0.567308 0.172807
vt 0.567242 0.187223
vt 0.731818 0.187968
vt 0.818014 0.173942
vt 0.817949 0.188358
vt 0.725882 0.187941
vt 0.605246 0.175682
vt 0.605181 0.190098
vt 0.611712 0.187424
vt 0.731884 0.173552
vt 0.818426 0.188360
vt 0.725947 0.173525
vt 0.775069 0.188164
vt 0.683067 0.173331
vt 0.670844 0.163085
vt 0.818997 0.142817
vt 0.819058 0.162624
vt 0.670917 0.163084
vt 0.554500 0.143640
vt 0.554561 0.163446
vt 0.557696 0.163437
vt 0.670782 0.143278
vt 0.819131 0.162624
vt 0.670855 0.143278
vt 0.550717 0.093921
vt 0.541015 0.078309
vt 0.614006 0.025865
vt 0.623707 0.041477
vt 0.537609 0.059893
vt 0.599487 0.015433
vt 0.541015 0.041477
vt 0.582361 0.011770
vt 0.550717 0.025865
vt 0.565235 0.015433
vt 0.565235 0.104353
vt 0.627114 0.059893
vt 0.582361 0.108016
vt 0.623707 0.078309
vt 0.614006 0.093921
vt 0.599487 0.104353
vt 0.561361 0.169371
vt 0.704104 0.856770
vt 0.702751 0.916802
vt 0.556130 0.189513
vt 0.766851 0.174161
vt 0.561675 0.173232
vt 0.824254 0.174421
vt 0.558191 0.188817
vt 0.611778 0.173008
vt 0.818492 0.173944
vt 0.775135 0.173748
vt 0.557635 0.143630
vt 0.819070 0.142817
s 0
usemtl mat_andreaskreuz
f 1/1/1 2/2/1 3/3/1
f 1/1/1 3/3/1 4/4/1
f 4/4/1 3/3/1 5/5/1
f 4/4/1 5/5/1 6/6/1
f 7/7/1 8/8/1 9/9/1
f 7/7/1 9/9/1 10/10/1
f 11/11/1 12/12/1 8/8/1
f 11/11/1 8/8/1 7/7/1
f 12/12/1 13/13/1 14/14/1
f 12/12/1 14/14/1 15/15/1
f 11/11/1 16/16/1 13/13/1
f 11/11/1 13/13/1 12/12/1
f 11/11/1 17/17/1 16/16/1
f 11/11/1 18/18/1 17/17/1
f 11/11/1 19/19/1 18/18/1
f 20/20/1 21/21/1 19/19/1
f 20/20/1 19/19/1 11/11/1
f 20/20/1 22/22/1 21/21/1
f 20/20/1 23/23/1 22/22/1
f 24/24/1 25/25/1 23/23/1
f 24/24/1 23/23/1 20/20/1
f 26/26/1 27/27/1 28/28/1
f 26/26/1 28/28/1 24/24/1
f 24/24/1 28/28/1 29/29/1
f 24/24/1 29/29/1 30/30/1
f 24/24/1 30/30/1 31/31/1
f 24/24/1 31/31/1 25/25/1
f 32/32/1 26/26/1 33/33/1
f 32/32/1 33/33/1 34/34/1
f 35/35/2 34/34/2 33/33/2
f 35/35/3 33/33/3 36/36/3
f 32/32/1 37/37/1 38/38/1
f 32/32/1 38/38/1 26/26/1
f 26/26/1 38/38/1 39/39/1
f 26/26/1 39/39/1 40/40/1
f 26/26/1 40/40/1 41/41/1
f 26/26/1 41/41/1 42/42/1
f 26/26/1 42/42/1 27/27/1
f 43/43/1 44/44/1 37/37/1
f 43/43/1 37/37/1 32/32/1
f 45/45/1 46/46/1 44/44/1
f 45/45/1 44/44/1 43/43/1
f 47/47/1 48/48/1 49/49/1
f 47/47/1 49/49/1 45/45/1
f 45/45/1 49/49/1 50/50/1
f 45/45/1 50/50/1 46/46/1
f 47/47/1 51/51/1 48/48/1
f 47/47/1 52/52/1 51/51/1
f 53/53/1 54/54/1 55/55/1
f 53/53/1 55/55/1 47/47/1
f 47/47/1 55/55/1 56/56/1
f 47/47/1 56/56/1 52/52/1
f 6/6/1 57/57/1 54/54/1
f 6/6/1 54/54/1 53/53/1
f 6/6/1 5/5/1 58/58/1
f 6/6/1 58/58/1 59/59/1
f 6/6/1 59/59/1 60/60/1
f 6/6/1 60/60/1 61/61/1
f 6/6/1 61/61/1 57/57/1
f 5/5/1 62/62/1 58/58/1
f 5/5/1 63/63/1 62/62/1
f 5/5/1 15/15/1 14/14/1
f 5/5/1 14/14/1 63/63/1
f 64/64/1 65/65/1 66/66/1
f 64/64/1 66/66/1 45/45/1
f 65/65/1 64/64/1 67/67/1
f 65/65/1 67/67/1 68/68/1
f 47/47/1 45/45/1 66/66/1
s 1
f 69/69/4 70/70/5 71/71/6
f 69/69/4 71/71/6 72/72/7
f 73/73/8 74/74/9 75/75/10
f 73/73/8 75/75/10 76/76/11
f 76/76/11 75/75/10 77/77/12
f 76/76/11 77/77/12 78/78/12
f 78/78/12 77/77/12 79/79/13
f 78/78/12 79/79/13 80/80/13
f 80/80/13 79/79/13 81/81/14
f 80/80/13 81/81/14 82/82/14
f 82/82/14 81/81/14 70/70/5
f 82/82/14 70/70/5 69/69/4
f 83/83/15 74/74/9 73/73/8
f 72/72/7 71/71/6 84/84/16
s 0
f 85/85/17 86/86/17 87/87/17
f 85/85/17 87/87/17 88/88/17
f 89/89/1 90/90/1 91/91/1
f 89/89/1 91/91/1 92/92/1
f 87/93/18 89/94/18 92/95/18
f 87/93/18 92/95/18 88/85/18
f 85/96/19 91/85/19 90/97/19
f 85/96/19 90/97/19 86/98/19
f 86/99/13 90/100/13 89/101/13
f 86/99/13 89/101/13 87/102/13
f 45/103/20 43/104/20 95/105/20
f 45/103/20 95/105/20 94/106/20
f 43/104/21 32/107/21 96/108/21
f 43/104/21 96/108/21 95/105/21
f 101/109/17 102/110/17 103/111/17
f 101/109/17 103/111/17 104/112/17
f 104/112/17 100/113/17 99/114/17
f 104/112/17 99/114/17 101/109/17
f 105/115/22 106/116/22 107/117/22
f 105/115/23 107/117/23 108/118/23
f 105/115/24 109/119/24 106/116/24
f 105/115/25 110/120/25 109/119/25
f 111/121/26 112/122/26 113/123/26
f 111/121/27 113/123/27 114/124/27
f 111/121/28 114/124/28 115/125/28
f 111/121/29 115/125/29 110/120/29
f 111/121/30 110/120/30 105/115/30
f 111/121/31 116/126/31 117/127/31
f 111/121/32 117/127/32 112/122/32
f 98/114/33 118/128/33 119/129/33
f 98/114/34 119/129/34 120/130/34
f 116/126/35 98/114/35 120/130/35
f 116/126/36 120/130/36 117/127/36
f 98/114/37 121/131/37 118/128/37
f 98/114/38 122/132/38 121/131/38
f 100/113/39 123/133/39 124/134/39
f 100/113/40 124/134/40 125/135/40
f 98/114/41 100/113/41 125/135/41
f 98/114/42 125/135/42 122/132/42
f 100/113/43 126/136/43 127/137/43
f 100/113/44 127/137/44 123/133/44
f 126/136/45 128/138/45 129/139/45
f 126/136/46 129/139/46 127/137/46
f 130/140/47 131/141/47 132/142/47
f 130/140/48 132/142/48 133/143/48
f 130/140/49 133/143/49 134/144/49
f 130/140/50 134/144/50 135/145/50
f 130/140/51 135/145/51 136/146/51
f 128/138/52 130/140/52 136/146/52
f 128/138/53 136/146/53 129/139/53
f 137/147/54 138/148/54 139/149/54
f 137/147/55 139/149/55 140/150/55
f 128/138/17 140/150/17 139/149/17
f 128/138/17 139/149/17 130/140/17
f 141/151/56 142/152/56 143/153/56
f 141/151/57 143/153/57 144/154/57
f 141/151/58 144/154/58 145/155/58
f 141/151/59 145/155/59 146/156/59
f 130/140/60 141/151/60 146/156/60
f 130/140/61 146/156/61 131/141/61
f 141/151/62 147/157/62 148/158/62
f 141/151/63 148/158/63 142/152/63
f 147/157/64 149/159/64 148/158/64
f 147/157/65 150/160/65 149/159/65
f 147/157/66 151/161/66 152/162/66
f 147/157/67 152/162/67 150/160/67
f 151/161/68 153/163/68 152/162/68
f 151/161/69 154/164/69 153/163/69
f 151/161/70 155/165/70 154/164/70
f 151/161/71 156/166/71 157/167/71
f 151/161/72 157/167/72 155/165/72
f 156/166/73 108/118/73 107/117/73
f 156/166/74 107/117/74 157/167/74
f 151/161/17 158/168/17 159/169/17
f 151/161/17 159/169/17 156/166/17
f 158/168/17 160/170/17 161/171/17
f 158/168/17 161/171/17 159/169/17
f 162/172/17 111/121/17 105/115/17
f 162/172/17 105/115/17 163/173/17
f 164/174/17 162/172/17 163/173/17
f 164/174/17 163/173/17 165/175/17
f 47/176/18 66/177/18 97/178/18
f 47/176/18 97/178/18 93/179/18
f 30/30/1 166/180/1 31/31/1
f 55/55/1 54/54/1 166/180/1
f 200/181/17 202/182/17 203/183/17
f 31/31/1 166/180/1 25/25/1
f 23/23/1 25/25/1 166/180/1
f 23/23/1 166/180/1 22/22/1
f 21/21/1 22/22/1 166/180/1
f 21/21/1 166/180/1 19/19/1
f 18/18/1 19/19/1 166/180/1
f 18/18/1 166/180/1 17/17/1
f 16/16/1 17/17/1 166/180/1
f 16/16/1 166/180/1 13/13/1
f 13/13/1 166/180/1 14/14/1
f 63/63/1 14/14/1 166/180/1
f 63/63/1 166/180/1 62/62/1
f 62/62/1 166/180/1 58/58/1
f 58/58/1 166/180/1 59/59/1
f 59/59/1 166/180/1 60/60/1
f 60/60/1 166/180/1 61/61/1
f 57/57/1 61/61/1 166/180/1
f 57/57/1 166/180/1 54/54/1
f 30/30/1 29/29/1 166/180/1
f 28/28/1 166/180/1 29/29/1
f 27/27/1 166/180/1 28/28/1
f 27/27/1 42/42/1 166/180/1
f 41/41/1 166/180/1 42/42/1
f 41/41/1 40/40/1 166/180/1
f 39/39/1 166/180/1 40/40/1
f 39/39/1 38/38/1 166/180/1
f 37/37/1 166/180/1 38/38/1
f 37/37/1 44/44/1 166/180/1
f 46/46/1 166/180/1 44/44/1
f 46/46/1 50/50/1 166/180/1
f 49/49/1 166/180/1 50/50/1
f 48/48/1 166/180/1 49/49/1
f 48/48/1 51/51/1 166/180/1
f 52/52/1 166/180/1 51/51/1
f 52/52/1 56/56/1 166/180/1
f 55/55/1 166/180/1 56/56/1
f 120/130/17 119/129/17 167/184/17
f 118/128/17 167/184/17 119/129/17
f 118/128/17 121/131/17 167/184/17
f 122/132/17 167/184/17 121/131/17
f 122/132/17 125/135/17 167/184/17
f 125/135/17 124/134/17 167/184/17
f 123/133/17 167/184/17 124/134/17
f 123/133/17 127/137/17 167/184/17
f 129/139/17 167/184/17 127/137/17
f 129/139/17 136/146/17 167/184/17
f 135/145/17 167/184/17 136/146/17
f 135/145/17 134/144/17 167/184/17
f 133/143/17 167/184/17 134/144/17
f 133/143/17 132/142/17 167/184/17
f 131/141/17 167/184/17 132/142/17
f 131/141/17 146/156/17 167/184/17
f 146/156/17 145/155/17 167/184/17
f 144/154/17 167/184/17 145/155/17
f 112/122/17 117/127/17 167/184/17
f 112/122/17 167/184/17 113/123/17
f 114/124/17 113/123/17 167/184/17
f 115/125/17 114/124/17 167/184/17
f 110/120/17 115/125/17 167/184/17
f 109/119/17 110/120/17 167/184/17
f 106/116/17 109/119/17 167/184/17
f 106/116/17 167/184/17 107/117/17
f 157/167/17 107/117/17 167/184/17
f 155/165/17 157/167/17 167/184/17
f 155/165/17 167/184/17 154/164/17
f 153/163/17 154/164/17 167/184/17
f 153/163/17 167/184/17 152/162/17
f 150/160/17 152/162/17 167/184/17
f 150/160/17 167/184/17 149/159/17
f 148/158/17 149/159/17 167/184/17
f 148/158/17 167/184/17 142/152/17
f 143/153/17 142/152/17 167/184/17
f 200/181/17 201/182/17 202/182/17
f 120/130/17 167/184/17 117/127/17
f 144/154/17 143/153/17 167/184/17
f 170/185/17 169/186/17 178/187/17
f 170/185/17 178/187/17 179/188/17
f 180/189/75 168/190/75 174/191/75
f 173/192/76 176/193/76 182/194/76
f 183/195/1 181/196/1 180/197/1
f 183/195/1 180/197/1 182/198/1
f 182/198/1 180/197/1 174/199/1
f 182/198/1 174/199/1 173/200/1
f 181/196/1 183/195/1 184/201/1
f 181/196/1 184/201/1 185/202/1
f 179/188/17 186/203/17 187/204/17
f 179/188/17 187/204/17 170/185/17
f 88/205/77 92/206/77 91/207/77
f 88/205/77 91/207/77 85/208/77
f 68/209/78 67/210/78 103/210/78
f 68/209/78 103/210/78 102/209/78
f 2/211/79 1/212/79 164/212/79
f 2/211/79 164/212/79 165/211/79
f 10/213/80 9/214/80 161/214/80
f 10/213/80 161/214/80 160/213/80
f 95/215/81 96/216/81 128/217/81
f 95/215/81 128/217/81 126/218/81
f 94/219/82 95/215/82 126/218/82
f 94/219/82 126/218/82 100/220/82
f 35/221/83 36/222/83 138/223/83
f 35/221/83 138/223/83 137/224/83
f 173/213/84 174/214/84 175/214/84
f 173/213/84 175/214/84 172/213/84
f 169/225/17 172/226/17 175/227/17
f 169/225/17 175/227/17 178/228/17
f 187/229/85 185/230/85 184/231/85
f 194/232/77 195/233/77 193/234/77
f 194/232/77 193/234/77 192/235/77
f 194/232/86 195/233/86 197/236/86
f 194/232/86 197/236/86 196/237/86
f 188/238/19 189/239/19 190/240/19
f 188/238/19 190/240/19 191/241/19
f 192/235/87 193/234/87 189/239/87
f 192/235/87 189/239/87 188/238/87
f 196/237/18 198/242/18 199/243/18
f 196/237/18 199/243/18 197/236/18
f 10/244/88 210/245/88 7/246/88
f 12/247/89 211/248/89 8/249/89
f 6/250/90 207/251/90 4/252/90
f 4/252/91 204/253/91 1/254/91
f 7/246/92 214/255/92 11/256/92
f 8/249/93 212/257/93 9/258/93
f 3/259/94 208/260/94 5/261/94
f 2/262/95 206/263/95 3/259/95
f 34/264/96 217/265/96 32/266/96
f 34/264/97 220/267/97 219/268/97
f 64/269/98 226/270/98 67/271/98
f 65/272/99 225/273/99 66/274/99
f 33/275/100 221/276/100 36/277/100
f 68/278/101 224/279/101 65/272/101
f 26/280/102 218/281/102 33/275/102
f 45/282/103 223/283/103 64/269/103
f 183/284/18 232/285/18 184/286/18
f 181/287/19 228/288/19 180/289/19
f 182/290/104 231/291/104 183/284/104
f 185/292/105 229/293/105 181/287/105
f 234/294/1 235/295/1 236/296/1
f 234/294/1 236/296/1 237/297/1
f 235/295/1 238/298/1 239/299/1
f 235/295/1 239/299/1 236/296/1
f 238/298/1 240/300/1 241/301/1
f 238/298/1 241/301/1 239/299/1
f 240/300/1 242/302/1 243/303/1
f 240/300/1 243/303/1 241/301/1
f 244/304/1 234/294/1 237/297/1
f 244/304/1 237/297/1 245/305/1
f 246/306/1 244/304/1 245/305/1
f 246/306/1 245/305/1 247/307/1
f 248/308/1 249/309/1 246/306/1
f 248/308/1 246/306/1 247/307/1
f 100/113/17 98/114/17 99/114/17
f 5/261/106 215/310/106 12/247/106
f 180/189/75 177/311/75 168/190/75
f 173/192/76 171/312/76 176/193/76
f 187/229/85 186/313/85 185/230/85
f 10/244/88 213/314/88 210/245/88
f 12/247/89 215/310/89 211/248/89
f 6/250/90 209/315/90 207/251/90
f 4/252/91 207/251/91 204/253/91
f 7/246/92 210/245/92 214/255/92
f 8/249/93 211/248/93 212/257/93
f 3/259/94 206/263/94 208/260/94
f 2/262/95 205/316/95 206/263/95
f 34/264/96 219/268/96 217/265/96
f 34/264/97 35/317/97 220/267/97
f 64/269/98 223/283/98 226/270/98
f 65/272/99 224/279/99 225/273/99
f 33/275/100 218/281/100 221/276/100
f 68/278/101 227/318/101 224/279/101
f 26/280/102 216/319/102 218/281/102
f 45/282/103 222/320/103 223/283/103
f 183/284/18 231/291/18 232/285/18
f 181/287/19 229/293/19 228/288/19
f 182/290/104 230/321/104 231/291/104
f 185/292/105 233/322/105 229/293/105
f 5/261/107 208/260/107 215/310/107
