# Blender 4.4.1
# www.blender.org
mtllib ru_village_hut_1.mtl
o ru_village_hut_1
v -6.871046 -0.050677 4.021748
v -6.871046 2.189346 4.021747
v -6.871046 -0.050677 -4.021747
v -6.871046 2.189345 -4.021747
v -6.871046 -0.050677 -4.021747
v -6.871046 2.189345 -4.021747
v 5.904751 -0.050677 -4.021747
v 5.904751 2.189345 -4.021747
v 6.622569 -0.050677 -3.778752
v 6.622569 0.306206 -3.778752
v 6.622569 -0.050677 -2.366095
v 6.622569 0.306206 -2.366095
v -3.426893 5.120364 -3.490455
v -3.640857 4.454681 -3.519283
v -3.426893 5.122896 -3.506929
v -3.647763 4.457213 -3.539877
v -3.426893 5.122896 -3.506929
v -3.647763 4.457213 -3.539877
v -3.440700 5.130486 -3.502809
v -3.654663 4.464808 -3.531643
v -3.440700 5.130486 -3.502809
v -3.654663 4.464808 -3.531643
v -3.440700 5.127954 -3.486335
v -3.654663 4.462276 -3.515163
v -3.440700 5.127954 -3.486335
v -3.654663 4.462276 -3.515163
v -3.426893 5.120364 -3.490455
v -3.640857 4.454681 -3.519283
v -3.654663 4.462276 -3.515163
v -3.654663 4.464808 -3.531643
v -3.640857 4.454681 -3.519283
v -3.647763 4.457213 -3.539877
v -3.426893 5.122896 -3.506929
v -3.440700 5.130486 -3.502809
v -3.426893 5.120364 -3.490455
v -3.440700 5.127954 -3.486335
v -3.426893 5.059617 -3.259814
v -3.640857 4.396465 -3.288648
v -3.426893 5.064681 -3.276294
v -3.647763 4.398997 -3.305122
v -3.426893 5.064681 -3.276294
v -3.647763 4.398997 -3.305122
v -3.440700 5.072271 -3.272174
v -3.654663 4.406593 -3.301002
v -3.440700 5.072271 -3.272174
v -3.654663 4.406593 -3.301002
v -3.440700 5.069738 -3.255700
v -3.654663 4.404061 -3.284528
v -3.440700 5.069738 -3.255700
v -3.654663 4.404061 -3.284528
v -3.426893 5.059617 -3.259814
v -3.640857 4.396465 -3.288648
v -3.654663 4.404061 -3.284528
v -3.654663 4.406593 -3.301002
v -3.640857 4.396465 -3.288648
v -3.647763 4.398997 -3.305122
v -3.426893 5.064681 -3.276294
v -3.440700 5.072271 -3.272174
v -3.426893 5.059617 -3.259814
v -3.440700 5.069738 -3.255700
v -3.426893 4.988748 -3.020945
v -3.640857 4.323064 -3.049773
v -3.426893 4.991274 -3.037419
v -3.647763 4.325596 -3.066246
v -3.426893 4.991274 -3.037419
v -3.647763 4.325596 -3.066246
v -3.440700 4.998869 -3.033299
v -3.654663 4.335724 -3.062127
v -3.440700 4.998869 -3.033299
v -3.654663 4.335724 -3.062127
v -3.440700 4.996337 -3.016825
v -3.654663 4.330660 -3.045653
v -3.440700 4.996337 -3.016825
v -3.654663 4.330660 -3.045653
v -3.426893 4.988748 -3.020945
v -3.640857 4.323064 -3.049773
v -3.654663 4.330660 -3.045653
v -3.654663 4.335724 -3.062127
v -3.640857 4.323064 -3.049773
v -3.647763 4.325596 -3.066246
v -3.426893 4.991274 -3.037419
v -3.440700 4.998869 -3.033299
v -3.426893 4.988748 -3.020945
v -3.440700 4.996337 -3.016825
v -3.426893 4.930526 -2.782070
v -3.640857 4.264849 -2.810897
v -3.426893 4.933059 -2.806778
v -3.647763 4.267380 -2.835605
v -3.426893 4.933059 -2.806778
v -3.647763 4.267380 -2.835605
v -3.440700 4.940654 -2.798543
v -3.654663 4.274976 -2.827371
v -3.440700 4.940654 -2.798543
v -3.654663 4.274976 -2.827371
v -3.440700 4.938122 -2.773830
v -3.654663 4.272444 -2.802658
v -3.440700 4.938122 -2.773830
v -3.654663 4.272444 -2.802658
v -3.426893 4.930526 -2.782070
v -3.640857 4.264849 -2.810897
v -3.654663 4.272444 -2.802658
v -3.654663 4.274976 -2.827371
v -3.640857 4.264849 -2.810897
v -3.647763 4.267380 -2.835605
v -3.426893 4.933059 -2.806778
v -3.440700 4.940654 -2.798543
v -3.426893 4.930526 -2.782070
v -3.440700 4.938122 -2.773830
v -3.551129 4.282566 -1.863637
v -3.551129 4.841940 -3.646960
v -3.523521 4.282566 -1.863637
v -3.523521 4.841940 -3.646960
v -3.523521 4.282566 -1.863637
v -3.523521 4.841940 -3.646960
v -3.523521 4.307879 -1.855397
v -3.523521 4.867253 -3.638721
v -3.523521 4.307879 -1.855397
v -3.523521 4.867253 -3.638721
v -3.551129 4.307879 -1.855397
v -3.551129 4.867253 -3.638721
v -3.551129 4.307879 -1.855397
v -3.551129 4.867253 -3.638721
v -3.551129 4.282566 -1.863637
v -3.551129 4.841940 -3.646960
v -3.551129 4.867253 -3.638721
v -3.523521 4.867253 -3.638721
v -3.551129 4.841940 -3.646960
v -3.523521 4.841940 -3.646960
v -3.523521 4.282566 -1.863637
v -3.523521 4.307879 -1.855397
v -3.551129 4.282566 -1.863637
v -3.551129 4.307879 -1.855397
v -3.551129 2.966396 -2.485533
v -3.551129 4.831819 -2.403163
v -3.523521 2.966396 -2.485533
v -3.523521 4.831819 -2.403163
v -3.523521 2.966396 -2.485533
v -3.523521 4.831819 -2.403163
v -3.523521 2.963865 -2.456704
v -3.523521 4.829287 -2.378449
v -3.523521 2.963865 -2.456704
v -3.523521 4.829287 -2.378449
v -3.551129 2.963865 -2.456704
v -3.551129 4.829287 -2.378449
v -3.551129 2.963865 -2.456704
v -3.551129 4.829287 -2.378449
v -3.551129 2.966396 -2.485533
v -3.551129 4.831819 -2.403163
v -3.551129 4.829287 -2.378449
v -3.523521 4.829287 -2.378449
v -3.551129 4.831819 -2.403163
v -3.523521 4.831819 -2.403163
v -3.523521 2.966396 -2.485533
v -3.523521 2.963865 -2.456704
v -3.551129 2.966396 -2.485533
v -3.551129 2.963865 -2.456704
v 5.821924 1.427486 -2.534954
v 6.187736 1.991918 -2.534954
v 5.897851 1.379392 -2.534954
v 6.263658 1.941298 -2.534954
v 5.897851 1.379392 -2.534954
v 6.263658 1.941298 -2.534954
v 5.897851 1.379392 -2.497887
v 6.263658 1.941298 -2.497887
v 5.897851 1.379392 -2.497887
v 6.263658 1.941298 -2.497887
v 5.821924 1.427486 -2.497887
v 6.187736 1.991918 -2.497887
v 5.821924 1.427486 -2.497887
v 6.187736 1.991918 -2.497887
v 5.821924 1.427486 -2.534954
v 6.187736 1.991918 -2.534954
v 6.187736 1.991918 -2.497887
v 6.263658 1.941298 -2.497887
v 6.187736 1.991918 -2.534954
v 6.263658 1.941298 -2.534954
v 5.821924 1.427486 -2.497887
v 5.821924 1.427486 -2.534954
v 5.897851 1.379392 -2.497887
v 5.897851 1.379392 -2.534954
v 6.263658 1.941298 -3.642841
v 5.897851 1.379392 -3.642841
v 6.187736 1.991918 -3.642841
v 5.821924 1.427486 -3.642841
v 6.263658 1.941298 -3.605773
v 5.897851 1.379392 -3.605773
v 6.263658 1.941298 -3.642841
v 5.897851 1.379392 -3.642841
v 6.187736 1.991918 -3.605773
v 5.821924 1.427486 -3.605773
v 6.263658 1.941298 -3.605773
v 5.897851 1.379392 -3.605773
v 6.187736 1.991918 -3.642841
v 5.821924 1.427486 -3.642841
v 6.187736 1.991918 -3.605773
v 5.821924 1.427486 -3.605773
v 6.263658 1.941298 -3.642841
v 6.187736 1.991918 -3.642841
v 6.263658 1.941298 -3.605773
v 6.187736 1.991918 -3.605773
v 5.821924 1.427486 -3.605773
v 5.821924 1.427486 -3.642841
v 5.897851 1.379392 -3.605773
v 5.897851 1.379392 -3.642841
v 6.505234 1.996982 -3.774632
v 6.456920 1.991918 -3.774632
v 5.904751 2.118476 -3.774632
v 5.856437 2.110881 -3.774632
v 6.505234 1.996982 -2.370215
v 6.456920 1.991918 -2.370215
v 6.505234 1.996982 -3.774632
v 6.456920 1.991918 -3.774632
v 5.904751 2.118476 -2.370215
v 5.856437 2.110881 -2.370215
v 6.505234 1.996982 -2.370215
v 6.456920 1.991918 -2.370215
v 5.904751 2.118476 -3.774632
v 5.856437 2.110881 -3.774632
v 5.904751 2.118476 -2.370215
v 5.856437 2.110881 -2.370215
v 6.505234 1.996982 -3.774632
v 5.904751 2.118476 -3.774632
v 6.505234 1.996982 -2.370215
v 5.904751 2.118476 -2.370215
v 5.856437 2.110881 -2.370215
v 5.856437 2.110881 -3.774632
v 6.456920 1.991918 -2.370215
v 6.456920 1.991918 -3.774632
v 6.436213 1.991918 -3.688142
v 6.394799 1.923581 -3.688142
v 5.884044 2.103291 -3.688142
v 5.842631 2.034948 -3.688142
v 6.436213 1.991918 -2.452585
v 6.394799 1.923581 -2.452585
v 6.436213 1.991918 -3.688142
v 6.394799 1.923581 -3.688142
v 5.884044 2.103291 -2.452585
v 5.842631 2.034948 -2.452585
v 6.436213 1.991918 -2.452585
v 6.394799 1.923581 -2.452585
v 5.884044 2.103291 -3.688142
v 5.842631 2.034948 -3.688142
v 5.884044 2.103291 -2.452585
v 5.842631 2.034948 -2.452585
v 6.436213 1.991918 -3.688142
v 5.884044 2.103291 -3.688142
v 6.436213 1.991918 -2.452585
v 5.884044 2.103291 -2.452585
v 5.842631 2.034948 -2.452585
v 5.842631 2.034948 -3.688142
v 6.394799 1.923581 -2.452585
v 6.394799 1.923581 -3.688142
v 7.064302 0.065754 -3.700502
v 7.064302 -0.050677 -3.700502
v 6.836533 0.065754 -3.700502
v 6.836533 -0.050677 -3.700502
v 7.064302 0.065754 -2.444350
v 7.064302 -0.050677 -2.444350
v 7.064302 0.065754 -3.700502
v 7.064302 -0.050677 -3.700502
v 6.836533 0.065754 -2.444350
v 6.836533 -0.050677 -2.444350
v 7.064302 0.065754 -2.444350
v 7.064302 -0.050677 -2.444350
v 6.836533 0.065754 -3.700502
v 6.836533 -0.050677 -3.700502
v 6.836533 0.065754 -2.444350
v 6.836533 -0.050677 -2.444350
v 7.064302 0.065754 -3.700502
v 6.836533 0.065754 -3.700502
v 7.064302 0.065754 -2.444350
v 6.836533 0.065754 -2.444350
v 6.836533 -0.050677 -2.444350
v 6.836533 -0.050677 -3.700502
v 7.064302 -0.050677 -2.444350
v 7.064302 -0.050677 -3.700502
v 6.843439 0.192307 -3.737564
v 6.843439 -0.050677 -3.737564
v 6.608763 0.192307 -3.737564
v 6.608763 -0.050677 -3.737564
v 6.843439 0.192307 -2.403162
v 6.843439 -0.050677 -2.403162
v 6.843439 0.192307 -3.737564
v 6.843439 -0.050677 -3.737564
v 6.608763 0.192307 -2.403162
v 6.608763 -0.050677 -2.403162
v 6.843439 0.192307 -2.403162
v 6.843439 -0.050677 -2.403162
v 6.608763 0.192307 -3.737564
v 6.608763 -0.050677 -3.737564
v 6.608763 0.192307 -2.403162
v 6.608763 -0.050677 -2.403162
v 6.843439 0.192307 -3.737564
v 6.608763 0.192307 -3.737564
v 6.843439 0.192307 -2.403162
v 6.608763 0.192307 -2.403162
v 6.608763 -0.050677 -2.403162
v 6.608763 -0.050677 -3.737564
v 6.843439 -0.050677 -2.403162
v 6.843439 -0.050677 -3.737564
v 6.622569 0.306206 -3.778752
v 6.622569 -0.050677 -3.778752
v 5.890945 0.306206 -3.778752
v 5.890945 -0.050677 -3.778752
v 6.622569 -0.050677 -2.366095
v 6.622569 0.306206 -2.366095
v 5.890945 -0.050677 -2.366095
v 5.890945 0.306206 -2.366095
v 5.890945 -0.050677 -2.366095
v 5.890945 0.306206 -2.366095
v 5.890945 -0.050677 -3.778752
v 5.890945 0.306206 -3.778752
v 5.890945 0.306206 -2.366095
v 6.622569 0.306206 -2.366095
v 5.890945 0.306206 -3.778752
v 6.622569 0.306206 -3.778752
v 6.622569 -0.050677 -3.778752
v 6.622569 -0.050677 -2.366095
v 5.890945 -0.050677 -3.778752
v 5.890945 -0.050677 -2.366095
v 5.904751 0.308738 -3.560471
v 5.904751 1.948894 -3.560471
v 5.918552 0.308738 -3.560471
v 5.918552 1.948894 -3.560471
v 5.918552 0.308738 -3.560471
v 5.918552 1.948894 -3.560471
v 5.918552 0.308738 -2.567902
v 5.918552 1.948894 -2.567902
v 5.918552 0.308738 -2.567902
v 5.918552 1.948894 -2.567902
v 5.904751 0.308738 -2.567902
v 5.904751 1.948894 -2.567902
v 5.918552 1.948894 -2.567902
v 5.918552 1.948894 -3.560471
v 5.904751 1.948894 -2.567902
v 5.904751 1.948894 -3.560471
v 5.904751 0.308738 -3.560471
v 5.918552 0.308738 -3.560471
v 5.904751 0.308738 -2.567902
v 5.918552 0.308738 -2.567902
v 2.350169 1.131345 -4.021747
v 2.350169 1.670470 -4.021747
v 2.350169 1.131345 -4.046455
v 2.350169 1.670470 -4.046455
v 2.350169 1.131345 -4.046455
v 2.350169 1.670470 -4.046455
v 3.178416 1.131345 -4.046455
v 3.178416 1.670470 -4.046455
v 3.178416 1.131345 -4.046455
v 3.178416 1.670470 -4.046455
v 3.178416 1.131345 -4.021747
v 3.178416 1.670470 -4.021747
v 3.178416 1.670470 -4.046455
v 2.350169 1.670470 -4.046455
v 3.178416 1.670470 -4.021747
v 2.350169 1.670470 -4.021747
v 2.350169 1.131345 -4.021747
v 2.350169 1.131345 -4.046455
v 3.178416 1.131345 -4.021747
v 3.178416 1.131345 -4.046455
v -7.064302 2.090631 -4.202960
v -7.064302 2.108355 -4.215314
v 6.098008 2.090631 -4.202960
v 6.098008 2.108349 -4.215314
v -7.064302 4.452155 0.006177
v -7.064302 4.431906 -0.006177
v -7.064302 2.108355 4.215314
v -7.064302 2.090632 4.202960
v 6.098008 4.431900 0.006177
v 6.098008 4.452149 -0.006177
v -7.064302 4.431906 0.006177
v -7.064302 4.452155 -0.006177
v -7.064302 4.431906 0.006177
v -7.064302 4.452155 -0.006177
v -7.064302 2.090631 -4.202960
v -7.064302 2.108355 -4.215314
v -7.064302 4.452155 -0.006177
v 6.098008 4.452149 -0.006177
v -7.064302 2.108355 -4.215314
v 6.098008 2.108349 -4.215314
v 6.098008 2.090631 -4.202960
v 6.098008 4.431900 0.006177
v -7.064302 2.090631 -4.202960
v -7.064302 4.431906 0.006177
v -7.064302 4.431906 -0.006177
v -7.064302 4.452155 0.006177
v 6.098008 4.431900 -0.006177
v 6.098008 4.452149 0.006177
v 6.098008 4.431900 -0.006177
v 6.098008 4.452149 0.006177
v 6.098008 2.090632 4.202960
v 6.098008 2.108350 4.215314
v 6.098008 2.090632 4.202960
v 6.098008 2.108350 4.215314
v -7.064302 2.090632 4.202960
v -7.064302 2.108355 4.215314
v -6.871046 2.189346 4.021747
v -6.871046 -0.050677 4.021748
v 5.904751 2.189346 4.021747
v 5.904751 -0.050677 4.021748
v 6.098008 4.452149 0.006177
v -7.064302 4.452155 0.006177
v 6.098008 2.108350 4.215314
v -7.064302 2.108355 4.215314
v 6.098008 4.431900 -0.006177
v 6.098008 2.090632 4.202960
v -7.064302 4.431906 -0.006177
v -7.064302 2.090632 4.202960
v 6.098008 2.090631 -4.202960
v 6.098008 2.108349 -4.215314
v 6.098008 4.431900 0.006177
v 6.098008 4.452149 -0.006177
v 5.904751 2.189346 4.021747
v 5.904751 -0.050677 4.021748
v 5.904751 2.189345 -4.021747
v 5.904751 -0.050677 -4.021747
v -6.871046 2.189345 -4.021747
v -6.871046 2.189346 4.021747
v -6.871046 4.429374 -0.002057
v 5.904751 2.189346 4.021747
v 5.904751 2.189345 -4.021747
v 5.904751 4.429374 -0.002057
vn -1.0000 -0.0000 -0.0000
vn -0.0000 -0.0000 -1.0000
vn 1.0000 -0.0000 -0.0000
vn 0.9516 -0.3038 -0.0467
vn 0.8988 -0.2816 -0.3360
vn -0.2219 0.1215 -0.9675
vn -0.6281 0.2340 -0.7421
vn -0.9516 0.3038 0.0467
vn 0.2258 -0.1145 0.9674
vn 0.2257 -0.1144 0.9674
vn -0.5076 -0.8516 -0.1309
vn -0.6595 -0.7403 0.1302
vn 0.5073 0.8518 0.1309
vn 0.5074 0.8517 0.1309
vn 0.9488 -0.3021 -0.0928
vn 0.8719 -0.2717 -0.4073
vn -0.2247 0.1164 -0.9675
vn -0.3713 0.1590 -0.9148
vn 0.2094 -0.1094 0.9717
vn 0.2255 -0.1148 0.9675
vn -0.6795 -0.7124 0.1754
vn 0.5227 0.8149 0.2504
vn 0.6101 0.7832 0.1204
vn 0.9516 -0.3038 -0.0466
vn 0.8720 -0.2717 -0.4073
vn -0.2246 0.1164 -0.9675
vn -0.3365 0.1490 -0.9298
vn -0.9512 0.3049 0.0469
vn -0.9491 0.3011 0.0925
vn 0.2257 -0.1145 0.9674
vn -0.5229 -0.8147 -0.2505
vn -0.7602 -0.6095 0.2251
vn 0.5075 0.8517 0.1306
vn 0.9520 -0.3046 -0.0312
vn 0.9134 -0.2907 -0.2851
vn -0.4286 0.1805 -0.8852
vn -0.6280 0.2340 -0.7422
vn -0.9520 0.3046 0.0312
vn 0.4309 -0.1768 0.8849
vn -0.5196 -0.8500 -0.0871
vn -0.6717 -0.7322 0.1127
vn 0.5195 0.8500 0.0871
vn 0.5196 0.8500 0.0871
vn -0.0000 -0.9542 -0.2993
vn -0.0000 0.9542 0.2993
vn -0.0000 0.3095 -0.9509
vn -0.0000 -0.3095 0.9509
vn -0.0000 0.0441 -0.9990
vn -0.0000 -0.0419 0.9991
vn -0.0000 0.9948 0.1019
vn -0.0000 -0.9962 -0.0875
vn 0.8381 -0.5456 -0.0000
vn -0.0000 -0.0000 1.0000
vn -0.8392 0.5439 -0.0000
vn 0.5547 0.8320 -0.0000
vn -0.5351 -0.8448 -0.0000
vn 0.1042 -0.9946 -0.0000
vn -0.1553 0.9879 -0.0000
vn 0.1983 0.9801 -0.0000
vn -0.1943 -0.9809 -0.0000
vn 0.8552 -0.5183 -0.0000
vn -0.8552 0.5182 -0.0000
vn 0.1977 0.9803 -0.0000
vn -0.1977 -0.9803 -0.0000
vn -0.0000 1.0000 -0.0000
vn -0.0000 -1.0000 -0.0000
vn -0.0000 -0.5718 -0.8204
vn -0.0000 -0.5720 -0.8203
vn -0.0000 0.5208 0.8537
vn -0.0000 0.8737 -0.4865
vn -0.0000 -0.8739 0.4861
vn -0.0000 0.5208 -0.8537
vn -0.0000 -0.5720 0.8203
vn -0.0000 -0.5718 0.8204
vn -0.0000 0.8737 0.4865
vn -0.0000 -0.8739 -0.4861
vt 0.000732 0.014124
vt 0.000732 0.528531
vt 0.743072 0.014124
vt 0.743072 0.528531
vt 0.999871 0.014002
vt 0.999871 0.528409
vt 0.000610 0.014002
vt 0.000610 0.528409
vt 0.785404 0.531094
vt 0.785404 0.690603
vt 0.716599 0.531094
vt 0.716599 0.690603
vt 0.704765 0.530850
vt 0.704765 0.643739
vt 0.694274 0.530850
vt 0.694274 0.643739
vt 0.716477 0.529751
vt 0.918501 0.529751
vt 0.716477 0.553428
vt 0.918501 0.553428
vt 0.551906 0.999003
vt 0.551906 0.858289
vt 0.669631 0.999003
vt 0.669631 0.858289
vt 0.403072 0.131162
vt 0.403072 0.000943
vt 0.492006 0.131162
vt 0.492006 0.000943
vt 0.780036 0.582229
vt 0.780036 0.534145
vt 0.756857 0.582229
vt 0.756857 0.534145
vt 0.860919 0.580643
vt 0.860919 0.534267
vt 0.756613 0.580643
vt 0.756613 0.534267
vt 0.914231 0.563679
vt 0.914231 0.763706
vt 0.793334 0.563679
vt 0.793334 0.763706
vt 0.860065 0.656675
vt 0.860065 0.530362
vt 0.888002 0.656675
vt 0.888002 0.530362
vt 0.815537 0.649353
vt 0.815537 0.530362
vt 0.888002 0.649353
vt 0.860065 0.657651
vt 0.888002 0.657651
vt 0.999871 0.529996
vt 0.999871 0.999735
vt 0.920453 0.529996
vt 0.920453 0.999735
vt 0.256068 0.385010
vt 0.224105 0.385010
vt 0.256068 0.378419
vt 0.224105 0.378419
vt 0.271927 0.302875
vt 0.271927 0.393553
vt 0.221177 0.302875
vt 0.221177 0.393553
vt 0.255702 0.384888
vt 0.223861 0.384888
vt 0.255702 0.378297
vt 0.223861 0.378297
vt 0.268145 0.384888
vt 0.230571 0.384888
vt 0.268145 0.378297
vt 0.230571 0.378297
vt 0.262534 0.378297
vt 0.262534 0.384888
vt 0.224959 0.378297
vt 0.224959 0.384888
vt 0.000610 0.998881
vt 0.714403 0.998881
vt 0.000610 0.530240
vt 0.714403 0.530240
vt 0.000610 0.000333
vt 0.999871 0.000333
vt 0.000732 0.527799
vt 0.000732 0.000089
vt 0.742950 0.527799
vt 0.742950 0.000089
vt 0.716233 0.530484
vt 0.918623 0.530484
vt 0.817489 0.999613
s 0
usemtl mat_hut
f 1/1/1 2/2/1 3/3/1
f 2/2/1 4/4/1 3/3/1
f 5/5/2 6/6/2 7/7/2
f 6/6/2 8/8/2 7/7/2
f 9/9/3 10/10/3 11/11/3
f 10/10/3 12/12/3 11/11/3
f 13/13/4 14/14/4 15/15/4
f 14/14/5 16/16/5 15/15/5
f 17/13/6 18/14/6 19/15/6
f 18/14/7 20/16/7 19/15/7
f 21/13/8 22/14/8 23/15/8
f 22/14/8 24/16/8 23/15/8
f 25/13/9 26/14/9 27/15/9
f 26/14/10 28/16/10 27/15/10
f 29/13/11 30/14/11 31/15/11
f 30/14/12 32/16/12 31/15/12
f 33/14/13 34/16/13 35/13/13
f 34/16/14 36/15/14 35/13/14
f 37/13/15 38/14/15 39/15/15
f 38/14/16 40/16/16 39/15/16
f 41/13/17 42/14/17 43/15/17
f 42/14/18 44/16/18 43/15/18
f 45/13/8 46/14/8 47/15/8
f 46/14/8 48/16/8 47/15/8
f 49/13/19 50/14/19 51/15/19
f 50/14/20 52/16/20 51/15/20
f 53/13/11 54/14/11 55/15/11
f 54/14/21 56/16/21 55/15/21
f 57/14/22 58/16/22 59/13/22
f 58/16/23 60/15/23 59/13/23
f 61/13/24 62/14/24 63/15/24
f 62/14/25 64/16/25 63/15/25
f 65/13/26 66/14/26 67/15/26
f 66/14/27 68/16/27 67/15/27
f 69/13/28 70/14/28 71/15/28
f 70/14/29 72/16/29 71/15/29
f 73/13/9 74/14/9 75/15/9
f 74/14/30 76/16/30 75/15/30
f 77/13/31 78/14/31 79/15/31
f 78/14/32 80/16/32 79/15/32
f 81/14/33 82/16/33 83/13/33
f 82/16/13 84/15/13 83/13/13
f 85/13/34 86/14/34 87/15/34
f 86/14/35 88/16/35 87/15/35
f 89/13/36 90/14/36 91/15/36
f 90/14/37 92/16/37 91/15/37
f 93/13/38 94/14/38 95/15/38
f 94/14/38 96/16/38 95/15/38
f 97/13/39 98/14/39 99/15/39
f 98/14/39 100/16/39 99/15/39
f 101/13/40 102/14/40 103/15/40
f 102/14/41 104/16/41 103/15/41
f 105/14/42 106/16/42 107/13/42
f 106/16/43 108/15/43 107/13/43
f 109/13/44 110/14/44 111/15/44
f 110/14/44 112/16/44 111/15/44
f 113/13/3 114/14/3 115/15/3
f 114/14/3 116/16/3 115/15/3
f 117/13/45 118/14/45 119/15/45
f 118/14/45 120/16/45 119/15/45
f 121/13/1 122/14/1 123/15/1
f 122/14/1 124/16/1 123/15/1
f 125/13/46 126/14/46 127/15/46
f 126/14/46 128/16/46 127/15/46
f 129/14/47 130/16/47 131/13/47
f 130/16/47 132/15/47 131/13/47
f 133/13/48 134/14/48 135/15/48
f 134/14/48 136/16/48 135/15/48
f 137/13/3 138/14/3 139/15/3
f 138/14/3 140/16/3 139/15/3
f 141/13/49 142/14/49 143/15/49
f 142/14/49 144/16/49 143/15/49
f 145/13/1 146/14/1 147/15/1
f 146/14/1 148/16/1 147/15/1
f 149/13/50 150/14/50 151/15/50
f 150/14/50 152/16/50 151/15/50
f 153/14/51 154/16/51 155/13/51
f 154/16/51 156/15/51 155/13/51
f 157/17/2 158/18/2 159/19/2
f 158/18/2 160/20/2 159/19/2
f 161/17/52 162/18/52 163/19/52
f 162/18/52 164/20/52 163/19/52
f 165/17/53 166/18/53 167/19/53
f 166/18/53 168/20/53 167/19/53
f 169/17/54 170/18/54 171/19/54
f 170/18/54 172/20/54 171/19/54
f 173/17/55 174/18/55 175/19/55
f 174/18/55 176/20/55 175/19/55
f 177/19/56 178/17/56 179/20/56
f 178/17/56 180/18/56 179/20/56
f 181/20/2 182/19/2 183/18/2
f 182/19/2 184/17/2 183/18/2
f 185/20/52 186/19/52 187/18/52
f 186/19/52 188/17/52 187/18/52
f 189/20/53 190/19/53 191/18/53
f 190/19/53 192/17/53 191/18/53
f 193/20/54 194/19/54 195/18/54
f 194/19/54 196/17/54 195/18/54
f 197/20/55 198/19/55 199/18/55
f 198/19/55 200/17/55 199/18/55
f 201/19/56 202/17/56 203/20/56
f 202/17/56 204/18/56 203/20/56
f 205/21/2 206/22/2 207/23/2
f 206/22/2 208/24/2 207/23/2
f 209/21/57 210/22/57 211/23/57
f 210/22/57 212/24/57 211/23/57
f 213/21/53 214/22/53 215/23/53
f 214/22/53 216/24/53 215/23/53
f 217/21/58 218/22/58 219/23/58
f 218/22/58 220/24/58 219/23/58
f 221/21/59 222/22/59 223/23/59
f 222/22/59 224/24/59 223/23/59
f 225/22/60 226/24/60 227/21/60
f 226/24/60 228/23/60 227/21/60
f 229/25/2 230/26/2 231/27/2
f 230/26/2 232/28/2 231/27/2
f 233/25/61 234/26/61 235/27/61
f 234/26/61 236/28/61 235/27/61
f 237/25/53 238/26/53 239/27/53
f 238/26/53 240/28/53 239/27/53
f 241/25/62 242/26/62 243/27/62
f 242/26/62 244/28/62 243/27/62
f 245/25/63 246/26/63 247/27/63
f 246/26/63 248/28/63 247/27/63
f 249/26/64 250/28/64 251/25/64
f 250/28/64 252/27/64 251/25/64
f 253/29/2 254/30/2 255/31/2
f 254/30/2 256/32/2 255/31/2
f 257/33/3 258/34/3 259/35/3
f 258/34/3 260/36/3 259/35/3
f 261/29/53 262/30/53 263/31/53
f 262/30/53 264/32/53 263/31/53
f 265/33/1 266/34/1 267/35/1
f 266/34/1 268/36/1 267/35/1
f 269/37/65 270/38/65 271/39/65
f 270/38/65 272/40/65 271/39/65
f 273/38/66 274/40/66 275/37/66
f 274/40/66 276/39/66 275/37/66
f 277/41/2 278/42/2 279/43/2
f 278/42/2 280/44/2 279/43/2
f 281/45/3 282/46/3 283/47/3
f 282/46/3 284/44/3 283/47/3
f 285/41/53 286/42/53 287/43/53
f 286/42/53 288/44/53 287/43/53
f 289/45/1 290/46/1 291/47/1
f 290/46/1 292/44/1 291/47/1
f 293/48/65 294/42/65 295/49/65
f 294/42/65 296/44/65 295/49/65
f 297/42/66 298/44/66 299/48/66
f 298/44/66 300/49/66 299/48/66
f 301/12/2 302/11/2 303/10/2
f 302/11/2 304/9/2 303/10/2
f 305/9/53 306/10/53 307/11/53
f 306/10/53 308/12/53 307/11/53
f 309/9/1 310/10/1 311/11/1
f 310/10/1 312/12/1 311/11/1
f 313/9/65 314/10/65 315/11/65
f 314/10/65 316/12/65 315/11/65
f 317/10/66 318/12/66 319/9/66
f 318/12/66 320/11/66 319/9/66
f 321/50/2 322/51/2 323/52/2
f 322/51/2 324/53/2 323/52/2
f 325/50/3 326/51/3 327/52/3
f 326/51/3 328/53/3 327/52/3
f 329/50/53 330/51/53 331/52/53
f 330/51/53 332/53/53 331/52/53
f 333/50/65 334/51/65 335/52/65
f 334/51/65 336/53/65 335/52/65
f 337/51/66 338/53/66 339/50/66
f 338/53/66 340/52/66 339/50/66
f 341/54/1 342/55/1 343/56/1
f 342/55/1 344/57/1 343/56/1
f 345/58/2 346/59/2 347/60/2
f 346/59/2 348/61/2 347/60/2
f 349/62/3 350/63/3 351/64/3
f 350/63/3 352/65/3 351/64/3
f 353/66/65 354/67/65 355/68/65
f 354/67/65 356/69/65 355/68/65
f 357/70/66 358/71/66 359/72/66
f 358/71/66 360/73/66 359/72/66
f 361/74/67 362/75/67 363/76/67
f 362/75/68 364/77/68 363/76/68
f 365/75/1 366/74/1 367/77/1
f 366/74/1 368/76/1 367/77/1
f 369/74/69 370/75/69 371/76/69
f 370/75/69 372/77/69 371/76/69
f 373/74/1 374/75/1 375/76/1
f 374/75/1 376/77/1 375/76/1
f 377/74/70 378/75/70 379/76/70
f 378/75/70 380/77/70 379/76/70
f 381/75/71 382/77/71 383/74/71
f 382/77/71 384/76/71 383/74/71
f 385/76/72 386/77/72 387/74/72
f 386/77/72 388/75/72 387/74/72
f 389/76/3 390/77/3 391/74/3
f 390/77/3 392/75/3 391/74/3
f 393/76/73 394/77/73 395/74/73
f 394/77/74 396/75/74 395/74/74
f 397/8/53 398/78/53 399/6/53
f 398/78/53 400/79/53 399/6/53
f 401/75/75 402/74/75 403/77/75
f 402/74/75 404/76/75 403/77/75
f 405/77/76 406/75/76 407/76/76
f 406/75/76 408/74/76 407/76/76
f 409/74/3 410/75/3 411/76/3
f 410/75/3 412/77/3 411/76/3
f 413/80/3 414/81/3 415/82/3
f 414/81/3 416/83/3 415/82/3
f 417/84/1 418/85/1 419/86/1
f 420/84/3 421/85/3 422/86/3
