# Blender 4.4.1
# www.blender.org
mtllib ru_village_hut_2.mtl
o ru_village_hut_2
v -0.131658 -0.055443 6.683536
v 4.935967 -0.055443 6.683536
v -0.131658 2.412922 6.683536
v 4.935967 2.412922 6.683536
v -0.131658 1.753852 5.918937
v -0.022357 1.753852 5.918937
v -0.131658 0.108275 5.918937
v -0.022357 0.108275 5.918937
v -4.935967 1.934364 3.564777
v -4.831630 1.934364 3.564777
v -4.935967 0.947857 3.564777
v -4.831630 0.947857 3.564777
v -0.265804 2.366747 6.857919
v -0.265804 2.383535 6.864624
v -0.265804 2.962844 4.658015
v -0.265804 2.979637 4.658015
v -0.111784 0.108274 -4.470222
v -0.111784 -0.055444 -4.470222
v -0.111784 0.108274 -6.455498
v -0.111784 -0.055444 -6.455498
v -1.060722 0.108274 -4.470222
v -1.060722 -0.055444 -4.470222
v -0.111784 0.108274 -4.470222
v -0.111784 -0.055444 -4.470222
v -3.425618 1.934363 -4.403151
v -3.425618 0.947856 -4.403151
v -3.425618 1.934363 -4.490343
v -3.425618 0.947856 -4.490343
v -5.085011 2.979637 4.658015
v -0.265804 2.979637 4.658015
v -5.085011 4.239004 0.003355
v 5.085011 4.239004 0.003355
v 5.085011 2.383535 6.864624
v -0.265804 2.383535 6.864624
v -0.111784 0.108274 -6.455498
v -1.060722 0.108274 -6.455498
v -0.111784 0.108274 -4.470222
v -1.060722 0.108274 -4.470222
v -1.060722 -0.055444 -4.470222
v -1.060722 -0.055444 -6.455498
v -0.111784 -0.055444 -4.470222
v -0.111784 -0.055444 -6.455498
v -0.111784 0.108275 4.423273
v -0.111784 -0.055444 4.423273
v -1.060722 0.108275 4.423273
v -1.060722 -0.055444 4.423273
v -1.060722 0.108275 4.423273
v -1.060722 -0.055444 4.423273
v -1.060722 0.108275 6.408549
v -1.060722 -0.055443 6.408549
v -0.111784 0.108275 6.408549
v -0.111784 -0.055443 6.408549
v -0.111784 0.108275 4.423273
v -0.111784 -0.055444 4.423273
v -0.111784 0.108275 4.423273
v -1.060722 0.108275 4.423273
v -0.111784 0.108275 6.408549
v -1.060722 0.108275 6.408549
v -5.085011 4.224314 0.003355
v 5.085011 4.224314 0.003355
v -5.085011 4.241108 -0.003356
v 5.085011 4.241102 -0.003356
v -3.425618 1.934363 -4.490343
v -2.481644 1.934363 -4.490343
v -3.425618 1.934363 -4.403151
v -2.481644 1.934363 -4.403151
v -0.265804 2.364643 -6.857919
v -0.265804 2.381437 -6.864624
v 5.085011 2.364643 -6.857919
v 5.085011 2.381437 -6.864624
v -5.085011 2.979637 -4.658021
v -5.085011 2.964946 -4.651310
v -5.085011 4.241108 -0.003356
v -5.085011 4.224314 0.003355
v -0.265804 2.964946 -4.651310
v -0.265804 2.979637 -4.658021
v -0.265804 2.364643 -6.857919
v -0.265804 2.381437 -6.864624
v -5.085011 2.964946 -4.651310
v -5.085011 2.979637 -4.658021
v -0.265804 2.964946 -4.651310
v -0.265804 2.979637 -4.658021
v -5.085011 2.979637 -4.658021
v -5.085011 4.241108 -0.003356
v -0.265804 2.979637 -4.658021
v 5.085011 4.241102 -0.003356
v 5.085011 2.381437 -6.864624
v -3.425618 0.947857 4.389740
v -3.425618 1.934364 4.389740
v -3.425618 0.947857 4.476927
v -3.425618 1.934364 4.476927
v -4.831630 1.934364 3.564777
v -4.831630 1.934363 2.189837
v -4.831630 0.947857 3.564777
v -4.831630 0.947857 2.189837
v -2.481644 0.947856 -4.403151
v -2.481644 1.934363 -4.403151
v -2.481644 0.947856 -4.490343
v -2.481644 1.934363 -4.490343
v -0.265804 2.364643 -6.857919
v 5.085011 2.364643 -6.857919
v -0.265804 2.964946 -4.651310
v 5.085011 4.224314 0.003355
v -5.085011 4.224314 0.003355
v -0.111784 -0.055444 4.423273
v -0.111784 -0.055443 6.408549
v -1.060722 -0.055444 4.423273
v -1.060722 -0.055443 6.408549
v -0.265804 2.962844 4.658015
v -0.265804 2.979637 4.658015
v -5.085011 2.962844 4.658015
v -5.085011 2.979637 4.658015
v -5.085011 2.962844 4.658015
v -5.085011 2.979637 4.658015
v -5.085011 4.222216 -0.003356
v -5.085011 4.239004 0.003355
v -4.935967 1.934363 1.458776
v -4.935967 1.934363 0.513084
v -4.831630 1.934363 1.458776
v -4.831630 1.934363 0.513084
v -0.265804 2.383535 6.864624
v -0.265804 2.366747 6.857919
v 5.085011 2.383535 6.864624
v 5.085011 2.366747 6.857919
v -5.085011 4.239004 0.003355
v 5.085011 4.239004 0.003355
v -5.085011 4.222216 -0.003356
v 5.085011 4.222216 -0.003356
v 5.085011 4.239004 0.003355
v 5.085011 2.383535 6.864624
v 5.085011 4.222216 -0.003356
v 5.085011 2.366747 6.857919
v -2.481644 0.947856 -4.490343
v -3.425618 0.947856 -4.490343
v -2.481644 0.947856 -4.403151
v -3.425618 0.947856 -4.403151
v -0.131658 2.412922 6.683536
v -0.131658 2.412921 4.476927
v 4.935967 2.412922 6.683536
v -0.131658 2.412921 -4.490343
v 4.935967 2.412921 -6.683536
v -0.131658 2.412921 -6.683536
v -4.935967 2.412921 4.476927
v -4.935967 2.412921 -4.490343
v 5.085011 4.224314 0.003355
v 5.085011 2.364643 -6.857919
v 5.085011 4.241102 -0.003356
v 5.085011 2.381437 -6.864624
v -0.111784 -0.055443 6.408549
v -0.111784 0.108275 6.408549
v -1.060722 -0.055443 6.408549
v -1.060722 0.108275 6.408549
v -2.481644 0.947856 -4.403151
v -3.425618 0.947856 -4.403151
v -2.481644 1.934363 -4.403151
v -3.425618 1.934363 -4.403151
v -4.935967 2.412921 -4.490343
v -4.935967 2.412921 4.476927
v -4.935967 3.006925 -4.490343
v -4.935967 3.009023 4.476927
v -4.935967 4.222216 -0.003356
v -4.935967 3.009023 4.476927
v -0.131658 3.009023 4.476927
v -4.935967 4.222216 -0.003356
v 4.935967 4.222216 -0.003356
v 4.935967 2.412922 6.683536
v -0.131658 2.412922 6.683536
v -0.131658 2.412921 -4.490343
v -4.935967 2.412921 -4.490343
v -0.131658 3.006925 -4.490343
v -4.935967 3.006925 -4.490343
v -4.935967 3.009023 4.476927
v -4.935967 2.412921 4.476927
v -0.131658 3.009023 4.476927
v -0.131658 2.412921 4.476927
v 4.935967 0.947857 1.458776
v 4.846535 0.947857 1.458776
v 4.935967 1.934363 1.458776
v 4.846535 1.934363 1.458776
v -1.060722 0.108274 -6.455498
v -1.060722 -0.055444 -6.455498
v -1.060722 0.108274 -4.470222
v -1.060722 -0.055444 -4.470222
v -4.831630 1.934363 0.513084
v -4.935967 1.934363 0.513084
v -4.831630 0.947857 0.513084
v -4.935967 0.947857 0.513084
v -0.131658 1.753851 -5.114095
v -0.131658 1.753851 -5.939058
v -0.022357 1.753851 -5.114095
v -0.022357 1.753851 -5.939058
v -0.265804 2.366747 6.857919
v -0.265804 2.962844 4.658015
v 5.085011 2.366747 6.857919
v 5.085011 4.222216 -0.003356
v -5.085011 4.222216 -0.003356
v -5.085011 2.962844 4.658015
v -2.481644 0.947857 4.389740
v -3.425618 0.947857 4.389740
v -2.481644 0.947857 4.476927
v -3.425618 0.947857 4.476927
v -0.022357 0.108274 -5.939058
v -0.022357 1.753851 -5.939058
v -0.131658 0.108274 -5.939058
v -0.131658 1.753851 -5.939058
v -4.831630 0.947857 1.458776
v -4.831630 0.947857 0.513084
v -4.935967 0.947857 1.458776
v -4.935967 0.947857 0.513084
v -0.022357 0.108274 -5.114095
v -0.022357 0.108274 -5.939058
v -0.131658 0.108274 -5.114095
v -0.131658 0.108274 -5.939058
v -0.131658 2.412922 6.683536
v 4.935967 2.412922 6.683536
v -0.131658 2.412921 4.476927
v -0.131658 2.412921 -4.490343
v -4.935967 2.412921 -4.490343
v 4.935967 2.412921 -6.683536
v -0.131658 2.412921 -6.683536
v -4.935967 -0.055444 -4.490343
v -0.131658 -0.055444 -4.490343
v -4.935967 -0.055444 4.476927
v -0.131658 -0.055444 4.476927
v 4.935967 -0.055443 6.683536
v 4.935967 -0.055444 -6.683536
v -1.060722 -0.055444 -6.455498
v -1.060722 0.108274 -6.455498
v -0.111784 -0.055444 -6.455498
v -0.111784 0.108274 -6.455498
v -0.022357 1.753852 5.093974
v -0.022357 1.753852 5.918937
v -0.131658 1.753852 5.093974
v -0.131658 1.753852 5.918937
v -4.831630 0.947857 1.458776
v -4.935967 0.947857 1.458776
v -4.831630 1.934363 1.458776
v -4.935967 1.934363 1.458776
v -0.131658 0.108274 -5.114095
v -0.131658 1.753851 -5.114095
v -0.022357 0.108274 -5.114095
v -0.022357 1.753851 -5.114095
v -2.481644 1.934364 4.389740
v -2.481644 0.947857 4.389740
v -2.481644 1.934364 4.476927
v -2.481644 0.947857 4.476927
v -0.022357 1.753851 -5.114095
v -0.022357 1.753851 -5.939058
v -0.022357 0.108274 -5.114095
v -0.022357 0.108274 -5.939058
v 4.935967 0.947856 -3.551361
v 4.935967 1.934363 -3.551361
v 4.846535 0.947856 -3.551361
v 4.846535 1.934363 -3.551361
v -4.831630 0.947857 0.513084
v -4.831630 0.947857 1.458776
v -4.831630 1.934363 0.513084
v -4.831630 1.934363 1.458776
v -0.022357 1.753852 5.918937
v -0.022357 1.753852 5.093974
v -0.022357 0.108275 5.918937
v -0.022357 0.108275 5.093974
v 4.846535 1.934363 -2.209959
v 4.935967 1.934363 -2.209959
v 4.846535 0.947856 -2.209958
v 4.935967 0.947856 -2.209958
v -4.935967 1.934363 -0.519795
v -4.935967 1.934363 -1.458776
v -4.831630 1.934363 -0.519795
v -4.831630 1.934363 -1.458776
v 4.846535 0.947856 -3.551361
v 4.846535 0.947856 -2.209958
v 4.935967 0.947856 -3.551361
v 4.935967 0.947856 -2.209958
v -3.425618 0.947857 4.389740
v -2.481644 0.947857 4.389740
v -3.425618 1.934364 4.389740
v -2.481644 1.934364 4.389740
v -4.831630 1.934363 -1.458776
v -4.935967 1.934363 -1.458776
v -4.831630 0.947856 -1.458776
v -4.935967 0.947856 -1.458776
v 4.846535 1.934363 -1.458776
v 4.846535 0.947856 -1.458776
v 4.935967 1.934363 -1.458776
v 4.935967 0.947856 -1.458776
v 4.846535 1.934363 -2.209959
v 4.846535 0.947856 -2.209958
v 4.846535 1.934363 -3.551361
v 4.846535 0.947856 -3.551361
v 4.846535 1.934363 -2.209959
v 4.846535 1.934363 -3.551361
v 4.935967 1.934363 -2.209959
v 4.935967 1.934363 -3.551361
v -4.935967 3.006925 -4.490343
v -4.935967 4.222216 -0.003356
v -0.131658 3.006925 -4.490343
v 4.935967 4.222216 -0.003356
v 4.935967 2.412921 -6.683536
v 4.935967 1.934363 -1.458776
v 4.935967 1.934363 -0.519795
v 4.846535 1.934363 -1.458776
v 4.846535 1.934363 -0.519795
v 4.846535 1.934363 -0.519795
v 4.935967 1.934363 -0.519795
v 4.846535 0.947856 -0.519795
v 4.935967 0.947856 -0.519795
v -4.935967 1.934364 3.564777
v -4.935967 1.934363 2.189837
v -4.831630 1.934364 3.564777
v -4.831630 1.934363 2.189837
v -4.935967 0.947856 -1.458776
v -4.935967 0.947856 -0.519795
v -4.831630 0.947856 -1.458776
v -4.831630 0.947856 -0.519795
v 4.846535 0.947856 -0.519795
v 4.935967 0.947856 -0.519795
v 4.846535 0.947856 -1.458776
v 4.935967 0.947856 -1.458776
v 4.846535 0.947856 -0.519795
v 4.846535 0.947856 -1.458776
v 4.846535 1.934363 -0.519795
v 4.846535 1.934363 -1.458776
v -0.022357 0.108275 5.918937
v -0.022357 0.108275 5.093974
v -0.131658 0.108275 5.918937
v -0.131658 0.108275 5.093974
v -4.935967 1.934363 -0.519795
v -4.831630 1.934363 -0.519795
v -4.935967 0.947856 -0.519795
v -4.831630 0.947856 -0.519795
v 4.846535 1.934363 0.513084
v 4.846535 0.947857 0.513084
v 4.935967 1.934363 0.513084
v 4.935967 0.947857 0.513084
v 4.935967 1.934363 0.513084
v 4.935967 1.934363 1.458776
v 4.846535 1.934363 0.513084
v 4.846535 1.934363 1.458776
v -4.831630 0.947856 -3.551361
v -4.831630 0.947856 -2.209958
v -4.831630 1.934363 -3.551361
v -4.831630 1.934363 -2.209959
v -2.481644 1.934364 4.476927
v -3.425618 1.934364 4.476927
v -2.481644 1.934364 4.389740
v -3.425618 1.934364 4.389740
v 4.935967 0.947857 3.564777
v 4.935967 0.947857 2.189837
v 4.846535 0.947857 3.564777
v 4.846535 0.947857 2.189837
v 4.935967 0.947857 3.564777
v 4.846535 0.947857 3.564777
v 4.935967 1.934364 3.564777
v 4.846535 1.934364 3.564777
v 4.846535 1.934364 3.564777
v 4.846535 1.934363 2.189837
v 4.935967 1.934364 3.564777
v 4.935967 1.934363 2.189837
v 4.935967 0.947857 2.189837
v 4.935967 1.934363 2.189837
v 4.846535 0.947857 2.189837
v 4.846535 1.934363 2.189837
v 4.846535 1.934363 0.513084
v 4.846535 1.934363 1.458776
v 4.846535 0.947857 0.513084
v 4.846535 0.947857 1.458776
v 4.935967 0.947857 1.458776
v 4.935967 0.947857 0.513084
v 4.846535 0.947857 1.458776
v 4.846535 0.947857 0.513084
v -4.935967 1.934363 -2.209959
v -4.935967 1.934363 -3.551361
v -4.831630 1.934363 -2.209959
v -4.831630 1.934363 -3.551361
v -0.022357 0.108275 5.093974
v -0.022357 1.753852 5.093974
v -0.131658 0.108275 5.093974
v -0.131658 1.753852 5.093974
v -4.935967 1.934363 -2.209959
v -4.831630 1.934363 -2.209959
v -4.935967 0.947856 -2.209958
v -4.831630 0.947856 -2.209958
v -4.831630 1.934363 2.189837
v -4.935967 1.934363 2.189837
v -4.831630 0.947857 2.189837
v -4.935967 0.947857 2.189837
v 4.846535 0.947857 3.564777
v 4.846535 0.947857 2.189837
v 4.846535 1.934364 3.564777
v 4.846535 1.934363 2.189837
v -4.831630 1.934363 -3.551361
v -4.935967 1.934363 -3.551361
v -4.831630 0.947856 -3.551361
v -4.935967 0.947856 -3.551361
v -4.831630 0.947857 3.564777
v -4.831630 0.947857 2.189837
v -4.935967 0.947857 3.564777
v -4.935967 0.947857 2.189837
v -4.831630 0.947856 -2.209958
v -4.831630 0.947856 -3.551361
v -4.935967 0.947856 -2.209958
v -4.935967 0.947856 -3.551361
v -4.831630 1.934363 -0.519795
v -4.831630 1.934363 -1.458776
v -4.831630 0.947856 -0.519795
v -4.831630 0.947856 -1.458776
v 4.935967 -0.055444 -6.683536
v -0.131658 -0.055444 -6.683536
v 4.935967 2.412921 -6.683536
v -0.131658 2.412921 -6.683536
v 4.935967 0.947856 -1.458776
v 4.935967 0.947856 -0.519795
v 4.935967 -0.055444 -6.683536
v 4.935967 0.947857 0.513084
v 4.935967 0.947857 1.458776
v 4.935967 0.947856 -2.209958
v 4.935967 1.934363 -2.209959
v 4.935967 1.934363 -1.458776
v 4.935967 2.412921 -6.683536
v 4.935967 1.934363 -0.519795
v 4.935967 1.934363 0.513084
v 4.935967 1.934363 -3.551361
v 4.935967 0.947856 -3.551361
v 4.935967 1.934363 1.458776
v 4.935967 1.934363 2.189837
v 4.935967 0.947857 2.189837
v 4.935967 0.947857 3.564777
v 4.935967 -0.055443 6.683536
v 4.935967 1.934364 3.564777
v 4.935967 2.412922 6.683536
v -2.481644 0.947856 -4.490343
v -0.131658 -0.055444 -4.490343
v -3.425618 0.947856 -4.490343
v -4.935967 -0.055444 -4.490343
v -3.425618 1.934363 -4.490343
v -4.935967 2.412921 -4.490343
v -0.131658 2.412921 -4.490343
v -2.481644 1.934363 -4.490343
v -0.131658 2.412922 6.683536
v -0.131658 1.753852 5.918937
v -0.131658 -0.055443 6.683536
v -0.131658 0.108275 5.918937
v -0.131658 0.108275 5.093974
v -0.131658 1.753852 5.093974
v -0.131658 2.412921 4.476927
v -0.131658 -0.055444 4.476927
v -0.131658 2.412921 -6.683536
v -0.131658 1.753851 -5.114095
v -0.131658 2.412921 -4.490343
v -0.131658 0.108274 -5.114095
v -0.131658 -0.055444 -4.490343
v -0.131658 -0.055444 -6.683536
v -0.131658 0.108274 -5.939058
v -0.131658 1.753851 -5.939058
v -4.935967 2.412921 4.476927
v -4.935967 1.934364 3.564777
v -4.935967 -0.055444 4.476927
v -4.935967 0.947857 3.564777
v -4.935967 -0.055444 -4.490343
v -4.935967 0.947857 2.189837
v -4.935967 0.947857 1.458776
v -4.935967 1.934363 2.189837
v -4.935967 1.934363 1.458776
v -4.935967 2.412921 -4.490343
v -4.935967 1.934363 0.513084
v -4.935967 1.934363 -0.519795
v -4.935967 0.947856 -0.519795
v -4.935967 0.947857 0.513084
v -4.935967 0.947856 -1.458776
v -4.935967 0.947856 -2.209958
v -4.935967 0.947856 -3.551361
v -4.935967 1.934363 -3.551361
v -4.935967 1.934363 -2.209959
v -4.935967 1.934363 -1.458776
v -0.131658 2.412921 4.476927
v -2.481644 0.947857 4.476927
v -0.131658 -0.055444 4.476927
v -3.425618 0.947857 4.476927
v -4.935967 -0.055444 4.476927
v -3.425618 1.934364 4.476927
v -4.935967 2.412921 4.476927
v -2.481644 1.934364 4.476927
v -0.131658 -0.055444 -6.683536
v -0.131658 -0.055443 6.683536
v -4.935967 2.412921 4.476927
v 4.935967 2.412922 6.683536
v 4.935967 2.412921 -6.683536
v 4.935967 4.222216 -0.003356
v -0.131658 2.412922 6.683536
v -0.131658 3.009023 4.476927
v -0.131658 2.412921 4.476927
v -0.131658 2.412921 -6.683536
v -0.131658 2.412921 -4.490343
v -0.131658 3.006925 -4.490343
v -0.131658 2.412921 -6.683536
v -0.265804 2.381437 -6.864624
v -5.085011 2.964946 -4.651310
vn -0.0000 -0.0000 1.0000
vn -0.0000 -0.0000 -1.0000
vn -1.0000 -0.0000 -0.0000
vn 1.0000 -0.0000 -0.0000
vn -0.0000 0.9653 0.2612
vn -0.0001 0.9653 0.2610
vn -0.0000 0.9654 0.2608
vn -0.0000 1.0000 -0.0000
vn -0.0000 -1.0000 -0.0000
vn -0.0000 0.3711 0.9286
vn -0.0000 0.3712 0.9286
vn -0.0000 -0.3708 -0.9287
vn -0.0000 -0.4155 -0.9096
vn -0.0000 -0.4156 -0.9096
vn -0.0000 0.9652 -0.2616
vn -0.0000 -0.9649 0.2625
vn -0.0004 -0.9652 0.2616
vn -0.0000 -0.9653 0.2612
vn -0.0000 -0.3709 0.9287
vn -0.0000 0.3712 -0.9286
vn -0.0000 0.9652 0.2614
vn -0.0002 0.9653 0.2612
vn -0.0000 -0.9652 -0.2615
vn -0.0002 -0.9653 -0.2610
vn -0.0000 -0.9654 -0.2608
vn -0.0000 0.9652 -0.2614
vn -0.0000 0.9652 -0.2617
vt 0.196763 0.000327
vt 0.404160 0.000327
vt 0.196763 0.672857
vt 0.404160 0.672857
vt 0.378296 0.473245
vt 0.387934 0.473245
vt 0.378296 0.062675
vt 0.387934 0.062675
vt 0.277160 0.513753
vt 0.288384 0.513753
vt 0.277160 0.272292
vt 0.288384 0.272292
vt 0.227019 0.675907
vt 0.230069 0.675907
vt 0.227019 0.772053
vt 0.230069 0.772175
vt 0.822125 0.239958
vt 0.822125 0.058160
vt 0.999632 0.239958
vt 0.999632 0.058160
vt 0.286920 0.507043
vt 0.286920 0.265581
vt 0.277648 0.507043
vt 0.277648 0.265581
vt 0.604847 0.779495
vt 0.318639 0.779495
vt 0.604847 0.998263
vt 0.000835 0.998263
vt 0.000835 0.675541
vt 0.318639 0.675541
vt 0.373660 0.799871
vt 0.373660 0.975203
vt 0.370732 0.799871
vt 0.370732 0.975203
vt 0.279356 0.519732
vt 0.279356 0.173340
vt 0.269962 0.519732
vt 0.269962 0.173340
vt 0.445517 0.892112
vt 0.442467 0.892112
vt 0.445517 0.799871
vt 0.442467 0.799871
vt 0.227019 0.975203
vt 0.230069 0.975203
vt 0.445517 0.975203
vt 0.442467 0.975203
vt 0.000713 0.779251
vt 0.000713 0.998263
vt 0.286920 0.779251
vt 0.604725 0.998263
vt 0.604725 0.675541
vt 0.269108 0.265581
vt 0.269108 0.507043
vt 0.278990 0.265581
vt 0.278990 0.507043
vt 0.785404 0.998507
vt 0.913624 0.998507
vt 0.785404 0.676273
vt 0.913624 0.676273
vt 0.270572 0.272292
vt 0.270572 0.513753
vt 0.279966 0.272292
vt 0.279966 0.513753
vt 0.276550 0.173340
vt 0.276550 0.519732
vt 0.287774 0.173340
vt 0.287774 0.519732
vt 0.301926 0.675907
vt 0.301926 0.975203
vt 0.298876 0.675907
vt 0.298876 0.975203
vt 0.278990 0.173340
vt 0.278990 0.519610
vt 0.288262 0.173340
vt 0.288262 0.519610
vt 0.541164 0.333542
vt 0.455643 0.333542
vt 0.541164 0.109406
vt 0.107217 0.333542
vt 0.021818 0.109406
vt 0.021818 0.333542
vt 0.455643 0.545842
vt 0.107217 0.545842
vt 0.999388 0.676639
vt 0.913990 0.676639
vt 0.999388 0.999117
vt 0.913990 0.999117
vt 0.606555 0.001303
vt 0.999632 0.001303
vt 0.606555 0.222145
vt 0.999632 0.222633
vt 0.803215 0.672735
vt 0.447347 0.113310
vt 0.447347 0.325733
vt 0.273256 0.113310
vt 0.273256 0.549869
vt 0.532868 0.549869
vt 0.532868 0.325733
vt 0.768568 0.001425
vt 0.969255 0.001425
vt 0.768568 0.086833
vt 0.969255 0.086833
vt 0.768568 0.086955
vt 0.768568 0.001303
vt 0.969255 0.086955
vt 0.969255 0.001303
vt 0.280332 0.272292
vt 0.280332 0.513753
vt 0.280454 0.507043
vt 0.280454 0.265581
vt 0.379394 0.268021
vt 0.379394 0.473245
vt 0.388910 0.268021
vt 0.388910 0.473245
vt 0.286920 0.675541
vt 0.270450 0.173340
vt 0.270450 0.519610
vt 0.280210 0.173340
vt 0.280210 0.519610
vt 0.375002 0.062675
vt 0.375002 0.473245
vt 0.384518 0.062675
vt 0.384518 0.473245
vt 0.281674 0.173340
vt 0.281674 0.519610
vt 0.374880 0.058649
vt 0.374880 0.263995
vt 0.384518 0.058649
vt 0.384518 0.263995
vt 0.285090 0.141373
vt 0.285090 0.230075
vt 0.257152 0.141373
vt 0.143084 0.141373
vt 0.143084 0.057428
vt 0.115147 0.230075
vt 0.115147 0.141373
vt 0.149062 0.232516
vt 0.149062 0.148571
vt 0.263130 0.232516
vt 0.263130 0.148571
vt 0.291068 0.059869
vt 0.121125 0.059869
vt 0.278624 0.513753
vt 0.278624 0.272292
vt 0.783574 0.999727
vt 0.606677 0.999727
vt 0.783574 0.674321
vt 0.606677 0.674321
vt 0.277282 0.265581
vt 0.277282 0.507043
vt 0.278502 0.519610
vt 0.278502 0.173340
vt 0.913624 0.998629
vt 0.785404 0.998629
vt 0.279722 0.173340
vt 0.279722 0.519732
vt 0.098921 0.113310
vt 0.098921 0.325733
vt 0.013522 0.549869
vt 0.278014 0.173340
vt 0.278014 0.519732
vt 0.000835 0.001059
vt 0.311075 0.001059
vt 0.000835 0.672613
vt 0.311075 0.672613
vt 0.368537 0.274000
vt 0.325959 0.274000
vt 0.604725 0.000937
vt 0.279234 0.274000
vt 0.236657 0.274000
vt 0.402452 0.274000
vt 0.402452 0.542548
vt 0.368537 0.542548
vt 0.604725 0.672369
vt 0.325959 0.542548
vt 0.279234 0.542548
vt 0.462963 0.542548
vt 0.462963 0.274000
vt 0.236657 0.542548
vt 0.203595 0.542548
vt 0.203595 0.274000
vt 0.141254 0.274000
vt 0.000469 0.000937
vt 0.141254 0.542548
vt 0.000469 0.672369
vt 0.454789 0.274122
vt 0.512494 0.274122
vt 0.604847 0.001059
vt 0.512494 0.542792
vt 0.604847 0.672613
vt 0.454789 0.542792
vt 0.118563 0.672369
vt 0.077693 0.493255
vt 0.118563 0.000571
vt 0.077693 0.045349
vt 0.033530 0.045349
vt 0.033530 0.493255
vt 0.000591 0.672369
vt 0.000591 0.000571
vt 0.084647 0.493255
vt 0.118319 0.672369
vt 0.084647 0.045349
vt 0.118319 0.000571
vt 0.040606 0.045349
vt 0.040606 0.493255
vt 0.405746 0.672247
vt 0.364511 0.542426
vt 0.405746 0.000815
vt 0.364511 0.273878
vt 0.000469 0.000815
vt 0.302170 0.273878
vt 0.269108 0.273878
vt 0.302170 0.542426
vt 0.269108 0.542426
vt 0.000469 0.672247
vt 0.226531 0.542426
vt 0.179928 0.542426
vt 0.179928 0.273878
vt 0.226531 0.273878
vt 0.137228 0.273878
vt 0.103313 0.273878
vt 0.042802 0.273878
vt 0.042802 0.542426
vt 0.103313 0.542426
vt 0.137228 0.542426
vt 0.100751 0.273756
vt 0.062078 0.273756
vt 0.000347 0.000327
vt 0.062078 0.542792
vt 0.000347 0.672857
vt 0.100751 0.542792
vt 0.121125 0.148571
vt 0.291068 0.148571
vt 0.257152 0.057428
vt 0.606311 0.001547
vt 0.999510 0.001547
vt 0.802971 0.672491
vt 0.863726 0.003499
vt 0.768324 0.026803
vt 0.768324 0.003499
vt 0.766250 0.002279
vt 0.861408 0.002279
vt 0.861408 0.025583
vt 0.013522 0.325733
s 0
usemtl mat_main
f 1/1/1 2/2/1 3/3/1
f 2/2/1 4/4/1 3/3/1
f 5/5/2 6/6/2 7/7/2
f 6/6/2 8/8/2 7/7/2
f 9/9/2 10/10/2 11/11/2
f 10/10/2 12/12/2 11/11/2
f 13/13/3 14/14/3 15/15/3
f 14/14/3 16/16/3 15/15/3
f 17/17/4 18/18/4 19/19/4
f 18/18/4 20/20/4 19/19/4
f 21/17/1 22/18/1 23/19/1
f 22/18/1 24/20/1 23/19/1
f 25/21/4 26/22/4 27/23/4
f 26/22/4 28/24/4 27/23/4
f 29/25/5 30/26/5 31/27/5
f 30/26/5 32/28/5 31/27/5
f 32/28/6 30/26/6 33/29/6
f 30/26/7 34/30/7 33/29/7
f 35/17/8 36/18/8 37/19/8
f 36/18/8 38/20/8 37/19/8
f 39/18/9 40/20/9 41/17/9
f 40/20/9 42/19/9 41/17/9
f 43/17/2 44/18/2 45/19/2
f 44/18/2 46/20/2 45/19/2
f 47/17/3 48/18/3 49/19/3
f 48/18/3 50/20/3 49/19/3
f 51/17/4 52/18/4 53/19/4
f 52/18/4 54/20/4 53/19/4
f 55/17/8 56/18/8 57/19/8
f 56/18/8 58/20/8 57/19/8
f 59/31/10 60/32/10 61/33/10
f 60/32/11 62/34/11 61/33/11
f 63/35/9 64/36/9 65/37/9
f 64/36/9 66/38/9 65/37/9
f 67/39/12 68/40/12 69/41/12
f 68/40/12 70/42/12 69/41/12
f 71/15/3 72/16/3 73/43/3
f 72/16/3 74/44/3 73/43/3
f 75/16/3 76/15/3 77/14/3
f 76/15/3 78/13/3 77/14/3
f 79/45/13 80/46/13 81/39/13
f 80/46/14 82/40/14 81/39/14
f 83/47/15 84/48/15 85/49/15
f 84/48/15 86/50/15 85/49/15
f 85/49/15 86/50/15 87/51/15
f 88/52/4 89/53/4 90/54/4
f 89/53/4 91/55/4 90/54/4
f 92/56/3 93/57/3 94/58/3
f 93/57/3 95/59/3 94/58/3
f 96/60/3 97/61/3 98/62/3
f 97/61/3 99/63/3 98/62/3
f 100/30/16 101/29/16 102/26/16
f 101/29/17 103/28/17 102/26/17
f 102/26/18 103/28/18 104/27/18
f 105/19/9 106/17/9 107/20/9
f 106/17/9 108/18/9 107/20/9
f 109/40/1 110/39/1 111/46/1
f 110/39/1 112/45/1 111/46/1
f 113/15/3 114/16/3 115/43/3
f 114/16/3 116/44/3 115/43/3
f 117/64/9 118/65/9 119/66/9
f 118/65/9 120/67/9 119/66/9
f 121/39/19 122/40/19 123/41/19
f 122/40/19 124/42/19 123/41/19
f 125/31/20 126/32/20 127/33/20
f 126/32/20 128/34/20 127/33/20
f 129/68/4 130/69/4 131/70/4
f 130/69/4 132/71/4 131/70/4
f 133/72/8 134/73/8 135/74/8
f 134/73/8 136/75/8 135/74/8
f 137/76/9 138/77/9 139/78/9
f 138/77/9 140/79/9 139/78/9
f 139/78/9 140/79/9 141/80/9
f 140/79/9 142/81/9 141/80/9
f 138/77/9 143/82/9 140/79/9
f 143/82/9 144/83/9 140/79/9
f 145/68/4 146/69/4 147/70/4
f 146/69/4 148/71/4 147/70/4
f 149/20/1 150/19/1 151/18/1
f 150/19/1 152/17/1 151/18/1
f 153/84/2 154/85/2 155/86/2
f 154/85/2 156/87/2 155/86/2
f 157/88/3 158/89/3 159/90/3
f 158/89/3 160/91/3 159/90/3
f 159/90/3 160/91/3 161/92/3
f 162/93/21 163/94/21 164/95/21
f 163/94/21 165/96/21 164/95/21
f 165/96/22 163/94/22 166/97/22
f 163/94/7 167/98/7 166/97/7
f 168/99/2 169/100/2 170/101/2
f 169/100/2 171/102/2 170/101/2
f 172/103/1 173/104/1 174/105/1
f 173/104/1 175/106/1 174/105/1
f 176/107/2 177/60/2 178/108/2
f 177/60/2 179/61/2 178/108/2
f 180/17/3 181/18/3 182/19/3
f 181/18/3 183/20/3 182/19/3
f 184/53/1 185/109/1 186/52/1
f 185/109/1 187/110/1 186/52/1
f 188/111/9 189/112/9 190/113/9
f 189/112/9 191/114/9 190/113/9
f 192/115/23 193/49/23 194/51/23
f 193/49/24 195/50/24 194/51/24
f 195/50/25 193/49/25 196/48/25
f 193/49/25 197/47/25 196/48/25
f 198/116/8 199/117/8 200/118/8
f 199/117/8 201/119/8 200/118/8
f 202/120/1 203/121/1 204/122/1
f 203/121/1 205/123/1 204/122/1
f 206/116/8 207/117/8 208/124/8
f 207/117/8 209/125/8 208/124/8
f 210/126/8 211/127/8 212/128/8
f 211/127/8 213/129/8 212/128/8
f 214/130/8 215/131/8 216/132/8
f 215/131/8 217/133/8 216/132/8
f 216/132/8 217/133/8 218/134/8
f 215/131/8 219/135/8 217/133/8
f 219/135/8 220/136/8 217/133/8
f 221/137/9 222/138/9 223/139/9
f 222/138/9 224/140/9 223/139/9
f 224/140/9 222/138/9 225/141/9
f 222/138/9 226/142/9 225/141/9
f 227/20/2 228/19/2 229/18/2
f 228/19/2 230/17/2 229/18/2
f 231/114/9 232/113/9 233/112/9
f 232/113/9 234/111/9 233/112/9
f 235/12/2 236/11/2 237/10/2
f 236/11/2 238/9/2 237/10/2
f 239/7/2 240/5/2 241/8/2
f 240/5/2 242/6/2 241/8/2
f 243/10/3 244/12/3 245/143/3
f 244/12/3 246/144/3 245/143/3
f 247/145/3 248/146/3 249/147/3
f 248/146/3 250/148/3 249/147/3
f 251/149/1 252/150/1 253/22/1
f 252/150/1 254/21/1 253/22/1
f 255/84/3 256/85/3 257/86/3
f 256/85/3 258/87/3 257/86/3
f 259/145/3 260/146/3 261/147/3
f 260/146/3 262/148/3 261/147/3
f 263/61/2 264/108/2 265/60/2
f 264/108/2 266/107/2 265/60/2
f 267/64/9 268/65/9 269/66/9
f 268/65/9 270/67/9 269/66/9
f 271/75/8 272/74/8 273/151/8
f 272/74/8 274/152/8 273/151/8
f 275/84/1 276/85/1 277/86/1
f 276/85/1 278/87/1 277/86/1
f 279/53/1 280/109/1 281/52/1
f 280/109/1 282/110/1 281/52/1
f 283/21/1 284/22/1 285/150/1
f 284/22/1 286/149/1 285/150/1
f 287/153/4 288/59/4 289/154/4
f 288/59/4 290/58/4 289/154/4
f 291/38/9 292/37/9 293/155/9
f 292/37/9 294/156/9 293/155/9
f 295/157/26 296/95/26 297/158/26
f 296/95/26 298/96/26 297/158/26
f 297/158/26 298/96/26 299/159/26
f 300/156/9 301/155/9 302/37/9
f 301/155/9 303/38/9 302/37/9
f 304/61/2 305/108/2 306/60/2
f 305/108/2 307/107/2 306/60/2
f 308/64/9 309/65/9 310/66/9
f 309/65/9 311/67/9 310/66/9
f 312/125/8 313/124/8 314/117/8
f 313/124/8 315/116/8 314/117/8
f 316/74/8 317/152/8 318/75/8
f 317/152/8 319/151/8 318/75/8
f 320/85/4 321/84/4 322/87/4
f 321/84/4 323/86/4 322/87/4
f 324/126/8 325/127/8 326/128/8
f 325/127/8 327/129/8 326/128/8
f 328/9/2 329/10/2 330/11/2
f 329/10/2 331/12/2 330/11/2
f 332/21/1 333/22/1 334/150/1
f 333/22/1 335/149/1 334/150/1
f 336/156/9 337/155/9 338/37/9
f 337/155/9 339/38/9 338/37/9
f 340/59/3 341/58/3 342/57/3
f 341/58/3 343/56/3 342/57/3
f 344/160/9 345/161/9 346/66/9
f 345/161/9 347/67/9 346/66/9
f 348/152/8 349/151/8 350/74/8
f 349/151/8 351/75/8 350/74/8
f 352/107/2 353/60/2 354/108/2
f 353/60/2 355/61/2 354/108/2
f 356/38/9 357/37/9 358/155/9
f 357/37/9 359/156/9 358/155/9
f 360/149/1 361/150/1 362/22/1
f 361/150/1 363/21/1 362/22/1
f 364/87/4 365/86/4 366/85/4
f 365/86/4 367/84/4 366/85/4
f 368/152/8 369/151/8 370/74/8
f 369/151/8 371/75/8 370/74/8
f 372/64/9 373/65/9 374/66/9
f 373/65/9 375/67/9 374/66/9
f 376/120/1 377/121/1 378/122/1
f 377/121/1 379/123/1 378/122/1
f 380/9/2 381/10/2 382/11/2
f 381/10/2 383/12/2 382/11/2
f 384/53/1 385/109/1 386/52/1
f 385/109/1 387/110/1 386/52/1
f 388/59/4 389/58/4 390/153/4
f 389/58/4 391/154/4 390/153/4
f 392/53/1 393/109/1 394/52/1
f 393/109/1 395/110/1 394/52/1
f 396/116/8 397/117/8 398/124/8
f 397/117/8 399/125/8 398/124/8
f 400/116/8 401/117/8 402/124/8
f 401/117/8 403/125/8 402/124/8
f 404/86/3 405/87/3 406/84/3
f 405/87/3 407/85/3 406/84/3
f 408/162/2 409/163/2 410/164/2
f 409/163/2 411/165/2 410/164/2
f 412/166/4 413/167/4 414/168/4
f 413/167/4 415/169/4 414/168/4
f 414/168/4 415/169/4 416/170/4
f 414/168/4 417/171/4 412/166/4
f 417/171/4 418/172/4 412/166/4
f 412/166/4 418/172/4 419/173/4
f 418/172/4 420/174/4 419/173/4
f 419/173/4 420/174/4 421/175/4
f 420/174/4 422/176/4 421/175/4
f 421/175/4 422/176/4 415/169/4
f 418/172/4 423/177/4 420/174/4
f 423/177/4 414/168/4 420/174/4
f 423/177/4 424/178/4 414/168/4
f 424/178/4 417/171/4 414/168/4
f 422/176/4 420/174/4 425/179/4
f 420/174/4 426/180/4 425/179/4
f 425/179/4 426/180/4 427/181/4
f 425/179/4 427/181/4 416/170/4
f 427/181/4 414/168/4 416/170/4
f 427/181/4 428/182/4 414/168/4
f 428/182/4 429/183/4 414/168/4
f 428/182/4 430/184/4 429/183/4
f 430/184/4 431/185/4 429/183/4
f 431/185/4 430/184/4 420/174/4
f 430/184/4 426/180/4 420/174/4
f 432/186/2 433/163/2 434/187/2
f 433/163/2 435/188/2 434/187/2
f 434/187/2 435/188/2 436/189/2
f 435/188/2 437/190/2 436/189/2
f 436/189/2 437/190/2 438/165/2
f 433/163/2 432/186/2 438/165/2
f 432/186/2 439/191/2 438/165/2
f 438/165/2 439/191/2 436/189/2
f 440/192/3 441/193/3 442/194/3
f 441/193/3 443/195/3 442/194/3
f 442/194/3 443/195/3 444/196/3
f 441/193/3 440/192/3 445/197/3
f 440/192/3 446/198/3 445/197/3
f 445/197/3 446/198/3 444/196/3
f 446/198/3 447/199/3 444/196/3
f 444/196/3 447/199/3 442/194/3
f 448/198/3 449/200/3 450/201/3
f 449/200/3 451/202/3 450/201/3
f 450/201/3 451/202/3 452/203/3
f 451/202/3 453/199/3 452/203/3
f 451/202/3 454/204/3 453/199/3
f 454/204/3 455/205/3 453/199/3
f 453/199/3 455/205/3 448/198/3
f 455/205/3 449/200/3 448/198/3
f 456/206/3 457/207/3 458/208/3
f 457/207/3 459/209/3 458/208/3
f 458/208/3 459/209/3 460/210/3
f 459/209/3 461/211/3 460/210/3
f 460/210/3 461/211/3 462/212/3
f 461/211/3 463/213/3 462/212/3
f 462/212/3 463/213/3 464/214/3
f 463/213/3 465/215/3 464/214/3
f 464/214/3 465/215/3 466/216/3
f 465/215/3 467/217/3 466/216/3
f 466/216/3 467/217/3 468/218/3
f 466/216/3 468/218/3 469/219/3
f 468/218/3 460/210/3 469/219/3
f 469/219/3 460/210/3 462/212/3
f 468/218/3 470/220/3 460/210/3
f 470/220/3 471/221/3 460/210/3
f 460/210/3 471/221/3 472/222/3
f 472/222/3 473/223/3 460/210/3
f 473/223/3 465/215/3 460/210/3
f 473/223/3 474/224/3 465/215/3
f 474/224/3 475/225/3 465/215/3
f 465/215/3 475/225/3 467/217/3
f 474/224/3 471/221/3 475/225/3
f 471/221/3 470/220/3 475/225/3
f 456/206/3 465/215/3 457/207/3
f 465/215/3 463/213/3 457/207/3
f 476/3/1 477/226/1 478/1/1
f 477/226/1 479/227/1 478/1/1
f 478/1/1 479/227/1 480/228/1
f 479/227/1 481/229/1 480/228/1
f 480/228/1 481/229/1 482/230/1
f 481/229/1 476/3/1 482/230/1
f 481/229/1 483/231/1 476/3/1
f 483/231/1 477/226/1 476/3/1
f 415/169/4 413/167/4 421/175/4
f 222/138/9 484/232/9 226/142/9
f 224/140/9 225/141/9 485/233/9
f 218/134/8 486/234/8 216/132/8
f 487/235/4 488/236/4 489/237/4
f 490/238/3 491/239/3 492/240/3
f 493/241/3 494/242/3 495/243/3
f 297/158/26 299/159/26 496/244/26
f 85/49/27 87/51/27 497/115/27
f 104/27/18 498/25/18 102/26/18
