# Blender 4.4.1
# www.blender.org
mtllib polish_house_4.mtl
o polish_house_4
v -0.250761 6.290184 -2.176378
v 0.250761 6.290184 -2.176378
v 0.250761 7.000000 -2.176378
v -0.250761 7.000000 -2.176378
v 4.799569 2.669688 5.719472
v 4.799569 2.669689 -5.709099
v 4.799569 0.000001 -5.709099
v 4.799304 -0.000001 5.719472
v -0.250761 6.290183 -1.363621
v -0.250761 6.290184 -2.176378
v -0.250761 7.000000 -2.176378
v -0.250761 7.000000 -1.363621
v -0.250761 6.290183 2.095997
v -0.250761 6.290183 1.283238
v -0.250761 7.000000 1.283238
v -0.250761 7.000000 2.095997
v 0.250761 6.290183 2.095997
v -0.250761 6.290183 2.095997
v -0.250761 7.000000 2.095997
v 0.250761 7.000000 2.095997
v -0.250761 6.290183 1.283238
v 0.250761 6.290183 1.283238
v 0.250761 7.000000 1.283238
v -0.250761 7.000000 1.283238
v 0.250761 6.290183 1.283238
v 0.250761 6.290183 2.095997
v 0.250761 7.000000 2.095997
v 0.250761 7.000000 1.283238
v 0.250761 6.290183 -1.363621
v -0.250761 6.290183 -1.363621
v -0.250761 7.000000 -1.363621
v 0.250761 7.000000 -1.363621
v -0.250761 7.000000 2.095997
v -0.250761 7.000000 1.283238
v 0.250761 7.000000 1.283238
v 0.250761 7.000000 2.095997
v -0.250761 7.000000 -1.363621
v -0.250761 7.000000 -2.176378
v 0.250761 7.000000 -2.176378
v 0.250761 7.000000 -1.363621
v -4.799569 -0.000001 5.719473
v -4.799569 0.000001 -5.709098
v -4.799569 2.669945 -5.709098
v -4.799569 2.669688 5.719473
v 0.250761 6.290184 -2.176378
v 0.250761 6.290183 -1.363621
v 0.250761 7.000000 -1.363621
v 0.250761 7.000000 -2.176378
v 0.000002 6.699444 -5.994812
v 5.000001 2.669689 -5.994812
v 5.000001 2.669688 6.005188
v 0.000002 6.699443 6.005188
v 0.000000 6.525052 6.005188
v 0.000000 6.525053 -5.994812
v -5.000000 2.495552 -5.994812
v -5.000000 2.495296 6.005188
v 0.000002 6.699443 6.005188
v 5.000001 2.669688 6.005188
v 5.000000 2.495296 6.005187
v 0.000000 6.525052 6.005188
v -4.999998 2.669688 6.005188
v 0.000002 6.699443 6.005188
v 0.000000 6.525052 6.005188
v -5.000000 2.495296 6.005188
v 5.000001 2.669689 -5.994812
v 0.000002 6.699444 -5.994812
v 0.000000 6.525053 -5.994812
v 5.000000 2.495297 -5.994813
v -4.999998 2.669688 6.005188
v -4.999998 2.669945 -5.994811
v 0.000002 6.699444 -5.994812
v 0.000002 6.699443 6.005188
v 0.000002 6.699444 -5.994812
v -4.999998 2.669945 -5.994811
v -5.000000 2.495552 -5.994812
v 0.000000 6.525053 -5.994812
v -4.999998 2.669945 -5.994811
v -4.999998 2.669688 6.005188
v -5.000000 2.495296 6.005188
v -5.000000 2.495552 -5.994812
v -4.799569 2.669688 5.719473
v 0.000000 6.525052 5.719472
v 4.799569 2.669688 5.719472
v 4.799304 -0.000001 5.719472
v -4.799569 -0.000001 5.719473
v 0.000000 6.525053 -5.709098
v -4.799569 2.669945 -5.709098
v -4.799569 0.000001 -5.709098
v 4.799569 0.000001 -5.709099
v 4.799569 2.669689 -5.709099
v 5.000000 2.495297 -5.994813
v 0.000000 6.525053 -5.994812
v 0.000000 6.525052 6.005188
v 5.000000 2.495296 6.005187
v 5.000001 2.669688 6.005188
v 5.000001 2.669689 -5.994812
v 5.000000 2.495297 -5.994813
v 5.000000 2.495296 6.005187
vn -0.0000 -0.0000 -1.0000
vn 1.0000 -0.0001 -0.0000
vn 1.0000 -0.0000 -0.0000
vn -1.0000 -0.0000 -0.0000
vn -0.0000 -0.0000 1.0000
vn -0.0000 1.0000 -0.0000
vn 0.7288 0.6847 -0.0000
vn 0.7288 -0.6847 -0.0000
vn 0.7288 -0.6848 -0.0000
vn -0.7288 0.6847 -0.0000
vn -0.7288 0.6848 -0.0000
vn -0.7288 -0.6847 -0.0000
vt 0.539503 1.000000
vt 0.582322 0.931695
vt 0.582322 1.000000
vt 0.539503 0.931695
vt 0.000000 0.337349
vt 1.000000 0.000163
vt 1.000000 0.337349
vt 0.000000 0.000195
vt 0.480698 0.857903
vt 0.550349 0.931695
vt 0.480698 0.931695
vt 0.550349 0.857903
vt 0.411047 0.857903
vt 0.411047 0.931695
vt 0.453866 0.931695
vt 0.411047 1.000000
vt 0.453866 1.000000
vt 0.496684 0.931695
vt 0.496684 1.000000
vt 0.486293 0.811486
vt 0.486293 0.857903
vt 0.411047 0.811486
vt 0.486293 0.780680
vt 0.411047 0.780680
vt 0.561538 0.780680
vt 0.561538 0.811486
vt 0.000000 0.000000
vt 1.000000 0.337512
vt 1.000000 0.000000
vt 0.000000 0.337480
vt 0.561538 0.857903
vt 0.203950 1.000000
vt 0.000000 0.340798
vt 0.000000 1.000000
vt 0.203950 0.340798
vt 0.443331 0.762132
vt 0.419421 0.714727
vt 0.443331 0.714727
vt 0.419420 0.762132
vt 0.983213 0.668782
vt 0.752524 0.959181
vt 0.750863 0.948960
vt 0.984874 0.679002
vt 0.744308 0.922547
vt 0.978319 0.652589
vt 0.976658 0.642369
vt 0.745969 0.932768
vt 0.746857 0.935981
vt 0.980877 0.666029
vt 0.979216 0.655808
vt 0.748519 0.946201
vt 0.407753 0.340798
vt 0.203875 1.000000
vt 0.407740 1.000000
vt 0.203875 0.340798
vt 0.985044 0.682340
vt 0.754361 0.972730
vt 0.752700 0.962510
vt 0.986705 0.692560
vt 0.770598 0.978203
vt 0.982239 0.731270
vt 0.989406 0.737400
vt 0.763431 0.972073
vt 0.410922 0.589098
vt 1.000000 0.589098
vt 0.705461 0.952624
vt 0.999984 0.337371
vt 0.410922 0.337371
vt 1.000000 0.337371
vt 1.000000 0.589123
vt 0.419420 0.714727
vt 0.982228 0.731261
vt 0.770609 0.978212
vt 0.763410 0.972055
vt 0.989427 0.737418
s 1
usemtl dom1.dds-0
f 1/1/1 3/2/1 2/3/1
f 3/2/1 1/1/1 4/4/1
f 5/5/2 7/6/3 6/7/3
f 7/6/3 5/5/2 8/8/2
f 9/9/4 11/10/4 10/11/4
f 11/10/4 9/9/4 12/12/4
f 13/11/4 15/13/4 14/9/4
f 15/13/4 13/11/4 16/14/4
f 17/15/5 19/16/5 18/14/5
f 19/16/5 17/15/5 20/17/5
f 21/17/1 23/18/1 22/19/1
f 23/18/1 21/17/1 24/15/1
f 25/13/3 27/20/3 26/21/3
f 27/20/3 25/13/3 28/22/3
f 29/4/5 31/19/5 30/18/5
f 31/19/5 29/4/5 32/1/5
f 33/23/6 35/22/6 34/24/6
f 35/22/6 33/23/6 36/20/6
f 37/25/6 39/20/6 38/23/6
f 39/20/6 37/25/6 40/26/6
f 41/27/4 43/28/4 42/29/4
f 43/28/4 41/27/4 44/30/4
f 45/21/3 47/26/3 46/31/3
f 47/26/3 45/21/3 48/20/3
f 49/32/7 51/33/7 50/34/7
f 51/33/7 49/32/7 52/35/7
f 53/36/8 55/37/8 54/38/9
f 55/37/8 53/36/8 56/39/8
f 57/40/5 59/41/5 58/42/5
f 59/41/5 57/40/5 60/43/5
f 61/44/5 63/45/5 62/46/5
f 63/45/5 61/44/5 64/47/5
f 65/48/1 67/49/1 66/50/1
f 67/49/1 65/48/1 68/51/1
f 69/52/10 71/53/10 70/54/11
f 71/53/10 69/52/10 72/55/10
f 73/56/1 75/57/1 74/58/1
f 75/57/1 73/56/1 76/59/1
f 77/60/4 79/61/4 78/62/4
f 79/61/4 77/60/4 80/63/4
f 81/64/5 83/65/5 82/66/5
f 84/67/5 81/64/5 85/68/5
f 83/65/5 81/64/5 84/67/5
f 86/66/1 88/69/1 87/70/1
f 89/68/1 86/66/1 90/64/1
f 88/69/1 86/66/1 89/68/1
f 91/39/12 93/38/12 92/36/12
f 93/38/12 91/39/12 94/71/12
f 95/72/3 97/73/3 96/74/3
f 97/73/3 95/72/3 98/75/3
