# Blender 4.4.1
# www.blender.org
mtllib ru_small_house_1.mtl
o ru_small_house_1
v -5.878993 -0.100788 4.837158
v -5.878993 5.524582 4.837157
v -5.878993 -0.100789 -4.837152
v -5.878993 5.524581 -4.837153
v -5.878993 5.524582 4.837157
v -5.878993 -0.100788 4.837158
v 4.050842 5.524582 4.837157
v 4.050842 -0.100788 4.837158
v 3.909054 2.176334 -3.788411
v 3.909054 2.176334 -2.184138
v 3.909054 -0.082529 -3.788410
v 3.909054 -0.082528 -2.184138
v -3.094122 7.366056 -3.564896
v -2.906541 8.423878 -3.743770
v -3.086736 7.363970 -3.569856
v -2.899155 8.421792 -3.748731
v -2.451627 7.593009 -2.730053
v -2.341224 8.215443 -2.835456
v -2.444241 7.590922 -2.735013
v -2.334206 8.213357 -2.840417
v -2.444241 7.590922 -2.735013
v -2.334206 8.213357 -2.840417
v -2.434644 7.591445 -2.721375
v -2.324237 8.213880 -2.826779
v -2.331622 8.215965 -2.821813
v -2.442025 7.593531 -2.716415
v -2.324237 8.213880 -2.826779
v -2.434644 7.591445 -2.721375
v -2.442025 7.593531 -2.716415
v -2.331622 8.215965 -2.821813
v -2.451627 7.593009 -2.730053
v -2.341224 8.215443 -2.835456
v -2.331622 8.215965 -2.821813
v -2.324237 8.213880 -2.826779
v -2.341224 8.215443 -2.835456
v -2.334206 8.213357 -2.840417
v -2.444241 7.590922 -2.735013
v -2.434644 7.591445 -2.721375
v -2.451627 7.593009 -2.730053
v -2.442025 7.593531 -2.716415
v -2.730778 7.386664 -3.063308
v -2.720809 7.387187 -3.049360
v -2.737796 7.388750 -3.058352
v -2.728194 7.389534 -3.044399
v -3.312715 7.535619 -3.970692
v -3.202308 8.158311 -4.076096
v -3.303113 7.536403 -3.956744
v -3.192710 8.158834 -4.062143
v -3.303113 7.536403 -3.956744
v -3.192710 8.158834 -4.062143
v -3.310130 7.538489 -3.951784
v -3.199723 8.160924 -4.057182
v -3.310130 7.538489 -3.951784
v -3.199723 8.160924 -4.057182
v -3.319732 7.537705 -3.965732
v -3.209693 8.160401 -4.071135
v -3.202308 8.158311 -4.076096
v -3.209693 8.160401 -4.071135
v -3.192710 8.158834 -4.062143
v -3.199723 8.160924 -4.057182
v -3.312715 7.535619 -3.970692
v -3.303113 7.536403 -3.956744
v -3.319732 7.537705 -3.965732
v -3.310130 7.538489 -3.951784
v -3.206373 7.469882 -3.771980
v -3.060147 8.294228 -3.911484
v -3.198987 7.467791 -3.776941
v -3.053134 8.292137 -3.916440
v -3.198987 7.467791 -3.776941
v -3.053134 8.292137 -3.916440
v -3.189385 7.468314 -3.762988
v -3.043164 8.292660 -3.902492
v -3.050550 8.294745 -3.897531
v -3.196403 7.470404 -3.758028
v -3.043164 8.292660 -3.902492
v -3.189385 7.468314 -3.762988
v 4.018348 2.602331 -3.975343
v 4.018348 2.602331 -1.833833
v 4.018348 2.721286 -3.975343
v 4.018348 2.721286 -1.742383
v 4.018348 -0.082528 -1.742382
v 4.018348 -0.082528 -1.833833
v -2.550215 8.446576 -3.237221
v -2.737796 7.388750 -3.058352
v -2.540613 8.447094 -3.223273
v -2.728194 7.389534 -3.044399
v -3.053134 8.292137 -3.916440
v -3.060147 8.294228 -3.911484
v -3.043164 8.292660 -3.902492
v -3.050550 8.294745 -3.897531
v -3.198987 7.467791 -3.776941
v -3.189385 7.468314 -3.762988
v -3.206373 7.469882 -3.771980
v -3.196403 7.470404 -3.758028
v -2.578648 7.509795 -2.878858
v -2.432427 8.334136 -3.018357
v -2.588250 7.509011 -2.892806
v -2.442397 8.333357 -3.032310
v -2.432427 8.334136 -3.018357
v -2.578648 7.509795 -2.878858
v -2.425410 8.331794 -3.023318
v -2.571263 7.507709 -2.883819
v -2.435012 8.331265 -3.037271
v -2.581233 7.506925 -2.897767
v -2.442397 8.333357 -3.032310
v -2.588250 7.509011 -2.892806
v 5.835789 -0.082529 -3.975343
v 5.720218 -0.082529 -3.975343
v 5.835789 2.174766 -3.975343
v 5.720218 2.193287 -3.975343
v 5.939919 2.174766 -3.975343
v 5.939919 2.274158 -3.975343
v 4.018348 2.602331 -3.975343
v 4.018348 2.721286 -3.975343
v -2.540613 8.447094 -3.223273
v -2.728194 7.389534 -3.044399
v -2.533601 8.445007 -3.228229
v -2.720809 7.387187 -3.049360
v -2.543198 8.444485 -3.242182
v -2.730778 7.386664 -3.063308
v -2.550215 8.446576 -3.237221
v -2.737796 7.388750 -3.058352
v -2.533601 8.445007 -3.228229
v -2.720809 7.387187 -3.049360
v -2.543198 8.444485 -3.242182
v -2.730778 7.386664 -3.063308
v 2.093084 7.868487 -0.127255
v 4.221436 5.524581 -5.078957
v -3.921608 7.868487 -0.127255
v -6.049586 5.524581 -5.078957
v -2.581233 7.506925 -2.897767
v -2.571263 7.507709 -2.883819
v -2.588250 7.509011 -2.892806
v -2.578648 7.509795 -2.878858
v -3.921608 7.868487 0.127259
v -6.049586 5.524582 5.078957
v 2.093084 7.868487 0.127259
v 4.221436 5.524582 5.078957
v -2.896571 8.424400 -3.730127
v -3.084152 7.366836 -3.550948
v -2.889553 8.422310 -3.735088
v -3.077134 7.364750 -3.555908
v -3.084152 7.366836 -3.550948
v -2.896571 8.424400 -3.730127
v -3.094122 7.366056 -3.564896
v -2.906541 8.423878 -3.743770
v -2.899155 8.421792 -3.748731
v -2.906541 8.423878 -3.743770
v -2.889553 8.422310 -3.735088
v -2.896571 8.424400 -3.730127
v -3.086736 7.363970 -3.569856
v -3.077134 7.364750 -3.555908
v -3.094122 7.366056 -3.564896
v -3.084152 7.366836 -3.550948
v -2.253708 7.954052 -2.626513
v -3.348161 7.884660 -4.183667
v -2.272539 7.959531 -2.613494
v -3.366624 7.890139 -4.170643
v -3.348161 7.884660 -4.183667
v -2.253708 7.954052 -2.626513
v -3.353334 7.854142 -4.178396
v -2.258877 7.923533 -2.621243
v -2.277713 7.929268 -2.608224
v -3.372165 7.859615 -4.165378
v -2.258877 7.923533 -2.621243
v -3.353334 7.854142 -4.178396
v -3.372165 7.859615 -4.165378
v -2.277713 7.929268 -2.608224
v -3.366624 7.890139 -4.170643
v -2.272539 7.959531 -2.613494
v -2.253708 7.954052 -2.626513
v -2.272539 7.959531 -2.613494
v -2.258877 7.923533 -2.621243
v -2.277713 7.929268 -2.608224
v -3.348161 7.884660 -4.183667
v -3.353334 7.854142 -4.178396
v -3.366624 7.890139 -4.170643
v -3.372165 7.859615 -4.165378
v -2.829000 8.072489 -3.437487
v -2.686099 5.851453 -3.417334
v -2.871831 8.073791 -3.415476
v -2.728935 5.852755 -3.395323
v -2.686099 5.851453 -3.417334
v -2.829000 8.072489 -3.437487
v -2.657666 5.851192 -3.358745
v -2.800567 8.072227 -3.378893
v -2.843030 8.073529 -3.356882
v -2.700501 5.852493 -3.336734
v -2.800567 8.072227 -3.378893
v -2.657666 5.851192 -3.358745
v -2.700501 5.852493 -3.336734
v -2.843030 8.073529 -3.356882
v -2.728935 5.852755 -3.395323
v -2.871831 8.073791 -3.415476
v -2.686099 5.851453 -3.417334
v -2.657666 5.851192 -3.358745
v -2.728935 5.852755 -3.395323
v -2.700501 5.852493 -3.336734
v 5.836162 -0.082529 -3.955500
v 5.836162 0.093558 -3.955500
v 5.882686 -0.082529 -3.955500
v 5.882686 0.093558 -3.955500
v 5.882686 -0.082529 -3.955500
v 5.882686 0.093558 -3.955500
v 5.882686 -0.082528 -1.763769
v 5.882686 0.093558 -1.763769
v -3.319732 7.537705 -3.965732
v -3.209693 8.160401 -4.071135
v -3.312715 7.535619 -3.970692
v -3.202308 8.158311 -4.076096
v 5.836162 -0.082528 -1.763769
v 5.836162 0.093558 -1.763769
v 5.836162 -0.082529 -3.955500
v 5.836162 0.093558 -3.955500
v 5.836162 0.093558 -1.763769
v 5.882686 0.093558 -1.763769
v 5.836162 0.093558 -3.955500
v 5.882686 0.093558 -3.955500
v 5.882686 -0.082529 -3.955500
v 5.882686 -0.082528 -1.763769
v 5.836162 -0.082529 -3.955500
v 5.836162 -0.082528 -1.763769
v 5.939919 2.174766 -1.742382
v 5.939919 2.274158 -1.742382
v 5.835789 2.174766 -1.742382
v 4.018348 2.721286 -1.742383
v 4.018348 -0.082528 -1.742382
v -3.196403 7.470404 -3.758028
v -3.050550 8.294745 -3.897531
v -3.206373 7.469882 -3.771980
v -3.060147 8.294228 -3.911484
v 4.018348 -0.082528 -1.833833
v 5.720218 -0.082528 -1.833833
v 4.018348 -0.082528 -1.742382
v 5.835789 -0.082528 -1.742382
v 5.835789 -0.082529 -3.975343
v 5.720218 -0.082529 -3.975343
v -2.432427 8.334136 -3.018357
v -2.425410 8.331794 -3.023318
v -2.442397 8.333357 -3.032310
v -2.435012 8.331265 -3.037271
v -2.581233 7.506925 -2.897767
v -2.435012 8.331265 -3.037271
v -2.571263 7.507709 -2.883819
v -2.425410 8.331794 -3.023318
v 4.020565 2.725985 -1.596989
v 4.020565 2.725985 -4.118253
v 6.044786 2.249897 -1.596989
v 6.044786 2.249897 -4.118253
v -2.829000 8.072489 -3.437487
v -2.871831 8.073791 -3.415476
v -2.800567 8.072227 -3.378893
v -2.843030 8.073529 -3.356882
v 3.909054 2.176334 -3.788411
v 3.909054 -0.082529 -3.788410
v 4.050842 2.176334 -3.788411
v 4.050842 -0.082529 -3.788410
v 5.835789 2.174766 -1.742382
v 5.835789 -0.082528 -1.742382
v 5.835789 2.174766 -3.975343
v 5.835789 -0.082529 -3.975343
v 5.939919 2.274158 -1.742382
v 5.939919 2.174766 -1.742382
v 5.939919 2.274158 -3.975343
v 5.939919 2.174766 -3.975343
v 5.720218 2.193287 -1.833833
v 4.018348 2.602331 -1.833833
v 5.720218 2.193287 -3.975343
v 4.018348 2.602331 -3.975343
v 4.018348 2.602331 -1.833833
v 5.720218 2.193287 -1.833833
v 4.018348 -0.082528 -1.833833
v 5.720218 -0.082528 -1.833833
v 5.720218 -0.082529 -3.975343
v 5.720218 -0.082528 -1.833833
v 5.720218 2.193287 -3.975343
v 5.720218 2.193287 -1.833833
v 4.018348 2.721286 -3.975343
v 4.018348 2.721286 -1.742383
v 5.939919 2.274158 -3.975343
v 5.939919 2.274158 -1.742382
v 4.020565 2.725985 -4.118253
v 4.025366 2.746592 -4.118253
v 6.044786 2.249897 -4.118253
v 6.049586 2.270766 -4.118253
v 6.044786 2.249897 -4.118253
v 6.049586 2.270766 -4.118253
v 6.044786 2.249897 -1.596989
v 6.049586 2.270766 -1.596989
v 5.882686 -0.082528 -1.763769
v 5.882686 0.093558 -1.763769
v 5.836162 -0.082528 -1.763769
v 5.836162 0.093558 -1.763769
v 4.020565 2.725985 -1.596989
v 4.025366 2.746592 -1.596989
v 4.020565 2.725985 -4.118253
v 4.025366 2.746592 -4.118253
v 4.025366 2.746592 -1.596989
v 6.049586 2.270766 -1.596989
v 4.025366 2.746592 -4.118253
v 6.049586 2.270766 -4.118253
v 4.050842 2.176334 -3.788411
v 4.050842 2.176334 -2.184138
v 3.909054 2.176334 -3.788411
v 3.909054 2.176334 -2.184138
v 5.939919 2.174766 -1.742382
v 5.835789 2.174766 -1.742382
v 5.939919 2.174766 -3.975343
v 5.835789 2.174766 -3.975343
v 2.093084 7.868487 0.127259
v 4.221436 5.524582 5.078957
v 2.093084 7.868487 -0.127255
v 4.221436 5.524581 -5.078957
v -2.889553 8.422310 -3.735088
v -3.077134 7.364750 -3.555908
v -2.899155 8.421792 -3.748731
v -3.086736 7.363970 -3.569856
v -3.921608 7.868487 -0.127255
v -6.049586 5.524581 -5.078957
v -3.921608 7.868487 0.127259
v -6.049586 5.524582 5.078957
v 2.093084 7.868487 -0.127255
v -3.921608 7.868487 -0.127255
v 2.093084 7.868487 0.127259
v -3.921608 7.868487 0.127259
v -6.049586 5.524582 5.078957
v -6.049586 5.524581 -5.078957
v 4.221436 5.524582 5.078957
v 4.221436 5.524581 -5.078957
v 3.909054 -0.082528 -2.184138
v 3.909054 2.176334 -2.184138
v 4.050842 -0.082528 -2.184138
v 4.050842 2.176334 -2.184138
v -5.878993 -0.100789 -4.837152
v -5.878993 5.524581 -4.837153
v 4.050842 -0.100789 -4.837152
v 4.050842 5.524581 -4.837153
v 6.044786 2.249897 -1.596989
v 6.049586 2.270766 -1.596989
v 4.020565 2.725985 -1.596989
v 4.025366 2.746592 -1.596989
v 3.909054 -0.082528 -2.184138
v 4.050842 -0.082528 -2.184138
v 3.909054 -0.082529 -3.788410
v 4.050842 -0.082529 -3.788410
v -2.540613 8.447094 -3.223273
v -2.533601 8.445007 -3.228229
v -2.550215 8.446576 -3.237221
v -2.543198 8.444485 -3.242182
v 4.050842 -0.082529 -3.788410
v 4.050842 -0.082528 -2.184138
v 4.050842 -0.100788 4.837158
v 4.050842 2.176334 -2.184138
v 4.050842 5.524582 4.837157
v 4.050842 2.176334 -3.788411
v 4.050842 5.524581 -4.837153
v 4.050842 -0.100789 -4.837152
v 5.835789 -0.082528 -1.742382
vn -1.0000 -0.0000 -0.0000
vn -0.0000 -0.0000 1.0000
vn 1.0000 -0.0000 -0.0000
vn -0.5648 -0.0393 -0.8243
vn -0.5648 -0.0392 -0.8243
vn -0.5648 -0.0394 -0.8243
vn -0.5837 -0.0342 -0.8113
vn 0.7991 -0.2350 -0.5533
vn 0.7888 -0.2360 -0.5676
vn 0.5651 0.0393 0.8241
vn 0.5650 0.0393 0.8241
vn -0.7989 0.2354 0.5534
vn -0.7990 0.2354 0.5533
vn 0.1697 0.9730 -0.1566
vn 0.1728 0.9713 -0.1637
vn -0.1697 -0.9730 0.1566
vn -0.1696 -0.9730 0.1567
vn -0.1747 -0.9713 0.1613
vn -0.1851 -0.9658 0.1817
vn 0.8068 -0.2348 -0.5422
vn 0.8049 -0.2350 -0.5449
vn 0.5836 0.0339 0.8113
vn 0.5839 0.0338 0.8111
vn -0.8067 0.2349 0.5422
vn -0.7950 0.2351 0.5592
vn 0.1716 0.9730 -0.1545
vn 0.1753 0.9712 -0.1616
vn -0.1682 -0.9709 0.1703
vn -0.1682 -0.9709 0.1704
vn -0.5835 -0.0341 -0.8114
vn 0.8049 -0.2346 -0.5451
vn 0.7948 -0.2356 -0.5593
vn 0.5648 0.0396 0.8243
vn 0.5836 0.0338 0.8113
vn -0.8047 0.2349 0.5453
vn -0.8069 0.2348 0.5421
vn 0.1753 0.9712 -0.1617
vn 0.1714 0.9731 -0.1540
vn -0.1717 -0.9730 0.1546
vn -0.1750 -0.9712 0.1615
vn -0.8068 0.2349 0.5422
vn -0.7970 0.2352 0.5563
vn 0.5843 0.0336 0.8108
vn 0.5648 0.0396 0.8242
vn -0.5836 -0.0340 -0.8113
vn -0.0000 -0.0000 -1.0000
vn 0.5835 0.0338 0.8114
vn 0.5657 0.0391 0.8237
vn -0.5836 -0.0337 -0.8113
vn -0.5832 -0.0338 -0.8117
vn 0.8050 -0.2346 -0.5449
vn 0.7948 -0.2355 -0.5593
vn -0.0000 0.9039 -0.4278
vn -0.1661 -0.9708 0.1732
vn -0.1628 -0.9725 0.1667
vn -0.0000 0.9039 0.4278
vn 0.5836 0.0340 0.8113
vn -0.7968 0.2356 0.5564
vn -0.7889 0.2359 0.5675
vn 0.1698 0.9730 -0.1564
vn 0.1734 0.9711 -0.1639
vn -0.1630 -0.9725 0.1665
vn -0.1661 -0.9708 0.1731
vn 0.1701 0.9719 -0.1629
vn 0.1723 0.9712 -0.1643
vn 0.8008 -0.2312 -0.5525
vn 0.8008 -0.2311 -0.5526
vn -0.1785 -0.9694 0.1688
vn -0.1699 -0.9719 0.1628
vn -0.7992 0.2401 0.5510
vn -0.8006 0.2330 0.5521
vn 0.5766 0.0432 0.8159
vn 0.5769 0.0434 0.8156
vn -0.5840 -0.0410 -0.8107
vn -0.5755 -0.0365 -0.8170
vn -0.4577 -0.0375 -0.8883
vn -0.4576 -0.0375 -0.8884
vn 0.8984 0.0539 -0.4358
vn 0.8985 0.0539 -0.4357
vn 0.4608 0.0376 0.8867
vn 0.4576 0.0375 0.8884
vn -0.8985 -0.0537 0.4358
vn -0.8962 -0.0537 0.4403
vn -0.0261 -0.9996 0.0082
vn -0.0000 1.0000 -0.0000
vn -0.0000 -1.0000 -0.0000
vn -0.7949 0.2353 0.5592
vn -0.8049 0.2350 0.5449
vn 0.1884 0.9638 -0.1885
vn 0.1716 0.9729 -0.1549
vn 0.7969 -0.2355 -0.5563
vn 0.8049 -0.2347 -0.5450
vn -0.2289 -0.9734 -0.0000
vn 0.0262 0.9996 -0.0082
vn 0.0263 0.9996 -0.0085
vn -0.2337 -0.9723 -0.0000
vn 0.2266 0.9740 -0.0000
vn 0.9745 -0.2242 -0.0000
vn 0.9746 -0.2242 -0.0000
vn -0.9739 0.2269 -0.0000
vn 0.2288 0.9735 -0.0000
vn 0.7403 0.6722 -0.0000
vn 0.7989 -0.2355 -0.5534
vn -0.7404 0.6722 -0.0000
vn 0.1773 0.9714 -0.1581
vn 0.1774 0.9713 -0.1584
vt 0.999086 0.000763
vt 0.999086 0.573612
vt 0.002509 0.000763
vt 0.002509 0.573612
vt 0.998756 0.999462
vt 0.791235 0.999462
vt 0.998756 0.576934
vt 0.791235 0.576934
vt 0.428040 0.617806
vt 0.428040 0.975688
vt 0.417288 0.617806
vt 0.417288 0.975688
vt -1.162340 0.263612
vt -0.834040 0.263612
vt -1.162340 0.275224
vt -0.819989 0.275224
vt -0.819989 0.002012
vt -0.834040 0.002012
vt 0.465771 0.236791
vt 0.466629 0.244959
vt 0.137075 0.244441
vt 0.135294 0.252640
vt 0.136283 0.237095
vt 0.121837 0.237431
vt 0.088526 0.373976
vt 0.071177 0.374372
vt 0.163724 0.998761
vt 0.001388 0.578367
vt 0.622698 0.998761
vt 0.785100 0.578367
vt 0.164120 0.997541
vt 0.001718 0.577117
vt 0.623094 0.997541
vt 0.785430 0.577117
vt 0.268540 0.059313
vt 0.212207 0.059313
vt 0.268540 0.049559
vt 0.212207 0.049559
vt 0.910101 0.049011
vt 0.910101 0.059252
vt 0.488133 0.049011
vt 0.488133 0.059252
vt 0.912410 0.049041
vt 0.912410 0.059282
vt 0.490507 0.049041
vt 0.490507 0.059282
vt 0.900537 0.049559
vt 0.900537 0.056173
vt 0.515310 0.049559
vt 0.515310 0.056173
vt 0.516431 0.049864
vt 0.901658 0.049864
vt 0.516431 0.056478
vt 0.901658 0.056478
vt 0.497038 0.234261
vt 0.482196 0.234261
vt 0.497038 0.240997
vt 0.483120 0.355719
vt 0.902647 0.355719
vt -0.180407 0.475165
vt -0.180407 0.309330
vt -0.166357 0.475165
vt -0.166357 0.298053
vt -0.508708 0.298053
vt -0.508708 0.309330
vt 0.002378 0.999401
vt 0.250664 0.999401
vt 0.002378 0.795467
vt 0.250664 0.795467
vt 0.537078 0.335542
vt 0.921183 0.335542
vt 0.537078 0.315975
vt 0.921183 0.315975
vt 0.482724 0.350964
vt 0.063394 0.358736
vt 0.479426 0.232798
vt 0.063328 0.240265
vt 0.351786 0.560140
vt 0.351786 0.551149
vt 0.468410 0.560750
vt 0.468410 0.551789
vt 0.420850 0.240326
vt 0.420850 0.353890
vt 0.104951 0.240326
vt 0.104951 0.353890
vt 0.064977 0.358706
vt 0.130281 0.244563
vt 0.486484 0.350446
vt 0.483845 0.239564
vt 0.897238 0.233865
vt 0.897238 0.350812
vt 0.526787 0.233865
vt 0.526787 0.350812
vt 0.229886 0.655966
vt 0.572236 0.655966
vt 0.229886 0.843197
vt 0.572236 0.843197
vt 0.270453 0.058855
vt 0.214120 0.058855
vt 0.270453 0.049133
vt 0.214120 0.049133
vt 0.648160 0.324691
vt 0.890708 0.324691
vt 0.648160 0.305155
vt 0.890708 0.305155
vt -0.166357 0.287934
vt -0.508708 0.287934
vt 0.415309 0.998273
vt 0.064647 0.577940
vt 0.433317 0.998273
vt 0.783979 0.577940
vt 0.414781 0.998242
vt 0.064185 0.577909
vt 0.432855 0.998242
vt 0.783451 0.577909
vt 0.493542 0.997724
vt 0.479821 0.997724
vt 0.759902 0.577909
vt 0.212669 0.577909
vt 0.919666 0.305429
vt 0.535560 0.305429
vt 0.919666 0.324996
vt 0.535560 0.324996
vt 0.890378 0.335450
vt 0.890378 0.315883
vt 0.647830 0.335450
vt 0.647830 0.315883
vt 0.891104 0.002622
vt 0.725799 0.002622
vt 0.725799 0.232645
vt 0.891104 0.232645
vt 0.902647 0.237553
s 0
usemtl TexMap
f 1/1/1 2/2/1 3/3/1
f 2/2/1 4/4/1 3/3/1
f 5/4/2 6/3/2 7/2/2
f 6/3/2 8/1/2 7/2/2
f 9/5/3 10/6/3 11/7/3
f 10/6/3 12/8/3 11/7/3
f 13/9/4 14/10/4 15/11/4
f 14/10/5 16/12/5 15/11/5
f 17/9/6 18/10/6 19/11/6
f 18/10/7 20/12/7 19/11/7
f 21/9/8 22/10/8 23/11/8
f 22/10/9 24/12/9 23/11/9
f 25/12/10 26/11/10 27/10/10
f 26/11/11 28/9/11 27/10/11
f 29/9/12 30/10/12 31/11/12
f 30/10/13 32/12/13 31/11/13
f 33/9/14 34/10/14 35/11/14
f 34/10/15 36/12/15 35/11/15
f 37/10/16 38/12/16 39/9/16
f 38/12/17 40/11/17 39/9/17
f 41/10/18 42/12/18 43/9/18
f 42/12/19 44/11/19 43/9/19
f 45/9/20 46/10/20 47/11/20
f 46/10/21 48/12/21 47/11/21
f 49/9/22 50/10/22 51/11/22
f 50/10/23 52/12/23 51/11/23
f 53/9/24 54/10/24 55/11/24
f 54/10/25 56/12/25 55/11/25
f 57/12/26 58/11/26 59/10/26
f 58/11/27 60/9/27 59/10/27
f 61/10/28 62/12/28 63/9/28
f 62/12/29 64/11/29 63/9/29
f 65/9/4 66/10/4 67/11/4
f 66/10/30 68/12/30 67/11/30
f 69/9/31 70/10/31 71/11/31
f 70/10/32 72/12/32 71/11/32
f 73/12/33 74/11/33 75/10/33
f 74/11/34 76/9/34 75/10/34
f 77/13/1 78/14/1 79/15/1
f 78/14/1 80/16/1 79/15/1
f 80/16/1 78/14/1 81/17/1
f 78/14/1 82/18/1 81/17/1
f 83/12/35 84/11/35 85/10/35
f 84/11/36 86/9/36 85/10/36
f 87/12/37 88/11/37 89/10/37
f 88/11/38 90/9/38 89/10/38
f 91/10/39 92/12/39 93/9/39
f 92/12/40 94/11/40 93/9/40
f 95/9/41 96/10/41 97/11/41
f 96/10/42 98/12/42 97/11/42
f 99/12/43 100/11/43 101/10/43
f 100/11/44 102/9/44 101/10/44
f 103/12/4 104/11/4 105/10/4
f 104/11/45 106/9/45 105/10/45
f 107/19/46 108/20/46 109/21/46
f 108/20/46 110/22/46 109/21/46
f 109/21/46 110/22/46 111/23/46
f 110/22/46 112/24/46 111/23/46
f 110/22/46 113/25/46 112/24/46
f 113/25/46 114/26/46 112/24/46
f 115/12/47 116/11/47 117/10/47
f 116/11/48 118/9/48 117/10/48
f 119/12/49 120/11/49 121/10/49
f 120/11/50 122/9/50 121/10/50
f 123/12/51 124/11/51 125/10/51
f 124/11/52 126/9/52 125/10/52
f 127/27/53 128/28/53 129/29/53
f 128/28/53 130/30/53 129/29/53
f 131/10/54 132/12/54 133/9/54
f 132/12/55 134/11/55 133/9/55
f 135/31/56 136/32/56 137/33/56
f 136/32/56 138/34/56 137/33/56
f 139/12/22 140/11/22 141/10/22
f 140/11/57 142/9/57 141/10/57
f 143/9/58 144/10/58 145/11/58
f 144/10/59 146/12/59 145/11/59
f 147/12/60 148/11/60 149/10/60
f 148/11/61 150/9/61 149/10/61
f 151/10/62 152/12/62 153/9/62
f 152/12/63 154/11/63 153/9/63
f 155/12/64 156/11/64 157/10/64
f 156/11/65 158/9/65 157/10/65
f 159/9/66 160/10/66 161/11/66
f 160/10/67 162/12/67 161/11/67
f 163/12/68 164/11/68 165/10/68
f 164/11/69 166/9/69 165/10/69
f 167/9/70 168/10/70 169/11/70
f 168/10/71 170/12/71 169/11/71
f 171/12/72 172/11/72 173/10/72
f 172/11/73 174/9/73 173/10/73
f 175/10/74 176/12/74 177/9/74
f 176/12/75 178/11/75 177/9/75
f 179/12/76 180/11/76 181/10/76
f 180/11/77 182/9/77 181/10/77
f 183/9/78 184/10/78 185/11/78
f 184/10/79 186/12/79 185/11/79
f 187/12/80 188/11/80 189/10/80
f 188/11/81 190/9/81 189/10/81
f 191/9/82 192/10/82 193/11/82
f 192/10/83 194/12/83 193/11/83
f 195/10/84 196/12/84 197/9/84
f 196/12/84 198/11/84 197/9/84
f 199/35/46 200/36/46 201/37/46
f 200/36/46 202/38/46 201/37/46
f 203/39/3 204/40/3 205/41/3
f 204/40/3 206/42/3 205/41/3
f 207/9/7 208/10/7 209/11/7
f 208/10/6 210/12/6 209/11/6
f 211/43/1 212/44/1 213/45/1
f 212/44/1 214/46/1 213/45/1
f 215/47/85 216/48/85 217/49/85
f 216/48/85 218/50/85 217/49/85
f 219/51/86 220/52/86 221/53/86
f 220/52/86 222/54/86 221/53/86
f 223/55/2 224/56/2 225/57/2
f 224/56/2 226/58/2 225/57/2
f 225/57/2 226/58/2 227/59/2
f 228/9/87 229/10/87 230/11/87
f 229/10/88 231/12/88 230/11/88
f 232/60/86 233/61/86 234/62/86
f 233/61/86 235/63/86 234/62/86
f 235/63/86 233/61/86 236/64/86
f 233/61/86 237/65/86 236/64/86
f 238/9/89 239/10/89 240/11/89
f 239/10/90 241/12/90 240/11/90
f 242/9/91 243/10/91 244/11/91
f 243/10/92 245/12/92 244/11/92
f 246/66/93 247/67/93 248/68/93
f 247/67/93 249/69/93 248/68/93
f 250/12/94 251/11/94 252/10/94
f 251/11/95 253/9/95 252/10/95
f 254/70/2 255/71/2 256/72/2
f 255/71/2 257/73/2 256/72/2
f 258/74/3 259/75/3 260/76/3
f 259/75/3 261/77/3 260/76/3
f 262/78/3 263/79/3 264/80/3
f 263/79/3 265/81/3 264/80/3
f 266/82/96 267/83/96 268/84/96
f 267/83/96 269/85/96 268/84/96
f 270/86/46 271/87/46 272/88/46
f 271/87/46 273/89/46 272/88/46
f 274/90/1 275/91/1 276/92/1
f 275/91/1 277/93/1 276/92/1
f 278/94/97 279/95/97 280/96/97
f 279/95/97 281/97/97 280/96/97
f 282/67/46 283/69/46 284/66/46
f 283/69/46 285/68/46 284/66/46
f 286/67/98 287/69/98 288/66/98
f 287/69/99 289/68/99 288/66/99
f 290/98/2 291/99/2 292/100/2
f 291/99/2 293/101/2 292/100/2
f 294/67/100 295/69/100 296/66/100
f 295/69/100 297/68/100 296/66/100
f 298/67/101 299/69/101 300/66/101
f 299/69/101 301/68/101 300/66/101
f 302/102/86 303/103/86 304/104/86
f 303/103/86 305/105/86 304/104/86
f 306/106/86 307/63/86 308/107/86
f 307/63/86 309/64/86 308/107/86
f 310/108/102 311/109/102 312/110/102
f 311/109/102 313/111/102 312/110/102
f 314/12/103 315/11/103 316/10/103
f 315/11/20 317/9/20 316/10/20
f 318/112/104 319/113/104 320/114/104
f 319/113/104 321/115/104 320/114/104
f 322/110/85 323/116/85 324/108/85
f 323/116/85 325/117/85 324/108/85
f 326/115/86 327/113/86 328/118/86
f 327/113/86 329/119/86 328/118/86
f 330/120/46 331/121/46 332/122/46
f 331/121/46 333/123/46 332/122/46
f 334/1/46 335/2/46 336/3/46
f 335/2/46 337/4/46 336/3/46
f 338/67/2 339/69/2 340/66/2
f 339/69/2 341/68/2 340/66/2
f 342/124/85 343/125/85 344/126/85
f 343/125/85 345/127/85 344/126/85
f 346/9/105 347/10/105 348/11/105
f 347/10/106 349/12/106 348/11/106
f 350/128/3 351/129/3 352/3/3
f 351/129/3 353/130/3 352/3/3
f 352/3/3 353/130/3 354/4/3
f 353/130/3 355/131/3 354/4/3
f 354/4/3 355/131/3 356/2/3
f 355/131/3 350/128/3 356/2/3
f 356/2/3 350/128/3 357/1/3
f 350/128/3 352/3/3 357/1/3
f 227/59/2 358/132/2 225/57/2
