# Blender 5.0.1
# www.blender.org
mtllib barkasse.mtl
o barkasse
v 1.990999 0.774073 0.013467
v -1.944219 0.774073 0.163108
v 1.990999 0.774073 0.163108
v 1.990999 0.774073 0.013467
v -1.944219 0.774073 0.013467
v 1.990999 0.774073 0.163108
v -1.858762 -0.576942 0.161789
v 1.856662 -0.576942 0.161770
v -1.944219 0.774073 0.163108
v -1.944219 0.774073 0.013467
v 1.856662 -0.576942 0.012130
v -1.858762 -0.576942 0.012130
v 1.990999 0.774073 0.013467
v 0.767084 -0.143479 -1.024250
v 0.767078 -0.143453 -2.628858
v 0.664347 0.242234 -1.024250
v 0.664347 0.242234 -2.628858
v 0.383678 0.524597 -1.024250
v 0.383678 0.524597 -2.628858
v 0.000278 0.627948 -1.024250
v 0.000278 0.627948 -2.628858
v -0.383129 0.524597 -1.024250
v -0.383129 0.524597 -2.628858
v -0.663791 0.242234 -1.024250
v -0.663791 0.242234 -2.628858
v -0.766529 -0.143479 -1.024250
v -0.766529 -0.143453 -2.628858
v -0.663791 -0.529173 -1.024250
v -0.663791 -0.529173 -2.628858
v 0.664347 -0.529173 -1.024250
v 0.664347 -0.529173 -2.628858
v -0.383129 0.524597 -2.628858
v 0.664347 0.242234 -2.628858
v -0.663791 0.242234 -2.628858
v 0.383678 0.524597 -2.628858
v 0.000278 0.627948 -2.628858
v -0.766529 -0.143453 -2.628858
v 0.767078 -0.143453 -2.628858
v -0.663791 -0.529173 -2.628858
v 0.664347 -0.529173 -2.628858
v 0.383678 0.524597 -1.024250
v -0.383129 0.524597 -1.024250
v -0.663791 0.242234 -1.024250
v 0.664347 0.242234 -1.024250
v 0.000278 0.627948 -1.024250
v 0.767084 -0.143479 -1.024250
v -0.766529 -0.143479 -1.024250
v 0.664347 -0.529173 -1.024250
v -0.663791 -0.529173 -1.024250
v 0.392499 1.070258 -1.926383
v 0.392499 0.441305 -1.926383
v 0.276572 1.070258 -2.206626
v 0.276572 0.441304 -2.206626
v -0.003263 1.070258 -2.322721
v -0.003263 0.441304 -2.322721
v -0.283125 1.070258 -2.206626
v -0.283125 0.441304 -2.206626
v -0.399052 1.070258 -1.926383
v -0.399052 0.441305 -1.926383
v -0.283125 1.070258 -1.646121
v -0.283125 0.441305 -1.646121
v -0.003263 1.070258 -1.530046
v -0.003263 0.441305 -1.530046
v 0.276572 1.070258 -1.646121
v 0.276572 0.441305 -1.646121
v 0.276572 1.070258 -2.206626
v -0.003263 1.185971 -1.926383
v 0.392499 1.070258 -1.926383
v -0.003263 1.070258 -2.322721
v -0.283125 1.070258 -2.206626
v -0.399052 1.070258 -1.926383
v -0.283125 1.070258 -1.646121
v -0.003263 1.070258 -1.530046
v 0.276572 1.070258 -1.646121
v 0.728253 0.865507 -0.595343
v 0.727574 0.062254 -0.595621
v 0.746573 0.899454 -0.552976
v 0.745875 0.062254 -0.551367
v 0.790769 0.924773 -0.535018
v 0.790090 0.062254 -0.533021
v 0.834977 0.899454 -0.552976
v 0.834279 0.062254 -0.551367
v 0.853278 0.865507 -0.595343
v 0.852600 0.062254 -0.595621
v 0.834977 0.830456 -0.638026
v 0.834279 0.062254 -0.639894
v 0.790769 0.812388 -0.658531
v 0.790090 0.062254 -0.658234
v 0.746573 0.830456 -0.638026
v 0.745875 0.062254 -0.639894
v 0.732240 0.865507 -1.868139
v 0.747911 0.909974 -1.885399
v 0.792824 0.928379 -1.929886
v 0.837820 0.909974 -1.974223
v 0.856225 0.865507 -1.992098
v 0.837820 0.821040 -1.974223
v 0.792824 0.802616 -1.929886
v 0.747911 0.821040 -1.885399
v 0.341311 0.865507 -1.867286
v 0.732240 0.865507 -1.868139
v 0.341311 0.909974 -1.885606
v 0.747911 0.909974 -1.885399
v 0.341311 0.928379 -1.929886
v 0.792824 0.928379 -1.929886
v 0.341311 0.909974 -1.974139
v 0.837820 0.909974 -1.974223
v 0.341311 0.865507 -1.992479
v 0.856225 0.865507 -1.992098
v 0.341311 0.821040 -1.974139
v 0.837820 0.821040 -1.974223
v 0.341311 0.802616 -1.929886
v 0.792824 0.802616 -1.929886
v 0.341311 0.821040 -1.885606
v 0.747911 0.821040 -1.885399
v 1.004851 0.072748 -0.776371
v -0.104689 0.072748 0.017280
v 1.004851 0.072748 0.017280
v -0.104689 0.072748 -0.776371
v 1.004851 0.072748 0.017280
v -0.104689 -0.520792 0.017280
v 1.004851 -0.520792 0.017280
v -0.104689 0.072748 0.017280
v 1.004851 0.072748 -0.776371
v 1.004851 -0.520792 0.017280
v 1.004851 -0.520792 -0.776371
v 1.004851 0.072748 0.017280
v -0.104689 0.072748 -0.776371
v 1.004851 -0.520792 -0.776371
v -0.104689 -0.520792 -0.776371
v 1.004851 0.072748 -0.776371
v -0.104689 0.072748 0.017280
v -0.104689 -0.520792 -0.776371
v -0.104689 -0.520792 0.017280
v -0.104689 0.072748 -0.776371
v -0.104689 0.209496 -1.029129
v -0.747510 0.209497 -0.367755
v -0.104689 0.209497 -0.367755
v -0.747510 0.209496 -1.029129
v -0.104689 0.209497 -0.367755
v -0.747510 -0.525781 -0.367755
v -0.104689 -0.525781 -0.367755
v -0.747510 0.209497 -0.367755
v -0.104689 0.209496 -1.029129
v -0.104689 -0.525781 -0.367755
v -0.104689 -0.525781 -1.029129
v -0.104689 0.209497 -0.367755
v -0.747510 0.209496 -1.029129
v -0.104689 -0.525781 -1.029129
v -0.747510 -0.525781 -1.029129
v -0.104689 0.209496 -1.029129
v -0.747510 0.209497 -0.367755
v -0.747510 -0.525781 -1.029129
v -0.747510 -0.525781 -0.367755
v -0.747510 0.209496 -1.029129
v 0.133401 0.463044 -0.137743
v 0.131766 0.057310 -0.137743
v 0.107700 0.441563 -0.190269
v 0.110052 0.057310 -0.190269
v 0.057527 0.389716 -0.212027
v 0.057592 0.057310 -0.212027
v 0.005894 0.337850 -0.190269
v 0.005131 0.057310 -0.190269
v -0.016731 0.316370 -0.137743
v -0.016582 0.057310 -0.137743
v 0.005894 0.337850 -0.085199
v 0.005131 0.057310 -0.085199
v 0.057527 0.389716 -0.063447
v 0.057592 0.057310 -0.063447
v 0.107700 0.441563 -0.085199
v 0.110052 0.057310 -0.085224
v -0.675436 0.465267 -0.137743
v -0.654253 0.443515 -0.190269
v -0.601515 0.391707 -0.212027
v -0.548078 0.339718 -0.190269
v -0.529842 0.318173 -0.137743
v -0.548078 0.339718 -0.085199
v -0.601515 0.391707 -0.063447
v -0.654253 0.443515 -0.085199
v -0.675688 -0.119136 -0.135921
v -0.675436 0.465267 -0.137743
v -0.653975 -0.065828 -0.192220
v -0.654253 0.443515 -0.190269
v -0.601515 -0.044645 -0.212111
v -0.601515 0.391707 -0.212027
v -0.549054 -0.065828 -0.192220
v -0.548078 0.339718 -0.190269
v -0.527341 -0.119136 -0.135921
v -0.529842 0.318173 -0.137743
v -0.549054 -0.172359 -0.084604
v -0.548078 0.339718 -0.085199
v -0.601515 -0.193394 -0.063867
v -0.601515 0.391707 -0.063447
v -0.653975 -0.172359 -0.084604
v -0.654253 0.443515 -0.085199
v -0.675688 -0.119136 -0.381662
v -0.653975 -0.066378 -0.381662
v -0.601515 -0.044516 -0.381662
v -0.549054 -0.066378 -0.381662
v -0.527341 -0.119136 -0.381662
v -0.549054 -0.171913 -0.381662
v -0.601515 -0.193775 -0.381662
v -0.653975 -0.171913 -0.381662
v -1.015559 0.337320 0.165040
v -0.666738 0.337295 3.778470
v -1.015559 -0.588607 0.165040
v -0.666738 -0.588626 3.778450
v -2.067396 0.337320 0.183632
v -1.197749 0.337295 5.129149
v -1.015559 0.337320 0.165040
v -0.666738 0.337295 3.778470
v 0.650266 0.337295 3.778470
v 1.035637 0.337320 0.165033
v 0.650266 -0.588626 3.778450
v 1.035637 -0.588607 0.165034
v 1.205937 0.337295 5.079254
v 1.978043 0.337320 0.208570
v 0.650266 0.337295 3.778470
v 1.035637 0.337320 0.165033
v -0.666738 0.337295 3.778470
v 0.650266 0.337295 3.778470
v -0.666738 -0.588626 3.778450
v 0.650266 -0.588626 3.778450
v -0.226231 0.426506 -0.686248
v -0.145420 0.068890 -0.686248
v -0.285904 0.426506 -0.830505
v -0.228758 0.068890 -0.887735
v -0.429948 0.426506 -0.890262
v -0.429948 0.068890 -0.971176
v -0.429948 0.426506 -0.890262
v -0.429948 0.068890 -0.971176
v -0.573992 0.426506 -0.830505
v -0.631138 0.068890 -0.887735
v -0.633658 0.426506 -0.686248
v -0.714475 0.068890 -0.686248
v -0.573992 0.426506 -0.541991
v -0.631138 0.068890 -0.484780
v -0.429948 0.426506 -0.482240
v -0.429948 0.068890 -0.401320
v -0.285904 0.426506 -0.541991
v -0.228758 0.068890 -0.484780
v -0.226231 4.145646 -0.686248
v -0.285904 4.145646 -0.830505
v -0.429948 4.145646 -0.890262
v -0.429948 4.145646 -0.890262
v -0.573992 4.145646 -0.830505
v -0.633658 4.145646 -0.686248
v -0.573992 4.145646 -0.541991
v -0.429948 4.145646 -0.482241
v -0.285904 4.145646 -0.541991
v -0.145420 4.427142 -0.686248
v -0.228758 4.427142 -0.887716
v -0.429948 4.427142 -0.971176
v -0.429948 4.427142 -0.971176
v -0.631138 4.427142 -0.887716
v -0.714475 4.427142 -0.686248
v -0.631138 4.427142 -0.484761
v -0.429948 4.427142 -0.401301
v -0.228758 4.427142 -0.484761
v -0.228758 4.427142 -0.887716
v -0.429948 3.763306 -0.686248
v -0.145420 4.427142 -0.686248
v -0.429948 4.427142 -0.971176
v -0.631138 4.427142 -0.887716
v -0.714475 4.427142 -0.686248
v -0.631138 4.427142 -0.484761
v -0.429948 4.427142 -0.401301
v -0.228758 4.427142 -0.484761
v 0.751452 -1.017262 -5.364498
v 0.000000 -1.274855 -7.435332
v 0.000000 -1.001546 -7.811359
v 0.257618 -1.274855 -3.191398
v 1.451297 -1.001572 -3.076635
v 0.586270 -1.274854 -0.529395
v 1.775024 -1.001572 0.119003
v 0.656754 -1.274854 0.313511
v 1.253583 -1.001571 3.895101
v 0.457748 -1.274854 3.644455
v 0.751452 -1.002799 5.883761
v 0.144277 -1.274854 5.262465
v 1.075483 0.092148 -6.226979
v 0.000000 0.092148 -7.983327
v 1.971807 0.092148 -3.627156
v 2.339794 0.092148 0.078478
v 1.789913 0.092129 3.966470
v 1.075483 0.092129 6.175241
v 1.211999 0.864660 -6.534065
v 0.000000 0.934214 -8.077837
v 2.099249 0.829926 -3.799382
v 2.423997 0.782810 0.119003
v 1.901536 0.782810 3.972176
v 1.211999 0.782810 6.223889
v 1.093590 0.870451 -5.276223
v 0.000000 0.934214 -8.077837
v 0.000000 0.881604 -6.167732
v 1.211999 0.864660 -6.534065
v 1.951108 0.847019 -3.450561
v 2.099249 0.829926 -3.799382
v 2.165681 0.799902 0.279073
v 2.423997 0.782810 0.119003
v 1.703525 0.799903 3.687461
v 2.423997 0.782810 0.119003
v 2.165681 0.799902 0.279073
v 1.901536 0.782810 3.972176
v 1.093590 0.799903 5.719761
v 1.211999 0.782810 6.223889
v 1.105061 1.207839 -5.444398
v 0.000000 0.881604 -6.167732
v 0.000000 1.257030 -6.208807
v 1.093590 0.870451 -5.276223
v 1.902466 1.135656 -3.391037
v 1.951108 0.847019 -3.450561
v 2.194328 1.135656 0.258362
v 2.165681 0.799902 0.279073
v 1.724773 1.135637 3.721285
v 1.703525 0.799903 3.687461
v 1.105061 1.135637 5.797457
v 1.093590 0.799903 5.719761
v 0.965877 1.180207 -5.096876
v 0.000000 1.257030 -6.208807
v 0.000000 1.212776 -5.761857
v 1.105061 1.207839 -5.444398
v 1.685987 1.134383 -3.189912
v 1.902466 1.135656 -3.391037
v 1.949583 1.134383 0.228183
v 2.194328 1.135656 0.258362
v 1.525535 1.134364 3.355585
v 2.194328 1.135656 0.258362
v 1.949583 1.134383 0.228183
v 1.724773 1.135637 3.721285
v 0.965877 1.134364 5.280805
v 1.105061 1.135637 5.797457
v 0.926728 -0.495033 -4.862968
v 0.000000 1.212776 -5.761857
v 0.000000 -0.495033 -5.457994
v 0.965877 1.180207 -5.096876
v 1.592239 -0.495033 -3.059652
v 1.685987 1.134383 -3.189912
v 1.835840 -0.495033 0.194954
v 1.949583 1.134383 0.228183
v 1.443936 -0.495052 3.085165
v 1.525535 1.134364 3.355585
v 0.926735 -0.495052 4.903680
v 0.965877 1.134364 5.280805
v 0.000000 -1.001546 -7.811359
v 0.000000 -1.274855 -7.435332
v -0.751452 -1.017262 -5.364498
v -0.257618 -1.274855 -3.191398
v -1.451297 -1.001572 -3.076635
v -0.586270 -1.274854 -0.529395
v -1.775024 -1.001572 0.119003
v -0.656754 -1.274854 0.313511
v -1.253583 -1.001571 3.895101
v -0.457748 -1.274854 3.644455
v -0.751452 -1.002799 5.883761
v -0.144277 -1.274854 5.262465
v 0.000000 0.092148 -7.983327
v -1.075483 0.092148 -6.226979
v -1.971807 0.092148 -3.627156
v -2.339794 0.092148 0.078478
v -1.789932 0.092129 3.966470
v -1.075483 0.092129 6.175241
v 0.000000 0.934214 -8.077837
v -1.211999 0.864660 -6.534065
v -2.099249 0.829926 -3.799382
v -2.423997 0.782810 0.119003
v -1.901536 0.782810 3.972176
v -1.211999 0.782810 6.223889
v 0.000000 0.881604 -6.167732
v 0.000000 0.934214 -8.077837
v -1.093590 0.870451 -5.276223
v -1.211999 0.864660 -6.534065
v -1.951108 0.847019 -3.450561
v -2.099249 0.829926 -3.799382
v -2.165681 0.799902 0.279073
v -2.423997 0.782810 0.119003
v -2.165681 0.799902 0.279073
v -2.423997 0.782810 0.119003
v -1.703525 0.799903 3.687461
v -1.901536 0.782810 3.972176
v -1.093590 0.799903 5.719761
v -1.211999 0.782810 6.223889
v -1.105061 1.207839 -5.444398
v -1.093590 0.870451 -5.276223
v -1.902466 1.135656 -3.391037
v -1.951108 0.847019 -3.450561
v -2.194328 1.135656 0.258362
v -2.165681 0.799902 0.279073
v -1.724773 1.135637 3.721285
v -1.703525 0.799903 3.687461
v -1.105061 1.135637 5.797457
v -1.093590 0.799903 5.719761
v -0.965877 1.180207 -5.096876
v -1.105061 1.207839 -5.444398
v -1.685987 1.134383 -3.189912
v -1.902466 1.135656 -3.391037
v -1.949583 1.134383 0.228183
v -2.194328 1.135656 0.258362
v -1.949583 1.134383 0.228183
v -2.194328 1.135656 0.258362
v -1.525529 1.134364 3.355585
v -1.724773 1.135637 3.721285
v -0.965877 1.134364 5.280805
v -1.105061 1.135637 5.797457
v -0.926735 -0.495033 -4.862968
v -0.965877 1.180207 -5.096876
v -1.592245 -0.495033 -3.059652
v -1.685987 1.134383 -3.189912
v -1.835840 -0.495033 0.194954
v -1.949583 1.134383 0.228183
v -1.443936 -0.495052 3.085165
v -1.525529 1.134364 3.355585
v -0.926728 -0.495052 4.903680
v -0.965877 1.134364 5.280805
v -0.965877 1.134364 5.280805
v -1.105061 1.135637 5.797457
v 1.105061 1.135637 5.797457
v -1.105061 1.135637 5.797457
v 1.093590 0.799903 5.719761
v -1.093590 0.799903 5.719761
v 1.093590 0.799903 5.719761
v 1.211999 0.782810 6.223889
v 1.211999 0.782810 6.223889
v -1.211999 0.782810 6.223889
v -1.075483 0.092129 6.175241
v 1.075483 0.092129 6.175241
v -0.926735 -0.495033 -4.862968
v 0.926728 -0.495033 -4.862968
v 0.000000 -0.495033 -5.457994
v -1.592245 -0.495033 -3.059652
v 1.592239 -0.495033 -3.059652
v -1.835840 -0.495033 0.194954
v 1.835840 -0.495033 0.194954
v 1.443936 -0.495052 3.085165
v -1.443936 -0.495052 3.085165
v -0.926728 -0.495052 4.903680
v 0.926735 -0.495052 4.903680
v -0.926728 -0.495052 4.903680
v -0.965877 1.134364 5.280805
v 0.926735 -0.495052 4.903680
v 0.965877 1.134364 5.280805
v 0.751452 -1.002799 5.883761
v -0.751452 -1.002799 5.883761
v 0.751452 -1.002799 5.883761
v -0.751452 -1.002799 5.883761
v 0.144277 -1.274854 5.262465
v -0.144277 -1.274854 5.262465
v 0.457748 -1.274854 3.644455
v -0.457748 -1.274854 3.644455
v 0.656754 -1.274854 0.313511
v -0.656754 -1.274854 0.313511
v 0.586270 -1.274854 -0.529395
v -0.586270 -1.274854 -0.529395
v 0.586270 -1.274854 -0.529395
v -0.586270 -1.274854 -0.529395
v 0.257618 -1.274855 -3.191398
v -0.257618 -1.274855 -3.191398
v 0.000000 -1.274855 -7.435332
v 0.790213 3.695891 5.569869
v 0.828747 1.080650 5.546967
v 0.790213 1.080650 5.569869
v 0.828747 3.695891 5.546967
v 0.790743 3.695891 5.614737
v 0.790743 1.080650 5.614737
v 0.829826 3.695891 5.636708
v 0.829826 1.080650 5.636708
v 0.868355 3.695891 5.613780
v 0.829826 1.080650 5.636708
v 0.868355 1.080650 5.613780
v 0.829826 3.695891 5.636708
v 0.867805 3.695891 5.568938
v 0.867805 1.080650 5.568938
v 0.830014 3.772482 5.647119
v 0.777346 3.772482 5.564776
v 0.778064 3.772482 5.620061
v 0.880504 3.772482 5.563613
v 0.881227 3.772482 5.618891
v 0.828553 3.772482 5.536556
v 0.777346 3.704906 5.564777
v 0.828747 3.695891 5.546967
v 0.790213 3.695891 5.569869
v 0.828553 3.704906 5.536556
v 0.778064 3.704906 5.620062
v 0.790743 3.695891 5.614737
v 0.830014 3.704906 5.647119
v 0.790743 3.695891 5.614737
v 0.829826 3.695891 5.636708
v 0.778064 3.704906 5.620062
v 0.881227 3.704906 5.618892
v 0.868355 3.695891 5.613780
v 0.880504 3.704906 5.563614
v 0.867805 3.695891 5.568938
v 0.777346 3.772482 5.564776
v 0.828553 3.772482 5.536556
v 0.778064 3.772482 5.620061
v 0.830014 3.772482 5.647119
v 0.778064 3.772482 5.620061
v 0.881227 3.772482 5.618891
v 0.880504 3.772482 5.563613
v 0.073961 -2.259413 6.146381
v -0.081425 -2.259413 6.146381
v -0.038929 -1.580138 5.633884
v 0.047582 -1.580138 5.633884
v 0.073961 -3.255656 6.139596
v -0.081425 -3.255656 6.139596
v -0.081425 -2.259413 6.146381
v 0.073961 -2.259413 6.146381
v 0.073961 -3.248044 6.352431
v -0.081425 -3.248044 6.352431
v -0.081425 -3.255656 6.139596
v 0.073961 -3.255656 6.139596
v 0.073961 -3.251668 8.077837
v -0.081425 -3.251668 8.077837
v 0.073961 -0.791412 6.478917
v 0.047582 -0.987619 5.721332
v -0.038929 -0.987619 5.721332
v -0.081425 -0.791412 6.478917
v 0.073961 -2.118297 6.380819
v 0.073961 -0.791412 6.478917
v -0.081425 -0.791412 6.478917
v -0.081425 -2.118297 6.380819
v 0.073961 -3.103935 6.385066
v -0.081425 -3.103935 6.385066
v 0.073961 -3.110487 8.061358
v 0.073961 -3.103935 6.385066
v -0.081425 -3.103935 6.385066
v -0.081425 -3.110487 8.061358
v 0.047582 -0.987619 5.721332
v 0.047582 -1.580138 5.633884
v -0.038929 -1.580138 5.633884
v -0.038929 -0.987619 5.721332
v 0.073961 -0.791412 6.478917
v 0.073961 -2.259413 6.146381
v 0.047582 -1.580138 5.633884
v 0.047582 -0.987619 5.721332
v 0.073961 -2.118297 6.380819
v 0.073961 -3.255656 6.139596
v 0.073961 -3.103935 6.385066
v 0.073961 -3.248044 6.352431
v 0.073961 -3.110487 8.061358
v 0.073961 -3.251668 8.077837
v 0.073961 -3.248044 6.352431
v 0.073961 -3.103935 6.385066
v -0.081425 -3.110487 8.061358
v -0.081425 -3.251668 8.077837
v 0.073961 -3.251668 8.077837
v 0.073961 -3.110487 8.061358
v -0.081425 -3.103935 6.385066
v -0.081425 -3.248044 6.352431
v -0.081425 -3.251668 8.077837
v -0.081425 -3.110487 8.061358
v -0.081425 -2.118297 6.380819
v -0.081425 -3.255656 6.139596
v -0.081425 -3.248044 6.352431
v -0.081425 -3.103935 6.385066
v -0.081425 -0.791412 6.478917
v -0.081425 -2.259413 6.146381
v -0.038929 -0.987619 5.721332
v -0.038929 -1.580138 5.633884
vn -0.0000 1.0000 -0.0000
vn -0.0000 -0.0010 1.0000
vn -0.0000 0.0010 -1.0000
vn 1.0000 -0.0000 -0.0000
vn 0.8671 0.4981 -0.0000
vn 0.8671 0.4980 -0.0000
vn 0.5019 0.8649 -0.0000
vn 0.5020 0.8649 -0.0000
vn -0.5020 0.8649 -0.0000
vn -0.8672 0.4980 -0.0000
vn -0.8671 0.4981 -0.0000
vn -1.0000 -0.0000 -0.0000
vn -0.9663 -0.2574 -0.0000
vn 0.9663 -0.2574 -0.0000
vn -0.0000 -0.0000 -1.0000
vn -0.0000 -0.0000 1.0000
vn 0.7075 -0.0000 -0.7067
vn -0.7075 -0.0000 -0.7068
vn -0.7074 -0.0000 0.7068
vn -0.7075 -0.0000 0.7068
vn 0.7075 -0.0000 0.7068
vn 0.1984 0.9599 -0.1983
vn 0.2806 0.9598 -0.0000
vn -0.0000 0.9599 -0.2803
vn -0.1984 0.9599 -0.1982
vn -0.2806 0.9598 -0.0000
vn -0.1983 0.9599 0.1982
vn -0.0000 0.9599 0.2803
vn 0.1984 0.9599 0.1982
vn -0.9864 0.1375 0.0897
vn -1.0000 0.0013 0.0003
vn -0.7289 0.4527 0.5136
vn -0.7073 0.0021 0.7069
vn -0.0010 0.7283 0.6853
vn -0.0002 0.0021 1.0000
vn 0.7294 0.4504 0.5149
vn 0.7069 0.0003 0.7073
vn 0.9864 0.1376 0.0904
vn 1.0000 -0.0005 -0.0002
vn 0.8666 -0.3733 -0.3313
vn 0.7077 -0.0003 -0.7066
vn -0.0010 -0.7265 -0.6872
vn -0.0010 0.0010 -1.0000
vn -0.8671 -0.3682 -0.3356
vn -0.7072 0.0019 -0.7071
vn -1.0000 -0.0020 -0.0008
vn -0.6177 0.7864 0.0039
vn 0.1919 0.9814 0.0042
vn 0.8135 0.5815 0.0045
vn 1.0000 0.0006 0.0035
vn 0.8123 -0.5832 0.0039
vn 0.1965 -0.9805 0.0076
vn -0.6187 -0.7856 0.0052
vn 0.0009 0.0008 1.0000
vn 0.0009 0.0011 1.0000
vn 0.0009 0.7055 0.7087
vn -0.0002 0.7842 0.6205
vn -0.0001 1.0000 -0.0002
vn -0.0000 0.9808 -0.1951
vn -0.0001 0.7061 -0.7081
vn 0.0005 0.5739 -0.8190
vn 0.0003 -0.0003 -1.0000
vn 0.0003 -0.0002 -1.0000
vn 0.0003 -0.7058 -0.7084
vn -0.0001 -0.5733 -0.8193
vn -0.0000 -1.0000 -0.0001
vn -0.0000 -0.9808 -0.1952
vn -0.0003 -0.7060 0.7082
vn 0.0005 -0.7844 0.6203
vn 0.7190 0.6950 -0.0016
vn 1.0000 0.0006 -0.0029
vn 0.4764 0.5017 -0.7220
vn 0.7088 0.0032 -0.7054
vn 0.1029 0.0977 -0.9899
vn -0.0003 0.0005 -1.0000
vn -0.3408 -0.3362 -0.8780
vn -0.7072 0.0005 -0.7070
vn -0.7028 -0.7114 0.0008
vn -1.0000 0.0009 0.0009
vn -0.3414 -0.3364 0.8776
vn -0.7081 0.0014 0.7061
vn 0.1041 0.0971 0.9898
vn 0.0010 0.0011 1.0000
vn 0.4733 0.5034 0.7229
vn 0.7063 -0.0003 0.7079
vn 0.0027 1.0000 -0.0001
vn 0.0022 0.8160 -0.5781
vn 0.0005 0.1999 -0.9798
vn -0.0020 -0.6185 -0.7858
vn -0.0034 -1.0000 -0.0001
vn -0.0021 -0.6185 0.7858
vn 0.0006 0.2000 0.9798
vn 0.0021 0.8159 0.5782
vn -0.9900 -0.0969 0.1029
vn -1.0000 0.0013 -0.0002
vn -0.8791 0.3425 -0.3316
vn -0.8162 0.0009 -0.5778
vn -0.0000 0.7004 -0.7138
vn -0.1905 0.0010 -0.9817
vn 0.8790 0.3427 -0.3316
vn 0.6232 0.0038 -0.7820
vn 0.9898 -0.0945 0.1065
vn 1.0000 0.0017 0.0024
vn 0.7044 -0.5005 0.5033
vn 0.6208 -0.0010 0.7840
vn -0.0002 -0.7080 0.7062
vn -0.1897 0.0003 0.9819
vn -0.7036 -0.5025 0.5025
vn -0.8160 0.0013 0.5781
vn -1.0000 0.0002 -0.0003
vn -0.7093 0.7050 -0.0015
vn 0.0011 1.0000 -0.0007
vn 0.7083 0.7059 -0.0006
vn 1.0000 -0.0003 -0.0005
vn 0.7090 -0.7052 -0.0008
vn -0.0008 -1.0000 -0.0000
vn -0.7083 -0.7059 0.0001
vn 0.9954 -0.0000 -0.0961
vn -0.9944 -0.0000 -0.1060
vn 0.9935 0.1140 -0.0000
vn 0.9754 0.2204 -0.0000
vn 0.7029 0.1141 -0.7021
vn 0.6900 0.2206 -0.6894
vn 0.3810 0.1055 -0.9185
vn 0.3750 0.2046 -0.9042
vn -0.3810 0.1055 -0.9185
vn -0.3750 0.2046 -0.9042
vn -0.7029 0.1141 -0.7021
vn -0.6900 0.2206 -0.6894
vn -0.9935 0.1140 -0.0000
vn -0.9754 0.2204 -0.0000
vn -0.7029 0.1141 0.7021
vn -0.6900 0.2206 0.6894
vn -0.0000 0.1141 0.9935
vn -0.0000 0.2207 0.9753
vn 0.7029 0.1141 0.7021
vn 0.6900 0.2205 0.6894
vn 0.9895 -0.1442 -0.0000
vn 0.7001 -0.1443 -0.6993
vn 0.3797 -0.1336 -0.9154
vn -0.3797 -0.1336 -0.9154
vn -0.7001 -0.1443 -0.6993
vn -0.9895 -0.1443 -0.0000
vn -0.7001 -0.1444 0.6993
vn -0.0000 -0.1445 0.9895
vn 0.7001 -0.1444 0.6993
vn 0.9612 -0.2759 -0.0000
vn 0.6799 -0.2761 -0.6793
vn 0.3703 -0.2566 -0.8927
vn -0.3703 -0.2566 -0.8927
vn -0.6799 -0.2761 -0.6793
vn -0.9612 -0.2759 -0.0000
vn -0.6799 -0.2761 0.6793
vn -0.0000 -0.2763 0.9611
vn 0.6799 -0.2761 0.6793
vn -0.6501 0.3942 0.6496
vn -0.9191 0.3939 -0.0000
vn -0.0000 0.3944 0.9189
vn 0.6501 0.3942 0.6496
vn 0.9191 0.3939 -0.0000
vn 0.6501 0.3942 -0.6496
vn -0.0000 0.3944 -0.9189
vn -0.6501 0.3942 -0.6496
vn 0.6485 -0.7428 -0.1667
vn 0.8532 -0.4562 -0.2529
vn 0.8794 -0.2597 -0.3990
vn 0.2426 -0.9691 -0.0437
vn 0.6108 -0.7844 -0.1085
vn 0.2341 -0.9719 -0.0231
vn 0.6382 -0.7697 0.0128
vn 0.2445 -0.9696 0.0085
vn 0.6539 -0.7443 0.1358
vn 0.3168 -0.9475 0.0436
vn 0.7647 -0.6164 0.1876
vn 0.3494 -0.9345 0.0677
vn 0.8670 -0.3513 -0.3534
vn 0.8213 -0.1113 -0.5595
vn 0.9176 -0.3475 -0.1932
vn 0.9563 -0.2921 0.0147
vn 0.9294 -0.3035 0.2101
vn 0.9179 -0.2844 0.2768
vn 0.8554 -0.2802 -0.4357
vn 0.7831 -0.0694 -0.6180
vn 0.9516 -0.2197 -0.2151
vn 0.9917 -0.1269 0.0222
vn 0.9646 -0.1558 0.2129
vn 0.9339 -0.1959 0.2990
vn 0.0280 0.9996 0.0028
vn 0.0180 0.9997 0.0157
vn -0.0122 0.9995 0.0275
vn 0.0541 0.9985 -0.0000
vn 0.1132 0.9936 0.0014
vn 0.0883 0.9960 -0.0107
vn 0.0721 0.9974 0.0062
vn 0.0699 0.9975 0.0062
vn 0.0688 0.9976 0.0120
vn 0.0720 0.9974 0.0098
vn 0.0633 0.9979 0.0160
vn 0.0624 0.9979 0.0191
vn 0.0625 0.9979 0.0191
vn 0.7299 -0.2983 -0.6151
vn -0.0000 -0.1677 -0.9858
vn -0.0000 -0.1088 -0.9941
vn 0.8089 -0.2673 -0.5236
vn 0.9545 0.1862 -0.2329
vn 0.9426 0.2051 -0.2634
vn 0.9965 -0.0761 0.0335
vn 0.9957 -0.0823 0.0423
vn 0.9733 -0.0832 0.2141
vn 0.9750 -0.0829 0.2061
vn 0.9533 -0.0977 0.2859
vn 0.9531 -0.0988 0.2860
vn -0.0502 0.9968 0.0614
vn -0.0000 0.9957 0.0927
vn -0.0000 0.9951 0.0985
vn -0.0225 0.9975 0.0675
vn 0.0003 0.9999 0.0105
vn 0.0117 0.9998 0.0189
vn -0.0053 1.0000 0.0004
vn -0.0049 1.0000 -0.0008
vn -0.0051 1.0000 -0.0007
vn -0.0044 1.0000 -0.0011
vn -0.0025 1.0000 -0.0018
vn -0.0013 1.0000 -0.0021
vn -0.7902 0.1086 0.6031
vn -0.0000 0.1618 0.9868
vn -0.0000 0.1752 0.9845
vn -0.7683 0.1084 0.6308
vn -0.9754 0.0704 0.2087
vn -0.9719 0.0744 0.2235
vn -0.9972 0.0695 -0.0279
vn -0.9971 0.0702 -0.0300
vn -0.9770 0.0816 -0.1971
vn -0.9738 0.0822 -0.2118
vn -0.9571 0.0899 -0.2756
vn -0.9566 0.0873 -0.2781
vn -0.8794 -0.2597 -0.3990
vn -0.8532 -0.4562 -0.2529
vn -0.6485 -0.7428 -0.1667
vn -0.2426 -0.9691 -0.0437
vn -0.6108 -0.7844 -0.1085
vn -0.2341 -0.9719 -0.0231
vn -0.6382 -0.7697 0.0128
vn -0.2445 -0.9696 0.0085
vn -0.6539 -0.7443 0.1358
vn -0.3168 -0.9475 0.0436
vn -0.7647 -0.6164 0.1876
vn -0.3494 -0.9345 0.0677
vn -0.8213 -0.1113 -0.5595
vn -0.8670 -0.3513 -0.3534
vn -0.9176 -0.3475 -0.1932
vn -0.9563 -0.2921 0.0147
vn -0.9294 -0.3035 0.2101
vn -0.9179 -0.2844 0.2768
vn -0.7831 -0.0694 -0.6180
vn -0.8554 -0.2802 -0.4357
vn -0.9516 -0.2197 -0.2151
vn -0.9917 -0.1269 0.0222
vn -0.9646 -0.1558 0.2129
vn -0.9339 -0.1959 0.2990
vn 0.0122 0.9995 0.0275
vn -0.0180 0.9997 0.0157
vn -0.0280 0.9996 0.0028
vn -0.0541 0.9985 -0.0000
vn -0.1132 0.9936 0.0014
vn -0.0883 0.9960 -0.0107
vn -0.0721 0.9974 0.0062
vn -0.0699 0.9975 0.0062
vn -0.0720 0.9974 0.0098
vn -0.0688 0.9976 0.0120
vn -0.0633 0.9979 0.0160
vn -0.0370 0.9990 0.0251
vn -0.0177 0.9994 0.0297
vn -0.7299 -0.2983 -0.6151
vn -0.8089 -0.2673 -0.5236
vn -0.9545 0.1862 -0.2329
vn -0.9426 0.2051 -0.2634
vn -0.9965 -0.0761 0.0335
vn -0.9957 -0.0823 0.0423
vn -0.9733 -0.0832 0.2141
vn -0.9750 -0.0829 0.2061
vn -0.9533 -0.0977 0.2859
vn -0.9531 -0.0988 0.2860
vn 0.0502 0.9968 0.0614
vn 0.0225 0.9975 0.0675
vn -0.0003 0.9999 0.0105
vn -0.0117 0.9998 0.0189
vn 0.0053 1.0000 0.0004
vn 0.0051 1.0000 -0.0007
vn 0.0049 1.0000 -0.0008
vn 0.0044 1.0000 -0.0011
vn 0.0043 1.0000 -0.0013
vn 0.7902 0.1086 0.6031
vn 0.7683 0.1084 0.6308
vn 0.9754 0.0704 0.2087
vn 0.9719 0.0744 0.2235
vn 0.9972 0.0695 -0.0279
vn 0.9971 0.0702 -0.0300
vn 0.9770 0.0816 -0.1971
vn 0.9738 0.0822 -0.2118
vn 0.9571 0.0899 -0.2756
vn 0.9566 0.0873 -0.2781
vn -0.0000 1.0000 -0.0025
vn -0.0000 -0.2255 0.9743
vn -0.0000 0.9994 0.0339
vn -0.0000 -0.0703 0.9975
vn -0.0000 -0.1499 0.9887
vn -0.0000 0.2255 -0.9742
vn -0.0000 -0.2573 0.9663
vn -0.0000 -0.9160 0.4011
vn -0.0000 -0.9727 0.2320
vn -0.0000 -1.0000 -0.0000
vn -0.8721 -0.0000 -0.4894
vn -0.0119 -0.0000 -0.9999
vn -0.8602 -0.0000 0.5100
vn -0.8601 -0.0000 0.5100
vn -0.4900 -0.0000 0.8717
vn 0.8723 -0.0000 0.4889
vn 0.5114 -0.0000 0.8593
vn 0.8601 -0.0000 -0.5101
vn -0.7906 -0.4177 -0.4478
vn 0.0069 -0.7599 -0.6500
vn -0.4658 -0.8330 -0.2985
vn -0.0081 -0.3774 -0.9260
vn -0.9133 -0.4071 0.0116
vn -0.5776 -0.8163 0.0068
vn 0.0081 -0.3773 0.9260
vn -0.3053 -0.7549 0.5804
vn -0.0066 -0.7600 0.6499
vn -0.4367 -0.3259 0.8385
vn 0.7905 -0.4179 0.4477
vn 0.4656 -0.8334 0.2977
vn 0.7776 -0.4191 -0.4688
vn 0.4573 -0.8272 -0.3264
vn -0.8643 -0.0000 -0.5030
vn -0.0117 -0.0000 -0.9999
vn -0.9999 -0.0000 0.0130
vn 0.0118 -0.0000 0.9999
vn -0.4619 -0.0000 0.8869
vn 0.8643 -0.0000 0.5029
vn 0.8516 -0.0000 -0.5243
vn -0.0000 -0.6023 -0.7983
vn -0.0000 0.0068 -1.0000
vn -0.0000 -0.9999 0.0168
vn -0.0000 -0.9994 0.0357
vn -0.0000 -1.0000 -0.0021
vn -0.0000 0.9681 -0.2507
vn -0.0000 -0.0347 0.9994
vn -0.0000 -0.0737 0.9973
vn -0.0000 0.0043 1.0000
vn -0.0000 1.0000 0.0039
vn -0.0000 0.1460 -0.9893
vn 0.9994 0.0064 -0.0335
vn 1.0000 0.0021 -0.0091
vn 0.9992 0.0079 -0.0386
vn 0.9993 0.0053 -0.0362
vn -0.0000 0.1159 0.9933
vn -0.9986 0.0119 -0.0524
vn -0.9999 0.0028 -0.0145
vn -0.9980 0.0127 -0.0618
vn -0.9976 0.0102 -0.0692
vt 0.051700 0.554800
vt 0.384700 0.542100
vt 0.051700 0.542100
vt 0.384700 0.554800
vt 0.528400 0.335000
vt 0.282000 0.420900
vt 0.519800 0.420900
vt 0.276600 0.335000
vt 0.566200 0.274900
vt 0.566200 0.409700
vt 0.585900 0.274900
vt 0.585900 0.409700
vt 0.606500 0.274900
vt 0.606500 0.409700
vt 0.637500 0.274900
vt 0.637500 0.409700
vt 0.668500 0.274900
vt 0.668500 0.409700
vt 0.690700 0.274900
vt 0.690700 0.409700
vt 0.709900 0.274900
vt 0.709900 0.409700
vt 0.732300 0.274900
vt 0.732300 0.409700
vt 0.546700 0.274900
vt 0.546700 0.409700
vt 0.902000 0.892100
vt 0.927600 0.987700
vt 0.927600 0.866500
vt 0.902000 0.962100
vt 0.892600 0.927100
vt 0.962600 0.857100
vt 0.962600 0.997100
vt 0.997600 0.866500
vt 0.997600 0.987700
vt 0.988700 0.851300
vt 0.988700 0.735900
vt 0.948400 0.851300
vt 0.948400 0.735900
vt 0.896700 0.851300
vt 0.896700 0.735900
vt 0.845000 0.851300
vt 0.845000 0.735900
vt 0.801800 0.851300
vt 0.801800 0.735900
vt 0.824600 0.373400
vt 0.864700 0.333300
vt 0.808000 0.333300
vt 0.864700 0.390000
vt 0.904700 0.373400
vt 0.921300 0.333300
vt 0.904700 0.293300
vt 0.864700 0.276700
vt 0.824600 0.293300
vt 0.014000 0.019600
vt 0.014000 0.121100
vt 0.008600 0.015300
vt 0.008400 0.121100
vt 0.004100 0.010100
vt 0.003800 0.121100
vt 0.019400 0.024000
vt 0.019600 0.121100
vt 0.024900 0.028200
vt 0.024900 0.121100
vt 0.175600 0.019600
vt 0.177800 0.013900
vt 0.183400 0.009700
vt 0.189100 0.013900
vt 0.191300 0.019600
vt 0.189100 0.025200
vt 0.183400 0.029100
vt 0.177800 0.025200
vt 0.655100 0.258500
vt 0.719700 0.258500
vt 0.655100 0.265800
vt 0.722300 0.265800
vt 0.655100 0.268800
vt 0.729800 0.268800
vt 0.737200 0.265800
vt 0.740300 0.258500
vt 0.655100 0.251200
vt 0.737200 0.251200
vt 0.655100 0.248100
vt 0.729800 0.248100
vt 0.722300 0.251200
vt 0.674400 0.126200
vt 0.754600 0.238500
vt 0.754600 0.126200
vt 0.674400 0.238500
vt 0.023800 0.513200
vt 0.063300 0.513200
vt 0.071900 0.540100
vt 0.005500 0.490700
vt 0.071900 0.490700
vt 0.005500 0.540100
vt 0.582500 0.754900
vt 0.687000 0.699300
vt 0.582500 0.699300
vt 0.687000 0.754900
vt 0.520100 0.512400
vt 0.602100 0.428200
vt 0.520100 0.428200
vt 0.602100 0.512400
vt 0.758000 0.121700
vt 0.686400 0.042300
vt 0.758000 0.042300
vt 0.686400 0.121700
vt 0.757900 0.121900
vt 0.686600 0.042900
vt 0.757900 0.042900
vt 0.686600 0.121900
vt 0.135400 0.367300
vt 0.135600 0.316900
vt 0.140200 0.363300
vt 0.139900 0.316900
vt 0.146300 0.357000
vt 0.146300 0.316900
vt 0.152600 0.350700
vt 0.152700 0.316900
vt 0.157100 0.347300
vt 0.157100 0.316900
vt 0.235900 0.367600
vt 0.232700 0.363500
vt 0.226300 0.357200
vt 0.219800 0.351000
vt 0.216200 0.347500
vt 0.253600 0.331200
vt 0.166500 0.331400
vt 0.245700 0.339600
vt 0.169800 0.339300
vt 0.241400 0.343400
vt 0.177500 0.343400
vt 0.185200 0.339300
vt 0.188400 0.331400
vt 0.261600 0.323500
vt 0.185200 0.323600
vt 0.266000 0.318600
vt 0.177500 0.318600
vt 0.169800 0.323600
vt 0.253600 0.368000
vt 0.245800 0.368000
vt 0.241400 0.368000
vt 0.261500 0.368000
vt 0.266100 0.368000
vt 0.010200 0.690600
vt 0.289800 0.690600
vt 0.010200 0.761900
vt 0.289800 0.761900
vt 0.988600 0.358100
vt 0.936300 0.050300
vt 0.925400 0.359200
vt 0.904400 0.134300
vt 0.791800 0.053400
vt 0.745300 0.356500
vt 0.825200 0.134300
vt 0.802000 0.359200
vt 0.825700 0.161100
vt 0.825700 0.268600
vt 0.900800 0.161100
vt 0.900800 0.268600
vt 0.963100 0.455200
vt 0.994000 0.455200
vt 0.963100 0.440600
vt 0.994000 0.440600
vt 0.963100 0.426100
vt 0.994000 0.426100
vt 0.963100 0.542400
vt 0.994000 0.542400
vt 0.963100 0.527800
vt 0.994000 0.527800
vt 0.963100 0.513300
vt 0.994000 0.513300
vt 0.963100 0.498800
vt 0.994000 0.498800
vt 0.963100 0.484200
vt 0.994000 0.484200
vt 0.963100 0.469700
vt 0.994000 0.469700
vt 0.641500 0.455100
vt 0.641500 0.440600
vt 0.641500 0.426100
vt 0.641500 0.542400
vt 0.641500 0.527800
vt 0.641500 0.513300
vt 0.641500 0.498800
vt 0.641500 0.484200
vt 0.641500 0.469700
vt 0.617200 0.455100
vt 0.617200 0.440600
vt 0.617200 0.426100
vt 0.617200 0.542400
vt 0.617200 0.527800
vt 0.617200 0.513300
vt 0.617200 0.498800
vt 0.617200 0.484200
vt 0.617200 0.469700
vt 0.030700 0.087200
vt 0.103400 0.065000
vt 0.030700 0.096400
vt 0.030700 0.065000
vt 0.030700 0.042900
vt 0.030700 0.033700
vt 0.639200 0.897300
vt 0.751300 0.883500
vt 0.771600 0.898200
vt 0.521600 0.883500
vt 0.515400 0.898200
vt 0.377600 0.883500
vt 0.342500 0.898200
vt 0.332000 0.883500
vt 0.138200 0.898200
vt 0.151800 0.883500
vt 0.030600 0.898100
vt 0.064200 0.883500
vt 0.685900 0.946400
vt 0.780900 0.946400
vt 0.545200 0.946400
vt 0.344700 0.946400
vt 0.134300 0.946400
vt 0.014800 0.946400
vt 0.702500 0.988000
vt 0.786000 0.991800
vt 0.554500 0.986100
vt 0.342500 0.983600
vt 0.134000 0.983600
vt 0.012200 0.983600
vt 0.248800 0.416700
vt 0.136100 0.372700
vt 0.212900 0.372700
vt 0.198200 0.421500
vt 0.322200 0.451300
vt 0.308200 0.457200
vt 0.472200 0.459900
vt 0.465800 0.470300
vt 0.142800 0.464200
vt 0.286400 0.493200
vt 0.279900 0.482800
vt 0.131400 0.472100
vt 0.061100 0.439600
vt 0.040800 0.444400
vt 0.946100 0.036200
vt 0.994500 0.014500
vt 0.997200 0.039500
vt 0.934900 0.013800
vt 0.808900 0.031400
vt 0.812800 0.012200
vt 0.564900 0.031400
vt 0.563500 0.009100
vt 0.333300 0.031400
vt 0.335600 0.009100
vt 0.194500 0.031400
vt 0.199700 0.009100
vt 0.141600 0.412900
vt 0.067800 0.348600
vt 0.097400 0.348600
vt 0.118500 0.422100
vt 0.268200 0.460700
vt 0.254800 0.475100
vt 0.495100 0.478200
vt 0.497100 0.494500
vt 0.165600 0.495400
vt 0.371200 0.539900
vt 0.373200 0.523600
vt 0.141300 0.508700
vt 0.037800 0.458200
vt 0.003500 0.467500
vt 0.753300 0.557400
vt 0.863600 0.683300
vt 0.841100 0.557400
vt 0.770600 0.680900
vt 0.619800 0.557400
vt 0.629400 0.677500
vt 0.378700 0.557400
vt 0.376300 0.677500
vt 0.164700 0.557400
vt 0.144700 0.677500
vt 0.030000 0.557400
vt 0.002100 0.677500
vt 0.771600 0.783900
vt 0.751300 0.769100
vt 0.639200 0.783000
vt 0.521600 0.769100
vt 0.515400 0.783900
vt 0.377600 0.769100
vt 0.342500 0.783900
vt 0.332000 0.769100
vt 0.138200 0.783900
vt 0.151800 0.769100
vt 0.030600 0.783800
vt 0.064200 0.769100
vt 0.780900 0.832100
vt 0.685900 0.832100
vt 0.545200 0.832100
vt 0.344700 0.832100
vt 0.134300 0.832100
vt 0.014800 0.832100
vt 0.786000 0.877400
vt 0.702500 0.873700
vt 0.554500 0.871800
vt 0.342500 0.869300
vt 0.134000 0.869300
vt 0.012200 0.869300
vt 0.212900 0.372600
vt 0.136100 0.372600
vt 0.198200 0.421400
vt 0.322200 0.451200
vt 0.472200 0.459800
vt 0.465800 0.470200
vt 0.279900 0.482700
vt 0.286400 0.493100
vt 0.142800 0.464100
vt 0.061100 0.439500
vt 0.040800 0.444300
vt 0.141600 0.412800
vt 0.141300 0.508600
vt 0.003500 0.467400
vt 0.037800 0.329800
vt 0.003500 0.320600
vt 0.398900 0.519800
vt 0.605000 0.519800
vt 0.400000 0.550900
vt 0.603900 0.550900
vt 0.061100 0.351400
vt 0.040800 0.346700
vt 0.795600 0.999000
vt 0.795600 0.858000
vt 0.835600 0.865900
vt 0.835600 0.991100
vt 0.040400 0.101200
vt 0.040400 0.221000
vt 0.002000 0.161100
vt 0.156800 0.058200
vt 0.156800 0.264000
vt 0.366800 0.042400
vt 0.366800 0.279700
vt 0.553400 0.254400
vt 0.553400 0.067700
vt 0.670700 0.101200
vt 0.670700 0.221000
vt 0.987400 0.559600
vt 0.871000 0.556800
vt 0.987400 0.692900
vt 0.871000 0.695700
vt 0.887400 0.972200
vt 0.887400 0.884800
vt 0.526000 0.276700
vt 0.526000 0.331900
vt 0.502500 0.299000
vt 0.502500 0.309600
vt 0.443300 0.287500
vt 0.443300 0.321100
vt 0.321500 0.280200
vt 0.321500 0.328400
vt 0.290600 0.282800
vt 0.290600 0.325800
vt 0.677300 0.041900
vt 0.674200 0.082200
vt 0.585400 0.046100
vt 0.584100 0.063800
vt 0.439600 0.043800
vt 0.308200 0.747000
vt 0.571800 0.738800
vt 0.571800 0.747000
vt 0.308200 0.738800
vt 0.308200 0.755300
vt 0.571800 0.755300
vt 0.308200 0.763500
vt 0.571800 0.763500
vt 0.308200 0.722400
vt 0.571800 0.714100
vt 0.571800 0.722400
vt 0.308200 0.714100
vt 0.308200 0.730600
vt 0.571800 0.730600
vt 0.559000 0.446500
vt 0.579600 0.478700
vt 0.579300 0.457100
vt 0.539300 0.479100
vt 0.539000 0.457600
vt 0.559600 0.489700
vt 0.302400 0.755500
vt 0.302400 0.747000
vt 0.302400 0.763200
vt 0.302400 0.722400
vt 0.302400 0.713900
vt 0.302400 0.730800
vt 0.302400 0.738500
vt 0.295600 0.755500
vt 0.295600 0.747000
vt 0.295600 0.763200
vt 0.295600 0.722400
vt 0.295600 0.713900
vt 0.295600 0.730800
vt 0.295600 0.738500
vt 0.975200 0.417600
vt 0.975200 0.402100
vt 0.804800 0.401700
vt 0.804800 0.416400
vt 0.744900 0.417400
vt 0.744900 0.401700
vt 0.845400 0.401700
vt 0.845400 0.417400
vt 0.723200 0.726900
vt 0.723200 0.703300
vt 0.690900 0.703300
vt 0.690900 0.726900
vt 0.985100 0.726900
vt 0.985100 0.703300
vt 0.973900 0.417600
vt 0.804500 0.417700
vt 0.804500 0.402700
vt 0.973900 0.401500
vt 0.859600 0.417400
vt 0.993400 0.417400
vt 0.993400 0.401700
vt 0.859600 0.401700
vt 0.760200 0.417400
vt 0.760200 0.401700
vt 0.982600 0.726900
vt 0.728200 0.726900
vt 0.728200 0.703300
vt 0.982600 0.703300
vt 0.953000 0.417400
vt 0.841800 0.417400
vt 0.841800 0.401100
vt 0.953000 0.402300
vt 0.001400 0.317400
vt 0.140800 0.285700
vt 0.076300 0.236800
vt 0.020000 0.245100
vt 0.127400 0.308000
vt 0.235400 0.285000
vt 0.221000 0.308500
vt 0.234700 0.305300
vt 0.572000 0.684700
vt 0.574700 0.707400
vt 0.295500 0.706900
vt 0.300700 0.683600
vt 0.993200 0.048500
vt 0.956200 0.048500
vt 0.956200 0.089500
vt 0.993200 0.089500
s 1
usemtl mat_0-barkasse.jpg
f 1/1/1 2/2/1 3/3/1
f 2/2/1 4/1/1 5/4/1
f 6/5/2 7/6/2 8/7/2
f 7/6/2 6/5/2 9/8/2
f 10/8/3 11/7/3 12/6/3
f 11/7/3 10/8/3 13/5/3
f 14/9/4 15/10/4 16/11/5
f 16/11/5 15/10/4 17/12/6
f 16/11/5 17/12/6 18/13/7
f 18/13/7 17/12/6 19/14/8
f 18/13/7 19/14/8 20/15/1
f 20/15/1 19/14/8 21/16/1
f 20/15/1 21/16/1 22/17/9
f 22/17/9 21/16/1 23/18/9
f 22/17/9 23/18/9 24/19/10
f 24/19/10 23/18/9 25/20/11
f 24/19/10 25/20/11 26/21/12
f 26/21/12 25/20/11 27/22/12
f 26/21/12 27/22/12 28/23/13
f 28/23/13 27/22/12 29/24/13
f 30/25/14 31/26/14 14/9/4
f 14/9/4 31/26/14 15/10/4
f 32/27/15 33/28/15 34/29/15
f 35/30/15 33/28/15 32/27/15
f 36/31/15 35/30/15 32/27/15
f 37/32/15 33/28/15 38/33/15
f 34/29/15 33/28/15 37/32/15
f 39/34/15 38/33/15 40/35/15
f 37/32/15 38/33/15 39/34/15
f 41/30/16 42/27/16 43/29/16
f 44/28/16 41/30/16 43/29/16
f 45/31/16 42/27/16 41/30/16
f 46/33/16 43/29/16 47/32/16
f 44/28/16 43/29/16 46/33/16
f 48/35/16 47/32/16 49/34/16
f 46/33/16 47/32/16 48/35/16
f 50/36/4 51/37/4 52/38/17
f 52/38/17 51/37/4 53/39/17
f 52/38/17 53/39/17 54/40/15
f 54/40/15 53/39/17 55/41/15
f 54/40/15 55/41/15 56/42/18
f 56/42/18 55/41/15 57/43/18
f 56/42/18 57/43/18 58/44/12
f 58/44/12 57/43/18 59/45/12
f 58/44/12 59/45/12 60/42/19
f 60/42/19 59/45/12 61/43/20
f 60/42/19 61/43/20 62/40/16
f 62/40/16 61/43/20 63/41/16
f 62/40/16 63/41/16 64/38/21
f 64/38/21 63/41/16 65/39/21
f 64/38/21 65/39/21 50/36/4
f 50/36/4 65/39/21 51/37/4
f 66/46/22 67/47/1 68/48/23
f 69/49/24 67/47/1 66/46/22
f 70/50/25 67/47/1 69/49/24
f 71/51/26 67/47/1 70/50/25
f 72/52/27 67/47/1 71/51/26
f 73/53/28 67/47/1 72/52/27
f 74/54/29 67/47/1 73/53/28
f 68/48/23 67/47/1 74/54/29
f 75/55/30 76/56/31 77/57/32
f 77/57/32 76/56/31 78/58/33
f 77/57/32 78/58/33 79/59/34
f 79/59/34 78/58/33 80/60/35
f 79/59/34 80/60/35 81/57/36
f 81/57/36 80/60/35 82/58/37
f 81/57/36 82/58/37 83/55/38
f 83/55/38 82/58/37 84/56/39
f 83/55/38 84/56/39 85/61/40
f 85/61/40 84/56/39 86/62/41
f 85/61/40 86/62/41 87/63/42
f 87/63/42 86/62/41 88/64/43
f 87/63/42 88/64/43 89/61/44
f 89/61/44 88/64/43 90/62/45
f 89/61/44 90/62/45 75/55/30
f 75/55/30 90/62/45 76/56/31
f 91/65/46 75/55/30 92/66/47
f 92/66/47 75/55/30 77/57/32
f 92/66/47 77/57/32 93/67/48
f 93/67/48 77/57/32 79/59/34
f 93/67/48 79/59/34 94/68/49
f 94/68/49 79/59/34 81/57/36
f 94/68/49 81/57/36 95/69/50
f 95/69/50 81/57/36 83/55/38
f 95/69/50 83/55/38 96/70/51
f 96/70/51 83/55/38 85/61/40
f 96/70/51 85/61/40 97/71/52
f 97/71/52 85/61/40 87/63/42
f 97/71/52 87/63/42 98/72/53
f 98/72/53 87/63/42 89/61/44
f 98/72/53 89/61/44 91/65/46
f 91/65/46 89/61/44 75/55/30
f 99/73/54 100/74/55 101/75/56
f 101/75/56 100/74/55 102/76/57
f 101/75/56 102/76/57 103/77/58
f 103/77/58 102/76/57 104/78/59
f 103/77/58 104/78/59 105/75/60
f 105/75/60 104/78/59 106/79/61
f 105/75/60 106/79/61 107/73/62
f 107/73/62 106/79/61 108/80/63
f 107/73/62 108/80/63 109/81/64
f 109/81/64 108/80/63 110/82/65
f 109/81/64 110/82/65 111/83/66
f 111/83/66 110/82/65 112/84/67
f 111/83/66 112/84/67 113/81/68
f 113/81/68 112/84/67 114/85/69
f 113/81/68 114/85/69 99/73/54
f 99/73/54 114/85/69 100/74/55
f 115/86/1 116/87/1 117/88/1
f 116/87/1 115/86/1 118/89/1
f 119/90/16 120/91/16 121/90/16
f 120/91/16 119/90/16 122/91/16
f 123/92/4 124/93/4 125/94/4
f 124/93/4 123/92/4 126/95/4
f 127/96/15 128/97/15 129/98/15
f 128/97/15 127/96/15 130/99/15
f 131/95/12 132/94/12 133/93/12
f 132/94/12 131/95/12 134/92/12
f 135/100/1 136/101/1 137/102/1
f 136/101/1 135/100/1 138/103/1
f 139/104/16 140/105/16 141/106/16
f 140/105/16 139/104/16 142/107/16
f 143/108/4 144/109/4 145/110/4
f 144/109/4 143/108/4 146/111/4
f 147/107/15 148/106/15 149/105/15
f 148/106/15 147/107/15 150/104/15
f 151/111/12 152/110/12 153/109/12
f 152/110/12 151/111/12 154/108/12
f 155/112/70 156/113/71 157/114/72
f 157/114/72 156/113/71 158/115/73
f 157/114/72 158/115/73 159/116/74
f 159/116/74 158/115/73 160/117/75
f 159/116/74 160/117/75 161/118/76
f 161/118/76 160/117/75 162/119/77
f 161/118/76 162/119/77 163/120/78
f 163/120/78 162/119/77 164/121/79
f 163/120/78 164/121/79 165/118/80
f 165/118/80 164/121/79 166/119/81
f 165/118/80 166/119/81 167/116/82
f 167/116/82 166/119/81 168/117/83
f 167/116/82 168/117/83 169/114/84
f 169/114/84 168/117/83 170/115/85
f 169/114/84 170/115/85 155/112/70
f 155/112/70 170/115/85 156/113/71
f 171/122/86 155/112/70 172/123/87
f 172/123/87 155/112/70 157/114/72
f 172/123/87 157/114/72 173/124/88
f 173/124/88 157/114/72 159/116/74
f 173/124/88 159/116/74 174/125/89
f 174/125/89 159/116/74 161/118/76
f 174/125/89 161/118/76 175/126/90
f 175/126/90 161/118/76 163/120/78
f 175/126/90 163/120/78 176/125/91
f 176/125/91 163/120/78 165/118/80
f 176/125/91 165/118/80 177/124/92
f 177/124/92 165/118/80 167/116/82
f 177/124/92 167/116/82 178/123/93
f 178/123/93 167/116/82 169/114/84
f 178/123/93 169/114/84 171/122/86
f 171/122/86 169/114/84 155/112/70
f 179/127/94 180/128/95 181/129/96
f 181/129/96 180/128/95 182/130/97
f 181/129/96 182/130/97 183/131/98
f 183/131/98 182/130/97 184/132/99
f 183/131/98 184/132/99 185/129/100
f 185/129/100 184/132/99 186/133/101
f 185/129/100 186/133/101 187/127/102
f 187/127/102 186/133/101 188/134/103
f 187/127/102 188/134/103 189/135/104
f 189/135/104 188/134/103 190/136/105
f 189/135/104 190/136/105 191/137/106
f 191/137/106 190/136/105 192/138/107
f 191/137/106 192/138/107 193/135/108
f 193/135/108 192/138/107 194/139/109
f 193/135/108 194/139/109 179/127/94
f 179/127/94 194/139/109 180/128/95
f 195/140/110 179/127/94 196/141/111
f 196/141/111 179/127/94 181/129/96
f 196/141/111 181/129/96 197/142/112
f 197/142/112 181/129/96 183/131/98
f 197/142/112 183/131/98 198/141/113
f 198/141/113 183/131/98 185/129/100
f 198/141/113 185/129/100 199/140/114
f 199/140/114 185/129/100 187/127/102
f 199/140/114 187/127/102 200/143/115
f 200/143/115 187/127/102 189/135/104
f 200/143/115 189/135/104 201/144/116
f 201/144/116 189/135/104 191/137/106
f 201/144/116 191/137/106 202/143/117
f 202/143/117 191/137/106 193/135/108
f 202/143/117 193/135/108 195/140/110
f 195/140/110 193/135/108 179/127/94
f 203/145/118 204/146/118 205/147/118
f 205/147/118 204/146/118 206/148/118
f 207/149/1 208/150/1 209/151/1
f 209/151/1 208/150/1 210/152/1
f 211/146/119 212/145/119 213/148/119
f 213/148/119 212/145/119 214/147/119
f 215/153/1 216/154/1 217/155/1
f 217/155/1 216/154/1 218/156/1
f 219/157/15 220/158/15 221/159/15
f 221/159/15 220/158/15 222/160/15
f 208/150/1 215/153/1 210/152/1
f 210/152/1 215/153/1 217/155/1
f 223/161/120 224/162/121 225/163/122
f 225/163/122 224/162/121 226/164/123
f 225/163/122 226/164/123 227/165/124
f 227/165/124 226/164/123 228/166/125
f 229/167/126 230/168/127 231/169/128
f 231/169/128 230/168/127 232/170/129
f 231/169/128 232/170/129 233/171/130
f 233/171/130 232/170/129 234/172/131
f 233/171/130 234/172/131 235/173/132
f 235/173/132 234/172/131 236/174/133
f 235/173/132 236/174/133 237/175/134
f 237/175/134 236/174/133 238/176/135
f 237/175/134 238/176/135 239/177/136
f 239/177/136 238/176/135 240/178/137
f 239/177/136 240/178/137 223/161/120
f 223/161/120 240/178/137 224/162/121
f 241/179/138 223/161/120 242/180/139
f 242/180/139 223/161/120 225/163/122
f 242/180/139 225/163/122 243/181/140
f 243/181/140 225/163/122 227/165/124
f 244/182/141 229/167/126 245/183/142
f 245/183/142 229/167/126 231/169/128
f 245/183/142 231/169/128 246/184/143
f 246/184/143 231/169/128 233/171/130
f 246/184/143 233/171/130 247/185/144
f 247/185/144 233/171/130 235/173/132
f 247/185/144 235/173/132 248/186/145
f 248/186/145 235/173/132 237/175/134
f 248/186/145 237/175/134 249/187/146
f 249/187/146 237/175/134 239/177/136
f 249/187/146 239/177/136 241/179/138
f 241/179/138 239/177/136 223/161/120
f 250/188/147 241/179/138 251/189/148
f 251/189/148 241/179/138 242/180/139
f 251/189/148 242/180/139 252/190/149
f 252/190/149 242/180/139 243/181/140
f 253/191/150 244/182/141 254/192/151
f 254/192/151 244/182/141 245/183/142
f 254/192/151 245/183/142 255/193/152
f 255/193/152 245/183/142 246/184/143
f 255/193/152 246/184/143 256/194/153
f 256/194/153 246/184/143 247/185/144
f 256/194/153 247/185/144 257/195/154
f 257/195/154 247/185/144 248/186/145
f 257/195/154 248/186/145 258/196/155
f 258/196/155 248/186/145 249/187/146
f 258/196/155 249/187/146 250/188/147
f 250/188/147 249/187/146 241/179/138
f 259/197/156 260/198/1 261/199/157
f 262/200/158 260/198/1 259/197/156
f 263/201/159 260/198/1 262/200/158
f 264/202/160 260/198/1 263/201/159
f 265/201/161 260/198/1 264/202/160
f 266/200/162 260/198/1 265/201/161
f 267/197/163 260/198/1 266/200/162
f 261/199/157 260/198/1 267/197/163
f 268/203/164 269/204/165 270/205/166
f 271/206/167 269/204/165 268/203/164
f 272/207/168 271/206/167 268/203/164
f 273/208/169 271/206/167 272/207/168
f 274/209/170 273/208/169 272/207/168
f 275/210/171 273/208/169 274/209/170
f 276/211/172 275/210/171 274/209/170
f 277/212/173 275/210/171 276/211/172
f 278/213/174 277/212/173 276/211/172
f 279/214/175 277/212/173 278/213/174
f 280/215/176 270/205/166 281/216/177
f 268/203/164 270/205/166 280/215/176
f 282/217/178 268/203/164 280/215/176
f 272/207/168 268/203/164 282/217/178
f 283/218/179 272/207/168 282/217/178
f 274/209/170 272/207/168 283/218/179
f 284/219/180 274/209/170 283/218/179
f 276/211/172 274/209/170 284/219/180
f 285/220/181 276/211/172 284/219/180
f 278/213/174 276/211/172 285/220/181
f 286/221/182 281/216/177 287/222/183
f 280/215/176 281/216/177 286/221/182
f 288/223/184 280/215/176 286/221/182
f 282/217/178 280/215/176 288/223/184
f 289/224/185 282/217/178 288/223/184
f 283/218/179 282/217/178 289/224/185
f 290/225/186 283/218/179 289/224/185
f 284/219/180 283/218/179 290/225/186
f 291/226/187 284/219/180 290/225/186
f 285/220/181 284/219/180 291/226/187
f 292/227/188 293/228/189 294/229/190
f 295/230/191 293/228/189 292/227/188
f 296/231/192 295/230/191 292/227/188
f 297/232/193 295/230/191 296/231/192
f 298/233/194 297/232/193 296/231/192
f 299/234/195 297/232/193 298/233/194
f 300/235/196 301/236/197 302/237/197
f 303/238/198 301/236/197 300/235/196
f 304/239/199 303/238/198 300/235/196
f 305/240/200 303/238/198 304/239/199
f 306/241/201 307/242/202 308/243/203
f 309/244/204 307/242/202 306/241/201
f 310/245/205 309/244/204 306/241/201
f 311/246/206 309/244/204 310/245/205
f 312/247/207 311/246/206 310/245/205
f 313/248/208 311/246/206 312/247/207
f 314/249/209 313/248/208 312/247/207
f 315/250/210 313/248/208 314/249/209
f 316/251/211 315/250/210 314/249/209
f 317/252/212 315/250/210 316/251/211
f 318/253/213 319/254/214 320/255/215
f 321/256/216 319/254/214 318/253/213
f 322/257/217 321/256/216 318/253/213
f 323/258/218 321/256/216 322/257/217
f 324/259/219 323/258/218 322/257/217
f 325/260/219 323/258/218 324/259/219
f 326/261/220 327/262/221 328/263/221
f 329/264/222 327/262/221 326/261/220
f 330/265/223 329/264/222 326/261/220
f 331/266/224 329/264/222 330/265/223
f 332/267/225 333/268/226 334/269/227
f 335/270/228 333/268/226 332/267/225
f 336/271/229 335/270/228 332/267/225
f 337/272/230 335/270/228 336/271/229
f 338/273/231 337/272/230 336/271/229
f 339/274/232 337/272/230 338/273/231
f 340/275/233 339/274/232 338/273/231
f 341/276/234 339/274/232 340/275/233
f 342/277/235 341/276/234 340/275/233
f 343/278/236 341/276/234 342/277/235
f 344/279/237 345/280/238 346/281/239
f 346/281/239 345/280/238 347/282/240
f 346/281/239 347/282/240 348/283/241
f 348/283/241 347/282/240 349/284/242
f 348/283/241 349/284/242 350/285/243
f 350/285/243 349/284/242 351/286/244
f 350/285/243 351/286/244 352/287/245
f 352/287/245 351/286/244 353/288/246
f 352/287/245 353/288/246 354/289/247
f 354/289/247 353/288/246 355/290/248
f 356/291/249 344/279/237 357/292/250
f 357/292/250 344/279/237 346/281/239
f 357/292/250 346/281/239 358/293/251
f 358/293/251 346/281/239 348/283/241
f 358/293/251 348/283/241 359/294/252
f 359/294/252 348/283/241 350/285/243
f 359/294/252 350/285/243 360/295/253
f 360/295/253 350/285/243 352/287/245
f 360/295/253 352/287/245 361/296/254
f 361/296/254 352/287/245 354/289/247
f 362/297/255 356/291/249 363/298/256
f 363/298/256 356/291/249 357/292/250
f 363/298/256 357/292/250 364/299/257
f 364/299/257 357/292/250 358/293/251
f 364/299/257 358/293/251 365/300/258
f 365/300/258 358/293/251 359/294/252
f 365/300/258 359/294/252 366/301/259
f 366/301/259 359/294/252 360/295/253
f 366/301/259 360/295/253 367/302/260
f 367/302/260 360/295/253 361/296/254
f 368/303/261 369/304/262 370/227/263
f 370/227/263 369/304/262 371/305/264
f 370/227/263 371/305/264 372/306/265
f 372/306/265 371/305/264 373/232/266
f 372/306/265 373/232/266 374/307/267
f 374/307/267 373/232/266 375/308/268
f 376/309/269 377/310/269 378/311/270
f 378/311/270 377/310/269 379/238/271
f 378/311/270 379/238/271 380/312/272
f 380/312/272 379/238/271 381/313/273
f 308/243/203 307/242/202 382/241/274
f 382/241/274 307/242/202 383/244/275
f 382/241/274 383/244/275 384/245/276
f 384/245/276 383/244/275 385/246/277
f 384/245/276 385/246/277 386/247/278
f 386/247/278 385/246/277 387/248/279
f 386/247/278 387/248/279 388/249/280
f 388/249/280 387/248/279 389/250/281
f 388/249/280 389/250/281 390/251/282
f 390/251/282 389/250/281 391/252/283
f 320/255/215 319/254/214 392/314/284
f 392/314/284 319/254/214 393/256/285
f 392/314/284 393/256/285 394/257/286
f 394/257/286 393/256/285 395/258/287
f 394/257/286 395/258/287 396/259/288
f 396/259/288 395/258/287 397/260/288
f 398/263/289 399/262/289 400/261/290
f 400/261/290 399/262/289 401/315/291
f 400/261/290 401/315/291 402/265/292
f 402/265/292 401/315/291 403/316/292
f 334/269/227 333/268/226 404/267/293
f 404/267/293 333/268/226 405/270/294
f 404/267/293 405/270/294 406/271/295
f 406/271/295 405/270/294 407/272/296
f 406/271/295 407/272/296 408/273/297
f 408/273/297 407/272/296 409/274/298
f 408/273/297 409/274/298 410/275/299
f 410/275/299 409/274/298 411/276/300
f 410/275/299 411/276/300 412/277/301
f 412/277/301 411/276/300 413/278/302
f 330/265/223 414/317/303 331/266/224
f 331/266/224 414/317/303 415/318/303
f 416/319/304 417/320/304 418/321/304
f 418/321/304 417/320/304 419/322/304
f 420/323/305 380/312/272 421/324/305
f 421/324/305 380/312/272 381/313/273
f 422/325/306 423/326/306 424/327/307
f 422/325/306 424/327/307 425/328/307
f 426/329/1 427/330/1 428/331/1
f 429/332/1 430/333/1 427/330/1
f 429/332/1 427/330/1 426/329/1
f 429/332/1 431/334/1 432/335/1
f 429/332/1 432/335/1 430/333/1
f 432/335/1 431/334/1 433/336/1
f 433/336/1 431/334/1 434/337/1
f 435/338/1 436/339/1 434/337/1
f 434/337/1 436/339/1 433/336/1
f 437/340/308 438/341/308 439/342/308
f 439/342/308 438/341/308 440/343/308
f 425/328/307 424/327/307 441/344/309
f 441/344/309 424/327/307 442/345/309
f 443/346/310 444/347/310 445/348/311
f 445/348/311 444/347/310 446/349/311
f 445/348/311 446/349/311 447/350/312
f 447/350/312 446/349/311 448/351/312
f 447/350/312 448/351/312 449/352/312
f 449/352/312 448/351/312 450/353/312
f 449/352/312 450/353/312 451/354/312
f 451/354/312 450/353/312 452/355/312
f 453/356/312 454/357/312 455/358/312
f 455/358/312 454/357/312 456/359/312
f 455/358/312 456/359/312 457/360/312
f 458/361/313 459/362/314 460/363/313
f 459/362/314 458/361/313 461/364/314
f 462/365/315 460/363/313 463/366/316
f 460/363/313 462/365/315 458/361/313
f 464/367/317 463/366/316 465/368/317
f 463/366/316 464/367/317 462/365/315
f 466/369/318 467/370/319 468/371/318
f 467/370/319 466/369/318 469/372/319
f 470/373/320 468/371/318 471/374/320
f 468/371/318 470/373/320 466/369/318
f 461/364/314 471/374/320 459/362/314
f 471/374/320 461/364/314 470/373/320
f 472/375/1 473/376/1 474/377/1
f 475/378/1 472/375/1 476/379/1
f 475/378/1 473/376/1 472/375/1
f 475/378/1 477/380/1 473/376/1
f 478/381/321 479/361/322 480/365/323
f 479/361/322 478/381/321 481/382/324
f 482/383/325 480/365/323 483/367/326
f 480/365/323 482/383/325 478/381/321
f 484/384/327 485/372/328 486/369/329
f 485/372/328 484/384/327 487/385/330
f 488/386/331 486/369/329 489/373/332
f 486/369/329 488/386/331 484/384/327
f 490/387/333 489/373/332 491/364/334
f 489/373/332 490/387/333 488/386/331
f 481/382/324 491/364/334 479/361/322
f 491/364/334 481/382/324 490/387/333
f 492/388/335 481/382/324 478/381/321
f 481/382/324 492/388/335 493/389/336
f 494/390/337 478/381/321 482/383/325
f 478/381/321 494/390/337 492/388/335
f 495/391/338 487/385/330 484/384/327
f 487/385/330 495/391/338 496/392/339
f 497/393/340 484/384/327 488/386/331
f 484/384/327 497/393/340 495/391/338
f 498/394/341 488/386/331 490/387/333
f 488/386/331 498/394/341 497/393/340
f 493/389/336 490/387/333 481/382/324
f 490/387/333 493/389/336 498/394/341
f 499/395/342 500/396/342 501/397/342
f 501/397/342 502/398/342 499/395/342
f 503/399/343 504/400/343 505/401/343
f 505/401/343 506/402/343 503/399/343
f 507/403/344 508/404/344 509/405/345
f 509/405/345 510/406/345 507/403/344
f 511/407/346 512/408/346 508/404/344
f 508/404/344 507/403/344 511/407/346
f 513/409/347 514/410/347 515/411/347
f 515/411/347 516/412/347 513/409/347
f 517/413/348 518/414/349 519/415/349
f 519/415/349 520/416/348 517/413/348
f 521/417/350 517/413/348 520/416/348
f 520/416/348 522/418/350 521/417/350
f 523/419/351 524/420/351 525/421/351
f 525/421/351 526/422/351 523/419/351
f 527/423/352 528/424/352 529/425/352
f 529/425/352 530/426/352 527/423/352
f 531/427/353 532/428/354 533/429/355
f 533/429/355 534/430/356 531/427/353
f 535/431/4 536/432/4 532/428/354
f 532/428/354 531/427/353 535/431/4
f 537/433/4 538/434/4 536/432/4
f 536/432/4 535/431/4 537/433/4
f 539/435/4 540/436/4 541/437/4
f 541/437/4 542/438/4 539/435/4
f 543/439/357 544/440/357 545/441/357
f 545/441/357 546/442/357 543/439/357
f 547/438/12 548/437/12 549/436/12
f 549/436/12 550/435/12 547/438/12
f 551/431/12 552/432/12 553/434/12
f 553/434/12 554/433/12 551/431/12
f 555/427/358 556/428/359 552/432/12
f 552/432/12 551/431/12 555/427/358
f 557/430/360 558/429/361 556/428/359
f 556/428/359 555/427/358 557/430/360
