# Blender 4.4.1
# www.blender.org
mtllib hangar.mtl
o hangar
v 14.443063 -0.089752 -5.265016
v -14.443063 -0.089752 -5.265016
v 14.443063 1.056276 -5.084975
v -14.443063 1.056276 -5.084975
v 14.443063 2.122289 -4.560276
v -14.443063 2.122301 -4.560276
v -14.443063 1.056276 -5.084975
v 14.443063 3.744026 2.631225
v 14.443063 4.185141 1.360617
v -14.443063 3.744026 2.631225
v -14.443063 4.185141 1.360629
v 14.443063 4.090001 1.345192
v 14.443063 3.648887 2.595210
v 14.174941 4.090001 1.345192
v 14.174941 3.648887 2.595210
v -14.189061 2.946134 3.670341
v -14.189061 2.029311 4.493399
v -14.443063 2.946134 3.670341
v -14.443063 2.029311 4.493399
v -14.189061 0.961137 5.012956
v -14.443063 0.961137 5.012956
v 14.443063 3.744026 2.631225
v 14.443063 3.039113 3.721781
v -14.443063 3.039113 3.721781
v 14.443063 2.946134 3.670341
v 14.174941 2.946134 3.670341
v 14.174941 3.648887 2.595210
v 14.174941 2.946134 3.670341
v 14.443063 2.946134 3.670341
v 14.174941 2.029311 4.493399
v 14.443063 2.029311 4.493399
v 14.443063 0.961137 5.012956
v -14.189061 3.648887 2.595210
v -14.189061 2.946134 3.670341
v -14.443063 3.648887 2.595210
v -14.443063 2.946134 3.670341
v -14.189061 -0.089752 -5.177561
v -14.189061 -0.089752 -1.370912
v -14.189061 0.961136 -5.012956
v -14.189061 2.786128 -1.370912
v -14.189061 2.029311 -4.493399
v -14.189061 2.946133 -3.670341
v -14.189061 3.648887 -2.595210
v -14.189061 4.090001 -1.345192
v -14.189061 4.241364 -0.002577
v -14.189061 4.090001 1.345192
v -14.189061 2.786128 1.370912
v -14.189061 3.648887 2.595210
v -14.189061 2.946134 3.670341
v -14.189061 2.029311 4.493399
v -14.189061 0.961137 5.012956
v -14.189061 -0.089752 1.370913
v -14.189061 -0.089751 5.177561
v 14.174941 -0.089751 5.177561
v 14.174941 -0.089752 1.370913
v 14.174941 0.961137 5.012956
v 14.174941 2.773152 1.370912
v 14.174941 2.029311 4.493399
v 14.174941 2.946134 3.670341
v 14.174941 3.648887 2.595210
v 14.174941 4.090001 1.345192
v 14.174941 2.773152 -1.370912
v 14.174941 4.241364 -0.002577
v 14.174941 4.090001 -1.345192
v 14.174941 3.648887 -2.595210
v 14.174941 2.946133 -3.670341
v 14.174941 2.029311 -4.493399
v 14.174941 0.961136 -5.012956
v 14.174941 -0.089752 -1.370912
v 14.174941 -0.089752 -5.177561
v 14.076162 -0.089752 -1.370912
v 14.174941 -0.089752 -1.370912
v 14.076162 2.773152 -1.370912
v 14.174941 2.773152 -1.370912
v 14.443063 -0.089751 5.177561
v 14.443063 -0.089751 5.265016
v 14.174941 -0.089751 5.177561
v -14.090282 -0.089752 1.370913
v 14.076162 -0.089752 1.370913
v -14.090282 -0.089752 -1.370912
v 14.076162 -0.089752 -1.370912
v -14.189061 -0.089752 -5.177561
v 14.174941 -0.089752 -5.177561
v 14.443063 -0.089752 -5.265016
v 14.443063 -0.089752 -5.177561
v -14.189061 -0.089751 5.177561
v -14.443063 -0.089751 5.265016
v -14.443063 -0.089751 5.177561
v 14.174941 2.773152 -1.370912
v 14.174941 2.773152 1.370912
v 14.076162 2.773152 -1.370912
v 14.076162 2.773152 1.370912
v -14.443063 -0.089752 -5.265016
v -14.443063 -0.089752 -5.177561
v -14.443063 4.090001 1.345192
v -14.189061 3.648887 2.595210
v -14.189061 4.090001 1.345192
v -14.189061 4.241364 -0.002577
v -14.443063 4.241364 -0.002577
v -14.443063 4.090001 -1.345192
v 14.076162 -0.089752 1.370913
v 14.076162 2.773152 1.370912
v 14.174941 -0.089752 1.370913
v 14.174941 2.773152 1.370912
v 14.443063 -0.089752 -5.265016
v 14.443063 1.056276 -5.084975
v 14.443063 -0.089752 -5.177561
v 14.443063 0.961136 -5.012956
v 14.443063 2.029311 -4.493399
v 14.443063 2.122289 -4.560276
v 14.443063 2.946133 -3.670341
v 14.443063 3.039112 -3.721781
v 14.443063 3.648887 -2.595210
v 14.443063 3.744026 -2.631226
v 14.443063 4.090001 -1.345192
v 14.443063 4.185141 -1.360618
v 14.443063 4.241364 -0.002577
v 14.443063 4.336504 -0.002577
v 14.443063 4.090001 1.345192
v 14.443063 4.185141 1.360617
v 14.443063 3.744026 2.631225
v 14.443063 3.648887 2.595210
v 14.443063 3.039113 3.721781
v 14.443063 2.946134 3.670341
v 14.443063 2.124462 4.560276
v 14.443063 2.029311 4.493399
v 14.443063 1.056277 5.084975
v 14.443063 0.961137 5.012956
v 14.443063 -0.089751 5.177561
v 14.443063 3.039113 3.721781
v -14.443063 3.039113 3.721781
v 14.443063 2.124462 4.560276
v -14.443063 2.124462 4.560276
v -14.443063 -0.089752 -5.265016
v -14.443063 -0.089752 -5.177561
v -14.443063 1.056276 -5.084975
v -14.443063 0.961136 -5.012956
v -14.443063 2.029311 -4.493399
v -14.443063 2.122301 -4.560276
v -14.443063 2.946133 -3.670341
v -14.443063 3.039112 -3.721781
v -14.443063 3.648887 -2.595210
v -14.443063 3.744026 -2.631226
v -14.443063 4.090001 -1.345192
v -14.443063 4.185141 -1.360618
v -14.443063 4.241364 -0.002577
v -14.443063 4.336504 -0.002577
v -14.443063 4.090001 1.345192
v -14.443063 4.185141 1.360629
v -14.443063 3.744026 2.631225
v -14.443063 3.648887 2.595210
v -14.443063 3.039113 3.721781
v -14.443063 2.946134 3.670341
v -14.443063 2.124462 4.560276
v -14.443063 2.029311 4.493399
v -14.443063 1.056277 5.084975
v -14.443063 0.961137 5.012956
v -14.443063 -0.089751 5.177561
v -14.443063 -0.089751 5.265016
v -14.189061 2.786128 1.370912
v -14.090282 2.786128 1.370912
v -14.189061 -0.089752 1.370913
v -14.090282 -0.089752 1.370913
v -14.090282 -0.089752 -1.370912
v -14.090282 -0.089752 1.370913
v -14.090282 2.786128 -1.370912
v -14.090282 2.786128 1.370912
v 14.174941 4.241364 -0.002577
v 14.443063 4.241364 -0.002577
v 14.443063 4.090001 1.345192
v 14.443063 0.961136 -5.012956
v 14.174941 0.961136 -5.012956
v 14.443063 -0.089752 -5.177561
v 14.174941 -0.089752 -5.177561
v 14.443063 -0.089751 5.177561
v 14.174941 -0.089751 5.177561
v 14.174941 0.961137 5.012956
v -14.443063 2.946133 -3.670341
v -14.443063 2.029311 -4.493399
v -14.189061 2.946133 -3.670341
v -14.189061 2.029311 -4.493399
v -14.189061 0.961136 -5.012956
v -14.443063 0.961136 -5.012956
v -14.189061 2.946133 -3.670341
v -14.189061 3.648887 -2.595210
v -14.443063 2.946133 -3.670341
v -14.443063 3.648887 -2.595210
v -14.189061 4.090001 -1.345192
v -14.443063 4.090001 -1.345192
v -14.090282 2.786128 -1.370912
v -14.090282 2.786128 1.370912
v -14.189061 2.786128 -1.370912
v -14.189061 2.786128 1.370912
v 14.076162 2.773152 1.370912
v 14.076162 -0.089752 1.370913
v 14.076162 2.773152 -1.370912
v 14.076162 -0.089752 -1.370912
v 14.443063 2.946133 -3.670341
v 14.443063 3.648887 -2.595210
v 14.174941 2.946133 -3.670341
v 14.174941 3.648887 -2.595210
v 14.443063 3.648887 -2.595210
v 14.443063 4.090001 -1.345192
v 14.174941 3.648887 -2.595210
v 14.174941 4.090001 -1.345192
v -14.443063 -0.089751 5.177561
v -14.443063 0.961137 5.012956
v -14.189061 -0.089751 5.177561
v -14.443063 -0.089752 -5.177561
v -14.189061 -0.089752 -5.177561
v -14.189061 0.961136 -5.012956
v 14.443063 4.336504 -0.002577
v -14.443063 4.336504 -0.002577
v -14.443063 4.185141 1.360629
v 14.443063 -0.089751 5.265016
v 14.443063 1.056277 5.084975
v -14.443063 -0.089751 5.265016
v -14.443063 1.056277 5.084975
v -14.443063 1.056277 5.084975
v 14.443063 2.124462 4.560276
v -14.443063 3.744026 -2.631226
v -14.443063 4.185141 -1.360618
v 14.443063 3.744026 -2.631226
v 14.443063 4.185141 -1.360618
v 14.174941 4.090001 -1.345192
v 14.174941 4.241364 -0.002577
v -14.443063 3.744026 -2.631226
v -14.443063 3.039112 -3.721781
v 14.443063 3.039112 -3.721781
v 14.443063 2.946133 -3.670341
v 14.174941 2.946133 -3.670341
v 14.443063 2.029311 -4.493399
v 14.174941 2.029311 -4.493399
v 14.174941 0.961136 -5.012956
v -14.443063 2.122301 -4.560276
v -14.443063 3.039112 -3.721781
v 14.443063 3.039112 -3.721781
v 14.443063 4.185141 -1.360618
v -14.443063 4.185141 -1.360618
v 14.443063 4.336504 -0.002577
v -14.443063 4.336504 -0.002577
v -14.090282 -0.089752 -1.370912
v -14.090282 2.786128 -1.370912
v -14.189061 -0.089752 -1.370912
v -14.189061 2.786128 -1.370912
v 14.174941 0.961137 5.012956
v 14.443063 -0.089751 5.265016
v 14.174941 -0.089752 -1.370912
v 14.174941 -0.089752 1.370913
v -14.189061 -0.089752 1.370913
v -14.189061 -0.089752 -1.370912
vn -0.0000 0.1552 -0.9879
vn -0.0000 0.4416 -0.8972
vn -0.0000 0.9447 0.3280
vn -0.0000 -0.9430 -0.3328
vn -0.0000 -0.6680 -0.7441
vn -0.0000 -0.4374 -0.8993
vn -0.0000 0.8398 0.5428
vn -0.0000 -0.8370 -0.5471
vn -1.0000 -0.0000 -0.0000
vn 1.0000 -0.0000 -0.0000
vn -0.0000 -0.0000 1.0000
vn -0.0000 -1.0000 -0.0000
vn -0.0000 -0.9938 -0.1116
vn -0.0000 -0.9937 0.1120
vn -0.0000 -0.0000 -1.0000
vn -0.0000 0.6758 0.7371
vn -0.0000 -0.1547 0.9880
vn -0.0000 -0.1547 -0.9880
vn -0.0000 -0.6680 0.7441
vn -0.0000 -0.4374 0.8993
vn -0.0000 -0.8370 0.5471
vn -0.0000 -0.9430 0.3328
vn -0.0000 0.9939 0.1104
vn -0.0000 0.1552 0.9879
vn -0.0000 0.4409 0.8976
vn -0.0000 0.9447 -0.3280
vn -0.0000 0.8398 -0.5428
vn -0.0000 0.6749 -0.7379
vn -0.0000 0.9938 -0.1108
vt 0.002235 0.000832
vt 0.999359 0.000832
vt 0.002235 0.050676
vt 0.999359 0.050676
vt 0.002235 0.097108
vt 0.999359 0.097108
vt 0.002357 0.369605
vt 0.002357 0.323173
vt 0.999481 0.369605
vt 0.999481 0.323173
vt 0.325965 0.043608
vt 0.325965 0.035077
vt 0.341671 0.043608
vt 0.341671 0.035077
vt 0.329740 0.067981
vt 0.329740 0.060547
vt 0.344593 0.067981
vt 0.344593 0.060547
vt 0.329740 0.051895
vt 0.344593 0.051895
vt 0.002357 0.409577
vt 0.999481 0.409577
vt 0.325965 0.027643
vt 0.341671 0.027643
vt 0.341793 0.072125
vt 0.326087 0.072125
vt 0.341793 0.064691
vt 0.326087 0.064691
vt 0.326087 0.056038
vt 0.317200 0.040683
vt 0.317200 0.033371
vt 0.331931 0.040683
vt 0.331931 0.033371
vt 0.666863 0.550944
vt 0.422634 0.550944
vt 0.656392 0.659285
vt 0.422634 0.847571
vt 0.623155 0.769454
vt 0.570194 0.864023
vt 0.501162 0.936657
vt 0.420808 0.982235
vt 0.334610 0.997834
vt 0.248411 0.982235
vt 0.246585 0.847571
vt 0.168057 0.936657
vt 0.099147 0.864023
vt 0.046186 0.769454
vt 0.012827 0.659285
vt 0.246585 0.550944
vt 0.002478 0.550944
vt 0.666863 0.550822
vt 0.422756 0.550822
vt 0.422756 0.846231
vt 0.501284 0.936535
vt 0.420930 0.982235
vt 0.246585 0.846231
vt 0.168057 0.936535
vt 0.012949 0.659285
vt 0.246585 0.550822
vt 0.002478 0.550822
vt 0.324991 0.588967
vt 0.306120 0.588967
vt 0.324991 0.980895
vt 0.306120 0.980895
vt 0.094521 0.663916
vt 0.094521 0.662332
vt 0.099269 0.663916
vt 0.599779 0.729968
vt 0.101095 0.729968
vt 0.599779 0.777619
vt 0.101095 0.777619
vt 0.601605 0.843671
vt 0.099269 0.843671
vt 0.094521 0.845256
vt 0.094521 0.843671
vt 0.601605 0.663916
vt 0.605988 0.662332
vt 0.605988 0.663916
vt 0.317565 0.974801
vt 0.317565 0.599204
vt 0.298815 0.974801
vt 0.298815 0.599204
vt 0.605988 0.845256
vt 0.605988 0.843671
vt 0.331931 0.049336
vt 0.317200 0.049336
vt 0.317200 0.058476
vt 0.331931 0.058476
vt 0.331931 0.067616
vt 0.297720 0.592136
vt 0.297720 0.984063
vt 0.316591 0.592136
vt 0.316591 0.984063
vt 0.010636 0.543754
vt 0.017575 0.534492
vt 0.010636 0.539245
vt 0.017088 0.530836
vt 0.023541 0.504147
vt 0.024150 0.507437
vt 0.029141 0.461737
vt 0.029750 0.464418
vt 0.033524 0.406531
vt 0.034133 0.408359
vt 0.036203 0.342063
vt 0.036812 0.343038
vt 0.037177 0.272963
vt 0.037786 0.272963
vt 0.036203 0.203864
vt 0.036812 0.202889
vt 0.034133 0.137568
vt 0.033524 0.139518
vt 0.029750 0.081509
vt 0.029141 0.084190
vt 0.024150 0.038489
vt 0.023541 0.041780
vt 0.017575 0.011435
vt 0.017088 0.015091
vt 0.010636 0.006682
vt 0.002357 0.409456
vt 0.999481 0.409456
vt 0.002357 0.449428
vt 0.999481 0.449428
vt 0.010270 0.003757
vt 0.010270 0.008266
vt 0.017332 0.012897
vt 0.016723 0.016553
vt 0.023297 0.043242
vt 0.023906 0.039952
vt 0.028898 0.085652
vt 0.029507 0.082971
vt 0.033281 0.140980
vt 0.033768 0.139152
vt 0.035959 0.205449
vt 0.036568 0.204474
vt 0.036933 0.274548
vt 0.037420 0.274548
vt 0.035959 0.343647
vt 0.036568 0.344622
vt 0.033768 0.409943
vt 0.033281 0.407993
vt 0.029507 0.466002
vt 0.028898 0.463321
vt 0.023906 0.509022
vt 0.023297 0.505731
vt 0.017332 0.536076
vt 0.016723 0.532420
vt 0.010270 0.540707
vt 0.010270 0.545338
vt 0.305268 0.984063
vt 0.323043 0.984063
vt 0.305268 0.590430
vt 0.323043 0.590430
vt 0.669906 0.551554
vt 0.998750 0.551554
vt 0.669906 0.999053
vt 0.998750 0.999053
vt 0.341671 0.052748
vt 0.325965 0.052748
vt 0.329131 0.061888
vt 0.344837 0.061888
vt 0.329131 0.070419
vt 0.344837 0.070419
vt 0.326087 0.047508
vt 0.341793 0.047508
vt 0.341793 0.056038
vt 0.329374 0.039464
vt 0.329374 0.046898
vt 0.314521 0.039464
vt 0.314521 0.046898
vt 0.314521 0.055551
vt 0.329374 0.055551
vt 0.317200 0.083459
vt 0.317200 0.076147
vt 0.331931 0.083459
vt 0.331931 0.076147
vt 0.317200 0.067616
vt 0.324017 0.974801
vt 0.324017 0.599204
vt 0.306242 0.974801
vt 0.306242 0.599204
vt 0.670028 0.999053
vt 0.670028 0.553504
vt 0.998750 0.553504
vt 0.325965 0.077731
vt 0.325965 0.070419
vt 0.341671 0.077731
vt 0.341671 0.070419
vt 0.325965 0.061888
vt 0.341671 0.061888
vt 0.344593 0.043364
vt 0.329740 0.043364
vt 0.329374 0.064082
vt 0.314521 0.064082
vt 0.002357 0.273329
vt 0.999481 0.273329
vt 0.002357 0.545704
vt 0.002357 0.495860
vt 0.999481 0.545704
vt 0.999481 0.495860
vt 0.999481 0.177053
vt 0.999481 0.223485
vt 0.002357 0.177053
vt 0.002357 0.223485
vt 0.999481 0.137202
vt 0.002357 0.137202
vt 0.329131 0.045801
vt 0.344837 0.045801
vt 0.329131 0.053235
vt 0.344837 0.053235
vt 0.999359 0.136959
vt 0.002235 0.136959
vt 0.299789 0.587261
vt 0.299789 0.980895
vt 0.317443 0.587261
vt 0.317443 0.980895
vt 0.010636 0.002173
vt 0.099269 0.777619
vt 0.099269 0.729968
vt 0.601605 0.729968
vt 0.601605 0.777619
s 0
usemtl mat_hangar
f 1/1/1 2/2/1 3/3/1
f 2/2/1 4/4/1 3/3/1
f 5/5/2 3/3/2 6/6/2
f 3/3/2 7/4/2 6/6/2
f 8/7/3 9/8/3 10/9/3
f 9/8/3 11/10/3 10/9/3
f 12/11/4 13/12/4 14/13/4
f 13/12/4 15/14/4 14/13/4
f 16/15/5 17/16/5 18/17/5
f 17/16/5 19/18/5 18/17/5
f 17/16/6 20/19/6 19/18/6
f 20/19/6 21/20/6 19/18/6
f 22/7/7 10/9/7 23/21/7
f 10/9/7 24/22/7 23/21/7
f 25/23/8 26/24/8 13/12/8
f 26/24/8 27/14/8 13/12/8
f 28/25/5 29/26/5 30/27/5
f 29/26/5 31/28/5 30/27/5
f 30/27/6 31/28/6 32/29/6
f 33/30/8 34/31/8 35/32/8
f 34/31/8 36/33/8 35/32/8
f 37/34/9 38/35/9 39/36/9
f 38/35/9 40/37/9 39/36/9
f 39/36/9 40/37/9 41/38/9
f 40/37/9 42/39/9 41/38/9
f 42/39/9 40/37/9 43/40/9
f 40/37/9 44/41/9 43/40/9
f 44/41/9 40/37/9 45/42/9
f 40/37/9 46/43/9 45/42/9
f 40/37/9 47/44/9 46/43/9
f 47/44/9 48/45/9 46/43/9
f 48/45/9 47/44/9 49/46/9
f 47/44/9 50/47/9 49/46/9
f 50/47/9 47/44/9 51/48/9
f 47/44/9 52/49/9 51/48/9
f 51/48/9 52/49/9 53/50/9
f 54/51/10 55/52/10 56/36/10
f 55/52/10 57/53/10 56/36/10
f 56/36/10 57/53/10 58/38/10
f 57/53/10 59/39/10 58/38/10
f 59/39/10 57/53/10 60/54/10
f 57/53/10 61/55/10 60/54/10
f 57/53/10 62/56/10 61/55/10
f 62/56/10 63/42/10 61/55/10
f 63/42/10 62/56/10 64/43/10
f 62/56/10 65/57/10 64/43/10
f 65/57/10 62/56/10 66/46/10
f 62/56/10 67/47/10 66/46/10
f 67/47/10 62/56/10 68/58/10
f 62/56/10 69/59/10 68/58/10
f 68/58/10 69/59/10 70/60/10
f 71/61/11 72/62/11 73/63/11
f 72/62/11 74/64/11 73/63/11
f 75/65/12 76/66/12 77/67/12
f 76/66/12 78/68/12 77/67/12
f 77/67/12 78/68/12 79/69/12
f 78/68/12 80/70/12 79/69/12
f 79/69/12 80/70/12 81/71/12
f 80/70/12 82/72/12 81/71/12
f 81/71/12 82/72/12 83/73/12
f 82/72/12 84/74/12 83/73/12
f 83/73/12 84/74/12 85/75/12
f 78/68/12 76/66/12 86/76/12
f 76/66/12 87/77/12 86/76/12
f 86/76/12 87/77/12 88/78/12
f 89/79/12 90/80/12 91/81/12
f 90/80/12 92/82/12 91/81/12
f 84/74/12 82/72/12 93/83/12
f 82/72/12 94/84/12 93/83/12
f 35/32/4 95/85/4 96/30/4
f 95/85/4 97/86/4 96/30/4
f 97/86/13 95/85/13 98/87/13
f 95/85/13 99/88/13 98/87/13
f 98/87/14 99/88/14 100/89/14
f 101/90/15 102/91/15 103/92/15
f 102/91/15 104/93/15 103/92/15
f 105/94/10 106/95/10 107/96/10
f 106/95/10 108/97/10 107/96/10
f 108/97/10 106/95/10 109/98/10
f 106/95/10 110/99/10 109/98/10
f 109/98/10 110/99/10 111/100/10
f 110/99/10 112/101/10 111/100/10
f 111/100/10 112/101/10 113/102/10
f 112/101/10 114/103/10 113/102/10
f 113/102/10 114/103/10 115/104/10
f 114/103/10 116/105/10 115/104/10
f 115/104/10 116/105/10 117/106/10
f 116/105/10 118/107/10 117/106/10
f 117/106/10 118/107/10 119/108/10
f 118/107/10 120/109/10 119/108/10
f 119/108/10 120/109/10 121/110/10
f 119/108/10 121/110/10 122/111/10
f 121/110/10 123/112/10 122/111/10
f 122/111/10 123/112/10 124/113/10
f 123/112/10 125/114/10 124/113/10
f 124/113/10 125/114/10 126/115/10
f 125/114/10 127/116/10 126/115/10
f 126/115/10 127/116/10 128/117/10
f 127/116/10 129/118/10 128/117/10
f 130/119/16 131/120/16 132/121/16
f 131/120/16 133/122/16 132/121/16
f 134/123/9 135/124/9 136/125/9
f 135/124/9 137/126/9 136/125/9
f 136/125/9 137/126/9 138/127/9
f 136/125/9 138/127/9 139/128/9
f 138/127/9 140/129/9 139/128/9
f 139/128/9 140/129/9 141/130/9
f 140/129/9 142/131/9 141/130/9
f 141/130/9 142/131/9 143/132/9
f 142/131/9 144/133/9 143/132/9
f 143/132/9 144/133/9 145/134/9
f 144/133/9 146/135/9 145/134/9
f 145/134/9 146/135/9 147/136/9
f 146/135/9 148/137/9 147/136/9
f 147/136/9 148/137/9 149/138/9
f 148/137/9 150/139/9 149/138/9
f 148/137/9 151/140/9 150/139/9
f 151/140/9 152/141/9 150/139/9
f 151/140/9 153/142/9 152/141/9
f 153/142/9 154/143/9 152/141/9
f 153/142/9 155/144/9 154/143/9
f 155/144/9 156/145/9 154/143/9
f 155/144/9 157/146/9 156/145/9
f 157/146/9 158/147/9 156/145/9
f 156/145/9 158/147/9 159/148/9
f 160/149/15 161/150/15 162/151/15
f 161/150/15 163/152/15 162/151/15
f 164/153/9 165/154/9 166/155/9
f 165/154/9 167/156/9 166/155/9
f 168/157/13 169/158/13 14/13/13
f 169/158/13 170/11/13 14/13/13
f 171/159/17 172/160/17 173/161/17
f 172/160/17 174/162/17 173/161/17
f 175/163/18 176/164/18 32/29/18
f 176/164/18 177/165/18 32/29/18
f 178/166/19 179/167/19 180/168/19
f 179/167/19 181/169/19 180/168/19
f 181/169/20 179/167/20 182/170/20
f 179/167/20 183/171/20 182/170/20
f 184/172/21 185/173/21 186/174/21
f 185/173/21 187/175/21 186/174/21
f 185/173/22 188/176/22 187/175/22
f 188/176/22 189/89/22 187/175/22
f 190/177/12 191/178/12 192/179/12
f 191/178/12 193/180/12 192/179/12
f 194/181/10 195/182/10 196/156/10
f 195/182/10 197/183/10 196/156/10
f 198/184/21 199/185/21 200/186/21
f 199/185/21 201/187/21 200/186/21
f 202/185/22 203/188/22 204/187/22
f 203/188/22 205/189/22 204/187/22
f 206/190/18 207/20/18 208/191/18
f 207/20/18 20/19/18 208/191/18
f 209/192/17 210/193/17 183/171/17
f 210/193/17 211/170/17 183/171/17
f 212/194/23 213/195/23 9/8/23
f 213/195/23 214/10/23 9/8/23
f 215/196/24 216/197/24 217/198/24
f 216/197/24 218/199/24 217/198/24
f 219/199/25 216/197/25 133/122/25
f 216/197/25 220/121/25 133/122/25
f 221/200/26 222/201/26 223/202/26
f 222/201/26 224/203/26 223/202/26
f 225/189/14 203/188/14 226/157/14
f 203/188/14 169/158/14 226/157/14
f 227/200/27 223/202/27 228/204/27
f 223/202/27 229/205/27 228/204/27
f 230/206/19 231/207/19 232/208/19
f 231/207/19 233/209/19 232/208/19
f 232/208/20 233/209/20 171/159/20
f 233/209/20 234/160/20 171/159/20
f 235/6/28 236/210/28 5/5/28
f 236/210/28 237/211/28 5/5/28
f 238/203/29 239/201/29 240/194/29
f 239/201/29 241/195/29 240/194/29
f 242/212/11 243/213/11 244/214/11
f 243/213/11 245/215/11 244/214/11
f 100/89/14 188/176/14 98/87/14
f 32/29/6 246/165/6 30/27/6
f 129/118/10 127/116/10 247/216/10
f 83/73/12 248/217/12 81/71/12
f 79/69/12 249/218/12 77/67/12
f 86/76/12 250/219/12 78/68/12
f 82/72/12 80/70/12 251/220/12
