# Blender 5.0.1
# www.blender.org
mtllib half_timbered_2.mtl
o HalfTimbered2
v 4.999999 8.000000 -3.500000
v -5.000000 8.000000 -3.499999
v -5.400000 7.599999 -3.899998
v 5.399999 7.599999 -3.899999
v -4.999999 8.000000 3.500000
v 5.000000 8.000000 3.500000
v 5.400000 7.599999 3.900001
v -5.399999 7.599999 3.900002
v 5.499999 7.699999 -4.000000
v 5.500000 7.699999 4.000000
v -5.499999 7.699999 4.000000
v -5.500000 7.699999 -3.999999
v -3.000000 11.699999 0.000001
v 3.000000 11.699999 0.000001
v 4.999999 0.000001 -3.500000
v 5.000000 -0.000001 3.499999
v -4.999999 -0.000001 3.500000
v -5.000000 0.000001 -3.499999
v -5.049281 0.000000 -3.555365
v -5.049281 1.871975 -3.555366
v -5.049281 0.000000 3.555365
v -5.049281 1.871975 3.555365
v 5.049281 0.000000 -3.555365
v 5.049281 1.871975 -3.555366
v 5.049281 0.000000 3.555365
v 5.049281 1.871975 3.555365
v 4.999999 1.630064 -2.073694
v 4.999999 2.448701 -2.073694
v 5.000000 2.448701 -1.357387
v 4.999999 0.000000 -2.073694
v 5.000000 0.000000 -0.727927
v 5.000000 2.448701 -0.727927
v 5.049281 1.871975 -2.073694
v 5.049281 1.871975 -0.727927
v 5.049281 0.000000 -2.073694
v 5.049281 0.000000 -0.727927
v 4.909122 1.630064 -2.073694
v 4.909122 2.448701 -2.073694
v 4.909123 2.448701 -1.357387
v 4.909122 0.000000 -2.073694
v 4.909123 0.000000 -0.727927
v 4.909123 2.448701 -0.727927
v 4.909122 1.630064 -2.073694
v 4.909122 2.448701 -2.073694
v 4.909123 2.448701 -1.357387
v 4.909122 0.000000 -2.073694
v 4.909123 0.000000 -0.727927
v 4.909123 2.448701 -0.727927
vn -0.0000 -0.7071 0.7071
vn -0.0000 -0.7071 -0.7071
vn -0.7071 -0.7071 -0.0000
vn 0.7071 -0.7071 -0.0000
vn -0.0000 0.7071 -0.7071
vn -0.0000 0.7071 0.7071
vn 0.8480 0.5300 -0.0000
vn -0.8480 0.5300 -0.0000
vn 1.0000 -0.0000 -0.0000
vn -0.0000 -0.0000 1.0000
vn -1.0000 -0.0000 -0.0000
vn -0.0000 -0.0000 -1.0000
vn -0.0000 -1.0000 -0.0000
vt -0.813440 1.262370
vt 0.779390 1.262336
vt 0.849138 1.294253
vt -0.883186 1.294289
vt 0.827246 1.296810
vt -0.738055 1.296844
vt -0.807803 1.260962
vt 0.896993 1.260926
vt -0.364116 1.261493
vt 0.480900 1.261449
vt 0.529187 1.287055
vt -0.412404 1.287104
vt 0.480911 1.287571
vt -0.364105 1.287616
vt -0.412392 1.262011
vt 0.529199 1.261962
vt 0.517370 1.260010
vt -0.400634 1.254282
vt -0.412404 1.284816
vt 0.529140 1.290697
vt 0.844184 1.271359
vt -0.727413 1.269167
vt -0.741964 1.288874
vt 0.858735 1.291112
vt -0.400575 1.254191
vt 0.517429 1.259920
vt 0.529199 1.290598
vt -0.412343 1.284716
vt -0.727388 1.265415
vt 0.844208 1.267609
vt 0.858760 1.287262
vt -0.741942 1.285025
vt -1.119402 -0.399246
vt 3.119400 -0.399252
vt 2.156047 1.720147
vt -0.156026 1.720150
vt 3.119402 1.720154
vt -1.119398 1.720147
vt -0.156026 3.839549
vt 2.156047 3.839551
vt -1.119402 -0.399172
vt 3.119279 -0.399252
vt 0.999981 0.804975
vt 3.119402 3.695104
vt -1.119279 3.695023
vt 1.000047 4.899252
vt 0.578066 0.998290
vt 0.400879 0.502540
vt 0.460116 0.502539
vt -0.000818 0.998295
vt 0.348825 0.283862
vt 0.348824 0.502540
vt 0.460117 0.283861
vt 0.578070 0.283860
vt 0.460117 0.429432
vt -0.000816 0.283409
vt -0.000816 0.998294
vt 0.999933 0.998295
vt 0.999934 0.283410
vt -0.000791 0.283865
vt -0.000795 0.998295
vt 0.578089 0.998290
vt 0.578093 0.283861
vt -0.000818 0.998287
vt -0.000817 0.283402
vt 0.999933 0.283404
vt 0.999932 0.998289
vt 0.001085 0.454854
vt 0.572435 0.285838
vt 0.001085 0.285837
vt 0.998778 0.455447
vt 0.003212 0.285834
vt 0.998778 0.285834
vt 0.572435 0.285838
vt 0.228271 0.454854
vt 0.228271 0.285838
vt 0.001086 0.285837
vt 0.120138 0.454854
vt 0.003212 0.455447
vt 0.998778 0.285834
vt 0.003212 0.285834
vt 0.009106 0.130431
vt 0.622100 0.001973
vt 0.205552 0.276617
vt -0.000814 0.283865
vt 0.572435 0.454854
vt 0.003212 0.455447
vt 0.572435 0.454854
vt 0.120138 0.285838
vt 0.998778 0.455447
vt 0.009107 0.276616
vt 0.009104 0.001971
vt 0.622103 0.276618
s 0
usemtl mat_main
f 1/1/1 2/2/1 3/3/1
f 1/1/1 3/3/1 4/4/1
f 5/5/2 6/6/2 7/7/2
f 5/5/2 7/7/2 8/8/2
f 6/9/3 1/10/3 4/11/3
f 6/9/3 4/11/3 7/12/3
f 2/13/4 5/14/4 8/15/4
f 2/13/4 8/15/4 3/16/4
f 7/17/4 4/18/4 9/19/4
f 7/17/4 9/19/4 10/20/4
f 8/21/1 7/22/1 10/23/1
f 8/21/1 10/23/1 11/24/1
f 3/25/3 8/26/3 11/27/3
f 3/25/3 11/27/3 12/28/3
f 4/29/2 3/30/2 12/31/2
f 4/29/2 12/31/2 9/32/2
f 1/47/9 29/48/9 28/49/9
f 6/50/9 31/51/9 32/52/9
f 30/53/9 15/54/9 27/55/9
f 16/56/10 6/57/10 5/58/10
f 16/56/10 5/58/10 17/59/10
f 17/60/11 5/61/11 2/62/11
f 17/60/11 2/62/11 18/63/11
f 1/64/12 15/65/12 18/66/12
f 1/64/12 18/66/12 2/67/12
f 20/68/9 21/69/9 19/70/9
f 22/71/12 25/72/12 21/73/12
f 25/74/11 34/75/11 36/76/11
f 23/77/11 33/78/11 24/68/11
f 24/79/10 19/80/10 23/81/10
f 28/49/13 39/48/13 38/49/13
f 28/49/10 37/55/10 27/55/10
f 27/55/10 40/53/10 30/53/10
f 31/51/12 42/52/12 32/52/12
f 32/52/13 39/48/13 29/48/13
f 45/82/9 47/83/9 43/84/9
f 28/49/9 27/55/9 15/54/9
f 1/47/9 6/50/9 29/48/9
f 28/49/9 15/54/9 1/47/9
f 6/50/9 16/85/9 31/51/9
f 32/52/9 29/48/9 6/50/9
f 20/68/9 22/86/9 21/69/9
f 22/71/12 26/87/12 25/72/12
f 25/74/11 26/88/11 34/75/11
f 23/77/11 35/89/11 33/78/11
f 24/79/10 20/90/10 19/80/10
f 28/49/13 29/48/13 39/48/13
f 28/49/10 38/49/10 37/55/10
f 27/55/10 37/55/10 40/53/10
f 31/51/12 41/51/12 42/52/12
f 32/52/13 42/52/13 39/48/13
f 43/84/9 44/91/9 45/82/9
f 45/82/9 48/92/9 47/83/9
f 47/83/9 46/93/9 43/84/9
usemtl mat_roof
f 9/33/5 12/34/5 13/35/5
f 9/33/5 13/35/5 14/36/5
f 11/37/6 10/38/6 14/39/6
f 11/37/6 14/39/6 13/40/6
f 10/41/7 9/42/7 14/43/7
f 12/44/8 11/45/8 13/46/8
