# Blender 5.0.1
# www.blender.org
mtllib old_city_giebelhaus1.mtl
o old_city_giebelhaus_1
v 0.926184 7.936981 -2.216314
v 0.926184 8.015393 -2.216314
v 0.926184 7.936981 -2.432845
v 0.926184 8.015393 -2.432845
v 1.329029 7.936981 -2.216314
v 1.329029 8.015393 -2.216314
v 1.329029 7.936981 -2.432845
v 1.329029 8.015393 -2.432845
v 1.808388 6.703808 -2.218534
v 1.808388 6.780612 -2.218534
v 1.808388 6.703808 -2.430624
v 1.808388 6.780612 -2.430624
v 2.241271 6.703808 -2.218534
v 2.241271 6.780612 -2.218534
v 2.241271 6.703808 -2.430624
v 2.241271 6.780612 -2.430624
v 1.302472 7.347301 -2.216314
v 1.302472 7.425714 -2.216314
v 1.302472 7.347301 -2.432845
v 1.302472 7.425714 -2.432845
v 1.834867 7.347301 -2.216314
v 1.834867 7.425714 -2.216314
v 1.834867 7.347301 -2.432845
v 1.834867 7.425714 -2.432845
v 0.544005 8.464264 -2.216314
v 0.544005 8.542676 -2.216314
v 0.544005 8.464264 -2.432845
v 0.544005 8.542676 -2.432845
v 0.946851 8.464264 -2.216314
v 0.946851 8.542676 -2.216314
v 0.946851 8.464264 -2.432845
v 0.946851 8.542676 -2.432845
v 0.098048 8.975999 -2.216314
v 0.098048 9.054411 -2.216314
v 0.098048 8.975999 -2.432845
v 0.098048 9.054411 -2.432845
v 0.571962 8.975999 -2.216314
v 0.571962 9.054411 -2.216314
v 0.571962 8.975999 -2.432845
v 0.571962 9.054411 -2.432845
v -0.150921 9.274200 -2.216314
v -0.150921 9.352612 -2.216314
v -0.150921 9.274200 -2.432845
v -0.150921 9.352612 -2.432845
v 0.129544 9.274200 -2.216314
v 0.129544 9.352612 -2.216314
v 0.129544 9.274200 -2.432845
v 0.129544 9.352612 -2.432845
v -1.722718 6.713909 -2.218534
v -1.722718 6.790713 -2.218534
v -1.722718 6.713909 -2.430624
v -1.722718 6.790713 -2.430624
v -2.116186 6.713909 -2.218534
v -2.116186 6.790713 -2.218534
v -2.116186 6.713909 -2.430624
v -2.116186 6.790713 -2.430624
v -1.313220 7.317052 -2.216314
v -1.313220 7.395464 -2.216314
v -1.313220 7.317052 -2.432845
v -1.313220 7.395464 -2.432845
v -1.783339 7.317052 -2.216314
v -1.783339 7.395464 -2.216314
v -1.783339 7.317052 -2.432845
v -1.783339 7.395464 -2.432845
v -0.962796 7.906731 -2.216314
v -0.962796 7.985143 -2.216314
v -0.962796 7.906731 -2.432845
v -0.962796 7.985143 -2.432845
v -1.365641 7.906731 -2.216314
v -1.365641 7.985143 -2.216314
v -1.365641 7.906731 -2.432845
v -1.365641 7.985143 -2.432845
v -0.575446 8.434015 -2.216314
v -0.575446 8.512427 -2.216314
v -0.575446 8.434015 -2.432845
v -0.575446 8.512427 -2.432845
v -1.010287 8.434015 -2.216314
v -1.010287 8.512427 -2.216314
v -1.010287 8.434015 -2.432845
v -1.010287 8.512427 -2.432845
v -0.613467 8.975999 -2.216314
v -0.613467 9.054411 -2.216314
v -0.613467 8.975999 -2.432845
v -0.613467 9.054411 -2.432845
v -0.124045 8.975999 -2.216314
v -0.124045 9.054411 -2.216314
v -0.124045 8.975999 -2.432845
v -0.124045 9.054411 -2.432845
v 0.926184 7.936981 2.654519
v 0.926184 8.015393 2.654519
v 0.926184 7.936981 2.871050
v 0.926184 8.015393 2.871050
v 1.329029 7.936981 2.654519
v 1.329029 8.015393 2.654519
v 1.329029 7.936981 2.871050
v 1.329029 8.015393 2.871050
v 1.808388 6.703808 2.656739
v 1.808388 6.780612 2.656739
v 1.808388 6.703808 2.868829
v 1.808388 6.780612 2.868829
v 2.241271 6.703808 2.656739
v 2.241271 6.780612 2.656739
v 2.241271 6.703808 2.868829
v 2.241271 6.780612 2.868829
v 1.302472 7.347301 2.654519
v 1.302472 7.425714 2.654519
v 1.302472 7.347301 2.871050
v 1.302472 7.425714 2.871050
v 1.834867 7.347301 2.654519
v 1.834867 7.425714 2.654519
v 1.834867 7.347301 2.871050
v 1.834867 7.425714 2.871050
v 0.544005 8.464264 2.654519
v 0.544005 8.542676 2.654519
v 0.544005 8.464264 2.871050
v 0.544005 8.542676 2.871050
v 0.946851 8.464264 2.654519
v 0.946851 8.542676 2.654519
v 0.946851 8.464264 2.871050
v 0.946851 8.542676 2.871050
v 0.098048 8.975999 2.654519
v 0.098048 9.054411 2.654519
v 0.098048 8.975999 2.871050
v 0.098048 9.054411 2.871050
v 0.571962 8.975999 2.654519
v 0.571962 9.054411 2.654519
v 0.571962 8.975999 2.871050
v 0.571962 9.054411 2.871050
v -0.150921 9.274200 2.654519
v -0.150921 9.352612 2.654519
v -0.150921 9.274200 2.871050
v -0.150921 9.352612 2.871050
v 0.129544 9.274200 2.654519
v 0.129544 9.352612 2.654519
v 0.129544 9.274200 2.871050
v 0.129544 9.352612 2.871050
v -1.722718 6.713909 2.656739
v -1.722718 6.790713 2.656739
v -1.722718 6.713909 2.868829
v -1.722718 6.790713 2.868829
v -2.116186 6.713909 2.656739
v -2.116186 6.790713 2.656739
v -2.116186 6.713909 2.868829
v -2.116186 6.790713 2.868829
v -1.313220 7.317052 2.654519
v -1.313220 7.395464 2.654519
v -1.313220 7.317052 2.871050
v -1.313220 7.395464 2.871050
v -1.783339 7.317052 2.654519
v -1.783339 7.395464 2.654519
v -1.783339 7.317052 2.871050
v -1.783339 7.395464 2.871050
v -0.962796 7.906731 2.654519
v -0.962796 7.985143 2.654519
v -0.962796 7.906731 2.871050
v -0.962796 7.985143 2.871050
v -1.365641 7.906731 2.654519
v -1.365641 7.985143 2.654519
v -1.365641 7.906731 2.871050
v -1.365641 7.985143 2.871050
v -0.575446 8.434015 2.654519
v -0.575446 8.512427 2.654519
v -0.575446 8.434015 2.871050
v -0.575446 8.512427 2.871050
v -1.010287 8.434015 2.654519
v -1.010287 8.512427 2.654519
v -1.010287 8.434015 2.871050
v -1.010287 8.512427 2.871050
v -0.613467 8.975999 2.654519
v -0.613467 9.054411 2.654519
v -0.613467 8.975999 2.871050
v -0.613467 9.054411 2.871050
v -0.124045 8.975999 2.654519
v -0.124045 9.054411 2.654519
v -0.124045 8.975999 2.871050
v -0.124045 9.054411 2.871050
v 0.087778 0.378345 -2.340020
v -0.497364 0.378345 -2.340021
v -0.494038 0.763069 -2.340021
v -0.493726 0.773211 -2.340021
v -0.491510 0.801752 -2.340021
v -0.485463 0.845866 -2.340021
v -0.473662 0.902726 -2.340021
v -0.454183 0.969507 -2.340021
v -0.425100 1.043381 -2.340021
v -0.384489 1.121521 -2.340021
v -0.330426 1.201102 -2.340021
v -0.260986 1.279298 -2.340021
v -0.174245 1.353281 -2.340020
v -0.068278 1.420226 -2.340020
v 0.058839 1.477304 -2.340020
v 0.069606 1.473840 -2.340020
v 0.099408 1.462864 -2.340020
v 0.144498 1.443499 -2.340020
v 0.201127 1.414865 -2.340020
v 0.265546 1.376089 -2.340020
v 0.334008 1.326290 -2.340020
v 0.402765 1.264593 -2.340020
v 0.468067 1.190119 -2.340020
v 0.526168 1.101993 -2.340020
v 0.573318 1.011321 -2.340020
v 0.605770 0.893256 -2.340020
v 0.615567 0.818156 -2.340020
v 0.618949 0.751739 -2.340020
v 0.617521 0.382681 -2.340020
v -1.615033 0.386786 -2.340021
v -0.953336 0.383578 -2.340021
v -0.946656 0.843580 -2.340021
v -0.952858 0.891603 -2.340021
v -0.966237 0.946739 -2.340021
v -0.976238 0.976846 -2.340021
v -0.988775 1.008576 -2.340021
v -1.004098 1.041880 -2.340021
v -1.022452 1.076703 -2.340021
v -1.044087 1.112997 -2.340021
v -1.069250 1.150708 -2.340021
v -1.098187 1.189785 -2.340021
v -1.124569 1.221942 -2.340021
v -1.153367 1.253360 -2.340021
v -1.184642 1.283652 -2.340021
v -1.218456 1.312430 -2.340021
v -1.254869 1.339308 -2.340021
v -1.293943 1.363896 -2.340021
v -1.335739 1.385809 -2.340021
v -1.380319 1.404659 -2.340021
v -1.427743 1.420058 -2.340021
v -1.478073 1.431618 -2.340021
v -1.531371 1.438953 -2.340021
v -1.587696 1.441675 -2.340021
v -1.698151 1.435623 -2.340021
v -1.798181 1.417180 -2.340021
v -1.887949 1.387636 -2.340021
v -1.967617 1.348278 -2.340021
v -2.037345 1.300395 -2.340021
v -2.097298 1.245273 -2.340021
v -2.147635 1.184201 -2.340021
v -2.188519 1.118469 -2.340021
v -2.220111 1.049363 -2.340021
v -2.249655 0.978171 -2.340021
v -2.264802 0.906183 -2.340021
v -2.258379 0.397937 -2.340021
v 1.100616 0.384980 -2.340020
v 1.102069 0.694474 -2.340020
v 1.102630 0.760752 -2.340020
v 1.110041 0.832880 -2.340020
v 1.122984 0.907911 -2.340020
v 1.155605 0.984053 -2.340020
v 1.199574 1.059511 -2.340020
v 1.254056 1.132490 -2.340020
v 1.318212 1.201196 -2.340020
v 1.391207 1.263834 -2.340020
v 1.472202 1.318611 -2.340020
v 1.560361 1.363733 -2.340020
v 1.654846 1.397404 -2.340020
v 1.754821 1.417831 -2.340020
v 1.859448 1.423220 -2.340020
v 1.963368 1.415038 -2.340020
v 2.061380 1.396372 -2.340020
v 2.152884 1.367854 -2.340020
v 2.237283 1.330117 -2.340020
v 2.313977 1.283793 -2.340019
v 2.382368 1.229515 -2.340019
v 2.441857 1.167916 -2.340019
v 2.491844 1.099628 -2.340019
v 2.531733 1.025284 -2.340019
v 2.560923 0.945517 -2.340019
v 2.578816 0.860958 -2.340019
v 2.584813 0.772241 -2.340019
v 2.584608 0.688843 -2.340019
v 2.584999 0.402194 -2.340019
v 1.836954 0.393587 -2.340020
v 0.087778 0.378345 -2.340020
v -0.497364 0.378345 -2.340021
v -0.494038 0.763069 -2.340021
v -0.493726 0.773211 -2.340021
v -0.491510 0.801752 -2.340021
v -0.485463 0.845866 -2.340021
v -0.473662 0.902726 -2.340021
v -0.454183 0.969507 -2.340021
v -0.425100 1.043381 -2.340021
v -0.384489 1.121521 -2.340021
v -0.330426 1.201102 -2.340021
v -0.260986 1.279298 -2.340021
v -0.174245 1.353281 -2.340020
v -0.068278 1.420226 -2.340020
v 0.058839 1.477304 -2.340020
v 0.069606 1.473840 -2.340020
v 0.099408 1.462864 -2.340020
v 0.144498 1.443499 -2.340020
v 0.201127 1.414865 -2.340020
v 0.265546 1.376089 -2.340020
v 0.334008 1.326290 -2.340020
v 0.402765 1.264593 -2.340020
v 0.468067 1.190119 -2.340020
v 0.526168 1.101993 -2.340020
v 0.573318 1.011321 -2.340020
v 0.605770 0.893256 -2.340020
v 0.615567 0.818156 -2.340020
v 0.618949 0.751739 -2.340020
v 0.617521 0.382681 -2.340020
v -1.615033 0.386786 -2.340021
v -0.953336 0.383578 -2.340021
v -0.946656 0.843580 -2.340021
v -0.952858 0.891603 -2.340021
v -0.966237 0.946739 -2.340021
v -0.976238 0.976846 -2.340021
v -0.988775 1.008576 -2.340021
v -1.004098 1.041880 -2.340021
v -1.022452 1.076703 -2.340021
v -1.044087 1.112997 -2.340021
v -1.069250 1.150708 -2.340021
v -1.098187 1.189785 -2.340021
v -1.124569 1.221942 -2.340021
v -1.153367 1.253360 -2.340021
v -1.184642 1.283652 -2.340021
v -1.218456 1.312430 -2.340021
v -1.254869 1.339308 -2.340021
v -1.293943 1.363896 -2.340021
v -1.335739 1.385809 -2.340021
v -1.380319 1.404659 -2.340021
v -1.427743 1.420058 -2.340021
v -1.478073 1.431618 -2.340021
v -1.531371 1.438953 -2.340021
v -1.587696 1.441675 -2.340021
v -1.698151 1.435623 -2.340021
v -1.798181 1.417180 -2.340021
v -1.887949 1.387636 -2.340021
v -1.967617 1.348278 -2.340021
v -2.037345 1.300395 -2.340021
v -2.097298 1.245273 -2.340021
v -2.147635 1.184201 -2.340021
v -2.188519 1.118469 -2.340021
v -2.220111 1.049363 -2.340021
v -2.249655 0.978171 -2.340021
v -2.264802 0.906183 -2.340021
v -2.258379 0.397937 -2.340021
v 1.100616 0.384980 -2.340020
v 1.102069 0.694474 -2.340020
v 1.102630 0.760752 -2.340020
v 1.110041 0.832880 -2.340020
v 1.122984 0.907911 -2.340020
v 1.155605 0.984053 -2.340020
v 1.199574 1.059511 -2.340020
v 1.254056 1.132490 -2.340020
v 1.318212 1.201196 -2.340020
v 1.391207 1.263834 -2.340020
v 1.472202 1.318611 -2.340020
v 1.560361 1.363733 -2.340020
v 1.654846 1.397404 -2.340020
v 1.754821 1.417831 -2.340020
v 1.859448 1.423220 -2.340020
v 1.963368 1.415038 -2.340020
v 2.061380 1.396372 -2.340020
v 2.152884 1.367854 -2.340020
v 2.237283 1.330117 -2.340020
v 2.313977 1.283793 -2.340019
v 2.382368 1.229515 -2.340019
v 2.441857 1.167916 -2.340019
v 2.491844 1.099628 -2.340019
v 2.531733 1.025284 -2.340019
v 2.560923 0.945517 -2.340019
v 2.578816 0.860958 -2.340019
v 2.584813 0.772241 -2.340019
v 2.584608 0.688843 -2.340019
v 2.584999 0.402194 -2.340019
v 1.836954 0.393587 -2.340020
v 0.087778 0.378345 2.778225
v -0.497364 0.378345 2.778225
v -0.494038 0.763069 2.778225
v -0.493726 0.773211 2.778225
v -0.491510 0.801752 2.778225
v -0.485463 0.845866 2.778225
v -0.473662 0.902726 2.778225
v -0.454183 0.969507 2.778225
v -0.425100 1.043381 2.778225
v -0.384489 1.121521 2.778225
v -0.330426 1.201103 2.778225
v -0.260986 1.279298 2.778225
v -0.174245 1.353281 2.778225
v -0.068278 1.420226 2.778225
v 0.058839 1.477304 2.778225
v 0.069606 1.473840 2.778225
v 0.099408 1.462864 2.778225
v 0.144498 1.443499 2.778225
v 0.201127 1.414865 2.778225
v 0.265546 1.376089 2.778225
v 0.334008 1.326290 2.778225
v 0.402765 1.264593 2.778225
v 0.468067 1.190119 2.778224
v 0.526168 1.101993 2.778224
v 0.573318 1.011322 2.778224
v 0.605770 0.893256 2.778224
v 0.615567 0.818156 2.778224
v 0.618949 0.751739 2.778224
v 0.617521 0.382681 2.778225
v -1.615033 0.386786 2.778225
v -0.953336 0.383578 2.778225
v -0.946656 0.843580 2.778225
v -0.952858 0.891603 2.778225
v -0.966237 0.946739 2.778225
v -0.976238 0.976846 2.778225
v -0.988775 1.008576 2.778225
v -1.004098 1.041880 2.778225
v -1.022452 1.076703 2.778225
v -1.044087 1.112997 2.778225
v -1.069250 1.150708 2.778225
v -1.098187 1.189785 2.778225
v -1.124569 1.221942 2.778225
v -1.153367 1.253360 2.778225
v -1.184642 1.283652 2.778225
v -1.218456 1.312430 2.778225
v -1.254869 1.339308 2.778225
v -1.293943 1.363896 2.778225
v -1.335739 1.385810 2.778225
v -1.380319 1.404659 2.778225
v -1.427743 1.420058 2.778225
v -1.478073 1.431618 2.778225
v -1.531371 1.438953 2.778225
v -1.587697 1.441675 2.778226
v -1.698151 1.435623 2.778226
v -1.798182 1.417180 2.778225
v -1.887949 1.387636 2.778225
v -1.967617 1.348278 2.778225
v -2.037345 1.300395 2.778225
v -2.097298 1.245273 2.778225
v -2.147635 1.184202 2.778225
v -2.188519 1.118469 2.778225
v -2.220111 1.049363 2.778225
v -2.249655 0.978171 2.778225
v -2.264801 0.906183 2.778225
v -2.258378 0.397937 2.778225
v 1.100616 0.384981 2.778224
v 1.102069 0.694474 2.778224
v 1.102630 0.760752 2.778224
v 1.110041 0.832880 2.778224
v 1.122984 0.907911 2.778224
v 1.155605 0.984054 2.778224
v 1.199574 1.059511 2.778224
v 1.254056 1.132490 2.778224
v 1.318212 1.201196 2.778224
v 1.391207 1.263834 2.778224
v 1.472202 1.318611 2.778224
v 1.560361 1.363733 2.778224
v 1.654846 1.397404 2.778224
v 1.754821 1.417831 2.778224
v 1.859448 1.423220 2.778224
v 1.963368 1.415038 2.778224
v 2.061380 1.396372 2.778224
v 2.152884 1.367854 2.778224
v 2.237283 1.330117 2.778224
v 2.313977 1.283793 2.778224
v 2.382368 1.229516 2.778224
v 2.441857 1.167917 2.778224
v 2.491844 1.099628 2.778224
v 2.531733 1.025284 2.778224
v 2.560923 0.945517 2.778224
v 2.578816 0.860958 2.778224
v 2.584813 0.772241 2.778224
v 2.584608 0.688843 2.778224
v 2.584999 0.402194 2.778224
v 1.836954 0.393587 2.778224
v 0.087778 0.378345 2.778225
v -0.497364 0.378345 2.778225
v -0.494038 0.763069 2.778225
v -0.493726 0.773211 2.778225
v -0.491510 0.801752 2.778225
v -0.485463 0.845866 2.778225
v -0.473662 0.902726 2.778225
v -0.454183 0.969507 2.778225
v -0.425100 1.043381 2.778225
v -0.384489 1.121521 2.778225
v -0.330426 1.201103 2.778225
v -0.260986 1.279298 2.778225
v -0.174245 1.353281 2.778225
v -0.068278 1.420226 2.778225
v 0.058839 1.477304 2.778225
v 0.069606 1.473840 2.778225
v 0.099408 1.462864 2.778225
v 0.144498 1.443499 2.778225
v 0.201127 1.414865 2.778225
v 0.265546 1.376089 2.778225
v 0.334008 1.326290 2.778225
v 0.402765 1.264593 2.778225
v 0.468067 1.190119 2.778224
v 0.526168 1.101993 2.778224
v 0.573318 1.011322 2.778224
v 0.605770 0.893256 2.778224
v 0.615567 0.818156 2.778224
v 0.618949 0.751739 2.778224
v 0.617521 0.382681 2.778225
v -1.615033 0.386786 2.778225
v -0.953336 0.383578 2.778225
v -0.946656 0.843580 2.778225
v -0.952858 0.891603 2.778225
v -0.966237 0.946739 2.778225
v -0.976238 0.976846 2.778225
v -0.988775 1.008576 2.778225
v -1.004098 1.041880 2.778225
v -1.022452 1.076703 2.778225
v -1.044087 1.112997 2.778225
v -1.069250 1.150708 2.778225
v -1.098187 1.189785 2.778225
v -1.124569 1.221942 2.778225
v -1.153367 1.253360 2.778225
v -1.184642 1.283652 2.778225
v -1.218456 1.312430 2.778225
v -1.254869 1.339308 2.778225
v -1.293943 1.363896 2.778225
v -1.335739 1.385810 2.778225
v -1.380319 1.404659 2.778225
v -1.427743 1.420058 2.778225
v -1.478073 1.431618 2.778225
v -1.531371 1.438953 2.778225
v -1.587697 1.441675 2.778226
v -1.698151 1.435623 2.778226
v -1.798182 1.417180 2.778225
v -1.887949 1.387636 2.778225
v -1.967617 1.348278 2.778225
v -2.037345 1.300395 2.778225
v -2.097298 1.245273 2.778225
v -2.147635 1.184202 2.778225
v -2.188519 1.118469 2.778225
v -2.220111 1.049363 2.778225
v -2.249655 0.978171 2.778225
v -2.264801 0.906183 2.778225
v -2.258378 0.397937 2.778225
v 1.100616 0.384981 2.778224
v 1.102069 0.694474 2.778224
v 1.102630 0.760752 2.778224
v 1.110041 0.832880 2.778224
v 1.122984 0.907911 2.778224
v 1.155605 0.984054 2.778224
v 1.199574 1.059511 2.778224
v 1.254056 1.132490 2.778224
v 1.318212 1.201196 2.778224
v 1.391207 1.263834 2.778224
v 1.472202 1.318611 2.778224
v 1.560361 1.363733 2.778224
v 1.654846 1.397404 2.778224
v 1.754821 1.417831 2.778224
v 1.859448 1.423220 2.778224
v 1.963368 1.415038 2.778224
v 2.061380 1.396372 2.778224
v 2.152884 1.367854 2.778224
v 2.237283 1.330117 2.778224
v 2.313977 1.283793 2.778224
v 2.382368 1.229516 2.778224
v 2.441857 1.167917 2.778224
v 2.491844 1.099628 2.778224
v 2.531733 1.025284 2.778224
v 2.560923 0.945517 2.778224
v 2.578816 0.860958 2.778224
v 2.584813 0.772241 2.778224
v 2.584608 0.688843 2.778224
v 2.584999 0.402194 2.778224
v 1.836954 0.393587 2.778224
v -0.965501 8.501123 2.852028
v 0.925861 7.995412 2.852028
v -0.965501 7.983514 2.852028
v -0.581247 8.501123 2.852028
v 0.925861 8.518971 2.852028
v 0.551038 8.518971 2.852028
v -1.322476 7.983514 2.852028
v 1.306632 7.412354 2.852028
v -1.322476 7.376657 2.852028
v 1.306632 7.995412 2.852028
v -1.738945 7.376657 2.852028
v 1.812347 6.775752 2.852027
v -1.738945 6.775752 2.852028
v 1.812347 7.412354 2.852028
v -2.558302 5.552264 2.852028
v 2.707547 -0.135984 2.852027
v -2.558302 -0.135984 2.852027
v 2.707547 5.552264 2.852028
v -2.073621 6.061804 2.852028
v 2.222865 6.061804 2.852027
v -2.073621 6.775752 2.852028
v 2.222865 6.775752 2.852027
v -0.581247 9.042534 2.852028
v 0.108901 9.042534 2.852028
v -0.135031 9.042534 2.852028
v 0.108901 9.345963 2.852028
v -0.135031 9.345963 2.852028
v 0.551038 9.042534 2.852028
v 2.707546 -0.135983 -2.413823
v 2.707546 5.552265 -2.413822
v -2.558303 -0.135983 -2.413822
v -2.558303 5.552265 -2.413821
v -2.073621 6.775752 2.673541
v -2.073621 6.061804 2.673541
v -1.738945 6.775752 2.673541
v -1.738945 7.376657 2.673541
v -1.322476 7.376657 2.673541
v -1.322476 7.983514 2.673541
v -0.965501 7.983514 2.673541
v -0.965501 8.501123 2.673541
v -0.581247 8.501123 2.673541
v -0.581247 9.042534 2.673541
v -0.135031 9.042534 2.673541
v -0.135031 9.345963 2.673541
v 0.108901 9.345963 2.673541
v 0.108901 9.042534 2.673541
v 0.551038 9.042534 2.673541
v 0.551038 8.518971 2.673541
v 0.925861 8.518971 2.673541
v 0.925861 7.995412 2.673541
v 1.306632 7.995412 2.673541
v 1.306632 7.412354 2.673541
v 1.812347 7.412354 2.673541
v 1.812347 6.775752 2.673541
v 2.222865 6.775752 2.673541
v 2.222865 6.061804 2.673540
v -0.518028 2.402277 -2.413822
v -1.241598 2.075051 -2.413822
v -0.518028 2.075051 -2.413822
v -1.241597 2.395627 -2.413822
v -2.514804 2.395627 -2.413822
v 0.059080 2.075051 -2.413822
v 1.318848 2.109313 -2.413822
v 0.059080 2.402277 -2.413822
v 2.324324 2.109313 -2.413822
v 1.318848 2.412741 -2.413822
v 2.324324 2.412741 -2.413822
v -2.514804 2.075051 -2.413822
v 2.222865 6.061805 -2.413822
v -2.073622 6.061805 -2.413822
v 2.222865 6.775753 -2.413822
v -2.073622 6.775753 -2.413822
v 1.812346 6.775753 -2.413822
v -1.738946 6.775753 -2.413822
v 0.108901 9.345963 -2.413821
v -0.135031 9.042535 -2.413822
v 0.108901 9.042535 -2.413822
v -0.135031 9.345963 -2.413821
v 0.925860 8.518973 -2.413822
v -0.581248 8.501124 -2.413822
v 0.925860 7.995412 -2.413822
v 0.551038 8.518973 -2.413822
v -0.581248 9.042535 -2.413821
v 0.551038 9.042535 -2.413822
v 1.306632 7.995412 -2.413822
v -0.965502 7.983514 -2.413822
v 1.306632 7.412354 -2.413822
v -0.965502 8.501124 -2.413822
v 1.812346 7.412354 -2.413822
v -1.322476 7.376657 -2.413822
v -1.322476 7.983514 -2.413822
v -1.738946 7.376657 -2.413822
v 0.074622 8.788357 2.673541
v 2.222865 6.775753 -2.235336
v 2.222865 6.061805 -2.235336
v 1.812346 6.775753 -2.235336
v 1.812346 7.412354 -2.235335
v 1.306632 7.412354 -2.235335
v 1.306632 7.995412 -2.235335
v 0.925860 7.995412 -2.235335
v 0.925860 8.518973 -2.235335
v 0.551038 8.518973 -2.235335
v 0.551038 9.042535 -2.235336
v 0.108901 9.042535 -2.235336
v 0.108901 9.345963 -2.235335
v -0.135031 9.345963 -2.235335
v -0.135031 9.042535 -2.235336
v -0.581248 9.042535 -2.235335
v -0.581248 8.501125 -2.235335
v -0.965502 8.501125 -2.235335
v -0.965502 7.983514 -2.235335
v -1.322476 7.983514 -2.235335
v -1.322476 7.376657 -2.235335
v -1.738946 7.376657 -2.235335
v -1.738946 6.775753 -2.235335
v -2.073622 6.775753 -2.235335
v -2.073622 6.061805 -2.235335
v 0.074622 8.788358 -2.235336
v 2.213293 0.397917 2.852027
v 1.836954 0.393587 2.852027
v 2.531733 1.025284 2.852027
v 2.313977 1.283793 2.852027
v 2.382368 1.229516 2.852027
v 2.441857 1.167917 2.852027
v 2.491844 1.099628 2.852027
v 2.152884 1.367854 2.852027
v 2.237283 1.330117 2.852027
v 2.061380 1.396372 2.852027
v 1.754821 1.417831 2.852027
v 1.963368 1.415038 2.852027
v 1.654846 1.397404 2.852027
v 1.560361 1.363733 2.852027
v 1.472202 1.318611 2.852027
v 1.403795 1.272348 2.852027
v 1.391207 1.263834 2.852027
v 1.318213 1.201196 2.852027
v 1.254056 1.132490 2.852027
v 1.199574 1.059511 2.852027
v 1.155605 0.984054 2.852027
v 1.122984 0.907911 2.852027
v 1.110041 0.832880 2.852027
v 1.102630 0.760752 2.852027
v 1.100616 0.384981 2.852027
v 1.102485 0.743621 2.852027
v 1.102069 0.694474 2.852027
v 0.618949 0.751739 2.852027
v 0.615567 0.818156 2.852027
v 0.617521 0.382681 2.852027
v 0.087778 0.378345 2.852027
v 0.605770 0.893256 2.852027
v 0.526168 1.101993 2.852027
v 0.573318 1.011322 2.852027
v 0.468067 1.190119 2.852027
v 0.402765 1.264593 2.852027
v 0.334008 1.326290 2.852027
v 0.265546 1.376089 2.852027
v 0.069606 1.473840 2.852027
v 0.058839 1.477304 2.852027
v -0.068278 1.420226 2.852027
v 0.099408 1.462864 2.852027
v 0.144498 1.443499 2.852027
v 0.201127 1.414865 2.852027
v -0.174245 1.353281 2.852027
v -0.497364 0.378345 2.852027
v -0.260986 1.279298 2.852027
v -0.330426 1.201103 2.852027
v -0.384489 1.121521 2.852027
v -0.425100 1.043381 2.852027
v -0.454183 0.969507 2.852027
v -0.473662 0.902726 2.852027
v -0.485463 0.845866 2.852027
v -0.491510 0.801752 2.852027
v -0.487026 0.834464 2.852027
v -0.493726 0.773211 2.852027
v -0.494038 0.763069 2.852027
v -0.952858 0.891603 2.852027
v -0.946656 0.843580 2.852027
v -0.953336 0.383578 2.852027
v -0.966237 0.946739 2.852027
v -1.615033 0.386786 2.852027
v -1.184642 1.283652 2.852027
v -1.153367 1.253360 2.852027
v -1.124569 1.221942 2.852027
v -1.098187 1.189785 2.852027
v -1.069250 1.150708 2.852027
v -1.044087 1.112997 2.852027
v -1.022452 1.076703 2.852027
v -1.004098 1.041880 2.852027
v -0.988775 1.008576 2.852027
v -0.976238 0.976846 2.852027
v -1.254869 1.339308 2.852027
v -1.218456 1.312430 2.852027
v -1.293943 1.363896 2.852027
v -1.335739 1.385810 2.852027
v -1.380319 1.404659 2.852027
v -1.478073 1.431618 2.852027
v -1.427743 1.420058 2.852027
v -1.531371 1.438953 2.852027
v -1.587696 1.441675 2.852027
v -1.698151 1.435623 2.852027
v -1.798182 1.417180 2.852027
v -1.887949 1.387636 2.852027
v -1.967617 1.348278 2.852027
v -2.037345 1.300395 2.852027
v -2.097298 1.245273 2.852027
v -2.147635 1.184202 2.852027
v -2.188519 1.118469 2.852027
v -2.220111 1.049363 2.852027
v -2.249656 0.978171 2.852027
v -2.264802 0.906183 2.852027
v -2.258379 0.397937 2.852027
v 2.584608 0.688843 2.852027
v 2.584813 0.772241 2.852027
v 1.859448 1.423220 2.852027
v 2.584999 0.402194 2.852027
v 2.560923 0.945517 2.852027
v 2.578816 0.860958 2.852027
v 2.584999 0.402194 -2.413823
v 2.584752 0.583471 -2.413822
v 2.584608 0.688843 -2.413822
v 2.578816 0.860958 -2.413822
v 2.584813 0.772241 -2.413822
v 2.560923 0.945517 -2.413822
v 2.382368 1.229515 -2.413822
v 2.441857 1.167916 -2.413822
v 2.491844 1.099628 -2.413822
v 2.531733 1.025284 -2.413822
v 2.498899 1.086480 -2.413822
v 2.313977 1.283793 -2.413822
v 1.754821 1.417831 -2.413822
v 1.859448 1.423220 -2.413822
v 1.654846 1.397404 -2.413822
v 1.836954 0.393587 -2.413823
v 2.152884 1.367854 -2.413822
v 2.237283 1.330117 -2.413822
v 1.963368 1.415038 -2.413822
v 2.061380 1.396372 -2.413822
v 1.100616 0.384980 -2.413822
v 1.560361 1.363733 -2.413822
v 1.472202 1.318611 -2.413822
v 1.391207 1.263834 -2.413822
v 1.318212 1.201196 -2.413822
v 1.254056 1.132490 -2.413822
v 1.199574 1.059511 -2.413822
v 1.155605 0.984053 -2.413822
v 1.122984 0.907911 -2.413822
v 1.110041 0.832880 -2.413822
v 1.102630 0.760752 -2.413822
v 1.102069 0.694474 -2.413822
v 0.618949 0.751739 -2.413822
v 0.615567 0.818156 -2.413822
v 0.617521 0.382681 -2.413822
v 0.526168 1.101993 -2.413822
v 0.573318 1.011321 -2.413822
v 0.605770 0.893256 -2.413822
v 0.087778 0.378345 -2.413822
v 0.468067 1.190119 -2.413822
v 0.427083 1.236859 -2.413822
v 0.402765 1.264593 -2.413822
v 0.334008 1.326290 -2.413822
v 0.265546 1.376089 -2.413822
v 0.201127 1.414865 -2.413822
v 0.144498 1.443499 -2.413822
v 0.099408 1.462864 -2.413822
v 0.069606 1.473840 -2.413822
v 0.058839 1.477304 -2.413822
v -0.497364 0.378345 -2.413822
v -0.068278 1.420226 -2.413822
v -0.174245 1.353281 -2.413822
v -0.473662 0.902726 -2.413822
v -0.454183 0.969507 -2.413822
v -0.485463 0.845866 -2.413822
v -0.491510 0.801752 -2.413822
v -0.489654 0.815294 -2.413822
v -0.493726 0.773211 -2.413822
v -0.494038 0.763069 -2.413822
v -0.260986 1.279298 -2.413822
v -0.330426 1.201102 -2.413822
v -0.384489 1.121521 -2.413822
v -0.425100 1.043381 -2.413822
v -0.946656 0.843580 -2.413822
v -0.953336 0.383578 -2.413822
v -0.950142 0.603536 -2.413822
v -0.952858 0.891603 -2.413822
v -0.966237 0.946739 -2.413822
v -0.976238 0.976846 -2.413822
v -1.056955 1.132281 -2.413822
v -1.044087 1.112997 -2.413822
v -1.022452 1.076703 -2.413822
v -1.004098 1.041880 -2.413822
v -0.988775 1.008576 -2.413822
v -1.184642 1.283652 -2.413822
v -1.124569 1.221942 -2.413822
v -1.153367 1.253360 -2.413822
v -1.098187 1.189785 -2.413822
v -1.069250 1.150708 -2.413822
v -1.254869 1.339308 -2.413822
v -1.218456 1.312430 -2.413822
v -1.587696 1.441675 -2.413822
v -1.380319 1.404659 -2.413822
v -1.335739 1.385810 -2.413822
v -1.293943 1.363896 -2.413822
v -1.423506 0.385858 -2.413822
v -1.615033 0.386786 -2.413822
v -1.478073 1.431618 -2.413822
v -1.427743 1.420058 -2.413822
v -1.698151 1.435623 -2.413822
v -1.531371 1.438953 -2.413822
v -2.258379 0.397937 -2.413822
v -1.932935 0.392296 -2.413822
v -1.798181 1.417180 -2.413822
v -1.887949 1.387636 -2.413822
v -1.967617 1.348278 -2.413822
v -2.037345 1.300395 -2.413822
v -2.097298 1.245273 -2.413822
v -2.147635 1.184201 -2.413822
v -2.188519 1.118469 -2.413822
v -2.220111 1.049363 -2.413822
v -2.249655 0.978171 -2.413822
v -2.264802 0.906183 -2.413822
vn -1.0000 -0.0000 -0.0000
vn -0.0000 -0.0000 -1.0000
vn 1.0000 -0.0000 -0.0000
vn -0.0000 -0.0000 1.0000
vn -0.0000 -1.0000 -0.0000
vn -0.0000 1.0000 -0.0000
vn -0.8318 -0.5550 -0.0000
vn 1.0000 -0.0085 -0.0000
vn -1.0000 -0.0014 -0.0000
vn 0.5341 -0.8454 -0.0000
vn -0.0115 0.9999 -0.0000
vn 0.9948 -0.1022 -0.0000
vn -0.8036 -0.5951 -0.0000
vn 0.4096 -0.9123 -0.0000
vn -0.0117 0.9999 -0.0000
vn 0.9854 -0.1700 -0.0000
vn -0.7731 -0.6343 -0.0000
vn -0.3063 -0.9519 -0.0000
vn 0.0173 0.9998 -0.0000
vn 0.9192 -0.3938 -0.0000
vn -0.7372 -0.6757 -0.0000
vn -0.3456 -0.9384 -0.0000
vn 0.9999 0.0126 -0.0000
vn 0.8640 -0.5035 -0.0000
vn -0.6957 -0.7183 -0.0000
vn -0.3946 -0.9188 -0.0000
vn 0.8013 -0.5982 -0.0000
vn -0.6481 -0.7615 -0.0000
vn -0.4512 -0.8924 -0.0000
vn 0.7309 -0.6825 -0.0000
vn -0.5939 -0.8046 -0.0000
vn -0.5157 -0.8568 -0.0000
vn 0.6512 -0.7589 -0.0000
vn -0.5326 -0.8464 -0.0000
vn -0.5882 -0.8087 -0.0000
vn 0.5602 -0.8283 -0.0000
vn -0.4643 -0.8857 -0.0000
vn -0.6679 -0.7443 -0.0000
vn 0.4556 -0.8902 -0.0000
vn -0.3894 -0.9211 -0.0000
vn -0.7519 -0.6593 -0.0000
vn 0.3357 -0.9420 -0.0000
vn -0.3088 -0.9511 -0.0000
vn -0.8349 -0.5504 -0.0000
vn 0.2002 -0.9798 -0.0000
vn -0.2239 -0.9746 -0.0000
vn -0.8872 -0.4614 -0.0000
vn 0.0514 -0.9987 -0.0000
vn -0.1363 -0.9907 -0.0000
vn -0.9642 -0.2650 -0.0000
vn -0.0785 -0.9969 -0.0000
vn -0.0483 -0.9988 -0.0000
vn -0.9916 -0.1294 -0.0000
vn -0.1871 -0.9823 -0.0000
vn 0.0547 -0.9985 -0.0000
vn -0.9987 -0.0508 -0.0000
vn -0.2975 -0.9547 -0.0000
vn 0.1813 -0.9834 -0.0000
vn -1.0000 0.0039 -0.0000
vn 1.0000 -0.0086 -0.0000
vn -0.4082 -0.9129 -0.0000
vn 0.3126 -0.9499 -0.0000
vn -0.0082 1.0000 -0.0000
vn 0.9995 -0.0307 -0.0000
vn -0.5170 -0.8560 -0.0000
vn 0.4429 -0.8966 -0.0000
vn 0.0049 1.0000 -0.0000
vn 0.9970 -0.0774 -0.0000
vn -0.6217 -0.7833 -0.0000
vn 0.5661 -0.8243 -0.0000
vn -0.9999 0.0145 -0.0000
vn 0.9907 -0.1358 -0.0000
vn -0.7193 -0.6947 -0.0000
vn 0.6768 -0.7361 -0.0000
vn -0.9918 -0.1281 -0.0000
vn 0.9791 -0.2032 -0.0000
vn -0.8069 -0.5907 -0.0000
vn 0.7717 -0.6360 -0.0000
vn -0.9718 -0.2358 -0.0000
vn 0.9600 -0.2800 -0.0000
vn -0.8812 -0.4728 -0.0000
vn 0.8491 -0.5282 -0.0000
vn -0.9490 -0.3152 -0.0000
vn 0.9305 -0.3663 -0.0000
vn -0.9391 -0.3437 -0.0000
vn 0.9095 -0.4158 -0.0000
vn -0.9300 -0.3675 -0.0000
vn 0.8873 -0.4612 -0.0000
vn -0.9783 -0.2070 -0.0000
vn 0.9236 -0.3833 -0.0000
vn -0.9085 -0.4180 -0.0000
vn 0.8272 -0.5619 -0.0000
vn -0.9977 -0.0675 -0.0000
vn 0.9786 -0.2059 -0.0000
vn -0.8846 -0.4663 -0.0000
vn 0.7477 -0.6640 -0.0000
vn -1.0000 0.0025 -0.0000
vn 1.0000 -0.0047 -0.0000
vn -0.8590 -0.5120 -0.0000
vn 0.6489 -0.7608 -0.0000
vn -0.3894 -0.9210 -0.0000
vn -0.2238 -0.9746 -0.0000
vn 0.0048 1.0000 -0.0000
vn -0.6216 -0.7833 -0.0000
vn 0.8492 -0.5282 -0.0000
vn -0.9977 -0.0674 -0.0000
vn -0.0000 0.0001 1.0000
vn -0.0000 -0.0001 1.0000
vn -0.0000 -0.0001 -1.0000
vn 0.7246 0.6892 -0.0000
vn 0.7855 0.6189 -0.0000
vn -0.7855 0.6189 -0.0000
vn -0.7246 0.6892 -0.0000
vn -0.0000 -0.0434 -0.9991
vn -0.3895 -0.9210 -0.0000
vn -0.0482 -0.9988 -0.0000
vn -0.0000 -0.0312 -0.9995
vn -0.0000 -0.0009 1.0000
vn 0.0001 -0.0000 1.0000
vn -0.0000 0.0003 1.0000
vn -0.0000 -0.0002 1.0000
vn -0.0000 0.0002 1.0000
vn 0.5602 -0.8284 -0.0000
vn 0.8492 -0.5281 -0.0000
vn -0.9391 -0.3436 -0.0000
vn -0.0020 -0.0000 1.0000
vn -0.0000 -0.0018 -1.0000
vn 0.0001 0.0001 -1.0000
vt 0.606463 0.089108
vt 0.611031 0.032130
vt 0.611031 0.089108
vt 0.597328 0.148424
vt 0.601896 0.032130
vt 0.601896 0.148424
vt 0.606463 0.146087
vt 0.611031 0.146087
vt 0.601896 0.148424
vt 0.606463 0.032130
vt 0.606463 0.148424
vt 0.584714 0.032130
vt 0.597328 0.032130
vt 0.584714 0.148424
vt 0.572100 0.032130
vt 0.584714 0.032130
vt 0.124050 0.133893
vt 0.151288 0.167051
vt 0.175039 0.110386
vt 0.035857 0.146637
vt 0.084461 0.147470
vt 0.093581 0.118994
vt 0.224192 0.158836
vt 0.262996 0.150604
vt 0.276931 0.089335
vt 0.640219 0.105875
vt 0.640219 0.113924
vt 0.654150 0.122347
vt 0.654754 0.227397
vt 0.641463 0.203970
vt 0.641463 0.227397
vt 0.646935 0.189987
vt 0.646935 0.212036
vt 0.654789 0.249968
vt 0.000856 0.002164
vt 0.613257 -0.260985
vt 0.646803 0.093444
vt 0.639187 0.111314
vt 0.639187 0.093444
vt 0.642698 0.045638
vt 0.651041 0.214772
vt 0.651041 0.045638
vt 0.654754 0.203970
vt 0.641463 0.177984
vt 0.640219 0.088473
vt 0.654150 0.105875
vt 0.654150 0.088473
vt 0.639187 0.076707
vt 0.646803 0.076707
vt 0.642698 0.214772
vt 0.651041 0.381260
vt 0.654754 0.150572
vt 0.641463 0.150572
vt 0.640219 0.073854
vt 0.654150 0.073854
vt 0.654418 0.077817
vt 0.646803 0.077817
vt 0.651530 0.213312
vt 0.651530 0.036546
vt 0.641392 0.036546
vt 0.641463 0.121344
vt 0.640219 0.059219
vt 0.654150 0.059219
vt 0.654418 0.081171
vt 0.646803 0.081171
vt 0.653753 0.397567
vt 0.639823 0.215903
vt 0.639822 0.397567
vt 0.654754 0.121344
vt 0.641463 0.091536
vt 0.640219 0.044700
vt 0.654150 0.044700
vt 0.646803 0.086805
vt 0.654418 0.086805
vt 0.654754 0.091536
vt 0.641463 0.061842
vt 0.640219 0.030430
vt 0.654150 0.030430
vt 0.646803 0.094756
vt 0.654418 0.094756
vt 0.654754 0.061842
vt 0.641463 0.032954
vt 0.639693 0.295887
vt 0.653624 0.310634
vt 0.653624 0.295886
vt 0.646803 0.105060
vt 0.654418 0.105060
vt 0.646935 0.267561
vt 0.639080 0.251076
vt 0.639080 0.267561
vt 0.639693 0.280231
vt 0.653624 0.280231
vt 0.646803 0.117753
vt 0.654418 0.117753
vt 0.646935 0.251076
vt 0.639080 0.233018
vt 0.653624 0.263661
vt 0.654418 0.132870
vt 0.646803 0.132870
vt 0.646935 0.233018
vt 0.639080 0.213591
vt 0.653624 0.246170
vt 0.639693 0.263661
vt 0.654418 0.139417
vt 0.654418 0.150449
vt 0.646935 0.193002
vt 0.639080 0.193003
vt 0.653624 0.227749
vt 0.639693 0.246170
vt 0.646803 0.150449
vt 0.654418 0.170526
vt 0.646803 0.170526
vt 0.639080 0.171458
vt 0.639693 0.208392
vt 0.653624 0.208391
vt 0.654418 0.190705
vt 0.646803 0.190705
vt 0.646935 0.171458
vt 0.639080 0.149163
vt 0.653624 0.188089
vt 0.654418 0.215885
vt 0.646803 0.215885
vt 0.646935 0.149163
vt 0.639080 0.127234
vt 0.639693 0.166837
vt 0.653624 0.166836
vt 0.646803 0.231492
vt 0.654418 0.231492
vt 0.646935 0.127233
vt 0.639080 0.106724
vt 0.639693 0.125616
vt 0.653624 0.125616
vt 0.654418 0.245094
vt 0.646803 0.245094
vt 0.640966 0.202003
vt 0.652874 0.390813
vt 0.640966 0.390815
vt 0.646935 0.106723
vt 0.639080 0.087751
vt 0.639693 0.088807
vt 0.653624 0.088806
vt 0.646803 0.319913
vt 0.654418 0.319913
vt 0.646803 0.321731
vt 0.639187 0.243768
vt 0.646803 0.243768
vt 0.646935 0.087750
vt 0.639080 0.070432
vt 0.639693 0.056295
vt 0.653624 0.056295
vt 0.640966 0.031062
vt 0.652874 0.202002
vt 0.639187 0.241704
vt 0.646803 0.241704
vt 0.646935 0.054884
vt 0.639080 0.054884
vt 0.639693 0.027969
vt 0.653624 0.027969
vt 0.651530 0.395095
vt 0.651530 0.265929
vt 0.641392 0.213312
vt 0.639187 0.235840
vt 0.646803 0.235840
vt 0.646935 0.054884
vt 0.654789 0.068928
vt 0.654789 0.054884
vt 0.653753 0.047783
vt 0.639823 0.022432
vt 0.639823 0.047783
vt 0.640219 0.230445
vt 0.640219 0.316251
vt 0.654150 0.394876
vt 0.639187 0.233025
vt 0.639187 0.226669
vt 0.646935 0.068928
vt 0.654789 0.084154
vt 0.639823 0.074586
vt 0.640219 0.212476
vt 0.654150 0.230445
vt 0.654150 0.212476
vt 0.646803 0.226669
vt 0.639187 0.214684
vt 0.646803 0.214684
vt 0.646935 0.084154
vt 0.654789 0.100405
vt 0.653753 0.102399
vt 0.639823 0.102399
vt 0.640219 0.191117
vt 0.654150 0.191117
vt 0.639187 0.200380
vt 0.646803 0.200380
vt 0.646935 0.100405
vt 0.646935 0.117527
vt 0.654789 0.117527
vt 0.653753 0.130779
vt 0.639823 0.130779
vt 0.640219 0.179141
vt 0.654150 0.179141
vt 0.639187 0.184248
vt 0.646803 0.184248
vt 0.654789 0.135361
vt 0.653753 0.159281
vt 0.639823 0.159281
vt 0.640219 0.166286
vt 0.654150 0.166286
vt 0.639187 0.166782
vt 0.646803 0.166782
vt 0.646935 0.135361
vt 0.654789 0.153754
vt 0.653753 0.188292
vt 0.639823 0.188292
vt 0.640219 0.152542
vt 0.654150 0.152542
vt 0.646803 0.148476
vt 0.639187 0.148476
vt 0.646935 0.153754
vt 0.654789 0.172549
vt 0.640219 0.137899
vt 0.654150 0.137899
vt 0.646803 0.129822
vt 0.639187 0.129822
vt 0.646935 0.172549
vt 0.654789 0.189987
vt 0.654754 0.336705
vt 0.641463 0.336705
vt 0.640219 0.122347
vt 0.646803 0.111314
vt 0.161046 0.154980
vt 0.134876 0.157760
vt 0.118540 0.100963
vt 0.092146 0.125692
vt 0.062097 0.166863
vt 0.031160 0.133579
vt 0.262996 0.150604
vt 0.224192 0.158836
vt 0.201004 0.104168
vt 0.613256 -0.260985
vt 0.093904 0.906392
vt 0.093904 0.851849
vt 0.191933 0.853103
vt 0.113820 0.906392
vt 0.191933 0.908273
vt 0.172506 0.908273
vt 0.075403 0.851849
vt 0.075403 0.787902
vt 0.211668 0.791664
vt 0.211668 0.853103
vt 0.053818 0.787902
vt 0.053818 0.724583
vt 0.237879 0.724583
vt 0.237879 0.791664
vt 0.093866 0.116335
vt 0.094560 0.110596
vt 0.118785 0.105836
vt 0.284276 0.595659
vt 0.263878 0.151414
vt 0.267422 0.145765
vt 0.036471 0.649351
vt 0.011351 0.595659
vt 0.259156 0.649351
vt 0.036471 0.724583
vt 0.259156 0.724583
vt 0.113820 0.963442
vt 0.149590 0.963442
vt 0.136947 0.963442
vt 0.149590 0.995416
vt 0.136947 0.995416
vt 0.172506 0.963442
vt 0.319890 0.019389
vt 0.547548 0.505762
vt 0.547548 0.019389
vt 0.319890 0.505762
vt 0.284276 0.003649
vt 0.011351 0.003649
vt 0.547548 0.019389
vt 0.116293 0.268235
vt 0.116293 0.234193
vt 0.078791 0.234193
vt 0.078791 0.267543
vt 0.012802 0.267543
vt 0.146204 0.234193
vt 0.146204 0.268235
vt 0.211496 0.237758
vt 0.263609 0.237758
vt 0.211496 0.269323
vt 0.175221 0.096528
vt 0.208138 0.136138
vt 0.205314 0.128546
vt 0.283470 0.595930
vt 0.276798 0.107891
vt 0.275871 0.116687
vt 0.010548 0.004178
vt 0.059436 0.058562
vt 0.069363 0.058466
vt 0.263609 0.269323
vt 0.010548 0.595930
vt 0.012802 0.234193
vt 0.060853 0.168303
vt 0.055128 0.167673
vt 0.013605 0.229252
vt 0.117097 0.229252
vt 0.147008 0.229252
vt 0.079595 0.229252
vt 0.258350 0.648937
vt 0.035668 0.648937
vt 0.258350 0.723210
vt 0.035668 0.723210
vt 0.148786 0.990589
vt 0.148786 0.959024
vt 0.136143 0.959024
vt 0.136143 0.990589
vt 0.191128 0.904558
vt 0.191128 0.850091
vt 0.113016 0.902701
vt 0.171701 0.904558
vt 0.113016 0.959024
vt 0.171701 0.959024
vt 0.210863 0.850091
vt 0.210863 0.789436
vt 0.093101 0.848853
vt 0.093101 0.902701
vt 0.237073 0.789436
vt 0.237073 0.723210
vt 0.053014 0.723210
vt 0.074599 0.785722
vt 0.074599 0.848853
vt 0.147813 0.936659
vt 0.596987 0.553837
vt 0.319098 0.659771
vt 0.319098 0.553837
vt 0.328517 0.659771
vt 0.587568 0.659771
vt 0.596987 0.659771
vt 0.323169 0.556265
vt 0.596054 0.958722
vt 0.323169 0.958722
vt 0.596054 0.556265
vt 0.595737 0.958018
vt 0.322853 0.555561
vt 0.595737 0.555561
vt 0.322853 0.958018
vt 0.587596 0.657952
vt 0.597015 0.552019
vt 0.597015 0.657952
vt 0.319126 0.552019
vt 0.328545 0.657952
vt 0.319126 0.657952
vt 0.200990 0.057869
vt 0.201065 0.090080
vt 0.175951 0.057630
vt 0.118168 0.057178
vt 0.094535 0.057723
vt 0.148294 0.170507
vt 0.146749 0.171649
vt 0.606463 0.032130
vt 0.601896 0.032130
vt 0.584714 0.148424
vt 0.572100 0.148424
vt 0.175644 0.057807
vt 0.148368 0.057360
vt 0.118238 0.057360
vt 0.118410 0.096979
vt 0.118426 0.098024
vt 0.118540 0.100963
vt 0.118851 0.105506
vt 0.119459 0.111361
vt 0.120462 0.118238
vt 0.121959 0.125846
vt 0.126834 0.142088
vt 0.130410 0.150141
vt 0.134876 0.157760
vt 0.140332 0.164654
vt 0.146878 0.170532
vt 0.147432 0.170175
vt 0.148967 0.169045
vt 0.154204 0.164102
vt 0.157521 0.160109
vt 0.161046 0.154980
vt 0.164586 0.148627
vt 0.167949 0.140957
vt 0.170941 0.131882
vt 0.173368 0.122544
vt 0.175544 0.102652
vt 0.175718 0.095812
vt 0.094760 0.057899
vt 0.060689 0.058229
vt 0.027563 0.059378
vt 0.027232 0.111717
vt 0.028012 0.119131
vt 0.029533 0.126462
vt 0.031160 0.133579
vt 0.033265 0.140348
vt 0.038944 0.152314
vt 0.042534 0.157245
vt 0.046636 0.161298
vt 0.051259 0.164340
vt 0.056409 0.166240
vt 0.062097 0.166863
vt 0.064997 0.166583
vt 0.067741 0.165827
vt 0.070333 0.164637
vt 0.072775 0.163051
vt 0.075070 0.161110
vt 0.077222 0.158853
vt 0.079234 0.156321
vt 0.081109 0.153553
vt 0.082850 0.150589
vt 0.085943 0.144234
vt 0.087302 0.140923
vt 0.088792 0.136899
vt 0.090087 0.133015
vt 0.091201 0.129278
vt 0.092146 0.125691
vt 0.092935 0.122262
vt 0.094096 0.115894
vt 0.094785 0.110216
vt 0.095104 0.105270
vt 0.238434 0.058930
vt 0.200519 0.058043
vt 0.200594 0.089915
vt 0.200623 0.096741
vt 0.201004 0.104168
vt 0.201671 0.111895
vt 0.203351 0.119736
vt 0.205615 0.127507
vt 0.208420 0.135023
vt 0.211723 0.142098
vt 0.215482 0.148549
vt 0.219652 0.154190
vt 0.229057 0.162304
vt 0.234205 0.164407
vt 0.239592 0.164962
vt 0.244943 0.164120
vt 0.249989 0.162197
vt 0.254701 0.159261
vt 0.259047 0.155374
vt 0.266517 0.145014
vt 0.269580 0.138671
vt 0.272154 0.131639
vt 0.274208 0.123982
vt 0.275711 0.115768
vt 0.276632 0.107060
vt 0.276941 0.097924
vt 0.276951 0.059816
vt 0.646935 0.249968
vt 0.654754 0.177984
vt 0.642698 0.381260
vt 0.654418 0.076707
vt 0.651530 0.125965
vt 0.653754 0.215903
vt 0.654754 0.032954
vt 0.639693 0.310635
vt 0.646935 0.213591
vt 0.639693 0.227749
vt 0.639693 0.188090
vt 0.639187 0.321731
vt 0.646935 0.070432
vt 0.652874 0.031060
vt 0.641392 0.395094
vt 0.653753 0.022432
vt 0.640219 0.394876
vt 0.653753 0.074586
vt 0.646935 0.103433
vt 0.118238 0.057360
vt 0.148368 0.057360
vt 0.175644 0.057807
vt 0.175718 0.095813
vt 0.175544 0.102652
vt 0.175039 0.110386
vt 0.173368 0.122545
vt 0.170941 0.131882
vt 0.167949 0.140957
vt 0.164586 0.148627
vt 0.157521 0.160109
vt 0.154204 0.164102
vt 0.151288 0.167051
vt 0.148966 0.169045
vt 0.147432 0.170175
vt 0.146878 0.170532
vt 0.140332 0.164654
vt 0.130410 0.150141
vt 0.126834 0.142088
vt 0.121959 0.125846
vt 0.120462 0.118238
vt 0.119459 0.111361
vt 0.118851 0.105506
vt 0.118426 0.098024
vt 0.118410 0.096979
vt 0.027563 0.059378
vt 0.060689 0.058229
vt 0.094760 0.057899
vt 0.095104 0.105270
vt 0.094096 0.115894
vt 0.093581 0.118994
vt 0.092935 0.122262
vt 0.091201 0.129278
vt 0.090087 0.133015
vt 0.088792 0.136899
vt 0.087302 0.140923
vt 0.085943 0.144235
vt 0.084461 0.147470
vt 0.082850 0.150589
vt 0.081109 0.153553
vt 0.079234 0.156321
vt 0.077222 0.158853
vt 0.075070 0.161110
vt 0.072775 0.163051
vt 0.070333 0.164637
vt 0.067741 0.165827
vt 0.064997 0.166583
vt 0.056409 0.166240
vt 0.051259 0.164340
vt 0.046636 0.161298
vt 0.042534 0.157245
vt 0.038944 0.152314
vt 0.035857 0.146637
vt 0.033265 0.140348
vt 0.029533 0.126462
vt 0.028012 0.119131
vt 0.027232 0.111717
vt 0.200594 0.089915
vt 0.200519 0.058043
vt 0.238434 0.058930
vt 0.276951 0.059816
vt 0.276931 0.089335
vt 0.276941 0.097924
vt 0.276632 0.107060
vt 0.275711 0.115768
vt 0.274208 0.123983
vt 0.272154 0.131639
vt 0.266517 0.145014
vt 0.259047 0.155375
vt 0.254701 0.159261
vt 0.249989 0.162198
vt 0.244943 0.164120
vt 0.239592 0.164962
vt 0.234205 0.164408
vt 0.229057 0.162304
vt 0.219652 0.154190
vt 0.215482 0.148549
vt 0.211723 0.142098
vt 0.208420 0.135023
vt 0.205615 0.127507
vt 0.203351 0.119737
vt 0.201671 0.111895
vt 0.200623 0.096741
vt 0.026563 0.112114
vt 0.027348 0.119606
vt 0.216051 0.149336
vt 0.216704 0.150223
vt 0.212268 0.142817
vt 0.028879 0.127015
vt 0.030516 0.134207
vt 0.208943 0.135667
vt 0.206119 0.128071
vt 0.032635 0.141049
vt 0.035244 0.147405
vt 0.203840 0.120218
vt 0.202149 0.112293
vt 0.038351 0.153142
vt 0.041965 0.158125
vt 0.201479 0.104484
vt 0.176026 0.096040
vt 0.201087 0.095195
vt 0.201094 0.096978
vt 0.046095 0.162221
vt 0.050747 0.165296
vt 0.175850 0.102952
vt 0.175342 0.110768
vt 0.055932 0.167216
vt 0.061656 0.167845
vt 0.173661 0.123056
vt 0.171217 0.132493
vt 0.064576 0.167562
vt 0.067338 0.166799
vt 0.168205 0.141665
vt 0.164821 0.149415
vt 0.069947 0.165596
vt 0.072405 0.163993
vt 0.161257 0.155837
vt 0.074715 0.162031
vt 0.076882 0.159751
vt 0.157709 0.161020
vt 0.154370 0.165055
vt 0.078907 0.157191
vt 0.080794 0.154394
vt 0.151435 0.168035
vt 0.149098 0.170051
vt 0.082547 0.151399
vt 0.084167 0.148246
vt 0.147553 0.171193
vt 0.146995 0.171554
vt 0.085660 0.144977
vt 0.087027 0.141630
vt 0.140407 0.165613
vt 0.134915 0.158646
vt 0.088527 0.137563
vt 0.089831 0.133638
vt 0.130419 0.150946
vt 0.126820 0.142808
vt 0.090953 0.129861
vt 0.091904 0.126236
vt 0.124018 0.134525
vt 0.121913 0.126393
vt 0.092698 0.122770
vt 0.093348 0.119468
vt 0.120406 0.118704
vt 0.119396 0.111754
vt 0.094881 0.105598
vt 0.118704 0.104649
vt 0.220249 0.155037
vt 0.277925 0.059660
vt 0.258659 0.059215
vt 0.277915 0.098173
vt 0.277904 0.089494
vt 0.224818 0.159734
vt 0.229715 0.163238
vt 0.277604 0.107407
vt 0.234897 0.165364
vt 0.240320 0.165925
vt 0.276677 0.116207
vt 0.275164 0.124509
vt 0.245706 0.165073
vt 0.250786 0.163130
vt 0.273097 0.132247
vt 0.270506 0.139354
vt 0.255528 0.160162
vt 0.259903 0.156235
vt 0.283470 0.004178
vt 0.093731 0.058229
vt 0.093897 0.081111
vt 0.117763 0.103140
vt 0.277119 0.060165
vt 0.277106 0.079024
vt 0.200185 0.058374
vt 0.238349 0.059270
vt 0.117667 0.101731
vt 0.117552 0.098762
vt 0.272657 0.131352
vt 0.272291 0.132720
vt 0.167401 0.142133
vt 0.165277 0.146996
vt 0.170412 0.132966
vt 0.269700 0.139824
vt 0.266617 0.146232
vt 0.172856 0.123533
vt 0.174538 0.111251
vt 0.263072 0.151878
vt 0.259097 0.156697
vt 0.175046 0.103438
vt 0.254723 0.160623
vt 0.249980 0.163590
vt 0.117536 0.097707
vt 0.244901 0.165532
vt 0.117364 0.057684
vt 0.239515 0.166383
vt 0.147691 0.057684
vt 0.175147 0.058135
vt 0.234092 0.165822
vt 0.228910 0.163697
vt 0.200260 0.090571
vt 0.224013 0.160195
vt 0.219444 0.155501
vt 0.200290 0.097466
vt 0.200674 0.104970
vt 0.215246 0.149802
vt 0.201344 0.112775
vt 0.203035 0.120696
vt 0.211463 0.143286
vt 0.277099 0.089985
vt 0.277109 0.098661
vt 0.274358 0.124986
vt 0.042960 0.059136
vt 0.088361 0.136116
vt 0.087724 0.138033
vt 0.086224 0.142099
vt 0.026092 0.059722
vt 0.025760 0.112595
vt 0.084856 0.145444
vt 0.083364 0.148712
vt 0.026545 0.120084
vt 0.081743 0.151864
vt 0.079990 0.154857
vt 0.028076 0.127490
vt 0.029713 0.134680
vt 0.078103 0.157654
vt 0.076078 0.160212
vt 0.031832 0.141518
vt 0.034441 0.147871
vt 0.073912 0.162491
vt 0.037548 0.153605
vt 0.041162 0.158587
vt 0.071601 0.164452
vt 0.069143 0.166054
vt 0.045291 0.162681
vt 0.049944 0.165755
vt 0.066535 0.167257
vt 0.063772 0.168020
vt 0.239154 0.058765
vt 0.148495 0.057178
vt 0.118471 0.101245
vt 0.118356 0.098274
vt 0.118340 0.097219
vt 0.026895 0.059217
vt 0.060240 0.058057
vt 0.094077 0.106083
vt 0.093756 0.111079
vt 0.117981 0.106321
vt 0.093063 0.116814
vt 0.118592 0.112236
vt 0.092544 0.119946
vt 0.119602 0.119183
vt 0.091894 0.123247
vt 0.121109 0.126868
vt 0.091100 0.126712
vt 0.123214 0.134997
vt 0.090149 0.130335
vt 0.126016 0.143276
vt 0.089028 0.134110
vt 0.129615 0.151411
vt 0.164016 0.149881
vt 0.134111 0.159107
vt 0.160453 0.156299
vt 0.156904 0.161480
vt 0.139603 0.166071
vt 0.146191 0.172009
vt 0.153566 0.165514
vt 0.150631 0.168493
s 0
usemtl mat_giebelhaus
f 2/1/1 3/2/1 1/3/1
f 4/4/2 7/5/2 3/6/2
f 8/7/3 5/3/3 7/8/3
f 6/9/4 1/10/4 5/11/4
f 7/4/5 1/12/5 3/13/5
f 4/14/6 6/15/6 8/16/6
f 10/1/1 11/2/1 9/3/1
f 12/4/2 15/5/2 11/6/2
f 16/7/3 13/3/3 15/8/3
f 14/9/4 9/10/4 13/11/4
f 15/4/5 9/12/5 11/13/5
f 12/14/6 14/15/6 16/16/6
f 18/1/1 19/2/1 17/3/1
f 20/4/2 23/5/2 19/6/2
f 24/7/3 21/3/3 23/8/3
f 22/9/4 17/10/4 21/11/4
f 23/4/5 17/12/5 19/13/5
f 20/14/6 22/15/6 24/16/6
f 26/1/1 27/2/1 25/3/1
f 28/4/2 31/5/2 27/6/2
f 32/7/3 29/3/3 31/8/3
f 30/9/4 25/10/4 29/11/4
f 31/4/5 25/12/5 27/13/5
f 28/14/6 30/15/6 32/16/6
f 34/1/1 35/2/1 33/3/1
f 36/4/2 39/5/2 35/6/2
f 40/7/3 37/3/3 39/8/3
f 38/9/4 33/10/4 37/11/4
f 39/4/5 33/12/5 35/13/5
f 36/14/6 38/15/6 40/16/6
f 42/1/1 43/2/1 41/3/1
f 44/4/2 47/5/2 43/6/2
f 48/7/3 45/3/3 47/8/3
f 46/9/4 41/10/4 45/11/4
f 47/4/5 41/12/5 43/13/5
f 44/14/6 46/15/6 48/16/6
f 51/2/3 50/1/3 49/3/3
f 55/5/2 52/4/2 51/6/2
f 53/3/1 56/7/1 55/8/1
f 49/10/4 54/9/4 53/11/4
f 49/12/5 55/4/5 51/13/5
f 54/15/6 52/14/6 56/16/6
f 59/2/3 58/1/3 57/3/3
f 63/5/2 60/4/2 59/6/2
f 61/3/1 64/7/1 63/8/1
f 57/10/4 62/9/4 61/11/4
f 57/12/5 63/4/5 59/13/5
f 62/15/6 60/14/6 64/16/6
f 67/2/3 66/1/3 65/3/3
f 71/5/2 68/4/2 67/6/2
f 69/3/1 72/7/1 71/8/1
f 65/10/4 70/9/4 69/11/4
f 65/12/5 71/4/5 67/13/5
f 70/15/6 68/14/6 72/16/6
f 75/2/3 74/1/3 73/3/3
f 79/5/2 76/4/2 75/6/2
f 77/3/1 80/7/1 79/8/1
f 73/10/4 78/9/4 77/11/4
f 73/12/5 79/4/5 75/13/5
f 78/15/6 76/14/6 80/16/6
f 82/1/1 83/2/1 81/3/1
f 84/4/2 87/5/2 83/6/2
f 88/7/3 85/3/3 87/8/3
f 86/9/4 81/10/4 85/11/4
f 87/4/5 81/12/5 83/13/5
f 84/14/6 86/15/6 88/16/6
f 91/2/1 90/1/1 89/3/1
f 95/5/4 92/4/4 91/6/4
f 93/3/3 96/7/3 95/8/3
f 89/10/2 94/9/2 93/11/2
f 89/12/5 95/4/5 91/13/5
f 94/15/6 92/14/6 96/16/6
f 99/2/1 98/1/1 97/3/1
f 103/5/4 100/4/4 99/6/4
f 101/3/3 104/7/3 103/8/3
f 97/10/2 102/9/2 101/11/2
f 97/12/5 103/4/5 99/13/5
f 102/15/6 100/14/6 104/16/6
f 107/2/1 106/1/1 105/3/1
f 111/5/4 108/4/4 107/6/4
f 109/3/3 112/7/3 111/8/3
f 105/10/2 110/9/2 109/11/2
f 105/12/5 111/4/5 107/13/5
f 110/15/6 108/14/6 112/16/6
f 115/2/1 114/1/1 113/3/1
f 119/5/4 116/4/4 115/6/4
f 117/3/3 120/7/3 119/8/3
f 113/10/2 118/9/2 117/11/2
f 113/12/5 119/4/5 115/13/5
f 118/15/6 116/14/6 120/16/6
f 123/2/1 122/1/1 121/3/1
f 127/5/4 124/4/4 123/6/4
f 125/3/3 128/7/3 127/8/3
f 121/10/2 126/9/2 125/11/2
f 121/12/5 127/4/5 123/13/5
f 126/15/6 124/14/6 128/16/6
f 131/2/1 130/1/1 129/3/1
f 135/5/4 132/4/4 131/6/4
f 133/3/3 136/7/3 135/8/3
f 129/10/2 134/9/2 133/11/2
f 129/12/5 135/4/5 131/13/5
f 134/15/6 132/14/6 136/16/6
f 138/1/3 139/2/3 137/3/3
f 140/4/4 143/5/4 139/6/4
f 144/7/1 141/3/1 143/8/1
f 142/9/2 137/10/2 141/11/2
f 143/4/5 137/12/5 139/13/5
f 140/14/6 142/15/6 144/16/6
f 146/1/3 147/2/3 145/3/3
f 148/4/4 151/5/4 147/6/4
f 152/7/1 149/3/1 151/8/1
f 150/9/2 145/10/2 149/11/2
f 151/4/5 145/12/5 147/13/5
f 148/14/6 150/15/6 152/16/6
f 154/1/3 155/2/3 153/3/3
f 156/4/4 159/5/4 155/6/4
f 160/7/1 157/3/1 159/8/1
f 158/9/2 153/10/2 157/11/2
f 159/4/5 153/12/5 155/13/5
f 156/14/6 158/15/6 160/16/6
f 162/1/3 163/2/3 161/3/3
f 164/4/4 167/5/4 163/6/4
f 168/7/1 165/3/1 167/8/1
f 166/9/2 161/10/2 165/11/2
f 167/4/5 161/12/5 163/13/5
f 164/14/6 166/15/6 168/16/6
f 171/2/1 170/1/1 169/3/1
f 175/5/4 172/4/4 171/6/4
f 173/3/3 176/7/3 175/8/3
f 169/10/2 174/9/2 173/11/2
f 169/12/5 175/4/5 171/13/5
f 174/15/6 172/14/6 176/16/6
f 186/17/2 194/18/2 202/19/2
f 235/20/2 219/21/2 211/22/2
f 253/23/2 261/24/2 269/25/2
f 852/26/7 843/27/7 310/28/7
f 805/29/8 339/30/8 338/31/8
f 776/32/9 775/33/9 365/34/9
f 178/35/6 272/36/6 273/36/6
f 258/35/6 354/36/6 259/35/6
f 231/35/6 325/36/6 230/35/6
f 205/35/6 299/36/6 300/36/6
f 179/35/6 273/36/6 274/36/6
f 259/35/6 355/36/6 260/35/6
f 232/35/6 326/36/6 231/35/6
f 177/35/6 300/36/6 272/36/6
f 180/35/6 274/36/6 275/36/6
f 260/35/6 356/36/6 261/35/6
f 233/35/6 327/36/6 232/35/6
f 207/35/6 301/36/6 206/35/6
f 181/35/6 275/36/6 276/36/6
f 261/35/6 357/36/6 262/35/6
f 234/35/6 328/36/6 233/35/6
f 208/35/6 302/36/6 207/35/6
f 182/35/6 276/36/6 277/36/6
f 262/35/6 358/36/6 263/35/6
f 235/35/6 329/36/6 234/35/6
f 209/35/6 303/36/6 208/35/6
f 183/35/6 277/36/6 278/36/6
f 263/35/6 359/36/6 264/35/6
f 236/35/6 330/36/6 235/35/6
f 210/35/6 304/36/6 209/35/6
f 184/35/6 278/36/6 279/36/6
f 264/35/6 360/36/6 265/35/6
f 237/35/6 331/36/6 236/35/6
f 211/35/6 305/36/6 210/35/6
f 185/35/6 279/36/6 280/36/6
f 265/35/6 361/36/6 266/35/6
f 238/35/6 332/36/6 237/35/6
f 212/35/6 306/36/6 211/35/6
f 186/35/6 280/36/6 281/36/6
f 266/35/6 362/36/6 267/35/6
f 239/35/6 333/36/6 238/35/6
f 213/35/6 307/36/6 212/35/6
f 187/35/6 281/36/6 282/36/6
f 267/35/6 363/36/6 268/35/6
f 240/35/6 334/36/6 239/35/6
f 214/35/6 308/36/6 213/35/6
f 188/35/6 282/36/6 283/36/6
f 268/35/6 364/36/6 269/35/6
f 242/35/6 338/36/6 243/35/6
f 215/35/6 309/36/6 214/35/6
f 189/35/6 283/36/6 284/36/6
f 269/35/6 365/36/6 270/35/6
f 243/35/6 339/36/6 244/35/6
f 216/35/6 310/36/6 215/35/6
f 190/35/6 284/36/6 285/36/6
f 270/35/6 366/36/6 271/35/6
f 244/35/6 340/36/6 245/35/6
f 217/35/6 311/36/6 216/35/6
f 191/35/6 285/36/6 286/36/6
f 271/35/6 337/36/6 242/35/6
f 245/35/6 341/36/6 246/35/6
f 218/35/6 312/36/6 217/35/6
f 192/35/6 286/36/6 287/36/6
f 206/35/6 336/36/6 241/35/6
f 246/35/6 342/36/6 247/35/6
f 219/35/6 313/36/6 218/35/6
f 193/35/6 287/36/6 288/36/6
f 241/35/6 335/36/6 240/35/6
f 247/35/6 343/36/6 248/35/6
f 220/35/6 314/36/6 219/35/6
f 194/35/6 288/36/6 289/36/6
f 248/35/6 344/36/6 249/35/6
f 221/35/6 315/36/6 220/35/6
f 195/35/6 289/36/6 290/36/6
f 249/35/6 345/36/6 250/35/6
f 222/35/6 316/36/6 221/35/6
f 196/35/6 290/36/6 291/36/6
f 250/35/6 346/36/6 251/35/6
f 223/35/6 317/36/6 222/35/6
f 197/35/6 291/36/6 292/36/6
f 251/35/6 347/36/6 252/35/6
f 224/35/6 318/36/6 223/35/6
f 198/35/6 292/36/6 293/36/6
f 252/35/6 348/36/6 253/35/6
f 225/35/6 319/36/6 224/35/6
f 199/35/6 293/36/6 294/36/6
f 253/35/6 349/36/6 254/35/6
f 226/35/6 320/36/6 225/35/6
f 200/35/6 294/36/6 295/36/6
f 254/35/6 350/36/6 255/35/6
f 227/35/6 321/36/6 226/35/6
f 201/35/6 295/36/6 296/36/6
f 255/35/6 351/36/6 256/35/6
f 228/35/6 322/36/6 227/35/6
f 202/35/6 296/36/6 297/36/6
f 256/35/6 352/36/6 257/35/6
f 229/35/6 323/36/6 228/35/6
f 203/35/6 297/36/6 298/36/6
f 257/35/6 353/36/6 258/35/6
f 230/35/6 324/36/6 229/35/6
f 204/35/6 298/36/6 299/36/6
f 285/37/10 825/38/10 824/39/10
f 774/40/11 366/41/11 365/42/11
f 804/43/12 340/44/12 339/30/12
f 851/45/13 311/46/13 312/47/13
f 285/37/14 822/48/14 286/49/14
f 789/50/15 337/51/15 366/41/15
f 340/44/16 802/52/16 341/53/16
f 849/54/17 312/47/17 313/55/17
f 286/49/18 821/56/18 287/57/18
f 860/58/19 865/59/19 336/60/19
f 802/52/20 342/61/20 341/53/20
f 850/62/21 313/55/21 314/63/21
f 287/57/22 820/64/22 288/65/22
f 865/66/23 335/67/23 336/68/23
f 801/69/24 343/70/24 342/61/24
f 848/71/25 314/63/25 315/72/25
f 289/73/26 820/64/26 819/74/26
f 800/75/27 344/76/27 343/70/27
f 854/77/28 315/72/28 316/78/28
f 290/79/29 819/74/29 818/80/29
f 799/81/30 345/82/30 344/76/30
f 853/83/31 316/84/31 317/85/31
f 291/86/32 818/80/32 817/87/32
f 798/88/33 346/89/33 345/90/33
f 858/91/34 317/85/34 318/92/34
f 292/93/35 817/87/35 816/94/35
f 797/95/36 347/96/36 346/89/36
f 319/97/37 858/91/37 318/92/37
f 292/93/38 815/98/38 293/99/38
f 796/100/39 348/101/39 347/96/39
f 320/102/40 857/103/40 319/97/40
f 293/99/41 814/104/41 813/105/41
f 348/101/42 788/106/42 349/107/42
f 321/108/43 856/109/43 320/102/43
f 294/110/44 809/111/44 295/112/44
f 788/106/45 350/113/45 349/107/45
f 861/114/46 321/108/46 322/115/46
f 295/112/47 810/116/47 296/117/47
f 786/118/48 351/119/48 350/113/48
f 323/120/49 861/114/49 322/115/49
f 296/117/50 811/121/50 297/122/50
f 787/123/51 352/124/51 351/119/51
f 855/125/52 323/120/52 324/126/52
f 298/127/53 811/121/53 807/128/53
f 792/129/54 353/130/54 352/124/54
f 863/131/55 324/126/55 325/132/55
f 298/127/56 806/133/56 299/134/56
f 272/135/6 823/136/6 273/137/6
f 793/138/57 354/139/57 353/130/57
f 867/140/58 325/132/58 326/141/58
f 300/142/59 806/133/59 808/143/59
f 273/144/60 832/145/60 274/146/60
f 790/147/61 355/148/61 354/139/61
f 868/149/62 326/141/62 327/150/62
f 300/151/63 812/152/63 272/135/63
f 274/146/64 831/153/64 275/154/64
f 355/148/65 785/155/65 356/156/65
f 869/157/66 327/150/66 328/158/66
f 838/159/67 859/160/67 301/161/67
f 275/154/68 829/162/68 276/163/68
f 785/164/69 357/165/69 356/166/69
f 870/167/70 328/168/70 329/169/70
f 837/170/71 839/171/71 302/172/71
f 276/163/72 830/173/72 828/174/72
f 780/175/73 358/176/73 357/165/73
f 330/177/74 870/167/74 329/169/74
f 840/178/75 303/179/75 304/180/75
f 277/181/76 826/182/76 278/183/76
f 781/184/77 359/185/77 358/176/77
f 872/186/78 330/177/78 331/187/78
f 841/188/79 304/180/79 305/189/79
f 278/183/80 827/190/80 279/191/80
f 782/192/81 783/193/81 360/194/81
f 873/195/82 331/187/82 332/196/82
f 842/197/83 305/189/83 306/198/83
f 279/191/84 836/199/84 280/200/84
f 783/193/85 361/201/85 360/194/85
f 874/202/86 332/196/86 333/203/86
f 847/204/87 306/198/87 307/205/87
f 280/200/88 835/206/88 281/207/88
f 779/208/89 362/209/89 361/201/89
f 875/210/90 333/203/90 334/211/90
f 846/212/91 307/205/91 308/213/91
f 282/214/92 835/206/92 834/215/92
f 777/216/93 363/217/93 362/209/93
f 335/67/94 875/210/94 334/211/94
f 845/218/95 308/213/95 309/219/95
f 283/220/96 834/215/96 833/221/96
f 778/222/97 364/223/97 363/217/97
f 794/224/98 338/31/98 337/225/98
f 844/226/99 309/219/99 310/28/99
f 283/220/100 825/38/100 284/227/100
f 387/228/4 379/229/4 371/230/4
f 403/231/4 419/232/4 427/233/4
f 451/234/4 443/235/4 435/236/4
f 500/36/7 741/36/7 501/36/7
f 529/36/8 700/36/8 701/237/8
f 555/36/9 768/36/9 554/36/9
f 368/35/6 462/36/6 367/35/6
f 448/35/6 544/36/6 543/36/6
f 421/35/6 515/36/6 516/36/6
f 395/35/6 489/36/6 394/35/6
f 369/35/6 463/36/6 368/35/6
f 449/35/6 545/36/6 544/36/6
f 422/35/6 516/36/6 517/36/6
f 367/35/6 490/36/6 395/35/6
f 370/35/6 464/36/6 369/35/6
f 450/35/6 546/36/6 545/36/6
f 423/35/6 517/36/6 518/36/6
f 397/35/6 491/36/6 492/36/6
f 371/35/6 465/36/6 370/35/6
f 451/35/6 547/36/6 546/36/6
f 424/35/6 518/36/6 519/36/6
f 398/35/6 492/36/6 493/36/6
f 372/35/6 466/36/6 371/35/6
f 452/35/6 548/36/6 547/36/6
f 425/35/6 519/36/6 520/36/6
f 399/35/6 493/36/6 494/36/6
f 373/35/6 467/36/6 372/35/6
f 453/35/6 549/36/6 548/36/6
f 426/35/6 520/36/6 521/36/6
f 400/35/6 494/36/6 495/36/6
f 374/35/6 468/36/6 373/35/6
f 454/35/6 550/36/6 549/36/6
f 427/35/6 521/36/6 522/36/6
f 401/35/6 495/36/6 496/36/6
f 375/35/6 469/36/6 374/35/6
f 455/35/6 551/36/6 550/36/6
f 428/35/6 522/36/6 523/36/6
f 402/35/6 496/36/6 497/36/6
f 376/35/6 470/36/6 375/35/6
f 456/35/6 552/36/6 551/36/6
f 429/35/6 523/36/6 524/36/6
f 403/35/6 497/36/6 498/36/6
f 377/35/6 471/36/6 376/35/6
f 457/35/6 553/36/6 552/36/6
f 430/35/6 524/36/6 525/36/6
f 404/35/6 498/36/6 499/36/6
f 378/35/6 472/36/6 377/35/6
f 458/35/6 554/36/6 553/36/6
f 432/35/6 528/36/6 527/36/6
f 405/35/6 499/36/6 500/36/6
f 379/35/6 473/36/6 378/35/6
f 459/35/6 555/36/6 554/36/6
f 433/35/6 529/36/6 528/36/6
f 406/35/6 500/36/6 501/36/6
f 380/35/6 474/36/6 379/35/6
f 460/35/6 556/36/6 555/36/6
f 434/35/6 530/36/6 529/36/6
f 407/35/6 501/36/6 502/36/6
f 381/35/6 475/36/6 380/35/6
f 461/35/6 527/36/6 556/36/6
f 435/35/6 531/36/6 530/36/6
f 408/35/6 502/36/6 503/36/6
f 382/35/6 476/36/6 381/35/6
f 396/35/6 526/36/6 491/36/6
f 436/35/6 532/36/6 531/36/6
f 409/35/6 503/36/6 504/36/6
f 383/35/6 477/36/6 382/35/6
f 431/35/6 525/36/6 526/36/6
f 437/35/6 533/36/6 532/36/6
f 410/35/6 504/36/6 505/36/6
f 384/35/6 478/36/6 383/35/6
f 438/35/6 534/36/6 533/36/6
f 411/35/6 505/36/6 506/36/6
f 385/35/6 479/36/6 384/35/6
f 439/35/6 535/36/6 534/36/6
f 412/35/6 506/36/6 507/36/6
f 386/35/6 480/36/6 385/35/6
f 440/35/6 536/36/6 535/36/6
f 413/35/6 507/36/6 508/36/6
f 387/35/6 481/36/6 386/35/6
f 441/35/6 537/36/6 536/36/6
f 414/35/6 508/36/6 509/36/6
f 388/35/6 482/36/6 387/35/6
f 442/35/6 538/36/6 537/36/6
f 415/35/6 509/36/6 510/36/6
f 389/35/6 483/36/6 388/35/6
f 443/35/6 539/36/6 538/36/6
f 416/35/6 510/36/6 511/36/6
f 390/35/6 484/36/6 389/35/6
f 444/35/6 540/36/6 539/36/6
f 417/35/6 511/36/6 512/36/6
f 391/35/6 485/36/6 390/35/6
f 445/35/6 541/36/6 540/36/6
f 418/35/6 512/36/6 513/36/6
f 392/35/6 486/36/6 391/35/6
f 446/35/6 542/36/6 541/36/6
f 419/35/6 513/36/6 514/36/6
f 393/35/6 487/36/6 392/35/6
f 447/35/6 543/36/6 542/36/6
f 420/35/6 514/36/6 515/36/6
f 394/35/6 488/36/6 393/35/6
f 475/36/10 719/36/10 474/36/10
f 556/36/11 675/36/11 771/36/11
f 530/36/12 698/36/12 529/36/12
f 501/36/13 740/36/13 502/36/13
f 714/237/14 475/36/14 476/36/14
f 527/36/15 676/36/15 556/36/15
f 531/36/16 697/36/16 530/36/16
f 502/36/17 739/36/17 503/36/17
f 713/237/18 476/36/18 477/36/18
f 491/36/19 767/36/19 736/36/19
f 532/36/20 696/36/20 531/36/20
f 503/36/21 738/36/21 504/36/21
f 478/36/22 713/237/22 477/36/22
f 525/36/23 767/36/23 526/36/23
f 533/36/24 695/36/24 532/36/24
f 504/36/25 737/36/25 505/36/25
f 717/237/26 478/36/26 479/36/26
f 534/36/27 694/36/27 533/36/27
f 505/36/28 748/36/28 506/36/28
f 718/237/29 479/36/29 480/36/29
f 535/36/30 693/36/30 534/36/30
f 506/36/31 747/36/31 507/36/31
f 712/36/32 480/36/32 481/36/32
f 536/36/33 692/36/33 535/36/33
f 507/36/34 749/36/34 508/36/34
f 711/237/35 481/36/35 482/36/35
f 537/36/36 690/36/36 691/36/36
f 509/36/37 749/36/37 750/36/37
f 483/36/38 711/237/38 482/36/38
f 538/36/39 689/36/39 537/36/39
f 509/36/101 751/36/101 510/36/101
f 709/237/41 483/36/41 484/36/41
f 539/36/42 688/36/42 538/36/42
f 510/36/43 753/36/43 511/36/43
f 707/36/44 484/36/44 485/36/44
f 540/36/45 687/36/45 539/36/45
f 511/36/102 752/36/102 512/36/102
f 708/237/47 485/36/47 486/36/47
f 540/36/48 770/36/48 685/36/48
f 512/36/49 754/36/49 513/36/49
f 706/237/50 486/36/50 487/36/50
f 542/36/51 770/36/51 541/36/51
f 514/36/52 754/36/52 755/36/52
f 703/237/53 487/36/53 488/36/53
f 543/36/54 686/36/54 542/36/54
f 514/36/55 756/36/55 515/36/55
f 702/237/56 488/36/56 489/36/56
f 720/36/6 462/36/6 463/36/6
f 544/36/57 684/36/57 543/36/57
f 516/36/58 756/36/58 757/36/58
f 490/36/59 702/237/59 489/36/59
f 731/36/60 463/36/60 464/36/60
f 545/36/61 682/36/61 544/36/61
f 516/36/62 758/36/62 517/36/62
f 705/36/63 490/36/63 462/36/63
f 730/36/64 464/36/64 465/36/64
f 545/36/65 678/36/65 683/36/65
f 518/36/66 758/36/66 759/36/66
f 491/36/103 734/36/103 492/36/103
f 728/36/68 465/36/68 466/36/68
f 547/36/104 678/36/104 546/36/104
f 519/36/70 759/36/70 760/36/70
f 492/36/71 733/36/71 493/36/71
f 727/36/72 729/36/72 466/36/72
f 547/36/73 680/36/73 679/36/73
f 519/36/74 761/36/74 520/36/74
f 494/36/75 733/36/75 732/36/75
f 726/36/76 467/36/76 468/36/76
f 549/36/77 680/36/77 548/36/77
f 520/36/78 762/36/78 521/36/78
f 494/36/79 735/36/79 495/36/79
f 725/36/80 468/36/80 469/36/80
f 550/36/81 681/36/81 549/36/81
f 522/36/105 762/36/105 763/36/105
f 495/36/83 746/36/83 496/36/83
f 724/36/84 469/36/84 470/36/84
f 550/36/85 772/36/85 677/36/85
f 522/36/86 764/36/86 523/36/86
f 496/36/87 745/36/87 497/36/87
f 723/36/88 470/36/88 471/36/88
f 552/36/89 772/36/89 551/36/89
f 523/36/90 765/36/90 524/36/90
f 497/36/91 744/36/91 498/36/91
f 722/36/92 471/36/92 472/36/92
f 553/36/106 773/36/106 552/36/106
f 524/36/94 766/36/94 525/36/94
f 498/36/95 743/36/95 499/36/95
f 721/36/96 472/36/96 473/36/96
f 553/36/97 768/36/97 769/36/97
f 528/36/98 699/36/98 527/36/98
f 499/36/99 742/36/99 500/36/99
f 719/36/100 473/36/100 474/36/100
f 557/238/4 559/239/4 558/240/4
f 558/240/4 560/241/4 557/238/4
f 558/240/4 561/242/4 560/241/4
f 561/242/107 562/243/107 560/241/107
f 563/244/4 565/245/4 564/246/4
f 564/246/4 559/239/4 563/244/4
f 564/246/4 566/247/4 559/239/4
f 566/247/4 558/240/4 559/239/4
f 567/248/4 569/249/4 568/250/4
f 568/250/4 565/245/4 567/248/4
f 568/250/4 570/251/4 565/245/4
f 570/251/108 564/246/108 565/245/108
f 735/252/4 732/253/4 727/254/4
f 574/255/4 678/256/4 679/257/4
f 574/255/4 575/258/4 571/259/4
f 574/255/4 576/260/4 575/258/4
f 576/260/4 577/261/4 575/258/4
f 576/260/4 578/262/4 577/261/4
f 578/262/5 569/249/5 577/261/5
f 578/262/5 568/250/5 569/249/5
f 579/263/4 560/241/4 562/243/4
f 562/243/4 580/264/4 579/263/4
f 580/264/6 581/265/6 579/263/6
f 580/264/4 582/266/4 581/265/4
f 582/266/4 583/267/4 581/265/4
f 584/268/4 580/264/4 562/243/4
f 585/269/3 574/270/3 572/271/3
f 574/270/3 585/269/3 586/272/3
f 585/273/5 573/274/5 587/274/5
f 573/274/5 585/273/5 572/273/5
f 588/272/1 573/275/1 571/270/1
f 573/275/1 588/272/1 587/269/1
f 589/261/1 575/258/1 577/261/1
f 575/258/1 589/261/1 590/258/1
f 569/249/6 589/261/6 577/261/6
f 589/261/6 569/249/6 591/249/6
f 592/248/1 569/249/1 567/248/1
f 569/249/1 592/248/1 591/249/1
f 565/245/6 592/248/6 567/248/6
f 592/248/6 565/245/6 593/245/6
f 594/244/1 565/245/1 563/244/1
f 565/245/1 594/244/1 593/245/1
f 559/239/6 594/244/6 563/244/6
f 594/244/6 559/239/6 595/239/6
f 596/238/1 559/239/1 557/238/1
f 559/239/1 596/238/1 595/239/1
f 560/241/6 596/238/6 557/238/6
f 596/238/6 560/241/6 597/241/6
f 598/263/1 560/241/1 579/263/1
f 560/241/1 598/263/1 597/241/1
f 581/265/6 598/263/6 579/263/6
f 598/263/6 581/265/6 599/265/6
f 600/267/1 581/265/1 583/267/1
f 581/265/1 600/267/1 599/265/1
f 582/266/6 600/267/6 583/267/6
f 600/267/6 582/266/6 601/266/6
f 580/264/3 601/266/3 582/266/3
f 601/266/3 580/264/3 602/264/3
f 584/268/6 602/264/6 580/264/6
f 602/264/6 584/268/6 603/268/6
f 604/243/3 584/268/3 562/243/3
f 584/268/3 604/243/3 603/268/3
f 561/242/6 604/243/6 562/243/6
f 604/243/6 561/242/6 605/242/6
f 606/240/3 561/242/3 558/240/3
f 561/242/3 606/240/3 605/242/3
f 566/247/6 606/240/6 558/240/6
f 606/240/6 566/247/6 607/247/6
f 608/246/3 566/247/3 564/246/3
f 566/247/3 608/246/3 607/247/3
f 570/251/6 608/246/6 564/246/6
f 608/246/6 570/251/6 609/251/6
f 610/250/3 570/251/3 568/250/3
f 570/251/3 610/250/3 609/251/3
f 578/262/6 610/250/6 568/250/6
f 610/250/6 578/262/6 611/262/6
f 612/260/3 578/262/3 576/260/3
f 578/262/3 612/260/3 611/262/3
f 613/276/2 615/277/2 614/278/2
f 614/278/2 616/279/2 613/276/2
f 616/279/109 617/280/109 613/276/109
f 618/281/2 620/282/2 619/283/2
f 619/283/2 621/284/2 618/281/2
f 620/282/2 622/285/2 619/283/2
f 620/282/2 613/276/2 622/285/2
f 806/286/2 799/287/2 800/288/2
f 586/289/2 777/290/2 779/291/2
f 587/292/2 860/293/2 859/294/2
f 621/284/2 623/295/2 586/289/2
f 623/295/2 622/285/2 586/289/2
f 587/292/2 588/296/2 624/297/2
f 624/297/2 855/298/2 863/299/2
f 624/300/5 615/301/5 618/302/5
f 624/300/5 614/303/5 615/301/5
f 588/296/2 617/280/2 624/297/2
f 588/296/2 613/276/2 617/280/2
f 588/296/2 622/285/2 613/276/2
f 588/296/2 586/289/2 622/285/2
f 588/296/2 625/304/2 586/289/2
f 588/296/2 626/305/2 625/304/2
f 626/305/2 627/306/2 625/304/2
f 626/305/2 628/307/2 627/306/2
f 628/261/5 629/250/5 627/262/5
f 628/261/5 630/249/5 629/250/5
f 631/308/2 633/309/2 632/310/2
f 632/310/2 634/311/2 631/308/2
f 635/312/2 637/313/2 636/314/2
f 636/314/2 638/315/2 635/312/2
f 636/314/2 639/316/2 638/315/2
f 639/316/2 633/309/2 638/315/2
f 633/309/2 640/317/2 638/315/2
f 641/318/2 643/319/2 642/320/2
f 642/239/2 637/240/2 641/247/2
f 642/320/2 644/321/2 637/313/2
f 644/321/2 636/314/2 637/313/2
s 1
f 645/322/2 629/323/2 630/324/2
f 630/324/2 646/325/2 645/322/2
s 0
f 646/245/2 643/246/2 645/251/2
f 646/325/2 647/326/2 643/319/2
f 647/326/2 642/320/2 643/319/2
s 1
f 648/248/2 646/245/2 630/249/2
s 0
f 632/265/5 633/264/5 639/263/5
f 590/258/2 591/249/2 649/327/2
f 591/249/2 590/258/2 589/261/2
f 649/327/2 591/249/2 593/245/2
f 593/245/2 591/249/2 592/248/2
f 649/327/2 593/245/2 595/239/2
f 595/239/2 593/245/2 594/244/2
f 649/327/2 595/239/2 597/241/2
f 597/241/2 595/239/2 596/238/2
f 649/327/2 597/241/2 598/263/2
f 649/327/2 598/263/2 602/264/2
f 602/264/5 598/263/5 599/265/5
f 602/264/2 599/265/2 601/266/2
f 601/266/2 599/265/2 600/267/2
f 649/327/2 610/250/2 612/260/2
f 610/250/2 649/327/2 608/246/2
f 608/246/2 649/327/2 606/240/2
f 606/240/2 649/327/2 604/243/2
f 604/243/2 649/327/2 603/268/2
f 603/268/2 649/327/2 602/264/2
f 605/242/2 606/240/2 604/243/2
f 607/247/2 608/246/2 606/240/2
f 609/251/2 610/250/2 608/246/2
f 611/262/2 612/260/2 610/250/2
f 625/260/3 650/262/3 651/260/3
f 650/262/3 625/260/3 627/262/3
f 650/262/6 629/250/6 652/250/6
f 629/250/6 650/262/6 627/262/6
f 629/250/3 653/251/3 652/250/3
f 653/251/3 629/250/3 645/251/3
f 653/251/6 643/246/6 654/246/6
f 643/246/6 653/251/6 645/251/6
f 643/246/3 655/247/3 654/246/3
f 655/247/3 643/246/3 641/247/3
f 655/247/6 637/240/6 656/240/6
f 637/240/6 655/247/6 641/247/6
f 637/240/3 657/242/3 656/240/3
f 657/242/3 637/240/3 635/242/3
f 657/242/6 638/243/6 658/243/6
f 638/243/6 657/242/6 635/242/6
f 638/243/3 659/268/3 658/243/3
f 659/268/3 638/243/3 640/268/3
f 659/268/6 633/264/6 660/264/6
f 633/264/6 659/268/6 640/268/6
f 660/264/3 631/266/3 661/266/3
f 631/266/3 660/264/3 633/264/3
f 661/266/6 634/267/6 662/267/6
f 634/267/6 661/266/6 631/266/6
f 634/267/1 663/265/1 662/267/1
f 663/265/1 634/267/1 632/265/1
f 663/265/6 639/263/6 664/263/6
f 639/263/6 663/265/6 632/265/6
f 639/263/1 665/241/1 664/263/1
f 665/241/1 639/263/1 636/241/1
f 665/241/6 644/238/6 666/238/6
f 644/238/6 665/241/6 636/241/6
f 644/238/1 667/239/1 666/238/1
f 667/239/1 644/238/1 642/239/1
f 667/239/6 647/244/6 668/244/6
f 647/244/6 667/239/6 642/239/6
f 647/244/1 669/245/1 668/244/1
f 669/245/1 647/244/1 646/245/1
f 669/245/6 648/248/6 670/248/6
f 648/248/6 669/245/6 646/245/6
f 648/248/1 671/249/1 670/248/1
f 671/249/1 648/248/1 630/249/1
f 671/249/6 628/261/6 672/261/6
f 628/261/6 671/249/6 630/249/6
f 628/261/1 673/258/1 672/261/1
f 673/258/1 628/261/1 626/258/1
f 651/260/4 652/250/4 674/327/4
f 652/250/4 651/260/4 650/262/4
f 674/327/4 652/250/4 654/246/4
f 654/246/4 652/250/4 653/251/4
f 674/327/4 654/246/4 656/240/4
f 656/240/4 654/246/4 655/247/4
f 674/327/4 656/240/4 658/243/4
f 658/243/4 656/240/4 657/242/4
f 674/327/4 658/243/4 659/268/4
f 661/266/4 663/265/4 660/264/4
f 663/265/4 661/266/4 662/267/4
f 674/327/4 671/249/4 673/258/4
f 671/249/4 674/327/4 669/245/4
f 669/245/4 674/327/4 667/239/4
f 667/239/4 674/327/4 665/241/4
f 665/241/4 674/327/4 664/263/4
f 664/263/4 674/327/4 660/264/4
f 660/264/4 674/327/4 659/268/4
f 664/263/6 660/264/6 663/265/6
f 666/238/4 667/239/4 665/241/4
f 668/244/4 669/245/4 667/239/4
f 670/248/4 671/249/4 669/245/4
f 672/261/4 673/258/4 671/249/4
f 586/328/110 576/329/110 574/330/110
f 576/329/110 586/328/110 612/331/110
f 612/331/110 586/328/110 651/332/110
f 651/332/110 586/328/110 625/333/110
f 612/334/111 674/335/111 649/336/111
f 674/335/111 612/334/111 651/337/111
f 649/338/112 673/339/112 590/340/112
f 673/339/112 649/338/112 674/341/112
f 590/342/113 571/343/113 575/344/113
f 571/343/113 590/342/113 588/345/113
f 588/345/113 590/342/113 673/346/113
f 588/345/113 673/346/113 626/347/113
f 623/295/2 621/284/2 619/283/2
f 619/283/2 622/285/2 623/295/2
f 616/279/2 614/278/2 624/297/2
f 624/297/2 617/280/2 616/279/2
f 620/282/2 618/281/2 615/277/2
f 615/277/2 613/276/2 620/282/2
f 699/348/4 701/349/4 704/350/4
f 720/351/4 734/352/4 573/274/4
f 618/281/2 820/353/2 821/354/2
f 2/1/1 4/355/1 3/2/1
f 4/4/2 8/13/2 7/5/2
f 8/7/3 6/1/3 5/3/3
f 6/9/4 2/356/4 1/10/4
f 7/4/5 5/357/5 1/12/5
f 4/14/6 2/358/6 6/15/6
f 10/1/1 12/355/1 11/2/1
f 12/4/2 16/13/2 15/5/2
f 16/7/3 14/1/3 13/3/3
f 14/9/4 10/356/4 9/10/4
f 15/4/5 13/357/5 9/12/5
f 12/14/6 10/358/6 14/15/6
f 18/1/1 20/355/1 19/2/1
f 20/4/2 24/13/2 23/5/2
f 24/7/3 22/1/3 21/3/3
f 22/9/4 18/356/4 17/10/4
f 23/4/5 21/357/5 17/12/5
f 20/14/6 18/358/6 22/15/6
f 26/1/1 28/355/1 27/2/1
f 28/4/2 32/13/2 31/5/2
f 32/7/3 30/1/3 29/3/3
f 30/9/4 26/356/4 25/10/4
f 31/4/5 29/357/5 25/12/5
f 28/14/6 26/358/6 30/15/6
f 34/1/1 36/355/1 35/2/1
f 36/4/2 40/13/2 39/5/2
f 40/7/3 38/1/3 37/3/3
f 38/9/4 34/356/4 33/10/4
f 39/4/5 37/357/5 33/12/5
f 36/14/6 34/358/6 38/15/6
f 42/1/1 44/355/1 43/2/1
f 44/4/2 48/13/2 47/5/2
f 48/7/3 46/1/3 45/3/3
f 46/9/4 42/356/4 41/10/4
f 47/4/5 45/357/5 41/12/5
f 44/14/6 42/358/6 46/15/6
f 51/2/3 52/355/3 50/1/3
f 55/5/2 56/13/2 52/4/2
f 53/3/1 54/1/1 56/7/1
f 49/10/4 50/356/4 54/9/4
f 49/12/5 53/357/5 55/4/5
f 54/15/6 50/358/6 52/14/6
f 59/2/3 60/355/3 58/1/3
f 63/5/2 64/13/2 60/4/2
f 61/3/1 62/1/1 64/7/1
f 57/10/4 58/356/4 62/9/4
f 57/12/5 61/357/5 63/4/5
f 62/15/6 58/358/6 60/14/6
f 67/2/3 68/355/3 66/1/3
f 71/5/2 72/13/2 68/4/2
f 69/3/1 70/1/1 72/7/1
f 65/10/4 66/356/4 70/9/4
f 65/12/5 69/357/5 71/4/5
f 70/15/6 66/358/6 68/14/6
f 75/2/3 76/355/3 74/1/3
f 79/5/2 80/13/2 76/4/2
f 77/3/1 78/1/1 80/7/1
f 73/10/4 74/356/4 78/9/4
f 73/12/5 77/357/5 79/4/5
f 78/15/6 74/358/6 76/14/6
f 82/1/1 84/355/1 83/2/1
f 84/4/2 88/13/2 87/5/2
f 88/7/3 86/1/3 85/3/3
f 86/9/4 82/356/4 81/10/4
f 87/4/5 85/357/5 81/12/5
f 84/14/6 82/358/6 86/15/6
f 91/2/1 92/355/1 90/1/1
f 95/5/4 96/13/4 92/4/4
f 93/3/3 94/1/3 96/7/3
f 89/10/2 90/356/2 94/9/2
f 89/12/5 93/357/5 95/4/5
f 94/15/6 90/358/6 92/14/6
f 99/2/1 100/355/1 98/1/1
f 103/5/4 104/13/4 100/4/4
f 101/3/3 102/1/3 104/7/3
f 97/10/2 98/356/2 102/9/2
f 97/12/5 101/357/5 103/4/5
f 102/15/6 98/358/6 100/14/6
f 107/2/1 108/355/1 106/1/1
f 111/5/4 112/13/4 108/4/4
f 109/3/3 110/1/3 112/7/3
f 105/10/2 106/356/2 110/9/2
f 105/12/5 109/357/5 111/4/5
f 110/15/6 106/358/6 108/14/6
f 115/2/1 116/355/1 114/1/1
f 119/5/4 120/13/4 116/4/4
f 117/3/3 118/1/3 120/7/3
f 113/10/2 114/356/2 118/9/2
f 113/12/5 117/357/5 119/4/5
f 118/15/6 114/358/6 116/14/6
f 123/2/1 124/355/1 122/1/1
f 127/5/4 128/13/4 124/4/4
f 125/3/3 126/1/3 128/7/3
f 121/10/2 122/356/2 126/9/2
f 121/12/5 125/357/5 127/4/5
f 126/15/6 122/358/6 124/14/6
f 131/2/1 132/355/1 130/1/1
f 135/5/4 136/13/4 132/4/4
f 133/3/3 134/1/3 136/7/3
f 129/10/2 130/356/2 134/9/2
f 129/12/5 133/357/5 135/4/5
f 134/15/6 130/358/6 132/14/6
f 138/1/3 140/355/3 139/2/3
f 140/4/4 144/13/4 143/5/4
f 144/7/1 142/1/1 141/3/1
f 142/9/2 138/356/2 137/10/2
f 143/4/5 141/357/5 137/12/5
f 140/14/6 138/358/6 142/15/6
f 146/1/3 148/355/3 147/2/3
f 148/4/4 152/13/4 151/5/4
f 152/7/1 150/1/1 149/3/1
f 150/9/2 146/356/2 145/10/2
f 151/4/5 149/357/5 145/12/5
f 148/14/6 146/358/6 150/15/6
f 154/1/3 156/355/3 155/2/3
f 156/4/4 160/13/4 159/5/4
f 160/7/1 158/1/1 157/3/1
f 158/9/2 154/356/2 153/10/2
f 159/4/5 157/357/5 153/12/5
f 156/14/6 154/358/6 158/15/6
f 162/1/3 164/355/3 163/2/3
f 164/4/4 168/13/4 167/5/4
f 168/7/1 166/1/1 165/3/1
f 166/9/2 162/356/2 161/10/2
f 167/4/5 165/357/5 161/12/5
f 164/14/6 162/358/6 166/15/6
f 171/2/1 172/355/1 170/1/1
f 175/5/4 176/13/4 172/4/4
f 173/3/3 174/1/3 176/7/3
f 169/10/2 170/356/2 174/9/2
f 169/12/5 173/357/5 175/4/5
f 174/15/6 170/358/6 172/14/6
f 205/359/2 177/360/2 178/361/2
f 178/361/2 179/362/2 180/363/2
f 180/363/2 181/364/2 182/365/2
f 182/365/2 183/366/2 184/367/2
f 184/367/2 185/368/2 186/17/2
f 186/17/2 187/369/2 188/370/2
f 188/370/2 189/371/2 190/372/2
f 190/372/2 191/373/2 192/374/2
f 192/374/2 193/375/2 194/18/2
f 194/18/2 195/376/2 196/377/2
f 196/377/2 197/378/2 198/379/2
f 198/379/2 199/380/2 200/381/2
f 200/381/2 201/382/2 202/19/2
f 202/19/2 203/383/2 204/384/2
f 204/384/2 205/359/2 178/361/2
f 178/361/2 180/363/2 182/365/2
f 182/365/2 184/367/2 186/17/2
f 186/17/2 188/370/2 190/372/2
f 190/372/2 192/374/2 194/18/2
f 194/18/2 196/377/2 198/379/2
f 198/379/2 200/381/2 202/19/2
f 202/19/2 204/384/2 178/361/2
f 178/361/2 182/365/2 186/17/2
f 186/17/2 190/372/2 194/18/2
f 194/18/2 198/379/2 202/19/2
f 202/19/2 178/361/2 186/17/2
f 207/385/2 206/386/2 241/387/2
f 241/387/2 240/388/2 239/389/2
f 239/389/2 238/390/2 237/391/2
f 237/391/2 236/392/2 235/20/2
f 235/20/2 234/393/2 233/394/2
f 233/394/2 232/395/2 231/396/2
f 231/396/2 230/397/2 229/398/2
f 229/398/2 228/399/2 227/400/2
f 227/400/109 226/401/109 225/402/109
f 225/402/2 224/403/2 223/404/2
f 223/404/2 222/405/2 221/406/2
f 221/406/2 220/407/2 219/21/2
f 219/21/2 218/408/2 217/409/2
f 217/409/2 216/410/2 215/411/2
f 215/411/2 214/412/2 213/413/2
f 213/413/2 212/414/2 211/22/2
f 211/22/2 210/415/2 209/416/2
f 209/416/2 208/417/2 207/385/2
f 207/385/2 241/387/2 239/389/2
f 239/389/2 237/391/2 235/20/2
f 235/20/2 233/394/2 231/396/2
f 231/396/2 229/398/2 227/400/2
f 227/400/2 225/402/2 223/404/2
f 223/404/2 221/406/2 219/21/2
f 219/21/2 217/409/2 215/411/2
f 215/411/2 213/413/2 211/22/2
f 211/22/2 209/416/2 207/385/2
f 207/385/2 239/389/2 235/20/2
f 235/20/2 231/396/2 227/400/2
f 227/400/2 223/404/2 219/21/2
f 219/21/2 215/411/2 211/22/2
f 211/22/2 207/385/2 235/20/2
f 235/20/2 227/400/2 219/21/2
f 271/418/2 242/419/2 243/420/2
f 243/420/2 244/421/2 245/422/2
f 245/422/2 246/423/2 247/424/2
f 247/424/2 248/425/2 249/426/2
f 249/426/2 250/427/2 251/428/2
f 251/428/2 252/429/2 253/23/2
f 253/23/2 254/430/2 255/431/2
f 255/431/2 256/432/2 257/433/2
f 257/433/2 258/434/2 259/435/2
f 259/435/2 260/436/2 261/24/2
f 261/24/2 262/437/2 263/438/2
f 263/438/2 264/439/2 265/440/2
f 265/440/2 266/441/2 267/442/2
f 267/442/2 268/443/2 269/25/2
f 269/25/2 270/444/2 271/418/2
f 271/418/2 243/420/2 245/422/2
f 245/422/2 247/424/2 249/426/2
f 249/426/2 251/428/2 253/23/2
f 253/23/2 255/431/2 257/433/2
f 257/433/2 259/435/2 261/24/2
f 261/24/2 263/438/2 265/440/2
f 265/440/2 267/442/2 269/25/2
f 269/25/2 271/418/2 245/422/2
f 245/422/2 249/426/2 253/23/2
f 253/23/2 257/433/2 261/24/2
f 261/24/2 265/440/2 269/25/2
f 269/25/2 245/422/2 253/23/2
f 310/28/7 311/46/7 852/26/7
f 843/27/7 844/226/7 310/28/7
f 805/29/8 804/43/8 339/30/8
f 365/34/9 364/223/9 776/32/9
f 775/33/9 774/445/9 365/34/9
f 178/35/6 177/35/6 272/36/6
f 258/35/6 353/36/6 354/36/6
f 231/35/6 326/36/6 325/36/6
f 205/35/6 204/35/6 299/36/6
f 179/35/6 178/35/6 273/36/6
f 259/35/6 354/36/6 355/36/6
f 232/35/6 327/36/6 326/36/6
f 177/35/6 205/35/6 300/36/6
f 180/35/6 179/35/6 274/36/6
f 260/35/6 355/36/6 356/36/6
f 233/35/6 328/36/6 327/36/6
f 207/35/6 302/36/6 301/36/6
f 181/35/6 180/35/6 275/36/6
f 261/35/6 356/36/6 357/36/6
f 234/35/6 329/36/6 328/36/6
f 208/35/6 303/36/6 302/36/6
f 182/35/6 181/35/6 276/36/6
f 262/35/6 357/36/6 358/36/6
f 235/35/6 330/36/6 329/36/6
f 209/35/6 304/36/6 303/36/6
f 183/35/6 182/35/6 277/36/6
f 263/35/6 358/36/6 359/36/6
f 236/35/6 331/36/6 330/36/6
f 210/35/6 305/36/6 304/36/6
f 184/35/6 183/35/6 278/36/6
f 264/35/6 359/36/6 360/36/6
f 237/35/6 332/36/6 331/36/6
f 211/35/6 306/36/6 305/36/6
f 185/35/6 184/35/6 279/36/6
f 265/35/6 360/36/6 361/36/6
f 238/35/6 333/36/6 332/36/6
f 212/35/6 307/36/6 306/36/6
f 186/35/6 185/35/6 280/36/6
f 266/35/6 361/36/6 362/36/6
f 239/35/6 334/36/6 333/36/6
f 213/35/6 308/36/6 307/36/6
f 187/35/6 186/35/6 281/36/6
f 267/35/6 362/36/6 363/36/6
f 240/35/6 335/36/6 334/36/6
f 214/35/6 309/36/6 308/36/6
f 188/35/6 187/35/6 282/36/6
f 268/35/6 363/36/6 364/36/6
f 242/35/6 337/36/6 338/36/6
f 215/35/6 310/36/6 309/36/6
f 189/35/6 188/35/6 283/36/6
f 269/35/6 364/36/6 365/36/6
f 243/35/6 338/36/6 339/36/6
f 216/35/6 311/36/6 310/36/6
f 190/35/6 189/35/6 284/36/6
f 270/35/6 365/36/6 366/36/6
f 244/35/6 339/36/6 340/36/6
f 217/35/6 312/36/6 311/36/6
f 191/35/6 190/35/6 285/36/6
f 271/35/6 366/36/6 337/36/6
f 245/35/6 340/36/6 341/36/6
f 218/35/6 313/36/6 312/36/6
f 192/35/6 191/35/6 286/36/6
f 206/35/6 301/36/6 336/36/6
f 246/35/6 341/36/6 342/36/6
f 219/35/6 314/36/6 313/36/6
f 193/35/6 192/35/6 287/36/6
f 241/35/6 336/36/6 335/36/6
f 247/35/6 342/36/6 343/36/6
f 220/35/6 315/36/6 314/36/6
f 194/35/6 193/35/6 288/36/6
f 248/35/6 343/36/6 344/36/6
f 221/35/6 316/36/6 315/36/6
f 195/35/6 194/35/6 289/36/6
f 249/35/6 344/36/6 345/36/6
f 222/35/6 317/36/6 316/36/6
f 196/35/6 195/35/6 290/36/6
f 250/35/6 345/36/6 346/36/6
f 223/35/6 318/36/6 317/36/6
f 197/35/6 196/35/6 291/36/6
f 251/35/6 346/36/6 347/36/6
f 224/35/6 319/36/6 318/36/6
f 198/35/6 197/35/6 292/36/6
f 252/35/6 347/36/6 348/36/6
f 225/35/6 320/36/6 319/36/6
f 199/35/6 198/35/6 293/36/6
f 253/35/6 348/36/6 349/36/6
f 226/35/6 321/36/6 320/36/6
f 200/35/6 199/35/6 294/36/6
f 254/35/6 349/36/6 350/36/6
f 227/35/6 322/36/6 321/36/6
f 201/35/6 200/35/6 295/36/6
f 255/35/6 350/36/6 351/36/6
f 228/35/6 323/36/6 322/36/6
f 202/35/6 201/35/6 296/36/6
f 256/35/6 351/36/6 352/36/6
f 229/35/6 324/36/6 323/36/6
f 203/35/6 202/35/6 297/36/6
f 257/35/6 352/36/6 353/36/6
f 230/35/6 325/36/6 324/36/6
f 204/35/6 203/35/6 298/36/6
f 285/37/10 284/227/10 825/38/10
f 774/40/11 789/50/11 366/41/11
f 804/43/12 803/446/12 340/44/12
f 851/45/13 852/26/13 311/46/13
f 285/37/14 824/39/14 822/48/14
f 789/50/15 794/447/15 337/51/15
f 340/44/16 803/446/16 802/52/16
f 849/54/17 851/45/17 312/47/17
f 286/49/18 822/448/18 821/56/18
f 336/60/19 301/161/19 860/58/19
f 860/58/114 866/449/114 865/59/114
f 802/52/20 801/69/20 342/61/20
f 850/62/21 849/54/21 313/55/21
f 287/57/22 821/56/22 820/64/22
f 865/66/23 876/450/23 335/67/23
f 801/69/24 800/75/24 343/70/24
f 848/71/25 850/62/25 314/63/25
f 289/73/26 288/65/26 820/64/26
f 800/75/27 799/81/27 344/76/27
f 854/77/28 848/71/28 315/72/28
f 290/79/29 289/73/29 819/74/29
f 799/81/30 798/451/30 345/82/30
f 853/83/31 854/452/31 316/84/31
f 291/86/32 290/79/32 818/80/32
f 798/88/33 797/95/33 346/89/33
f 858/91/34 853/83/34 317/85/34
f 292/93/35 291/86/35 817/87/35
f 797/95/36 796/100/36 347/96/36
f 319/97/37 857/103/37 858/91/37
f 292/93/38 816/94/38 815/98/38
f 796/100/39 795/453/39 348/101/39
f 320/102/115 856/109/115 857/103/115
f 813/105/41 294/110/41 293/99/41
f 293/99/41 815/98/41 814/104/41
f 348/101/42 795/453/42 788/106/42
f 321/108/43 862/454/43 856/109/43
f 294/110/44 813/105/44 809/111/44
f 788/106/45 786/118/45 350/113/45
f 861/114/46 862/454/46 321/108/46
f 295/112/47 809/111/47 810/116/47
f 786/118/48 787/123/48 351/119/48
f 323/120/49 864/455/49 861/114/49
f 296/117/50 810/116/50 811/121/50
f 787/123/51 792/129/51 352/124/51
f 855/125/116 864/455/116 323/120/116
f 298/127/53 297/122/53 811/121/53
f 792/129/54 793/138/54 353/130/54
f 863/131/55 855/125/55 324/126/55
f 298/127/56 807/128/56 806/133/56
f 272/135/6 812/152/6 823/136/6
f 793/138/57 790/147/57 354/139/57
f 867/140/58 863/131/58 325/132/58
f 300/142/59 299/134/59 806/133/59
f 273/144/60 823/456/60 832/145/60
f 790/147/61 791/457/61 355/148/61
f 868/149/62 867/140/62 326/141/62
f 300/151/63 808/458/63 812/152/63
f 274/146/64 832/145/64 831/153/64
f 355/148/65 791/457/65 785/155/65
f 869/157/66 868/149/66 327/150/66
f 301/161/103 302/459/103 838/159/103
f 859/160/103 860/58/103 301/161/103
f 275/154/68 831/153/68 829/162/68
f 785/164/69 780/175/69 357/165/69
f 870/167/70 869/460/70 328/168/70
f 302/172/71 303/179/71 837/170/71
f 839/171/71 838/461/71 302/172/71
f 828/174/72 277/181/72 276/163/72
f 276/163/72 829/162/72 830/173/72
f 780/175/73 781/184/73 358/176/73
f 330/177/74 871/462/74 870/167/74
f 840/178/75 837/170/75 303/179/75
f 277/181/76 828/174/76 826/182/76
f 781/184/77 782/192/77 359/185/77
f 872/186/78 871/462/78 330/177/78
f 841/188/79 840/178/79 304/180/79
f 278/183/80 826/182/80 827/190/80
f 360/194/81 359/185/81 782/192/81
f 782/192/117 784/463/117 783/193/117
f 873/195/105 872/186/105 331/187/105
f 842/197/83 841/188/83 305/189/83
f 279/191/84 827/190/84 836/199/84
f 783/193/85 779/208/85 361/201/85
f 874/202/86 873/195/86 332/196/86
f 847/204/87 842/197/87 306/198/87
f 280/200/88 836/199/88 835/206/88
f 779/208/89 777/216/89 362/209/89
f 875/210/90 874/202/90 333/203/90
f 846/212/91 847/204/91 307/205/91
f 282/214/92 281/207/92 835/206/92
f 777/216/93 778/222/93 363/217/93
f 335/67/94 876/450/94 875/210/94
f 845/218/95 846/212/95 308/213/95
f 283/220/96 282/214/96 834/215/96
f 778/222/97 776/32/97 364/223/97
f 794/224/98 805/29/98 338/31/98
f 844/226/99 845/218/99 309/219/99
f 283/220/100 833/221/100 825/38/100
f 368/464/4 367/465/4 395/466/4
f 395/466/4 394/467/4 393/468/4
f 393/468/4 392/469/4 391/470/4
f 391/470/4 390/471/4 389/472/4
f 389/472/108 388/473/108 387/228/108
f 387/228/108 386/474/108 385/475/108
f 385/475/107 384/476/107 383/477/107
f 383/477/118 382/478/118 381/479/118
f 381/479/4 380/480/4 379/229/4
f 379/229/4 378/481/4 377/482/4
f 377/482/4 376/17/4 375/483/4
f 375/483/4 374/484/4 373/485/4
f 373/485/107 372/486/107 371/230/107
f 371/230/4 370/487/4 369/488/4
f 369/488/4 368/464/4 395/466/4
f 395/466/4 393/468/4 391/470/4
f 391/470/4 389/472/4 387/228/4
f 387/228/4 385/475/4 383/477/4
f 383/477/4 381/479/4 379/229/4
f 379/229/4 377/482/4 375/483/4
f 375/483/4 373/485/4 371/230/4
f 371/230/4 369/488/4 395/466/4
f 395/466/4 391/470/4 387/228/4
f 387/228/4 383/477/4 379/229/4
f 379/229/4 375/483/4 371/230/4
f 371/230/4 395/466/4 387/228/4
f 431/489/4 396/490/4 397/491/4
f 397/491/119 398/492/119 399/416/119
f 399/416/4 400/493/4 401/494/4
f 401/494/4 402/495/4 403/231/4
f 403/231/4 404/496/4 405/497/4
f 405/497/120 406/498/120 407/499/120
f 407/499/4 408/500/4 409/501/4
f 409/501/121 410/502/121 411/503/121
f 411/503/122 412/504/122 413/505/122
f 413/505/107 414/506/107 415/507/107
f 415/507/4 416/508/4 417/509/4
f 417/509/4 418/510/4 419/232/4
f 419/232/121 420/511/121 421/512/121
f 421/512/4 422/513/4 423/514/4
f 423/514/4 424/515/4 425/516/4
f 425/516/4 426/517/4 427/233/4
f 427/233/107 428/518/107 429/519/107
f 429/519/4 430/520/4 431/489/4
f 431/489/4 397/491/4 399/416/4
f 399/416/4 401/494/4 403/231/4
f 403/231/4 405/497/4 407/499/4
f 407/499/107 409/501/107 411/503/107
f 411/503/4 413/505/4 415/507/4
f 415/507/4 417/509/4 419/232/4
f 419/232/4 421/512/4 423/514/4
f 423/514/4 425/516/4 427/233/4
f 427/233/4 429/519/4 431/489/4
f 431/489/4 399/416/4 403/231/4
f 403/231/4 407/499/4 411/503/4
f 411/503/4 415/507/4 419/232/4
f 419/232/4 423/514/4 427/233/4
f 427/233/4 431/489/4 403/231/4
f 403/231/4 411/503/4 419/232/4
f 433/521/4 432/522/4 461/523/4
f 461/523/4 460/524/4 459/525/4
f 459/525/4 458/526/4 457/527/4
f 457/527/4 456/528/4 455/529/4
f 455/529/4 454/530/4 453/438/4
f 453/438/4 452/531/4 451/234/4
f 451/234/107 450/532/107 449/533/107
f 449/533/108 448/534/108 447/535/108
f 447/535/4 446/536/4 445/537/4
f 445/537/107 444/538/107 443/235/107
f 443/235/4 442/539/4 441/540/4
f 441/540/107 440/541/107 439/542/107
f 439/542/4 438/543/4 437/544/4
f 437/544/4 436/545/4 435/236/4
f 435/236/4 434/546/4 433/521/4
f 433/521/4 461/523/4 459/525/4
f 459/525/4 457/527/4 455/529/4
f 455/529/4 453/438/4 451/234/4
f 451/234/4 449/533/4 447/535/4
f 447/535/4 445/537/4 443/235/4
f 443/235/4 441/540/4 439/542/4
f 439/542/4 437/544/4 435/236/4
f 435/236/4 433/521/4 459/525/4
f 459/525/4 455/529/4 451/234/4
f 451/234/4 447/535/4 443/235/4
f 443/235/4 439/542/4 435/236/4
f 435/236/4 459/525/4 451/234/4
f 500/36/7 742/36/7 741/36/7
f 701/237/8 528/36/8 529/36/8
f 529/36/8 698/36/8 700/36/8
f 555/36/9 771/36/9 768/36/9
f 368/35/6 463/36/6 462/36/6
f 448/35/6 449/35/6 544/36/6
f 421/35/6 420/35/6 515/36/6
f 395/35/6 490/36/6 489/36/6
f 369/35/6 464/36/6 463/36/6
f 449/35/6 450/35/6 545/36/6
f 422/35/6 421/35/6 516/36/6
f 367/35/6 462/36/6 490/36/6
f 370/35/6 465/36/6 464/36/6
f 450/35/6 451/35/6 546/36/6
f 423/35/6 422/35/6 517/36/6
f 397/35/6 396/35/6 491/36/6
f 371/35/6 466/36/6 465/36/6
f 451/35/6 452/35/6 547/36/6
f 424/35/6 423/35/6 518/36/6
f 398/35/6 397/35/6 492/36/6
f 372/35/6 467/36/6 466/36/6
f 452/35/6 453/35/6 548/36/6
f 425/35/6 424/35/6 519/36/6
f 399/35/6 398/35/6 493/36/6
f 373/35/6 468/36/6 467/36/6
f 453/35/6 454/35/6 549/36/6
f 426/35/6 425/35/6 520/36/6
f 400/35/6 399/35/6 494/36/6
f 374/35/6 469/36/6 468/36/6
f 454/35/6 455/35/6 550/36/6
f 427/35/6 426/35/6 521/36/6
f 401/35/6 400/35/6 495/36/6
f 375/35/6 470/36/6 469/36/6
f 455/35/6 456/35/6 551/36/6
f 428/35/6 427/35/6 522/36/6
f 402/35/6 401/35/6 496/36/6
f 376/35/6 471/36/6 470/36/6
f 456/35/6 457/35/6 552/36/6
f 429/35/6 428/35/6 523/36/6
f 403/35/6 402/35/6 497/36/6
f 377/35/6 472/36/6 471/36/6
f 457/35/6 458/35/6 553/36/6
f 430/35/6 429/35/6 524/36/6
f 404/35/6 403/35/6 498/36/6
f 378/35/6 473/36/6 472/36/6
f 458/35/6 459/35/6 554/36/6
f 432/35/6 433/35/6 528/36/6
f 405/35/6 404/35/6 499/36/6
f 379/35/6 474/36/6 473/36/6
f 459/35/6 460/35/6 555/36/6
f 433/35/6 434/35/6 529/36/6
f 406/35/6 405/35/6 500/36/6
f 380/35/6 475/36/6 474/36/6
f 460/35/6 461/35/6 556/36/6
f 434/35/6 435/35/6 530/36/6
f 407/35/6 406/35/6 501/36/6
f 381/35/6 476/36/6 475/36/6
f 461/35/6 432/35/6 527/36/6
f 435/35/6 436/35/6 531/36/6
f 408/35/6 407/35/6 502/36/6
f 382/35/6 477/36/6 476/36/6
f 396/35/6 431/35/6 526/36/6
f 436/35/6 437/35/6 532/36/6
f 409/35/6 408/35/6 503/36/6
f 383/35/6 478/36/6 477/36/6
f 431/35/6 430/35/6 525/36/6
f 437/35/6 438/35/6 533/36/6
f 410/35/6 409/35/6 504/36/6
f 384/35/6 479/36/6 478/36/6
f 438/35/6 439/35/6 534/36/6
f 411/35/6 410/35/6 505/36/6
f 385/35/6 480/36/6 479/36/6
f 439/35/6 440/35/6 535/36/6
f 412/35/6 411/35/6 506/36/6
f 386/35/6 481/36/6 480/36/6
f 440/35/6 441/35/6 536/36/6
f 413/35/6 412/35/6 507/36/6
f 387/35/6 482/36/6 481/36/6
f 441/35/6 442/35/6 537/36/6
f 414/35/6 413/35/6 508/36/6
f 388/35/6 483/36/6 482/36/6
f 442/35/6 443/35/6 538/36/6
f 415/35/6 414/35/6 509/36/6
f 389/35/6 484/36/6 483/36/6
f 443/35/6 444/35/6 539/36/6
f 416/35/6 415/35/6 510/36/6
f 390/35/6 485/36/6 484/36/6
f 444/35/6 445/35/6 540/36/6
f 417/35/6 416/35/6 511/36/6
f 391/35/6 486/36/6 485/36/6
f 445/35/6 446/35/6 541/36/6
f 418/35/6 417/35/6 512/36/6
f 392/35/6 487/36/6 486/36/6
f 446/35/6 447/35/6 542/36/6
f 419/35/6 418/35/6 513/36/6
f 393/35/6 488/36/6 487/36/6
f 447/35/6 448/35/6 543/36/6
f 420/35/6 419/35/6 514/36/6
f 394/35/6 489/36/6 488/36/6
f 475/36/10 715/237/10 719/36/10
f 771/36/11 555/36/11 556/36/11
f 556/36/11 676/36/11 675/36/11
f 530/36/12 697/36/12 698/36/12
f 501/36/13 741/36/13 740/36/13
f 714/237/14 715/237/14 475/36/14
f 527/36/15 699/36/15 676/36/15
f 531/36/16 696/36/16 697/36/16
f 502/36/17 740/36/17 739/36/17
f 713/237/18 714/237/18 476/36/18
f 491/36/19 526/36/19 767/36/19
f 532/36/20 695/36/20 696/36/20
f 503/36/21 739/36/21 738/36/21
f 478/36/22 716/237/22 713/237/22
f 525/36/23 766/36/23 767/36/23
f 533/36/24 694/36/24 695/36/24
f 504/36/25 738/36/25 737/36/25
f 717/237/26 716/237/26 478/36/26
f 534/36/27 693/36/27 694/36/27
f 505/36/28 737/36/28 748/36/28
f 718/237/29 717/237/29 479/36/29
f 535/36/30 692/36/30 693/36/30
f 506/36/31 748/36/31 747/36/31
f 712/36/32 718/237/32 480/36/32
f 536/36/33 691/36/33 692/36/33
f 507/36/34 747/36/34 749/36/34
f 711/237/35 712/36/35 481/36/35
f 691/36/36 536/36/36 537/36/36
f 537/36/123 689/36/123 690/36/123
f 509/36/37 508/36/37 749/36/37
f 483/36/38 710/36/38 711/237/38
f 538/36/39 688/36/39 689/36/39
f 509/36/40 750/36/40 751/36/40
f 709/237/41 710/36/41 483/36/41
f 539/36/42 687/36/42 688/36/42
f 510/36/43 751/36/43 753/36/43
f 707/36/44 709/237/44 484/36/44
f 540/36/45 685/36/45 687/36/45
f 511/36/46 753/36/46 752/36/46
f 708/237/47 707/36/47 485/36/47
f 540/36/48 541/36/48 770/36/48
f 512/36/49 752/36/49 754/36/49
f 706/237/50 708/237/50 486/36/50
f 542/36/51 686/36/51 770/36/51
f 514/36/52 513/36/52 754/36/52
f 703/237/53 706/237/53 487/36/53
f 543/36/54 684/36/54 686/36/54
f 514/36/55 755/36/55 756/36/55
f 702/237/56 703/237/56 488/36/56
f 720/36/6 705/36/6 462/36/6
f 544/36/57 682/36/57 684/36/57
f 516/36/58 515/36/58 756/36/58
f 490/36/59 704/36/59 702/237/59
f 731/36/60 720/36/60 463/36/60
f 545/36/61 683/36/61 682/36/61
f 516/36/62 757/36/62 758/36/62
f 705/36/63 704/36/63 490/36/63
f 730/36/64 731/36/64 464/36/64
f 545/36/65 546/36/65 678/36/65
f 518/36/66 517/36/66 758/36/66
f 491/36/103 736/36/103 734/36/103
f 728/36/68 730/36/68 465/36/68
f 547/36/69 679/36/69 678/36/69
f 519/36/70 518/36/70 759/36/70
f 492/36/71 734/36/71 733/36/71
f 466/36/72 467/36/72 727/36/72
f 729/36/72 728/36/72 466/36/72
f 547/36/73 548/36/73 680/36/73
f 519/36/74 760/36/74 761/36/74
f 494/36/75 493/36/75 733/36/75
f 726/36/76 727/36/76 467/36/76
f 549/36/77 681/36/77 680/36/77
f 520/36/78 761/36/78 762/36/78
f 494/36/79 732/36/79 735/36/79
f 725/36/80 726/36/80 468/36/80
f 550/36/81 677/36/81 681/36/81
f 522/36/124 521/36/124 762/36/124
f 495/36/83 735/36/83 746/36/83
f 724/36/84 725/36/84 469/36/84
f 550/36/125 551/36/125 772/36/125
f 522/36/86 763/36/86 764/36/86
f 496/36/87 746/36/87 745/36/87
f 723/36/88 724/36/88 470/36/88
f 552/36/89 773/36/89 772/36/89
f 523/36/90 764/36/90 765/36/90
f 497/36/91 745/36/91 744/36/91
f 722/36/92 723/36/92 471/36/92
f 553/36/93 769/36/93 773/36/93
f 524/36/94 765/36/94 766/36/94
f 498/36/95 744/36/95 743/36/95
f 721/36/96 722/36/96 472/36/96
f 553/36/97 554/36/97 768/36/97
f 528/36/98 701/237/98 699/36/98
f 499/36/99 743/36/99 742/36/99
f 719/36/100 721/36/100 473/36/100
f 571/259/4 573/274/4 766/547/4
f 571/259/4 766/547/4 765/548/4
f 691/549/4 690/550/4 571/259/4
f 692/551/4 691/549/4 571/259/4
f 571/259/4 765/548/4 764/552/4
f 571/259/4 764/552/4 763/553/4
f 693/554/4 692/551/4 571/259/4
f 694/555/4 693/554/4 571/259/4
f 571/259/4 763/553/4 762/556/4
f 571/259/4 762/556/4 761/557/4
f 695/558/4 694/555/4 571/259/4
f 696/559/4 695/558/4 571/259/4
f 571/259/4 761/557/4 760/560/4
f 571/259/4 760/560/4 759/561/4
f 697/562/4 696/559/4 571/259/4
f 702/563/4 700/564/4 698/565/4
f 698/565/4 697/562/4 571/259/4
f 571/259/4 759/561/4 758/566/4
f 571/259/4 758/566/4 757/567/4
f 703/568/4 702/563/4 698/565/4
f 706/569/4 703/568/4 698/565/4
f 571/259/4 757/567/4 756/570/4
f 571/259/4 756/570/4 755/571/4
f 708/572/4 706/569/4 698/565/4
f 707/573/4 708/572/4 698/565/4
f 571/259/4 755/571/4 754/574/4
f 571/259/4 754/574/4 752/575/4
f 709/576/4 707/573/4 698/565/4
f 710/577/4 709/576/4 698/565/4
f 571/259/4 752/575/4 753/578/4
f 571/259/4 753/578/4 751/579/4
f 710/577/4 698/565/4 571/259/4
f 711/580/4 710/577/4 571/259/4
f 571/259/4 751/579/4 750/581/4
f 571/259/4 750/581/4 749/582/4
f 712/583/4 711/580/4 571/259/4
f 718/584/4 712/583/4 571/259/4
f 571/259/4 749/582/4 747/585/4
f 571/259/4 747/585/4 748/586/4
f 717/587/4 718/584/4 571/259/4
f 716/588/4 717/587/4 571/259/4
f 571/259/4 748/586/4 737/589/4
f 571/259/4 737/589/4 738/590/4
f 713/591/4 716/588/4 571/259/4
f 714/592/107 713/591/107 571/259/107
f 571/259/4 738/590/4 739/593/4
f 571/259/4 739/593/4 740/594/4
f 715/595/4 714/592/4 571/259/4
f 719/596/4 715/595/4 571/259/4
f 571/259/4 740/594/4 741/597/4
f 571/259/4 741/597/4 742/598/4
f 721/599/4 719/596/4 571/259/4
f 722/600/4 721/599/4 571/259/4
f 571/259/4 742/598/4 743/601/4
f 571/259/4 743/601/4 744/602/4
f 723/603/4 722/600/4 571/259/4
f 724/604/4 723/603/4 571/259/4
f 571/259/4 744/602/4 745/605/4
f 571/259/4 745/605/4 746/606/4
f 725/607/4 724/604/4 571/259/4
f 726/608/4 725/607/4 571/259/4
f 726/608/4 571/259/4 746/606/4
f 733/609/4 729/610/4 727/254/4
f 727/254/4 726/608/4 746/606/4
f 727/254/4 746/606/4 735/252/4
f 732/253/4 733/609/4 727/254/4
f 574/255/4 571/259/4 690/550/4
f 574/255/4 690/550/4 689/611/4
f 771/612/4 675/613/4 572/273/4
f 769/614/126 768/615/126 771/612/126
f 769/614/4 771/612/4 572/273/4
f 574/255/4 689/611/4 688/616/4
f 574/255/4 688/616/4 687/617/4
f 769/614/4 572/273/4 574/255/4
f 773/618/4 769/614/4 574/255/4
f 574/255/4 687/617/4 685/619/4
f 574/255/4 685/619/4 770/620/4
f 772/621/4 773/618/4 574/255/4
f 677/622/4 772/621/4 574/255/4
f 574/255/4 770/620/4 686/623/4
f 574/255/4 686/623/4 684/624/4
f 681/625/4 677/622/4 574/255/4
f 680/626/4 681/625/4 574/255/4
f 574/255/4 684/624/4 682/627/4
f 574/255/4 682/627/4 683/628/4
f 679/257/4 680/626/4 574/255/4
f 574/255/4 683/628/4 678/256/4
f 585/629/2 587/292/2 859/294/2
f 838/630/2 839/631/2 830/632/2
f 585/629/2 859/294/2 838/630/2
f 774/633/2 775/634/2 585/629/2
f 794/635/127 789/636/127 774/633/127
f 794/635/2 774/633/2 585/629/2
f 838/630/2 830/632/2 829/637/2
f 838/630/2 829/637/2 831/638/2
f 621/284/2 784/639/2 782/640/2
f 813/641/2 814/642/2 621/284/2
f 809/643/2 813/641/2 621/284/2
f 621/284/2 782/640/2 781/644/2
f 621/284/2 781/644/2 780/645/2
f 810/646/2 809/643/2 621/284/2
f 811/647/2 810/646/2 621/284/2
f 621/284/2 780/645/2 785/648/2
f 621/284/2 785/648/2 791/649/2
f 807/650/2 811/647/2 621/284/2
f 806/286/2 807/650/2 621/284/2
f 621/284/2 791/649/2 790/651/2
f 621/284/2 790/651/2 793/652/2
f 838/630/2 831/638/2 832/653/2
f 621/284/2 793/652/2 792/654/2
f 838/630/2 832/653/2 823/655/2
f 621/284/2 792/654/2 787/656/2
f 585/629/2 838/630/2 823/655/2
f 585/629/2 823/655/2 812/657/2
f 585/629/2 812/657/2 808/658/2
f 794/635/2 585/629/2 808/658/2
f 621/284/2 787/656/2 786/659/2
f 621/284/2 786/659/2 788/660/2
f 794/635/2 808/658/2 806/286/2
f 805/661/2 794/635/2 806/286/2
f 621/284/2 788/660/2 795/662/2
f 621/284/2 795/662/2 796/663/2
f 804/664/2 805/661/2 806/286/2
f 803/665/2 804/664/2 806/286/2
f 806/286/2 621/284/2 796/663/2
f 806/286/2 796/663/2 797/666/2
f 802/667/2 803/665/2 806/286/2
f 801/668/2 802/667/2 806/286/2
f 806/286/2 797/666/2 798/669/2
f 806/286/2 798/669/2 799/287/2
f 800/288/2 801/668/2 806/286/2
f 784/639/2 621/284/2 586/289/2
f 586/289/2 585/629/2 775/634/2
f 775/634/2 776/670/2 778/671/2
f 586/289/2 775/634/2 778/671/2
f 783/672/2 784/639/2 586/289/2
f 779/291/2 783/672/2 586/289/2
f 586/289/2 778/671/2 777/290/2
f 587/292/2 866/673/2 860/293/2
f 618/281/2 843/674/2 852/675/2
f 618/281/2 852/675/2 851/676/2
f 865/677/2 866/673/2 587/292/2
f 876/678/2 865/677/2 587/292/2
f 618/281/2 851/676/2 849/679/2
f 618/281/2 849/679/2 850/680/2
f 876/678/2 587/292/2 624/297/2
f 875/681/2 876/678/2 624/297/2
f 618/281/2 850/680/2 848/682/2
f 618/281/2 848/682/2 854/683/2
f 874/684/2 875/681/2 624/297/2
f 873/685/2 874/684/2 624/297/2
f 618/281/2 854/683/2 853/686/2
f 618/281/2 853/686/2 858/687/2
f 872/688/2 873/685/2 624/297/2
f 871/689/2 872/688/2 624/297/2
f 624/297/2 618/281/2 858/687/2
f 624/297/128 858/687/128 857/690/128
f 870/691/2 871/689/2 624/297/2
f 869/692/2 870/691/2 624/297/2
f 624/297/2 857/690/2 856/693/2
f 624/297/2 856/693/2 862/694/2
f 868/695/2 869/692/2 624/297/2
f 867/696/2 868/695/2 624/297/2
f 624/297/2 862/694/2 861/697/2
f 624/297/2 861/697/2 864/698/2
f 863/299/2 867/696/2 624/297/2
f 624/297/2 864/698/2 855/298/2
f 572/273/4 675/613/4 676/699/4
f 572/273/4 676/699/4 699/348/4
f 720/351/4 573/274/4 572/273/4
f 705/700/4 720/351/4 572/273/4
f 705/700/4 572/273/4 699/348/4
f 700/564/4 702/563/4 704/350/4
f 704/350/4 705/700/4 699/348/4
f 701/349/4 700/564/4 704/350/4
f 728/701/4 729/610/4 733/609/4
f 728/701/4 733/609/4 734/352/4
f 730/702/4 728/701/4 734/352/4
f 731/703/4 730/702/4 734/352/4
f 767/704/4 766/547/4 573/274/4
f 736/705/4 767/704/4 573/274/4
f 720/351/4 731/703/4 734/352/4
f 734/352/4 736/705/4 573/274/4
f 830/632/2 839/631/2 837/706/2
f 830/632/2 837/706/2 840/707/2
f 828/708/2 830/632/2 840/707/2
f 828/708/2 840/707/2 841/709/2
f 826/710/2 828/708/2 841/709/2
f 826/710/2 841/709/2 842/711/2
f 827/712/2 826/710/2 842/711/2
f 827/712/2 842/711/2 847/713/2
f 836/714/2 827/712/2 847/713/2
f 836/714/2 847/713/2 846/715/2
f 835/716/2 836/714/2 846/715/2
f 835/716/2 846/715/2 845/717/2
f 834/718/2 835/716/2 845/717/2
f 844/719/2 843/674/2 618/281/2
f 834/718/2 845/717/2 844/719/2
f 833/720/2 834/718/2 844/719/2
f 618/281/2 621/284/2 814/642/2
f 618/281/2 814/642/2 815/721/2
f 833/720/2 844/719/2 618/281/2
f 825/722/2 833/720/2 618/281/2
f 618/281/2 815/721/2 816/723/2
f 618/281/2 816/723/2 817/724/2
f 824/725/2 825/722/2 618/281/2
f 822/726/2 824/725/2 618/281/2
f 618/281/2 817/724/2 818/727/2
f 618/281/2 818/727/2 819/728/2
f 821/354/2 822/726/2 618/281/2
f 618/281/2 819/728/2 820/353/2
