# Blender 4.4.1
# www.blender.org
mtllib half_timbered_barn.mtl
o half_timbered_barn
v -12.186409 -0.304597 4.611941
v -12.186409 4.644471 4.611941
v -12.186409 -0.304598 -4.611939
v -12.186409 4.644470 -4.611942
v 12.240844 -0.304597 4.611941
v 12.240844 4.644471 4.611941
v 12.240844 -0.304598 -4.611939
v 12.240844 4.644470 -4.611942
v -12.522635 4.512166 -4.755505
v -12.186409 11.176507 -0.000001
v 12.240844 11.176507 -0.000001
v -12.522635 4.512167 4.755506
v 12.467209 4.512167 4.755506
v 12.467209 4.512166 -4.755505
v -12.522635 11.247398 -0.000001
v 12.467209 11.247398 -0.000001
v -12.522635 11.562974 -0.000001
v 12.467209 11.562974 -0.000001
v -12.522635 4.617153 4.904197
v 12.467209 4.617153 4.904197
v 12.467209 4.617152 -4.904198
v -12.522635 4.617152 -4.904198
vn -1.0000 -0.0000 -0.0000
vn 1.0000 -0.0000 -0.0000
vn -0.0000 -0.5768 0.8169
vn -0.0000 0.5768 0.8169
vn -0.0000 -0.8169 0.5768
vn -0.0000 -0.8169 -0.5768
vn -0.0000 -0.0000 -1.0000
vn -0.0000 -0.5768 -0.8169
vn -0.0000 0.5768 -0.8169
vn -0.0000 -0.0000 1.0000
vt 0.960106 0.661991
vt 0.832217 0.843124
vt 0.704329 0.661991
vt 0.712053 0.008988
vt 0.717259 0.016244
vt 0.711945 0.246335
vt 0.014123 0.506778
vt 0.008988 0.499524
vt 0.014158 0.269423
vt 0.014195 0.008988
vt 0.014302 0.246335
vt 0.008988 0.016245
vt 0.714476 0.248888
vt 0.735235 0.146225
vt 0.991012 0.008988
vt 0.991012 0.146225
vt 0.009237 0.910761
vt 0.259509 0.993333
vt 0.009237 0.993333
vt 0.011594 0.266864
vt 0.014158 0.249439
vt 0.711934 0.012090
vt 0.014123 0.012084
vt 0.711934 0.506772
vt 0.711824 0.269417
vt 0.717135 0.499535
vt 0.714355 0.266864
vt 0.863123 0.327358
vt 0.011771 0.248885
vt 0.686352 0.817204
vt 0.008988 0.679968
vt 0.686352 0.679967
vt 0.259509 0.828189
vt 0.259509 0.910761
vt 0.704329 0.524754
vt 0.960106 0.524754
vt 0.686352 0.661991
vt 0.008988 0.524754
vt 0.686352 0.524754
vt 0.735235 0.008988
vt 0.711824 0.249445
vt 0.008988 0.817204
vt 0.009237 0.828189
vt 0.008988 0.661991
s 1
usemtl Low-Poly-Barn
f 2/1/1 10/2/1 4/3/1
f 18/4/2 16/5/2 21/6/2
f 17/7/1 15/8/1 19/9/1
f 17/10/1 22/11/1 15/12/1
f 16/5/2 14/13/2 21/6/2
f 6/14/2 7/15/2 8/16/2
f 16/17/3 9/18/3 14/19/3
f 15/8/1 12/20/1 19/9/1
f 19/21/4 18/22/4 17/23/4
f 18/24/2 20/25/2 16/26/2
f 20/25/2 13/27/2 16/26/2
f 8/16/2 11/28/2 6/14/2
f 20/25/5 12/20/5 13/27/5
f 21/6/6 9/29/6 22/11/6
f 4/30/7 7/31/7 3/32/7
f 22/11/1 9/29/1 15/12/1
f 16/17/8 12/33/8 15/34/8
f 2/1/1 3/35/1 1/36/1
f 22/11/9 18/4/9 21/6/9
f 6/37/10 1/38/10 5/39/10
f 6/14/2 5/40/2 7/15/2
f 16/17/3 15/34/3 9/18/3
f 19/21/4 20/41/4 18/22/4
f 20/25/5 19/9/5 12/20/5
f 21/6/6 14/13/6 9/29/6
f 4/30/7 8/42/7 7/31/7
f 16/17/8 13/43/8 12/33/8
f 2/1/1 4/3/1 3/35/1
f 22/11/9 17/10/9 18/4/9
f 6/37/10 2/44/10 1/38/10
