# Blender 4.4.1
# www.blender.org
mtllib ru_small_house_2.mtl
o ru_small_house_2
v -8.615114 0.423948 -4.896585
v -8.615114 -0.064946 -4.896585
v -8.615114 -0.064945 5.566708
v -8.615114 -0.064945 5.566708
v -8.615114 0.423948 5.566708
v -8.615114 0.423948 -4.896585
v 8.616191 -0.064946 -4.896585
v 8.616191 0.423948 -4.896585
v 8.616191 -0.064945 5.566708
v 8.616191 0.423948 5.566708
v 8.720388 4.289406 5.666491
v 8.720388 4.283562 -4.974313
v 8.720388 4.483876 -4.974313
v 8.720388 4.483876 -4.974313
v 8.720388 4.483877 5.666491
v 8.720388 4.289406 5.666491
v -8.688703 4.283562 -4.974313
v 8.720388 4.283562 -4.974313
v 8.566236 4.248504 -4.836711
v 8.566236 4.248504 -4.836711
v -8.566236 4.248510 -4.836711
v -8.688703 4.283562 -4.974313
v -8.566236 4.248510 -4.836711
v -8.566236 4.248511 5.528896
v -8.688703 4.289406 5.666491
v -8.688703 4.289406 5.666491
v -8.688703 4.283562 -4.974313
v -8.566236 4.248510 -4.836711
v -8.566236 4.248511 5.528896
v 8.566236 4.248504 5.528896
v 8.720388 4.289406 5.666491
v 8.720388 4.289406 5.666491
v -8.688703 4.289406 5.666491
v -8.566236 4.248511 5.528896
v 8.566236 4.248504 5.528896
v 8.566236 4.248504 -4.836711
v 8.720388 4.283562 -4.974313
v 8.720388 4.283562 -4.974313
v 8.720388 4.289406 5.666491
v 8.566236 4.248504 5.528896
v 8.566236 0.486962 -4.836711
v 8.616191 0.423948 -4.896585
v 3.763323 0.423948 -4.896585
v 3.763323 0.423948 -4.896585
v 3.763323 0.486962 -4.836711
v 8.566236 0.486962 -4.836711
v -8.615114 0.423948 5.566708
v 8.616191 0.423948 5.566708
v 8.566236 0.486962 5.528896
v 8.566236 0.486962 5.528896
v -8.566236 0.486962 5.528896
v -8.615114 0.423948 5.566708
v 8.616191 0.423948 5.566708
v 8.616191 0.423948 -4.896585
v 8.566236 0.486962 -4.836711
v 8.566236 0.486962 -4.836711
v 8.566236 0.486962 5.528896
v 8.616191 0.423948 5.566708
v -8.615114 -0.064945 5.566708
v 8.616191 -0.064945 5.566708
v -8.615114 0.423948 5.566708
v 8.616191 0.423948 5.566708
v 3.763323 0.086750 -4.723622
v 3.763323 0.086750 -4.896585
v 2.829275 0.086750 -4.896585
v 2.829275 0.086750 -4.896585
v 2.829275 0.086750 -4.723622
v 3.763323 0.086750 -4.723622
v 3.763323 1.727041 -4.723622
v 2.829275 1.727041 -4.723622
v 3.763323 1.727041 -4.836711
v 2.829275 1.727041 -4.836711
v -8.688703 4.483876 -4.974313
v 8.720388 4.483876 -4.974313
v 8.720388 4.283562 -4.974313
v 8.720388 4.283562 -4.974313
v -8.688703 4.283562 -4.974313
v -8.688703 4.483876 -4.974313
v -8.688703 4.289406 5.666491
v -8.688703 4.483877 5.666491
v -8.688703 4.483876 -4.974313
v -8.688703 4.483876 -4.974313
v -8.688703 4.283562 -4.974313
v -8.688703 4.289406 5.666491
v 8.720388 4.289406 5.666491
v 8.720388 4.483877 5.666491
v -8.688703 4.483877 5.666491
v -8.688703 4.483877 5.666491
v -8.688703 4.289406 5.666491
v 8.720388 4.289406 5.666491
v 8.566236 0.486962 5.528896
v 8.566236 4.248504 5.528896
v -8.566236 0.486962 5.528896
v -8.566236 4.248511 5.528896
v 2.829275 1.727041 -4.723622
v 3.763323 1.727041 -4.723622
v 2.829275 0.086750 -4.723622
v 3.763323 0.086750 -4.723622
v -8.566236 0.486962 -4.836711
v 2.829275 0.486962 -4.836711
v 2.829275 0.423948 -4.896585
v -8.615114 0.423948 -4.896585
v -8.566236 0.486962 -4.836711
v -8.615114 0.423948 5.566708
v -8.566236 0.486962 5.528896
v -8.566236 0.486962 -4.836711
v -8.566236 0.486962 -4.836711
v -8.615114 0.423948 -4.896585
v -8.615114 0.423948 5.566708
v -7.429157 0.793071 -4.722221
v -6.753995 0.793071 -4.722221
v -7.429157 0.793071 -4.836711
v -6.753995 0.793071 -4.836711
v -7.429157 1.686562 -4.836711
v -7.429157 1.686562 -4.722221
v -7.429157 0.793071 -4.836711
v -7.429157 0.793071 -4.722221
v -7.429157 1.686562 -4.836711
v -6.753995 1.686562 -4.836711
v -7.429157 1.686562 -4.722221
v -6.753995 1.686562 -4.722221
v -6.753995 0.793071 -4.722221
v -7.429157 0.793071 -4.722221
v -6.753995 1.686562 -4.722221
v -7.429157 1.686562 -4.722221
v -6.753995 0.793071 -4.836711
v -6.753995 0.793071 -4.722221
v -6.753995 1.686562 -4.836711
v -6.753995 1.686562 -4.722221
v -6.753995 3.704734 -4.836711
v -6.753995 2.797684 -4.836711
v -6.753995 3.704734 -4.722221
v -6.753995 2.797684 -4.722221
v -7.429157 2.797684 -4.722221
v -6.753995 2.797684 -4.722221
v -7.429157 2.797684 -4.836711
v -6.753995 2.797684 -4.836711
v -7.429157 2.797684 -4.836711
v -7.429157 3.704734 -4.836711
v -7.429157 2.797684 -4.722221
v -7.429157 3.704734 -4.722221
v -6.753995 2.797684 -4.722221
v -7.429157 2.797684 -4.722221
v -6.753995 3.704734 -4.722221
v -7.429157 3.704734 -4.722221
v -7.429157 3.704734 -4.836711
v -6.753995 3.704734 -4.836711
v -7.429157 3.704734 -4.722221
v -6.753995 3.704734 -4.722221
v -4.281643 3.735618 -4.836711
v -4.281643 2.808744 -4.836711
v -4.281643 3.735618 -4.722221
v -4.281643 2.808744 -4.722221
v -5.617993 2.808744 -4.722221
v -4.281643 2.808744 -4.722221
v -5.617993 2.808744 -4.836711
v -4.281643 2.808744 -4.836711
v -5.617993 2.808744 -4.836711
v -5.617993 3.735618 -4.836711
v -5.617993 2.808744 -4.722221
v -5.617993 3.735618 -4.722221
v -4.281643 2.808744 -4.722221
v -5.617993 2.808744 -4.722221
v -4.281643 3.735618 -4.722221
v -5.617993 3.735618 -4.722221
v -5.617993 3.735618 -4.836711
v -4.281643 3.735618 -4.836711
v -5.617993 3.735618 -4.722221
v -4.281643 3.735618 -4.722221
v -4.300440 1.741853 -4.836711
v -4.300440 0.814979 -4.836711
v -4.300440 1.741853 -4.722221
v -4.300440 0.814979 -4.722221
v -4.300440 0.814979 -4.722221
v -4.300440 0.814979 -4.836711
v -5.636255 0.814979 -4.722221
v -5.636255 0.814979 -4.836711
v -5.636255 0.814979 -4.836711
v -5.636255 1.741853 -4.836711
v -5.636255 0.814979 -4.722221
v -5.636255 1.741853 -4.722221
v -4.300440 0.814979 -4.722221
v -5.636255 0.814979 -4.722221
v -4.300440 1.741853 -4.722221
v -5.636255 1.741853 -4.722221
v -5.636255 1.741853 -4.836711
v -4.300440 1.741853 -4.836711
v -5.636255 1.741853 -4.722221
v -4.300440 1.741853 -4.722221
v -2.441475 1.704507 -4.836711
v -2.441475 0.777632 -4.836711
v -2.441475 1.704507 -4.722221
v -2.441475 0.777632 -4.722221
v -3.117165 0.777632 -4.722221
v -2.441475 0.777632 -4.722221
v -3.117165 0.777632 -4.836711
v -2.441475 0.777632 -4.836711
v -3.117165 0.777632 -4.836711
v -3.117165 1.704507 -4.836711
v -3.117165 0.777632 -4.722221
v -3.117165 1.704507 -4.722221
v -3.117165 0.777632 -4.722221
v -3.117165 1.704507 -4.722221
v -2.441475 0.777632 -4.722221
v -2.441475 1.704507 -4.722221
v -3.117165 1.704507 -4.836711
v -2.441475 1.704507 -4.836711
v -3.117165 1.704507 -4.722221
v -2.441475 1.704507 -4.722221
v -2.439328 3.747924 -4.836711
v -2.439328 2.840874 -4.836711
v -2.439328 3.747924 -4.722221
v -2.439328 2.840874 -4.722221
v -3.115018 2.840874 -4.722221
v -2.439328 2.840874 -4.722221
v -3.115018 2.840874 -4.836711
v -2.439328 2.840874 -4.836711
v -3.115018 2.840874 -4.836711
v -3.115018 3.747924 -4.836711
v -3.115018 2.840874 -4.722221
v -3.115018 3.747924 -4.722221
v -2.439328 2.840874 -4.722221
v -3.115018 2.840874 -4.722221
v -2.439328 3.747924 -4.722221
v -3.115018 3.747924 -4.722221
v -3.115018 3.747924 -4.836711
v -2.439328 3.747924 -4.836711
v -3.115018 3.747924 -4.722221
v -2.439328 3.747924 -4.722221
v -0.782852 3.747924 -4.836711
v -0.782852 2.840874 -4.836711
v -0.782852 3.747924 -4.722221
v -0.782852 2.840874 -4.722221
v -0.782852 2.840874 -4.722221
v -0.782852 2.840874 -4.836711
v -1.495607 2.840874 -4.722221
v -1.495607 2.840874 -4.836711
v -1.495607 2.840874 -4.836711
v -1.495607 3.747924 -4.836711
v -1.495607 2.840874 -4.722221
v -1.495607 3.747924 -4.722221
v -0.782852 2.840874 -4.722221
v -1.495607 2.840874 -4.722221
v -0.782852 3.747924 -4.722221
v -1.495607 3.747924 -4.722221
v -1.495607 3.747924 -4.836711
v -0.782852 3.747924 -4.836711
v -1.495607 3.747924 -4.722221
v -0.782852 3.747924 -4.722221
v -0.808632 0.796408 -4.836711
v -0.808632 0.796408 -4.722221
v -0.808632 1.723282 -4.836711
v -0.808632 1.723282 -4.722221
v -1.467138 0.796408 -4.722221
v -0.808632 0.796408 -4.722221
v -1.467138 0.796408 -4.836711
v -0.808632 0.796408 -4.836711
v -1.467138 1.723282 -4.836711
v -1.467138 1.723282 -4.722221
v -1.467138 0.796408 -4.836711
v -1.467138 0.796408 -4.722221
v -0.808632 0.796408 -4.722221
v -1.467138 0.796408 -4.722221
v -0.808632 1.723282 -4.722221
v -1.467138 1.723282 -4.722221
v -1.467138 1.723282 -4.836711
v -0.808632 1.723282 -4.836711
v -1.467138 1.723282 -4.722221
v -0.808632 1.723282 -4.722221
v 1.590139 0.814979 -4.836711
v 1.590139 0.814979 -4.722221
v 1.590139 1.741853 -4.836711
v 1.590139 1.741853 -4.722221
v 0.253789 0.814979 -4.722221
v 1.590139 0.814979 -4.722221
v 0.253789 0.814979 -4.836711
v 1.590139 0.814979 -4.836711
v 0.253789 1.741853 -4.836711
v 0.253789 1.741853 -4.722221
v 0.253789 0.814979 -4.836711
v 0.253789 0.814979 -4.722221
v 1.590139 0.814979 -4.722221
v 0.253789 0.814979 -4.722221
v 1.590139 1.741853 -4.722221
v 0.253789 1.741853 -4.722221
v 1.590139 1.741853 -4.722221
v 0.253789 1.741853 -4.722221
v 1.590139 1.741853 -4.836711
v 0.253789 1.741853 -4.836711
v 1.583155 2.828773 -4.836711
v 1.583155 2.828773 -4.722221
v 1.583155 3.755647 -4.836711
v 1.583155 3.755647 -4.722221
v 1.583155 2.828773 -4.836711
v 0.246805 2.828773 -4.836711
v 1.583155 2.828773 -4.722221
v 0.246805 2.828773 -4.722221
v 0.246805 3.755647 -4.836711
v 0.246805 3.755647 -4.722221
v 0.246805 2.828773 -4.836711
v 0.246805 2.828773 -4.722221
v 1.583155 2.828773 -4.722221
v 0.246805 2.828773 -4.722221
v 1.583155 3.755647 -4.722221
v 0.246805 3.755647 -4.722221
v 1.583155 3.755647 -4.722221
v 0.246805 3.755647 -4.722221
v 1.583155 3.755647 -4.836711
v 0.246805 3.755647 -4.836711
v 3.389490 3.775260 -4.836711
v 3.389490 2.840874 -4.836711
v 3.389490 3.775260 -4.722221
v 3.389490 2.840874 -4.722221
v 2.676727 2.840874 -4.722221
v 3.389490 2.840874 -4.722221
v 2.676727 2.840874 -4.836711
v 3.389490 2.840874 -4.836711
v 2.676727 2.840874 -4.836711
v 2.676727 3.775260 -4.836711
v 2.676727 2.840874 -4.722221
v 2.676727 3.775260 -4.722221
v 3.389490 2.840874 -4.722221
v 2.676727 2.840874 -4.722221
v 3.389490 3.775260 -4.722221
v 2.676727 3.775260 -4.722221
v 2.676727 3.775260 -4.836711
v 3.389490 3.775260 -4.836711
v 2.676727 3.775260 -4.722221
v 3.389490 3.775260 -4.722221
v 5.854865 3.763996 -4.836711
v 5.854865 2.837122 -4.836711
v 5.854865 3.763996 -4.722221
v 5.854865 2.837122 -4.722221
v 4.518507 2.837122 -4.722221
v 5.854865 2.837122 -4.722221
v 4.518507 2.837122 -4.836711
v 5.854865 2.837122 -4.836711
v 4.518507 2.837122 -4.836711
v 4.518507 3.763996 -4.836711
v 4.518507 2.837122 -4.722221
v 4.518507 3.763996 -4.722221
v 5.854865 2.837122 -4.722221
v 4.518507 2.837122 -4.722221
v 5.854865 3.763996 -4.722221
v 4.518507 3.763996 -4.722221
v 5.854865 3.763996 -4.836711
v 5.854865 3.763996 -4.722221
v 4.518507 3.763996 -4.836711
v 4.518507 3.763996 -4.722221
v 5.837139 0.814979 -4.836711
v 5.837139 0.814979 -4.722221
v 5.837139 1.741853 -4.836711
v 5.837139 1.741853 -4.722221
v 4.501323 0.814979 -4.722221
v 5.837139 0.814979 -4.722221
v 4.501323 0.814979 -4.836711
v 5.837139 0.814979 -4.836711
v 4.501323 1.741853 -4.836711
v 4.501323 1.741853 -4.722221
v 4.501323 0.814979 -4.836711
v 4.501323 0.814979 -4.722221
v 5.837139 0.814979 -4.722221
v 4.501323 0.814979 -4.722221
v 5.837139 1.741853 -4.722221
v 4.501323 1.741853 -4.722221
v 5.837139 1.741853 -4.836711
v 5.837139 1.741853 -4.722221
v 4.501323 1.741853 -4.836711
v 4.501323 1.741853 -4.722221
v 7.626817 1.778785 -4.836711
v 7.626817 0.851911 -4.836711
v 7.626817 1.778785 -4.722221
v 7.626817 0.851911 -4.722221
v 6.968311 0.851911 -4.722221
v 7.626817 0.851911 -4.722221
v 6.968311 0.851911 -4.836711
v 7.626817 0.851911 -4.836711
v 6.968311 0.851911 -4.836711
v 6.968311 1.778785 -4.836711
v 6.968311 0.851911 -4.722221
v 6.968311 1.778785 -4.722221
v 7.626817 0.851911 -4.722221
v 6.968311 0.851911 -4.722221
v 7.626817 1.778785 -4.722221
v 6.968311 1.778785 -4.722221
v 6.968311 1.778785 -4.836711
v 7.626817 1.778785 -4.836711
v 6.968311 1.778785 -4.722221
v 7.626817 1.778785 -4.722221
v 7.664952 3.783194 -4.836711
v 7.664952 2.848801 -4.836711
v 7.664952 3.783194 -4.722221
v 7.664952 2.848801 -4.722221
v 6.952196 2.848801 -4.722221
v 7.664952 2.848801 -4.722221
v 6.952196 2.848801 -4.836711
v 7.664952 2.848801 -4.836711
v 6.952196 2.848801 -4.836711
v 6.952196 3.783194 -4.836711
v 6.952196 2.848801 -4.722221
v 6.952196 3.783194 -4.722221
v 7.664952 2.848801 -4.722221
v 6.952196 2.848801 -4.722221
v 7.664952 3.783194 -4.722221
v 6.952196 3.783194 -4.722221
v 6.952196 3.783194 -4.836711
v 7.664952 3.783194 -4.836711
v 6.952196 3.783194 -4.722221
v 7.664952 3.783194 -4.722221
v -8.566236 0.814979 -3.964917
v -8.482446 0.814979 -3.964917
v -8.566236 1.741853 -3.964918
v -8.482446 1.741853 -3.964918
v -8.482446 0.814979 -2.681036
v -8.482446 0.814979 -3.964917
v -8.566236 0.814979 -2.681036
v -8.566236 0.814979 -3.964917
v -8.566236 1.741853 -2.681036
v -8.482446 1.741853 -2.681036
v -8.566236 0.814979 -2.681036
v -8.482446 0.814979 -2.681036
v -8.482446 0.814979 -3.964917
v -8.482446 0.814979 -2.681036
v -8.482446 1.741853 -3.964918
v -8.482446 1.741853 -2.681036
v -8.566236 1.741853 -2.681036
v -8.566236 1.741853 -3.964918
v -8.482446 1.741853 -2.681036
v -8.482446 1.741853 -3.964918
v -8.566236 0.796408 -1.682495
v -8.482446 0.796408 -1.682495
v -8.566236 1.723282 -1.682495
v -8.482446 1.723282 -1.682495
v -8.482446 0.796408 -1.049481
v -8.482446 0.796408 -1.682495
v -8.566236 0.796408 -1.049481
v -8.566236 0.796408 -1.682495
v -8.566236 1.723282 -1.049481
v -8.482446 1.723282 -1.049481
v -8.566236 0.796408 -1.049481
v -8.482446 0.796408 -1.049481
v -8.482446 0.796408 -1.682495
v -8.482446 0.796408 -1.049481
v -8.482446 1.723282 -1.682495
v -8.482446 1.723282 -1.049481
v -8.566236 1.723282 -1.049481
v -8.566236 1.723282 -1.682495
v -8.482446 1.723282 -1.049481
v -8.482446 1.723282 -1.682495
v -8.566236 1.704507 -0.193442
v -8.566236 0.777633 -0.193442
v -8.482446 1.704507 -0.193442
v -8.482446 0.777633 -0.193442
v -8.482446 0.777633 0.455679
v -8.482446 0.777633 -0.193442
v -8.566236 0.777633 0.455679
v -8.566236 0.777633 -0.193442
v -8.566236 0.777633 0.455679
v -8.566236 1.704507 0.455679
v -8.482446 0.777633 0.455679
v -8.482446 1.704507 0.455679
v -8.482446 0.777633 -0.193442
v -8.482446 0.777633 0.455679
v -8.482446 1.704507 -0.193442
v -8.482446 1.704507 0.455679
v -8.566236 1.704507 0.455679
v -8.566236 1.704507 -0.193442
v -8.482446 1.704507 0.455679
v -8.482446 1.704507 -0.193442
v -8.566236 1.741854 1.558206
v -8.566236 0.814980 1.558206
v -8.482446 1.741854 1.558206
v -8.482446 0.814980 1.558206
v -8.482446 0.814980 2.842440
v -8.482446 0.814980 1.558206
v -8.566236 0.814980 2.842440
v -8.566236 0.814980 1.558206
v -8.566236 0.814980 2.842440
v -8.566236 1.741854 2.842440
v -8.482446 0.814980 2.842440
v -8.482446 1.741854 2.842440
v -8.482446 0.814980 1.558206
v -8.482446 0.814980 2.842440
v -8.482446 1.741854 1.558206
v -8.482446 1.741854 2.842440
v -8.566236 1.741854 2.842440
v -8.566236 1.741854 1.558206
v -8.482446 1.741854 2.842440
v -8.482446 1.741854 1.558206
v -8.566236 1.686562 3.809814
v -8.566236 0.793072 3.809814
v -8.482446 1.686562 3.809814
v -8.482446 0.793072 3.809814
v -8.482446 0.793072 4.458936
v -8.482446 0.793072 3.809814
v -8.566236 0.793072 4.458936
v -8.566236 0.793072 3.809814
v -8.566236 0.793072 4.458936
v -8.566236 1.686562 4.458936
v -8.482446 0.793072 4.458936
v -8.482446 1.686562 4.458936
v -8.482446 0.793072 3.809814
v -8.482446 0.793072 4.458936
v -8.482446 1.686562 3.809814
v -8.482446 1.686562 4.458936
v -8.566236 1.686562 4.458936
v -8.566236 1.686562 3.809814
v -8.482446 1.686562 4.458936
v -8.482446 1.686562 3.809814
v -8.566236 2.797685 3.809814
v -8.482446 2.797685 3.809814
v -8.566236 3.704735 3.809814
v -8.482446 3.704735 3.809814
v -8.482446 2.797685 4.458936
v -8.482446 2.797685 3.809814
v -8.566236 2.797685 4.458936
v -8.566236 2.797685 3.809814
v -8.566236 3.704735 4.458936
v -8.482446 3.704735 4.458936
v -8.566236 2.797685 4.458936
v -8.482446 2.797685 4.458936
v -8.482446 2.797685 3.809814
v -8.482446 2.797685 4.458936
v -8.482446 3.704735 3.809814
v -8.482446 3.704735 4.458936
v -8.566236 3.704735 4.458936
v -8.566236 3.704735 3.809814
v -8.482446 3.704735 4.458936
v -8.482446 3.704735 3.809814
v -8.566236 3.735619 1.540698
v -8.566236 2.808745 1.540698
v -8.482446 3.735619 1.540698
v -8.482446 2.808745 1.540698
v -8.482446 2.808745 1.540698
v -8.566236 2.808745 1.540698
v -8.482446 2.808745 2.824579
v -8.566236 2.808745 2.824579
v -8.566236 2.808745 2.824579
v -8.566236 3.735619 2.824579
v -8.482446 2.808745 2.824579
v -8.482446 3.735619 2.824579
v -8.482446 2.808745 1.540698
v -8.482446 2.808745 2.824579
v -8.482446 3.735619 1.540698
v -8.482446 3.735619 2.824579
v -8.566236 3.735619 2.824579
v -8.566236 3.735619 1.540698
v -8.482446 3.735619 2.824579
v -8.482446 3.735619 1.540698
v -8.566236 3.747931 -0.195540
v -8.566236 2.840875 -0.195540
v -8.482446 3.747931 -0.195540
v -8.482446 2.840875 -0.195540
v -8.482446 2.840875 0.453581
v -8.482446 2.840875 -0.195540
v -8.566236 2.840875 0.453581
v -8.566236 2.840875 -0.195540
v -8.566236 2.840875 0.453581
v -8.566236 3.747931 0.453581
v -8.482446 2.840875 0.453581
v -8.482446 3.747931 0.453581
v -8.482446 2.840875 -0.195540
v -8.482446 2.840875 0.453581
v -8.482446 3.747931 -0.195540
v -8.482446 3.747931 0.453581
v -8.566236 3.747931 0.453581
v -8.566236 3.747931 -0.195540
v -8.482446 3.747931 0.453581
v -8.482446 3.747931 -0.195540
v -8.566236 3.747931 -1.706656
v -8.566236 2.840874 -1.706656
v -8.482446 3.747931 -1.706656
v -8.482446 2.840874 -1.706656
v -8.482446 2.840874 -1.021821
v -8.482446 2.840874 -1.706656
v -8.566236 2.840874 -1.021821
v -8.566236 2.840874 -1.706656
v -8.566236 2.840874 -1.021821
v -8.566236 3.747931 -1.021821
v -8.482446 2.840874 -1.021821
v -8.482446 3.747931 -1.021821
v -8.482446 2.840874 -1.706656
v -8.482446 2.840874 -1.021821
v -8.482446 3.747931 -1.706656
v -8.482446 3.747931 -1.021821
v -8.566236 3.747931 -1.021821
v -8.566236 3.747931 -1.706656
v -8.482446 3.747931 -1.021821
v -8.482446 3.747931 -1.706656
v -8.566236 3.755647 -3.957913
v -8.566236 2.828773 -3.957913
v -8.482446 3.755647 -3.957913
v -8.482446 2.828773 -3.957913
v -8.482446 2.828773 -2.674031
v -8.482446 2.828773 -3.957913
v -8.566236 2.828773 -2.674031
v -8.566236 2.828773 -3.957913
v -8.566236 2.828773 -2.674031
v -8.566236 3.755647 -2.674031
v -8.482446 2.828773 -2.674031
v -8.482446 3.755647 -2.674031
v -8.482446 2.828773 -3.957913
v -8.482446 2.828773 -2.674031
v -8.482446 3.755647 -3.957913
v -8.482446 3.755647 -2.674031
v -8.566236 3.755647 -2.674031
v -8.566236 3.755647 -3.957913
v -8.482446 3.755647 -2.674031
v -8.482446 3.755647 -3.957913
v 8.471704 2.797684 -3.117278
v 8.471704 3.704734 -3.117278
v 8.566236 2.797684 -3.117278
v 8.566236 3.704734 -3.117278
v 8.566236 2.797684 -3.117278
v 8.566236 2.797684 -3.766399
v 8.471704 2.797684 -3.117278
v 8.471704 2.797684 -3.766399
v 8.471704 3.704734 -3.766399
v 8.471704 2.797684 -3.766399
v 8.566236 3.704734 -3.766399
v 8.566236 2.797684 -3.766399
v 8.471704 3.704734 -3.766399
v 8.566236 3.704734 -3.766399
v 8.471704 3.704734 -3.117278
v 8.566236 3.704734 -3.117278
v 8.471704 3.704734 -3.766399
v 8.471704 3.704734 -3.117278
v 8.471704 2.797684 -3.766399
v 8.471704 2.797684 -3.117278
v 8.471704 0.793071 -3.110280
v 8.471704 1.686562 -3.110280
v 8.566236 0.793071 -3.110280
v 8.566236 1.686562 -3.110280
v 8.566236 0.793071 -3.110280
v 8.566236 0.793071 -3.759401
v 8.471704 0.793071 -3.110280
v 8.471704 0.793071 -3.759401
v 8.471704 1.686562 -3.759401
v 8.471704 0.793071 -3.759401
v 8.566236 1.686562 -3.759401
v 8.566236 0.793071 -3.759401
v 8.471704 1.686562 -3.759401
v 8.471704 1.686562 -3.110280
v 8.471704 0.793071 -3.759401
v 8.471704 0.793071 -3.110280
v 8.471704 1.686562 -3.110280
v 8.471704 1.686562 -3.759401
v 8.566236 1.686562 -3.110280
v 8.566236 1.686562 -3.759401
v 8.471704 0.814980 -0.849914
v 8.471704 1.741854 -0.849914
v 8.566236 0.814980 -0.849914
v 8.566236 1.741854 -0.849914
v 8.566236 0.814980 -0.849914
v 8.566236 0.814979 -2.133795
v 8.471704 0.814980 -0.849914
v 8.471704 0.814979 -2.133795
v 8.471704 1.741853 -2.133795
v 8.471704 0.814979 -2.133795
v 8.566236 1.741853 -2.133795
v 8.566236 0.814979 -2.133795
v 8.471704 1.741853 -2.133795
v 8.471704 1.741854 -0.849914
v 8.471704 0.814979 -2.133795
v 8.471704 0.814980 -0.849914
v 8.471704 1.741854 -0.849914
v 8.471704 1.741853 -2.133795
v 8.566236 1.741854 -0.849914
v 8.566236 1.741853 -2.133795
v 8.471704 2.808744 -0.832061
v 8.471704 3.735619 -0.832061
v 8.566236 2.808744 -0.832061
v 8.566236 3.735619 -0.832061
v 8.566236 2.808744 -0.832061
v 8.566236 2.808744 -2.116294
v 8.471704 2.808744 -0.832061
v 8.471704 2.808744 -2.116294
v 8.471704 3.735618 -2.116294
v 8.471704 2.808744 -2.116294
v 8.566236 3.735618 -2.116294
v 8.566236 2.808744 -2.116294
v 8.471704 3.735618 -2.116294
v 8.471704 3.735619 -0.832061
v 8.471704 2.808744 -2.116294
v 8.471704 2.808744 -0.832061
v 8.471704 3.735618 -2.116294
v 8.566236 3.735618 -2.116294
v 8.471704 3.735619 -0.832061
v 8.566236 3.735619 -0.832061
v 8.471704 3.747924 0.881072
v 8.566236 3.747924 0.881072
v 8.471704 2.840875 0.881072
v 8.566236 2.840875 0.881072
v 8.566236 2.840875 0.231951
v 8.471704 2.840875 0.231951
v 8.566236 2.840875 0.881072
v 8.471704 2.840875 0.881072
v 8.471704 2.840875 0.231951
v 8.566236 2.840875 0.231951
v 8.471704 3.747924 0.231951
v 8.566236 3.747924 0.231951
v 8.471704 3.747924 0.231951
v 8.471704 3.747924 0.881072
v 8.471704 2.840875 0.231951
v 8.471704 2.840875 0.881072
v 8.471704 3.747924 0.231951
v 8.566236 3.747924 0.231951
v 8.471704 3.747924 0.881072
v 8.566236 3.747924 0.881072
v 8.471704 0.777626 0.881073
v 8.471704 1.704507 0.881073
v 8.566236 0.777626 0.881073
v 8.566236 1.704507 0.881073
v 8.566236 0.777626 0.881073
v 8.566236 0.777626 0.232303
v 8.471704 0.777626 0.881073
v 8.471704 0.777626 0.232303
v 8.471704 1.704507 0.232303
v 8.471704 0.777626 0.232303
v 8.566236 1.704507 0.232303
v 8.566236 0.777626 0.232303
v 8.471704 1.704507 0.232303
v 8.471704 1.704507 0.881073
v 8.471704 0.777626 0.232303
v 8.471704 0.777626 0.881073
v 8.471704 1.704507 0.881073
v 8.471704 1.704507 0.232303
v 8.566236 1.704507 0.881073
v 8.566236 1.704507 0.232303
v 8.471704 0.796408 2.394983
v 8.471704 1.723282 2.394983
v 8.566236 0.796408 2.394983
v 8.566236 1.723282 2.394983
v 8.566236 0.796408 2.394983
v 8.566236 0.796408 1.761969
v 8.471704 0.796408 2.394983
v 8.471704 0.796408 1.761969
v 8.471704 1.723282 1.761969
v 8.471704 0.796408 1.761969
v 8.566236 1.723282 1.761969
v 8.566236 0.796408 1.761969
v 8.471704 1.723282 1.761969
v 8.471704 1.723282 2.394983
v 8.471704 0.796408 1.761969
v 8.471704 0.796408 2.394983
v 8.471704 1.723282 2.394983
v 8.471704 1.723282 1.761969
v 8.566236 1.723282 2.394983
v 8.566236 1.723282 1.761969
v 8.471704 3.747924 2.429648
v 8.566236 3.747924 2.429648
v 8.471704 2.840875 2.429648
v 8.566236 2.840875 2.429648
v 8.566236 2.840875 1.744820
v 8.471704 2.840875 1.744820
v 8.566236 2.840875 2.429648
v 8.471704 2.840875 2.429648
v 8.471704 2.840875 1.744820
v 8.566236 2.840875 1.744820
v 8.471704 3.747924 1.744820
v 8.566236 3.747924 1.744820
v 8.471704 3.747924 2.429648
v 8.471704 2.840875 2.429648
v 8.471704 3.747924 1.744820
v 8.471704 2.840875 1.744820
v 8.471704 3.747924 1.744820
v 8.566236 3.747924 1.744820
v 8.471704 3.747924 2.429648
v 8.566236 3.747924 2.429648
v 8.471704 2.828773 4.672160
v 8.471704 3.755647 4.672160
v 8.566236 2.828773 4.672160
v 8.566236 3.755647 4.672160
v 8.566236 2.828773 4.672160
v 8.566236 2.828773 3.388272
v 8.471704 2.828773 4.672160
v 8.471704 2.828773 3.388272
v 8.471704 3.755647 3.388272
v 8.471704 2.828773 3.388272
v 8.566236 3.755647 3.388272
v 8.566236 2.828773 3.388272
v 8.471704 3.755647 3.388272
v 8.471704 3.755647 4.672160
v 8.471704 2.828773 3.388272
v 8.471704 2.828773 4.672160
v 8.471704 3.755647 4.672160
v 8.471704 3.755647 3.388272
v 8.566236 3.755647 4.672160
v 8.566236 3.755647 3.388272
v 8.471704 0.814980 4.673555
v 8.471704 1.741854 4.673554
v 8.566236 0.814980 4.673555
v 8.566236 1.741854 4.673554
v 8.566236 0.814980 3.389321
v 8.471704 0.814980 3.389321
v 8.566236 0.814980 4.673555
v 8.471704 0.814980 4.673555
v 8.471704 1.741854 3.389321
v 8.471704 0.814980 3.389321
v 8.566236 1.741854 3.389321
v 8.566236 0.814980 3.389321
v 8.471704 1.741854 3.389321
v 8.471704 1.741854 4.673554
v 8.471704 0.814980 3.389321
v 8.471704 0.814980 4.673555
v 8.471704 1.741854 3.389321
v 8.566236 1.741854 3.389321
v 8.471704 1.741854 4.673554
v 8.566236 1.741854 4.673554
v 2.829275 0.086750 -4.723622
v 2.829275 0.086750 -4.896585
v 2.829275 0.423948 -4.896585
v 2.829275 0.086750 -4.723622
v 2.829275 0.423948 -4.896585
v 2.829275 0.486962 -4.836711
v 2.829275 0.086750 -4.723622
v 2.829275 0.486962 -4.836711
v 2.829275 1.727041 -4.723622
v 2.829275 1.727041 -4.836711
v -8.566236 0.777633 -0.193442
v -8.566236 1.704507 -0.193442
v -8.566236 0.796408 -1.049481
v -8.566236 1.723282 -1.049481
v -8.566236 2.840875 -0.195540
v -8.566236 2.840875 0.453581
v -8.566236 1.704507 0.455679
v -8.566236 0.486962 5.528896
v -8.566236 0.796408 -1.682495
v -8.566236 0.814979 -2.681036
v -8.566236 1.723282 -1.682495
v -8.566236 1.741853 -2.681036
v -8.566236 2.840874 -1.706656
v -8.566236 2.840874 -1.021821
v -8.566236 3.747931 -1.021821
v -8.566236 3.747931 -0.195540
v -8.566236 4.248511 5.528896
v -8.566236 3.747931 0.453581
v -8.566236 3.735619 1.540698
v -8.566236 2.808745 1.540698
v -8.566236 1.741854 1.558206
v -8.566236 0.814980 1.558206
v -8.566236 0.777633 0.455679
v -8.566236 3.747931 -1.706656
v -8.566236 2.808745 2.824579
v -8.566236 0.814980 2.842440
v -8.566236 0.793072 3.809814
v -8.566236 1.686562 3.809814
v -8.566236 0.793072 4.458936
v -8.566236 1.686562 4.458936
v -8.566236 3.704735 4.458936
v -8.566236 2.797685 4.458936
v -8.566236 2.797685 3.809814
v -8.566236 1.741854 2.842440
v -8.566236 3.704735 3.809814
v -8.566236 3.735619 2.824579
v -8.566236 4.248510 -4.836711
v -8.566236 3.755647 -3.957913
v -8.566236 0.486962 -4.836711
v -8.566236 3.755647 -2.674031
v -8.566236 2.828773 -2.674031
v -8.566236 2.828773 -3.957913
v -8.566236 1.741853 -3.964918
v -8.566236 0.814979 -3.964917
v 3.763323 0.086750 -4.896585
v 3.763323 0.086750 -4.723622
v 3.763323 0.423948 -4.896585
v 3.763323 0.486962 -4.836711
v 3.763323 1.727041 -4.723622
v 3.763323 1.727041 -4.836711
v -8.615114 0.423948 -4.896585
v 2.829275 0.423948 -4.896585
v 2.829275 0.086750 -4.896585
v -8.615114 -0.064946 -4.896585
v -8.615114 0.423948 -4.896585
v 2.829275 0.086750 -4.896585
v -8.615114 -0.064946 -4.896585
v 2.829275 0.086750 -4.896585
v 3.763323 0.086750 -4.896585
v 8.616191 -0.064946 -4.896585
v -8.615114 -0.064946 -4.896585
v 3.763323 0.086750 -4.896585
v 8.616191 0.423948 -4.896585
v 8.616191 -0.064946 -4.896585
v 3.763323 0.086750 -4.896585
v 8.616191 0.423948 -4.896585
v 3.763323 0.423948 -4.896585
v -3.117165 1.704507 -4.836711
v -4.281643 2.808744 -4.836711
v -3.115018 2.840874 -4.836711
v -4.281643 3.735618 -4.836711
v -4.300440 1.741853 -4.836711
v -5.617993 2.808744 -4.836711
v -5.636255 1.741853 -4.836711
v -6.753995 2.797684 -4.836711
v -6.753995 1.686562 -4.836711
v -4.300440 0.814979 -4.836711
v -6.753995 3.704734 -4.836711
v -5.617993 3.735618 -4.836711
v -8.566236 4.248510 -4.836711
v -7.429157 3.704734 -4.836711
v -8.566236 0.486962 -4.836711
v -7.429157 2.797684 -4.836711
v -7.429157 1.686562 -4.836711
v -7.429157 0.793071 -4.836711
v 2.829275 0.486962 -4.836711
v -6.753995 0.793071 -4.836711
v -5.636255 0.814979 -4.836711
v -3.117165 0.777632 -4.836711
v -2.441475 0.777632 -4.836711
v -1.467138 0.796408 -4.836711
v -2.441475 1.704507 -4.836711
v -1.467138 1.723282 -4.836711
v -1.495607 2.840874 -4.836711
v -0.808632 1.723282 -4.836711
v -0.782852 2.840874 -4.836711
v 0.246805 2.828773 -4.836711
v -0.782852 3.747924 -4.836711
v 0.246805 3.755647 -4.836711
v 1.583155 3.755647 -4.836711
v 2.676727 3.775260 -4.836711
v 2.676727 2.840874 -4.836711
v 1.583155 2.828773 -4.836711
v 1.590139 1.741853 -4.836711
v 2.829275 1.727041 -4.836711
v 1.590139 0.814979 -4.836711
v 0.253789 0.814979 -4.836711
v -0.808632 0.796408 -4.836711
v 0.253789 1.741853 -4.836711
v -1.495607 3.747924 -4.836711
v 3.389490 2.840874 -4.836711
v 3.763323 1.727041 -4.836711
v 4.518507 2.837122 -4.836711
v 4.518507 3.763996 -4.836711
v 3.389490 3.775260 -4.836711
v 5.854865 3.763996 -4.836711
v 6.952196 3.783194 -4.836711
v 7.664952 3.783194 -4.836711
v 8.566236 4.248504 -4.836711
v 8.566236 0.486962 -4.836711
v 7.664952 2.848801 -4.836711
v 7.626817 0.851911 -4.836711
v 7.626817 1.778785 -4.836711
v 6.952196 2.848801 -4.836711
v 6.968311 1.778785 -4.836711
v 5.854865 2.837122 -4.836711
v 5.837139 1.741853 -4.836711
v 4.501323 1.741853 -4.836711
v 4.501323 0.814979 -4.836711
v 3.763323 0.486962 -4.836711
v 5.837139 0.814979 -4.836711
v 6.968311 0.851911 -4.836711
v -3.115018 3.747924 -4.836711
v -2.439328 3.747924 -4.836711
v -2.439328 2.840874 -4.836711
v 8.566236 4.248504 5.528896
v 8.566236 0.486962 5.528896
v 8.566236 3.755647 4.672160
v 8.566236 2.828773 4.672160
v 8.566236 1.741854 4.673554
v 8.566236 1.741854 3.389321
v 8.566236 2.828773 3.388272
v 8.566236 2.840875 2.429648
v 8.566236 3.747924 2.429648
v 8.566236 3.755647 3.388272
v 8.566236 4.248504 -4.836711
v 8.566236 0.814980 4.673555
v 8.566236 0.486962 -4.836711
v 8.566236 0.814980 3.389321
v 8.566236 0.796408 2.394983
v 8.566236 1.723282 2.394983
v 8.566236 2.840875 1.744820
v 8.566236 1.723282 1.761969
v 8.566236 2.840875 0.881072
v 8.566236 1.704507 0.881073
v 8.566236 0.796408 1.761969
v 8.566236 0.777626 0.881073
v 8.566236 3.747924 1.744820
v 8.566236 3.747924 0.881072
v 8.566236 3.747924 0.231951
v 8.566236 3.735619 -0.832061
v 8.566236 2.840875 0.231951
v 8.566236 2.808744 -0.832061
v 8.566236 1.704507 0.232303
v 8.566236 1.741854 -0.849914
v 8.566236 0.814980 -0.849914
v 8.566236 0.777626 0.232303
v 8.566236 2.808744 -2.116294
v 8.566236 0.814979 -2.133795
v 8.566236 0.793071 -3.110280
v 8.566236 1.686562 -3.110280
v 8.566236 1.741853 -2.133795
v 8.566236 2.797684 -3.117278
v 8.566236 0.793071 -3.759401
v 8.566236 1.686562 -3.759401
v 8.566236 2.797684 -3.766399
v 8.566236 3.704734 -3.766399
v 8.566236 3.704734 -3.117278
v 8.566236 3.735618 -2.116294
v 2.899639 6.593032 -3.045506
v 2.899639 6.593032 -1.858958
v 2.888889 6.731161 -3.075616
v 2.888889 6.731162 -1.834445
v 2.899639 6.593032 -1.858958
v 3.315902 6.593032 -1.858958
v 2.888889 6.731162 -1.834445
v 3.329869 6.731162 -1.834445
v 3.315902 6.593032 -1.858958
v 3.315902 6.593032 -3.045506
v 3.329869 6.731162 -1.834445
v 3.329869 6.731161 -3.075616
v 3.315902 6.593032 -3.045506
v 2.899639 6.593032 -3.045506
v 3.329869 6.731161 -3.075616
v 2.888889 6.731161 -3.075616
v -3.316437 6.593032 -3.045506
v -3.316437 6.593032 -1.858958
v -3.325032 6.731161 -3.075616
v -3.325032 6.731162 -1.834445
v -3.316437 6.593032 -1.858958
v -2.902321 6.593032 -1.858958
v -3.325032 6.731162 -1.834445
v -2.894260 6.731162 -1.834445
v -2.902321 6.593032 -1.858958
v -2.902321 6.593032 -3.045506
v -2.894260 6.731162 -1.834445
v -2.894260 6.731161 -3.075616
v -2.902321 6.593032 -3.045506
v -3.316437 6.593032 -3.045506
v -2.894260 6.731161 -3.075616
v -3.325032 6.731161 -3.075616
v -3.316437 6.593237 2.569692
v -3.316437 6.593237 3.732439
v -3.325032 6.731163 2.529079
v -3.325032 6.731163 3.765350
v -3.316437 6.593237 3.732439
v -2.902321 6.593032 3.732439
v -3.325032 6.731163 3.765350
v -2.894260 6.731163 3.765350
v -2.902321 6.593032 3.732439
v -2.902321 6.593032 2.569692
v -2.894260 6.731163 3.765350
v -2.894260 6.731163 2.529079
v -2.902321 6.593032 2.569692
v -3.316437 6.593237 2.569692
v -2.894260 6.731163 2.529079
v -3.325032 6.731163 2.529079
v 2.899639 6.593032 2.569692
v 2.899639 6.593032 3.732439
v 2.888889 6.731163 2.529079
v 2.888889 6.731163 3.765350
v 2.899639 6.593032 3.732439
v 3.315902 6.593032 3.732439
v 2.888889 6.731163 3.765350
v 3.329869 6.731163 3.765350
v 3.315902 6.593032 3.732439
v 3.315902 6.593032 2.569692
v 3.329869 6.731163 3.765350
v 3.329869 6.731163 2.529079
v 3.315902 6.593032 2.569692
v 2.899639 6.593032 2.569692
v 3.329869 6.731163 2.529079
v 2.888889 6.731163 2.529079
v 2.925954 6.576340 -2.987736
v 2.925954 6.576340 -1.922324
v 2.899639 6.593032 -1.858958
v 2.899639 6.593032 -1.858958
v 2.899639 6.593032 -3.045506
v 2.925954 6.576340 -2.987736
v 2.925954 6.576340 -1.922324
v 3.292804 6.576340 -1.922324
v 3.315902 6.593032 -1.858958
v 3.315902 6.593032 -1.858958
v 2.899639 6.593032 -1.858958
v 2.925954 6.576340 -1.922324
v 3.292804 6.576340 -1.922324
v 3.292804 6.576340 -2.987736
v 3.315902 6.593032 -3.045506
v 3.315902 6.593032 -3.045506
v 3.315902 6.593032 -1.858958
v 3.292804 6.576340 -1.922324
v 3.292804 6.576340 -2.987736
v 2.925954 6.576340 -2.987736
v 2.899639 6.593032 -3.045506
v 2.899639 6.593032 -3.045506
v 3.315902 6.593032 -3.045506
v 3.292804 6.576340 -2.987736
v -3.292804 6.576340 -2.987736
v -3.292804 6.576340 -1.922324
v -3.316437 6.593032 -1.858958
v -3.316437 6.593032 -1.858958
v -3.316437 6.593032 -3.045506
v -3.292804 6.576340 -2.987736
v -3.292804 6.576340 -1.922324
v -2.925954 6.576340 -1.922324
v -2.902321 6.593032 -1.858958
v -2.902321 6.593032 -1.858958
v -3.316437 6.593032 -1.858958
v -2.925954 6.576340 -1.922324
v -2.925954 6.576340 -2.987736
v -2.902321 6.593032 -3.045506
v -2.902321 6.593032 -3.045506
v -2.902321 6.593032 -1.858958
v -2.925954 6.576340 -2.987736
v -3.292804 6.576340 -2.987736
v -3.316437 6.593032 -3.045506
v -3.316437 6.593032 -3.045506
v -2.902321 6.593032 -3.045506
v -2.925954 6.576340 -2.987736
v -3.292804 6.576341 2.614508
v -3.292804 6.576341 3.679921
v -3.316437 6.593237 3.732439
v -3.316437 6.593237 3.732439
v -3.316437 6.593237 2.569692
v -3.292804 6.576341 2.614508
v -3.292804 6.576341 3.679921
v -2.925954 6.576341 3.679921
v -2.902321 6.593032 3.732439
v -2.902321 6.593032 3.732439
v -3.316437 6.593237 3.732439
v -3.292804 6.576341 3.679921
v -2.925954 6.576341 3.679921
v -2.925954 6.576341 2.614508
v -2.902321 6.593032 2.569692
v -2.902321 6.593032 2.569692
v -2.902321 6.593032 3.732439
v -2.925954 6.576341 3.679921
v -2.925954 6.576341 2.614508
v -3.292804 6.576341 2.614508
v -3.316437 6.593237 2.569692
v -3.316437 6.593237 2.569692
v -2.902321 6.593032 2.569692
v -2.925954 6.576341 2.614508
v 2.925954 6.576341 2.614508
v 2.925954 6.576341 3.679921
v 2.899639 6.593032 3.732439
v 2.899639 6.593032 3.732439
v 2.899639 6.593032 2.569692
v 2.925954 6.576341 2.614508
v 2.925954 6.576341 3.679921
v 3.292804 6.576341 3.679921
v 3.315902 6.593032 3.732439
v 3.315902 6.593032 3.732439
v 2.899639 6.593032 3.732439
v 2.925954 6.576341 3.679921
v 3.292804 6.576341 3.679921
v 3.292804 6.576341 2.614508
v 3.315902 6.593032 2.569692
v 3.315902 6.593032 2.569692
v 3.315902 6.593032 3.732439
v 3.292804 6.576341 3.679921
v 3.292804 6.576341 2.614508
v 2.925954 6.576341 2.614508
v 2.899639 6.593032 2.569692
v 2.899639 6.593032 2.569692
v 3.315902 6.593032 2.569692
v 3.292804 6.576341 2.614508
v 2.925954 5.338345 -1.922324
v 2.925954 6.576340 -1.922324
v 2.925954 5.338345 -2.987736
v 2.925954 6.576340 -2.987736
v 3.292804 5.338345 -1.922324
v 3.292804 6.576340 -1.922324
v 2.925954 5.338345 -1.922324
v 2.925954 6.576340 -1.922324
v 3.292804 5.338345 -2.987736
v 3.292804 6.576340 -2.987736
v 3.292804 5.338345 -1.922324
v 3.292804 6.576340 -1.922324
v 2.925954 5.338345 -2.987736
v 2.925954 6.576340 -2.987736
v 3.292804 5.338345 -2.987736
v 3.292804 6.576340 -2.987736
v -3.292804 5.338345 -1.922324
v -3.292804 6.576340 -1.922324
v -3.292804 5.338345 -2.987736
v -3.292804 6.576340 -2.987736
v -2.925954 5.338345 -1.922324
v -2.925954 6.576340 -1.922324
v -3.292804 5.338345 -1.922324
v -3.292804 6.576340 -1.922324
v -2.925954 5.338345 -2.987736
v -2.925954 6.576340 -2.987736
v -2.925954 5.338345 -1.922324
v -2.925954 6.576340 -1.922324
v -3.292804 5.338345 -2.987736
v -3.292804 6.576340 -2.987736
v -2.925954 5.338345 -2.987736
v -2.925954 6.576340 -2.987736
v -3.292804 5.338345 3.679921
v -3.292804 6.576341 3.679921
v -3.292804 5.338345 2.614508
v -3.292804 6.576341 2.614508
v -2.925954 5.338345 3.679921
v -2.925954 6.576341 3.679921
v -3.292804 5.338345 3.679921
v -3.292804 6.576341 3.679921
v -2.925954 5.338345 2.614508
v -2.925954 6.576341 2.614508
v -2.925954 5.338345 3.679921
v -2.925954 6.576341 3.679921
v -2.925954 5.338345 2.614508
v -3.292804 5.338345 2.614508
v -3.292804 6.576341 2.614508
v -3.292804 6.576341 2.614508
v -2.925954 6.576341 2.614508
v -2.925954 5.338345 2.614508
v 2.925954 5.338345 3.679921
v 2.925954 6.576341 3.679921
v 2.925954 5.338345 2.614508
v 2.925954 6.576341 2.614508
v 3.292804 5.338345 3.679921
v 3.292804 6.576341 3.679921
v 2.925954 5.338345 3.679921
v 2.925954 6.576341 3.679921
v 3.292804 5.338345 2.614508
v 3.292804 6.576341 2.614508
v 3.292804 5.338345 3.679921
v 3.292804 6.576341 3.679921
v 3.292804 5.338345 2.614508
v 2.925954 5.338345 2.614508
v 2.925954 6.576341 2.614508
v 2.925954 6.576341 2.614508
v 3.292804 6.576341 2.614508
v 3.292804 5.338345 2.614508
v -3.612929 6.749733 0.216547
v -3.612929 5.234224 -3.304595
v -2.625167 6.749733 0.216547
v -2.625167 5.234224 -3.304595
v -2.625167 5.248206 -3.310544
v -3.612929 5.248206 -3.310544
v -2.625167 6.763715 0.210599
v -3.612929 6.763715 0.210599
v -3.612929 5.248206 -3.310544
v -3.612929 5.234224 -3.304595
v -3.612929 6.763715 0.210599
v -3.612929 6.749733 0.216547
v -3.612929 6.763715 0.210599
v -3.612929 6.749733 0.216547
v -2.625167 6.763715 0.210599
v -2.625167 6.749733 0.216547
v -2.625167 6.763715 0.210599
v -2.625167 6.749733 0.216547
v -2.625167 5.248206 -3.310544
v -2.625167 5.234224 -3.304595
v -2.625167 5.248206 -3.310544
v -2.625167 5.234224 -3.304595
v -3.612929 5.248206 -3.310544
v -3.612929 5.234224 -3.304595
v 2.627856 6.749733 0.216547
v 2.627856 5.234224 -3.304595
v 3.603799 6.749733 0.216547
v 3.603799 5.234224 -3.304595
v 3.603799 5.248206 -3.310544
v 2.627856 5.248206 -3.310544
v 3.603799 6.763715 0.210599
v 2.627856 6.763715 0.210599
v 2.627856 5.248206 -3.310544
v 2.627856 5.234224 -3.304595
v 2.627856 6.763715 0.210599
v 2.627856 6.749733 0.216547
v 2.627856 6.763715 0.210599
v 2.627856 6.749733 0.216547
v 3.603799 6.763715 0.210599
v 3.603799 6.749733 0.216547
v 3.603799 6.763715 0.210599
v 3.603799 6.749733 0.216547
v 3.603799 5.248206 -3.310544
v 3.603799 5.234224 -3.304595
v 3.603799 5.248206 -3.310544
v 3.603799 5.234224 -3.304595
v 2.627856 5.248206 -3.310544
v 2.627856 5.234224 -3.304595
v -2.635375 6.758286 0.457432
v -2.641281 5.242778 3.978223
v -3.600574 6.758286 0.456031
v -3.606481 5.242778 3.976822
v -3.606481 5.256760 3.982771
v -2.641281 5.256760 3.984171
v -3.600574 6.772268 0.461980
v -2.635375 6.772268 0.463380
v -2.641281 5.256760 3.984171
v -2.641281 5.242778 3.978223
v -2.635375 6.772268 0.463380
v -2.635375 6.758286 0.457432
v -2.635375 6.772268 0.463380
v -2.635375 6.758286 0.457432
v -3.600574 6.772268 0.461980
v -3.600574 6.758286 0.456031
v -3.600574 6.772268 0.461980
v -3.600574 6.758286 0.456031
v -3.606481 5.256760 3.982771
v -3.606481 5.242778 3.976822
v -3.606481 5.256760 3.982771
v -3.606481 5.242778 3.976822
v -2.641281 5.256760 3.984171
v -2.641281 5.242778 3.978223
v 3.592521 6.757456 0.460234
v 3.586607 5.241948 3.981025
v 2.645041 6.757456 0.458833
v 2.639134 5.241948 3.979624
v 2.639134 5.255718 3.985573
v 3.586607 5.255718 3.987326
v 2.645041 6.771437 0.464781
v 3.592521 6.771437 0.466182
v 3.586607 5.255718 3.987326
v 3.586607 5.241948 3.981025
v 3.592521 6.771437 0.466182
v 3.592521 6.757456 0.460234
v 3.592521 6.771437 0.466182
v 3.592521 6.757456 0.460234
v 2.645041 6.771437 0.464781
v 2.645041 6.757456 0.458833
v 2.645041 6.771437 0.464781
v 2.645041 6.757456 0.458833
v 2.639134 5.255718 3.985573
v 2.639134 5.241948 3.979624
v 2.639134 5.255718 3.985573
v 2.639134 5.241948 3.979624
v 3.586607 5.255718 3.987326
v 3.586607 5.241948 3.981025
v 3.277766 0.828961 -4.780343
v 3.287974 0.838978 -4.782792
v 3.287974 0.824786 -4.780343
v 3.298175 0.828961 -4.780343
v 3.301934 0.838978 -4.780343
v 3.298175 0.848989 -4.780343
v 3.287974 0.853375 -4.780343
v 3.277766 0.848989 -4.780343
v 3.287974 0.865476 -4.772641
v 3.269171 0.857542 -4.772641
v 3.273472 0.838978 -4.780343
v 3.261652 0.838978 -4.772641
v 3.269171 0.820407 -4.772641
v 3.287974 0.812684 -4.772641
v 3.306771 0.820407 -4.772641
v 3.314289 0.838978 -4.772641
v 3.306771 0.857542 -4.772641
v 3.312142 0.863386 -4.761440
v 3.322350 0.838978 -4.761440
v 3.312142 0.814564 -4.761440
v 3.287974 0.804546 -4.761440
v 3.263264 0.814564 -4.761440
v 3.253598 0.838978 -4.761440
v 3.263264 0.863386 -4.761440
v 3.287974 0.873403 -4.761440
v 3.293346 0.844399 -4.748480
v 3.295493 0.838978 -4.748480
v 3.293346 0.833762 -4.748480
v 3.287974 0.831467 -4.748480
v 3.282603 0.833762 -4.748480
v 3.280456 0.838978 -4.748480
v 3.282603 0.844399 -4.748480
v 3.287974 0.846490 -4.748480
v 3.287974 0.831467 -4.735878
v 3.282603 0.833762 -4.735878
v 3.287974 0.831467 -4.748480
v 3.282603 0.833762 -4.748480
v 3.280456 0.838978 -4.735878
v 3.280456 0.838978 -4.748480
v 3.282603 0.844399 -4.735878
v 3.282603 0.844399 -4.748480
v 3.287974 0.846490 -4.735878
v 3.287974 0.846490 -4.748480
v 3.293346 0.844399 -4.735878
v 3.293346 0.844399 -4.748480
v 3.295493 0.838978 -4.735878
v 3.295493 0.838978 -4.748480
v 3.293346 0.833762 -4.735878
v 3.293346 0.833762 -4.748480
v 3.287974 0.831467 -4.735878
v 3.287974 0.831467 -4.748480
v 3.287974 0.831467 -4.735878
v 3.259505 0.810804 -4.722925
v 3.282603 0.833762 -4.735878
v 3.248227 0.838978 -4.722925
v 3.287974 0.799118 -4.722925
v 3.293346 0.833762 -4.735878
v 3.315902 0.810804 -4.722925
v 3.295493 0.838978 -4.735878
v 3.327722 0.838978 -4.722925
v 3.293346 0.844399 -4.735878
v 3.315902 0.867145 -4.722925
v 3.287974 0.846490 -4.735878
v 3.287974 0.878831 -4.722925
v 3.282603 0.844399 -4.735878
v 3.259505 0.867145 -4.722925
v 3.280456 0.838978 -4.735878
v 8.799883 4.483875 -5.043981
v 8.799883 4.483877 5.736165
v -8.799883 4.483875 -5.043981
v -8.799883 4.483877 5.736165
v -4.818224 6.758498 0.453926
v 4.818224 6.758498 0.453926
v -4.818224 6.758498 0.237906
v 4.818224 6.758498 0.237906
v -8.799883 4.483875 -5.043981
v -8.799883 4.483877 5.736165
v -4.818224 6.758498 0.453926
v -4.818224 6.758498 0.237906
v -8.799883 4.483875 -5.043981
v -8.799883 4.483877 5.736165
v 8.799883 4.483877 5.736165
v 4.818224 6.758498 0.453926
v 4.818224 6.758498 0.453926
v -4.818224 6.758498 0.453926
v 8.799883 4.483877 5.736165
v 8.799883 4.483875 -5.043981
v 4.818224 6.758498 0.237906
v 4.818224 6.758498 0.453926
v 8.799883 4.483877 5.736165
v 8.799883 4.483875 -5.043981
v -8.799883 4.483875 -5.043981
v -4.818224 6.758498 0.237906
v -4.818224 6.758498 0.237906
v 4.818224 6.758498 0.237906
v 3.962059 1.757292 -5.264555
v 3.962059 1.757292 -4.734478
v 2.583272 1.757292 -5.264555
v 2.583272 1.757292 -4.734478
v 2.583272 1.846396 -4.734478
v 3.962059 1.846396 -4.734478
v 2.583272 1.846396 -5.264555
v 3.962059 1.846396 -5.264555
v 2.583272 1.757292 -4.734478
v 2.583272 1.846396 -4.734478
v 2.583272 1.757292 -5.264555
v 2.583272 1.846396 -5.264555
v 3.962059 1.757292 -4.734478
v 3.962059 1.846396 -4.734478
v 2.583272 1.757292 -4.734478
v 2.583272 1.846396 -4.734478
v 3.962059 1.757292 -5.264555
v 3.962059 1.846396 -5.264555
v 3.962059 1.757292 -4.734478
v 3.962059 1.846396 -4.734478
v 2.583272 1.757292 -5.264555
v 2.583272 1.846396 -5.264555
v 3.962059 1.757292 -5.264555
v 3.962059 1.846396 -5.264555
v 4.051755 -0.064946 -5.736165
v 4.051755 -0.064946 -4.861569
v 2.494112 -0.064946 -5.736165
v 2.494112 -0.064946 -4.861569
v 2.494112 0.075902 -4.861569
v 4.051755 0.075902 -4.861569
v 2.494112 0.075902 -5.736165
v 4.051755 0.075902 -5.736165
v 2.494112 -0.064946 -4.861569
v 2.494112 0.075902 -4.861569
v 2.494112 -0.064946 -5.736165
v 2.494112 0.075902 -5.736165
v 4.051755 -0.064946 -4.861569
v 4.051755 0.075902 -4.861569
v 2.494112 -0.064946 -4.861569
v 2.494112 0.075902 -4.861569
v 4.051755 -0.064946 -5.736165
v 4.051755 0.075902 -5.736165
v 4.051755 -0.064946 -4.861569
v 4.051755 0.075902 -4.861569
v 2.494112 -0.064946 -5.736165
v 2.494112 0.075902 -5.736165
v 4.051755 -0.064946 -5.736165
v 4.051755 0.075902 -5.736165
vn -1.0000 -0.0000 -0.0000
vn 1.0000 -0.0000 -0.0000
vn -0.0000 -0.9690 -0.2469
vn -0.0000 -0.9691 -0.2468
vn -0.3167 -0.9485 -0.0000
vn -0.2757 -0.9612 0.0005
vn -0.0000 -0.9585 0.2849
vn -0.0000 -0.9586 0.2849
vn 0.2218 -0.9751 -0.0000
vn 0.2560 -0.9667 0.0005
vn -0.0000 0.6888 -0.7249
vn -0.0000 0.5145 0.8575
vn 0.7836 0.6212 -0.0000
vn -0.0000 -0.0000 1.0000
vn -0.0000 1.0000 -0.0000
vn -0.0000 -1.0000 -0.0000
vn -0.0000 -0.0000 -1.0000
vn -0.7902 0.6129 -0.0000
vn -0.9970 -0.0776 -0.0000
vn -0.0000 -0.1747 0.9846
vn 0.9949 -0.1006 -0.0000
vn -0.0000 -0.2130 -0.9771
vn -0.9981 -0.0621 -0.0000
vn 0.9983 -0.0583 -0.0000
vn -0.9981 -0.0622 -0.0000
vn -0.0001 -0.2321 0.9727
vn -0.0000 -0.2318 0.9728
vn -0.0001 -0.2821 -0.9594
vn -0.0000 -0.2825 -0.9593
vn -0.0000 -0.2821 -0.9594
vn -0.5356 -0.8444 -0.0000
vn -0.5356 -0.8445 -0.0000
vn -0.0000 -0.9670 0.2547
vn 0.5857 -0.8105 -0.0000
vn -0.0000 -0.9607 -0.2776
vn -0.5769 -0.8168 -0.0000
vn 0.5769 -0.8168 -0.0000
vn -0.5816 -0.8135 -0.0000
vn -0.0000 -0.9530 0.3029
vn -0.0005 -0.9520 0.3061
vn -0.0000 -0.9357 -0.3528
vn -0.0005 -0.9370 -0.3492
vn -0.0000 -0.9371 -0.3490
vn -0.0000 -0.9185 0.3953
vn -0.0000 0.9185 -0.3953
vn -0.0000 0.3915 0.9202
vn -0.0000 -0.3915 -0.9202
vn 0.0006 -0.9185 -0.3954
vn -0.0006 0.9185 0.3954
vn 1.0000 -0.0006 0.0014
vn 0.0013 0.3915 -0.9202
vn -1.0000 0.0006 -0.0014
vn -0.0013 -0.3915 0.9202
vn -0.0007 0.9185 0.3954
vn 0.0014 0.3915 -0.9202
vn -0.0017 -0.3966 0.9180
vn -0.0013 -0.4161 0.9093
vn -0.0694 -0.1697 -0.9831
vn 0.0694 -0.1697 -0.9830
vn 0.1725 -0.0647 -0.9829
vn 0.1725 0.0648 -0.9829
vn 0.0719 0.1674 -0.9833
vn -0.0719 0.1673 -0.9833
vn -0.2248 0.5231 -0.8221
vn -0.2200 0.5213 -0.8245
vn -0.5185 0.2224 -0.8256
vn -0.5330 0.2159 -0.8181
vn -0.5315 -0.2279 -0.8158
vn -0.5259 -0.2129 -0.8234
vn -0.2149 -0.5254 -0.8233
vn -0.2153 -0.5243 -0.8238
vn 0.2146 -0.5243 -0.8240
vn 0.2156 -0.5248 -0.8235
vn 0.5352 -0.2008 -0.8205
vn 0.5173 -0.2094 -0.8298
vn 0.5189 0.1949 -0.8324
vn 0.5259 0.2130 -0.8235
vn 0.2231 0.5188 -0.8253
vn 0.2210 0.5236 -0.8228
vn 0.3235 0.7664 -0.5549
vn 0.7757 0.3244 -0.5413
vn 0.7711 0.3123 -0.5549
vn 0.7686 -0.3214 -0.5532
vn 0.7806 -0.3160 -0.5392
vn 0.3188 -0.7690 -0.5541
vn 0.3154 -0.7677 -0.5578
vn -0.3117 -0.7687 -0.5585
vn -0.3137 -0.7639 -0.5639
vn -0.7680 -0.3040 -0.5636
vn -0.7713 -0.3123 -0.5546
vn -0.7729 0.3061 -0.5558
vn -0.7648 0.3097 -0.5649
vn -0.3105 0.7658 -0.5632
vn -0.3257 0.7718 -0.5462
vn 0.3205 0.7732 -0.5472
vn 0.1777 0.4287 0.8858
vn 0.4351 0.1723 0.8837
vn 0.4276 0.1788 0.8861
vn 0.4278 -0.1761 0.8865
vn 0.4280 -0.1789 0.8859
vn 0.1806 -0.4227 0.8881
vn 0.1770 -0.4269 0.8868
vn -0.1822 -0.4265 0.8859
vn -0.1726 -0.4258 0.8882
vn -0.4230 -0.1741 0.8892
vn -0.4283 -0.1696 0.8876
vn -0.4283 0.1697 0.8876
vn -0.4283 0.1696 0.8876
vn -0.1685 0.4329 0.8856
vn -0.1732 0.4273 0.8874
vn 0.1665 0.4278 0.8884
vn -0.1661 -0.0712 -0.9835
vn -0.1661 0.0713 -0.9835
vn -0.3929 -0.9196 -0.0000
vn -0.9247 -0.3806 -0.0000
vn -0.9297 0.3683 -0.0000
vn -0.3627 0.9319 -0.0000
vn 0.3627 0.9319 -0.0000
vn 0.9297 0.3683 -0.0000
vn 0.9247 -0.3806 -0.0000
vn 0.3929 -0.9196 -0.0000
vn -0.1550 -0.3627 -0.9189
vn -0.3683 -0.1474 -0.9179
vn -0.1509 -0.3675 -0.9177
vn 0.1569 -0.3672 -0.9168
vn 0.1535 -0.3669 -0.9175
vn 0.3707 -0.1526 -0.9161
vn 0.3685 -0.1546 -0.9167
vn 0.3689 0.1461 -0.9179
vn 0.3697 0.1551 -0.9161
vn 0.1463 0.3760 -0.9150
vn 0.1537 0.3674 -0.9173
vn -0.1432 0.3680 -0.9187
vn -0.1513 0.3686 -0.9172
vn -0.3701 0.1466 -0.9173
vn -0.3688 0.1477 -0.9177
vn -0.3686 -0.1517 -0.9171
vn -0.4960 0.8683 -0.0000
vn -0.0000 0.9185 0.3955
vn 0.4960 0.8683 -0.0000
vn -0.0000 0.9185 -0.3955
vt 0.350568 0.055900
vt 0.350568 0.000643
vt 0.999271 0.000643
vt 0.999271 0.055900
vt 0.999271 0.001131
vt 0.999271 0.056266
vt 0.350568 0.001131
vt 0.350568 0.056266
vt 0.350568 0.490511
vt 0.999271 0.489901
vt 0.999271 0.505636
vt 0.350568 0.505758
vt 0.001304 0.488193
vt 0.999149 0.488193
vt 0.990212 0.505027
vt 0.008281 0.505027
vt 0.160205 0.491121
vt 0.640703 0.491121
vt 0.647069 0.503075
vt 0.153839 0.503075
vt 0.007547 0.490511
vt 0.990335 0.490511
vt 0.999271 0.505271
vt 0.000569 0.505271
vt 0.643519 0.505027
vt 0.163020 0.505027
vt 0.156655 0.490023
vt 0.649885 0.490023
vt 0.000814 0.063097
vt 0.000814 0.055900
vt 0.283604 0.055900
vt 0.280666 0.063097
vt 0.000691 0.055900
vt 0.999271 0.063097
vt 0.006445 0.063097
vt 0.999271 0.063463
vt 0.356689 0.063463
vt 0.000691 0.000643
vt 0.034112 0.498440
vt 0.034112 0.506368
vt 0.128375 0.506368
vt 0.128375 0.498440
vt 0.131558 0.491487
vt 0.037295 0.491487
vt 0.131558 0.499416
vt 0.037295 0.499416
vt 0.999394 0.505636
vt 0.000814 0.505636
vt 0.000814 0.489901
vt 0.999394 0.489901
vt 0.999271 0.490511
vt 0.350568 0.505392
vt 0.350568 0.489901
vt 0.000691 0.505636
vt 0.000691 0.490511
vt 0.999271 0.488193
vt 0.000691 0.063097
vt 0.000691 0.488193
vt 0.999761 0.823636
vt 0.779650 0.823636
vt 0.999761 0.506124
vt 0.779650 0.506124
vt 0.999394 0.063097
vt 0.338081 0.063097
vt 0.335143 0.055900
vt 0.999394 0.055900
vt 0.356689 0.063097
vt 0.465520 0.000887
vt 0.407371 0.000887
vt 0.465520 0.014305
vt 0.407371 0.014305
vt 0.560273 0.056754
vt 0.560273 0.033334
vt 0.481312 0.056754
vt 0.481312 0.033334
vt 0.367951 0.055778
vt 0.452421 0.055778
vt 0.367951 0.034798
vt 0.452421 0.034798
vt 0.894602 0.098349
vt 0.931573 0.098349
vt 0.894602 0.197761
vt 0.931573 0.197761
vt 0.481312 0.035529
vt 0.481312 0.058949
vt 0.560273 0.035529
vt 0.560273 0.058949
vt 0.367951 0.057730
vt 0.452421 0.057730
vt 0.367951 0.036749
vt 0.452421 0.036749
vt 0.894235 0.323644
vt 0.932308 0.323644
vt 0.894235 0.426106
vt 0.932308 0.426106
vt 0.753942 0.326083
vt 0.825680 0.326083
vt 0.753942 0.427570
vt 0.825680 0.427570
vt 0.460134 0.000643
vt 0.460134 0.013939
vt 0.550112 0.000643
vt 0.550112 0.013939
vt 0.753330 0.100178
vt 0.825313 0.100178
vt 0.753330 0.199469
vt 0.825313 0.199469
vt 0.389742 0.001375
vt 0.338326 0.001375
vt 0.389742 0.014915
vt 0.338326 0.014915
vt 0.681591 0.097739
vt 0.681591 0.198127
vt 0.642907 0.097739
vt 0.642907 0.198127
vt 0.643029 0.330353
vt 0.681347 0.330353
vt 0.643029 0.430375
vt 0.681347 0.430375
vt 0.547174 0.329011
vt 0.586716 0.329011
vt 0.547174 0.432205
vt 0.586716 0.432205
vt 0.427570 0.000887
vt 0.361953 0.000887
vt 0.427570 0.014915
vt 0.361953 0.014915
vt 0.547052 0.101154
vt 0.585247 0.101154
vt 0.547052 0.201177
vt 0.585247 0.201177
vt 0.531382 0.001009
vt 0.454013 0.001009
vt 0.531382 0.014671
vt 0.454013 0.014671
vt 0.409207 0.102008
vt 0.483516 0.102008
vt 0.409207 0.202397
vt 0.483516 0.202397
vt 0.409207 0.329499
vt 0.482781 0.329499
vt 0.409207 0.432083
vt 0.482781 0.432083
vt 0.303681 0.329499
vt 0.343345 0.329499
vt 0.303681 0.431961
vt 0.343345 0.431961
vt 0.162531 0.331450
vt 0.235003 0.331450
vt 0.162531 0.431961
vt 0.235003 0.431961
vt 0.721868 0.000765
vt 0.642907 0.000765
vt 0.721868 0.011256
vt 0.642907 0.011256
vt 0.162898 0.103350
vt 0.236962 0.103350
vt 0.162898 0.202641
vt 0.236962 0.202641
vt 0.181016 0.000521
vt 0.120296 0.000521
vt 0.181016 0.016745
vt 0.120296 0.016745
vt 0.055903 0.106277
vt 0.092874 0.106277
vt 0.055903 0.207520
vt 0.092874 0.207520
vt 0.055168 0.332670
vt 0.093241 0.332670
vt 0.055168 0.434035
vt 0.093241 0.434035
vt 0.481312 0.041872
vt 0.560273 0.041872
vt 0.367951 0.042360
vt 0.452421 0.042360
vt 0.560273 0.050411
vt 0.481312 0.050411
vt 0.367951 0.050167
vt 0.452421 0.050167
vt 0.481312 0.039677
vt 0.560273 0.039677
vt 0.452421 0.040409
vt 0.367951 0.040409
vt 0.560273 0.052606
vt 0.481312 0.052606
vt 0.367951 0.052119
vt 0.452421 0.052119
vt 0.283726 0.019062
vt 0.259242 0.019062
vt 0.259242 0.056022
vt 0.267689 0.062975
vt 0.283726 0.198981
vt 0.267689 0.198981
vt 0.641193 0.095909
vt 0.641193 0.200689
vt 0.587695 0.097983
vt 0.587695 0.202763
vt 0.641070 0.329011
vt 0.681714 0.329011
vt 0.681836 0.200689
vt 0.548031 0.097983
vt 0.485597 0.100056
vt 0.548031 0.202763
vt 0.485597 0.204836
vt 0.546562 0.329011
vt 0.589409 0.329011
vt 0.589409 0.431595
vt 0.641070 0.431595
vt 0.681714 0.431595
vt 0.749779 0.430253
vt 0.749779 0.325473
vt 0.750881 0.204836
vt 0.750881 0.100056
vt 0.681836 0.095909
vt 0.546562 0.431595
vt 0.830087 0.325473
vt 0.831189 0.100056
vt 0.891787 0.097617
vt 0.891787 0.198615
vt 0.932430 0.097617
vt 0.932430 0.198615
vt 0.932308 0.426716
vt 0.932308 0.324132
vt 0.891787 0.324132
vt 0.831189 0.204836
vt 0.891787 0.426716
vt 0.830087 0.430253
vt 0.350568 0.488193
vt 0.405657 0.432449
vt 0.350568 0.063097
vt 0.485964 0.432449
vt 0.485964 0.327669
vt 0.405657 0.327669
vt 0.405167 0.204836
vt 0.405167 0.100056
vt 0.286420 0.019184
vt 0.261936 0.019184
vt 0.286420 0.056144
vt 0.277973 0.063097
vt 0.261936 0.199103
vt 0.277973 0.199103
vt 0.996211 0.055900
vt 0.333062 0.055900
vt 0.335143 0.017842
vt 0.999394 0.000643
vt 0.281033 0.017842
vt 0.000814 0.000643
vt -0.002369 0.055900
vt 0.278830 0.055900
vt 0.681714 0.200689
vt 0.749657 0.325473
vt 0.681591 0.329011
vt 0.749657 0.430131
vt 0.750759 0.204836
vt 0.827516 0.325473
vt 0.828618 0.204836
vt 0.893745 0.324132
vt 0.893745 0.198615
vt 0.750759 0.100056
vt 0.893745 0.426716
vt 0.827516 0.430131
vt 0.999394 0.488193
vt 0.933042 0.426716
vt 0.933042 0.324132
vt 0.933165 0.198615
vt 0.933165 0.097617
vt 0.335143 0.063097
vt 0.893745 0.097617
vt 0.828618 0.100056
vt 0.681714 0.095909
vt 0.642417 0.095909
vt 0.585614 0.097983
vt 0.642417 0.200689
vt 0.585614 0.202763
vt 0.587206 0.329011
vt 0.547174 0.202763
vt 0.545705 0.329011
vt 0.485719 0.327669
vt 0.545705 0.431595
vt 0.485719 0.432449
vt 0.407860 0.432449
vt 0.344080 0.434645
vt 0.344080 0.329011
vt 0.407860 0.327669
vt 0.407371 0.204836
vt 0.335143 0.203251
vt 0.407371 0.100056
vt 0.485230 0.100056
vt 0.547174 0.097983
vt 0.485230 0.204836
vt 0.587206 0.431595
vt 0.302457 0.329011
vt 0.280666 0.203251
vt 0.236717 0.328645
vt 0.236717 0.433425
vt 0.302457 0.434645
vt 0.158858 0.433425
vt 0.094832 0.435621
vt 0.053332 0.435621
vt 0.000814 0.488193
vt 0.053332 0.329987
vt 0.055536 0.104326
vt 0.055536 0.209106
vt 0.094832 0.329987
vt 0.093975 0.209106
vt 0.158858 0.328645
vt 0.159837 0.204836
vt 0.237697 0.204836
vt 0.237697 0.100056
vt 0.159837 0.100056
vt 0.093975 0.104326
vt 0.681591 0.431595
vt 0.642295 0.431595
vt 0.642295 0.329011
vt 0.350568 0.063463
vt 0.404188 0.432571
vt 0.404188 0.327913
vt 0.404188 0.205080
vt 0.484495 0.205080
vt 0.484618 0.327913
vt 0.544603 0.329255
vt 0.544603 0.431595
vt 0.484618 0.432571
vt 0.404188 0.100422
vt 0.484495 0.100422
vt 0.546685 0.098349
vt 0.546685 0.203007
vt 0.587451 0.329255
vt 0.586349 0.203007
vt 0.641438 0.329255
vt 0.641438 0.200933
vt 0.586349 0.098349
vt 0.641438 0.096275
vt 0.587451 0.431595
vt 0.641438 0.431595
vt 0.682081 0.431595
vt 0.748678 0.430253
vt 0.682081 0.329255
vt 0.748678 0.325595
vt 0.682081 0.200933
vt 0.749779 0.205080
vt 0.749779 0.100422
vt 0.682081 0.096275
vt 0.829108 0.325595
vt 0.830209 0.100422
vt 0.891297 0.097983
vt 0.891297 0.198859
vt 0.830209 0.205080
vt 0.891664 0.324376
vt 0.931940 0.097983
vt 0.931940 0.198859
vt 0.932308 0.324376
vt 0.891664 0.426716
vt 0.829108 0.430253
vt 0.780384 0.993065
vt 0.998170 0.993065
vt 0.780384 0.999407
vt 0.998170 0.999407
vt 0.780384 0.988795
vt 0.998170 0.988795
vt 0.998170 0.825465
vt 0.780384 0.825465
vt 0.285563 0.194590
vt 0.285563 0.008328
vt 0.328165 0.194590
vt 0.328165 0.008328
vt 0.315923 0.192272
vt 0.304660 0.192272
vt 0.315923 0.007596
vt 0.304660 0.007596
vt 0.315311 0.193126
vt 0.305028 0.193126
vt 0.315311 0.010402
vt 0.305028 0.010402
vt 0.312128 0.139090
vt 0.306986 0.132625
vt 0.314331 0.132625
vt 0.312128 0.126160
vt 0.306986 0.123476
vt 0.301722 0.126160
vt 0.299519 0.132625
vt 0.301722 0.139090
vt 0.293153 0.132625
vt 0.297193 0.144579
vt 0.306986 0.141773
vt 0.306986 0.149580
vt 0.316657 0.144579
vt 0.320697 0.132625
vt 0.316657 0.120671
vt 0.306986 0.115670
vt 0.297193 0.120671
vt 0.294255 0.117011
vt 0.306986 0.110546
vt 0.319596 0.117011
vt 0.324860 0.132625
vt 0.319596 0.148238
vt 0.306986 0.154825
vt 0.294255 0.148238
vt 0.288991 0.132625
vt 0.293153 0.115670
vt 0.306986 0.108717
vt 0.320697 0.115670
vt 0.326329 0.132625
vt 0.320697 0.149580
vt 0.306986 0.156655
vt 0.293153 0.149580
vt 0.287521 0.132625
vt 0.287521 0.108717
vt 0.292418 0.108717
vt 0.287521 0.156655
vt 0.292418 0.156655
vt 0.297193 0.108717
vt 0.297193 0.156655
vt 0.302089 0.108717
vt 0.302089 0.156655
vt 0.311761 0.108717
vt 0.311761 0.156655
vt 0.316657 0.108717
vt 0.316657 0.156655
vt 0.321432 0.108717
vt 0.321432 0.156655
vt 0.326329 0.108717
vt 0.326329 0.156655
vt 0.776712 0.510516
vt 0.776712 0.974158
vt 0.000936 0.510516
vt 0.000936 0.974158
vt 0.601896 0.999651
vt 0.176364 0.999651
vt 0.601896 0.986966
vt 0.176364 0.986966
vt 0.111359 0.509540
vt 0.692487 0.509540
vt 0.407738 0.989771
vt 0.396108 0.989771
vt 0.777201 0.510760
vt 0.001181 0.510760
vt 0.176731 0.990015
vt 0.601651 0.990015
vt 0.111849 0.510516
vt 0.692854 0.510516
vt 0.408228 0.990625
vt 0.396598 0.990625
vt 0.001304 0.511126
vt 0.777201 0.511126
vt 0.601651 0.990381
vt 0.176854 0.990381
vt 0.994252 0.897799
vt 0.994252 0.990625
vt 0.797034 0.897799
vt 0.797034 0.990625
vt 0.995232 0.992211
vt 0.798013 0.992211
vt 0.995232 0.899385
vt 0.798013 0.899385
vt 0.895092 0.835712
vt 0.895092 0.846934
vt 0.786383 0.835712
vt 0.786383 0.846934
vt 0.999761 0.835346
vt 0.999761 0.846568
vt 0.782466 0.835346
vt 0.782466 0.846568
vt 0.998782 0.835712
vt 0.998782 0.846934
vt 0.890073 0.835712
vt 0.890073 0.846934
vt 1.000373 0.835468
vt 1.000373 0.846690
vt 0.783078 0.835468
vt 0.783078 0.846690
vt 0.998047 0.998432
vt 0.783935 0.998432
vt 0.998047 0.834614
vt 0.783935 0.834614
vt 0.900111 0.825587
vt 0.900111 0.846568
vt 0.790790 0.825587
vt 0.790790 0.846568
vt 0.999761 0.848641
vt 0.999761 0.869622
vt 0.781241 0.848641
vt 0.781241 0.869622
vt 0.994497 0.825221
vt 0.994497 0.846080
vt 0.885176 0.825221
vt 0.885176 0.846080
vt 0.997313 0.825587
vt 0.997313 0.846568
vt 0.781364 0.825587
vt 0.781364 0.846568
s 0
usemtl mat_main
f 1/1/1 2/2/1 3/3/1
f 4/3/1 5/4/1 6/1/1
f 7/5/2 8/6/2 9/7/2
f 8/6/2 10/8/2 9/7/2
f 11/9/2 12/10/2 13/11/2
f 14/11/2 15/12/2 16/9/2
f 17/13/3 18/14/3 19/15/3
f 20/15/4 21/16/4 22/13/4
f 23/17/5 24/18/5 25/19/5
f 26/19/6 27/20/6 28/17/6
f 29/21/7 30/22/7 31/23/7
f 32/23/8 33/24/8 34/21/8
f 35/25/9 36/26/9 37/27/9
f 38/27/10 39/28/10 40/25/10
f 41/29/11 42/30/11 43/31/11
f 44/31/11 45/32/11 46/29/11
f 47/33/12 48/4/12 49/34/12
f 50/34/12 51/35/12 52/33/12
f 53/8/13 54/6/13 55/36/13
f 56/36/13 57/37/13 58/8/13
f 59/38/14 60/3/14 61/33/14
f 60/3/14 62/4/14 61/33/14
f 63/39/15 64/40/15 65/41/15
f 66/41/15 67/42/15 68/39/15
f 69/43/16 70/44/16 71/45/16
f 70/44/16 72/46/16 71/45/16
f 73/47/17 74/48/17 75/49/17
f 76/49/17 77/50/17 78/47/17
f 79/51/1 80/11/1 81/52/1
f 82/52/1 83/53/1 84/51/1
f 85/51/14 86/11/14 87/54/14
f 88/54/14 89/55/14 90/51/14
f 91/34/14 92/56/14 93/57/14
f 92/56/14 94/58/14 93/57/14
f 95/59/17 96/60/17 97/61/17
f 96/60/17 98/62/17 97/61/17
f 99/63/11 100/64/11 101/65/11
f 101/65/11 102/66/11 103/63/11
f 104/4/18 105/34/18 106/67/18
f 107/67/18 108/1/18 109/4/18
f 110/68/15 111/69/15 112/70/15
f 111/69/15 113/71/15 112/70/15
f 114/72/2 115/73/2 116/74/2
f 115/73/2 117/75/2 116/74/2
f 118/76/16 119/77/16 120/78/16
f 119/77/16 121/79/16 120/78/16
f 122/80/17 123/81/17 124/82/17
f 123/81/17 125/83/17 124/82/17
f 126/84/1 127/85/1 128/86/1
f 127/85/1 129/87/1 128/86/1
f 130/86/1 131/84/1 132/87/1
f 131/84/1 133/85/1 132/87/1
f 134/88/15 135/89/15 136/90/15
f 135/89/15 137/91/15 136/90/15
f 138/74/2 139/72/2 140/75/2
f 139/72/2 141/73/2 140/75/2
f 142/92/17 143/93/17 144/94/17
f 143/93/17 145/95/17 144/94/17
f 146/76/16 147/77/16 148/78/16
f 147/77/16 149/79/16 148/78/16
f 150/86/1 151/84/1 152/87/1
f 151/84/1 153/85/1 152/87/1
f 154/88/15 155/89/15 156/90/15
f 155/89/15 157/91/15 156/90/15
f 158/74/2 159/72/2 160/75/2
f 159/72/2 161/73/2 160/75/2
f 162/96/17 163/97/17 164/98/17
f 163/97/17 165/99/17 164/98/17
f 166/76/16 167/77/16 168/78/16
f 167/77/16 169/79/16 168/78/16
f 170/86/1 171/84/1 172/87/1
f 171/84/1 173/85/1 172/87/1
f 174/100/15 175/101/15 176/102/15
f 175/101/15 177/103/15 176/102/15
f 178/74/2 179/72/2 180/75/2
f 179/72/2 181/73/2 180/75/2
f 182/104/17 183/105/17 184/106/17
f 183/105/17 185/107/17 184/106/17
f 186/76/16 187/77/16 188/78/16
f 187/77/16 189/79/16 188/78/16
f 190/86/1 191/84/1 192/87/1
f 191/84/1 193/85/1 192/87/1
f 194/108/15 195/109/15 196/110/15
f 195/109/15 197/111/15 196/110/15
f 198/74/2 199/72/2 200/75/2
f 199/72/2 201/73/2 200/75/2
f 202/112/17 203/113/17 204/114/17
f 203/113/17 205/115/17 204/114/17
f 206/76/16 207/77/16 208/78/16
f 207/77/16 209/79/16 208/78/16
f 210/86/1 211/84/1 212/87/1
f 211/84/1 213/85/1 212/87/1
f 214/88/15 215/89/15 216/90/15
f 215/89/15 217/91/15 216/90/15
f 218/74/2 219/72/2 220/75/2
f 219/72/2 221/73/2 220/75/2
f 222/116/17 223/117/17 224/118/17
f 223/117/17 225/119/17 224/118/17
f 226/76/16 227/77/16 228/78/16
f 227/77/16 229/79/16 228/78/16
f 230/86/1 231/84/1 232/87/1
f 231/84/1 233/85/1 232/87/1
f 234/89/15 235/91/15 236/88/15
f 235/91/15 237/90/15 236/88/15
f 238/74/2 239/72/2 240/75/2
f 239/72/2 241/73/2 240/75/2
f 242/120/17 243/121/17 244/122/17
f 243/121/17 245/123/17 244/122/17
f 246/76/16 247/77/16 248/78/16
f 247/77/16 249/79/16 248/78/16
f 250/84/1 251/85/1 252/86/1
f 251/85/1 253/87/1 252/86/1
f 254/124/15 255/125/15 256/126/15
f 255/125/15 257/127/15 256/126/15
f 258/72/2 259/73/2 260/74/2
f 259/73/2 261/75/2 260/74/2
f 262/128/17 263/129/17 264/130/17
f 263/129/17 265/131/17 264/130/17
f 266/76/16 267/77/16 268/78/16
f 267/77/16 269/79/16 268/78/16
f 270/84/1 271/85/1 272/86/1
f 271/85/1 273/87/1 272/86/1
f 274/132/15 275/133/15 276/134/15
f 275/133/15 277/135/15 276/134/15
f 278/72/2 279/73/2 280/74/2
f 279/73/2 281/75/2 280/74/2
f 282/136/17 283/137/17 284/138/17
f 283/137/17 285/139/17 284/138/17
f 286/79/16 287/78/16 288/77/16
f 287/78/16 289/76/16 288/77/16
f 290/84/1 291/85/1 292/86/1
f 291/85/1 293/87/1 292/86/1
f 294/91/15 295/90/15 296/89/15
f 295/90/15 297/88/15 296/89/15
f 298/72/2 299/73/2 300/74/2
f 299/73/2 301/75/2 300/74/2
f 302/140/17 303/141/17 304/142/17
f 303/141/17 305/143/17 304/142/17
f 306/79/16 307/78/16 308/77/16
f 307/78/16 309/76/16 308/77/16
f 310/86/1 311/84/1 312/87/1
f 311/84/1 313/85/1 312/87/1
f 314/88/15 315/89/15 316/90/15
f 315/89/15 317/91/15 316/90/15
f 318/74/2 319/72/2 320/75/2
f 319/72/2 321/73/2 320/75/2
f 322/144/17 323/145/17 324/146/17
f 323/145/17 325/147/17 324/146/17
f 326/76/16 327/77/16 328/78/16
f 327/77/16 329/79/16 328/78/16
f 330/86/1 331/84/1 332/87/1
f 331/84/1 333/85/1 332/87/1
f 334/88/15 335/89/15 336/90/15
f 335/89/15 337/91/15 336/90/15
f 338/74/2 339/72/2 340/75/2
f 339/72/2 341/73/2 340/75/2
f 342/148/17 343/149/17 344/150/17
f 343/149/17 345/151/17 344/150/17
f 346/77/16 347/79/16 348/76/16
f 347/79/16 349/78/16 348/76/16
f 350/84/1 351/85/1 352/86/1
f 351/85/1 353/87/1 352/86/1
f 354/152/15 355/153/15 356/154/15
f 355/153/15 357/155/15 356/154/15
f 358/72/2 359/73/2 360/74/2
f 359/73/2 361/75/2 360/74/2
f 362/156/17 363/157/17 364/158/17
f 363/157/17 365/159/17 364/158/17
f 366/77/16 367/79/16 368/76/16
f 367/79/16 369/78/16 368/76/16
f 370/86/1 371/84/1 372/87/1
f 371/84/1 373/85/1 372/87/1
f 374/160/15 375/161/15 376/162/15
f 375/161/15 377/163/15 376/162/15
f 378/74/2 379/72/2 380/75/2
f 379/72/2 381/73/2 380/75/2
f 382/164/17 383/165/17 384/166/17
f 383/165/17 385/167/17 384/166/17
f 386/76/16 387/77/16 388/78/16
f 387/77/16 389/79/16 388/78/16
f 390/86/1 391/84/1 392/87/1
f 391/84/1 393/85/1 392/87/1
f 394/88/15 395/89/15 396/90/15
f 395/89/15 397/91/15 396/90/15
f 398/74/2 399/72/2 400/75/2
f 399/72/2 401/73/2 400/75/2
f 402/168/17 403/169/17 404/170/17
f 403/169/17 405/171/17 404/170/17
f 406/76/16 407/77/16 408/78/16
f 407/77/16 409/79/16 408/78/16
f 410/172/14 411/85/14 412/173/14
f 411/85/14 413/87/14 412/173/14
f 414/88/15 415/89/15 416/174/15
f 415/89/15 417/175/15 416/174/15
f 418/176/17 419/73/17 420/177/17
f 419/73/17 421/75/17 420/177/17
f 422/136/1 423/137/1 424/138/1
f 423/137/1 425/139/1 424/138/1
f 426/178/16 427/179/16 428/78/16
f 427/179/16 429/79/16 428/78/16
f 430/172/14 431/85/14 432/173/14
f 431/85/14 433/87/14 432/173/14
f 434/88/15 435/89/15 436/174/15
f 435/89/15 437/175/15 436/174/15
f 438/176/17 439/73/17 440/177/17
f 439/73/17 441/75/17 440/177/17
f 442/128/1 443/129/1 444/130/1
f 443/129/1 445/131/1 444/130/1
f 446/178/16 447/179/16 448/78/16
f 447/179/16 449/79/16 448/78/16
f 450/173/14 451/172/14 452/87/14
f 451/172/14 453/85/14 452/87/14
f 454/88/15 455/89/15 456/174/15
f 455/89/15 457/175/15 456/174/15
f 458/177/17 459/176/17 460/75/17
f 459/176/17 461/73/17 460/75/17
f 462/114/1 463/112/1 464/115/1
f 463/112/1 465/113/1 464/115/1
f 466/178/16 467/179/16 468/78/16
f 467/179/16 469/79/16 468/78/16
f 470/173/14 471/172/14 472/87/14
f 471/172/14 473/85/14 472/87/14
f 474/88/15 475/89/15 476/174/15
f 475/89/15 477/175/15 476/174/15
f 478/177/17 479/176/17 480/75/17
f 479/176/17 481/73/17 480/75/17
f 482/104/1 483/105/1 484/106/1
f 483/105/1 485/107/1 484/106/1
f 486/178/16 487/179/16 488/78/16
f 487/179/16 489/79/16 488/78/16
f 490/173/14 491/172/14 492/87/14
f 491/172/14 493/85/14 492/87/14
f 494/88/15 495/89/15 496/174/15
f 495/89/15 497/175/15 496/174/15
f 498/177/17 499/176/17 500/75/17
f 499/176/17 501/73/17 500/75/17
f 502/80/1 503/81/1 504/82/1
f 503/81/1 505/83/1 504/82/1
f 506/178/16 507/179/16 508/78/16
f 507/179/16 509/79/16 508/78/16
f 510/172/14 511/85/14 512/173/14
f 511/85/14 513/87/14 512/173/14
f 514/88/15 515/89/15 516/174/15
f 515/89/15 517/175/15 516/174/15
f 518/176/17 519/73/17 520/177/17
f 519/73/17 521/75/17 520/177/17
f 522/92/1 523/93/1 524/94/1
f 523/93/1 525/95/1 524/94/1
f 526/178/16 527/179/16 528/78/16
f 527/179/16 529/79/16 528/78/16
f 530/173/14 531/172/14 532/87/14
f 531/172/14 533/85/14 532/87/14
f 534/89/15 535/175/15 536/88/15
f 535/175/15 537/174/15 536/88/15
f 538/177/17 539/176/17 540/75/17
f 539/176/17 541/73/17 540/75/17
f 542/96/1 543/97/1 544/98/1
f 543/97/1 545/99/1 544/98/1
f 546/178/16 547/179/16 548/78/16
f 547/179/16 549/79/16 548/78/16
f 550/173/14 551/172/14 552/87/14
f 551/172/14 553/85/14 552/87/14
f 554/88/15 555/89/15 556/174/15
f 555/89/15 557/175/15 556/174/15
f 558/177/17 559/176/17 560/75/17
f 559/176/17 561/73/17 560/75/17
f 562/116/1 563/117/1 564/118/1
f 563/117/1 565/119/1 564/118/1
f 566/178/16 567/179/16 568/78/16
f 567/179/16 569/79/16 568/78/16
f 570/173/14 571/172/14 572/87/14
f 571/172/14 573/85/14 572/87/14
f 574/88/15 575/89/15 576/174/15
f 575/89/15 577/175/15 576/174/15
f 578/177/17 579/176/17 580/75/17
f 579/176/17 581/73/17 580/75/17
f 582/120/1 583/121/1 584/122/1
f 583/121/1 585/123/1 584/122/1
f 586/178/16 587/179/16 588/78/16
f 587/179/16 589/79/16 588/78/16
f 590/173/14 591/172/14 592/87/14
f 591/172/14 593/85/14 592/87/14
f 594/88/15 595/89/15 596/174/15
f 595/89/15 597/175/15 596/174/15
f 598/177/17 599/176/17 600/75/17
f 599/176/17 601/73/17 600/75/17
f 602/140/1 603/141/1 604/142/1
f 603/141/1 605/143/1 604/142/1
f 606/178/16 607/179/16 608/78/16
f 607/179/16 609/79/16 608/78/16
f 610/85/17 611/87/17 612/180/17
f 611/87/17 613/181/17 612/180/17
f 614/182/15 615/183/15 616/89/15
f 615/183/15 617/88/15 616/89/15
f 618/73/14 619/75/14 620/184/14
f 619/75/14 621/185/14 620/184/14
f 622/78/16 623/186/16 624/79/16
f 623/186/16 625/187/16 624/79/16
f 626/95/2 627/94/2 628/93/2
f 627/94/2 629/92/2 628/93/2
f 630/85/17 631/87/17 632/180/17
f 631/87/17 633/181/17 632/180/17
f 634/182/15 635/183/15 636/89/15
f 635/183/15 637/88/15 636/89/15
f 638/73/14 639/75/14 640/184/14
f 639/75/14 641/185/14 640/184/14
f 642/83/2 643/82/2 644/81/2
f 643/82/2 645/80/2 644/81/2
f 646/79/16 647/78/16 648/187/16
f 647/78/16 649/186/16 648/187/16
f 650/85/17 651/87/17 652/180/17
f 651/87/17 653/181/17 652/180/17
f 654/182/15 655/183/15 656/89/15
f 655/183/15 657/88/15 656/89/15
f 658/73/14 659/75/14 660/184/14
f 659/75/14 661/185/14 660/184/14
f 662/107/2 663/106/2 664/105/2
f 663/106/2 665/104/2 664/105/2
f 666/79/16 667/78/16 668/187/16
f 667/78/16 669/186/16 668/187/16
f 670/85/17 671/87/17 672/180/17
f 671/87/17 673/181/17 672/180/17
f 674/182/15 675/183/15 676/89/15
f 675/183/15 677/88/15 676/89/15
f 678/73/14 679/75/14 680/184/14
f 679/75/14 681/185/14 680/184/14
f 682/99/2 683/98/2 684/97/2
f 683/98/2 685/96/2 684/97/2
f 686/78/16 687/186/16 688/79/16
f 687/186/16 689/187/16 688/79/16
f 690/87/17 691/181/17 692/85/17
f 691/181/17 693/180/17 692/85/17
f 694/183/15 695/88/15 696/182/15
f 695/88/15 697/89/15 696/182/15
f 698/75/14 699/185/14 700/73/14
f 699/185/14 701/184/14 700/73/14
f 702/119/2 703/118/2 704/117/2
f 703/118/2 705/116/2 704/117/2
f 706/78/16 707/186/16 708/79/16
f 707/186/16 709/187/16 708/79/16
f 710/85/17 711/87/17 712/180/17
f 711/87/17 713/181/17 712/180/17
f 714/182/15 715/183/15 716/89/15
f 715/183/15 717/88/15 716/89/15
f 718/73/14 719/75/14 720/184/14
f 719/75/14 721/185/14 720/184/14
f 722/113/2 723/115/2 724/112/2
f 723/115/2 725/114/2 724/112/2
f 726/79/16 727/78/16 728/187/16
f 727/78/16 729/186/16 728/187/16
f 730/85/17 731/87/17 732/180/17
f 731/87/17 733/181/17 732/180/17
f 734/182/15 735/183/15 736/89/15
f 735/183/15 737/88/15 736/89/15
f 738/73/14 739/75/14 740/184/14
f 739/75/14 741/185/14 740/184/14
f 742/131/2 743/130/2 744/129/2
f 743/130/2 745/128/2 744/129/2
f 746/79/16 747/78/16 748/187/16
f 747/78/16 749/186/16 748/187/16
f 750/87/17 751/181/17 752/85/17
f 751/181/17 753/180/17 752/85/17
f 754/183/15 755/88/15 756/182/15
f 755/88/15 757/89/15 756/182/15
f 758/75/14 759/185/14 760/73/14
f 759/185/14 761/184/14 760/73/14
f 762/122/2 763/120/2 764/123/2
f 763/120/2 765/121/2 764/123/2
f 766/78/16 767/186/16 768/79/16
f 767/186/16 769/187/16 768/79/16
f 770/85/17 771/87/17 772/180/17
f 771/87/17 773/181/17 772/180/17
f 774/182/15 775/183/15 776/89/15
f 775/183/15 777/88/15 776/89/15
f 778/73/14 779/75/14 780/184/14
f 779/75/14 781/185/14 780/184/14
f 782/143/2 783/142/2 784/141/2
f 783/142/2 785/140/2 784/141/2
f 786/79/16 787/78/16 788/187/16
f 787/78/16 789/186/16 788/187/16
f 790/85/17 791/87/17 792/180/17
f 791/87/17 793/181/17 792/180/17
f 794/183/15 795/88/15 796/182/15
f 795/88/15 797/89/15 796/182/15
f 798/73/14 799/75/14 800/184/14
f 799/75/14 801/185/14 800/184/14
f 802/139/2 803/138/2 804/137/2
f 803/138/2 805/136/2 804/137/2
f 806/78/16 807/186/16 808/79/16
f 807/186/16 809/187/16 808/79/16
f 810/188/2 811/189/2 812/190/2
f 813/188/2 814/190/2 815/191/2
f 816/188/2 817/191/2 818/192/2
f 817/191/2 819/193/2 818/192/2
f 820/194/1 821/195/1 822/196/1
f 822/196/1 821/195/1 823/197/1
f 823/197/1 821/195/1 824/198/1
f 824/198/1 821/195/1 825/199/1
f 821/195/1 826/200/1 825/199/1
f 820/194/1 822/196/1 827/34/1
f 822/196/1 828/201/1 827/34/1
f 827/34/1 828/201/1 829/202/1
f 828/201/1 830/203/1 829/202/1
f 829/202/1 830/203/1 831/204/1
f 831/204/1 830/203/1 832/205/1
f 830/203/1 823/197/1 832/205/1
f 832/205/1 823/197/1 833/206/1
f 823/197/1 824/198/1 833/206/1
f 833/206/1 824/198/1 834/207/1
f 824/198/1 835/208/1 834/207/1
f 834/207/1 835/208/1 836/56/1
f 835/208/1 837/209/1 836/56/1
f 836/56/1 837/209/1 838/210/1
f 837/209/1 825/199/1 838/210/1
f 838/210/1 825/199/1 839/211/1
f 825/199/1 826/200/1 839/211/1
f 839/211/1 826/200/1 840/212/1
f 840/212/1 826/200/1 841/213/1
f 826/200/1 842/214/1 841/213/1
f 841/213/1 842/214/1 827/34/1
f 842/214/1 820/194/1 827/34/1
f 836/56/1 843/215/1 834/207/1
f 844/216/1 839/211/1 840/212/1
f 841/213/1 827/34/1 845/217/1
f 827/34/1 846/218/1 845/217/1
f 845/217/1 846/218/1 847/219/1
f 846/218/1 827/34/1 848/220/1
f 827/34/1 836/56/1 848/220/1
f 848/220/1 836/56/1 849/221/1
f 836/56/1 850/222/1 849/221/1
f 850/222/15 851/223/15 849/221/15
f 849/221/1 851/223/1 847/219/1
f 851/223/1 852/224/1 847/219/1
f 847/219/1 852/224/1 853/225/1
f 852/224/1 844/216/1 853/225/1
f 853/225/1 844/216/1 840/212/1
f 847/219/1 853/225/1 845/217/1
f 852/224/1 854/226/1 844/216/1
f 844/216/1 854/226/1 855/227/1
f 854/226/1 836/56/1 855/227/1
f 855/227/1 836/56/1 838/210/1
f 854/226/1 850/222/1 836/56/1
f 836/56/1 856/228/1 857/229/1
f 856/228/1 858/230/1 857/229/1
f 857/229/1 859/231/1 836/56/1
f 836/56/1 859/231/1 843/215/1
f 859/231/1 860/232/1 843/215/1
f 843/215/1 860/232/1 832/205/1
f 832/205/1 860/232/1 831/204/1
f 860/232/1 861/233/1 831/204/1
f 831/204/1 861/233/1 862/234/1
f 861/233/1 858/230/1 862/234/1
f 862/234/1 858/230/1 863/235/1
f 858/230/1 827/34/1 863/235/1
f 863/235/1 827/34/1 829/202/1
f 858/230/1 861/233/1 857/229/1
f 864/236/1 865/237/1 866/238/1
f 866/238/1 865/237/1 867/239/1
f 865/237/1 868/240/1 867/239/1
f 867/239/1 868/240/1 869/241/1
f 870/242/17 871/243/17 872/244/17
f 873/245/17 874/242/17 875/244/17
f 876/245/17 877/244/17 878/246/17
f 879/247/17 880/245/17 881/246/17
f 882/248/17 883/247/17 884/246/17
f 885/248/17 884/246/17 886/249/17
f 887/250/17 888/251/17 889/252/17
f 889/252/17 888/251/17 890/253/17
f 887/250/17 891/254/17 888/251/17
f 888/251/17 891/254/17 892/255/17
f 891/254/17 893/256/17 892/255/17
f 892/255/17 893/256/17 894/257/17
f 893/256/17 895/258/17 894/257/17
f 887/250/17 896/259/17 891/254/17
f 894/257/17 897/260/17 892/255/17
f 892/255/17 897/260/17 898/261/17
f 897/260/17 899/262/17 898/261/17
f 898/261/17 899/262/17 890/253/17
f 897/260/17 900/263/17 899/262/17
f 899/262/17 900/263/17 901/63/17
f 900/263/17 902/264/17 901/63/17
f 901/63/17 902/264/17 903/265/17
f 903/265/17 902/264/17 895/258/17
f 902/264/17 894/257/17 895/258/17
f 903/265/17 904/266/17 901/63/17
f 901/63/17 904/266/17 905/267/17
f 904/266/17 906/268/17 905/267/17
f 905/267/17 906/268/17 907/269/17
f 906/268/17 895/258/17 907/269/17
f 907/269/17 895/258/17 893/256/17
f 907/269/17 896/259/17 905/267/17
f 905/267/17 896/259/17 908/270/17
f 896/259/17 887/250/17 908/270/17
f 908/270/17 909/271/17 905/267/17
f 905/267/17 909/271/17 910/272/17
f 909/271/17 911/273/17 910/272/17
f 910/272/17 911/273/17 912/274/17
f 911/273/17 913/275/17 912/274/17
f 912/274/17 913/275/17 914/276/17
f 913/275/17 915/277/17 914/276/17
f 914/276/17 915/277/17 916/278/17
f 915/277/17 917/279/17 916/278/17
f 916/278/17 917/279/17 918/280/17
f 917/279/17 899/262/17 918/280/17
f 918/280/17 899/262/17 919/281/17
f 899/262/17 920/282/17 919/281/17
f 920/282/17 921/283/17 919/281/17
f 919/281/17 921/283/17 922/284/17
f 922/284/17 921/283/17 923/285/17
f 921/283/17 924/286/17 923/285/17
f 923/285/17 924/286/17 925/287/17
f 924/286/17 905/267/17 925/287/17
f 925/287/17 905/267/17 926/288/17
f 905/267/17 927/289/17 926/288/17
f 927/289/17 914/276/17 926/288/17
f 926/288/17 914/276/17 928/290/17
f 914/276/17 916/278/17 928/290/17
f 916/278/17 922/284/17 928/290/17
f 928/290/17 922/284/17 923/285/17
f 899/262/17 917/279/17 929/291/17
f 921/283/17 930/292/17 924/286/17
f 924/286/17 930/292/17 931/293/17
f 931/293/17 930/292/17 932/294/17
f 932/294/17 930/292/17 933/295/17
f 930/292/17 934/296/17 933/295/17
f 933/295/17 934/296/17 899/262/17
f 934/296/17 920/282/17 899/262/17
f 910/272/17 927/289/17 905/267/17
f 933/295/17 899/262/17 935/297/17
f 935/297/17 899/262/17 936/298/17
f 936/298/17 899/262/17 937/299/17
f 899/262/17 938/300/17 937/299/17
f 938/300/17 939/29/17 937/299/17
f 937/299/17 939/29/17 940/301/17
f 939/29/17 941/302/17 940/301/17
f 941/302/17 942/303/17 940/301/17
f 940/301/17 942/303/17 943/304/17
f 942/303/17 944/305/17 943/304/17
f 943/304/17 944/305/17 945/306/17
f 944/305/17 946/307/17 945/306/17
f 945/306/17 946/307/17 932/294/17
f 946/307/17 947/308/17 932/294/17
f 932/294/17 947/308/17 931/293/17
f 947/308/17 948/309/17 931/293/17
f 931/293/17 948/309/17 949/32/17
f 948/309/17 950/310/17 949/32/17
f 949/32/17 950/310/17 951/311/17
f 950/310/17 946/307/17 951/311/17
f 951/311/17 946/307/17 944/305/17
f 936/298/17 943/304/17 935/297/17
f 935/297/17 943/304/17 945/306/17
f 939/29/17 949/32/17 941/302/17
f 941/302/17 949/32/17 951/311/17
f 889/252/17 890/253/17 952/312/17
f 890/253/17 899/262/17 952/312/17
f 952/312/17 899/262/17 953/313/17
f 899/262/17 929/291/17 953/313/17
f 953/313/17 929/291/17 954/314/17
f 929/291/17 913/275/17 954/314/17
f 913/275/17 911/273/17 954/314/17
f 954/314/17 911/273/17 889/252/17
f 911/273/17 887/250/17 889/252/17
f 955/228/2 956/315/2 957/316/2
f 957/316/2 956/315/2 958/317/2
f 956/315/2 959/318/2 958/317/2
f 959/318/2 960/319/2 958/317/2
f 958/317/2 960/319/2 961/320/2
f 960/319/2 962/321/2 961/320/2
f 962/321/2 963/322/2 961/320/2
f 961/320/2 963/322/2 964/323/2
f 963/322/2 965/56/2 964/323/2
f 964/323/2 965/56/2 957/316/2
f 965/56/2 955/228/2 957/316/2
f 959/318/2 956/315/2 966/324/2
f 956/315/2 967/36/2 966/324/2
f 966/324/2 967/36/2 968/325/2
f 967/36/2 969/326/2 968/325/2
f 969/326/2 970/327/2 968/325/2
f 968/325/2 970/327/2 960/319/2
f 960/319/2 970/327/2 962/321/2
f 962/321/2 970/327/2 971/328/2
f 970/327/2 972/329/2 971/328/2
f 971/328/2 972/329/2 973/330/2
f 973/330/2 972/329/2 974/331/2
f 972/329/2 975/332/2 974/331/2
f 974/331/2 975/332/2 976/333/2
f 976/333/2 975/332/2 967/36/2
f 975/332/2 969/326/2 967/36/2
f 971/328/2 973/330/2 977/334/2
f 973/330/2 978/335/2 977/334/2
f 977/334/2 978/335/2 965/56/2
f 978/335/2 979/336/2 965/56/2
f 965/56/2 979/336/2 980/337/2
f 979/336/2 981/338/2 980/337/2
f 980/337/2 981/338/2 982/339/2
f 981/338/2 983/340/2 982/339/2
f 982/339/2 983/340/2 984/341/2
f 984/341/2 983/340/2 985/342/2
f 983/340/2 986/343/2 985/342/2
f 985/342/2 986/343/2 967/36/2
f 986/343/2 976/333/2 967/36/2
f 965/56/2 963/322/2 977/334/2
f 981/338/2 973/330/2 983/340/2
f 983/340/2 973/330/2 974/331/2
f 984/341/2 987/344/2 982/339/2
f 985/342/2 967/36/2 988/345/2
f 967/36/2 989/346/2 988/345/2
f 989/346/2 990/347/2 988/345/2
f 988/345/2 990/347/2 991/348/2
f 990/347/2 992/349/2 991/348/2
f 992/349/2 987/344/2 991/348/2
f 991/348/2 987/344/2 984/341/2
f 989/346/2 967/36/2 993/350/2
f 967/36/2 965/56/2 993/350/2
f 993/350/2 965/56/2 994/351/2
f 994/351/2 965/56/2 990/347/2
f 965/56/2 995/352/2 990/347/2
f 990/347/2 995/352/2 992/349/2
f 995/352/2 965/56/2 996/222/2
f 996/222/2 965/56/2 997/353/2
f 965/56/2 998/354/2 997/353/2
f 998/354/2 987/344/2 997/353/2
f 997/353/2 987/344/2 992/349/2
f 965/56/2 980/337/2 998/354/2
f 999/355/19 1000/356/19 1001/357/19
f 1000/356/19 1002/358/19 1001/357/19
f 1003/355/20 1004/356/20 1005/357/20
f 1004/356/20 1006/358/20 1005/357/20
f 1007/355/21 1008/356/21 1009/357/21
f 1008/356/21 1010/358/21 1009/357/21
f 1011/355/22 1012/356/22 1013/357/22
f 1012/356/22 1014/358/22 1013/357/22
f 1015/355/23 1016/356/23 1017/357/23
f 1016/356/23 1018/358/23 1017/357/23
f 1019/355/20 1020/356/20 1021/357/20
f 1020/356/20 1022/358/20 1021/357/20
f 1023/355/24 1024/356/24 1025/357/24
f 1024/356/24 1026/358/24 1025/357/24
f 1027/355/22 1028/356/22 1029/357/22
f 1028/356/22 1030/358/22 1029/357/22
f 1031/355/25 1032/356/25 1033/357/25
f 1032/356/25 1034/358/25 1033/357/25
f 1035/355/26 1036/356/26 1037/357/26
f 1036/356/27 1038/358/27 1037/357/27
f 1039/355/24 1040/356/24 1041/357/24
f 1040/356/24 1042/358/24 1041/357/24
f 1043/355/28 1044/356/28 1045/357/28
f 1044/356/29 1046/358/29 1045/357/29
f 1047/355/19 1048/356/19 1049/357/19
f 1048/356/19 1050/358/19 1049/357/19
f 1051/355/27 1052/356/27 1053/357/27
f 1052/356/27 1054/358/27 1053/357/27
f 1055/355/21 1056/356/21 1057/357/21
f 1056/356/21 1058/358/21 1057/357/21
f 1059/355/30 1060/356/30 1061/357/30
f 1060/356/30 1062/358/30 1061/357/30
f 1063/359/31 1064/360/31 1065/356/31
f 1066/356/32 1067/355/32 1068/359/32
f 1069/359/33 1070/360/33 1071/356/33
f 1072/356/33 1073/355/33 1074/359/33
f 1075/359/34 1076/360/34 1077/356/34
f 1078/356/34 1079/355/34 1080/359/34
f 1081/359/35 1082/360/35 1083/356/35
f 1084/356/35 1085/355/35 1086/359/35
f 1087/359/36 1088/360/36 1089/356/36
f 1090/356/36 1091/355/36 1092/359/36
f 1093/359/33 1094/360/33 1095/356/33
f 1096/356/33 1097/355/33 1093/359/33
f 1098/359/37 1099/360/37 1100/356/37
f 1101/356/37 1102/355/37 1098/359/37
f 1103/359/35 1104/360/35 1105/356/35
f 1106/356/35 1107/355/35 1108/359/35
f 1109/359/38 1110/360/38 1111/356/38
f 1112/356/38 1113/355/38 1114/359/38
f 1115/359/39 1116/360/39 1117/356/39
f 1118/356/40 1119/355/40 1120/359/40
f 1121/359/37 1122/360/37 1123/356/37
f 1124/356/37 1125/355/37 1126/359/37
f 1127/359/41 1128/360/41 1129/356/41
f 1130/356/42 1131/355/42 1132/359/42
f 1133/359/32 1134/360/32 1135/356/32
f 1136/356/32 1137/355/32 1138/359/32
f 1139/359/39 1140/360/39 1141/356/39
f 1142/356/39 1143/355/39 1144/359/39
f 1145/359/34 1146/360/34 1147/356/34
f 1148/356/34 1149/355/34 1150/359/34
f 1151/359/43 1152/360/43 1153/356/43
f 1154/356/43 1155/355/43 1156/359/43
f 1157/361/1 1158/360/1 1159/362/1
f 1158/360/1 1160/359/1 1159/362/1
f 1161/361/14 1162/360/14 1163/362/14
f 1162/360/14 1164/359/14 1163/362/14
f 1165/361/2 1166/360/2 1167/362/2
f 1166/360/2 1168/359/2 1167/362/2
f 1169/361/17 1170/360/17 1171/362/17
f 1170/360/17 1172/359/17 1171/362/17
f 1173/361/1 1174/360/1 1175/362/1
f 1174/360/1 1176/359/1 1175/362/1
f 1177/361/14 1178/360/14 1179/362/14
f 1178/360/14 1180/359/14 1179/362/14
f 1181/361/2 1182/360/2 1183/362/2
f 1182/360/2 1184/359/2 1183/362/2
f 1185/361/17 1186/360/17 1187/362/17
f 1186/360/17 1188/359/17 1187/362/17
f 1189/361/1 1190/360/1 1191/362/1
f 1190/360/1 1192/359/1 1191/362/1
f 1193/361/14 1194/360/14 1195/362/14
f 1194/360/14 1196/359/14 1195/362/14
f 1197/361/2 1198/360/2 1199/362/2
f 1198/360/2 1200/359/2 1199/362/2
f 1201/362/17 1202/361/17 1203/360/17
f 1204/360/17 1205/359/17 1206/362/17
f 1207/361/1 1208/360/1 1209/362/1
f 1208/360/1 1210/359/1 1209/362/1
f 1211/361/14 1212/360/14 1213/362/14
f 1212/360/14 1214/359/14 1213/362/14
f 1215/361/2 1216/360/2 1217/362/2
f 1216/360/2 1218/359/2 1217/362/2
f 1219/362/17 1220/361/17 1221/360/17
f 1222/360/17 1223/359/17 1224/362/17
f 1225/363/44 1226/364/44 1227/365/44
f 1226/364/44 1228/366/44 1227/365/44
f 1229/365/45 1230/363/45 1231/366/45
f 1230/363/45 1232/364/45 1231/366/45
f 1233/367/1 1234/368/1 1235/369/1
f 1234/368/1 1236/370/1 1235/369/1
f 1237/371/46 1238/372/46 1239/373/46
f 1238/372/46 1240/374/46 1239/373/46
f 1241/367/2 1242/368/2 1243/369/2
f 1242/368/2 1244/370/2 1243/369/2
f 1245/371/47 1246/372/47 1247/373/47
f 1246/372/47 1248/374/47 1247/373/47
f 1249/363/44 1250/364/44 1251/365/44
f 1250/364/44 1252/366/44 1251/365/44
f 1253/365/45 1254/363/45 1255/366/45
f 1254/363/45 1256/364/45 1255/366/45
f 1257/367/1 1258/368/1 1259/369/1
f 1258/368/1 1260/370/1 1259/369/1
f 1261/371/46 1262/372/46 1263/373/46
f 1262/372/46 1264/374/46 1263/373/46
f 1265/367/2 1266/368/2 1267/369/2
f 1266/368/2 1268/370/2 1267/369/2
f 1269/371/47 1270/372/47 1271/373/47
f 1270/372/47 1272/374/47 1271/373/47
f 1273/363/48 1274/364/48 1275/365/48
f 1274/364/48 1276/366/48 1275/365/48
f 1277/365/49 1278/363/49 1279/366/49
f 1278/363/49 1280/364/49 1279/366/49
f 1281/367/50 1282/368/50 1283/369/50
f 1282/368/50 1284/370/50 1283/369/50
f 1285/371/51 1286/372/51 1287/373/51
f 1286/372/51 1288/374/51 1287/373/51
f 1289/367/52 1290/368/52 1291/369/52
f 1290/368/52 1292/370/52 1291/369/52
f 1293/371/53 1294/372/53 1295/373/53
f 1294/372/53 1296/374/53 1295/373/53
f 1297/363/48 1298/364/48 1299/365/48
f 1298/364/48 1300/366/48 1299/365/48
f 1301/365/54 1302/363/54 1303/366/54
f 1302/363/49 1304/364/49 1303/366/49
f 1305/367/50 1306/368/50 1307/369/50
f 1306/368/50 1308/370/50 1307/369/50
f 1309/371/55 1310/372/55 1311/373/55
f 1310/372/55 1312/374/55 1311/373/55
f 1313/367/52 1314/368/52 1315/369/52
f 1314/368/52 1316/370/52 1315/369/52
f 1317/371/56 1318/372/56 1319/373/56
f 1318/372/57 1320/374/57 1319/373/57
f 1321/375/58 1322/376/58 1323/377/58
f 1323/377/59 1322/376/59 1324/378/59
f 1324/378/60 1322/376/60 1325/379/60
f 1325/379/61 1322/376/61 1326/380/61
f 1326/380/62 1322/376/62 1327/381/62
f 1322/376/63 1328/382/63 1327/381/63
f 1327/381/64 1328/382/64 1329/383/64
f 1329/383/65 1328/382/65 1330/384/65
f 1328/382/66 1331/385/66 1330/384/66
f 1330/384/67 1331/385/67 1332/386/67
f 1331/385/68 1321/375/68 1332/386/68
f 1332/386/69 1321/375/69 1333/387/69
f 1321/375/70 1323/377/70 1333/387/70
f 1333/387/71 1323/377/71 1334/388/71
f 1323/377/72 1324/378/72 1334/388/72
f 1334/388/73 1324/378/73 1335/389/73
f 1324/378/74 1325/379/74 1335/389/74
f 1335/389/75 1325/379/75 1336/390/75
f 1325/379/76 1326/380/76 1336/390/76
f 1336/390/77 1326/380/77 1337/391/77
f 1326/380/78 1327/381/78 1337/391/78
f 1327/381/79 1329/383/79 1337/391/79
f 1329/383/80 1338/392/80 1337/391/80
f 1338/392/81 1339/393/81 1337/391/81
f 1337/391/82 1339/393/82 1336/390/82
f 1339/393/83 1340/394/83 1336/390/83
f 1336/390/84 1340/394/84 1335/389/84
f 1340/394/85 1341/395/85 1335/389/85
f 1335/389/86 1341/395/86 1334/388/86
f 1341/395/87 1342/396/87 1334/388/87
f 1334/388/88 1342/396/88 1333/387/88
f 1342/396/89 1343/397/89 1333/387/89
f 1333/387/90 1343/397/90 1332/386/90
f 1343/397/91 1344/398/91 1332/386/91
f 1332/386/92 1344/398/92 1330/384/92
f 1344/398/93 1345/399/93 1330/384/93
f 1330/384/94 1345/399/94 1329/383/94
f 1329/383/95 1345/399/95 1338/392/95
f 1345/399/96 1346/400/96 1338/392/96
f 1346/400/97 1347/401/97 1338/392/97
f 1338/392/98 1347/401/98 1339/393/98
f 1347/401/99 1348/402/99 1339/393/99
f 1339/393/100 1348/402/100 1340/394/100
f 1348/402/101 1349/403/101 1340/394/101
f 1340/394/102 1349/403/102 1341/395/102
f 1349/403/103 1350/404/103 1341/395/103
f 1341/395/104 1350/404/104 1342/396/104
f 1350/404/105 1351/405/105 1342/396/105
f 1342/396/106 1351/405/106 1343/397/106
f 1351/405/107 1352/406/107 1343/397/107
f 1343/397/108 1352/406/108 1344/398/108
f 1352/406/109 1353/407/109 1344/398/109
f 1344/398/110 1353/407/110 1345/399/110
f 1353/407/111 1346/400/111 1345/399/111
f 1321/375/112 1331/385/112 1322/376/112
f 1331/385/113 1328/382/113 1322/376/113
f 1354/408/114 1355/409/114 1356/410/114
f 1356/410/114 1355/409/114 1357/411/114
f 1355/409/115 1358/412/115 1357/411/115
f 1357/411/115 1358/412/115 1359/413/115
f 1358/412/116 1360/414/116 1359/413/116
f 1359/413/116 1360/414/116 1361/415/116
f 1360/414/117 1362/401/117 1361/415/117
f 1361/415/117 1362/401/117 1363/405/117
f 1362/401/118 1364/416/118 1363/405/118
f 1363/405/118 1364/416/118 1365/417/118
f 1364/416/119 1366/418/119 1365/417/119
f 1365/417/119 1366/418/119 1367/419/119
f 1366/418/120 1368/420/120 1367/419/120
f 1367/419/120 1368/420/120 1369/421/120
f 1368/420/121 1370/422/121 1369/421/121
f 1369/421/121 1370/422/121 1371/423/121
f 1372/403/122 1373/396/122 1374/404/122
f 1374/404/123 1373/396/123 1375/397/123
f 1373/396/124 1372/403/124 1376/395/124
f 1372/403/125 1377/402/125 1376/395/125
f 1376/395/126 1377/402/126 1378/394/126
f 1377/402/127 1379/401/127 1378/394/127
f 1378/394/128 1379/401/128 1380/393/128
f 1379/401/129 1381/400/129 1380/393/129
f 1380/393/130 1381/400/130 1382/392/130
f 1381/400/131 1383/407/131 1382/392/131
f 1382/392/132 1383/407/132 1384/399/132
f 1383/407/133 1385/406/133 1384/399/133
f 1384/399/134 1385/406/134 1386/398/134
f 1385/406/135 1387/405/135 1386/398/135
f 1386/398/136 1387/405/136 1375/397/136
f 1387/405/137 1374/404/137 1375/397/137
f 1388/424/16 1389/425/16 1390/426/16
f 1389/425/16 1391/427/16 1390/426/16
f 1392/428/15 1393/429/15 1394/430/15
f 1393/429/15 1395/431/15 1394/430/15
f 1396/432/138 1397/433/138 1398/434/138
f 1398/434/138 1399/435/138 1400/432/138
f 1401/436/139 1402/437/139 1403/438/139
f 1404/438/139 1405/439/139 1401/436/139
f 1406/440/140 1407/441/140 1408/442/140
f 1408/442/140 1409/443/140 1410/440/140
f 1411/444/141 1412/445/141 1413/446/141
f 1414/446/141 1415/447/141 1411/444/141
f 1416/448/16 1417/449/16 1418/450/16
f 1417/449/16 1419/451/16 1418/450/16
f 1420/452/15 1421/453/15 1422/454/15
f 1421/453/15 1423/455/15 1422/454/15
f 1424/456/1 1425/457/1 1426/458/1
f 1425/457/1 1427/459/1 1426/458/1
f 1428/460/14 1429/461/14 1430/462/14
f 1429/461/14 1431/463/14 1430/462/14
f 1432/464/2 1433/465/2 1434/466/2
f 1433/465/2 1435/467/2 1434/466/2
f 1436/468/17 1437/469/17 1438/470/17
f 1437/469/17 1439/471/17 1438/470/17
f 1440/448/16 1441/449/16 1442/450/16
f 1441/449/16 1443/451/16 1442/450/16
f 1444/472/15 1445/473/15 1446/474/15
f 1445/473/15 1447/475/15 1446/474/15
f 1448/476/1 1449/477/1 1450/478/1
f 1449/477/1 1451/479/1 1450/478/1
f 1452/480/14 1453/481/14 1454/482/14
f 1453/481/14 1455/483/14 1454/482/14
f 1456/484/2 1457/485/2 1458/486/2
f 1457/485/2 1459/487/2 1458/486/2
f 1460/488/17 1461/489/17 1462/490/17
f 1461/489/17 1463/491/17 1462/490/17
