{
	"asset":{
		"generator":"Khronos glTF Blender I/O v5.0.21",
		"version":"2.0"
	},
	"scene":0,
	"scenes":[
		{
			"name":"Scene",
			"nodes":[
				0,
				1,
				2,
				3,
				4,
				5
			]
		}
	],
	"nodes":[
		{
			"mesh":0,
			"name":"back_door",
			"rotation":[
				0.7071068286895752,
				0,
				0,
				0.7071068286895752
			],
			"scale":[
				0.8409596085548401,
				0.8409596085548401,
				0.8409596085548401
			]
		},
		{
			"mesh":1,
			"name":"back_wheels",
			"rotation":[
				0.7071068286895752,
				0,
				0,
				0.7071068286895752
			],
			"scale":[
				0.8409596085548401,
				0.8409596085548401,
				0.8409596085548401
			]
		},
		{
			"mesh":2,
			"name":"body",
			"rotation":[
				0.7071068286895752,
				0,
				0,
				0.7071068286895752
			],
			"scale":[
				0.8409596085548401,
				0.8409596085548401,
				0.8409596085548401
			]
		},
		{
			"mesh":3,
			"name":"front_wheels",
			"rotation":[
				0.7071068286895752,
				0,
				0,
				0.7071068286895752
			],
			"scale":[
				0.8409596085548401,
				0.8409596085548401,
				0.8409596085548401
			]
		},
		{
			"mesh":4,
			"name":"left_door",
			"rotation":[
				0.7071068286895752,
				0,
				0,
				0.7071068286895752
			],
			"scale":[
				0.8409596085548401,
				0.8409596085548401,
				0.8409596085548401
			]
		},
		{
			"mesh":5,
			"name":"right_door",
			"rotation":[
				0.7071068286895752,
				0,
				0,
				0.7071068286895752
			],
			"scale":[
				0.8409596085548401,
				0.8409596085548401,
				0.8409596085548401
			]
		}
	],
	"materials":[
		{
			"doubleSided":true,
			"name":"trabant",
			"normalTexture":{
				"index":0
			},
			"pbrMetallicRoughness":{
				"baseColorTexture":{
					"index":1
				},
				"metallicFactor":0,
				"metallicRoughnessTexture":{
					"index":2
				}
			}
		}
	],
	"meshes":[
		{
			"name":"Mesh.001",
			"primitives":[
				{
					"attributes":{
						"POSITION":0,
						"NORMAL":1,
						"TEXCOORD_0":2
					},
					"indices":3,
					"material":0
				}
			]
		},
		{
			"name":"Mesh.005",
			"primitives":[
				{
					"attributes":{
						"POSITION":4,
						"NORMAL":5,
						"TEXCOORD_0":6
					},
					"indices":7,
					"material":0
				}
			]
		},
		{
			"name":"Mesh",
			"primitives":[
				{
					"attributes":{
						"POSITION":8,
						"NORMAL":9,
						"TEXCOORD_0":10
					},
					"indices":11,
					"material":0
				}
			]
		},
		{
			"name":"Mesh.004",
			"primitives":[
				{
					"attributes":{
						"POSITION":12,
						"NORMAL":13,
						"TEXCOORD_0":14
					},
					"indices":15,
					"material":0
				}
			]
		},
		{
			"name":"Mesh.003",
			"primitives":[
				{
					"attributes":{
						"POSITION":16,
						"NORMAL":17,
						"TEXCOORD_0":18
					},
					"indices":19,
					"material":0
				}
			]
		},
		{
			"name":"Mesh.002",
			"primitives":[
				{
					"attributes":{
						"POSITION":20,
						"NORMAL":21,
						"TEXCOORD_0":22
					},
					"indices":23,
					"material":0
				}
			]
		}
	],
	"textures":[
		{
			"sampler":0,
			"source":0
		},
		{
			"sampler":0,
			"source":1
		},
		{
			"sampler":0,
			"source":2
		}
	],
	"images":[
		{
			"mimeType":"image/png",
			"name":"trabant_601_n",
			"uri":"trabant_601_n.png"
		},
		{
			"mimeType":"image/png",
			"name":"trabant_601_beige_d",
			"uri":"trabant_601_beige_d.png"
		},
		{
			"mimeType":"image/png",
			"name":"trabant_601_s",
			"uri":"trabant_601_s.png"
		}
	],
	"accessors":[
		{
			"bufferView":0,
			"componentType":5126,
			"count":669,
			"max":[
				1.6821184158325195,
				0.5907474756240845,
				-0.6208064556121826
			],
			"min":[
				1.3386545181274414,
				-0.5907474756240845,
				-1.445326328277588
			],
			"type":"VEC3"
		},
		{
			"bufferView":1,
			"componentType":5126,
			"count":669,
			"type":"VEC3"
		},
		{
			"bufferView":2,
			"componentType":5126,
			"count":669,
			"type":"VEC2"
		},
		{
			"bufferView":3,
			"componentType":5123,
			"count":1920,
			"type":"SCALAR"
		},
		{
			"bufferView":4,
			"componentType":5126,
			"count":1204,
			"max":[
				1.1958787441253662,
				0.6836317777633667,
				-0.014943957328796387
			],
			"min":[
				0.5916405916213989,
				-0.6836317777633667,
				-0.6191822290420532
			],
			"type":"VEC3"
		},
		{
			"bufferView":5,
			"componentType":5126,
			"count":1204,
			"type":"VEC3"
		},
		{
			"bufferView":6,
			"componentType":5126,
			"count":1204,
			"type":"VEC2"
		},
		{
			"bufferView":7,
			"componentType":5123,
			"count":4416,
			"type":"SCALAR"
		},
		{
			"bufferView":8,
			"componentType":5126,
			"count":10668,
			"max":[
				1.8059296607971191,
				0.7303316593170166,
				-0.1349058747291565
			],
			"min":[
				-1.7441840171813965,
				-0.7303316593170166,
				-1.5736780166625977
			],
			"type":"VEC3"
		},
		{
			"bufferView":9,
			"componentType":5126,
			"count":10668,
			"type":"VEC3"
		},
		{
			"bufferView":10,
			"componentType":5126,
			"count":10668,
			"type":"VEC2"
		},
		{
			"bufferView":11,
			"componentType":5123,
			"count":33714,
			"type":"SCALAR"
		},
		{
			"bufferView":12,
			"componentType":5126,
			"count":1204,
			"max":[
				-0.7934491634368896,
				0.6836317777633667,
				-0.014943957328796387
			],
			"min":[
				-1.3976874351501465,
				-0.6836317777633667,
				-0.6191822290420532
			],
			"type":"VEC3"
		},
		{
			"bufferView":13,
			"componentType":5126,
			"count":1204,
			"type":"VEC3"
		},
		{
			"bufferView":14,
			"componentType":5126,
			"count":1204,
			"type":"VEC2"
		},
		{
			"bufferView":15,
			"componentType":5123,
			"count":4416,
			"type":"SCALAR"
		},
		{
			"bufferView":16,
			"componentType":5126,
			"count":722,
			"max":[
				0.2968416213989258,
				0.7748250961303711,
				-0.333518922328949
			],
			"min":[
				-0.6332255601882935,
				0.5073479413986206,
				-1.3749637603759766
			],
			"type":"VEC3"
		},
		{
			"bufferView":17,
			"componentType":5126,
			"count":722,
			"type":"VEC3"
		},
		{
			"bufferView":18,
			"componentType":5126,
			"count":722,
			"type":"VEC2"
		},
		{
			"bufferView":19,
			"componentType":5123,
			"count":2124,
			"type":"SCALAR"
		},
		{
			"bufferView":20,
			"componentType":5126,
			"count":722,
			"max":[
				0.2968416213989258,
				-0.5073479413986206,
				-0.333518922328949
			],
			"min":[
				-0.6332255601882935,
				-0.780693769454956,
				-1.3749637603759766
			],
			"type":"VEC3"
		},
		{
			"bufferView":21,
			"componentType":5126,
			"count":722,
			"type":"VEC3"
		},
		{
			"bufferView":22,
			"componentType":5126,
			"count":722,
			"type":"VEC2"
		},
		{
			"bufferView":23,
			"componentType":5123,
			"count":2124,
			"type":"SCALAR"
		}
	],
	"bufferViews":[
		{
			"buffer":0,
			"byteLength":8028,
			"byteOffset":0,
			"target":34962
		},
		{
			"buffer":0,
			"byteLength":8028,
			"byteOffset":8028,
			"target":34962
		},
		{
			"buffer":0,
			"byteLength":5352,
			"byteOffset":16056,
			"target":34962
		},
		{
			"buffer":0,
			"byteLength":3840,
			"byteOffset":21408,
			"target":34963
		},
		{
			"buffer":0,
			"byteLength":14448,
			"byteOffset":25248,
			"target":34962
		},
		{
			"buffer":0,
			"byteLength":14448,
			"byteOffset":39696,
			"target":34962
		},
		{
			"buffer":0,
			"byteLength":9632,
			"byteOffset":54144,
			"target":34962
		},
		{
			"buffer":0,
			"byteLength":8832,
			"byteOffset":63776,
			"target":34963
		},
		{
			"buffer":0,
			"byteLength":128016,
			"byteOffset":72608,
			"target":34962
		},
		{
			"buffer":0,
			"byteLength":128016,
			"byteOffset":200624,
			"target":34962
		},
		{
			"buffer":0,
			"byteLength":85344,
			"byteOffset":328640,
			"target":34962
		},
		{
			"buffer":0,
			"byteLength":67428,
			"byteOffset":413984,
			"target":34963
		},
		{
			"buffer":0,
			"byteLength":14448,
			"byteOffset":481412,
			"target":34962
		},
		{
			"buffer":0,
			"byteLength":14448,
			"byteOffset":495860,
			"target":34962
		},
		{
			"buffer":0,
			"byteLength":9632,
			"byteOffset":510308,
			"target":34962
		},
		{
			"buffer":0,
			"byteLength":8832,
			"byteOffset":519940,
			"target":34963
		},
		{
			"buffer":0,
			"byteLength":8664,
			"byteOffset":528772,
			"target":34962
		},
		{
			"buffer":0,
			"byteLength":8664,
			"byteOffset":537436,
			"target":34962
		},
		{
			"buffer":0,
			"byteLength":5776,
			"byteOffset":546100,
			"target":34962
		},
		{
			"buffer":0,
			"byteLength":4248,
			"byteOffset":551876,
			"target":34963
		},
		{
			"buffer":0,
			"byteLength":8664,
			"byteOffset":556124,
			"target":34962
		},
		{
			"buffer":0,
			"byteLength":8664,
			"byteOffset":564788,
			"target":34962
		},
		{
			"buffer":0,
			"byteLength":5776,
			"byteOffset":573452,
			"target":34962
		},
		{
			"buffer":0,
			"byteLength":4248,
			"byteOffset":579228,
			"target":34963
		}
	],
	"samplers":[
		{
			"magFilter":9729,
			"minFilter":9987
		}
	],
	"buffers":[
		{
			"byteLength":583476,
			"uri":"trabant_601.bin"
		}
	]
}
