# Blender 4.4.1
# www.blender.org
mtllib rail_track_normal_tracks.mtl
o RailTrackTrack
v -0.678641 0.098967 -3.578412
v -0.678641 0.239918 -3.578412
v -0.574207 0.098967 -3.578411
v -0.574207 0.239918 -3.578411
v -0.678641 0.098967 -0.000000
v -0.678641 0.239918 -0.000000
v -0.574207 0.098967 -0.000000
v -0.574207 0.239918 -0.000000
v -0.655035 0.128469 -3.578411
v -0.678641 0.218164 -3.578412
v -0.574207 0.218164 -3.578411
v -0.597813 0.128469 -3.578412
v -0.574207 0.218164 -0.000000
v -0.597813 0.128469 -0.000000
v -0.678641 0.218164 -0.000000
v -0.655034 0.128469 -0.000000
v -0.609018 0.098967 -3.578412
v -0.643830 0.098967 -3.578411
v -0.643830 0.262066 -3.578411
v -0.609018 0.262066 -3.578412
v -0.643830 0.098967 -0.000000
v -0.609018 0.098967 -0.000000
v -0.609018 0.262066 -0.000000
v -0.643830 0.262066 -0.000000
v -0.609018 0.133935 -0.000000
v -0.643830 0.133935 -0.000000
v -0.609018 0.227098 -0.000000
v -0.643830 0.227098 -0.000000
v -0.643830 0.133935 -3.578411
v -0.609018 0.133935 -3.578412
v -0.643830 0.227098 -3.578411
v -0.609018 0.227098 -3.578412
v -0.647794 0.208290 -3.578412
v -0.605054 0.208290 -3.578411
v -0.605054 0.208290 -0.000000
v -0.647794 0.208290 -0.000000
v -0.643830 0.208290 -3.578411
v -0.609018 0.208290 -3.578412
v -0.609018 0.208290 -0.000000
v -0.643830 0.208290 -0.000000
v -0.699239 0.083360 -0.288937
v -0.699239 0.119228 -0.288937
v -0.552740 0.083360 -0.288937
v -0.552740 0.119228 -0.288937
v -0.699239 0.083360 -0.225410
v -0.699239 0.119228 -0.225410
v -0.552740 0.083360 -0.225410
v -0.552740 0.119228 -0.225410
v -0.589839 0.087511 -0.288937
v -0.662141 0.087511 -0.288937
v -0.662141 0.123379 -0.288937
v -0.589839 0.123379 -0.288937
v -0.662141 0.087511 -0.225410
v -0.589838 0.087511 -0.225410
v -0.589838 0.123379 -0.225410
v -0.662141 0.123379 -0.225410
v -0.651486 0.149727 -0.288937
v -0.600493 0.149727 -0.288937
v -0.600493 0.149726 -0.225410
v -0.651486 0.149726 -0.225410
v -0.699239 0.083360 -0.893592
v -0.699239 0.119228 -0.893592
v -0.552740 0.083360 -0.893592
v -0.552740 0.119228 -0.893592
v -0.699239 0.083360 -0.830066
v -0.699239 0.119228 -0.830066
v -0.552740 0.083360 -0.830066
v -0.552740 0.119228 -0.830066
v -0.589838 0.087511 -0.893592
v -0.662140 0.087511 -0.893592
v -0.662140 0.123379 -0.893592
v -0.589838 0.123379 -0.893592
v -0.662141 0.087511 -0.830066
v -0.589839 0.087511 -0.830066
v -0.589839 0.123379 -0.830066
v -0.662141 0.123379 -0.830066
v -0.651486 0.149727 -0.893592
v -0.600493 0.149727 -0.893592
v -0.600493 0.149727 -0.830066
v -0.651486 0.149727 -0.830066
v -0.699239 0.083360 -1.498248
v -0.699239 0.119228 -1.498248
v -0.552740 0.083360 -1.498248
v -0.552740 0.119228 -1.498248
v -0.699239 0.083360 -1.434722
v -0.699239 0.119228 -1.434722
v -0.552740 0.083360 -1.434722
v -0.552740 0.119228 -1.434722
v -0.589839 0.087511 -1.498248
v -0.662140 0.087511 -1.498248
v -0.662140 0.123379 -1.498248
v -0.589839 0.123379 -1.498248
v -0.662140 0.087511 -1.434722
v -0.589838 0.087511 -1.434722
v -0.589838 0.123379 -1.434722
v -0.662140 0.123379 -1.434722
v -0.651486 0.149727 -1.498248
v -0.600493 0.149726 -1.498248
v -0.600493 0.149727 -1.434722
v -0.651486 0.149727 -1.434722
v -0.699239 0.083360 -2.102904
v -0.699239 0.119228 -2.102904
v -0.552740 0.083360 -2.102904
v -0.552740 0.119228 -2.102904
v -0.699239 0.083360 -2.039378
v -0.699239 0.119228 -2.039378
v -0.552740 0.083360 -2.039378
v -0.552740 0.119228 -2.039378
v -0.589838 0.087511 -2.102904
v -0.662140 0.087511 -2.102904
v -0.662140 0.123379 -2.102904
v -0.589838 0.123379 -2.102904
v -0.662140 0.087511 -2.039378
v -0.589839 0.087511 -2.039378
v -0.589839 0.123379 -2.039378
v -0.662140 0.123379 -2.039378
v -0.651486 0.149726 -2.102904
v -0.600493 0.149727 -2.102904
v -0.600493 0.149727 -2.039378
v -0.651486 0.149727 -2.039378
v -0.699239 0.083360 -2.707560
v -0.699239 0.119228 -2.707560
v -0.552740 0.083360 -2.707560
v -0.552740 0.119228 -2.707560
v -0.699239 0.083360 -2.644034
v -0.699239 0.119228 -2.644034
v -0.552740 0.083360 -2.644034
v -0.552740 0.119228 -2.644034
v -0.589838 0.087511 -2.707560
v -0.662141 0.087511 -2.707560
v -0.662141 0.123379 -2.707560
v -0.589838 0.123379 -2.707560
v -0.662141 0.087511 -2.644034
v -0.589838 0.087511 -2.644034
v -0.589838 0.123379 -2.644034
v -0.662141 0.123379 -2.644034
v -0.651486 0.149727 -2.707560
v -0.600493 0.149727 -2.707560
v -0.600493 0.149727 -2.644034
v -0.651486 0.149727 -2.644034
v -0.699239 0.083360 -3.312216
v -0.699239 0.119228 -3.312216
v -0.552740 0.083360 -3.312216
v -0.552740 0.119228 -3.312216
v -0.699239 0.083360 -3.248690
v -0.699239 0.119228 -3.248690
v -0.552740 0.083360 -3.248690
v -0.552740 0.119228 -3.248690
v -0.589838 0.087511 -3.312216
v -0.662140 0.087511 -3.312216
v -0.662140 0.123379 -3.312216
v -0.589838 0.123379 -3.312216
v -0.662141 0.087511 -3.248690
v -0.589838 0.087511 -3.248690
v -0.589838 0.123379 -3.248690
v -0.662141 0.123379 -3.248690
v -0.651486 0.149727 -3.312216
v -0.600493 0.149727 -3.312216
v -0.600493 0.149727 -3.248690
v -0.651486 0.149727 -3.248690
v 0.678641 0.098967 -3.578412
v 0.678641 0.239918 -3.578412
v 0.574207 0.098967 -3.578411
v 0.574207 0.239918 -3.578411
v 0.678641 0.098967 -0.000000
v 0.678641 0.239918 -0.000000
v 0.574207 0.098967 -0.000000
v 0.574207 0.239918 -0.000000
v 0.655035 0.128469 -3.578411
v 0.678641 0.218164 -3.578412
v 0.574207 0.218164 -3.578411
v 0.597813 0.128469 -3.578412
v 0.574207 0.218164 -0.000000
v 0.597813 0.128469 -0.000000
v 0.678641 0.218164 -0.000000
v 0.655034 0.128469 -0.000000
v 0.609018 0.098967 -3.578412
v 0.643830 0.098967 -3.578411
v 0.643830 0.262066 -3.578411
v 0.609018 0.262066 -3.578412
v 0.643830 0.098967 -0.000000
v 0.609018 0.098967 -0.000000
v 0.609018 0.262066 -0.000000
v 0.643830 0.262066 -0.000000
v 0.609018 0.133935 -0.000000
v 0.643830 0.133935 -0.000000
v 0.609018 0.227098 -0.000000
v 0.643830 0.227098 -0.000000
v 0.643830 0.133935 -3.578411
v 0.609018 0.133935 -3.578412
v 0.643830 0.227098 -3.578411
v 0.609018 0.227098 -3.578412
v 0.647794 0.208290 -3.578412
v 0.605054 0.208290 -3.578411
v 0.605054 0.208290 -0.000000
v 0.647794 0.208290 -0.000000
v 0.643830 0.208290 -3.578411
v 0.609018 0.208290 -3.578412
v 0.609018 0.208290 -0.000000
v 0.643830 0.208290 -0.000000
v 0.699239 0.083360 -0.288937
v 0.699239 0.119228 -0.288937
v 0.552740 0.083360 -0.288937
v 0.552740 0.119228 -0.288937
v 0.699239 0.083360 -0.225410
v 0.699239 0.119228 -0.225410
v 0.552740 0.083360 -0.225410
v 0.552740 0.119228 -0.225410
v 0.589839 0.087511 -0.288937
v 0.662141 0.087511 -0.288937
v 0.662141 0.123379 -0.288937
v 0.589839 0.123379 -0.288937
v 0.662141 0.087511 -0.225410
v 0.589838 0.087511 -0.225410
v 0.589838 0.123379 -0.225410
v 0.662141 0.123379 -0.225410
v 0.651486 0.149727 -0.288937
v 0.600493 0.149727 -0.288937
v 0.600493 0.149726 -0.225410
v 0.651486 0.149726 -0.225410
v 0.699239 0.083360 -0.893592
v 0.699239 0.119228 -0.893592
v 0.552740 0.083360 -0.893592
v 0.552740 0.119228 -0.893592
v 0.699239 0.083360 -0.830066
v 0.699239 0.119228 -0.830066
v 0.552740 0.083360 -0.830066
v 0.552740 0.119228 -0.830066
v 0.589838 0.087511 -0.893592
v 0.662140 0.087511 -0.893592
v 0.662140 0.123379 -0.893592
v 0.589838 0.123379 -0.893592
v 0.662141 0.087511 -0.830066
v 0.589839 0.087511 -0.830066
v 0.589839 0.123379 -0.830066
v 0.662141 0.123379 -0.830066
v 0.651486 0.149727 -0.893592
v 0.600493 0.149727 -0.893592
v 0.600493 0.149727 -0.830066
v 0.651486 0.149727 -0.830066
v 0.699239 0.083360 -1.498248
v 0.699239 0.119228 -1.498248
v 0.552740 0.083360 -1.498248
v 0.552740 0.119228 -1.498248
v 0.699239 0.083360 -1.434722
v 0.699239 0.119228 -1.434722
v 0.552740 0.083360 -1.434722
v 0.552740 0.119228 -1.434722
v 0.589839 0.087511 -1.498248
v 0.662140 0.087511 -1.498248
v 0.662140 0.123379 -1.498248
v 0.589839 0.123379 -1.498248
v 0.662140 0.087511 -1.434722
v 0.589838 0.087511 -1.434722
v 0.589838 0.123379 -1.434722
v 0.662140 0.123379 -1.434722
v 0.651486 0.149727 -1.498248
v 0.600493 0.149726 -1.498248
v 0.600493 0.149727 -1.434722
v 0.651486 0.149727 -1.434722
v 0.699239 0.083360 -2.102904
v 0.699239 0.119228 -2.102904
v 0.552740 0.083360 -2.102904
v 0.552740 0.119228 -2.102904
v 0.699239 0.083360 -2.039378
v 0.699239 0.119228 -2.039378
v 0.552740 0.083360 -2.039378
v 0.552740 0.119228 -2.039378
v 0.589838 0.087511 -2.102904
v 0.662140 0.087511 -2.102904
v 0.662140 0.123379 -2.102904
v 0.589838 0.123379 -2.102904
v 0.662140 0.087511 -2.039378
v 0.589839 0.087511 -2.039378
v 0.589839 0.123379 -2.039378
v 0.662140 0.123379 -2.039378
v 0.651486 0.149726 -2.102904
v 0.600493 0.149727 -2.102904
v 0.600493 0.149727 -2.039378
v 0.651486 0.149727 -2.039378
v 0.699239 0.083360 -2.707560
v 0.699239 0.119228 -2.707560
v 0.552740 0.083360 -2.707560
v 0.552740 0.119228 -2.707560
v 0.699239 0.083360 -2.644034
v 0.699239 0.119228 -2.644034
v 0.552740 0.083360 -2.644034
v 0.552740 0.119228 -2.644034
v 0.589838 0.087511 -2.707560
v 0.662141 0.087511 -2.707560
v 0.662141 0.123379 -2.707560
v 0.589838 0.123379 -2.707560
v 0.662141 0.087511 -2.644034
v 0.589838 0.087511 -2.644034
v 0.589838 0.123379 -2.644034
v 0.662141 0.123379 -2.644034
v 0.651486 0.149727 -2.707560
v 0.600493 0.149727 -2.707560
v 0.600493 0.149727 -2.644034
v 0.651486 0.149727 -2.644034
v 0.699239 0.083360 -3.312216
v 0.699239 0.119228 -3.312216
v 0.552740 0.083360 -3.312216
v 0.552740 0.119228 -3.312216
v 0.699239 0.083360 -3.248690
v 0.699239 0.119228 -3.248690
v 0.552740 0.083360 -3.248690
v 0.552740 0.119228 -3.248690
v 0.589838 0.087511 -3.312216
v 0.662140 0.087511 -3.312216
v 0.662140 0.123379 -3.312216
v 0.589838 0.123379 -3.312216
v 0.662141 0.087511 -3.248690
v 0.589838 0.087511 -3.248690
v 0.589838 0.123379 -3.248690
v 0.662141 0.123379 -3.248690
v 0.651486 0.149727 -3.312216
v 0.600493 0.149727 -3.312216
v 0.600493 0.149727 -3.248690
v 0.651486 0.149727 -3.248690
vn -0.0000 -0.0000 -1.0000
vn 1.0000 -0.0000 -0.0000
vn -0.0000 -0.0000 1.0000
vn -1.0000 -0.0000 -0.0000
vn -0.0000 -1.0000 -0.0000
vn -0.5368 0.8437 -0.0000
vn -0.7808 0.6248 -0.0000
vn -0.3049 -0.9524 -0.0000
vn 0.7808 0.6248 -0.0000
vn 0.3049 -0.9524 -0.0000
vn 0.0001 -0.0000 -1.0000
vn 0.0002 -0.0000 -1.0000
vn 0.5368 0.8437 -0.0000
vn -0.0000 1.0000 -0.0000
vn -0.4385 0.8988 -0.0000
vn -0.4384 0.8988 -0.0000
vn 0.4384 0.8988 -0.0000
vn 0.1112 -0.9938 -0.0000
vn -0.1112 0.9938 -0.0000
vn 0.1112 0.9938 -0.0000
vn -0.9271 0.3749 -0.0000
vn -0.1112 -0.9938 -0.0000
vn 0.9271 0.3749 -0.0000
vn -0.0001 -0.0000 -1.0000
vn -0.0002 -0.0000 -1.0000
vn 0.4385 0.8988 -0.0000
vt 0.553835 0.806370
vt 0.504871 0.824402
vt 0.504871 0.793803
vt 1.359019 0.598841
vt -0.887866 0.554494
vt 1.359019 0.586876
vt 0.813860 0.824802
vt 0.778782 0.837720
vt 0.778782 0.815799
vt -0.887866 0.569234
vt 1.359020 0.610807
vt -0.887866 0.583974
vt 1.359019 0.839939
vt -0.887866 0.842653
vt 1.359020 0.820792
vt -0.399085 0.953914
vt 1.477188 0.935661
vt 1.477188 0.953914
vt -0.887866 0.603964
vt 1.359020 0.643261
vt -0.887866 0.623954
vt -0.887866 0.647541
vt 1.359020 0.679375
vt -0.887867 0.668443
vt 0.813860 0.695688
vt 0.802570 0.725416
vt 0.778782 0.695688
vt 0.809866 0.805850
vt 0.813860 0.805850
vt 1.359020 0.627034
vt 1.359019 0.610807
vt 1.359019 0.662408
vt -0.887867 0.626640
vt 1.359019 0.645441
vt 0.553835 0.626144
vt 0.538074 0.667641
vt 0.504871 0.626144
vt 0.548259 0.779915
vt 0.553835 0.779915
vt 0.608376 0.779915
vt 0.602800 0.806370
vt 0.602800 0.779915
vt 0.618561 0.667641
vt 0.602800 0.626144
vt 0.651765 0.626144
vt 0.602800 0.675329
vt 0.852934 0.805850
vt 0.848939 0.824802
vt 0.848939 0.805850
vt 0.860230 0.725416
vt 0.848939 0.695688
vt 0.884017 0.695688
vt 0.848939 0.730924
vt -0.399085 0.990420
vt 1.477188 0.972167
vt 1.477188 0.990419
vt 1.359019 0.878234
vt -0.887866 0.889828
vt 1.359020 0.859087
vt 0.884017 0.837720
vt 0.884017 0.815799
vt 0.848939 0.860038
vt 0.651765 0.824402
vt 0.651765 0.793803
vt 0.602800 0.855555
vt 0.813860 0.730924
vt 0.553835 0.675329
vt -0.887866 0.554493
vt 1.359019 0.580713
vt 1.359020 0.574550
vt -0.887866 0.546902
vt -0.887866 0.539310
vt -0.887866 0.721510
vt 1.359019 0.681555
vt 1.359019 0.722453
vt -0.887867 0.623954
vt 1.359020 0.763350
vt 1.359020 0.722453
vt 0.608988 0.119277
vt 0.507544 0.106686
vt 0.622265 0.106686
vt 0.393237 0.168559
vt 0.638367 0.032642
vt 0.638367 0.168559
vt 0.733344 0.081706
vt 0.568674 0.061267
vt 0.754897 0.061267
vt 0.393237 0.172017
vt 0.638367 0.036101
vt 0.638367 0.172017
vt 0.768850 0.143816
vt 0.622265 0.156408
vt 0.622265 0.143816
vt 0.382441 0.206744
vt 0.282974 0.041211
vt 0.382441 0.036948
vt 0.944317 0.205734
vt 0.849307 0.037996
vt 0.944317 0.042107
vt 0.591519 0.036101
vt 0.410580 0.172017
vt 0.410580 0.036101
vt 0.768850 0.119277
vt 0.622265 0.119277
vt 0.568674 0.141979
vt 0.733344 0.121540
vt 0.754897 0.141979
vt 0.547121 0.121540
vt 0.507544 0.156408
vt 0.608988 0.143816
vt 0.494266 0.143816
vt 0.497874 0.169759
vt 0.412445 0.033843
vt 0.497872 0.033843
vt 0.410332 0.087576
vt 0.547121 0.081706
vt 0.494266 0.119277
vt 0.409998 0.140201
vt 0.409998 0.122893
vt 0.758765 0.080752
vt 0.589072 0.123187
vt 0.589072 0.080752
vt 0.382441 0.038855
vt 0.282974 0.211370
vt 0.282974 0.041722
vt 0.944317 0.042601
vt 0.849307 0.203602
vt 0.849305 0.039835
vt 0.768850 0.106686
vt 0.758765 0.123187
vt 0.382443 0.203941
vt 0.282974 0.035620
vt 0.382443 0.034148
vt 0.944317 0.200340
vt 0.849307 0.035296
vt 0.944317 0.036715
vt 0.591519 0.172017
vt 0.410332 0.115670
vt 0.382443 0.209635
vt 0.282974 0.039916
vt 0.382443 0.039840
vt 0.944317 0.040859
vt 0.849307 0.204553
vt 0.849305 0.040785
vt 0.382441 0.210726
vt 0.282974 0.039611
vt 0.382441 0.040930
vt 0.944317 0.204190
vt 0.849307 0.041836
vt 0.944317 0.040564
vt 0.382441 0.042022
vt 0.282974 0.208954
vt 0.282974 0.039306
vt 0.944317 0.203896
vt 0.849307 0.042890
vt 0.944317 0.040270
vt 0.604838 0.806370
vt 0.653802 0.824402
vt 0.604838 0.855555
vt 0.013894 0.625795
vt 2.072692 0.589107
vt 2.072692 0.602438
vt 0.847584 0.824802
vt 0.882663 0.837720
vt 0.847584 0.860038
vt 2.072693 0.602438
vt 0.013894 0.636617
vt 2.072692 0.892396
vt 0.013894 0.878489
vt 0.013894 0.861171
vt 1.477188 0.991815
vt -0.399085 0.973563
vt 1.477188 0.973563
vt 2.072693 0.633849
vt 0.013894 0.665970
vt 0.013894 0.651294
vt 2.072693 0.675691
vt 0.013894 0.700605
vt 0.013894 0.685259
vt 0.847584 0.695688
vt 0.858875 0.725416
vt 0.847584 0.730924
vt 0.851579 0.805850
vt 0.847584 0.805850
vt 2.072692 0.633849
vt 0.013894 0.636617
vt 2.072693 0.615769
vt 0.013894 0.681315
vt 2.072692 0.651929
vt 2.072692 0.670833
vt 0.604838 0.626144
vt 0.620598 0.667641
vt 0.604838 0.675329
vt 0.610413 0.779915
vt 0.604838 0.779915
vt 0.550296 0.779915
vt 0.555872 0.806370
vt 0.506908 0.793803
vt 0.555872 0.779915
vt 0.555872 0.626144
vt 0.540111 0.667641
vt 0.506908 0.626144
vt 0.555872 0.675329
vt 0.808511 0.805850
vt 0.812505 0.824802
vt 0.777427 0.815799
vt 0.812505 0.805850
vt 0.812505 0.695688
vt 0.801214 0.725416
vt 0.777427 0.695688
vt 0.812505 0.730924
vt 1.477188 0.955310
vt -0.399085 0.937057
vt 1.477188 0.937057
vt -0.399085 0.955310
vt 2.072692 0.849729
vt 0.013894 0.843853
vt 0.013894 0.826536
vt 2.072693 0.871062
vt 0.777427 0.837720
vt 0.812505 0.860038
vt 0.506908 0.824402
vt 0.555872 0.855555
vt 0.013894 0.609399
vt 2.072692 0.582240
vt 0.013894 0.603825
vt 2.072693 0.582240
vt 2.072692 0.740162
vt 2.072692 0.694595
vt 0.013894 0.683287
vt 2.072692 0.673262
vt 0.013894 0.774583
vt 2.072693 0.740162
vt 2.072693 0.785729
vt 0.952703 0.011104
vt 0.835402 0.211971
vt 0.835402 0.011104
vt 0.387736 0.009113
vt 0.270435 0.209980
vt 0.270435 0.009113
vt 0.835402 0.009767
vt 0.952703 0.210630
vt 0.835399 0.210630
vt 0.270435 0.007775
vt 0.387736 0.208639
vt 0.270435 0.208639
vt 0.952703 0.012317
vt 0.835399 0.213181
vt 0.835399 0.012317
vt 0.387736 0.009333
vt 0.270435 0.210197
vt 0.270435 0.009333
vt 0.952703 0.009842
vt 0.835399 0.210707
vt 0.835399 0.009842
vt 0.270435 0.010189
vt 0.387736 0.211054
vt 0.270435 0.211054
vt 0.952703 0.010276
vt 0.835402 0.211139
vt 0.835402 0.010276
vt 0.387736 0.008284
vt 0.270435 0.209148
vt 0.270435 0.008284
vt 0.835402 0.007802
vt 0.952703 0.208666
vt 0.835399 0.208666
vt 0.387736 0.008455
vt 0.270435 0.209319
vt 0.270435 0.008455
vt 0.553835 0.855555
vt 0.813860 0.860038
vt 1.359020 0.598841
vt -0.887866 0.866241
vt -0.399085 0.935662
vt 1.359019 0.627034
vt 1.359020 0.662408
vt -0.887866 0.603964
vt -0.887866 0.647541
vt -0.399085 0.972167
vt -0.887866 0.913416
vt 1.359020 0.580713
vt -0.887866 0.671128
vt -0.887866 0.671128
vt -0.887866 0.771891
vt 0.393237 0.032642
vt 0.393237 0.036101
vt 0.768850 0.156408
vt 0.282974 0.210859
vt 0.849305 0.201765
vt 0.412445 0.169759
vt 0.382443 0.208649
vt 0.944317 0.206226
vt 0.282974 0.205267
vt 0.849305 0.199061
vt 0.282974 0.209564
vt 0.944317 0.204484
vt 0.282974 0.209259
vt 0.849307 0.205605
vt 0.382443 0.211816
vt 0.849307 0.206656
vt 0.653802 0.793803
vt 0.013894 0.614973
vt 0.882663 0.815799
vt 2.072693 0.913729
vt -0.399085 0.991815
vt 2.072693 0.694595
vt 0.882663 0.695688
vt 0.013894 0.665970
vt 0.653802 0.626144
vt 0.013894 0.614973
vt 2.072693 0.575373
vt 0.013894 0.737594
vt 2.072693 0.673262
vt 0.952703 0.211971
vt 0.387740 0.209980
vt 0.952703 0.009767
vt 0.387740 0.007775
vt 0.952703 0.213181
vt 0.387740 0.210197
vt 0.952703 0.210707
vt 0.387740 0.010189
vt 0.952703 0.211139
vt 0.387736 0.209148
vt 0.952703 0.007802
vt 0.387736 0.209319
s 1
usemtl matRailTrack
f 32/1/1 4/2/1 11/3/1
f 4/4/2 13/5/2 11/6/2
f 28/7/3 6/8/3 15/9/3
f 6/10/4 10/11/4 15/12/4
f 18/13/5 5/14/5 1/15/5
f 19/16/6 6/17/6 24/18/6
f 16/19/7 1/20/7 5/21/7
f 15/22/8 33/23/8 36/24/8
f 21/25/3 16/26/3 5/27/3
f 28/7/3 36/28/3 40/29/3
f 12/30/9 7/12/9 3/31/9
f 11/32/10 35/33/10 34/34/10
f 17/35/1 12/36/1 3/37/1
f 32/1/1 34/38/11 38/39/1
f 33/40/12 31/41/1 37/42/11
f 31/41/1 38/39/1 37/42/11
f 9/43/1 18/44/1 1/45/1
f 29/46/1 17/35/1 18/44/1
f 35/47/3 27/48/3 39/49/3
f 27/48/3 40/29/3 39/49/3
f 14/50/3 22/51/3 7/52/3
f 25/53/3 21/25/3 22/51/3
f 4/54/13 23/55/13 8/56/13
f 23/55/14 19/16/14 24/18/14
f 3/57/5 22/58/5 17/59/5
f 22/58/5 18/13/5 17/59/5
f 8/60/3 27/48/3 13/61/3
f 23/62/3 28/7/3 27/48/3
f 2/63/1 31/41/1 10/64/1
f 19/65/1 32/1/1 31/41/1
f 39/49/3 26/66/3 25/53/3
f 37/42/11 30/67/1 29/46/1
f 16/68/15 29/69/16 9/6/16
f 12/70/17 25/71/17 14/72/17
f 26/73/4 37/74/4 29/75/4
f 39/76/5 34/34/5 35/33/5
f 37/74/5 36/24/5 33/23/5
f 38/77/2 25/73/2 30/78/2
f 49/79/1 44/80/1 43/81/1
f 44/82/2 47/83/2 43/84/2
f 53/85/3 46/86/3 45/87/3
f 46/88/4 41/89/4 45/90/4
f 53/91/18 41/92/18 50/93/18
f 51/94/19 46/95/19 56/96/19
f 44/97/20 55/98/20 48/99/20
f 51/100/21 60/101/21 57/102/21
f 43/81/22 54/103/22 49/104/22
f 49/104/5 53/91/5 50/93/5
f 48/105/3 54/106/3 47/107/3
f 55/108/3 53/85/3 54/106/3
f 42/109/1 50/110/1 41/92/1
f 51/111/1 49/79/1 50/110/1
f 58/112/14 60/113/14 59/114/14
f 55/108/3 60/115/3 56/116/3
f 52/117/1 57/118/1 58/119/1
f 52/120/23 59/121/23 55/122/23
f 69/79/1 64/80/1 63/81/1
f 64/82/2 67/83/2 63/84/2
f 73/85/3 66/86/3 65/87/3
f 66/88/4 61/89/4 65/90/4
f 73/91/18 61/92/18 70/93/18
f 76/123/19 62/124/19 66/125/19
f 68/126/20 72/127/20 75/128/20
f 71/100/21 80/101/21 77/102/21
f 67/129/22 69/104/22 63/81/22
f 74/103/5 70/93/5 69/104/5
f 68/105/3 74/106/3 67/107/3
f 75/108/3 73/85/3 74/106/3
f 62/109/1 70/110/1 61/92/1
f 71/111/1 69/79/1 70/110/1
f 78/112/14 80/113/14 79/114/14
f 75/108/3 80/115/3 76/116/3
f 71/111/1 78/119/1 72/117/1
f 75/122/23 78/130/23 79/121/23
f 89/79/1 84/80/1 83/81/1
f 84/82/2 87/83/2 83/84/2
f 93/85/3 86/86/3 85/87/3
f 86/88/4 81/89/4 85/90/4
f 93/91/18 81/92/18 90/93/18
f 91/131/19 86/132/19 96/133/19
f 84/134/20 95/135/20 88/136/20
f 96/137/21 97/102/21 91/100/21
f 83/81/22 94/103/22 89/104/22
f 89/104/5 93/91/5 90/93/5
f 88/105/3 94/106/3 87/107/3
f 95/108/3 93/85/3 94/106/3
f 82/109/1 90/110/1 81/92/1
f 91/111/1 89/79/1 90/110/1
f 98/112/14 100/113/14 99/114/14
f 96/116/3 99/138/3 100/115/3
f 91/111/1 98/119/1 92/117/1
f 95/122/23 98/130/23 99/121/23
f 109/79/1 104/80/1 103/81/1
f 104/82/2 107/83/2 103/84/2
f 113/85/3 106/86/3 105/87/3
f 106/88/4 101/89/4 105/90/4
f 113/91/18 101/92/18 110/93/18
f 111/139/19 106/140/19 116/141/19
f 108/142/20 112/143/20 115/144/20
f 116/137/21 117/102/21 111/100/21
f 107/129/22 109/104/22 103/81/22
f 114/103/5 110/93/5 109/104/5
f 108/105/3 114/106/3 107/107/3
f 115/108/3 113/85/3 114/106/3
f 102/109/1 110/110/1 101/92/1
f 111/111/1 109/79/1 110/110/1
f 118/112/14 120/113/14 119/114/14
f 116/116/3 119/138/3 120/115/3
f 111/111/1 118/119/1 112/117/1
f 115/122/23 118/130/23 119/121/23
f 129/79/1 124/80/1 123/81/1
f 124/82/2 127/83/2 123/84/2
f 133/85/3 126/86/3 125/87/3
f 126/88/4 121/89/4 125/90/4
f 133/91/18 121/92/18 130/93/18
f 131/145/19 126/146/19 136/147/19
f 124/148/20 135/149/20 128/150/20
f 136/137/21 137/102/21 131/100/21
f 127/129/22 129/104/22 123/81/22
f 134/103/5 130/93/5 129/104/5
f 128/105/3 134/106/3 127/107/3
f 135/108/3 133/85/3 134/106/3
f 122/109/1 130/110/1 121/92/1
f 131/111/1 129/79/1 130/110/1
f 138/112/14 140/113/14 139/114/14
f 135/108/3 140/115/3 136/116/3
f 131/111/1 138/119/1 132/117/1
f 132/120/23 139/121/23 135/122/23
f 149/79/1 144/80/1 143/81/1
f 144/82/2 147/83/2 143/84/2
f 153/85/3 146/86/3 145/87/3
f 146/88/4 141/89/4 145/90/4
f 153/91/18 141/92/18 150/93/18
f 156/151/19 142/152/19 146/153/19
f 144/154/20 155/155/20 148/156/20
f 151/100/21 160/101/21 157/102/21
f 147/129/22 149/104/22 143/81/22
f 154/103/5 150/93/5 149/104/5
f 148/105/3 154/106/3 147/107/3
f 155/108/3 153/85/3 154/106/3
f 142/109/1 150/110/1 141/92/1
f 151/111/1 149/79/1 150/110/1
f 158/112/14 160/113/14 159/114/14
f 155/108/3 160/115/3 156/116/3
f 151/111/1 158/119/1 152/117/1
f 152/120/23 159/121/23 155/122/23
f 192/157/1 164/158/1 180/159/1
f 173/160/4 164/161/4 171/162/4
f 188/163/3 166/164/3 184/165/3
f 170/166/2 166/167/2 175/160/2
f 178/168/5 165/169/5 181/170/5
f 166/171/13 179/172/13 184/173/13
f 161/174/9 176/175/9 165/176/9
f 193/177/10 175/178/10 196/179/10
f 181/180/3 176/181/3 186/182/3
f 196/183/3 188/163/3 200/184/3
f 163/185/7 174/186/7 172/187/7
f 195/188/8 171/189/8 194/190/8
f 177/191/1 172/192/1 190/193/1
f 194/194/24 192/157/1 198/195/1
f 193/196/25 191/197/1 170/198/1
f 198/195/1 191/197/1 197/199/24
f 178/200/1 169/201/1 161/202/1
f 177/191/1 189/203/1 178/200/1
f 195/204/3 187/205/3 173/206/3
f 200/184/3 187/205/3 199/207/3
f 182/208/3 174/209/3 167/210/3
f 181/180/3 185/211/3 182/208/3
f 183/212/6 164/213/6 168/214/6
f 183/212/14 179/172/14 180/215/14
f 163/216/5 182/217/5 167/218/5
f 178/168/5 182/217/5 177/219/5
f 187/205/3 168/220/3 173/206/3
f 188/163/3 183/221/3 187/205/3
f 191/197/1 162/222/1 170/198/1
f 192/157/1 179/223/1 191/197/1
f 186/182/3 199/207/3 185/211/3
f 190/193/1 197/199/24 189/203/1
f 189/161/17 176/224/26 169/225/17
f 185/226/16 172/227/16 174/224/16
f 197/228/2 186/178/2 189/229/2
f 194/190/5 199/230/5 195/188/5
f 196/179/5 197/231/5 193/177/5
f 185/232/4 198/233/4 190/234/4
f 209/79/1 204/80/1 212/117/1
f 207/83/4 204/82/4 203/84/4
f 213/85/3 206/86/3 216/116/3
f 201/89/2 206/88/2 205/90/2
f 201/92/22 213/91/22 210/93/22
f 206/235/20 211/236/20 216/237/20
f 215/238/19 204/239/19 208/240/19
f 211/100/23 220/101/23 216/137/23
f 203/81/18 214/103/18 207/129/18
f 209/104/5 213/91/5 214/103/5
f 214/106/3 208/105/3 207/107/3
f 213/85/3 215/108/3 214/106/3
f 210/110/1 202/109/1 201/92/1
f 209/79/1 211/111/1 210/110/1
f 220/113/14 218/112/14 219/114/14
f 220/115/3 215/108/3 216/116/3
f 212/117/1 217/118/1 211/111/1
f 219/121/21 212/120/21 215/122/21
f 229/79/1 224/80/1 232/117/1
f 227/83/4 224/82/4 223/84/4
f 233/85/3 226/86/3 236/116/3
f 221/89/2 226/88/2 225/90/2
f 221/92/22 233/91/22 230/93/22
f 236/241/20 222/242/20 231/243/20
f 228/244/19 232/245/19 224/246/19
f 231/100/23 240/101/23 236/137/23
f 229/104/18 227/129/18 223/81/18
f 230/93/5 234/103/5 229/104/5
f 234/106/3 228/105/3 227/107/3
f 233/85/3 235/108/3 234/106/3
f 230/110/1 222/109/1 221/92/1
f 229/79/1 231/111/1 230/110/1
f 240/113/14 238/112/14 239/114/14
f 240/115/3 235/108/3 236/116/3
f 238/119/1 231/111/1 232/117/1
f 235/122/21 238/130/21 232/120/21
f 249/79/1 244/80/1 252/117/1
f 247/83/4 244/82/4 243/84/4
f 253/85/3 246/86/3 256/116/3
f 241/89/2 246/88/2 245/90/2
f 241/92/22 253/91/22 250/93/22
f 246/247/20 251/248/20 256/249/20
f 255/250/19 244/251/19 248/252/19
f 257/102/23 256/137/23 251/100/23
f 243/81/18 254/103/18 247/129/18
f 249/104/5 253/91/5 254/103/5
f 254/106/3 248/105/3 247/107/3
f 253/85/3 255/108/3 254/106/3
f 250/110/1 242/109/1 241/92/1
f 249/79/1 251/111/1 250/110/1
f 260/113/14 258/112/14 259/114/14
f 256/116/3 259/138/3 255/108/3
f 258/119/1 251/111/1 252/117/1
f 255/122/21 258/130/21 252/120/21
f 269/79/1 264/80/1 272/117/1
f 267/83/4 264/82/4 263/84/4
f 273/85/3 266/86/3 276/116/3
f 261/89/2 266/88/2 265/90/2
f 261/92/22 273/91/22 270/93/22
f 266/253/20 271/254/20 276/255/20
f 268/256/19 272/257/19 264/258/19
f 277/102/23 276/137/23 271/100/23
f 269/104/18 267/129/18 263/81/18
f 270/93/5 274/103/5 269/104/5
f 274/106/3 268/105/3 267/107/3
f 273/85/3 275/108/3 274/106/3
f 270/110/1 262/109/1 261/92/1
f 269/79/1 271/111/1 270/110/1
f 280/113/14 278/112/14 279/114/14
f 276/116/3 279/138/3 275/108/3
f 278/119/1 271/111/1 272/117/1
f 275/122/21 278/130/21 272/120/21
f 289/79/1 284/80/1 292/117/1
f 287/83/4 284/82/4 283/84/4
f 293/85/3 286/86/3 296/116/3
f 281/89/2 286/88/2 285/90/2
f 281/92/22 293/91/22 290/93/22
f 286/259/20 291/260/20 296/261/20
f 295/262/19 284/263/19 288/264/19
f 297/102/23 296/137/23 291/100/23
f 289/104/18 287/129/18 283/81/18
f 290/93/5 294/103/5 289/104/5
f 294/106/3 288/105/3 287/107/3
f 293/85/3 295/108/3 294/106/3
f 290/110/1 282/109/1 281/92/1
f 289/79/1 291/111/1 290/110/1
f 300/113/14 298/112/14 299/114/14
f 300/115/3 295/108/3 296/116/3
f 298/119/1 291/111/1 292/117/1
f 299/121/21 292/120/21 295/122/21
f 309/79/1 304/80/1 312/117/1
f 307/83/4 304/82/4 303/84/4
f 313/85/3 306/86/3 316/116/3
f 301/89/2 306/88/2 305/90/2
f 301/92/22 313/91/22 310/93/22
f 316/265/20 302/266/20 311/267/20
f 315/268/19 304/269/19 308/270/19
f 311/100/23 320/101/23 316/137/23
f 309/104/18 307/129/18 303/81/18
f 310/93/5 314/103/5 309/104/5
f 314/106/3 308/105/3 307/107/3
f 313/85/3 315/108/3 314/106/3
f 310/110/1 302/109/1 301/92/1
f 309/79/1 311/111/1 310/110/1
f 320/113/14 318/112/14 319/114/14
f 320/115/3 315/108/3 316/116/3
f 318/119/1 311/111/1 312/117/1
f 319/121/21 312/120/21 315/122/21
f 32/1/1 20/271/1 4/2/1
f 4/4/2 8/10/2 13/5/2
f 28/7/3 24/272/3 6/8/3
f 6/10/4 2/273/4 10/11/4
f 18/13/5 21/274/5 5/14/5
f 19/16/6 2/275/6 6/17/6
f 16/19/7 9/276/7 1/20/7
f 15/22/8 10/277/8 33/23/8
f 21/25/3 26/66/3 16/26/3
f 28/7/3 15/9/3 36/28/3
f 12/30/9 14/278/9 7/12/9
f 11/32/10 13/279/10 35/33/10
f 17/35/1 30/67/1 12/36/1
f 32/1/1 11/3/1 34/38/11
f 33/40/12 10/64/1 31/41/1
f 31/41/1 32/1/1 38/39/1
f 9/43/1 29/46/1 18/44/1
f 29/46/1 30/67/1 17/35/1
f 35/47/3 13/61/3 27/48/3
f 27/48/3 28/7/3 40/29/3
f 14/50/3 25/53/3 22/51/3
f 25/53/3 26/66/3 21/25/3
f 4/54/13 20/280/13 23/55/13
f 23/55/14 20/280/14 19/16/14
f 3/57/5 7/281/5 22/58/5
f 22/58/5 21/274/5 18/13/5
f 8/60/3 23/62/3 27/48/3
f 23/62/3 24/272/3 28/7/3
f 2/63/1 19/65/1 31/41/1
f 19/65/1 20/271/1 32/1/1
f 39/49/3 40/29/3 26/66/3
f 37/42/11 38/39/1 30/67/1
f 16/68/15 26/71/15 29/69/16
f 12/70/17 30/282/17 25/71/17
f 26/73/4 40/283/4 37/74/4
f 39/76/5 38/20/5 34/34/5
f 37/74/5 40/284/5 36/24/5
f 38/77/2 39/285/2 25/73/2
f 49/79/1 52/117/1 44/80/1
f 44/82/2 48/286/2 47/83/2
f 53/85/3 56/116/3 46/86/3
f 46/88/4 42/287/4 41/89/4
f 53/91/18 45/288/18 41/92/18
f 51/94/19 42/289/19 46/95/19
f 44/97/20 52/290/20 55/98/20
f 51/100/21 56/137/21 60/101/21
f 43/81/22 47/129/22 54/103/22
f 49/104/5 54/103/5 53/91/5
f 48/105/3 55/108/3 54/106/3
f 55/108/3 56/116/3 53/85/3
f 42/109/1 51/111/1 50/110/1
f 51/111/1 52/117/1 49/79/1
f 58/112/14 57/291/14 60/113/14
f 55/108/3 59/138/3 60/115/3
f 52/117/1 51/111/1 57/118/1
f 52/120/23 58/130/23 59/121/23
f 69/79/1 72/117/1 64/80/1
f 64/82/2 68/286/2 67/83/2
f 73/85/3 76/116/3 66/86/3
f 66/88/4 62/287/4 61/89/4
f 73/91/18 65/288/18 61/92/18
f 76/123/19 71/292/19 62/124/19
f 68/126/20 64/293/20 72/127/20
f 71/100/21 76/137/21 80/101/21
f 67/129/22 74/103/22 69/104/22
f 74/103/5 73/91/5 70/93/5
f 68/105/3 75/108/3 74/106/3
f 75/108/3 76/116/3 73/85/3
f 62/109/1 71/111/1 70/110/1
f 71/111/1 72/117/1 69/79/1
f 78/112/14 77/291/14 80/113/14
f 75/108/3 79/138/3 80/115/3
f 71/111/1 77/118/1 78/119/1
f 75/122/23 72/120/23 78/130/23
f 89/79/1 92/117/1 84/80/1
f 84/82/2 88/286/2 87/83/2
f 93/85/3 96/116/3 86/86/3
f 86/88/4 82/287/4 81/89/4
f 93/91/18 85/288/18 81/92/18
f 91/131/19 82/294/19 86/132/19
f 84/134/20 92/295/20 95/135/20
f 96/137/21 100/101/21 97/102/21
f 83/81/22 87/129/22 94/103/22
f 89/104/5 94/103/5 93/91/5
f 88/105/3 95/108/3 94/106/3
f 95/108/3 96/116/3 93/85/3
f 82/109/1 91/111/1 90/110/1
f 91/111/1 92/117/1 89/79/1
f 98/112/14 97/291/14 100/113/14
f 96/116/3 95/108/3 99/138/3
f 91/111/1 97/118/1 98/119/1
f 95/122/23 92/120/23 98/130/23
f 109/79/1 112/117/1 104/80/1
f 104/82/2 108/286/2 107/83/2
f 113/85/3 116/116/3 106/86/3
f 106/88/4 102/287/4 101/89/4
f 113/91/18 105/288/18 101/92/18
f 111/139/19 102/296/19 106/140/19
f 108/142/20 104/297/20 112/143/20
f 116/137/21 120/101/21 117/102/21
f 107/129/22 114/103/22 109/104/22
f 114/103/5 113/91/5 110/93/5
f 108/105/3 115/108/3 114/106/3
f 115/108/3 116/116/3 113/85/3
f 102/109/1 111/111/1 110/110/1
f 111/111/1 112/117/1 109/79/1
f 118/112/14 117/291/14 120/113/14
f 116/116/3 115/108/3 119/138/3
f 111/111/1 117/118/1 118/119/1
f 115/122/23 112/120/23 118/130/23
f 129/79/1 132/117/1 124/80/1
f 124/82/2 128/286/2 127/83/2
f 133/85/3 136/116/3 126/86/3
f 126/88/4 122/287/4 121/89/4
f 133/91/18 125/288/18 121/92/18
f 131/145/19 122/298/19 126/146/19
f 124/148/20 132/299/20 135/149/20
f 136/137/21 140/101/21 137/102/21
f 127/129/22 134/103/22 129/104/22
f 134/103/5 133/91/5 130/93/5
f 128/105/3 135/108/3 134/106/3
f 135/108/3 136/116/3 133/85/3
f 122/109/1 131/111/1 130/110/1
f 131/111/1 132/117/1 129/79/1
f 138/112/14 137/291/14 140/113/14
f 135/108/3 139/138/3 140/115/3
f 131/111/1 137/118/1 138/119/1
f 132/120/23 138/130/23 139/121/23
f 149/79/1 152/117/1 144/80/1
f 144/82/2 148/286/2 147/83/2
f 153/85/3 156/116/3 146/86/3
f 146/88/4 142/287/4 141/89/4
f 153/91/18 145/288/18 141/92/18
f 156/151/19 151/300/19 142/152/19
f 144/154/20 152/301/20 155/155/20
f 151/100/21 156/137/21 160/101/21
f 147/129/22 154/103/22 149/104/22
f 154/103/5 153/91/5 150/93/5
f 148/105/3 155/108/3 154/106/3
f 155/108/3 156/116/3 153/85/3
f 142/109/1 151/111/1 150/110/1
f 151/111/1 152/117/1 149/79/1
f 158/112/14 157/291/14 160/113/14
f 155/108/3 159/138/3 160/115/3
f 151/111/1 157/118/1 158/119/1
f 152/120/23 158/130/23 159/121/23
f 192/157/1 171/302/1 164/158/1
f 173/160/4 168/303/4 164/161/4
f 188/163/3 175/304/3 166/164/3
f 170/166/2 162/187/2 166/167/2
f 178/168/5 161/305/5 165/169/5
f 166/171/13 162/306/13 179/172/13
f 161/174/9 169/189/9 176/175/9
f 193/177/10 170/307/10 175/178/10
f 181/180/3 165/308/3 176/181/3
f 196/183/3 175/304/3 188/163/3
f 163/185/7 167/176/7 174/186/7
f 195/188/8 173/309/8 171/189/8
f 177/191/1 163/310/1 172/192/1
f 194/194/24 171/302/1 192/157/1
f 193/196/25 197/199/24 191/197/1
f 198/195/1 192/157/1 191/197/1
f 178/200/1 189/203/1 169/201/1
f 177/191/1 190/193/1 189/203/1
f 195/204/3 199/207/3 187/205/3
f 200/184/3 188/163/3 187/205/3
f 182/208/3 185/211/3 174/209/3
f 181/180/3 186/182/3 185/211/3
f 183/212/6 180/215/6 164/213/6
f 183/212/14 184/173/14 179/172/14
f 163/216/5 177/219/5 182/217/5
f 178/168/5 181/170/5 182/217/5
f 187/205/3 183/221/3 168/220/3
f 188/163/3 184/165/3 183/221/3
f 191/197/1 179/223/1 162/222/1
f 192/157/1 180/159/1 179/223/1
f 186/182/3 200/184/3 199/207/3
f 190/193/1 198/195/1 197/199/24
f 189/161/17 186/311/26 176/224/26
f 185/226/16 190/312/16 172/227/16
f 197/228/2 200/313/2 186/178/2
f 194/190/5 198/314/5 199/230/5
f 196/179/5 200/230/5 197/231/5
f 185/232/4 199/313/4 198/233/4
f 209/79/1 203/81/1 204/80/1
f 207/83/4 208/286/4 204/82/4
f 213/85/3 205/87/3 206/86/3
f 201/89/2 202/287/2 206/88/2
f 201/92/22 205/288/22 213/91/22
f 206/235/20 202/315/20 211/236/20
f 215/238/19 212/316/19 204/239/19
f 211/100/23 217/102/23 220/101/23
f 203/81/18 209/104/18 214/103/18
f 209/104/5 210/93/5 213/91/5
f 214/106/3 215/108/3 208/105/3
f 213/85/3 216/116/3 215/108/3
f 210/110/1 211/111/1 202/109/1
f 209/79/1 212/117/1 211/111/1
f 220/113/14 217/291/14 218/112/14
f 220/115/3 219/138/3 215/108/3
f 212/117/1 218/119/1 217/118/1
f 219/121/21 218/130/21 212/120/21
f 229/79/1 223/81/1 224/80/1
f 227/83/4 228/286/4 224/82/4
f 233/85/3 225/87/3 226/86/3
f 221/89/2 222/287/2 226/88/2
f 221/92/22 225/288/22 233/91/22
f 236/241/20 226/317/20 222/242/20
f 228/244/19 235/318/19 232/245/19
f 231/100/23 237/102/23 240/101/23
f 229/104/18 234/103/18 227/129/18
f 230/93/5 233/91/5 234/103/5
f 234/106/3 235/108/3 228/105/3
f 233/85/3 236/116/3 235/108/3
f 230/110/1 231/111/1 222/109/1
f 229/79/1 232/117/1 231/111/1
f 240/113/14 237/291/14 238/112/14
f 240/115/3 239/138/3 235/108/3
f 238/119/1 237/118/1 231/111/1
f 235/122/21 239/121/21 238/130/21
f 249/79/1 243/81/1 244/80/1
f 247/83/4 248/286/4 244/82/4
f 253/85/3 245/87/3 246/86/3
f 241/89/2 242/287/2 246/88/2
f 241/92/22 245/288/22 253/91/22
f 246/247/20 242/319/20 251/248/20
f 255/250/19 252/320/19 244/251/19
f 257/102/23 260/101/23 256/137/23
f 243/81/18 249/104/18 254/103/18
f 249/104/5 250/93/5 253/91/5
f 254/106/3 255/108/3 248/105/3
f 253/85/3 256/116/3 255/108/3
f 250/110/1 251/111/1 242/109/1
f 249/79/1 252/117/1 251/111/1
f 260/113/14 257/291/14 258/112/14
f 256/116/3 260/115/3 259/138/3
f 258/119/1 257/118/1 251/111/1
f 255/122/21 259/121/21 258/130/21
f 269/79/1 263/81/1 264/80/1
f 267/83/4 268/286/4 264/82/4
f 273/85/3 265/87/3 266/86/3
f 261/89/2 262/287/2 266/88/2
f 261/92/22 265/288/22 273/91/22
f 266/253/20 262/321/20 271/254/20
f 268/256/19 275/322/19 272/257/19
f 277/102/23 280/101/23 276/137/23
f 269/104/18 274/103/18 267/129/18
f 270/93/5 273/91/5 274/103/5
f 274/106/3 275/108/3 268/105/3
f 273/85/3 276/116/3 275/108/3
f 270/110/1 271/111/1 262/109/1
f 269/79/1 272/117/1 271/111/1
f 280/113/14 277/291/14 278/112/14
f 276/116/3 280/115/3 279/138/3
f 278/119/1 277/118/1 271/111/1
f 275/122/21 279/121/21 278/130/21
f 289/79/1 283/81/1 284/80/1
f 287/83/4 288/286/4 284/82/4
f 293/85/3 285/87/3 286/86/3
f 281/89/2 282/287/2 286/88/2
f 281/92/22 285/288/22 293/91/22
f 286/259/20 282/323/20 291/260/20
f 295/262/19 292/324/19 284/263/19
f 297/102/23 300/101/23 296/137/23
f 289/104/18 294/103/18 287/129/18
f 290/93/5 293/91/5 294/103/5
f 294/106/3 295/108/3 288/105/3
f 293/85/3 296/116/3 295/108/3
f 290/110/1 291/111/1 282/109/1
f 289/79/1 292/117/1 291/111/1
f 300/113/14 297/291/14 298/112/14
f 300/115/3 299/138/3 295/108/3
f 298/119/1 297/118/1 291/111/1
f 299/121/21 298/130/21 292/120/21
f 309/79/1 303/81/1 304/80/1
f 307/83/4 308/286/4 304/82/4
f 313/85/3 305/87/3 306/86/3
f 301/89/2 302/287/2 306/88/2
f 301/92/22 305/288/22 313/91/22
f 316/265/20 306/325/20 302/266/20
f 315/268/19 312/326/19 304/269/19
f 311/100/23 317/102/23 320/101/23
f 309/104/18 314/103/18 307/129/18
f 310/93/5 313/91/5 314/103/5
f 314/106/3 315/108/3 308/105/3
f 313/85/3 316/116/3 315/108/3
f 310/110/1 311/111/1 302/109/1
f 309/79/1 312/117/1 311/111/1
f 320/113/14 317/291/14 318/112/14
f 320/115/3 319/138/3 315/108/3
f 318/119/1 317/118/1 311/111/1
f 319/121/21 318/130/21 312/120/21
o RailTrackLogs
v -0.920906 -0.077152 -0.120374
v -0.920906 0.107886 -0.120374
v 0.989683 -0.077152 -0.120374
v 0.989683 0.107886 -0.120374
v -0.920906 -0.077152 -0.393974
v -0.920906 0.107886 -0.393974
v 0.989683 -0.077152 -0.393974
v 0.989683 0.107886 -0.393974
v -0.431844 0.107886 -0.120374
v 0.500621 0.107886 -0.120374
v -0.431844 -0.077152 -0.120374
v 0.500621 -0.077152 -0.120374
v -0.431844 0.107886 -0.393974
v 0.500621 0.107886 -0.393974
v -0.431844 -0.077152 -0.393974
v 0.500621 -0.077152 -0.393974
v -0.363894 0.068608 -0.120374
v 0.432671 0.068608 -0.120374
v -0.363894 0.068608 -0.393974
v 0.432671 0.068608 -0.393974
v -0.363894 -0.077152 -0.393974
v 0.432671 -0.077152 -0.393974
v -0.363894 -0.077152 -0.120374
v 0.432671 -0.077152 -0.120374
v -0.920906 -0.077152 -0.804374
v -0.920906 0.107886 -0.804374
v 0.989683 -0.077152 -0.804374
v 0.989683 0.107886 -0.804374
v -0.920906 -0.077152 -1.077974
v -0.920906 0.107886 -1.077974
v 0.989683 -0.077152 -1.077974
v 0.989683 0.107886 -1.077974
v -0.431844 0.107886 -0.804374
v 0.500621 0.107886 -0.804374
v -0.431844 -0.077152 -0.804374
v 0.500621 -0.077152 -0.804374
v -0.431844 0.107886 -1.077974
v 0.500621 0.107886 -1.077974
v -0.431844 -0.077152 -1.077974
v 0.500621 -0.077152 -1.077974
v -0.363894 0.068608 -0.804374
v 0.432671 0.068608 -0.804374
v -0.363894 0.068608 -1.077974
v 0.432671 0.068608 -1.077974
v -0.363894 -0.077152 -1.077974
v 0.432671 -0.077152 -1.077974
v -0.363894 -0.077152 -0.804374
v 0.432671 -0.077152 -0.804374
v -0.920906 -0.077152 -1.488374
v -0.920906 0.107886 -1.488374
v 0.989683 -0.077152 -1.488374
v 0.989683 0.107886 -1.488374
v -0.920906 -0.077152 -1.761975
v -0.920906 0.107886 -1.761975
v 0.989683 -0.077152 -1.761975
v 0.989683 0.107886 -1.761975
v -0.431844 0.107886 -1.488374
v 0.500621 0.107886 -1.488374
v -0.431844 -0.077152 -1.488374
v 0.500621 -0.077152 -1.488374
v -0.431844 0.107886 -1.761975
v 0.500621 0.107886 -1.761975
v -0.431844 -0.077152 -1.761975
v 0.500621 -0.077152 -1.761975
v -0.363894 0.068608 -1.488374
v 0.432671 0.068608 -1.488374
v -0.363894 0.068608 -1.761975
v 0.432671 0.068608 -1.761975
v -0.363894 -0.077152 -1.761975
v 0.432671 -0.077152 -1.761975
v -0.363894 -0.077152 -1.488374
v 0.432671 -0.077152 -1.488374
v -0.920906 -0.077152 -2.172375
v -0.920906 0.107886 -2.172375
v 0.989683 -0.077152 -2.172375
v 0.989683 0.107886 -2.172375
v -0.920906 -0.077152 -2.445975
v -0.920906 0.107886 -2.445975
v 0.989683 -0.077152 -2.445975
v 0.989683 0.107886 -2.445975
v -0.431844 0.107886 -2.172375
v 0.500621 0.107886 -2.172375
v -0.431844 -0.077152 -2.172375
v 0.500621 -0.077152 -2.172375
v -0.431844 0.107886 -2.445975
v 0.500621 0.107886 -2.445975
v -0.431844 -0.077152 -2.445975
v 0.500621 -0.077152 -2.445975
v -0.363894 0.068608 -2.172375
v 0.432671 0.068608 -2.172375
v -0.363894 0.068608 -2.445975
v 0.432671 0.068608 -2.445975
v -0.363894 -0.077152 -2.445975
v 0.432671 -0.077152 -2.445975
v -0.363894 -0.077152 -2.172375
v 0.432671 -0.077152 -2.172375
v -0.920906 -0.077152 -2.856375
v -0.920906 0.107886 -2.856375
v 0.989683 -0.077152 -2.856375
v 0.989683 0.107886 -2.856375
v -0.920906 -0.077152 -3.129975
v -0.920906 0.107886 -3.129975
v 0.989683 -0.077152 -3.129975
v 0.989683 0.107886 -3.129975
v -0.431844 0.107886 -2.856375
v 0.500621 0.107886 -2.856375
v -0.431844 -0.077152 -2.856375
v 0.500621 -0.077152 -2.856375
v -0.431844 0.107886 -3.129975
v 0.500621 0.107886 -3.129975
v -0.431844 -0.077152 -3.129975
v 0.500621 -0.077152 -3.129975
v -0.363894 0.068608 -2.856375
v 0.432671 0.068608 -2.856375
v -0.363894 0.068608 -3.129975
v 0.432671 0.068608 -3.129975
v -0.363894 -0.077152 -3.129975
v 0.432671 -0.077152 -3.129975
v -0.363894 -0.077152 -2.856375
v 0.432671 -0.077152 -2.856375
vn -0.0000 -1.0000 -0.0000
vn -0.2591 0.9659 -0.0000
vn 0.2591 0.9659 -0.0000
vn -1.0000 -0.0000 -0.0000
vn -0.0000 -0.0000 -1.0000
vn 1.0000 -0.0000 -0.0000
vn -0.0000 1.0000 -0.0000
vn -0.0000 -0.0000 1.0000
vt 0.255663 0.333965
vt 0.005419 0.473960
vt 0.005419 0.333965
vt 0.290431 0.331846
vt 0.698018 0.471842
vt 0.290431 0.471842
vt 0.145415 0.283536
vt 0.005419 0.378216
vt 0.005419 0.283536
vt 0.732787 0.333965
vt 0.698018 0.259382
vt 0.732787 0.239284
vt 0.983030 0.239284
vt 0.983030 0.333965
vt 0.732787 0.471842
vt 0.698018 0.331846
vt 0.732787 0.331846
vt 0.285411 0.378216
vt 0.285411 0.283536
vt 0.983030 0.471842
vt 0.983030 0.331846
vt 0.255663 0.331846
vt 0.255663 0.471842
vt 0.005419 0.471842
vt 0.005419 0.331846
vt 0.698018 0.333965
vt 0.290431 0.259382
vt 0.290431 0.333965
vt 0.005419 0.239284
vt 0.732787 0.472897
vt 0.983030 0.378217
vt 0.983030 0.472897
vt 0.698018 0.398314
vt 0.732787 0.378217
vt 0.290431 0.472897
vt 0.290431 0.398314
vt 0.255663 0.472897
vt 0.255663 0.378217
vt 0.005419 0.378217
vt 0.005419 0.472897
vt 0.290432 0.473960
vt 0.255663 0.473960
vt 0.698018 0.473960
vt 0.732787 0.473960
vt 0.983030 0.473960
vt 0.145415 0.378216
vt 0.145415 0.378216
vt 0.255663 0.239284
vt 0.698018 0.472897
s 1
usemtl matRailTrack.001
f 335/327/27 321/328/27 325/329/27
f 340/330/28 337/331/29 338/332/28
f 326/333/30 321/334/30 322/335/30
f 336/336/31 340/337/31 334/338/31
f 336/336/31 328/339/31 327/340/31
f 329/341/29 339/342/29 333/343/29
f 328/344/32 323/333/32 327/345/32
f 322/346/33 333/343/29 326/347/33
f 334/348/28 338/332/28 330/349/28
f 334/348/28 324/350/33 328/351/33
f 342/352/31 339/353/31 340/337/31
f 335/327/31 339/353/31 341/354/31
f 326/355/31 335/327/31 325/329/31
f 331/356/34 322/357/34 321/358/34
f 331/356/34 337/359/34 329/360/34
f 337/359/34 344/361/34 338/362/34
f 338/362/34 332/363/34 330/364/34
f 324/365/34 332/363/34 323/366/34
f 335/327/27 343/367/27 331/368/27
f 344/369/27 341/354/27 342/352/27
f 344/369/27 336/336/27 332/370/27
f 332/370/27 327/340/27 323/371/27
f 359/327/27 345/328/27 349/329/27
f 364/330/28 361/331/29 362/332/28
f 350/333/30 345/334/30 346/335/30
f 360/336/31 364/337/31 358/338/31
f 360/336/31 352/339/31 351/340/31
f 353/341/29 363/342/29 357/343/29
f 352/344/32 347/333/32 351/345/32
f 346/346/33 357/343/29 350/347/33
f 358/348/28 362/332/28 354/349/28
f 358/348/28 348/350/33 352/351/33
f 366/352/31 363/353/31 364/337/31
f 359/327/31 363/353/31 365/354/31
f 350/355/31 359/327/31 349/329/31
f 355/356/34 346/357/34 345/358/34
f 355/356/34 361/359/34 353/360/34
f 361/359/34 368/361/34 362/362/34
f 362/362/34 356/363/34 354/364/34
f 348/365/34 356/363/34 347/366/34
f 359/327/27 367/367/27 355/368/27
f 368/369/27 365/354/27 366/352/27
f 368/369/27 360/336/27 356/370/27
f 356/370/27 351/340/27 347/371/27
f 383/327/27 369/328/27 373/329/27
f 388/330/28 385/331/29 386/332/28
f 374/333/30 369/334/30 370/335/30
f 384/336/31 388/337/31 382/338/31
f 384/336/31 376/339/31 375/340/31
f 377/341/29 387/342/29 381/343/29
f 376/344/32 371/333/32 375/345/32
f 370/346/33 381/343/29 374/347/33
f 382/348/28 386/332/28 378/349/28
f 382/348/28 372/350/33 376/351/33
f 390/352/31 387/353/31 388/337/31
f 383/327/31 387/353/31 389/354/31
f 374/355/31 383/327/31 373/329/31
f 379/356/34 370/357/34 369/358/34
f 379/356/34 385/359/34 377/360/34
f 385/359/34 392/361/34 386/362/34
f 386/362/34 380/363/34 378/364/34
f 372/365/34 380/363/34 371/366/34
f 383/327/27 391/367/27 379/368/27
f 392/369/27 389/354/27 390/352/27
f 392/369/27 384/336/27 380/370/27
f 380/370/27 375/340/27 371/371/27
f 407/327/27 393/328/27 397/329/27
f 412/330/28 409/331/29 410/332/28
f 398/333/30 393/334/30 394/335/30
f 408/336/31 412/337/31 406/338/31
f 408/336/31 400/339/31 399/340/31
f 401/341/29 411/342/29 405/343/29
f 400/344/32 395/333/32 399/345/32
f 394/346/33 405/343/29 398/347/33
f 406/348/28 410/332/28 402/349/28
f 406/348/28 396/350/33 400/351/33
f 414/352/31 411/353/31 412/337/31
f 407/327/31 411/353/31 413/354/31
f 398/355/31 407/327/31 397/329/31
f 403/356/34 394/357/34 393/358/34
f 403/356/34 409/359/34 401/360/34
f 409/359/34 416/361/34 410/362/34
f 410/362/34 404/363/34 402/364/34
f 396/365/34 404/363/34 395/366/34
f 407/327/27 415/367/27 403/368/27
f 416/369/27 413/354/27 414/352/27
f 416/369/27 408/336/27 404/370/27
f 404/370/27 399/340/27 395/371/27
f 431/327/27 417/328/27 421/329/27
f 436/330/28 433/331/29 434/332/28
f 422/333/30 417/334/30 418/335/30
f 432/336/31 436/337/31 430/338/31
f 432/336/31 424/339/31 423/340/31
f 425/341/29 435/342/29 429/343/29
f 424/344/32 419/333/32 423/345/32
f 418/346/33 429/343/29 422/347/33
f 430/348/28 434/332/28 426/349/28
f 430/348/28 420/350/33 424/351/33
f 438/352/31 435/353/31 436/337/31
f 431/327/31 435/353/31 437/354/31
f 422/355/31 431/327/31 421/329/31
f 427/356/34 418/357/34 417/358/34
f 427/356/34 433/359/34 425/360/34
f 433/359/34 440/361/34 434/362/34
f 434/362/34 428/363/34 426/364/34
f 420/365/34 428/363/34 419/366/34
f 431/327/27 439/367/27 427/368/27
f 440/369/27 437/354/27 438/352/27
f 440/369/27 432/336/27 428/370/27
f 428/370/27 423/340/27 419/371/27
f 335/327/27 331/368/27 321/328/27
f 340/330/28 339/342/29 337/331/29
f 326/333/30 325/372/30 321/334/30
f 336/336/31 342/352/31 340/337/31
f 336/336/31 334/338/31 328/339/31
f 329/341/29 337/331/29 339/342/29
f 328/344/32 324/373/32 323/333/32
f 322/346/33 329/341/29 333/343/29
f 334/348/28 340/330/28 338/332/28
f 334/348/28 330/349/28 324/350/33
f 342/352/31 341/354/31 339/353/31
f 335/327/31 333/374/31 339/353/31
f 326/355/31 333/374/31 335/327/31
f 331/356/34 329/360/34 322/357/34
f 331/356/34 343/375/34 337/359/34
f 337/359/34 343/375/34 344/361/34
f 338/362/34 344/361/34 332/363/34
f 324/365/34 330/364/34 332/363/34
f 335/327/27 341/354/27 343/367/27
f 344/369/27 343/367/27 341/354/27
f 344/369/27 342/352/27 336/336/27
f 332/370/27 336/336/27 327/340/27
f 359/327/27 355/368/27 345/328/27
f 364/330/28 363/342/29 361/331/29
f 350/333/30 349/372/30 345/334/30
f 360/336/31 366/352/31 364/337/31
f 360/336/31 358/338/31 352/339/31
f 353/341/29 361/331/29 363/342/29
f 352/344/32 348/373/32 347/333/32
f 346/346/33 353/341/29 357/343/29
f 358/348/28 364/330/28 362/332/28
f 358/348/28 354/349/28 348/350/33
f 366/352/31 365/354/31 363/353/31
f 359/327/31 357/374/31 363/353/31
f 350/355/31 357/374/31 359/327/31
f 355/356/34 353/360/34 346/357/34
f 355/356/34 367/375/34 361/359/34
f 361/359/34 367/375/34 368/361/34
f 362/362/34 368/361/34 356/363/34
f 348/365/34 354/364/34 356/363/34
f 359/327/27 365/354/27 367/367/27
f 368/369/27 367/367/27 365/354/27
f 368/369/27 366/352/27 360/336/27
f 356/370/27 360/336/27 351/340/27
f 383/327/27 379/368/27 369/328/27
f 388/330/28 387/342/29 385/331/29
f 374/333/30 373/372/30 369/334/30
f 384/336/31 390/352/31 388/337/31
f 384/336/31 382/338/31 376/339/31
f 377/341/29 385/331/29 387/342/29
f 376/344/32 372/373/32 371/333/32
f 370/346/33 377/341/29 381/343/29
f 382/348/28 388/330/28 386/332/28
f 382/348/28 378/349/28 372/350/33
f 390/352/31 389/354/31 387/353/31
f 383/327/31 381/374/31 387/353/31
f 374/355/31 381/374/31 383/327/31
f 379/356/34 377/360/34 370/357/34
f 379/356/34 391/375/34 385/359/34
f 385/359/34 391/375/34 392/361/34
f 386/362/34 392/361/34 380/363/34
f 372/365/34 378/364/34 380/363/34
f 383/327/27 389/354/27 391/367/27
f 392/369/27 391/367/27 389/354/27
f 392/369/27 390/352/27 384/336/27
f 380/370/27 384/336/27 375/340/27
f 407/327/27 403/368/27 393/328/27
f 412/330/28 411/342/29 409/331/29
f 398/333/30 397/372/30 393/334/30
f 408/336/31 414/352/31 412/337/31
f 408/336/31 406/338/31 400/339/31
f 401/341/29 409/331/29 411/342/29
f 400/344/32 396/373/32 395/333/32
f 394/346/33 401/341/29 405/343/29
f 406/348/28 412/330/28 410/332/28
f 406/348/28 402/349/28 396/350/33
f 414/352/31 413/354/31 411/353/31
f 407/327/31 405/374/31 411/353/31
f 398/355/31 405/374/31 407/327/31
f 403/356/34 401/360/34 394/357/34
f 403/356/34 415/375/34 409/359/34
f 409/359/34 415/375/34 416/361/34
f 410/362/34 416/361/34 404/363/34
f 396/365/34 402/364/34 404/363/34
f 407/327/27 413/354/27 415/367/27
f 416/369/27 415/367/27 413/354/27
f 416/369/27 414/352/27 408/336/27
f 404/370/27 408/336/27 399/340/27
f 431/327/27 427/368/27 417/328/27
f 436/330/28 435/342/29 433/331/29
f 422/333/30 421/372/30 417/334/30
f 432/336/31 438/352/31 436/337/31
f 432/336/31 430/338/31 424/339/31
f 425/341/29 433/331/29 435/342/29
f 424/344/32 420/373/32 419/333/32
f 418/346/33 425/341/29 429/343/29
f 430/348/28 436/330/28 434/332/28
f 430/348/28 426/349/28 420/350/33
f 438/352/31 437/354/31 435/353/31
f 431/327/31 429/374/31 435/353/31
f 422/355/31 429/374/31 431/327/31
f 427/356/34 425/360/34 418/357/34
f 427/356/34 439/375/34 433/359/34
f 433/359/34 439/375/34 440/361/34
f 434/362/34 440/361/34 428/363/34
f 420/365/34 426/364/34 428/363/34
f 431/327/27 437/354/27 439/367/27
f 440/369/27 439/367/27 437/354/27
f 440/369/27 438/352/27 432/336/27
f 428/370/27 432/336/27 423/340/27
