<?xml version="1.0" encoding="UTF-8" standalone="no"?>
<svg
   width="16"
   height="16"
   version="1.1"
   id="svg1"
   sodipodi:docname="PathMesh3D.svg"
   inkscape:version="1.4-rc1 (61ec3f2, 2024-09-26)"
   xmlns:inkscape="http://www.inkscape.org/namespaces/inkscape"
   xmlns:sodipodi="http://sodipodi.sourceforge.net/DTD/sodipodi-0.dtd"
   xmlns:xlink="http://www.w3.org/1999/xlink"
   xmlns="http://www.w3.org/2000/svg"
   xmlns:svg="http://www.w3.org/2000/svg">
  <defs
     id="defs1" />
  <sodipodi:namedview
     id="namedview1"
     pagecolor="#505050"
     bordercolor="#ffffff"
     borderopacity="1"
     inkscape:showpageshadow="0"
     inkscape:pageopacity="0"
     inkscape:pagecheckerboard="1"
     inkscape:deskcolor="#505050"
     inkscape:zoom="59.78125"
     inkscape:cx="7.2430737"
     inkscape:cy="6.9001568"
     inkscape:window-width="3840"
     inkscape:window-height="2131"
     inkscape:window-x="1341"
     inkscape:window-y="-9"
     inkscape:window-maximized="1"
     inkscape:current-layer="svg1" />
  <path
     fill="#fc7f7f"
     d="M 2.8662419,8.502729 A 0.99914324,0.99914324 0 1 0 1.5024113,9.8665596 v 3.2676984 a 0.99914324,0.99914324 0 1 0 1.3638306,1.363331 h 3.2676979 a 0.99914324,0.99914324 0 1 0 1.363331,-1.363831 V 9.86606 A 0.99914324,0.99914324 0 1 0 6.1334403,8.502729 Z m 0.3412074,0.9991433 h 2.925991 A 0.99914324,0.99914324 0 0 0 6.497628,9.8665596 V 12.792051 L 3.2069497,9.5018723 Z M 2.501055,10.208267 5.7907341,13.498446 H 2.8647431 A 0.99914324,0.99914324 0 0 0 2.5005554,13.133758 v -2.925491 z"
     id="path1"
     style="stroke-width:0.499572" />
  <path
     fill="#fc7f7f"
     d="M 9.8662413,1.502411 A 0.99914324,0.99914324 0 1 0 8.5024107,2.8662416 V 6.13394 A 0.99914324,0.99914324 0 1 0 9.8662413,7.497271 H 13.133939 A 0.99914324,0.99914324 0 1 0 14.49727,6.13344 V 2.865742 A 0.99914324,0.99914324 0 1 0 13.13344,1.502411 Z m 0.3412077,0.9991433 h 2.925991 a 0.99914324,0.99914324 0 0 0 0.364187,0.3646873 V 5.791733 L 10.206949,2.5015543 Z M 9.5010544,3.207949 12.790733,6.498128 H 9.8647425 A 0.99914324,0.99914324 0 0 0 9.5005548,6.13344 V 3.207949 Z"
     id="path1-8"
     style="stroke-width:0.499572" />
  <path
     style="fill:none;stroke:#fc7f7f;stroke-linejoin:round;stroke-opacity:1;stroke-dasharray:0.5,0.5;stroke-dashoffset:0"
     d="M 1.973863,9.0162049 8.915839,1.9069524"
     id="path2" />
  <use
     x="0"
     y="0"
     xlink:href="#path2"
     id="use2"
     transform="translate(5.3528489,5.0015682)"
     style="stroke-dasharray:0.5,0.5;stroke-dashoffset:0" />
  <use
     x="0"
     y="0"
     xlink:href="#path2"
     id="use2-9"
     transform="translate(4.7098797,0.43125979)"
     style="stroke-dasharray:0.5,0.5;stroke-dashoffset:0" />
  <use
     x="0"
     y="0"
     xlink:href="#path2"
     id="use2-9-5"
     transform="translate(0.01365865,5.2406428)"
     style="stroke-dasharray:0.5,0.5;stroke-dashoffset:0" />
</svg>
