<?xml version="1.0" encoding="UTF-8" standalone="no"?>
<svg
   width="128"
   height="128"
   version="1.1"
   id="svg1"
   sodipodi:docname="PathMesh3DIcon.svg"
   inkscape:version="1.4-rc1 (61ec3f2, 2024-09-26)"
   inkscape:export-filename="PathMesh3DIcon.png"
   inkscape:export-xdpi="96"
   inkscape:export-ydpi="96"
   xmlns:inkscape="http://www.inkscape.org/namespaces/inkscape"
   xmlns:sodipodi="http://sodipodi.sourceforge.net/DTD/sodipodi-0.dtd"
   xmlns:xlink="http://www.w3.org/1999/xlink"
   xmlns="http://www.w3.org/2000/svg"
   xmlns:svg="http://www.w3.org/2000/svg">
  <defs
     id="defs1" />
  <sodipodi:namedview
     id="namedview1"
     pagecolor="#505050"
     bordercolor="#ffffff"
     borderopacity="1"
     inkscape:showpageshadow="0"
     inkscape:pageopacity="0"
     inkscape:pagecheckerboard="1"
     inkscape:deskcolor="#505050"
     inkscape:zoom="7.4726563"
     inkscape:cx="92.336643"
     inkscape:cy="60.018818"
     inkscape:window-width="3840"
     inkscape:window-height="2131"
     inkscape:window-x="1341"
     inkscape:window-y="-9"
     inkscape:window-maximized="1"
     inkscape:current-layer="svg1" />
  <path
     fill="#fc7f7f"
     d="M 17.796179,68.527115 A 8.9922901,8.9922901 0 1 0 5.5217021,80.801592 v 29.409288 a 8.9922901,8.9922901 0 1 0 12.2744769,12.26998 h 29.409284 a 8.9922901,8.9922901 0 1 0 12.26998,-12.27448 V 80.797096 A 8.9922901,8.9922901 0 1 0 47.200967,68.527115 Z m 3.070867,8.992291 h 26.333921 a 8.9922901,8.9922901 0 0 0 3.27769,3.282186 V 107.13102 L 20.862549,77.519406 Z m -6.35755,6.357553 29.607115,29.611611 H 17.782689 A 8.9922901,8.9922901 0 0 0 14.505,110.20638 V 83.876959 Z"
     id="path1"
     style="stroke-width:4.49615" />
  <path
     fill="#fc7f7f"
     d="M 80.79618,5.5242472 A 8.9922901,8.9922901 0 1 0 68.521703,17.798724 V 47.208012 A 8.9922901,8.9922901 0 1 0 80.79618,59.477993 h 29.40928 A 8.9922901,8.9922901 0 1 0 122.47544,47.203512 V 17.794227 A 8.9922901,8.9922901 0 1 0 110.20097,5.5242472 Z m 3.070869,8.9922908 h 26.333921 a 8.9922901,8.9922901 0 0 0 3.27768,3.282186 V 44.128149 L 83.862549,14.516538 Z m -6.357552,6.357553 29.607113,29.611614 H 80.78269 A 8.9922901,8.9922901 0 0 0 77.505001,47.203512 V 20.874091 Z"
     id="path1-8"
     style="stroke-width:4.49615" />
  <path
     style="fill:none;stroke:#fc7f7f;stroke-width:9;stroke-linejoin:round;stroke-opacity:1;stroke-dasharray:4.5,4.5;stroke-dashoffset:0"
     d="M 9.7647678,73.148399 72.242558,9.1651201"
     id="path2" />
  <use
     x="0"
     y="0"
     xlink:href="#path2"
     id="use2"
     transform="translate(48.175645,45.014118)"
     style="stroke-dasharray:0.5,0.5;stroke-dashoffset:0" />
  <use
     x="0"
     y="0"
     xlink:href="#path2"
     id="use2-9"
     transform="translate(42.388922,3.8813385)"
     style="stroke-dasharray:0.5,0.5;stroke-dashoffset:0" />
  <use
     x="0"
     y="0"
     xlink:href="#path2"
     id="use2-9-5"
     transform="translate(0.12292786,47.16579)"
     style="stroke-dasharray:0.5,0.5;stroke-dashoffset:0" />
</svg>
