# Blender 4.4.1
# www.blender.org
mtllib dirt_path.mtl
o DirtPath
v -2.504021 -3.022882 0.125485
v -2.504021 -0.567653 0.125485
v -2.504021 -3.022882 -9.890597
v -2.504021 -0.567653 -9.890597
v 2.504021 -3.022882 0.125485
v 2.504021 -0.567653 0.125485
v 2.504021 -3.022882 -9.890597
v 2.504021 -0.567653 -9.890597
v 1.669347 -3.022882 -9.890597
v 0.834673 -3.022882 -9.890597
v -0.000000 -3.022882 -9.890597
v -0.834674 -3.022882 -9.890597
v -1.669347 -3.022882 -9.890597
v -1.669347 0.039687 -9.890597
v -0.834673 0.225282 -9.890597
v 0.000000 0.179787 -9.890597
v 0.834674 0.225282 -9.890597
v 1.669347 0.090011 -9.890597
v -1.669347 -3.022882 0.125485
v -0.834673 -3.022882 0.125485
v 0.000000 -3.022882 0.125485
v 0.834674 -3.022882 0.125485
v 1.669347 -3.022882 0.125485
v 1.669347 0.090011 0.125485
v 0.834673 0.225282 0.125485
v -0.000000 0.179787 0.125485
v -0.834674 0.225282 0.125485
v -1.669347 0.039687 0.125485
v -2.086684 -3.022882 -9.890597
v -2.086684 -0.082102 0.125485
v -2.086684 -0.082102 -9.890597
v -2.086684 -3.022882 0.125485
v 2.086684 -0.132426 -9.890597
v 2.086684 -3.022882 0.125485
v 2.086684 -3.022882 -9.890597
v 2.086684 -0.132426 0.125485
vn -1.0000 -0.0000 -0.0000
vn -0.0000 -0.0000 -1.0000
vn 1.0000 -0.0000 -0.0000
vn -0.0000 -0.0000 1.0000
vn -0.0000 -1.0000 -0.0000
vn -0.7584 0.6518 -0.0000
vn 0.4704 0.8825 -0.0000
vn 0.1600 0.9871 -0.0000
vn -0.0544 0.9985 -0.0000
vn 0.0544 0.9985 -0.0000
vn -0.2171 0.9762 -0.0000
vn -0.2801 0.9600 -0.0000
vn 0.7218 0.6921 -0.0000
vt 0.812334 0.020986
vt 0.812334 0.244203
vt 0.195479 0.244203
vt 0.195479 0.020985
vt 0.246884 0.020985
vt 0.246884 0.258336
vt 0.812334 0.015945
vt 0.812334 0.239162
vt 0.195479 0.239162
vt 0.195479 0.015945
vt 0.246884 0.020284
vt 0.246884 0.257635
vt 0.195479 0.243502
vt 0.195479 0.020284
vt 0.354167 0.500000
vt 0.375000 0.500000
vt 0.375000 0.750000
vt 0.354167 0.750000
vt 0.970577 0.795063
vt 0.970577 0.852583
vt 0.050256 0.852583
vt 0.050256 0.795063
vt 0.970577 0.219863
vt 0.970577 0.277383
vt 0.050256 0.277383
vt 0.050256 0.219863
vt 0.970577 0.392423
vt 0.050256 0.392423
vt 0.970577 0.507463
vt 0.050256 0.507463
vt 0.970577 0.622503
vt 0.050256 0.622503
vt 0.970577 0.737543
vt 0.050256 0.737543
vt 0.145833 0.500000
vt 0.166667 0.500000
vt 0.166667 0.750000
vt 0.145833 0.750000
vt 0.208333 0.500000
vt 0.208333 0.750000
vt 0.250000 0.500000
vt 0.250000 0.750000
vt 0.291667 0.500000
vt 0.291667 0.750000
vt 0.333333 0.500000
vt 0.333333 0.750000
vt 0.760929 0.020284
vt 0.760929 0.257635
vt 0.709524 0.271768
vt 0.709524 0.020284
vt 0.606715 0.287008
vt 0.606715 0.020285
vt 0.503906 0.283272
vt 0.503906 0.020284
vt 0.401097 0.287008
vt 0.401097 0.020284
vt 0.298288 0.271768
vt 0.298288 0.020284
vt 0.760929 0.020985
vt 0.760929 0.258336
vt 0.709524 0.272469
vt 0.709524 0.020985
vt 0.606715 0.287709
vt 0.606715 0.020985
vt 0.503906 0.283973
vt 0.503906 0.020985
vt 0.401097 0.287709
vt 0.401097 0.020985
vt 0.298288 0.272469
vt 0.298288 0.020985
vt 0.812334 0.020985
vt 0.812334 0.244202
vt 0.125000 0.500000
vt 0.125000 0.750000
vt 0.812334 0.020284
vt 0.812334 0.243502
vt 0.970577 0.162343
vt 0.050256 0.162343
s 0
usemtl mat_dirt_path
f 1/1/1 2/2/1 4/3/1 3/4/1
f 35/5/2 33/6/2 8/3/2 7/4/2
f 7/7/3 8/8/3 6/9/3 5/10/3
f 32/11/4 30/12/4 2/13/4 1/14/4
f 35/15/5 7/16/5 5/17/5 34/18/5
f 31/19/6 4/20/6 2/21/6 30/22/6
f 33/23/7 18/24/7 24/25/7 36/26/7
f 18/24/8 17/27/8 25/28/8 24/25/8
f 17/27/9 16/29/9 26/30/9 25/28/9
f 16/29/10 15/31/10 27/32/10 26/30/10
f 15/31/11 14/33/11 28/34/11 27/32/11
f 29/35/5 13/36/5 19/37/5 32/38/5
f 13/36/5 12/39/5 20/40/5 19/37/5
f 12/39/5 11/41/5 21/42/5 20/40/5
f 11/41/5 10/43/5 22/44/5 21/42/5
f 10/43/5 9/45/5 23/46/5 22/44/5
f 34/47/4 36/48/4 24/49/4 23/50/4
f 23/50/4 24/49/4 25/51/4 22/52/4
f 22/52/4 25/51/4 26/53/4 21/54/4
f 21/54/4 26/53/4 27/55/4 20/56/4
f 20/56/4 27/55/4 28/57/4 19/58/4
f 29/59/2 31/60/2 14/61/2 13/62/2
f 13/62/2 14/61/2 15/63/2 12/64/2
f 12/64/2 15/63/2 16/65/2 11/66/2
f 11/66/2 16/65/2 17/67/2 10/68/2
f 10/68/2 17/67/2 18/69/2 9/70/2
f 3/71/2 4/72/2 31/60/2 29/59/2
f 3/73/5 29/35/5 32/38/5 1/74/5
f 14/33/12 31/19/12 30/22/12 28/34/12
f 19/58/4 28/57/4 30/12/4 32/11/4
f 5/75/4 6/76/4 36/48/4 34/47/4
f 8/77/13 33/23/13 36/26/13 6/78/13
f 9/45/5 35/15/5 34/18/5 23/46/5
f 9/70/2 18/69/2 33/6/2 35/5/2
