# Blender 4.4.1
# www.blender.org
mtllib ru_village_hut_3.mtl
o ru_village_hut_2
v 3.473926 -0.093758 3.484176
v 3.473926 3.381395 3.484176
v -3.473926 -0.093758 3.484176
v -3.473926 3.381395 3.484176
v 3.473926 3.381395 3.484176
v 3.473926 -0.093758 3.484176
v 3.473926 3.381394 -3.462682
v 3.473926 -0.093759 -3.462681
v -3.473926 1.050272 -3.079332
v -3.341115 1.127158 -3.079332
v -3.473926 3.135364 -3.079332
v -3.341115 3.135364 -3.079332
v 0.548315 5.657160 3.666895
v 0.559699 5.675609 3.666895
v 0.548315 5.657159 -3.645397
v 0.559699 5.675608 -3.645397
v 3.872354 3.304509 3.666895
v 3.883738 3.322962 3.666895
v 0.548315 5.657160 3.666895
v 0.559699 5.675609 3.666895
v 0.369971 3.135364 -3.308624
v -3.094469 3.135364 -3.308624
v 0.369971 3.135364 -3.462682
v -3.094469 3.135364 -3.462682
v 3.872354 3.304509 -3.645397
v 3.883738 3.322961 -3.645397
v 3.872354 3.304509 3.666895
v 3.883738 3.322962 3.666895
v 0.548315 5.657159 -3.645397
v 0.559699 5.675608 -3.645397
v 3.872354 3.304509 -3.645397
v 3.883738 3.322961 -3.645397
v -3.473926 1.050272 -3.079332
v -3.473926 1.050273 -0.682503
v -3.341115 1.127158 -3.079332
v -3.341115 1.127158 -0.682503
v 0.555903 5.660232 -3.645397
v 0.555903 5.660233 3.666895
v -0.555903 5.660232 -3.645397
v -0.555903 5.660233 3.666895
v -0.555903 5.681760 -3.645397
v -0.555903 5.660232 -3.645397
v -0.555903 5.681761 3.666895
v -0.555903 5.660233 3.666895
v 3.079292 3.135364 -3.308624
v 3.079292 3.135364 -3.462682
v 3.079292 1.127158 -3.308624
v 3.079292 1.037972 -3.462681
v -0.555903 5.681761 3.666895
v -0.555903 5.660233 3.666895
v 0.555903 5.681761 3.666895
v 0.555903 5.660233 3.666895
v -0.707685 5.601802 1.144674
v -0.696301 5.583350 1.144674
v -2.297610 4.476221 1.144674
v -2.282429 4.457768 1.144674
v -0.707685 5.601802 2.069010
v -0.696301 5.583350 2.069010
v -0.707685 5.601802 1.144674
v -0.696301 5.583350 1.144674
v 0.555903 5.681761 3.666895
v 0.555903 5.660233 3.666895
v 0.555903 5.681760 -3.645397
v 0.555903 5.660232 -3.645397
v -0.555903 5.681761 3.666895
v 0.555903 5.681761 3.666895
v -0.555903 5.681760 -3.645397
v 0.555903 5.681760 -3.645397
v -2.282429 4.457768 2.069010
v -2.297610 4.476221 2.069010
v -2.282429 4.457768 1.144674
v -2.297610 4.476221 1.144674
v -2.297610 4.476221 2.069010
v -0.707685 5.601802 2.069010
v -2.297610 4.476221 1.144674
v -0.707685 5.601802 1.144674
v -0.696301 5.583350 1.144674
v -0.696301 5.583350 2.069010
v -2.282429 4.457768 1.144674
v -2.282429 4.457768 2.069010
v -0.555903 5.660232 -3.645397
v -0.555903 5.681760 -3.645397
v 0.555903 5.660232 -3.645397
v 0.555903 5.681760 -3.645397
v 3.762310 3.381394 -3.566579
v 3.762310 3.381395 3.588077
v -3.762310 3.381394 -3.566579
v -3.762310 3.381395 3.588077
v 0.684917 1.037972 -3.462681
v 0.684917 1.127158 -3.308624
v 3.079292 1.037972 -3.462681
v 3.079292 1.127158 -3.308624
v 3.762310 3.381395 3.588077
v 0.548315 5.657160 3.588077
v -3.762310 3.381395 3.588077
v -0.544522 5.657160 3.588077
v -0.696301 5.583350 2.069010
v -0.707685 5.601802 2.069010
v -2.282429 4.457768 2.069010
v -2.297610 4.476221 2.069010
v -3.341115 3.135365 -0.682503
v -3.341115 1.127158 -0.682503
v -3.473926 3.135365 -0.682503
v -3.473926 1.050273 -0.682503
v 0.684920 3.135364 -3.308624
v 0.684917 1.127158 -3.308624
v 0.684920 3.135364 -3.462682
v 0.684917 1.037972 -3.462681
v -3.473926 1.050273 -0.367227
v -3.473926 1.050273 3.100829
v -3.341115 1.127158 -0.367227
v -3.341115 1.127158 3.100829
v -1.770164 4.562331 1.671331
v -1.770164 6.201495 1.671331
v -1.815700 4.562331 1.735819
v -1.815700 6.201495 1.735819
v -1.887795 4.562331 1.757313
v -1.887795 6.201495 1.757313
v -1.959893 4.562331 1.735819
v -1.959893 6.201495 1.735819
v -2.005429 4.562331 1.671331
v -2.005429 6.201495 1.671331
v -2.005429 4.562331 1.596092
v -2.005429 6.201495 1.596092
v -1.959893 4.562331 1.535189
v -1.959893 6.201495 1.535188
v -1.887795 4.562331 1.510109
v -1.887795 6.201495 1.510109
v -1.815700 4.562331 1.535189
v -1.815700 6.201495 1.535188
v -1.770164 4.562331 1.596092
v -1.770164 6.201495 1.596092
v -1.770164 4.562331 1.671331
v -1.770164 6.201495 1.671331
v 0.559699 5.675609 3.666895
v 3.883738 3.322962 3.666895
v 0.559699 5.675608 -3.645397
v 3.883738 3.322961 -3.645397
v -0.559699 5.675608 -3.645397
v -0.548315 5.657159 -3.645397
v -3.883738 3.322961 -3.645397
v -3.872354 3.304509 -3.645397
v 3.033756 3.781189 -3.272798
v 3.033756 3.759661 -3.258468
v 3.439774 3.485954 -3.666895
v 3.439774 3.464429 -3.652565
v 3.439774 3.485954 -3.666895
v -3.439774 3.485954 -3.666895
v 3.033756 3.781189 -3.272798
v -3.033756 3.781189 -3.272798
v -3.033756 3.759661 -3.258468
v -3.439774 3.464429 -3.652565
v 3.033756 3.759661 -3.258468
v 3.439774 3.464429 -3.652565
v -3.883738 3.322961 -3.645397
v -3.872354 3.304509 -3.645397
v -3.883738 3.322962 3.666895
v -3.872354 3.304509 3.666895
v -3.121031 3.731984 -3.290713
v -0.514163 5.601801 -3.290713
v 3.121031 3.731984 -3.290713
v 0.514163 5.601801 -3.290713
v -0.514163 5.601801 -3.566579
v 0.514163 5.601801 -3.566579
v -0.514163 5.601801 -3.290713
v 0.514163 5.601801 -3.290713
v -0.559699 5.675608 -3.645397
v -3.883738 3.322961 -3.645397
v -0.559699 5.675609 3.666895
v -3.883738 3.322962 3.666895
v -0.514163 5.601801 -3.566579
v -0.514163 5.601801 -3.290713
v -3.185538 3.738136 -3.566579
v -3.121031 3.731984 -3.290713
v -3.481513 3.525934 -3.566579
v -3.121031 3.731984 -3.290713
v 3.121031 3.731984 -3.290713
v -3.481513 3.525934 -3.566579
v 3.481513 3.525934 -3.566579
v 3.079292 1.127158 -3.308624
v 0.684917 1.127158 -3.308624
v 3.079292 3.135364 -3.308624
v 0.684920 3.135364 -3.308624
v 0.684920 3.135364 -3.308624
v 0.684920 3.135364 -3.462682
v 3.079292 3.135364 -3.308624
v 3.079292 3.135364 -3.462682
v -3.341115 3.135365 -0.682503
v -3.341115 3.135364 -3.079332
v -3.341115 1.127158 -0.682503
v -3.341115 1.127158 -3.079332
v -3.883738 3.322962 3.666895
v -3.872354 3.304509 3.666895
v -0.559699 5.675609 3.666895
v -0.548315 5.657160 3.666895
v -3.341115 3.135365 -0.682503
v -3.473926 3.135365 -0.682503
v -3.341115 3.135364 -3.079332
v -3.473926 3.135364 -3.079332
v -3.341115 3.135365 3.100829
v -3.341115 3.135365 -0.367228
v -3.341115 1.127158 3.100829
v -3.341115 1.127158 -0.367227
v -3.033756 3.781189 -3.272798
v -3.033756 3.759661 -3.258468
v 3.033756 3.781189 -3.272798
v 3.033756 3.759661 -3.258468
v -3.439774 3.485954 -3.666895
v -3.439774 3.464429 -3.652565
v -3.033756 3.781189 -3.272798
v -3.033756 3.759661 -3.258468
v 3.481513 3.525934 -3.566579
v 3.121031 3.731984 -3.290713
v 0.810142 5.386524 -3.566579
v 0.514163 5.601801 -3.290713
v 0.514163 5.601801 -3.566579
v 3.872354 3.304509 -3.645397
v 3.872354 3.304509 3.666895
v 0.548315 5.657159 -3.645397
v 0.548315 5.657160 3.666895
v -0.548315 5.657159 -3.645397
v -0.559699 5.675608 -3.645397
v -0.548315 5.657160 3.666895
v -0.559699 5.675609 3.666895
v -3.094469 3.135364 -3.308624
v -3.094469 1.127158 -3.308624
v -3.094469 3.135364 -3.462682
v -3.094469 1.037972 -3.462681
v -0.548315 5.657159 -3.645397
v -0.548315 5.657160 3.666895
v -3.872354 3.304509 -3.645397
v -3.872354 3.304509 3.666895
v 0.369971 1.037972 -3.462681
v -3.094469 1.037972 -3.462681
v 0.369971 1.127158 -3.308624
v -3.094469 1.127158 -3.308624
v -3.094469 3.135364 -3.308624
v 0.369971 3.135364 -3.308624
v -3.094469 1.127158 -3.308624
v 0.369971 1.127158 -3.308624
v 0.369971 3.135364 -3.308624
v 0.369971 3.135364 -3.462682
v 0.369971 1.127158 -3.308624
v 0.369971 1.037972 -3.462681
v -3.341115 3.135365 -0.367228
v -3.473926 3.135365 -0.367228
v -3.341115 1.127158 -0.367227
v -3.473926 1.050273 -0.367227
v -3.341115 3.135365 3.100829
v -3.473926 3.135365 3.100829
v -3.341115 3.135365 -0.367228
v -3.473926 3.135365 -0.367228
v 3.439774 3.485954 -3.666895
v 3.439774 3.464429 -3.652565
v -3.439774 3.485954 -3.666895
v -3.439774 3.464429 -3.652565
v -3.473926 1.050273 3.100829
v -3.473926 3.135365 3.100829
v -3.341115 1.127158 3.100829
v -3.341115 3.135365 3.100829
v -3.473926 3.135365 -0.367228
v -3.473926 1.050273 -0.682503
v -3.473926 1.050273 -0.367227
v -3.473926 -0.093759 -3.462681
v -3.473926 1.050273 3.100829
v -3.473926 -0.093758 3.484176
v -3.473926 3.135365 3.100829
v -3.473926 3.381395 3.484176
v -3.473926 3.135365 -0.682503
v -3.473926 1.050272 -3.079332
v -3.473926 3.135364 -3.079332
v -3.473926 3.381394 -3.462682
v 0.369971 3.135364 -3.462682
v 0.684917 1.037972 -3.462681
v 0.369971 1.037972 -3.462681
v 3.473926 -0.093759 -3.462681
v -3.094469 1.037972 -3.462681
v -3.473926 -0.093759 -3.462681
v -3.094469 3.135364 -3.462682
v -3.473926 3.381394 -3.462682
v 3.473926 3.381394 -3.462682
v 0.684920 3.135364 -3.462682
v 3.079292 3.135364 -3.462682
v 3.079292 1.037972 -3.462681
v 0.810142 5.386524 -3.566579
v 0.514163 5.601801 -3.566579
v 0.548315 5.657159 -3.566579
v -0.544522 5.657159 -3.566579
v 3.481513 3.525934 -3.566579
v 3.762310 3.381394 -3.566579
v -3.481513 3.525934 -3.566579
v -3.762310 3.381394 -3.566579
v -3.185538 3.738136 -3.566579
v -0.514163 5.601801 -3.566579
vn -0.0000 -0.0000 1.0000
vn 1.0000 -0.0000 -0.0000
vn -0.8510 0.5251 -0.0000
vn -0.0000 -1.0000 -0.0000
vn 0.8511 -0.5251 -0.0000
vn -0.0000 -0.0000 -1.0000
vn -0.5010 0.8654 -0.0000
vn -1.0000 -0.0000 -0.0000
vn 0.8511 0.5251 -0.0000
vn -0.0000 1.0000 -0.0000
vn -0.7722 -0.6353 -0.0000
vn -0.5778 0.8162 -0.0000
vn 0.5787 -0.8155 -0.0000
vn -0.0000 0.8654 -0.5010
vn 0.8169 -0.0000 0.5768
vn 0.2857 -0.0000 0.9583
vn -0.2857 -0.0000 0.9583
vn -0.8169 -0.0000 0.5768
vn -0.8009 -0.0000 -0.5988
vn -0.3285 -0.0000 -0.9445
vn 0.3286 -0.0000 -0.9445
vn 0.8009 -0.0000 -0.5988
vn 0.5777 0.8162 -0.0000
vn 0.7711 0.3528 0.5301
vn 0.7711 0.3529 0.5301
vn -0.0000 0.8003 -0.5996
vn -0.0000 -0.8003 0.5996
vn -0.8511 -0.5251 -0.0000
vn -0.5777 0.8162 -0.0000
vn 0.5722 -0.8201 -0.0000
vn 0.5760 -0.8031 -0.1526
vn 0.5759 -0.8032 -0.1526
vn -0.0000 0.8012 -0.5984
vn -0.0000 0.5541 0.8325
vn -0.7711 0.3529 0.5300
vn -0.7711 0.3528 0.5301
vn -0.5665 -0.8133 -0.1327
vn -0.5828 -0.8126 0.0088
vn -0.5882 -0.8087 -0.0000
vn -0.5777 -0.8162 -0.0000
vn 0.8510 0.5251 -0.0000
vn 0.5777 -0.8162 -0.0000
vn -0.0000 -0.5541 -0.8324
vt 0.990219 0.000256
vt 0.990219 0.406489
vt 0.009205 0.000256
vt 0.009205 0.406489
vt 0.419840 0.128797
vt 0.432390 0.136358
vt 0.419840 0.331974
vt 0.432390 0.331974
vt 0.807932 0.866381
vt 0.807932 0.878698
vt 0.063185 0.866381
vt 0.063185 0.878698
vt 0.434583 0.726620
vt 0.428369 0.726620
vt 0.434583 0.948822
vt 0.428369 0.948822
vt 0.931488 0.143919
vt 0.449693 0.143919
vt 0.931488 0.135504
vt 0.449693 0.135504
vt 0.931488 0.137212
vt 0.449693 0.137212
vt 0.931488 0.130017
vt 0.449693 0.130017
vt 0.806713 0.979677
vt 0.064403 0.979677
vt 0.806713 0.937237
vt 0.064403 0.937237
vt 0.417890 0.331974
vt 0.417890 0.127577
vt 0.188568 0.681741
vt 0.188568 0.664789
vt 0.012861 0.681741
vt 0.012861 0.664789
vt 0.013348 0.681741
vt 0.013348 0.666740
vt 0.198804 0.681741
vt 0.198804 0.666740
vt 0.000919 0.707595
vt 0.220249 0.707595
vt 0.000919 0.607592
vt 0.220249 0.607592
vt 0.672069 0.619544
vt 0.672069 0.462588
vt 0.338809 0.619544
vt 0.338809 0.462588
vt 0.449693 0.138309
vt 0.931488 0.138309
vt 0.998993 0.418684
vt 0.574102 0.706498
vt 0.004818 0.418684
vt 0.429709 0.706498
vt 0.408264 0.331974
vt 0.408264 0.136358
vt 0.420814 0.339535
vt 0.420814 0.136358
vt 0.422764 0.340755
vt 0.422764 0.136358
vt 0.931488 0.137090
vt 0.449693 0.137090
vt 0.998383 0.710766
vt 0.998383 0.997482
vt 0.983518 0.710766
vt 0.983518 0.997482
vt 0.968652 0.710766
vt 0.968652 0.997482
vt 0.953786 0.710766
vt 0.953786 0.997482
vt 0.938920 0.710766
vt 0.938920 0.997482
vt 0.924055 0.710766
vt 0.924055 0.997482
vt 0.909189 0.710766
vt 0.909189 0.997482
vt 0.894323 0.710766
vt 0.894323 0.997482
vt 0.879458 0.710766
vt 0.879458 0.997482
vt 0.864592 0.710766
vt 0.864592 0.997482
vt 0.849726 0.710766
vt 0.849726 0.997482
vt 0.808175 0.999068
vt 0.808175 0.710400
vt 0.063063 0.999068
vt 0.063063 0.710400
vt 0.036134 0.773573
vt 0.036134 0.770036
vt 0.085239 0.773573
vt 0.085239 0.770036
vt 0.100349 0.936017
vt 0.777957 0.936017
vt 0.140194 0.999190
vt 0.738112 0.999190
vt 0.140072 0.999190
vt 0.100227 0.936017
vt 0.777835 0.936017
vt 0.063306 0.461490
vt 0.425201 0.690278
vt 0.949765 0.461490
vt 0.570934 0.690278
vt 0.115580 0.533688
vt 0.115824 0.533810
vt 0.132273 0.509297
vt 0.132517 0.509418
vt 0.355503 0.678448
vt 0.403024 0.672594
vt 0.386331 0.696985
vt 0.092063 0.784427
vt 0.699242 0.784427
vt 0.062575 0.857112
vt 0.740305 0.853819
vt 0.074029 0.141602
vt 0.401684 0.141602
vt 0.074029 0.379414
vt 0.401684 0.379414
vt 0.449693 0.136602
vt 0.931488 0.136602
vt 0.932097 0.375878
vt 0.449449 0.375878
vt 0.932097 0.144041
vt 0.449449 0.144041
vt 0.036134 0.762719
vt 0.036134 0.759060
vt 0.639048 0.762719
vt 0.639048 0.759060
vt 0.090601 0.773573
vt 0.090601 0.770036
vt 0.139706 0.773573
vt 0.139706 0.770036
vt 0.386453 0.697107
vt 0.403146 0.672716
vt 0.146530 0.552347
vt 0.420083 0.331974
vt 0.420083 0.128919
vt 0.449693 0.136724
vt 0.931488 0.136724
vt 0.036134 0.882845
vt 0.036134 0.879308
vt 0.719347 0.882845
vt 0.719347 0.879308
vt 0.420571 0.136358
vt 0.420571 0.339413
vt 0.446647 0.377829
vt 0.401806 0.134041
vt 0.446647 0.134163
vt 0.935874 0.134163
vt 0.935874 0.377829
vt 0.401806 0.377829
vt 0.063550 0.134041
vt 0.063550 0.377829
vt 0.447621 0.377829
vt 0.403268 0.132578
vt 0.447621 0.132578
vt 0.936849 0.132578
vt 0.936849 0.377829
vt 0.403268 0.377829
vt 0.065012 0.377829
vt 0.065012 0.132578
vt 0.607732 0.671863
vt 0.568497 0.698815
vt 0.573005 0.706010
vt 0.428613 0.706010
vt 0.960975 0.436611
vt 0.997896 0.418196
vt 0.040764 0.436611
vt 0.003722 0.418196
vt 0.079878 0.463563
vt 0.433121 0.698815
s 0
usemtl mat_main
f 1/1/1 2/2/1 3/3/1
f 2/2/1 4/4/1 3/3/1
f 5/4/2 6/3/2 7/2/2
f 6/3/2 8/1/2 7/2/2
f 9/5/1 10/6/1 11/7/1
f 10/6/1 12/8/1 11/7/1
f 13/9/3 14/10/3 15/11/3
f 14/10/3 16/12/3 15/11/3
f 17/13/1 18/14/1 19/15/1
f 18/14/1 20/16/1 19/15/1
f 21/17/4 22/18/4 23/19/4
f 22/18/4 24/20/4 23/19/4
f 25/9/5 26/10/5 27/11/5
f 26/10/5 28/12/5 27/11/5
f 29/13/6 30/14/6 31/15/6
f 30/14/6 32/16/6 31/15/6
f 33/21/7 34/22/7 35/23/7
f 34/22/7 36/24/7 35/23/7
f 37/25/4 38/26/4 39/27/4
f 38/26/4 40/28/4 39/27/4
f 41/12/8 42/11/8 43/10/8
f 42/11/8 44/9/8 43/10/8
f 45/8/8 46/29/8 47/6/8
f 46/29/8 48/30/8 47/6/8
f 49/16/1 50/15/1 51/14/1
f 50/15/1 52/13/1 51/14/1
f 53/31/6 54/32/6 55/33/6
f 54/32/6 56/34/6 55/33/6
f 57/35/9 58/36/9 59/37/9
f 58/36/9 60/38/9 59/37/9
f 61/12/2 62/11/2 63/10/2
f 62/11/2 64/9/2 63/10/2
f 65/27/10 66/25/10 67/28/10
f 66/25/10 68/26/10 67/28/10
f 69/38/11 70/37/11 71/36/11
f 70/37/11 72/35/11 71/36/11
f 73/39/12 74/40/12 75/41/12
f 74/40/12 76/42/12 75/41/12
f 77/40/13 78/42/13 79/39/13
f 78/42/13 80/41/13 79/39/13
f 81/13/6 82/14/6 83/15/6
f 82/14/6 84/16/6 83/15/6
f 85/43/4 86/44/4 87/45/4
f 86/44/4 88/46/4 87/45/4
f 89/47/14 90/24/14 91/48/14
f 90/24/14 92/23/14 91/48/14
f 93/49/1 94/50/1 95/51/1
f 94/50/1 96/52/1 95/51/1
f 97/34/1 98/33/1 99/32/1
f 98/33/1 100/31/1 99/32/1
f 101/53/6 102/54/6 103/55/6
f 102/54/6 104/56/6 103/55/6
f 105/53/2 106/54/2 107/57/2
f 106/54/2 108/58/2 107/57/2
f 109/59/7 110/60/7 111/23/7
f 110/60/7 112/24/7 111/23/7
f 113/61/15 114/62/15 115/63/15
f 114/62/15 116/64/15 115/63/15
f 115/63/16 116/64/16 117/65/16
f 116/64/16 118/66/16 117/65/16
f 117/65/17 118/66/17 119/67/17
f 118/66/17 120/68/17 119/67/17
f 119/67/18 120/68/18 121/69/18
f 120/68/18 122/70/18 121/69/18
f 121/69/8 122/70/8 123/71/8
f 122/70/8 124/72/8 123/71/8
f 123/71/19 124/72/19 125/73/19
f 124/72/19 126/74/19 125/73/19
f 125/73/20 126/74/20 127/75/20
f 126/74/20 128/76/20 127/75/20
f 127/75/21 128/76/21 129/77/21
f 128/76/21 130/78/21 129/77/21
f 129/77/22 130/78/22 131/79/22
f 130/78/22 132/80/22 131/79/22
f 131/79/2 132/80/2 133/81/2
f 132/80/2 134/82/2 133/81/2
f 135/83/23 136/84/23 137/85/23
f 136/84/23 138/86/23 137/85/23
f 139/16/6 140/15/6 141/14/6
f 140/15/6 142/13/6 141/14/6
f 143/87/24 144/88/24 145/89/24
f 144/88/25 146/90/25 145/89/25
f 147/91/26 148/92/26 149/93/26
f 148/92/26 150/94/26 149/93/26
f 151/95/27 152/96/27 153/94/27
f 152/96/27 154/97/27 153/94/27
f 155/12/28 156/11/28 157/10/28
f 156/11/28 158/9/28 157/10/28
f 159/98/6 160/99/6 161/100/6
f 160/99/6 162/101/6 161/100/6
f 163/102/4 164/103/4 165/104/4
f 164/103/4 166/105/4 165/104/4
f 167/85/29 168/86/29 169/83/29
f 168/86/29 170/84/29 169/83/29
f 171/102/30 172/104/30 173/106/30
f 172/104/31 174/107/31 173/106/31
f 173/106/32 174/107/32 175/108/32
f 176/109/33 177/110/33 178/111/33
f 177/110/33 179/112/33 178/111/33
f 180/113/6 181/114/6 182/115/6
f 181/114/6 183/116/6 182/115/6
f 184/18/4 185/20/4 186/17/4
f 185/20/4 187/19/4 186/17/4
f 188/116/8 189/115/8 190/114/8
f 189/115/8 191/113/8 190/114/8
f 192/16/1 193/15/1 194/14/1
f 193/15/1 195/13/1 194/14/1
f 196/18/4 197/117/4 198/17/4
f 197/117/4 199/118/4 198/17/4
f 200/119/8 201/120/8 202/121/8
f 201/120/8 203/122/8 202/121/8
f 204/123/34 205/124/34 206/125/34
f 205/124/34 207/126/34 206/125/34
f 208/127/35 209/128/35 210/129/35
f 209/128/36 211/130/36 210/129/36
f 212/131/37 213/132/37 214/133/37
f 213/132/38 215/105/38 214/133/38
f 214/133/39 215/105/39 216/103/39
f 217/84/40 218/86/40 219/83/40
f 218/86/40 220/85/40 219/83/40
f 221/9/41 222/10/41 223/11/41
f 222/10/41 224/12/41 223/11/41
f 225/53/2 226/54/2 227/57/2
f 226/54/2 228/58/2 227/57/2
f 229/83/42 230/85/42 231/84/42
f 230/85/42 232/86/42 231/84/42
f 233/48/14 234/47/14 235/23/14
f 234/47/14 236/24/14 235/23/14
f 237/119/6 238/120/6 239/121/6
f 238/120/6 240/122/6 239/121/6
f 241/8/8 242/29/8 243/6/8
f 242/29/8 244/30/8 243/6/8
f 245/8/1 246/134/1 247/6/1
f 246/134/1 248/135/1 247/6/1
f 249/18/4 250/136/4 251/17/4
f 250/136/4 252/137/4 251/17/4
f 253/138/43 254/139/43 255/140/43
f 254/139/43 256/141/43 255/140/43
f 257/142/6 258/143/6 259/54/6
f 258/143/6 260/53/6 259/54/6
f 261/144/8 262/145/8 263/146/8
f 262/145/8 264/3/8 263/146/8
f 263/146/8 264/3/8 265/147/8
f 264/3/8 266/1/8 265/147/8
f 265/147/8 266/1/8 267/148/8
f 266/1/8 268/2/8 267/148/8
f 267/148/8 268/2/8 261/144/8
f 268/2/8 269/149/8 261/144/8
f 261/144/8 269/149/8 262/145/8
f 262/145/8 270/150/8 264/3/8
f 270/150/8 271/151/8 264/3/8
f 264/3/8 271/151/8 272/4/8
f 271/151/8 268/2/8 272/4/8
f 273/152/6 274/153/6 275/154/6
f 274/153/6 276/3/6 275/154/6
f 275/154/6 276/3/6 277/155/6
f 276/3/6 278/1/6 277/155/6
f 277/155/6 278/1/6 279/156/6
f 278/1/6 280/2/6 279/156/6
f 279/156/6 280/2/6 281/4/6
f 279/156/6 281/4/6 273/152/6
f 281/4/6 282/157/6 273/152/6
f 273/152/6 282/157/6 274/153/6
f 282/157/6 281/4/6 283/158/6
f 281/4/6 284/159/6 283/158/6
f 281/4/6 276/3/6 284/159/6
f 276/3/6 274/153/6 284/159/6
f 285/160/6 286/161/6 287/162/6
f 286/161/6 288/163/6 287/162/6
f 285/160/6 287/162/6 289/164/6
f 287/162/6 290/165/6 289/164/6
f 289/164/6 290/165/6 291/166/6
f 290/165/6 292/167/6 291/166/6
f 291/166/6 292/167/6 293/168/6
f 292/167/6 294/169/6 293/168/6
f 292/167/6 288/163/6 294/169/6
f 288/163/6 286/161/6 294/169/6
f 271/151/8 269/149/8 268/2/8
