# Blender 4.4.1
# www.blender.org
mtllib infr_end.mtl
o infr_end
v 0.000000 0.764844 -0.555692
v 0.000000 0.555692 -0.764844
v 0.000000 0.292145 -0.899129
v 0.000000 0.000000 -0.945400
v 0.000000 -0.555692 -0.764844
v 0.000000 -0.764844 -0.555692
v 0.090278 0.899129 -0.277846
v 0.171718 0.764844 -0.528495
v 0.236350 0.555692 -0.727410
v 0.277846 0.292145 -0.855122
v 0.292145 0.000000 -0.899129
v 0.277846 -0.292145 -0.855122
v 0.236350 -0.555692 -0.727410
v 0.171718 -0.764844 -0.528495
v 0.090278 -0.899129 -0.277846
v 0.171718 0.899129 -0.236350
v 0.326628 0.764844 -0.449564
v 0.449564 0.555692 -0.618772
v 0.528495 0.292145 -0.727410
v 0.555692 0.000000 -0.764844
v 0.528495 -0.292145 -0.727410
v 0.449564 -0.555692 -0.618772
v 0.326628 -0.764844 -0.449564
v 0.171718 -0.899129 -0.236350
v 0.236350 0.899129 -0.171718
v 0.449564 0.764844 -0.326628
v 0.618772 0.555692 -0.449564
v 0.727410 0.292145 -0.528495
v 0.764844 0.000000 -0.555692
v 0.727410 -0.292145 -0.528495
v 0.618772 -0.555692 -0.449564
v 0.449564 -0.764844 -0.326628
v 0.236350 -0.899129 -0.171718
v 0.277846 0.899129 -0.090278
v 0.528495 0.764844 -0.171718
v 0.727410 0.555692 -0.236350
v 0.855122 0.292145 -0.277846
v 0.899129 0.000000 -0.292145
v 0.855122 -0.292145 -0.277846
v 0.727410 -0.555692 -0.236350
v 0.528495 -0.764844 -0.171718
v 0.277846 -0.899129 -0.090278
v 0.292145 0.899129 0.000000
v 0.555692 0.764844 0.000000
v 0.764845 0.555692 -0.000000
v 0.899129 0.292145 0.000000
v 0.945400 0.000000 0.000000
v 0.899129 -0.292145 0.000000
v 0.764845 -0.555692 -0.000000
v 0.555692 -0.764844 0.000000
v 0.292145 -0.899129 0.000000
v 0.277846 0.899129 0.090278
v 0.528495 0.764844 0.171718
v 0.727410 0.555692 0.236350
v 0.855122 0.292145 0.277846
v 0.899129 0.000000 0.292145
v 0.855122 -0.292145 0.277846
v 0.727410 -0.555692 0.236350
v 0.528495 -0.764844 0.171718
v 0.277846 -0.899129 0.090278
v 0.236350 0.899129 0.171718
v 0.449564 0.764844 0.326628
v 0.618772 0.555692 0.449564
v 0.727410 0.292145 0.528495
v 0.764845 0.000000 0.555692
v 0.727410 -0.292145 0.528495
v 0.618772 -0.555692 0.449564
v 0.449564 -0.764844 0.326628
v 0.236350 -0.899129 0.171718
v 0.171718 0.899129 0.236350
v 0.326628 0.764844 0.449564
v 0.449564 0.555692 0.618772
v 0.528495 0.292145 0.727410
v 0.555692 0.000000 0.764845
v 0.528495 -0.292145 0.727410
v 0.449564 -0.555692 0.618772
v 0.326628 -0.764844 0.449564
v 0.171718 -0.899129 0.236350
v 0.090278 0.899129 0.277846
v 0.171718 0.764844 0.528495
v 0.236350 0.555692 0.727411
v 0.277846 0.292145 0.855122
v 0.292145 0.000000 0.899129
v 0.277846 -0.292145 0.855122
v 0.236350 -0.555692 0.727411
v 0.171718 -0.764844 0.528495
v 0.090278 -0.899129 0.277846
v 0.000000 0.899129 0.292145
v -0.000000 0.764844 0.555692
v 0.000000 0.555692 0.764845
v -0.000000 0.292145 0.899129
v 0.000000 0.000000 0.945400
v -0.000000 -0.292145 0.899129
v 0.000000 -0.555692 0.764845
v -0.000000 -0.764844 0.555692
v 0.000000 -0.899129 0.292145
v 0.000000 0.945400 0.000000
v -0.090278 0.899129 0.277846
v -0.171718 0.764844 0.528495
v -0.236350 0.555692 0.727411
v -0.277846 0.292145 0.855122
v -0.292145 0.000000 0.899129
v -0.277846 -0.292145 0.855122
v -0.236350 -0.555692 0.727411
v -0.171718 -0.764844 0.528495
v -0.090278 -0.899129 0.277846
v -0.171718 0.899129 0.236350
v -0.326628 0.764844 0.449564
v -0.449564 0.555692 0.618772
v -0.528495 0.292145 0.727410
v -0.555692 0.000000 0.764845
v -0.528495 -0.292145 0.727410
v -0.449564 -0.555692 0.618772
v -0.326628 -0.764844 0.449564
v -0.171718 -0.899129 0.236350
v -0.236350 0.899129 0.171718
v -0.449564 0.764844 0.326628
v -0.618772 0.555692 0.449564
v -0.727410 0.292145 0.528495
v -0.764845 0.000000 0.555692
v -0.727410 -0.292145 0.528495
v -0.618772 -0.555692 0.449564
v -0.449564 -0.764844 0.326628
v -0.236350 -0.899129 0.171718
v 0.000000 -0.945400 0.000000
v -0.277846 0.899129 0.090278
v -0.528495 0.764844 0.171718
v -0.727411 0.555692 0.236350
v -0.855122 0.292145 0.277846
v -0.899129 0.000000 0.292145
v -0.855122 -0.292145 0.277846
v -0.727411 -0.555692 0.236350
v -0.528495 -0.764844 0.171718
v -0.277846 -0.899129 0.090278
v -0.292145 0.899129 0.000000
v -0.555692 0.764844 -0.000000
v -0.764845 0.555692 0.000000
v -0.899129 0.292145 -0.000000
v -0.945400 0.000000 0.000000
v -0.899129 -0.292145 -0.000000
v -0.764845 -0.555692 0.000000
v -0.555692 -0.764844 -0.000000
v -0.292145 -0.899129 0.000000
v -0.277846 0.899129 -0.090278
v -0.528495 0.764844 -0.171718
v -0.727411 0.555692 -0.236350
v -0.855122 0.292145 -0.277846
v -0.899129 0.000000 -0.292145
v -0.855122 -0.292145 -0.277846
v -0.727411 -0.555692 -0.236350
v -0.528495 -0.764844 -0.171718
v -0.277846 -0.899129 -0.090278
v -0.236350 0.899129 -0.171718
v -0.449564 0.764844 -0.326628
v -0.618772 0.555692 -0.449565
v -0.727410 0.292145 -0.528495
v -0.764845 0.000000 -0.555692
v -0.727410 -0.292145 -0.528495
v -0.618772 -0.555692 -0.449565
v -0.449564 -0.764844 -0.326628
v -0.236350 -0.899129 -0.171718
v -0.171718 0.899129 -0.236350
v -0.326628 0.764844 -0.449564
v -0.449565 0.555692 -0.618773
v -0.528495 0.292145 -0.727410
v -0.555692 0.000000 -0.764845
v -0.528495 -0.292145 -0.727410
v -0.449565 -0.555692 -0.618773
v -0.326628 -0.764844 -0.449564
v -0.171718 -0.899129 -0.236350
v -0.090278 0.899129 -0.277846
v -0.171718 0.764844 -0.528495
v -0.236350 0.555692 -0.727411
v -0.277846 0.292145 -0.855122
v -0.292145 0.000000 -0.899129
v -0.277846 -0.292145 -0.855122
v -0.236350 -0.555692 -0.727411
v -0.171718 -0.764844 -0.528495
v -0.090278 -0.899129 -0.277846
v -0.000000 0.899129 -0.292145
v 0.000000 -0.292145 -0.899129
v -0.000000 -0.899129 -0.292145
vn -0.0000 0.8016 -0.5978
vn -0.0000 0.5805 -0.8143
vn -0.0000 0.3045 -0.9525
vn -0.0000 -0.0000 -1.0000
vn -0.0000 -0.5805 -0.8143
vn -0.0000 -0.8016 -0.5978
vn 0.0998 0.9464 -0.3072
vn 0.1847 0.8016 -0.5686
vn 0.2516 0.5805 -0.7744
vn 0.2943 0.3045 -0.9059
vn 0.3090 -0.0000 -0.9511
vn 0.2943 -0.3045 -0.9059
vn 0.2516 -0.5805 -0.7744
vn 0.1847 -0.8016 -0.5686
vn 0.0998 -0.9464 -0.3072
vn 0.1899 0.9464 -0.2613
vn 0.3514 0.8016 -0.4837
vn 0.4786 0.5805 -0.6588
vn 0.5599 0.3045 -0.7706
vn 0.5878 -0.0000 -0.8090
vn 0.5599 -0.3045 -0.7706
vn 0.4786 -0.5805 -0.6588
vn 0.3514 -0.8016 -0.4837
vn 0.1899 -0.9464 -0.2613
vn 0.2613 0.9464 -0.1899
vn 0.4837 0.8016 -0.3514
vn 0.6588 0.5805 -0.4786
vn 0.7706 0.3045 -0.5599
vn 0.8090 -0.0000 -0.5878
vn 0.7706 -0.3045 -0.5599
vn 0.6588 -0.5805 -0.4786
vn 0.4837 -0.8016 -0.3514
vn 0.2613 -0.9464 -0.1899
vn 0.3072 0.9464 -0.0998
vn 0.5686 0.8016 -0.1847
vn 0.7744 0.5805 -0.2516
vn 0.9059 0.3045 -0.2943
vn 0.9511 -0.0000 -0.3090
vn 0.9059 -0.3045 -0.2943
vn 0.7744 -0.5805 -0.2516
vn 0.5686 -0.8016 -0.1847
vn 0.3072 -0.9464 -0.0998
vn 0.3230 0.9464 -0.0000
vn 0.5978 0.8016 -0.0000
vn 0.8143 0.5805 -0.0000
vn 0.9525 0.3045 -0.0000
vn 1.0000 -0.0000 -0.0000
vn 0.9525 -0.3045 -0.0000
vn 0.8143 -0.5805 -0.0000
vn 0.5978 -0.8016 -0.0000
vn 0.3230 -0.9464 -0.0000
vn 0.3072 0.9464 0.0998
vn 0.5686 0.8016 0.1847
vn 0.7744 0.5805 0.2516
vn 0.9059 0.3045 0.2943
vn 0.9511 -0.0000 0.3090
vn 0.9059 -0.3045 0.2943
vn 0.7744 -0.5805 0.2516
vn 0.5686 -0.8016 0.1847
vn 0.3072 -0.9464 0.0998
vn 0.2613 0.9464 0.1899
vn 0.4837 0.8016 0.3514
vn 0.6588 0.5805 0.4786
vn 0.7706 0.3045 0.5599
vn 0.8090 -0.0000 0.5878
vn 0.7706 -0.3045 0.5599
vn 0.6588 -0.5805 0.4786
vn 0.4837 -0.8016 0.3514
vn 0.2613 -0.9464 0.1899
vn 0.1899 0.9464 0.2613
vn 0.3514 0.8016 0.4837
vn 0.4786 0.5805 0.6588
vn 0.5599 0.3045 0.7706
vn 0.5878 -0.0000 0.8090
vn 0.5599 -0.3045 0.7706
vn 0.4786 -0.5805 0.6588
vn 0.3514 -0.8016 0.4837
vn 0.1899 -0.9464 0.2613
vn 0.0998 0.9464 0.3072
vn 0.1847 0.8016 0.5686
vn 0.2516 0.5805 0.7744
vn 0.2943 0.3045 0.9059
vn 0.3090 -0.0000 0.9511
vn 0.2943 -0.3045 0.9059
vn 0.2516 -0.5805 0.7744
vn 0.1847 -0.8016 0.5686
vn 0.0998 -0.9464 0.3072
vn -0.0000 0.9464 0.3230
vn -0.0000 0.8016 0.5978
vn -0.0000 0.5805 0.8143
vn -0.0000 0.3045 0.9525
vn -0.0000 -0.0000 1.0000
vn -0.0000 -0.3045 0.9525
vn -0.0000 -0.5805 0.8143
vn -0.0000 -0.8016 0.5978
vn -0.0000 -0.9464 0.3230
vn -0.0000 1.0000 -0.0000
vn -0.0998 0.9464 0.3072
vn -0.1847 0.8016 0.5686
vn -0.2516 0.5805 0.7744
vn -0.2943 0.3045 0.9059
vn -0.3090 -0.0000 0.9511
vn -0.2943 -0.3045 0.9059
vn -0.2516 -0.5805 0.7744
vn -0.1847 -0.8016 0.5686
vn -0.0998 -0.9464 0.3072
vn -0.1899 0.9464 0.2613
vn -0.3514 0.8016 0.4837
vn -0.4786 0.5805 0.6588
vn -0.5599 0.3045 0.7706
vn -0.5878 -0.0000 0.8090
vn -0.5599 -0.3045 0.7706
vn -0.4786 -0.5805 0.6588
vn -0.3514 -0.8016 0.4836
vn -0.1899 -0.9464 0.2613
vn -0.2613 0.9464 0.1899
vn -0.4837 0.8016 0.3514
vn -0.6588 0.5805 0.4786
vn -0.7706 0.3045 0.5599
vn -0.8090 -0.0000 0.5878
vn -0.7706 -0.3045 0.5599
vn -0.6588 -0.5805 0.4786
vn -0.4837 -0.8016 0.3514
vn -0.2613 -0.9464 0.1899
vn -0.0000 -1.0000 -0.0000
vn -0.3072 0.9464 0.0998
vn -0.5686 0.8016 0.1847
vn -0.7744 0.5805 0.2516
vn -0.9059 0.3045 0.2943
vn -0.9511 -0.0000 0.3090
vn -0.9059 -0.3045 0.2943
vn -0.7744 -0.5805 0.2516
vn -0.5686 -0.8016 0.1847
vn -0.3072 -0.9464 0.0998
vn -0.3230 0.9464 -0.0000
vn -0.5978 0.8016 -0.0000
vn -0.8143 0.5805 -0.0000
vn -0.9525 0.3045 -0.0000
vn -1.0000 -0.0000 -0.0000
vn -0.9525 -0.3045 -0.0000
vn -0.8143 -0.5805 -0.0000
vn -0.5978 -0.8016 -0.0000
vn -0.3230 -0.9464 -0.0000
vn -0.3072 0.9464 -0.0998
vn -0.5686 0.8016 -0.1847
vn -0.7744 0.5805 -0.2516
vn -0.9059 0.3045 -0.2943
vn -0.9511 -0.0000 -0.3090
vn -0.9059 -0.3045 -0.2943
vn -0.7744 -0.5805 -0.2516
vn -0.5686 -0.8016 -0.1847
vn -0.3072 -0.9464 -0.0998
vn -0.2613 0.9464 -0.1899
vn -0.4837 0.8016 -0.3514
vn -0.6588 0.5805 -0.4786
vn -0.7706 0.3045 -0.5599
vn -0.8090 -0.0000 -0.5878
vn -0.7706 -0.3045 -0.5599
vn -0.6588 -0.5805 -0.4786
vn -0.4837 -0.8016 -0.3514
vn -0.2613 -0.9464 -0.1899
vn -0.1899 0.9464 -0.2613
vn -0.3514 0.8016 -0.4837
vn -0.4786 0.5805 -0.6588
vn -0.5599 0.3045 -0.7706
vn -0.5878 -0.0000 -0.8090
vn -0.5599 -0.3045 -0.7706
vn -0.4786 -0.5805 -0.6588
vn -0.3514 -0.8016 -0.4837
vn -0.1899 -0.9464 -0.2613
vn -0.0998 0.9464 -0.3072
vn -0.1847 0.8016 -0.5686
vn -0.2516 0.5805 -0.7744
vn -0.2943 0.3045 -0.9059
vn -0.3090 -0.0000 -0.9511
vn -0.2943 -0.3045 -0.9059
vn -0.2516 -0.5805 -0.7744
vn -0.1847 -0.8016 -0.5686
vn -0.0998 -0.9464 -0.3072
vn -0.0000 0.9464 -0.3230
vn -0.0000 -0.3045 -0.9525
vn -0.0000 -0.9464 -0.3230
vt 0.750000 0.800000
vt 0.700000 0.700000
vt 0.750000 0.700000
vt 0.725000 0.000000
vt 0.750000 0.100000
vt 0.700000 0.100000
vt 0.750000 0.400000
vt 0.700000 0.300000
vt 0.750000 0.300000
vt 0.750000 0.600000
vt 0.700000 0.600000
vt 0.750000 0.900000
vt 0.725000 1.000000
vt 0.700000 0.900000
vt 0.700000 0.200000
vt 0.750000 0.200000
vt 0.700000 0.500000
vt 0.750000 0.500000
vt 0.700000 0.800000
vt 0.700000 0.400000
vt 0.650000 0.700000
vt 0.675000 0.000000
vt 0.650000 0.100000
vt 0.650000 0.300000
vt 0.650000 0.600000
vt 0.675000 1.000000
vt 0.650000 0.900000
vt 0.650000 0.200000
vt 0.650000 0.500000
vt 0.650000 0.800000
vt 0.650000 0.400000
vt 0.600000 0.400000
vt 0.600000 0.800000
vt 0.600000 0.700000
vt 0.625000 0.000000
vt 0.600000 0.100000
vt 0.600000 0.300000
vt 0.600000 0.600000
vt 0.625000 1.000000
vt 0.600000 0.900000
vt 0.600000 0.200000
vt 0.600000 0.500000
vt 0.550000 0.900000
vt 0.550000 0.800000
vt 0.550000 0.100000
vt 0.550000 0.400000
vt 0.550000 0.700000
vt 0.575000 0.000000
vt 0.550000 0.300000
vt 0.550000 0.600000
vt 0.575000 1.000000
vt 0.550000 0.200000
vt 0.550000 0.500000
vt 0.500000 0.200000
vt 0.500000 0.500000
vt 0.500000 0.800000
vt 0.500000 0.100000
vt 0.500000 0.400000
vt 0.500000 0.700000
vt 0.525000 0.000000
vt 0.500000 0.300000
vt 0.500000 0.600000
vt 0.525000 1.000000
vt 0.500000 0.900000
vt 0.450000 0.600000
vt 0.475000 1.000000
vt 0.450000 0.900000
vt 0.450000 0.200000
vt 0.450000 0.500000
vt 0.450000 0.800000
vt 0.450000 0.100000
vt 0.450000 0.400000
vt 0.450000 0.700000
vt 0.475000 0.000000
vt 0.450000 0.300000
vt 0.400000 0.300000
vt 0.400000 0.600000
vt 0.425000 1.000000
vt 0.400000 0.900000
vt 0.400000 0.200000
vt 0.400000 0.500000
vt 0.400000 0.800000
vt 0.400000 0.100000
vt 0.400000 0.400000
vt 0.400000 0.700000
vt 0.425000 0.000000
vt 0.350000 0.700000
vt 0.375000 0.000000
vt 0.350000 0.100000
vt 0.350000 0.300000
vt 0.350000 0.600000
vt 0.375000 1.000000
vt 0.350000 0.900000
vt 0.350000 0.200000
vt 0.350000 0.500000
vt 0.350000 0.800000
vt 0.350000 0.400000
vt 0.300000 0.200000
vt 0.300000 0.100000
vt 0.300000 0.500000
vt 0.300000 0.400000
vt 0.300000 0.700000
vt 0.325000 0.000000
vt 0.300000 0.300000
vt 0.300000 0.600000
vt 0.325000 1.000000
vt 0.300000 0.900000
vt 0.300000 0.800000
vt 0.250000 0.500000
vt 0.250000 0.900000
vt 0.250000 0.800000
vt 0.250000 0.100000
vt 0.250000 0.400000
vt 0.250000 0.700000
vt 0.275000 0.000000
vt 0.250000 0.300000
vt 0.250000 0.600000
vt 0.275000 1.000000
vt 0.250000 0.200000
vt 0.225000 1.000000
vt 0.200000 0.900000
vt 0.200000 0.200000
vt 0.200000 0.500000
vt 0.200000 0.800000
vt 0.200000 0.100000
vt 0.200000 0.400000
vt 0.200000 0.700000
vt 0.225000 0.000000
vt 0.200000 0.300000
vt 0.200000 0.600000
vt 0.150000 0.600000
vt 0.175000 1.000000
vt 0.150000 0.900000
vt 0.150000 0.300000
vt 0.150000 0.200000
vt 0.150000 0.500000
vt 0.150000 0.800000
vt 0.150000 0.100000
vt 0.150000 0.400000
vt 0.150000 0.700000
vt 0.175000 0.000000
vt 0.125000 0.000000
vt 0.100000 0.100000
vt 0.100000 0.300000
vt 0.100000 0.700000
vt 0.100000 0.600000
vt 0.125000 1.000000
vt 0.100000 0.900000
vt 0.100000 0.200000
vt 0.100000 0.500000
vt 0.100000 0.800000
vt 0.100000 0.400000
vt 0.050000 0.500000
vt 0.050000 0.400000
vt 0.050000 0.700000
vt 0.075000 0.000000
vt 0.050000 0.100000
vt 0.050000 0.300000
vt 0.050000 0.600000
vt 0.075000 1.000000
vt 0.050000 0.900000
vt 0.050000 0.200000
vt 0.050000 0.800000
vt 0.000000 0.900000
vt 0.000000 0.800000
vt 0.000000 0.100000
vt 0.000000 0.500000
vt 0.000000 0.400000
vt 0.000000 0.700000
vt 0.025000 0.000000
vt 0.000000 0.300000
vt 0.000000 0.600000
vt 0.025000 1.000000
vt 0.000000 0.200000
vt 1.000000 0.600000
vt 0.950000 0.500000
vt 1.000000 0.500000
vt 1.000000 0.800000
vt 0.950000 0.900000
vt 0.950000 0.800000
vt 1.000000 0.100000
vt 0.950000 0.200000
vt 0.950000 0.100000
vt 1.000000 0.400000
vt 0.950000 0.400000
vt 0.950000 0.700000
vt 1.000000 0.700000
vt 0.975000 0.000000
vt 0.950000 0.300000
vt 1.000000 0.300000
vt 0.950000 0.600000
vt 1.000000 0.900000
vt 0.975000 1.000000
vt 1.000000 0.200000
vt 0.925000 1.000000
vt 0.900000 0.900000
vt 0.900000 0.200000
vt 0.900000 0.500000
vt 0.900000 0.800000
vt 0.900000 0.100000
vt 0.900000 0.400000
vt 0.900000 0.700000
vt 0.925000 0.000000
vt 0.900000 0.300000
vt 0.900000 0.600000
vt 0.850000 0.300000
vt 0.850000 0.600000
vt 0.875000 1.000000
vt 0.850000 0.900000
vt 0.850000 0.200000
vt 0.850000 0.500000
vt 0.850000 0.800000
vt 0.850000 0.100000
vt 0.850000 0.400000
vt 0.850000 0.700000
vt 0.875000 0.000000
vt 0.800000 0.700000
vt 0.825000 0.000000
vt 0.800000 0.100000
vt 0.800000 0.300000
vt 0.800000 0.600000
vt 0.825000 1.000000
vt 0.800000 0.900000
vt 0.800000 0.200000
vt 0.800000 0.500000
vt 0.800000 0.800000
vt 0.800000 0.400000
vt 0.775000 0.000000
vt 0.775000 1.000000
s 1
f 1/1/1 9/2/9 2/3/2
f 125/4/125 182/5/182 15/6/15
f 181/7/181 13/8/13 5/9/5
f 3/10/3 9/2/9 10/11/10
f 180/12/180 97/13/97 7/14/7
f 5/9/5 14/15/14 6/16/6
f 3/10/3 11/17/11 4/18/4
f 180/12/180 8/19/8 1/1/1
f 182/5/182 14/15/14 15/6/15
f 181/7/181 11/17/11 12/20/12
f 8/19/8 18/21/18 9/2/9
f 125/22/125 15/6/15 24/23/24
f 12/20/12 22/24/22 13/8/13
f 9/2/9 19/25/19 10/11/10
f 7/14/7 97/26/97 16/27/16
f 13/8/13 23/28/23 14/15/14
f 10/11/10 20/29/20 11/17/11
f 7/14/7 17/30/17 8/19/8
f 15/6/15 23/28/23 24/23/24
f 11/17/11 21/31/21 12/20/12
f 20/29/20 30/32/30 21/31/21
f 18/21/18 26/33/26 27/34/27
f 125/35/125 24/23/24 33/36/33
f 21/31/21 31/37/31 22/24/22
f 19/25/19 27/34/27 28/38/28
f 16/27/16 97/39/97 25/40/25
f 22/24/22 32/41/32 23/28/23
f 19/25/19 29/42/29 20/29/20
f 16/27/16 26/33/26 17/30/17
f 23/28/23 33/36/33 24/23/24
f 26/33/26 34/43/34 35/44/35
f 32/41/32 42/45/42 33/36/33
f 29/42/29 39/46/39 30/32/30
f 26/33/26 36/47/36 27/34/27
f 125/48/125 33/36/33 42/45/42
f 30/32/30 40/49/40 31/37/31
f 27/34/27 37/50/37 28/38/28
f 25/40/25 97/51/97 34/43/34
f 31/37/31 41/52/41 32/41/32
f 28/38/28 38/53/38 29/42/29
f 40/49/40 50/54/50 41/52/41
f 37/50/37 47/55/47 38/53/38
f 34/43/34 44/56/44 35/44/35
f 41/52/41 51/57/51 42/45/42
f 38/53/38 48/58/48 39/46/39
f 35/44/35 45/59/45 36/47/36
f 125/60/125 42/45/42 51/57/51
f 39/46/39 49/61/49 40/49/40
f 36/47/36 46/62/46 37/50/37
f 34/43/34 97/63/97 43/64/43
f 45/59/45 55/65/55 46/62/46
f 43/64/43 97/66/97 52/67/52
f 49/61/49 59/68/59 50/54/50
f 46/62/46 56/69/56 47/55/47
f 43/64/43 53/70/53 44/56/44
f 50/54/50 60/71/60 51/57/51
f 47/55/47 57/72/57 48/58/48
f 45/59/45 53/70/53 54/73/54
f 125/74/125 51/57/51 60/71/60
f 48/58/48 58/75/58 49/61/49
f 57/72/57 67/76/67 58/75/58
f 54/73/54 64/77/64 55/65/55
f 52/67/52 97/78/97 61/79/61
f 58/75/58 68/80/68 59/68/59
f 55/65/55 65/81/65 56/69/56
f 53/70/53 61/79/61 62/82/62
f 59/68/59 69/83/69 60/71/60
f 56/69/56 66/84/66 57/72/57
f 53/70/53 63/85/63 54/73/54
f 125/86/125 60/71/60 69/83/69
f 62/82/62 72/87/72 63/85/63
f 125/88/125 69/83/69 78/89/78
f 66/84/66 76/90/76 67/76/67
f 64/77/64 72/87/72 73/91/73
f 61/79/61 97/92/97 70/93/70
f 67/76/67 77/94/77 68/80/68
f 64/77/64 74/95/74 65/81/65
f 62/82/62 70/93/70 71/96/71
f 68/80/68 78/89/78 69/83/69
f 66/84/66 74/95/74 75/97/75
f 78/89/78 86/98/86 87/99/87
f 75/97/75 83/100/83 84/101/84
f 71/96/71 81/102/81 72/87/72
f 125/103/125 78/89/78 87/99/87
f 75/97/75 85/104/85 76/90/76
f 73/91/73 81/102/81 82/105/82
f 70/93/70 97/106/97 79/107/79
f 77/94/77 85/104/85 86/98/86
f 73/91/73 83/100/83 74/95/74
f 70/93/70 80/108/80 71/96/71
f 82/105/82 92/109/92 83/100/83
f 80/108/80 88/110/88 89/111/89
f 86/98/86 96/112/96 87/99/87
f 83/100/83 93/113/93 84/101/84
f 81/102/81 89/111/89 90/114/90
f 125/115/125 87/99/87 96/112/96
f 84/101/84 94/116/94 85/104/85
f 81/102/81 91/117/91 82/105/82
f 79/107/79 97/118/97 88/110/88
f 85/104/85 95/119/95 86/98/86
f 88/110/88 97/120/97 98/121/98
f 94/116/94 105/122/105 95/119/95
f 91/117/91 102/123/102 92/109/92
f 88/110/88 99/124/99 89/111/89
f 95/119/95 106/125/106 96/112/96
f 92/109/92 103/126/103 93/113/93
f 89/111/89 100/127/100 90/114/90
f 125/128/125 96/112/96 106/125/106
f 93/113/93 104/129/104 94/116/94
f 91/117/91 100/127/100 101/130/101
f 100/127/100 110/131/110 101/130/101
f 98/121/98 97/132/97 107/133/107
f 105/122/105 113/134/113 114/135/114
f 101/130/101 111/136/111 102/123/102
f 98/121/98 108/137/108 99/124/99
f 105/122/105 115/138/115 106/125/106
f 103/126/103 111/136/111 112/139/112
f 99/124/99 109/140/109 100/127/100
f 125/141/125 106/125/106 115/138/115
f 103/126/103 113/134/113 104/129/104
f 125/142/125 115/138/115 124/143/124
f 112/139/112 122/144/122 113/134/113
f 110/131/110 118/145/118 119/146/119
f 107/133/107 97/147/97 116/148/116
f 113/134/113 123/149/123 114/135/114
f 110/131/110 120/150/120 111/136/111
f 108/137/108 116/148/116 117/151/117
f 115/138/115 123/149/123 124/143/124
f 112/139/112 120/150/120 121/152/121
f 108/137/108 118/145/118 109/140/109
f 121/152/121 130/153/130 131/154/131
f 117/151/117 128/155/128 118/145/118
f 125/156/125 124/143/124 134/157/134
f 121/152/121 132/158/132 122/144/122
f 119/146/119 128/155/128 129/159/129
f 116/148/116 97/160/97 126/161/126
f 122/144/122 133/162/133 123/149/123
f 119/146/119 130/153/130 120/150/120
f 116/148/116 127/163/127 117/151/117
f 123/149/123 134/157/134 124/143/124
f 127/163/127 135/164/135 136/165/136
f 133/162/133 143/166/143 134/157/134
f 131/154/131 139/167/139 140/168/140
f 128/155/128 136/165/136 137/169/137
f 125/170/125 134/157/134 143/166/143
f 131/154/131 141/171/141 132/158/132
f 128/155/128 138/172/138 129/159/129
f 126/161/126 97/173/97 135/164/135
f 132/158/132 142/174/142 133/162/133
f 129/159/129 139/167/139 130/153/130
f 138/175/138 148/176/148 139/177/139
f 136/178/136 144/179/144 145/180/145
f 143/181/143 151/182/151 152/183/152
f 140/184/140 148/176/148 149/185/149
f 136/178/136 146/186/146 137/187/137
f 125/188/125 143/181/143 152/183/152
f 140/184/140 150/189/150 141/190/141
f 138/175/138 146/186/146 147/191/147
f 135/192/135 97/193/97 144/179/144
f 141/190/141 151/182/151 142/194/142
f 144/179/144 97/195/97 153/196/153
f 150/189/150 160/197/160 151/182/151
f 147/191/147 157/198/157 148/176/148
f 144/179/144 154/199/154 145/180/145
f 151/182/151 161/200/161 152/183/152
f 149/185/149 157/198/157 158/201/158
f 145/180/145 155/202/155 146/186/146
f 125/203/125 152/183/152 161/200/161
f 149/185/149 159/204/159 150/189/150
f 147/191/147 155/202/155 156/205/156
f 158/201/158 168/206/168 159/204/159
f 155/202/155 165/207/165 156/205/156
f 153/196/153 97/208/97 162/209/162
f 159/204/159 169/210/169 160/197/160
f 156/205/156 166/211/166 157/198/157
f 153/196/153 163/212/163 154/199/154
f 160/197/160 170/213/170 161/200/161
f 157/198/157 167/214/167 158/201/158
f 154/199/154 164/215/164 155/202/155
f 125/216/125 161/200/161 170/213/170
f 163/212/163 173/217/173 164/215/164
f 125/218/125 170/213/170 179/219/179
f 167/214/167 177/220/177 168/206/168
f 165/207/165 173/217/173 174/221/174
f 162/209/162 97/222/97 171/223/171
f 168/206/168 178/224/178 169/210/169
f 165/207/165 175/225/175 166/211/166
f 163/212/163 171/223/171 172/226/172
f 169/210/169 179/219/179 170/213/170
f 166/211/166 176/227/176 167/214/167
f 176/227/176 4/18/4 181/7/181
f 172/226/172 2/3/2 173/217/173
f 125/228/125 179/219/179 182/5/182
f 177/220/177 181/7/181 5/9/5
f 173/217/173 3/10/3 174/221/174
f 171/223/171 97/229/97 180/12/180
f 178/224/178 5/9/5 6/16/6
f 174/221/174 4/18/4 175/225/175
f 171/223/171 1/1/1 172/226/172
f 179/219/179 6/16/6 182/5/182
f 1/1/1 8/19/8 9/2/9
f 181/7/181 12/20/12 13/8/13
f 3/10/3 2/3/2 9/2/9
f 5/9/5 13/8/13 14/15/14
f 3/10/3 10/11/10 11/17/11
f 180/12/180 7/14/7 8/19/8
f 182/5/182 6/16/6 14/15/14
f 181/7/181 4/18/4 11/17/11
f 8/19/8 17/30/17 18/21/18
f 12/20/12 21/31/21 22/24/22
f 9/2/9 18/21/18 19/25/19
f 13/8/13 22/24/22 23/28/23
f 10/11/10 19/25/19 20/29/20
f 7/14/7 16/27/16 17/30/17
f 15/6/15 14/15/14 23/28/23
f 11/17/11 20/29/20 21/31/21
f 20/29/20 29/42/29 30/32/30
f 18/21/18 17/30/17 26/33/26
f 21/31/21 30/32/30 31/37/31
f 19/25/19 18/21/18 27/34/27
f 22/24/22 31/37/31 32/41/32
f 19/25/19 28/38/28 29/42/29
f 16/27/16 25/40/25 26/33/26
f 23/28/23 32/41/32 33/36/33
f 26/33/26 25/40/25 34/43/34
f 32/41/32 41/52/41 42/45/42
f 29/42/29 38/53/38 39/46/39
f 26/33/26 35/44/35 36/47/36
f 30/32/30 39/46/39 40/49/40
f 27/34/27 36/47/36 37/50/37
f 31/37/31 40/49/40 41/52/41
f 28/38/28 37/50/37 38/53/38
f 40/49/40 49/61/49 50/54/50
f 37/50/37 46/62/46 47/55/47
f 34/43/34 43/64/43 44/56/44
f 41/52/41 50/54/50 51/57/51
f 38/53/38 47/55/47 48/58/48
f 35/44/35 44/56/44 45/59/45
f 39/46/39 48/58/48 49/61/49
f 36/47/36 45/59/45 46/62/46
f 45/59/45 54/73/54 55/65/55
f 49/61/49 58/75/58 59/68/59
f 46/62/46 55/65/55 56/69/56
f 43/64/43 52/67/52 53/70/53
f 50/54/50 59/68/59 60/71/60
f 47/55/47 56/69/56 57/72/57
f 45/59/45 44/56/44 53/70/53
f 48/58/48 57/72/57 58/75/58
f 57/72/57 66/84/66 67/76/67
f 54/73/54 63/85/63 64/77/64
f 58/75/58 67/76/67 68/80/68
f 55/65/55 64/77/64 65/81/65
f 53/70/53 52/67/52 61/79/61
f 59/68/59 68/80/68 69/83/69
f 56/69/56 65/81/65 66/84/66
f 53/70/53 62/82/62 63/85/63
f 62/82/62 71/96/71 72/87/72
f 66/84/66 75/97/75 76/90/76
f 64/77/64 63/85/63 72/87/72
f 67/76/67 76/90/76 77/94/77
f 64/77/64 73/91/73 74/95/74
f 62/82/62 61/79/61 70/93/70
f 68/80/68 77/94/77 78/89/78
f 66/84/66 65/81/65 74/95/74
f 78/89/78 77/94/77 86/98/86
f 75/97/75 74/95/74 83/100/83
f 71/96/71 80/108/80 81/102/81
f 75/97/75 84/101/84 85/104/85
f 73/91/73 72/87/72 81/102/81
f 77/94/77 76/90/76 85/104/85
f 73/91/73 82/105/82 83/100/83
f 70/93/70 79/107/79 80/108/80
f 82/105/82 91/117/91 92/109/92
f 80/108/80 79/107/79 88/110/88
f 86/98/86 95/119/95 96/112/96
f 83/100/83 92/109/92 93/113/93
f 81/102/81 80/108/80 89/111/89
f 84/101/84 93/113/93 94/116/94
f 81/102/81 90/114/90 91/117/91
f 85/104/85 94/116/94 95/119/95
f 94/116/94 104/129/104 105/122/105
f 91/117/91 101/130/101 102/123/102
f 88/110/88 98/121/98 99/124/99
f 95/119/95 105/122/105 106/125/106
f 92/109/92 102/123/102 103/126/103
f 89/111/89 99/124/99 100/127/100
f 93/113/93 103/126/103 104/129/104
f 91/117/91 90/114/90 100/127/100
f 100/127/100 109/140/109 110/131/110
f 105/122/105 104/129/104 113/134/113
f 101/130/101 110/131/110 111/136/111
f 98/121/98 107/133/107 108/137/108
f 105/122/105 114/135/114 115/138/115
f 103/126/103 102/123/102 111/136/111
f 99/124/99 108/137/108 109/140/109
f 103/126/103 112/139/112 113/134/113
f 112/139/112 121/152/121 122/144/122
f 110/131/110 109/140/109 118/145/118
f 113/134/113 122/144/122 123/149/123
f 110/131/110 119/146/119 120/150/120
f 108/137/108 107/133/107 116/148/116
f 115/138/115 114/135/114 123/149/123
f 112/139/112 111/136/111 120/150/120
f 108/137/108 117/151/117 118/145/118
f 121/152/121 120/150/120 130/153/130
f 117/151/117 127/163/127 128/155/128
f 121/152/121 131/154/131 132/158/132
f 119/146/119 118/145/118 128/155/128
f 122/144/122 132/158/132 133/162/133
f 119/146/119 129/159/129 130/153/130
f 116/148/116 126/161/126 127/163/127
f 123/149/123 133/162/133 134/157/134
f 127/163/127 126/161/126 135/164/135
f 133/162/133 142/174/142 143/166/143
f 131/154/131 130/153/130 139/167/139
f 128/155/128 127/163/127 136/165/136
f 131/154/131 140/168/140 141/171/141
f 128/155/128 137/169/137 138/172/138
f 132/158/132 141/171/141 142/174/142
f 129/159/129 138/172/138 139/167/139
f 138/175/138 147/191/147 148/176/148
f 136/178/136 135/192/135 144/179/144
f 143/181/143 142/194/142 151/182/151
f 140/184/140 139/177/139 148/176/148
f 136/178/136 145/180/145 146/186/146
f 140/184/140 149/185/149 150/189/150
f 138/175/138 137/187/137 146/186/146
f 141/190/141 150/189/150 151/182/151
f 150/189/150 159/204/159 160/197/160
f 147/191/147 156/205/156 157/198/157
f 144/179/144 153/196/153 154/199/154
f 151/182/151 160/197/160 161/200/161
f 149/185/149 148/176/148 157/198/157
f 145/180/145 154/199/154 155/202/155
f 149/185/149 158/201/158 159/204/159
f 147/191/147 146/186/146 155/202/155
f 158/201/158 167/214/167 168/206/168
f 155/202/155 164/215/164 165/207/165
f 159/204/159 168/206/168 169/210/169
f 156/205/156 165/207/165 166/211/166
f 153/196/153 162/209/162 163/212/163
f 160/197/160 169/210/169 170/213/170
f 157/198/157 166/211/166 167/214/167
f 154/199/154 163/212/163 164/215/164
f 163/212/163 172/226/172 173/217/173
f 167/214/167 176/227/176 177/220/177
f 165/207/165 164/215/164 173/217/173
f 168/206/168 177/220/177 178/224/178
f 165/207/165 174/221/174 175/225/175
f 163/212/163 162/209/162 171/223/171
f 169/210/169 178/224/178 179/219/179
f 166/211/166 175/225/175 176/227/176
f 176/227/176 175/225/175 4/18/4
f 172/226/172 1/1/1 2/3/2
f 177/220/177 176/227/176 181/7/181
f 173/217/173 2/3/2 3/10/3
f 178/224/178 177/220/177 5/9/5
f 174/221/174 3/10/3 4/18/4
f 171/223/171 180/12/180 1/1/1
f 179/219/179 178/224/178 6/16/6
