# Blender 4.4.1
# www.blender.org
mtllib reeds2.mtl
o reeds2
v -0.038022 0.349563 0.193327
v -0.051427 -0.003438 0.176511
v -0.019359 -0.006781 0.176511
v -0.055767 0.822456 0.207929
v -0.070241 0.349563 0.193327
v -0.038022 0.349563 0.193327
v -0.055767 0.822456 0.207929
v -0.076474 1.070272 0.202959
v -0.081608 0.822456 0.207929
v -0.052283 0.349563 0.178005
v -0.041034 -0.006781 0.159342
v -0.041034 -0.003438 0.191410
v -0.069208 0.822456 0.195750
v -0.052283 0.349563 0.178005
v -0.052283 0.349563 0.210224
v -0.069208 0.822456 0.195750
v -0.069208 0.822456 0.221592
v -0.062217 1.070272 0.216457
v -0.061337 0.865105 0.214763
v -0.060545 0.990449 0.213977
v -0.066879 0.990361 0.193494
v -0.067669 0.865017 0.194280
v -0.056270 0.990344 0.201435
v -0.056270 0.990344 0.201435
v -0.078504 0.865133 0.201914
v -0.077711 0.990477 0.201127
v -0.067939 0.856924 0.209412
v -0.067849 0.856884 0.203122
v -0.073797 0.990532 0.213786
v -0.074590 0.865188 0.214572
v -0.067043 0.998646 0.208522
v -0.069280 0.996193 0.212572
v -0.060546 0.990449 0.213977
v -0.063771 0.995225 0.213198
v -0.073796 0.990532 0.213787
v -0.067816 0.992298 0.215203
v -0.067939 0.856924 0.209412
v -0.065818 0.859428 0.213492
v -0.074588 0.865188 0.214573
v -0.071344 0.860404 0.213948
v -0.061338 0.865105 0.214764
v -0.067356 0.863356 0.216030
v -0.070631 0.998652 0.205837
v -0.075170 0.996183 0.204987
v -0.073798 0.990532 0.213786
v -0.074061 0.995272 0.210429
v -0.077711 0.990477 0.201127
v -0.077213 0.992308 0.207232
v -0.071526 0.856929 0.206726
v -0.074756 0.859463 0.209978
v -0.078504 0.865133 0.201914
v -0.076899 0.860382 0.204855
v -0.074590 0.865188 0.214572
v -0.077652 0.863379 0.209259
v -0.069186 0.998616 0.201598
v -0.069775 0.996099 0.197045
v -0.077711 0.990477 0.201127
v -0.074608 0.995209 0.199790
v -0.066880 0.990361 0.193494
v -0.072536 0.992207 0.195835
v -0.070081 0.856894 0.202488
v -0.074176 0.859399 0.200395
v -0.067673 0.865017 0.194280
v -0.069967 0.860287 0.196765
v -0.078504 0.865133 0.201914
v -0.074393 0.863283 0.197379
v -0.064703 0.998588 0.201663
v -0.060551 0.996058 0.199720
v -0.066877 0.990361 0.193494
v -0.064654 0.995122 0.195983
v -0.056270 0.990344 0.201435
v -0.060248 0.992135 0.196761
v -0.065599 0.856866 0.202552
v -0.064878 0.859325 0.197985
v -0.057062 0.865000 0.202222
v -0.060126 0.860251 0.200857
v -0.067669 0.865017 0.194280
v -0.062083 0.863202 0.196806
v -0.063380 0.998607 0.205941
v -0.060245 0.996116 0.209316
v -0.056270 0.990344 0.201435
v -0.057957 0.995132 0.204269
v -0.060544 0.990449 0.213976
v -0.057331 0.992191 0.208731
v -0.064276 0.856884 0.206831
v -0.059714 0.859343 0.206079
v -0.061337 0.865105 0.214763
v -0.060978 0.860323 0.211476
v -0.057062 0.865000 0.202222
v -0.057735 0.863247 0.208333
v -0.073796 0.990532 0.213787
v -0.072286 0.996250 0.211781
v -0.071795 0.996300 0.212121
v -0.069043 0.998407 0.207762
v -0.074590 0.865188 0.214572
v -0.073151 0.859427 0.212640
v -0.073154 0.859356 0.212553
v -0.071526 0.856929 0.206726
v -0.063882 0.990381 0.214981
v -0.067993 0.865160 0.216765
v -0.067993 0.865160 0.216765
v -0.070492 0.990422 0.214886
v -0.077711 0.990477 0.201127
v -0.078526 0.865251 0.205379
v -0.077757 0.990521 0.208075
v -0.076574 0.865279 0.211710
v -0.077711 0.990477 0.201127
v -0.075347 0.996207 0.201885
v -0.075300 0.996278 0.201957
v -0.070631 0.998652 0.205837
v -0.078504 0.865133 0.201914
v -0.076212 0.859384 0.202743
v -0.075999 0.859328 0.202187
v -0.071299 0.857159 0.204242
v -0.066880 0.990361 0.193494
v -0.070976 0.865140 0.195329
v -0.073504 0.990416 0.195597
v -0.076394 0.865198 0.199141
v -0.066879 0.990361 0.193494
v -0.067475 0.996171 0.195930
v -0.067475 0.996171 0.195930
v -0.067122 0.998352 0.201041
v -0.067671 0.865017 0.194280
v -0.067146 0.859238 0.196806
v -0.067146 0.859238 0.196806
v -0.067645 0.857122 0.201933
v -0.059090 0.865091 0.199390
v -0.060317 0.990334 0.195786
v -0.060317 0.990334 0.195786
v -0.064381 0.865099 0.195429
v -0.056269 0.990344 0.201435
v -0.056270 0.990344 0.201435
v -0.058780 0.996151 0.201563
v -0.063536 0.998345 0.203455
v -0.057062 0.865000 0.202222
v -0.059448 0.859279 0.202984
v -0.059497 0.859210 0.203056
v -0.064276 0.856884 0.206831
v -0.059270 0.865171 0.211959
v -0.056422 0.990388 0.208382
v -0.056422 0.990388 0.208382
v -0.057138 0.865118 0.205703
v -0.060544 0.990449 0.213976
v -0.061926 0.996185 0.211930
v -0.061920 0.996255 0.211843
v -0.063380 0.998607 0.205941
v -0.061338 0.865105 0.214764
v -0.062791 0.859362 0.212789
v -0.063292 0.859316 0.213115
v -0.065918 0.857154 0.208706
v -0.068993 0.998621 0.202636
v -0.064703 0.998588 0.201663
v -0.196159 0.496220 0.153297
v -0.191370 0.648298 0.106083
v -0.252857 0.637046 0.105492
v -0.003742 0.331799 0.155740
v -0.003219 0.453945 0.141510
v -0.060557 0.497992 0.141507
v -0.155111 0.613596 0.117858
v -0.143001 0.747288 0.081922
v -0.187866 0.764649 0.070780
v -0.252857 0.637046 0.105492
v -0.256841 0.784257 0.052559
v -0.317502 0.767917 0.046596
v -0.095718 0.187292 0.207478
v -0.015135 -0.000885 0.180494
v -0.006592 0.197539 0.168186
v -0.006007 0.631283 0.115869
v -0.060557 0.497992 0.141507
v -0.003219 0.453945 0.141510
v -0.134901 0.502663 0.147020
v -0.196159 0.496220 0.153297
v -0.128673 0.311596 0.193067
v -0.134901 0.502663 0.147020
v -0.091944 0.604436 0.120906
v -0.155111 0.613596 0.117858
v -0.128673 0.311596 0.193067
v -0.006592 0.197539 0.168186
v -0.003742 0.331799 0.155740
v -0.196159 0.496220 0.153297
v -0.134901 0.502663 0.147020
v -0.191370 0.648298 0.106083
v -0.128673 0.311596 0.193067
v -0.060557 0.497992 0.141507
v -0.134901 0.502663 0.147020
v -0.155111 0.613596 0.117858
v -0.091944 0.604436 0.120906
v -0.143001 0.747288 0.081922
v -0.252857 0.637046 0.105492
v -0.191370 0.648298 0.106083
v -0.256841 0.784257 0.052559
v -0.095718 0.187292 0.207478
v -0.059075 -0.001459 0.211750
v -0.015135 -0.000885 0.180494
v -0.006007 0.631283 0.115869
v -0.066792 0.690664 0.102717
v -0.060557 0.497992 0.141507
v -0.134901 0.502663 0.147020
v -0.060557 0.497992 0.141507
v -0.091944 0.604436 0.120906
v -0.128673 0.311596 0.193067
v -0.095718 0.187292 0.207478
v -0.006592 0.197539 0.168186
v -0.128673 0.311596 0.193067
v -0.003742 0.331799 0.155740
v -0.060557 0.497992 0.141507
v -0.057396 0.497650 0.266067
v -0.014495 0.510194 0.272935
v -0.013641 0.408302 0.244384
v 0.030310 0.657828 0.295163
v 0.048747 0.543683 0.264067
v 0.005935 0.549276 0.258509
v -0.013641 0.408302 0.244384
v 0.015754 0.272747 0.218478
v -0.055326 0.273264 0.245208
v -0.013641 0.408302 0.244384
v -0.055326 0.273264 0.245208
v -0.055762 0.389943 0.250699
v 0.001692 0.154278 0.199203
v -0.015741 -0.002740 0.179517
v -0.054479 -0.000404 0.219867
v 0.030971 0.396258 0.238003
v 0.015754 0.272747 0.218478
v -0.013641 0.408302 0.244384
v -0.013641 0.408302 0.244384
v 0.005935 0.549276 0.258509
v 0.048747 0.543683 0.264067
v -0.081388 0.645038 0.450646
v -0.035468 0.615430 0.365865
v -0.068353 0.609197 0.353052
v -0.062003 0.565130 0.304157
v -0.048217 0.567766 0.305670
v -0.014495 0.510194 0.272935
v 0.015754 0.272747 0.218478
v 0.001692 0.154278 0.199203
v -0.054842 0.154831 0.235497
v -0.057396 0.497650 0.266067
v -0.013641 0.408302 0.244384
v -0.055762 0.389943 0.250699
v 0.048747 0.543683 0.264067
v 0.030310 0.657828 0.295163
v 0.059793 0.658450 0.307423
v 0.001692 0.154278 0.199203
v -0.054479 -0.000404 0.219867
v -0.054842 0.154831 0.235497
v -0.013641 0.408302 0.244384
v 0.048747 0.543683 0.264067
v 0.030971 0.396258 0.238003
v 0.056103 0.698283 0.357940
v 0.025063 0.699498 0.346006
v 0.033446 0.709296 0.426923
v -0.048217 0.567766 0.305670
v -0.018348 0.573883 0.317290
v -0.014495 0.510194 0.272935
v -0.081388 0.645038 0.450646
v -0.036685 0.649378 0.477016
v -0.023961 0.615464 0.369937
v 0.015754 0.272747 0.218478
v -0.054842 0.154831 0.235497
v -0.055326 0.273264 0.245208
v -0.051581 0.261728 0.192213
v -0.050583 0.371441 0.194620
v -0.043208 0.370952 0.180248
v -0.033950 0.590781 0.197965
v -0.017742 0.699449 0.192249
v -0.013277 0.697272 0.172943
v -0.044809 0.481224 0.197309
v -0.033950 0.590781 0.197965
v -0.027140 0.588136 0.173386
v -0.050583 0.371441 0.194620
v -0.044809 0.481224 0.197309
v -0.037129 0.478953 0.176458
v 0.056103 0.698283 0.357940
v 0.064765 0.696856 0.360265
v 0.059793 0.658450 0.307423
v 0.030310 0.657828 0.295163
v 0.018544 0.658022 0.293394
v 0.025063 0.699498 0.346006
v -0.048217 0.567766 0.305670
v -0.062003 0.565130 0.304157
v -0.068353 0.609197 0.353052
v -0.035468 0.615430 0.365865
v -0.023961 0.615464 0.369937
v -0.018348 0.573883 0.317290
v 0.025063 0.699498 0.346006
v 0.056103 0.698283 0.357940
v 0.059793 0.658450 0.307423
v -0.018348 0.573883 0.317290
v -0.048217 0.567766 0.305670
v -0.068353 0.609197 0.353052
v 0.064765 0.696856 0.360265
v 0.056103 0.698283 0.357940
v 0.033446 0.709296 0.426923
v -0.021962 0.147158 0.175053
v -0.048159 0.235176 0.149603
v -0.044296 0.145033 0.175538
v -0.042050 0.069029 0.189152
v -0.020111 -0.006009 0.193144
v -0.020175 0.071109 0.188880
v -0.036455 0.316226 0.073467
v -0.048182 0.285936 0.118769
v -0.031272 0.286607 0.118099
v -0.028322 0.323435 -0.009187
v -0.041120 0.317259 -0.028679
v -0.042049 0.323922 -0.007027
v -0.020175 0.071109 0.188880
v -0.044296 0.145033 0.175538
v -0.042050 0.069029 0.189152
v -0.026090 0.236799 0.148916
v -0.048182 0.285936 0.118769
v -0.048159 0.235176 0.149603
v -0.042049 0.323922 -0.007027
v -0.031400 0.327156 0.027817
v -0.028322 0.323435 -0.009187
v -0.036455 0.316226 0.073467
v -0.044408 0.327018 0.029967
v -0.048205 0.316135 0.073724
v -0.100929 0.237652 0.206121
v -0.059269 0.145039 0.224859
v -0.073336 0.147159 0.188309
v -0.042071 -0.005108 0.211922
v -0.058783 0.071110 0.179642
v -0.045318 0.069028 0.215557
v -0.147298 0.348511 0.242453
v -0.110577 0.294466 0.250904
v -0.121229 0.295431 0.223231
v -0.216057 0.422041 0.252446
v -0.227108 0.437231 0.280390
v -0.205819 0.420323 0.274329
v -0.058783 0.071110 0.179642
v -0.059269 0.145039 0.224859
v -0.045318 0.069028 0.215557
v -0.121229 0.295431 0.223231
v -0.086951 0.235916 0.242209
v -0.100929 0.237652 0.206121
v -0.205819 0.420323 0.274329
v -0.183283 0.391578 0.246192
v -0.216057 0.422041 0.252446
v -0.147298 0.348511 0.242453
v -0.173776 0.389704 0.266999
v -0.140046 0.348253 0.261739
v -0.015869 0.178416 0.217554
v -0.013404 0.292508 0.181261
v -0.027734 0.175843 0.193392
v -0.030848 0.083373 0.197912
v -0.020578 -0.007242 0.222319
v -0.019237 0.085898 0.221583
v 0.184954 0.236985 0.111552
v 0.172688 0.212447 0.100360
v 0.177910 0.239840 0.096581
v -0.019237 0.085898 0.221583
v -0.027734 0.175843 0.193392
v -0.030848 0.083373 0.197912
v 0.093360 0.349832 0.147971
v 0.120160 0.335833 0.116366
v 0.084747 0.350169 0.133568
v 0.126744 0.335594 0.128912
v 0.156355 0.304626 0.102563
v 0.120160 0.335833 0.116366
v 0.084747 0.350169 0.133568
v 0.049270 0.346951 0.173461
v 0.093360 0.349832 0.147971
v 0.038896 0.346599 0.155843
v 0.015228 0.321591 0.194074
v 0.049270 0.346951 0.173461
v -0.000701 0.294636 0.204660
v 0.003505 0.320428 0.173040
v -0.013404 0.292508 0.181261
v 0.164739 0.302136 0.115548
v 0.171819 0.275211 0.097341
v 0.156355 0.304626 0.102563
v 0.177910 0.239840 0.096581
v 0.179628 0.272338 0.111272
v 0.184954 0.236985 0.111552
v -0.097604 0.039019 0.175893
v -0.135331 0.047115 0.106654
v -0.291145 0.005484 0.185668
v -0.033245 -0.015103 0.211529
v -0.027313 -0.003900 0.190731
v -0.058185 0.001352 0.216679
v -0.027313 -0.003900 0.190731
v -0.051091 0.031221 0.166946
v -0.058185 0.001352 0.216679
v -0.051091 0.031221 0.166946
v -0.097604 0.039019 0.175893
v -0.058185 0.001352 0.216679
v -0.125273 0.018466 0.218600
v -0.058185 0.001352 0.216679
v -0.097604 0.039019 0.175893
v -0.291145 0.005484 0.185668
v -0.125273 0.018466 0.218600
v -0.097604 0.039019 0.175893
v -0.200798 0.034215 0.106156
v -0.291145 0.005484 0.185668
v -0.135331 0.047115 0.106654
v -0.200798 0.034215 0.106156
v -0.278493 0.016437 0.136945
v -0.291145 0.005484 0.185668
v -0.181024 0.008739 0.035733
v -0.211949 0.013108 0.048072
v -0.135331 0.047115 0.106654
v -0.211949 0.013108 0.048072
v -0.200798 0.034215 0.106156
v -0.135331 0.047115 0.106654
v -0.038022 0.349563 0.193327
v -0.070241 0.349563 0.193327
v -0.051427 -0.003438 0.176511
v -0.055767 0.822456 0.207929
v -0.081608 0.822456 0.207929
v -0.070241 0.349563 0.193327
v -0.055767 0.822456 0.207929
v -0.057065 1.071294 0.202959
v -0.076474 1.070272 0.202959
v -0.052283 0.349563 0.178005
v -0.041034 -0.003438 0.191410
v -0.052283 0.349563 0.210224
v -0.069208 0.822456 0.195750
v -0.052283 0.349563 0.210224
v -0.069208 0.822456 0.221592
v -0.069208 0.822456 0.195750
v -0.062217 1.070272 0.216457
v -0.062217 1.071294 0.197048
v -0.061337 0.865105 0.214763
v -0.060546 0.990449 0.213977
v -0.066880 0.990361 0.193494
v -0.067671 0.865017 0.194280
v -0.057062 0.865000 0.202223
v -0.057062 0.865000 0.202222
v -0.078504 0.865133 0.201914
v -0.077711 0.990477 0.201127
v -0.070740 0.856920 0.206022
v -0.067939 0.856924 0.209412
v -0.067939 0.856924 0.209412
v -0.065042 0.856885 0.206104
v -0.073796 0.990532 0.213787
v -0.074589 0.865188 0.214573
v -0.067043 0.998646 0.208522
v -0.064954 0.996166 0.212634
v -0.060546 0.990449 0.213977
v -0.066541 0.992290 0.215221
v -0.073796 0.990532 0.213787
v -0.070491 0.995267 0.213102
v -0.067939 0.856924 0.209412
v -0.070145 0.859455 0.213430
v -0.074588 0.865188 0.214573
v -0.068631 0.863364 0.216012
v -0.061338 0.865105 0.214764
v -0.064623 0.860362 0.214045
v -0.070631 0.998652 0.205837
v -0.073892 0.996201 0.209120
v -0.073798 0.990532 0.213786
v -0.076837 0.992313 0.208450
v -0.077711 0.990477 0.201127
v -0.076046 0.995245 0.204009
v -0.071526 0.856929 0.206726
v -0.076034 0.859445 0.205845
v -0.078504 0.865133 0.201914
v -0.078028 0.863373 0.208041
v -0.074590 0.865188 0.214572
v -0.074914 0.860409 0.211276
v -0.069186 0.998616 0.201598
v -0.073312 0.996137 0.199537
v -0.077711 0.990477 0.201127
v -0.073578 0.992218 0.196570
v -0.066880 0.990361 0.193494
v -0.069114 0.995150 0.195918
v -0.070081 0.856894 0.202488
v -0.070640 0.859361 0.197903
v -0.067673 0.865017 0.194280
v -0.073351 0.863272 0.196644
v -0.078504 0.865133 0.201914
v -0.075460 0.860346 0.200636
v -0.064703 0.998588 0.201663
v -0.064014 0.996063 0.197127
v -0.066877 0.990361 0.193494
v -0.061268 0.992136 0.195997
v -0.056270 0.990344 0.201435
v -0.059274 0.995114 0.200011
v -0.065599 0.856866 0.202552
v -0.061415 0.859319 0.200578
v -0.057062 0.865000 0.202222
v -0.061063 0.863200 0.197570
v -0.067669 0.865017 0.194280
v -0.065507 0.860259 0.196829
v -0.063380 0.998607 0.205941
v -0.058850 0.996081 0.205221
v -0.056270 0.990344 0.201435
v -0.056920 0.992181 0.207524
v -0.060544 0.990449 0.213976
v -0.060125 0.995186 0.210630
v -0.064276 0.856884 0.206831
v -0.061110 0.859378 0.210174
v -0.061337 0.865105 0.214763
v -0.058146 0.863257 0.209540
v -0.057062 0.865000 0.202222
v -0.058810 0.860269 0.205115
v -0.073797 0.990532 0.213786
v -0.072751 0.996301 0.211406
v -0.072289 0.996320 0.211694
v -0.070631 0.998652 0.205837
v -0.074589 0.865188 0.214573
v -0.072661 0.859375 0.212980
v -0.072661 0.859375 0.212980
v -0.069936 0.857179 0.208649
v -0.060546 0.990449 0.213977
v -0.064658 0.865229 0.215761
v -0.071298 0.865270 0.215666
v -0.073796 0.990532 0.213787
v -0.077735 0.990403 0.204610
v -0.078550 0.865177 0.208862
v -0.075774 0.990431 0.210938
v -0.074590 0.865188 0.214572
v -0.077711 0.990477 0.201127
v -0.075134 0.996253 0.201328
v -0.075134 0.996253 0.201328
v -0.070406 0.998388 0.203356
v -0.078504 0.865134 0.201915
v -0.078504 0.865133 0.201914
v -0.076165 0.859314 0.202817
v -0.071526 0.856929 0.206726
v -0.070200 0.990293 0.194548
v -0.074296 0.865072 0.196383
v -0.075613 0.990351 0.198369
v -0.078504 0.865133 0.201914
v -0.066877 0.990361 0.193494
v -0.066878 0.996116 0.195917
v -0.066824 0.996187 0.195986
v -0.064703 0.998588 0.201663
v -0.067673 0.865017 0.194280
v -0.067743 0.859293 0.196776
v -0.067798 0.859223 0.196843
v -0.070081 0.856894 0.202488
v -0.057062 0.865000 0.202222
v -0.058289 0.990243 0.198618
v -0.063605 0.990251 0.194638
v -0.067669 0.865017 0.194280
v -0.056270 0.990344 0.201435
v -0.058583 0.996103 0.202126
v -0.058632 0.996174 0.202197
v -0.063380 0.998607 0.205941
v -0.057062 0.865000 0.202221
v -0.057062 0.865000 0.202222
v -0.059645 0.859226 0.202422
v -0.064429 0.857117 0.204341
v -0.061337 0.865105 0.214763
v -0.058489 0.990323 0.211186
v -0.056346 0.990270 0.204901
v -0.057062 0.865000 0.202222
v -0.060545 0.990449 0.213977
v -0.062426 0.996242 0.212256
v -0.062426 0.996242 0.212256
v -0.065025 0.998382 0.207820
v -0.061337 0.865105 0.214763
v -0.062316 0.859306 0.212428
v -0.062786 0.859291 0.212702
v -0.064276 0.856884 0.206831
v -0.064146 0.998607 0.205215
v -0.067043 0.998646 0.208522
v -0.068476 0.998644 0.206699
v -0.064703 0.998588 0.201663
v 0.030310 0.657828 0.295163
v 0.005935 0.549276 0.258509
v 0.018544 0.658022 0.293394
v -0.062003 0.565130 0.304157
v -0.014495 0.510194 0.272935
v -0.057396 0.497650 0.266067
v -0.081388 0.645038 0.450646
v -0.023961 0.615464 0.369937
v -0.035468 0.615430 0.365865
v -0.051581 0.261728 0.192213
v -0.043208 0.370952 0.180248
v -0.045859 0.261377 0.182867
v -0.033950 0.590781 0.197965
v -0.013277 0.697272 0.172943
v -0.027140 0.588136 0.173386
v -0.044809 0.481224 0.197309
v -0.027140 0.588136 0.173386
v -0.037129 0.478953 0.176458
v -0.050583 0.371441 0.194620
v -0.037129 0.478953 0.176458
v -0.043208 0.370952 0.180248
v 0.025063 0.699498 0.346006
v 0.059793 0.658450 0.307423
v 0.030310 0.657828 0.295163
v -0.018348 0.573883 0.317290
v -0.068353 0.609197 0.353052
v -0.035468 0.615430 0.365865
v 0.064765 0.696856 0.360265
v 0.033446 0.709296 0.426923
v 0.070741 0.708837 0.454414
v -0.021962 0.147158 0.175053
v -0.026090 0.236799 0.148916
v -0.048159 0.235176 0.149603
v -0.042050 0.069029 0.189152
v -0.040740 -0.005108 0.193151
v -0.020111 -0.006009 0.193144
v -0.036455 0.316226 0.073467
v -0.048205 0.316135 0.073724
v -0.048182 0.285936 0.118769
v -0.028322 0.323435 -0.009187
v -0.027121 0.316813 -0.029767
v -0.041120 0.317259 -0.028679
v -0.020175 0.071109 0.188880
v -0.021962 0.147158 0.175053
v -0.044296 0.145033 0.175538
v -0.026090 0.236799 0.148916
v -0.031272 0.286607 0.118099
v -0.048182 0.285936 0.118769
v -0.042049 0.323922 -0.007027
v -0.044408 0.327018 0.029967
v -0.031400 0.327156 0.027817
v -0.036455 0.316226 0.073467
v -0.031400 0.327156 0.027817
v -0.044408 0.327018 0.029967
v -0.100929 0.237652 0.206121
v -0.086951 0.235916 0.242209
v -0.059269 0.145039 0.224859
v -0.042071 -0.005108 0.211922
v -0.054516 -0.006009 0.177961
v -0.058783 0.071110 0.179642
v -0.147298 0.348511 0.242453
v -0.140046 0.348253 0.261739
v -0.110577 0.294466 0.250904
v -0.216057 0.422041 0.252446
v -0.236658 0.438063 0.257748
v -0.227108 0.437231 0.280390
v -0.058783 0.071110 0.179642
v -0.073336 0.147159 0.188309
v -0.059269 0.145039 0.224859
v -0.121229 0.295431 0.223231
v -0.110577 0.294466 0.250904
v -0.086951 0.235916 0.242209
v -0.205819 0.420323 0.274329
v -0.173776 0.389704 0.266999
v -0.183283 0.391578 0.246192
v -0.147298 0.348511 0.242453
v -0.183283 0.391578 0.246192
v -0.173776 0.389704 0.266999
v -0.015869 0.178416 0.217554
v -0.000701 0.294636 0.204660
v -0.013404 0.292508 0.181261
v -0.030848 0.083373 0.197912
v -0.031437 -0.006156 0.199953
v -0.020578 -0.007242 0.222319
v 0.184954 0.236985 0.111552
v 0.179545 0.211161 0.115786
v 0.172688 0.212447 0.100360
v -0.019237 0.085898 0.221583
v -0.015869 0.178416 0.217554
v -0.027734 0.175843 0.193392
v 0.093360 0.349832 0.147971
v 0.126744 0.335594 0.128912
v 0.120160 0.335833 0.116366
v 0.126744 0.335594 0.128912
v 0.164739 0.302136 0.115548
v 0.156355 0.304626 0.102563
v 0.084747 0.350169 0.133568
v 0.038896 0.346599 0.155843
v 0.049270 0.346951 0.173461
v 0.038896 0.346599 0.155843
v 0.003505 0.320428 0.173040
v 0.015228 0.321591 0.194074
v -0.000701 0.294636 0.204660
v 0.015228 0.321591 0.194074
v 0.003505 0.320428 0.173040
v 0.164739 0.302136 0.115548
v 0.179628 0.272338 0.111272
v 0.171819 0.275211 0.097341
v 0.177910 0.239840 0.096581
v 0.171819 0.275211 0.097341
v 0.179628 0.272338 0.111272
v 0.272085 0.717700 0.031301
v 0.263091 0.712242 -0.005835
v 0.244731 1.086078 -0.017658
v 0.263091 0.712242 -0.005835
v 0.272085 0.717700 0.031301
v 0.275296 0.449910 0.035944
v 0.265813 0.444155 -0.003213
v 0.275296 0.449910 0.035944
v 0.265995 0.180410 0.031298
v 0.248413 0.002003 0.025271
v 0.238446 0.000840 -0.015884
v 0.256144 0.174432 -0.009377
v 0.284075 0.717700 0.010385
v 0.227889 1.086078 0.007897
v 0.246939 0.712242 0.019379
v 0.246939 0.712242 0.019379
v 0.289972 0.449910 0.012353
v 0.284075 0.717700 0.010385
v 0.250816 0.444155 0.021836
v 0.281449 0.180411 0.005640
v 0.289972 0.449910 0.012353
v 0.268482 0.002003 -0.005428
v 0.240773 0.174432 0.015491
v 0.227328 0.000840 0.004539
v 0.250149 0.852762 0.017904
v 0.245027 1.000882 0.015116
v 0.266622 1.001379 0.001841
v 0.271744 0.853259 0.004630
v 0.265761 0.853325 0.019113
v 0.260640 1.001445 0.016326
v 0.259828 0.852656 -0.005534
v 0.254707 1.000776 -0.008321
v 0.254749 0.843062 0.008996
v 0.261977 0.843279 0.007250
v 0.246481 0.852349 0.002672
v 0.241360 1.000469 -0.000116
v 0.248958 1.010536 0.005845
v 0.243790 1.007383 0.004542
v 0.245026 1.000882 0.015115
v 0.244735 1.006429 0.011062
v 0.241359 1.000469 -0.000115
v 0.241401 1.002731 0.007100
v 0.254749 0.843062 0.008996
v 0.250574 0.845934 0.012555
v 0.246481 0.852349 0.002672
v 0.248386 0.846851 0.006335
v 0.250147 0.852762 0.017902
v 0.247022 0.850408 0.011432
v 0.250981 1.010514 0.000947
v 0.250748 1.007455 -0.004433
v 0.241360 1.000469 -0.000118
v 0.244888 1.006197 -0.001538
v 0.254707 1.000776 -0.008321
v 0.247773 1.002705 -0.006005
v 0.256772 0.843039 0.004098
v 0.251977 0.845770 0.001286
v 0.259828 0.852656 -0.005534
v 0.257168 0.846984 -0.002700
v 0.246482 0.852349 0.002670
v 0.251757 0.850312 -0.002349
v 0.256258 1.010704 0.001356
v 0.261423 1.007896 -0.000590
v 0.254707 1.000776 -0.008321
v 0.256910 1.006542 -0.005291
v 0.266622 1.001379 0.001839
v 0.262193 1.003241 -0.004000
v 0.262048 0.843230 0.004507
v 0.263120 0.846115 -0.000867
v 0.271743 0.853259 0.004626
v 0.268463 0.847480 0.002861
v 0.259828 0.852656 -0.005534
v 0.266315 0.850820 -0.002110
v 0.257498 1.010844 0.006508
v 0.261064 1.008098 0.010762
v 0.266623 1.001379 0.001843
v 0.264187 1.006987 0.004989
v 0.260640 1.001445 0.016326
v 0.264735 1.003599 0.010346
v 0.263289 0.843369 0.009659
v 0.268604 0.846492 0.009073
v 0.265761 0.853325 0.019113
v 0.266663 0.847652 0.015334
v 0.271744 0.853259 0.004630
v 0.270579 0.851230 0.011820
v 0.252987 1.010740 0.009281
v 0.250166 1.007780 0.013932
v 0.260640 1.001445 0.016326
v 0.256663 1.006917 0.015095
v 0.245027 1.000883 0.015117
v 0.251886 1.003283 0.017205
v 0.258778 0.843266 0.012432
v 0.260851 0.846380 0.017367
v 0.250149 0.852762 0.017904
v 0.254255 0.847263 0.017480
v 0.265761 0.853325 0.019113
v 0.258656 0.850975 0.020188
v 0.241360 1.000469 -0.000116
v 0.243564 1.007429 0.001526
v 0.243564 1.007429 0.001526
v 0.249254 1.010207 0.003337
v 0.246481 0.852349 0.002671
v 0.249698 0.845618 0.003267
v 0.249504 0.845600 0.003881
v 0.256772 0.843039 0.004098
v 0.245026 1.000882 0.015115
v 0.240784 1.000603 0.008082
v 0.245905 0.852483 0.010869
v 0.240784 1.000603 0.008082
v 0.241359 1.000469 -0.000115
v 0.246481 0.852349 0.002672
v 0.255830 0.852650 -0.004539
v 0.246737 1.000538 -0.006331
v 0.246737 1.000538 -0.006331
v 0.249173 0.852497 -0.000446
v 0.254707 1.000776 -0.008321
v 0.254246 1.007606 -0.005549
v 0.254173 1.007688 -0.005475
v 0.250981 1.010514 0.000947
v 0.259828 0.852656 -0.005534
v 0.259837 0.845920 -0.002506
v 0.260538 0.845886 -0.002425
v 0.259670 0.843423 0.003621
v 0.266622 1.001379 0.001839
v 0.271743 0.853259 0.004626
v 0.267394 0.852978 -0.002341
v 0.267394 0.852978 -0.002341
v 0.259828 0.852656 -0.005534
v 0.254707 1.000776 -0.008321
v 0.266622 1.001379 0.001839
v 0.263562 1.008077 0.002396
v 0.263465 1.008156 0.002351
v 0.256258 1.010704 0.001356
v 0.271744 0.853259 0.004630
v 0.269152 0.846392 0.005439
v 0.269092 0.846308 0.005522
v 0.263289 0.843369 0.009659
v 0.268404 0.853471 0.015956
v 0.265921 1.001509 0.010030
v 0.271042 0.853389 0.012817
v 0.271744 0.853259 0.004630
v 0.266623 1.001379 0.001843
v 0.260640 1.001445 0.016326
v 0.258884 1.008129 0.013721
v 0.259469 1.008201 0.013329
v 0.255801 1.010528 0.008378
v 0.265761 0.853325 0.019113
v 0.264475 0.846443 0.016763
v 0.264381 0.846356 0.016730
v 0.258778 0.843266 0.012432
v 0.253960 0.853037 0.019443
v 0.252641 1.001204 0.018193
v 0.252641 1.001204 0.018193
v 0.261748 0.853317 0.020047
v 0.245027 1.000882 0.015116
v 0.247230 1.007776 0.013211
v 0.246777 1.007775 0.012753
v 0.252987 1.010740 0.009281
v 0.250147 0.852762 0.017902
v 0.252269 0.846003 0.015817
v 0.251751 0.845916 0.015341
v 0.256137 0.843442 0.011097
v 0.255126 1.010675 0.001881
v 0.257498 1.010844 0.006508
v 0.232551 0.525203 0.114195
v 0.284206 0.683844 0.094382
v 0.238163 0.693829 0.135472
v 0.309060 0.327927 -0.029850
v 0.340767 0.444732 -0.031065
v 0.318678 0.497671 0.012400
v 0.295596 0.636455 0.073255
v 0.359486 0.763371 0.056459
v 0.337167 0.799521 0.082693
v 0.238163 0.693829 0.135472
v 0.299644 0.851768 0.121646
v 0.249779 0.864970 0.158023
v 0.243445 0.189461 0.062454
v 0.265832 -0.000688 -0.017354
v 0.283903 0.196685 -0.026449
v 0.401187 0.608414 -0.029764
v 0.318678 0.497671 0.012400
v 0.340767 0.444732 -0.031065
v 0.273257 0.518202 0.068071
v 0.232551 0.525203 0.114195
v 0.238386 0.319656 0.081275
v 0.273257 0.518202 0.068071
v 0.334127 0.608459 0.030473
v 0.295596 0.636455 0.073255
v 0.238386 0.319656 0.081275
v 0.283903 0.196685 -0.026449
v 0.309060 0.327927 -0.029850
v 0.232551 0.525203 0.114195
v 0.273257 0.518202 0.068071
v 0.284206 0.683844 0.094382
v 0.238386 0.319656 0.081275
v 0.318678 0.497671 0.012400
v 0.273257 0.518202 0.068071
v 0.295596 0.636455 0.073255
v 0.334127 0.608459 0.030473
v 0.359486 0.763371 0.056459
v 0.238163 0.693829 0.135472
v 0.284206 0.683844 0.094382
v 0.299644 0.851768 0.121646
v 0.243445 0.189461 0.062454
v 0.254725 -0.001654 0.035408
v 0.265832 -0.000688 -0.017354
v 0.401187 0.608414 -0.029764
v 0.385555 0.681469 0.010290
v 0.318678 0.497671 0.012400
v 0.273257 0.518202 0.068071
v 0.318678 0.497671 0.012400
v 0.334127 0.608459 0.030473
v 0.238386 0.319656 0.081275
v 0.243445 0.189461 0.062454
v 0.283903 0.196685 -0.026449
v 0.238386 0.319656 0.081275
v 0.309060 0.327927 -0.029850
v 0.318678 0.497671 0.012400
v 0.166408 0.490332 -0.063982
v 0.214465 0.515580 -0.024954
v 0.228845 0.404333 -0.009349
v 0.283388 0.668064 0.046450
v 0.239651 0.660354 -0.003105
v 0.244870 0.788240 0.004880
v 0.228845 0.404333 -0.009349
v 0.284329 0.276333 0.021684
v 0.194187 0.269412 -0.020943
v 0.228845 0.404333 -0.009349
v 0.194187 0.269412 -0.020943
v 0.180201 0.380217 -0.040321
v 0.284543 0.156498 0.016054
v 0.284773 -0.002100 0.009999
v 0.228905 -0.001615 0.008036
v 0.284078 0.397171 0.028283
v 0.284329 0.276333 0.021684
v 0.228845 0.404333 -0.009349
v 0.228845 0.404333 -0.009349
v 0.234310 0.532355 -0.007848
v 0.283755 0.532676 0.036788
v 0.283755 0.532676 0.036788
v 0.234310 0.532355 -0.007848
v 0.239651 0.660354 -0.003105
v 0.136873 0.728654 -0.130552
v 0.183666 0.757335 -0.074399
v 0.199394 0.633301 -0.046355
v 0.151955 0.606550 -0.093787
v 0.199394 0.633301 -0.046355
v 0.214465 0.515580 -0.024954
v 0.284329 0.276333 0.021684
v 0.284543 0.156498 0.016054
v 0.209015 0.152932 -0.005305
v 0.166408 0.490332 -0.063982
v 0.228845 0.404333 -0.009349
v 0.180201 0.380217 -0.040321
v 0.283388 0.668064 0.046450
v 0.244870 0.788240 0.004880
v 0.282978 0.803326 0.057272
v 0.284543 0.156498 0.016054
v 0.228905 -0.001615 0.008036
v 0.209015 0.152932 -0.005305
v 0.228845 0.404333 -0.009349
v 0.283755 0.532676 0.036788
v 0.284078 0.397171 0.028283
v 0.283755 0.532676 0.036788
v 0.239651 0.660354 -0.003105
v 0.283388 0.668064 0.046450
v 0.136873 0.728654 -0.130552
v 0.199394 0.633301 -0.046355
v 0.151955 0.606550 -0.093787
v 0.151955 0.606550 -0.093787
v 0.214465 0.515580 -0.024954
v 0.166408 0.490332 -0.063982
v 0.284329 0.276333 0.021684
v 0.209015 0.152932 -0.005305
v 0.194187 0.269412 -0.020943
v 0.272085 0.717700 0.031301
v 0.244731 1.086078 -0.017658
v 0.252933 1.089949 0.016209
v 0.263091 0.712242 -0.005835
v 0.275296 0.449910 0.035944
v 0.265813 0.444155 -0.003213
v 0.265813 0.444155 -0.003213
v 0.265995 0.180410 0.031298
v 0.256144 0.174432 -0.009377
v 0.248413 0.002003 0.025271
v 0.256144 0.174432 -0.009377
v 0.265995 0.180410 0.031298
v 0.284075 0.717700 0.010385
v 0.261756 1.089949 -0.000305
v 0.227889 1.086078 0.007897
v 0.246939 0.712242 0.019379
v 0.250816 0.444155 0.021836
v 0.289972 0.449910 0.012353
v 0.250816 0.444155 0.021836
v 0.240773 0.174432 0.015491
v 0.281449 0.180411 0.005640
v 0.268482 0.002003 -0.005428
v 0.281449 0.180411 0.005640
v 0.240773 0.174432 0.015491
v 0.250148 0.852762 0.017903
v 0.245026 1.000882 0.015115
v 0.266622 1.001379 0.001839
v 0.271744 0.853259 0.004628
v 0.265761 0.853325 0.019113
v 0.260640 1.001445 0.016326
v 0.259828 0.852656 -0.005534
v 0.254707 1.000776 -0.008321
v 0.257808 0.843088 0.004792
v 0.254749 0.843062 0.008996
v 0.254749 0.843062 0.008996
v 0.259385 0.843266 0.011341
v 0.246481 0.852349 0.002671
v 0.241360 1.000469 -0.000118
v 0.248958 1.010536 0.005845
v 0.244987 1.007518 0.009515
v 0.245026 1.000882 0.015115
v 0.241754 1.002771 0.008565
v 0.241359 1.000469 -0.000115
v 0.242875 1.006219 0.003337
v 0.254749 0.843062 0.008996
v 0.249377 0.845799 0.007582
v 0.246481 0.852349 0.002672
v 0.246669 0.850368 0.009967
v 0.250147 0.852762 0.017902
v 0.250245 0.847060 0.014061
v 0.250981 1.010514 0.000947
v 0.246390 1.007355 -0.001754
v 0.241360 1.000469 -0.000118
v 0.246489 1.002675 -0.005216
v 0.254707 1.000776 -0.008321
v 0.251658 1.006353 -0.005698
v 0.256772 0.843039 0.004098
v 0.256335 0.845871 -0.001393
v 0.259828 0.852656 -0.005534
v 0.253041 0.850342 -0.003139
v 0.246482 0.852349 0.002670
v 0.250399 0.846829 0.001461
v 0.256258 1.010704 0.001356
v 0.257533 1.007700 -0.003907
v 0.254707 1.000776 -0.008321
v 0.261047 1.003183 -0.004977
v 0.266622 1.001379 0.001839
v 0.262953 1.006848 -0.000138
v 0.262048 0.843230 0.004507
v 0.267010 0.846312 0.002451
v 0.271743 0.853259 0.004626
v 0.267461 0.850878 -0.001133
v 0.259828 0.852656 -0.005534
v 0.262420 0.847174 -0.002293
v 0.257498 1.010844 0.006508
v 0.263017 1.008076 0.006033
v 0.266623 1.001379 0.001843
v 0.265311 1.003592 0.008953
v 0.260640 1.001445 0.016326
v 0.261153 1.007021 0.012335
v 0.263289 0.843369 0.009659
v 0.266651 0.846513 0.013802
v 0.265761 0.853325 0.019113
v 0.270004 0.851236 0.013213
v 0.271744 0.853259 0.004630
v 0.269698 0.847619 0.007988
v 0.252987 1.010740 0.009281
v 0.255264 1.007964 0.014327
v 0.260640 1.001445 0.016326
v 0.253388 1.003338 0.017322
v 0.245027 1.000883 0.015117
v 0.248744 1.006632 0.014482
v 0.258778 0.843266 0.012432
v 0.255753 0.846196 0.016972
v 0.250149 0.852762 0.017904
v 0.257154 0.850921 0.020072
v 0.265761 0.853325 0.019113
v 0.262173 0.847549 0.018094
v 0.241360 1.000469 -0.000118
v 0.243812 1.007365 0.000865
v 0.243908 1.007451 0.000835
v 0.250981 1.010514 0.000947
v 0.246481 0.852349 0.002672
v 0.249402 0.845680 0.003908
v 0.249159 0.845624 0.004571
v 0.255025 0.843316 0.006478
v 0.245026 1.000882 0.015115
v 0.245905 0.852483 0.010869
v 0.250147 0.852762 0.017902
v 0.240784 1.000603 0.008082
v 0.246481 0.852349 0.002672
v 0.245905 0.852483 0.010869
v 0.259828 0.852656 -0.005534
v 0.250735 1.000544 -0.007326
v 0.244047 1.000390 -0.003215
v 0.246482 0.852349 0.002670
v 0.254707 1.000776 -0.008321
v 0.254944 1.007691 -0.005470
v 0.254944 1.007691 -0.005470
v 0.253900 1.010314 0.000481
v 0.259828 0.852656 -0.005534
v 0.259135 0.845835 -0.002534
v 0.259770 0.845836 -0.002430
v 0.256772 0.843039 0.004098
v 0.266622 1.001379 0.001839
v 0.267394 0.852978 -0.002341
v 0.262272 1.001098 -0.005128
v 0.267394 0.852978 -0.002341
v 0.258502 1.000824 -0.006718
v 0.266622 1.001379 0.001841
v 0.263700 1.008155 0.003088
v 0.263700 1.008155 0.003088
v 0.257615 1.010508 0.003986
v 0.271744 0.853259 0.004628
v 0.268964 0.846312 0.004759
v 0.268964 0.846312 0.004759
v 0.263283 0.843606 0.006702
v 0.265761 0.853325 0.019113
v 0.263278 1.001364 0.013187
v 0.271042 0.853389 0.012817
v 0.266275 1.001331 0.005948
v 0.260640 1.001445 0.016326
v 0.258269 1.008174 0.014066
v 0.258785 1.008207 0.013684
v 0.252987 1.010740 0.009281
v 0.265761 0.853325 0.019113
v 0.265063 0.846396 0.016373
v 0.265063 0.846396 0.016373
v 0.261571 0.843637 0.011518
v 0.250149 0.852762 0.017904
v 0.248829 1.000929 0.016654
v 0.256653 1.001211 0.017259
v 0.265761 0.853325 0.019113
v 0.245026 1.000882 0.015115
v 0.246679 1.007689 0.012774
v 0.246157 1.007722 0.012296
v 0.250366 1.010332 0.007956
v 0.250148 0.852762 0.017903
v 0.252824 0.845971 0.016256
v 0.252373 0.845923 0.015799
v 0.258778 0.843266 0.012432
v 0.253594 1.010741 0.008190
v 0.248958 1.010536 0.005845
v 0.250626 1.010553 0.003668
v 0.257498 1.010844 0.006508
v -0.260715 0.761141 -0.000000
v -0.278845 1.129238 -0.013958
v -0.296634 0.761141 -0.000000
v -0.270634 0.002370 0.008031
v -0.304160 0.378677 0.009067
v -0.301423 0.000318 0.008031
v -0.269780 0.384835 0.009067
v -0.296634 0.761141 -0.000000
v -0.304160 0.378677 0.009067
v -0.279230 0.761141 -0.018515
v -0.279230 0.761141 0.017403
v -0.266415 1.129238 -0.000386
v -0.288144 0.002370 -0.008596
v -0.288144 0.000318 0.022193
v -0.287834 0.378677 0.024930
v -0.287834 0.384835 -0.009450
v -0.287834 0.378677 0.024930
v -0.279230 0.761141 0.017403
v -0.263346 1.039538 0.000953
v -0.266356 0.906675 0.002646
v -0.270312 1.039420 -0.020685
v -0.273320 0.906557 -0.018993
v -0.258968 1.039269 -0.012394
v -0.261978 0.906406 -0.010702
v -0.284710 0.906920 -0.010770
v -0.281700 1.039783 -0.012462
v -0.273561 0.898081 -0.002893
v -0.273543 0.897996 -0.009562
v -0.277395 1.039855 0.000912
v -0.280405 0.906992 0.002603
v -0.270158 1.048305 -0.004806
v -0.272523 1.045771 -0.000469
v -0.263347 1.039538 0.000954
v -0.266691 1.044651 0.000135
v -0.277394 1.039855 0.000912
v -0.271007 1.041633 0.002329
v -0.273561 0.898081 -0.002893
v -0.271220 0.900726 0.001391
v -0.280404 0.906992 0.002605
v -0.277055 0.901860 0.001935
v -0.266356 0.906675 0.002646
v -0.272751 0.904934 0.004074
v -0.273994 1.048356 -0.007610
v -0.278859 1.045812 -0.008439
v -0.277396 1.039855 0.000911
v -0.277634 1.044864 -0.002676
v -0.281700 1.039783 -0.012462
v -0.281066 1.041754 -0.006008
v -0.277397 0.898133 -0.005696
v -0.280737 0.900896 -0.002226
v -0.284710 0.906920 -0.010770
v -0.283055 0.901874 -0.007638
v -0.280405 0.906992 0.002603
v -0.283747 0.905093 -0.002980
v -0.272515 1.048265 -0.012121
v -0.273239 1.045577 -0.016925
v -0.281700 1.039783 -0.012462
v -0.278344 1.044736 -0.013949
v -0.270314 1.039420 -0.020685
v -0.276249 1.041491 -0.018147
v -0.275918 0.898042 -0.010207
v -0.280241 0.900755 -0.012393
v -0.273323 0.906557 -0.018993
v -0.275807 0.901599 -0.016299
v -0.284710 0.906920 -0.010770
v -0.280440 0.904857 -0.015615
v -0.267763 1.048158 -0.012106
v -0.263428 1.045390 -0.014199
v -0.270310 1.039420 -0.020685
v -0.267840 1.044445 -0.018106
v -0.258968 1.039269 -0.012394
v -0.263212 1.041206 -0.017314
v -0.271166 0.897934 -0.010193
v -0.270415 0.900498 -0.015060
v -0.261978 0.906406 -0.010702
v -0.265326 0.901416 -0.012080
v -0.273320 0.906557 -0.018993
v -0.267399 0.904552 -0.016370
v -0.266308 1.048182 -0.007587
v -0.262987 1.045509 -0.004029
v -0.258968 1.039269 -0.012394
v -0.260640 1.044393 -0.009402
v -0.263345 1.039538 0.000953
v -0.259973 1.041294 -0.004659
v -0.269711 0.897959 -0.005673
v -0.264841 0.900481 -0.006542
v -0.266355 0.906675 0.002645
v -0.266098 0.901577 -0.000811
v -0.261978 0.906406 -0.010702
v -0.262647 0.904599 -0.004203
v -0.277394 1.039855 0.000912
v -0.275719 1.045878 -0.001271
v -0.275193 1.045924 -0.000917
v -0.272292 1.048081 -0.005586
v -0.280405 0.906992 0.002603
v -0.279004 0.900847 0.000576
v -0.279010 0.900771 0.000485
v -0.277397 0.898133 -0.005696
v -0.266356 0.906675 0.002646
v -0.266856 1.039529 0.002054
v -0.273386 0.906862 0.004848
v -0.273879 1.039688 0.002038
v -0.281700 1.039783 -0.012462
v -0.284689 0.907068 -0.007096
v -0.281663 1.039876 -0.005095
v -0.282542 0.907104 -0.000408
v -0.281700 1.039783 -0.012462
v -0.279258 1.045887 -0.011120
v -0.279032 1.045895 -0.011650
v -0.273994 1.048356 -0.007610
v -0.284710 0.906920 -0.010770
v -0.282370 0.900790 -0.009879
v -0.282152 0.900723 -0.010471
v -0.277183 0.898356 -0.008334
v -0.270314 1.039420 -0.020685
v -0.276810 0.906753 -0.017842
v -0.282517 0.906934 -0.013721
v -0.281700 1.039783 -0.012462
v -0.270312 1.039420 -0.020685
v -0.270813 1.045606 -0.018134
v -0.270237 1.045614 -0.018084
v -0.272515 1.048265 -0.012121
v -0.273322 0.906557 -0.018993
v -0.272835 0.900438 -0.016282
v -0.272835 0.900438 -0.016282
v -0.273338 0.898238 -0.010827
v -0.258968 1.039269 -0.012394
v -0.264151 0.906519 -0.013666
v -0.263328 1.039292 -0.018334
v -0.269819 0.906594 -0.017816
v -0.258968 1.039269 -0.012394
v -0.258968 1.039269 -0.012394
v -0.261527 1.045470 -0.012268
v -0.266508 1.047891 -0.010219
v -0.261978 0.906406 -0.010702
v -0.264428 0.900338 -0.009217
v -0.264651 0.900316 -0.009748
v -0.269711 0.897959 -0.005673
v -0.263345 1.039538 0.000953
v -0.264207 0.906690 -0.000339
v -0.259045 1.039364 -0.005027
v -0.262014 0.906555 -0.007011
v -0.263346 1.039538 0.000954
v -0.264234 1.045667 -0.001628
v -0.264729 1.045703 -0.001331
v -0.266308 1.048182 -0.007587
v -0.266356 0.906675 0.002646
v -0.268548 0.900561 0.000961
v -0.268548 0.900561 0.000961
v -0.271423 0.898285 -0.003666
v -0.272298 1.048274 -0.011023
v -0.267763 1.048158 -0.012106
v -0.302305 0.534247 0.118867
v -0.313208 0.712027 0.135878
v -0.357350 0.695180 0.067844
v -0.335737 0.321257 -0.058772
v -0.367389 0.492171 -0.028138
v -0.375031 0.431539 -0.080670
v -0.363997 0.642539 0.041145
v -0.419450 0.806689 0.022492
v -0.437857 0.759954 -0.015988
v -0.313208 0.712027 0.135878
v -0.331755 0.895777 0.150230
v -0.384808 0.873641 0.083136
v -0.301455 0.189992 0.063178
v -0.304136 0.194402 -0.038727
v -0.280955 -0.000687 -0.017270
v -0.452115 0.578570 -0.119418
v -0.375031 0.431539 -0.080670
v -0.367389 0.492171 -0.028138
v -0.334531 0.522851 0.050937
v -0.301636 0.321905 0.083720
v -0.302305 0.534247 0.118867
v -0.334531 0.522851 0.050937
v -0.363997 0.642539 0.041145
v -0.394986 0.603054 -0.022415
v -0.301636 0.321905 0.083720
v -0.335737 0.321257 -0.058772
v -0.304136 0.194402 -0.038727
v -0.302305 0.534247 0.118867
v -0.357350 0.695180 0.067844
v -0.334531 0.522851 0.050937
v -0.301636 0.321905 0.083720
v -0.334531 0.522851 0.050937
v -0.367389 0.492171 -0.028138
v -0.363997 0.642539 0.041145
v -0.437857 0.759954 -0.015988
v -0.394986 0.603054 -0.022415
v -0.313208 0.712027 0.135878
v -0.384808 0.873641 0.083136
v -0.357350 0.695180 0.067844
v -0.301455 0.189992 0.063178
v -0.280955 -0.000687 -0.017270
v -0.298807 -0.001652 0.033607
v -0.452115 0.578570 -0.119418
v -0.367389 0.492171 -0.028138
v -0.451272 0.662024 -0.074203
v -0.334531 0.522851 0.050937
v -0.394986 0.603054 -0.022415
v -0.367389 0.492171 -0.028138
v -0.301636 0.321905 0.083720
v -0.304136 0.194402 -0.038727
v -0.301455 0.189992 0.063178
v -0.301636 0.321905 0.083720
v -0.367389 0.492171 -0.028138
v -0.335737 0.321257 -0.058772
v -0.250917 0.505339 -0.084121
v -0.232637 0.405575 -0.018160
v -0.209791 0.517337 -0.032415
v -0.115545 0.641745 0.062409
v -0.092099 0.765151 0.019316
v -0.144192 0.648114 0.002684
v -0.232637 0.405575 -0.018160
v -0.293754 0.279419 -0.043344
v -0.219481 0.268986 0.022733
v -0.232637 0.405575 -0.018160
v -0.275542 0.392989 -0.062162
v -0.293754 0.279419 -0.043344
v -0.239569 0.152031 0.014559
v -0.310377 0.001583 -0.010881
v -0.257583 -0.004040 0.006622
v -0.193626 0.385751 0.032865
v -0.232637 0.405575 -0.018160
v -0.219481 0.268986 0.022733
v -0.232637 0.405575 -0.018160
v -0.158016 0.514929 0.046470
v -0.191092 0.528135 -0.009823
v -0.158016 0.514929 0.046470
v -0.144192 0.648114 0.002684
v -0.191092 0.528135 -0.009823
v -0.175662 0.745188 -0.143158
v -0.178460 0.634745 -0.051136
v -0.137596 0.757067 -0.074985
v -0.217937 0.622995 -0.110905
v -0.209791 0.517337 -0.032415
v -0.178460 0.634745 -0.051136
v -0.219481 0.268986 0.022733
v -0.305759 0.159846 -0.027049
v -0.239569 0.152031 0.014559
v -0.250917 0.505339 -0.084121
v -0.275542 0.392989 -0.062162
v -0.232637 0.405575 -0.018160
v -0.115545 0.641745 0.062409
v -0.066354 0.765794 0.080644
v -0.092099 0.765151 0.019316
v -0.239569 0.152031 0.014559
v -0.305759 0.159846 -0.027049
v -0.310377 0.001583 -0.010881
v -0.232637 0.405575 -0.018160
v -0.193626 0.385751 0.032865
v -0.158016 0.514929 0.046470
v -0.158016 0.514929 0.046470
v -0.115545 0.641745 0.062409
v -0.144192 0.648114 0.002684
v -0.175662 0.745188 -0.143158
v -0.217937 0.622995 -0.110905
v -0.178460 0.634745 -0.051136
v -0.217937 0.622995 -0.110905
v -0.250917 0.505339 -0.084121
v -0.209791 0.517337 -0.032415
v -0.219481 0.268986 0.022733
v -0.293754 0.279419 -0.043344
v -0.305759 0.159846 -0.027049
v -0.291507 0.261736 0.010237
v -0.287906 0.371828 0.014120
v -0.272888 0.370288 0.008352
v -0.243212 0.587122 0.038770
v -0.198135 0.687405 0.054690
v -0.183183 0.681458 0.042923
v -0.272329 0.480949 0.024158
v -0.243212 0.587122 0.038770
v -0.222793 0.580560 0.024716
v -0.287906 0.371828 0.014120
v -0.272329 0.480949 0.024158
v -0.253225 0.476146 0.013627
v -0.286076 0.517570 0.009254
v -0.289434 0.598445 -0.007961
v -0.296934 0.600267 0.001609
v -0.302970 0.749195 -0.071816
v -0.314335 0.818815 -0.112965
v -0.320943 0.825414 -0.101015
v -0.294930 0.675947 -0.035702
v -0.302970 0.749195 -0.071816
v -0.311900 0.755617 -0.055705
v -0.289434 0.598445 -0.007961
v -0.294930 0.675947 -0.035702
v -0.303700 0.679465 -0.021579
v -0.260715 0.761141 -0.000000
v -0.251650 1.129238 -0.013958
v -0.278845 1.129238 -0.013958
v -0.270634 0.002370 0.008031
v -0.269780 0.384835 0.009067
v -0.304160 0.378677 0.009067
v -0.269780 0.384835 0.009067
v -0.260715 0.761141 -0.000000
v -0.296634 0.761141 -0.000000
v -0.279230 0.761141 -0.018515
v -0.266415 1.129238 -0.000386
v -0.266415 1.129238 -0.027580
v -0.288144 0.002370 -0.008596
v -0.287834 0.378677 0.024930
v -0.287834 0.384835 -0.009450
v -0.287834 0.384835 -0.009450
v -0.279230 0.761141 0.017403
v -0.279230 0.761141 -0.018515
v -0.263345 1.039538 0.000953
v -0.266356 0.906675 0.002646
v -0.270314 1.039420 -0.020685
v -0.273322 0.906557 -0.018993
v -0.258968 1.039269 -0.012394
v -0.261978 0.906406 -0.010702
v -0.284717 0.906920 -0.010770
v -0.284710 0.906920 -0.010770
v -0.276572 0.898104 -0.006452
v -0.273561 0.898081 -0.002893
v -0.273561 0.898081 -0.002893
v -0.270531 0.897968 -0.006434
v -0.277394 1.039855 0.000912
v -0.280404 0.906992 0.002604
v -0.270158 1.048305 -0.004806
v -0.267937 1.045667 -0.000455
v -0.263347 1.039538 0.000954
v -0.269655 1.041602 0.002333
v -0.277394 1.039855 0.000912
v -0.273816 1.044813 0.000114
v -0.273561 0.898081 -0.002893
v -0.275806 0.900830 0.001377
v -0.280404 0.906992 0.002605
v -0.274103 0.904964 0.004070
v -0.266356 0.906675 0.002646
v -0.269930 0.901699 0.001956
v -0.273994 1.048356 -0.007610
v -0.277454 1.045836 -0.004073
v -0.277396 1.039855 0.000911
v -0.280652 1.041762 -0.004721
v -0.281700 1.039783 -0.012462
v -0.279817 1.044827 -0.009459
v -0.277397 0.898133 -0.005696
v -0.282143 0.900872 -0.006593
v -0.284710 0.906920 -0.010770
v -0.284162 0.905086 -0.004267
v -0.280405 0.906992 0.002603
v -0.280872 0.901911 -0.000855
v -0.272515 1.048265 -0.012121
v -0.276957 1.045696 -0.014239
v -0.281700 1.039783 -0.012462
v -0.277344 1.041526 -0.017356
v -0.270314 1.039420 -0.020685
v -0.272569 1.044552 -0.018120
v -0.275918 0.898042 -0.010207
v -0.276523 0.900637 -0.015078
v -0.273323 0.906557 -0.018993
v -0.279345 0.904822 -0.016406
v -0.284710 0.906920 -0.010770
v -0.281583 0.901783 -0.012128
v -0.267763 1.048158 -0.012106
v -0.267132 1.045439 -0.016906
v -0.270310 1.039420 -0.020685
v -0.264303 1.041221 -0.018111
v -0.258968 1.039269 -0.012394
v -0.262088 1.044369 -0.013900
v -0.271166 0.897934 -0.010193
v -0.266712 0.900449 -0.012353
v -0.261978 0.906406 -0.010702
v -0.266308 0.904538 -0.015573
v -0.273320 0.906557 -0.018993
v -0.271079 0.901492 -0.016285
v -0.266308 1.048182 -0.007587
v -0.261557 1.045421 -0.008388
v -0.258968 1.039269 -0.012394
v -0.259551 1.041268 -0.005943
v -0.263345 1.039538 0.000953
v -0.262859 1.044529 -0.002632
v -0.269711 0.897959 -0.005673
v -0.266270 0.900569 -0.002183
v -0.266355 0.906675 0.002645
v -0.263068 0.904626 -0.002918
v -0.261978 0.906406 -0.010702
v -0.263878 0.901440 -0.007581
v -0.277395 1.039855 0.000912
v -0.276214 1.045938 -0.001664
v -0.275721 1.045951 -0.001364
v -0.273994 1.048356 -0.007610
v -0.280404 0.906992 0.002604
v -0.278481 0.900786 0.000931
v -0.278481 0.900786 0.000931
v -0.275683 0.898382 -0.003679
v -0.269877 0.906871 0.003748
v -0.270376 1.039725 0.003156
v -0.276901 0.907029 0.003722
v -0.277394 1.039855 0.000912
v -0.281684 1.039727 -0.008769
v -0.284673 0.907013 -0.003403
v -0.279527 1.039764 -0.002084
v -0.280405 0.906992 0.002603
v -0.281700 1.039783 -0.012462
v -0.279085 1.045821 -0.011726
v -0.278865 1.045862 -0.012320
v -0.273791 1.048056 -0.010241
v -0.284710 0.906919 -0.010770
v -0.284710 0.906920 -0.010770
v -0.282321 0.900716 -0.009801
v -0.277397 0.898133 -0.005696
v -0.273821 1.039412 -0.019527
v -0.280318 0.906745 -0.016684
v -0.280318 0.906745 -0.016684
v -0.279501 1.039593 -0.015424
v -0.270310 1.039420 -0.020685
v -0.270181 1.045537 -0.018155
v -0.269547 1.045577 -0.018131
v -0.269947 1.047937 -0.012733
v -0.273323 0.906557 -0.018993
v -0.273467 0.900507 -0.016308
v -0.273526 0.900434 -0.016235
v -0.275918 0.898042 -0.010207
v -0.261156 1.039178 -0.015370
v -0.266338 0.906429 -0.016642
v -0.266830 1.039254 -0.019511
v -0.273320 0.906557 -0.018993
v -0.258968 1.039269 -0.012394
v -0.261313 1.045419 -0.011673
v -0.261362 1.045496 -0.011598
v -0.266308 1.048182 -0.007587
v -0.261978 0.906406 -0.010702
v -0.264598 0.900388 -0.009826
v -0.264815 0.900331 -0.010419
v -0.269899 0.898191 -0.008313
v -0.261192 1.039349 -0.002043
v -0.262055 0.906501 -0.003335
v -0.259009 1.039214 -0.008718
v -0.261978 0.906406 -0.010702
v -0.263347 1.039538 0.000954
v -0.264735 1.045629 -0.001238
v -0.265260 1.045700 -0.000888
v -0.268032 1.047985 -0.005573
v -0.266355 0.906675 0.002645
v -0.268020 0.900599 0.000609
v -0.268018 0.900523 0.000518
v -0.269711 0.897959 -0.005673
v -0.267128 1.048191 -0.008348
v -0.270158 1.048305 -0.004806
v -0.271700 1.048316 -0.006722
v -0.267763 1.048158 -0.012106
v -0.291507 0.261736 0.010237
v -0.272888 0.370288 0.008352
v -0.281002 0.261372 0.007122
v -0.243212 0.587122 0.038770
v -0.183183 0.681458 0.042923
v -0.222793 0.580560 0.024716
v -0.272329 0.480949 0.024158
v -0.222793 0.580560 0.024716
v -0.253225 0.476146 0.013627
v -0.287906 0.371828 0.014120
v -0.253225 0.476146 0.013627
v -0.272888 0.370288 0.008352
v -0.286076 0.517570 0.009254
v -0.296934 0.600267 0.001609
v -0.291593 0.517841 0.015503
v -0.302970 0.749195 -0.071816
v -0.320943 0.825414 -0.101015
v -0.311900 0.755617 -0.055705
v -0.294930 0.675947 -0.035702
v -0.311900 0.755617 -0.055705
v -0.303700 0.679465 -0.021579
v -0.289434 0.598445 -0.007961
v -0.303700 0.679465 -0.021579
v -0.296934 0.600267 0.001609
v -0.000674 0.349563 -0.401427
v -0.014079 -0.003438 -0.418242
v 0.017989 -0.006781 -0.418242
v -0.018419 0.822456 -0.386824
v -0.032893 0.349563 -0.401427
v -0.000674 0.349563 -0.401427
v -0.018419 0.822456 -0.386824
v -0.039126 1.070272 -0.391794
v -0.044260 0.822456 -0.386824
v -0.014935 0.349563 -0.416748
v -0.003686 -0.006781 -0.435411
v -0.003686 -0.003438 -0.403343
v -0.031860 0.822456 -0.399003
v -0.014935 0.349563 -0.416748
v -0.014935 0.349563 -0.384529
v -0.031860 0.822456 -0.399003
v -0.031860 0.822456 -0.373162
v -0.024869 1.070272 -0.378296
v -0.023197 0.990449 -0.380777
v -0.023990 0.865105 -0.379990
v -0.029531 0.990361 -0.401260
v -0.030321 0.865017 -0.400473
v -0.018922 0.990344 -0.393318
v -0.019714 0.865000 -0.392532
v -0.040363 0.990477 -0.393626
v -0.041156 0.865133 -0.392840
v -0.030591 0.856924 -0.385342
v -0.030501 0.856884 -0.391632
v -0.037240 0.865188 -0.380180
v -0.036449 0.990532 -0.380967
v -0.029695 0.998646 -0.386231
v -0.031932 0.996193 -0.382181
v -0.023198 0.990449 -0.380776
v -0.026423 0.995225 -0.381555
v -0.036448 0.990532 -0.380967
v -0.030468 0.992298 -0.379550
v -0.030591 0.856924 -0.385342
v -0.028470 0.859428 -0.381261
v -0.037240 0.865188 -0.380180
v -0.033996 0.860404 -0.380805
v -0.023990 0.865105 -0.379990
v -0.030009 0.863356 -0.378723
v -0.033283 0.998652 -0.388916
v -0.037822 0.996183 -0.389767
v -0.036450 0.990532 -0.380968
v -0.036713 0.995272 -0.384324
v -0.040363 0.990477 -0.393626
v -0.039865 0.992308 -0.387521
v -0.034178 0.856930 -0.388027
v -0.037408 0.859463 -0.384775
v -0.041156 0.865133 -0.392840
v -0.039551 0.860382 -0.389898
v -0.037242 0.865188 -0.380181
v -0.040304 0.863379 -0.385494
v -0.031838 0.998616 -0.393155
v -0.032427 0.996099 -0.397709
v -0.040363 0.990477 -0.393626
v -0.037260 0.995209 -0.394963
v -0.029532 0.990361 -0.401260
v -0.035188 0.992207 -0.398918
v -0.032733 0.856894 -0.392266
v -0.036828 0.859399 -0.394358
v -0.030325 0.865017 -0.400473
v -0.032619 0.860287 -0.397989
v -0.041156 0.865133 -0.392840
v -0.037046 0.863283 -0.397375
v -0.027355 0.998588 -0.393091
v -0.023203 0.996057 -0.395033
v -0.029529 0.990361 -0.401260
v -0.027306 0.995122 -0.398771
v -0.018922 0.990344 -0.393318
v -0.022900 0.992135 -0.397992
v -0.028251 0.856866 -0.392201
v -0.027531 0.859325 -0.396768
v -0.019714 0.865000 -0.392532
v -0.022778 0.860251 -0.393897
v -0.030321 0.865017 -0.400473
v -0.024735 0.863202 -0.397947
v -0.026032 0.998607 -0.388812
v -0.022898 0.996116 -0.385437
v -0.018922 0.990344 -0.393318
v -0.020609 0.995132 -0.390485
v -0.023196 0.990449 -0.380777
v -0.019983 0.992191 -0.386023
v -0.026928 0.856884 -0.387923
v -0.022366 0.859343 -0.388674
v -0.023989 0.865105 -0.379991
v -0.023630 0.860323 -0.383277
v -0.019714 0.865000 -0.392532
v -0.020387 0.863247 -0.386420
v -0.036448 0.990532 -0.380967
v -0.034938 0.996250 -0.382972
v -0.034447 0.996300 -0.382633
v -0.031695 0.998407 -0.386991
v -0.037242 0.865188 -0.380181
v -0.035803 0.859427 -0.382114
v -0.035806 0.859356 -0.382200
v -0.034178 0.856930 -0.388027
v -0.026534 0.990381 -0.379773
v -0.030645 0.865160 -0.377989
v -0.033159 0.990422 -0.379873
v -0.037240 0.865188 -0.380180
v -0.040363 0.990477 -0.393626
v -0.041178 0.865251 -0.389374
v -0.040410 0.990521 -0.386678
v -0.039226 0.865279 -0.383043
v -0.040363 0.990477 -0.393626
v -0.037999 0.996207 -0.392869
v -0.037952 0.996278 -0.392796
v -0.033283 0.998652 -0.388916
v -0.041156 0.865133 -0.392840
v -0.038864 0.859384 -0.392010
v -0.038651 0.859328 -0.392567
v -0.033951 0.857159 -0.390511
v -0.029532 0.990361 -0.401260
v -0.033628 0.865140 -0.399425
v -0.039056 0.865199 -0.395599
v -0.040363 0.990477 -0.393626
v -0.029531 0.990361 -0.401260
v -0.030127 0.996171 -0.398823
v -0.030127 0.996171 -0.398823
v -0.029774 0.998352 -0.393712
v -0.030323 0.865017 -0.400473
v -0.029798 0.859238 -0.397947
v -0.030342 0.859223 -0.397908
v -0.028251 0.856866 -0.392201
v -0.021742 0.865091 -0.395363
v -0.022969 0.990334 -0.398967
v -0.022969 0.990334 -0.398967
v -0.027033 0.865099 -0.399325
v -0.018922 0.990344 -0.393318
v -0.021235 0.996103 -0.392628
v -0.021432 0.996151 -0.393191
v -0.026188 0.998345 -0.391299
v -0.019714 0.865000 -0.392532
v -0.022100 0.859279 -0.391769
v -0.022149 0.859210 -0.391697
v -0.026928 0.856884 -0.387923
v -0.021922 0.865171 -0.382795
v -0.019075 0.990388 -0.386371
v -0.019075 0.990388 -0.386371
v -0.019790 0.865118 -0.389051
v -0.023196 0.990449 -0.380777
v -0.024578 0.996185 -0.382823
v -0.024572 0.996255 -0.382911
v -0.026032 0.998607 -0.388812
v -0.023990 0.865105 -0.379990
v -0.025443 0.859362 -0.381965
v -0.025944 0.859316 -0.381639
v -0.028570 0.857154 -0.386047
v -0.031645 0.998621 -0.392117
v -0.027355 0.998588 -0.393091
v -0.132502 0.497942 -0.439973
v -0.149459 0.639003 -0.467274
v -0.086897 0.654877 -0.470241
v 0.031724 0.333195 -0.430923
v -0.008040 0.499509 -0.442605
v 0.042308 0.456310 -0.440378
v -0.101001 0.616176 -0.483917
v -0.141600 0.765659 -0.542594
v -0.097114 0.748496 -0.524518
v -0.149459 0.639003 -0.467274
v -0.196242 0.769660 -0.474033
v -0.146460 0.799985 -0.498207
v -0.072279 0.188031 -0.394951
v 0.019841 0.198075 -0.421704
v 0.005085 -0.000885 -0.412423
v 0.035977 0.632772 -0.470415
v 0.042308 0.456310 -0.440378
v -0.008040 0.499509 -0.442605
v -0.071051 0.504498 -0.438553
v -0.092474 0.313561 -0.409933
v -0.132502 0.497942 -0.439973
v -0.071051 0.504498 -0.438553
v -0.101001 0.616176 -0.483917
v -0.039218 0.606821 -0.471421
v -0.092474 0.313561 -0.409933
v 0.031724 0.333195 -0.430923
v 0.019841 0.198075 -0.421704
v -0.132502 0.497942 -0.439973
v -0.086897 0.654877 -0.470241
v -0.071051 0.504498 -0.438553
v -0.092474 0.313561 -0.409933
v -0.071051 0.504498 -0.438553
v -0.008040 0.499509 -0.442605
v -0.101001 0.616176 -0.483917
v -0.097114 0.748496 -0.524518
v -0.039218 0.606821 -0.471421
v -0.149459 0.639003 -0.467274
v -0.146460 0.799985 -0.498207
v -0.086897 0.654877 -0.470241
v -0.072279 0.188031 -0.394951
v 0.005085 -0.000885 -0.412423
v -0.042856 -0.001456 -0.387776
v 0.035977 0.632772 -0.470415
v -0.008040 0.499509 -0.442605
v -0.026218 0.691689 -0.493591
v -0.071051 0.504498 -0.438553
v -0.039218 0.606821 -0.471421
v -0.008040 0.499509 -0.442605
v -0.092474 0.313561 -0.409933
v 0.019841 0.198075 -0.421704
v -0.072279 0.188031 -0.394951
v -0.092474 0.313561 -0.409933
v -0.008040 0.499509 -0.442605
v 0.031724 0.333195 -0.430923
v -0.014233 0.261728 -0.402541
v -0.013235 0.371441 -0.400133
v -0.005860 0.370952 -0.414505
v 0.003398 0.590781 -0.396788
v 0.019606 0.699449 -0.402504
v 0.024071 0.697272 -0.421810
v -0.007461 0.481224 -0.397445
v 0.003398 0.590781 -0.396788
v 0.010208 0.588136 -0.421367
v -0.013235 0.371441 -0.400133
v -0.007461 0.481224 -0.397445
v 0.000219 0.478953 -0.418296
v -0.060657 0.503407 -0.370683
v -0.011184 0.515662 -0.338508
v -0.008782 0.404561 -0.362082
v 0.089201 0.631422 -0.263758
v 0.035278 0.640378 -0.274840
v 0.074919 0.745807 -0.212402
v -0.008782 0.404561 -0.362082
v 0.031225 0.273711 -0.389401
v -0.062521 0.274082 -0.388293
v -0.008782 0.404561 -0.362082
v -0.062521 0.274082 -0.388293
v -0.062958 0.388543 -0.378819
v 0.012547 0.155558 -0.409193
v -0.002982 -0.002706 -0.407352
v -0.032310 -0.000607 -0.394496
v 0.046561 0.389883 -0.353701
v 0.031225 0.273711 -0.389401
v -0.008782 0.404561 -0.362082
v -0.008782 0.404561 -0.362082
v 0.005283 0.525843 -0.323070
v 0.061223 0.514599 -0.313943
v 0.061223 0.514599 -0.313943
v 0.005283 0.525843 -0.323070
v 0.035278 0.640378 -0.274840
v -0.052624 0.754000 -0.354191
v -0.036809 0.754729 -0.290592
v -0.019571 0.632609 -0.313239
v -0.056854 0.625449 -0.362720
v -0.019571 0.632609 -0.313239
v -0.011184 0.515662 -0.338508
v 0.031225 0.273711 -0.389401
v 0.012547 0.155558 -0.409193
v -0.054235 0.155032 -0.394469
v -0.060657 0.503407 -0.370683
v -0.008782 0.404561 -0.362082
v -0.062958 0.388543 -0.378819
v 0.089201 0.631422 -0.263758
v 0.074919 0.745807 -0.212402
v 0.125895 0.738384 -0.195531
v 0.012547 0.155558 -0.409193
v -0.032310 -0.000607 -0.394496
v -0.054235 0.155032 -0.394469
v -0.008782 0.404561 -0.362082
v 0.061223 0.514599 -0.313943
v 0.046561 0.389883 -0.353701
v 0.061223 0.514599 -0.313943
v 0.035278 0.640378 -0.274840
v 0.089201 0.631422 -0.263758
v -0.052624 0.754000 -0.354191
v -0.019571 0.632609 -0.313239
v -0.056854 0.625449 -0.362720
v -0.056854 0.625449 -0.362720
v -0.011184 0.515662 -0.338508
v -0.060657 0.503407 -0.370683
v 0.031225 0.273711 -0.389401
v -0.054235 0.155032 -0.394469
v -0.062521 0.274082 -0.388293
v -0.011421 0.158643 -0.401040
v -0.013347 0.003019 -0.417346
v -0.014868 0.154044 -0.431428
v -0.054732 0.327767 -0.443126
v -0.063867 0.395283 -0.507767
v -0.086315 0.401533 -0.483659
v -0.086315 0.401533 -0.483659
v -0.097038 0.464957 -0.551292
v -0.121353 0.465922 -0.534961
v -0.121353 0.465922 -0.534961
v -0.147570 0.536576 -0.617111
v -0.166802 0.531300 -0.609008
v -0.031431 0.255420 -0.417642
v -0.039104 0.318203 -0.473230
v -0.054732 0.327767 -0.443126
v -0.011421 0.158643 -0.401040
v -0.024303 0.246017 -0.450464
v -0.031431 0.255420 -0.417642
v -0.000674 0.349563 -0.401427
v -0.032893 0.349563 -0.401427
v -0.014079 -0.003438 -0.418242
v -0.018419 0.822456 -0.386824
v -0.044260 0.822456 -0.386824
v -0.032893 0.349563 -0.401427
v -0.018419 0.822456 -0.386824
v -0.019717 1.071294 -0.391794
v -0.039126 1.070272 -0.391794
v -0.014935 0.349563 -0.416748
v -0.003686 -0.003438 -0.403343
v -0.014935 0.349563 -0.384529
v -0.031860 0.822456 -0.399003
v -0.014935 0.349563 -0.384529
v -0.031860 0.822456 -0.373162
v -0.031860 0.822456 -0.399003
v -0.024869 1.070272 -0.378296
v -0.024869 1.071294 -0.397706
v -0.023196 0.990449 -0.380777
v -0.023990 0.865105 -0.379990
v -0.029532 0.990361 -0.401260
v -0.030323 0.865017 -0.400473
v -0.018922 0.990344 -0.393318
v -0.019714 0.865000 -0.392532
v -0.040363 0.990477 -0.393626
v -0.041156 0.865133 -0.392840
v -0.033392 0.856920 -0.388731
v -0.030591 0.856924 -0.385342
v -0.030591 0.856924 -0.385342
v -0.027694 0.856885 -0.388649
v -0.037241 0.865188 -0.380181
v -0.036450 0.990532 -0.380968
v -0.029695 0.998646 -0.386231
v -0.027606 0.996166 -0.382119
v -0.023198 0.990449 -0.380776
v -0.029194 0.992290 -0.379532
v -0.036448 0.990532 -0.380967
v -0.033143 0.995267 -0.381652
v -0.030591 0.856924 -0.385342
v -0.032797 0.859455 -0.381323
v -0.037240 0.865188 -0.380180
v -0.031283 0.863364 -0.378741
v -0.023990 0.865105 -0.379990
v -0.027275 0.860362 -0.380709
v -0.033283 0.998652 -0.388916
v -0.036544 0.996201 -0.385633
v -0.036450 0.990532 -0.380968
v -0.039489 0.992313 -0.386303
v -0.040363 0.990477 -0.393626
v -0.038698 0.995245 -0.390745
v -0.034178 0.856930 -0.388027
v -0.038686 0.859445 -0.388909
v -0.041156 0.865133 -0.392840
v -0.040680 0.863373 -0.386712
v -0.037242 0.865188 -0.380181
v -0.037566 0.860409 -0.383478
v -0.031838 0.998616 -0.393155
v -0.035964 0.996137 -0.395216
v -0.040363 0.990477 -0.393626
v -0.036231 0.992218 -0.398184
v -0.029532 0.990361 -0.401260
v -0.031767 0.995150 -0.398835
v -0.032733 0.856894 -0.392266
v -0.033292 0.859361 -0.396851
v -0.030325 0.865017 -0.400473
v -0.036003 0.863272 -0.398109
v -0.041156 0.865133 -0.392840
v -0.038113 0.860346 -0.394117
v -0.027355 0.998588 -0.393091
v -0.026666 0.996063 -0.397626
v -0.029529 0.990361 -0.401260
v -0.023920 0.992136 -0.398756
v -0.018922 0.990344 -0.393318
v -0.021926 0.995114 -0.394743
v -0.028251 0.856866 -0.392201
v -0.024067 0.859319 -0.394175
v -0.019714 0.865000 -0.392532
v -0.023715 0.863200 -0.397183
v -0.030321 0.865017 -0.400473
v -0.028159 0.860259 -0.397925
v -0.026032 0.998607 -0.388812
v -0.021502 0.996081 -0.389532
v -0.018922 0.990344 -0.393318
v -0.019572 0.992181 -0.387229
v -0.023196 0.990449 -0.380777
v -0.022777 0.995186 -0.384124
v -0.026928 0.856884 -0.387923
v -0.023762 0.859378 -0.384579
v -0.023989 0.865105 -0.379991
v -0.020798 0.863257 -0.385214
v -0.019714 0.865000 -0.392532
v -0.021462 0.860269 -0.389638
v -0.036449 0.990532 -0.380967
v -0.035403 0.996301 -0.383347
v -0.034941 0.996320 -0.383060
v -0.033283 0.998652 -0.388916
v -0.037241 0.865188 -0.380181
v -0.035313 0.859375 -0.381773
v -0.035313 0.859375 -0.381773
v -0.032588 0.857179 -0.386105
v -0.023198 0.990449 -0.380776
v -0.027310 0.865229 -0.378992
v -0.029853 0.990504 -0.378775
v -0.033935 0.865270 -0.379083
v -0.040387 0.990403 -0.390144
v -0.041202 0.865177 -0.385891
v -0.038426 0.990431 -0.383816
v -0.037242 0.865188 -0.380181
v -0.040363 0.990477 -0.393626
v -0.037786 0.996253 -0.393426
v -0.037786 0.996253 -0.393426
v -0.033058 0.998388 -0.391398
v -0.041156 0.865133 -0.392840
v -0.039036 0.859338 -0.391439
v -0.038817 0.859314 -0.391937
v -0.034178 0.856930 -0.388027
v -0.032852 0.990292 -0.400205
v -0.036948 0.865072 -0.398370
v -0.036948 0.865072 -0.398370
v -0.038255 0.990350 -0.396397
v -0.029529 0.990361 -0.401260
v -0.029530 0.996116 -0.398836
v -0.029476 0.996187 -0.398768
v -0.027355 0.998588 -0.393091
v -0.030325 0.865017 -0.400473
v -0.030395 0.859293 -0.397978
v -0.030993 0.859246 -0.397964
v -0.030667 0.857125 -0.392826
v -0.019714 0.865000 -0.392532
v -0.020941 0.990243 -0.396136
v -0.026257 0.990251 -0.400116
v -0.030321 0.865017 -0.400473
v -0.018922 0.990344 -0.393318
v -0.021080 0.996156 -0.392053
v -0.021284 0.996174 -0.392557
v -0.026032 0.998607 -0.388812
v -0.019714 0.865000 -0.392532
v -0.022297 0.859226 -0.392331
v -0.022297 0.859226 -0.392331
v -0.027081 0.857117 -0.390413
v -0.023989 0.865105 -0.379991
v -0.021141 0.990323 -0.383567
v -0.018998 0.990270 -0.389852
v -0.019714 0.865000 -0.392532
v -0.023197 0.990449 -0.380777
v -0.025078 0.996242 -0.382498
v -0.025078 0.996242 -0.382498
v -0.027677 0.998382 -0.386933
v -0.023990 0.865105 -0.379990
v -0.024968 0.859306 -0.382326
v -0.025438 0.859291 -0.382051
v -0.026928 0.856884 -0.387923
v -0.026798 0.998607 -0.389539
v -0.029695 0.998646 -0.386231
v -0.031128 0.998644 -0.388055
v -0.027355 0.998588 -0.393091
v -0.014233 0.261728 -0.402541
v -0.005860 0.370952 -0.414505
v -0.008511 0.261377 -0.411886
v 0.003398 0.590781 -0.396788
v 0.024071 0.697272 -0.421810
v 0.010208 0.588136 -0.421367
v -0.007461 0.481224 -0.397445
v 0.010208 0.588136 -0.421367
v 0.000219 0.478953 -0.418296
v -0.013235 0.371441 -0.400133
v 0.000219 0.478953 -0.418296
v -0.005860 0.370952 -0.414505
v -0.011421 0.158643 -0.401040
v -0.003876 0.001444 -0.403153
v -0.013347 0.003019 -0.417346
v -0.054732 0.327767 -0.443126
v -0.039104 0.318203 -0.473230
v -0.063867 0.395283 -0.507767
v -0.086315 0.401533 -0.483659
v -0.063867 0.395283 -0.507767
v -0.097038 0.464957 -0.551292
v -0.121353 0.465922 -0.534961
v -0.097038 0.464957 -0.551292
v -0.147570 0.536576 -0.617111
v -0.031431 0.255420 -0.417642
v -0.024303 0.246017 -0.450464
v -0.039104 0.318203 -0.473230
v -0.011421 0.158643 -0.401040
v -0.014868 0.154044 -0.431428
v -0.024303 0.246017 -0.450464
vn -0.0002 -0.0395 0.9992
vn -0.0049 -0.0474 0.9989
vn -0.0000 -0.0057 1.0000
vn -0.0000 -0.0390 0.9992
vn -0.0001 -0.0394 0.9992
vn -0.0009 0.0200 0.9998
vn -0.0000 -0.0054 1.0000
vn -0.9994 -0.0338 0.0001
vn -0.9995 -0.0317 0.0033
vn -1.0000 -0.0042 -0.0000
vn -0.9994 -0.0339 -0.0000
vn -1.0000 -0.0037 -0.0000
vn -0.9996 0.0281 0.0013
vn 0.0538 0.2700 0.9614
vn -0.0502 0.3139 0.9481
vn -0.0814 0.3189 0.9443
vn 0.2465 0.1261 0.9609
vn 0.0947 0.1233 0.9878
vn 0.1063 0.1818 0.9776
vn -0.0208 0.2582 0.9659
vn -0.1107 0.2673 0.9572
vn -0.1330 0.2685 0.9541
vn -0.1555 0.3305 0.9309
vn -0.1796 0.3285 0.9272
vn 0.4030 0.1337 0.9054
vn 0.5253 0.1038 0.8446
vn 0.3590 0.0976 0.9282
vn 0.0021 0.1881 0.9822
vn 0.0947 0.1234 0.9878
vn 0.0702 0.2459 0.9667
vn 0.2482 0.1672 0.9542
vn 0.0702 0.2460 0.9667
vn 0.0111 0.2470 0.9689
vn 0.2482 0.1671 0.9542
vn 0.3589 0.0976 0.9282
vn 0.2466 0.1261 0.9609
vn 0.0703 0.2460 0.9667
vn -0.0501 0.3139 0.9481
vn 0.1063 0.1819 0.9776
vn 0.0703 0.2459 0.9667
vn 0.0112 0.2470 0.9689
vn -0.1106 0.2673 0.9572
vn 0.4031 0.1337 0.9054
vn 0.5736 0.1297 0.8088
vn 0.5253 0.1039 0.8445
vn 0.0020 0.1881 0.9822
vn -0.0199 0.1967 0.9803
vn 0.2483 0.1672 0.9542
vn 0.0040 0.3470 -0.9379
vn 0.0562 0.4168 -0.9073
vn -0.1312 0.1446 -0.9807
vn 0.2198 0.5436 -0.8101
vn 0.1449 0.1958 -0.9699
vn 0.1494 0.1812 -0.9720
vn -0.1313 0.1446 -0.9807
vn -0.3545 0.1162 -0.9278
vn -0.3327 0.0836 -0.9393
vn -0.1817 0.0798 -0.9801
vn -0.5538 0.1499 -0.8191
vn -0.7067 0.1647 -0.6880
vn -0.6689 0.1455 -0.7289
vn -0.0931 0.1745 -0.9802
vn -0.3545 0.1163 -0.9278
vn 0.1494 0.1811 -0.9720
vn 0.1449 0.1957 -0.9699
vn 0.0596 0.9514 -0.3021
vn 0.0933 0.8806 -0.4646
vn 0.0290 0.8499 -0.5261
vn -0.0316 0.6128 -0.7896
vn 0.0520 0.6443 -0.7630
vn 0.0562 0.4168 -0.9072
vn -0.3546 0.1163 -0.9278
vn -0.5537 0.1499 -0.8191
vn -0.5025 0.1207 -0.8561
vn 0.0039 0.3470 -0.9379
vn 0.2198 0.5435 -0.8101
vn 0.3023 0.6001 -0.7406
vn -0.6689 0.1455 -0.7290
vn 0.1448 0.1958 -0.9699
vn 0.2086 0.9131 -0.3503
vn 0.1889 0.8783 -0.4393
vn 0.1098 0.9854 -0.1297
vn 0.1408 0.6970 -0.7031
vn 0.0799 0.9530 -0.2923
vn 0.1451 0.8928 -0.4264
vn -0.8562 0.0091 -0.5165
vn -0.8924 0.0278 -0.4504
vn -0.8880 0.0258 -0.4592
vn -0.9555 0.1092 -0.2739
vn -0.9625 0.1311 -0.2374
vn -0.9613 0.1295 -0.2430
vn -0.9359 0.0687 -0.3456
vn -0.9537 0.1064 -0.2812
vn -0.8924 0.0278 -0.4503
vn -0.9358 0.0687 -0.3457
vn -0.9321 0.0653 -0.3564
vn 0.2087 0.9131 -0.3504
vn 0.2233 0.9211 -0.3189
vn 0.2198 0.5436 -0.8100
vn 0.1349 0.5263 -0.8395
vn 0.1889 0.8782 -0.4394
vn 0.0290 0.8499 -0.5262
vn 0.0933 0.8805 -0.4647
vn 0.1889 0.8782 -0.4393
vn 0.2087 0.9131 -0.3503
vn 0.3023 0.6002 -0.7406
vn 0.0004 0.2302 0.9731
vn -0.0019 0.3983 0.9172
vn -0.0011 0.2258 0.9742
vn 0.0012 0.1130 0.9936
vn 0.0035 0.0542 0.9985
vn 0.0018 0.1194 0.9928
vn 0.0028 0.9158 0.4017
vn -0.0004 0.6894 0.7244
vn 0.0012 0.6920 0.7218
vn 0.0051 0.9768 -0.2142
vn -0.0002 0.9533 -0.3019
vn 0.0008 0.9831 -0.1828
vn -0.0011 0.2257 0.9742
vn 0.0010 0.4050 0.9143
vn -0.0005 0.6894 0.7244
vn -0.0019 0.3984 0.9172
vn 0.0008 0.9832 -0.1828
vn 0.0031 0.9988 0.0480
vn 0.0028 0.9158 0.4016
vn 0.0035 0.9949 0.1011
vn 0.0019 0.9113 0.4118
vn 0.8748 0.3632 -0.3207
vn 0.9031 0.2736 -0.3310
vn 0.9027 0.2743 -0.3315
vn 0.9365 0.0589 -0.3457
vn 0.9298 0.1367 -0.3416
vn 0.9305 0.1334 -0.3411
vn 0.7719 0.5690 -0.2834
vn 0.8386 0.4496 -0.3075
vn 0.8400 0.4474 -0.3071
vn 0.5988 0.7696 -0.2216
vn 0.5690 0.7957 -0.2076
vn 0.6099 0.7604 -0.2232
vn 0.9305 0.1335 -0.3411
vn 0.8400 0.4473 -0.3072
vn 0.8742 0.3639 -0.3215
vn 0.8748 0.3633 -0.3207
vn 0.6788 0.6902 -0.2506
vn 0.7719 0.5691 -0.2834
vn 0.6931 0.6743 -0.2546
vn 0.7749 0.5647 -0.2838
vn -0.8957 0.1057 0.4320
vn -0.8346 0.3604 0.4166
vn -0.8973 0.1008 0.4298
vn -0.8988 0.0331 0.4372
vn -0.8990 0.0160 0.4377
vn -0.8987 0.0349 0.4372
vn 0.8999 -0.0794 -0.4288
vn 0.8724 -0.2426 -0.4243
vn 0.8989 -0.0185 -0.4377
vn 0.1386 0.9887 -0.0577
vn 0.4379 0.8728 -0.2155
vn 0.1217 0.9910 -0.0552
vn 0.4518 0.8658 -0.2149
vn 0.6794 0.6614 -0.3179
vn 0.4380 0.8728 -0.2156
vn 0.1217 0.9910 -0.0551
vn -0.2743 0.9503 0.1471
vn -0.2935 0.9446 0.1467
vn -0.6217 0.7181 0.3127
vn -0.2744 0.9503 0.1471
vn -0.8251 0.3779 0.4200
vn -0.6362 0.7072 0.3084
vn -0.8346 0.3605 0.4166
vn 0.7202 0.6066 -0.3367
vn 0.8443 0.3400 -0.4143
vn 0.6794 0.6613 -0.3179
vn 0.8989 -0.0184 -0.4377
vn 0.8648 0.2840 -0.4141
vn 0.0454 0.9085 0.4153
vn -0.1622 0.9867 0.0111
vn -0.1587 0.9652 0.2079
vn 0.5440 0.6641 0.5129
vn 0.5354 0.6813 0.4991
vn 0.3894 0.7585 0.5226
vn 0.3459 0.7818 0.5189
vn 0.3894 0.7585 0.5225
vn 0.3458 0.7818 0.5189
vn 0.0455 0.9085 0.4153
vn -0.0077 0.9030 0.4296
vn 0.0455 0.9085 0.4154
vn -0.0078 0.9030 0.4296
vn -0.1899 0.9810 -0.0385
vn -0.1899 0.9811 -0.0385
vn -0.1514 0.9721 0.1792
vn -0.0530 0.8921 -0.4486
vn -0.1024 0.9126 -0.3959
vn -0.1622 0.9867 0.0110
vn -0.1899 0.9810 -0.0386
vn -0.0001 -0.0395 0.9992
vn -0.0046 -0.0474 0.9989
vn -0.0000 -0.0058 1.0000
vn -0.0010 0.0200 0.9998
vn -0.9994 -0.0337 0.0001
vn -0.9995 -0.0317 0.0031
vn -1.0000 -0.0038 -0.0000
vn -0.9996 0.0281 0.0015
vn 0.1349 0.5262 -0.8396
vn -0.0316 0.6127 -0.7896
vn 0.0040 0.3470 -0.9378
vn 0.0597 0.9514 -0.3021
vn -0.8879 0.0258 -0.4592
vn -0.8527 0.0081 -0.5224
vn -0.9555 0.1093 -0.2739
vn -0.9537 0.1065 -0.2812
vn -0.9321 0.0653 -0.3563
vn -0.9321 0.0652 -0.3564
vn 0.3022 0.6002 -0.7406
vn 0.0933 0.8806 -0.4647
vn 0.2232 0.9211 -0.3189
vn 0.1098 0.9854 -0.1298
vn 0.1097 0.9851 -0.1323
vn 0.0010 0.4049 0.9144
vn 0.0027 0.0539 0.9985
vn 0.0036 0.0542 0.9985
vn 0.0019 0.9112 0.4119
vn 0.0051 0.9768 -0.2143
vn 0.0066 0.9520 -0.3060
vn -0.0001 0.9533 -0.3020
vn 0.0012 0.6920 0.7219
vn 0.0035 0.9949 0.1010
vn 0.0031 0.9988 0.0481
vn 0.9366 0.0590 -0.3455
vn 0.9368 0.0593 -0.3449
vn 0.5662 0.7972 -0.2095
vn 0.9027 0.2742 -0.3315
vn 0.8387 0.4496 -0.3075
vn 0.6931 0.6744 -0.2546
vn 0.6788 0.6903 -0.2506
vn 0.6788 0.6902 -0.2507
vn -0.8992 0.0159 0.4373
vn 0.8766 -0.2509 -0.4106
vn -0.8987 0.0350 0.4372
vn -0.8957 0.1056 0.4320
vn 0.4517 0.8659 -0.2149
vn 0.7202 0.6066 -0.3366
vn 0.6793 0.6614 -0.3179
vn -0.6361 0.7073 0.3084
vn -0.8251 0.3780 0.4200
vn -0.6218 0.7180 0.3127
vn -0.6362 0.7072 0.3085
vn 0.8648 0.2840 -0.4140
vn 0.8443 0.3399 -0.4143
vn 0.9708 0.0249 -0.2387
vn 0.9709 0.0226 -0.2385
vn 0.9700 0.0402 -0.2396
vn 0.9722 -0.0093 -0.2341
vn 0.9723 -0.0128 -0.2336
vn 0.9722 -0.0555 -0.2273
vn 0.9689 -0.0898 -0.2306
vn 0.9685 -0.0901 -0.2320
vn 0.9719 -0.0625 -0.2270
vn 0.2314 0.0280 0.9724
vn 0.2306 0.0417 0.9722
vn 0.2317 0.0259 0.9724
vn 0.2364 -0.0077 0.9716
vn 0.2315 0.0279 0.9724
vn 0.2370 -0.0118 0.9714
vn 0.2423 -0.0521 0.9688
vn 0.2380 -0.0792 0.9680
vn 0.2423 -0.0576 0.9685
vn 0.2368 -0.0794 0.9683
vn -0.7430 0.1712 0.6470
vn -0.9664 0.1158 0.2295
vn -0.9564 -0.1736 0.2350
vn -0.9664 0.1158 0.2294
vn -0.9591 0.1460 -0.2424
vn -0.9465 -0.2206 -0.2355
vn 0.9058 0.2093 -0.3684
vn 0.9177 -0.1581 -0.3645
vn 0.6468 -0.1367 -0.7503
vn 0.6467 -0.1367 -0.7504
vn 0.9984 0.0452 -0.0338
vn 0.9530 -0.0999 0.2859
vn 0.9189 -0.1060 0.3801
vn 0.9848 -0.1511 -0.0857
vn 0.9729 0.2135 -0.0893
vn 0.7250 -0.1204 0.6781
vn 0.6513 -0.1489 0.7440
vn 0.6308 -0.1488 0.7616
vn 0.8302 -0.1662 0.5322
vn 0.7375 -0.2172 0.6394
vn 0.7364 -0.1963 0.6475
vn 0.6545 -0.1986 0.7295
vn 0.6047 -0.2025 0.7703
vn 0.5960 -0.1970 0.7785
vn 0.6307 -0.1488 0.7616
vn 0.5736 -0.1528 0.8048
vn 0.5576 -0.1455 0.8172
vn 0.9181 -0.0358 0.3948
vn 0.9637 0.0014 0.2671
vn 0.8935 -0.0762 0.4425
vn 0.6790 -0.2420 0.6931
vn 0.7327 -0.1333 0.6673
vn 0.8382 -0.1209 0.5318
vn 0.6761 -0.1943 0.7107
vn 0.8302 -0.1662 0.5321
vn 0.7251 -0.1204 0.6781
vn 0.6514 -0.1489 0.7440
vn 0.8382 -0.1208 0.5318
vn 0.7364 -0.1962 0.6475
vn 0.7328 -0.1332 0.6673
vn 0.9780 0.0285 0.2064
vn 0.9637 0.0014 0.2670
vn 0.6758 -0.2379 0.6976
vn 0.8382 -0.1209 0.5317
vn 0.6377 -0.0765 -0.7665
vn 0.6621 -0.0584 -0.7472
vn 0.5676 -0.0218 -0.8230
vn 0.7559 0.0343 -0.6538
vn 0.7357 0.0246 -0.6769
vn 0.7872 0.0394 -0.6154
vn 0.5675 -0.0218 -0.8231
vn 0.4249 -0.0165 -0.9051
vn 0.4496 -0.0541 -0.8916
vn 0.5653 -0.0867 -0.8203
vn 0.2470 0.0098 -0.9690
vn 0.0354 0.0382 -0.9986
vn 0.1031 0.0141 -0.9946
vn 0.5667 0.0493 -0.8224
vn 0.6701 -0.0105 -0.7422
vn 0.6678 0.0087 -0.7443
vn 0.7644 -0.0652 -0.6414
vn 0.7782 -0.0430 -0.6265
vn 0.7350 -0.0641 -0.6750
vn 0.7158 -0.0831 -0.6933
vn 0.7350 -0.0641 -0.6751
vn 0.6621 -0.0584 -0.7471
vn 0.2471 0.0098 -0.9690
vn 0.3106 -0.0240 -0.9502
vn 0.6377 -0.0766 -0.7665
vn 0.8008 0.0502 -0.5969
vn 0.1032 0.0141 -0.9946
vn 0.5667 0.0494 -0.8224
vn 0.6678 0.0088 -0.7443
vn 0.7350 -0.0642 -0.6750
vn 0.7158 -0.0832 -0.6933
vn 0.6377 -0.0766 -0.7664
vn 0.3107 -0.0240 -0.9502
vn 0.9701 0.0402 -0.2395
vn 0.2314 0.0279 0.9724
vn 0.2307 0.0417 0.9721
vn -0.7294 -0.1989 0.6545
vn -0.9564 -0.1736 0.2349
vn 0.9058 0.2094 -0.3684
vn 0.6368 0.1527 -0.7558
vn -0.0000 0.0311 0.9995
vn -0.0000 0.0379 0.9993
vn -0.0001 0.0308 0.9995
vn 0.0002 -0.0027 1.0000
vn -0.0016 0.0090 1.0000
vn -0.0020 0.0122 0.9999
vn -0.9996 0.0289 -0.0000
vn -0.9996 0.0287 0.0001
vn -0.9994 0.0348 -0.0000
vn -1.0000 0.0008 0.0001
vn -0.9999 0.0104 0.0019
vn -0.9999 0.0130 0.0022
vn -0.8801 -0.1165 0.4604
vn -0.8064 -0.1364 0.5754
vn -0.8248 -0.1418 0.5474
vn -0.9445 -0.2128 0.2501
vn -0.8781 -0.2238 0.4229
vn -0.8662 -0.2603 0.4265
vn -0.8171 -0.2054 0.5387
vn -0.7734 -0.1926 0.6039
vn -0.7809 -0.2039 0.5905
vn -0.8065 -0.1364 0.5754
vn -0.7574 -0.1265 0.6406
vn -0.7705 -0.1383 0.6222
vn -0.9990 -0.0447 -0.0052
vn -0.9901 -0.1126 0.0843
vn -0.9736 -0.0083 -0.2283
vn -0.8206 -0.2757 0.5007
vn -0.8662 -0.2604 0.4266
vn -0.8781 -0.2239 0.4229
vn -0.8857 -0.1353 0.4442
vn -0.9604 -0.1396 0.2411
vn -0.8856 -0.1353 0.4442
vn -0.8342 -0.2115 0.5092
vn -0.9446 -0.2128 0.2501
vn -0.9901 -0.1126 0.0844
vn -0.8248 -0.1418 0.5473
vn -0.9604 -0.1395 0.2411
vn -0.8171 -0.2054 0.5386
vn -0.7809 -0.2039 0.5904
vn -0.8065 -0.1364 0.5753
vn -0.7706 -0.1383 0.6222
vn -0.9735 -0.0083 -0.2284
vn -0.9431 0.0379 -0.3302
vn -0.8205 -0.2756 0.5007
vn -0.8191 -0.2668 0.5078
vn -0.8343 -0.2115 0.5092
vn -0.9604 -0.1395 0.2410
vn -0.9901 -0.1125 0.0843
vn -0.9990 -0.0447 -0.0051
vn -0.8781 -0.2238 0.4228
vn -0.7717 0.2895 0.5662
vn -0.7451 0.1983 0.6368
vn -0.7894 0.2860 0.5432
vn -0.8605 0.2757 0.4283
vn -0.8717 0.3007 0.3868
vn -0.8476 0.2736 0.4548
vn -0.6559 0.1732 0.7347
vn -0.6453 0.1343 0.7520
vn -0.7280 0.2494 0.6386
vn -0.6559 0.1733 0.7347
vn -0.5052 0.0538 0.8613
vn -0.3767 0.0207 0.9261
vn -0.3158 -0.0118 0.9487
vn -0.7633 0.1280 0.6333
vn -0.6454 0.1343 0.7520
vn -0.8119 0.2319 0.5358
vn -0.8085 0.2486 0.5334
vn -0.8475 0.2736 0.4548
vn -0.8277 0.3714 0.4206
vn -0.8187 0.3456 0.4585
vn -0.8399 0.3598 0.4063
vn -0.8053 0.3501 0.4785
vn -0.8187 0.3456 0.4586
vn -0.6453 0.1342 0.7520
vn -0.5540 0.0964 0.8269
vn -0.5052 0.0539 0.8613
vn -0.7717 0.2895 0.5663
vn -0.8819 0.2957 0.3671
vn -0.3768 0.0207 0.9261
vn -0.8119 0.2318 0.5358
vn -0.8187 0.3457 0.4585
vn -0.2898 0.0331 -0.9565
vn -0.3574 0.0808 -0.9304
vn -0.3483 0.0776 -0.9341
vn -0.4789 0.2924 -0.8278
vn -0.4907 0.3474 -0.7991
vn -0.4867 0.3450 -0.8026
vn -0.4437 0.1864 -0.8766
vn -0.4742 0.2866 -0.8325
vn -0.3575 0.0808 -0.9304
vn -0.4350 0.1792 -0.8824
vn 0.7480 0.1578 0.6446
vn 0.7940 0.1973 0.5751
vn 0.7880 0.1970 0.5833
vn 0.8793 0.3115 0.3603
vn 0.8915 0.3294 0.3110
vn 0.8889 0.3309 0.3166
vn 0.8507 0.2623 0.4555
vn 0.8761 0.3109 0.3685
vn 0.7940 0.1973 0.5750
vn 0.8507 0.2623 0.4556
vn 0.8451 0.2605 0.4668
vn -0.0020 0.0121 0.9999
vn -0.3483 0.0776 -0.9342
vn -0.2831 0.0319 -0.9586
vn -0.4788 0.2924 -0.8278
vn -0.4866 0.3450 -0.8026
vn -0.4742 0.2867 -0.8325
vn -0.4350 0.1791 -0.8825
vn 0.7480 0.1578 0.6447
vn 0.7436 0.1577 0.6497
vn 0.8889 0.3309 0.3167
vn 0.8451 0.2605 0.4669
vn 0.7880 0.1970 0.5832
vn 0.0362 -0.1765 -0.9836
vn -0.0381 -0.1884 -0.9813
vn 0.0071 -0.1909 -0.9816
vn -0.1402 -0.0803 -0.9869
vn -0.0749 -0.1754 -0.9816
vn -0.0430 -0.1013 -0.9939
vn 0.1536 -0.3108 -0.9380
vn 0.2620 -0.2901 -0.9204
vn 0.2430 -0.2911 -0.9253
vn -0.0382 -0.1885 -0.9813
vn -0.3441 -0.1710 -0.9232
vn -0.2468 -0.1784 -0.9525
vn -0.2840 -0.0979 -0.9538
vn -0.2398 -0.0704 -0.9683
vn -0.4047 -0.0815 -0.9108
vn 0.0946 -0.2332 -0.9678
vn -0.0058 -0.2048 -0.9788
vn -0.1485 -0.1083 -0.9830
vn -0.0058 -0.2049 -0.9788
vn 0.0995 -0.3160 -0.9435
vn -0.1486 -0.1082 -0.9830
vn 0.0362 -0.1766 -0.9836
vn 0.0072 -0.1909 -0.9816
vn -0.0749 -0.1754 -0.9817
vn 0.2429 -0.2911 -0.9253
vn -0.2467 -0.1784 -0.9525
vn 0.0071 -0.1908 -0.9816
vn -0.2840 -0.0980 -0.9538
vn -0.4048 -0.0815 -0.9108
vn -0.4538 -0.1040 -0.8850
vn 0.0947 -0.2332 -0.9678
vn -0.0748 -0.1754 -0.9816
vn 0.1281 -0.2430 -0.9615
vn -0.1486 -0.1083 -0.9830
vn 0.4833 0.1068 -0.8689
vn 0.5686 0.1261 -0.8129
vn 0.2391 0.1849 -0.9532
vn 0.2585 0.3835 -0.8866
vn 0.2419 0.3717 -0.8963
vn 0.3190 0.4210 -0.8491
vn 0.2390 0.1848 -0.9533
vn -0.0119 0.1643 -0.9863
vn 0.0260 0.1136 -0.9932
vn 0.2391 0.1848 -0.9533
vn 0.2746 0.0731 -0.9588
vn -0.2269 0.0943 -0.9693
vn -0.3996 0.0286 -0.9162
vn -0.3563 0.0144 -0.9343
vn 0.2132 0.2672 -0.9398
vn 0.2391 0.1848 -0.9532
vn 0.2125 0.3032 -0.9289
vn 0.2169 0.3044 -0.9275
vn 0.2419 0.3716 -0.8963
vn 0.9273 0.1347 -0.3493
vn 0.9543 0.1791 -0.2394
vn 0.8244 0.1164 -0.5538
vn 0.7546 0.0889 -0.6501
vn 0.8244 0.1164 -0.5539
vn 0.5687 0.1261 -0.8129
vn -0.0120 0.1643 -0.9863
vn -0.1702 0.0583 -0.9837
vn 0.2746 0.0732 -0.9588
vn 0.3191 0.4211 -0.8491
vn 0.3397 0.4202 -0.8415
vn -0.2269 0.0942 -0.9694
vn -0.3562 0.0144 -0.9343
vn 0.7546 0.0889 -0.6502
vn 0.5686 0.1260 -0.8129
vn 0.4834 0.1068 -0.8689
vn -0.0119 0.1642 -0.9864
vn 0.9928 0.0589 -0.1041
vn 0.8608 0.0425 -0.5072
vn 0.9923 0.0378 -0.1183
vn 0.8405 0.4221 0.3396
vn 0.6920 0.5620 0.4530
vn 0.6446 0.5901 0.4861
vn 0.6445 0.5901 0.4862
vn 0.4334 0.7171 0.5459
vn 0.3838 0.7299 0.5657
vn 0.1139 0.7709 0.6267
vn 0.0594 0.7661 0.6399
vn 0.9519 0.2555 0.1690
vn 0.8751 0.3840 0.2946
vn 0.9928 0.0590 -0.1041
vn 0.9687 0.2189 0.1172
vn -0.0011 0.0200 0.9998
vn -0.9994 -0.0338 -0.0000
vn 0.8333 0.0474 -0.5508
vn 0.8750 0.3840 0.2946
vn 0.6921 0.5620 0.4530
vn 0.6445 0.5901 0.4861
vn 0.4334 0.7170 0.5459
vn 0.1140 0.7709 0.6267
vn 0.9687 0.2189 0.1171
vt 0.915079 0.194931
vt 0.908718 0.027406
vt 0.923937 0.025819
vt 0.906658 0.419353
vt 0.899789 0.194931
vt 0.896831 0.536959
vt 0.894395 0.419353
vt 0.831952 0.841342
vt 0.846236 0.916874
vt 0.822627 0.918374
vt 0.906357 0.752692
vt 0.910043 0.810511
vt 0.887690 0.833557
vt 0.857165 0.896106
vt 0.871253 0.960498
vt 0.856877 0.974267
vt 0.835099 0.993761
vt 0.813301 0.995407
vt 0.857045 0.684949
vt 0.896300 0.594924
vt 0.902301 0.689072
vt 0.915387 0.894349
vt 0.857372 0.839988
vt 0.847810 0.746095
vt 0.880820 0.886608
vt 0.870712 0.594465
vt 0.895253 0.926239
vt 0.931511 0.819145
vt 0.955004 0.829526
vt 0.962104 0.776597
vt 0.973209 0.881618
vt 0.988975 0.837933
vt 0.964723 0.837236
vt 0.988976 0.715963
vt 0.945460 0.713072
vt 0.938479 0.766164
vt 0.988976 0.659004
vt 0.988976 0.583670
vt 0.962446 0.583900
vt 0.988976 0.773436
vt 0.916306 0.934772
vt 0.939660 0.897981
vt 0.922162 0.890244
vt 0.926392 0.858079
vt 0.933986 0.860711
vt 0.952774 0.657456
vt 0.988976 0.884938
vt 0.984516 0.915584
vt 0.967956 0.912097
vt 0.969960 0.958513
vt 0.949878 0.867737
vt 0.939508 0.945039
vt 0.945621 0.899468
vt 0.806844 0.608475
vt 0.802939 0.681322
vt 0.824894 0.681379
vt 0.798805 0.827015
vt 0.800413 0.899862
vt 0.814220 0.899862
vt 0.799954 0.754169
vt 0.819615 0.826728
vt 0.823173 0.753594
vt 0.984678 0.915104
vt 0.983116 0.901196
vt 0.966611 0.880962
vt 0.967342 0.897874
vt 0.924121 0.875348
vt 0.940051 0.897364
vt 0.941107 0.882859
vt 0.988976 0.915864
vt 0.843879 0.108630
vt 0.828187 0.163752
vt 0.830501 0.107324
vt 0.831847 0.060989
vt 0.844988 0.015936
vt 0.844950 0.062246
vt 0.835198 0.240101
vt 0.828173 0.201829
vt 0.838302 0.202469
vt 0.840070 0.303664
vt 0.832403 0.319693
vt 0.831847 0.301939
vt 0.841406 0.164838
vt 0.838226 0.275105
vt 0.830434 0.273471
vt 0.828159 0.239906
vt 0.832631 0.016476
vt 0.836474 0.224629
vt 0.828165 0.224103
vt 0.829843 0.264755
vt 0.840130 0.180310
vt 0.828182 0.179554
vt 0.837469 0.266355
vt 0.830865 0.282153
vt 0.838788 0.283815
vt 0.569294 0.317239
vt 0.600013 0.302904
vt 0.619593 0.358077
vt 0.531747 0.307682
vt 0.537209 0.300856
vt 0.540622 0.317239
vt 0.556323 0.302904
vt 0.563149 0.334988
vt 0.617763 0.315191
vt 0.630255 0.340177
vt 0.625955 0.283106
vt 0.632781 0.294712
vt 0.906043 0.537444
vt 0.823858 0.608246
vt 0.988976 0.966927
vt 0.840789 0.320617
vt 0.952831 0.365669
vt 0.934698 0.363079
vt 0.927194 0.540492
vt 0.955331 0.238584
vt 0.940055 0.236402
vt 0.952150 0.110686
vt 0.947405 0.026019
vt 0.927310 0.025467
vt 0.932288 0.107849
vt 0.610774 0.986620
vt 0.610774 0.994613
vt 0.733113 0.994613
vt 0.610774 0.914679
vt 0.610774 0.922672
vt 0.733112 0.922672
vt 0.610774 0.954645
vt 0.733112 0.954645
vt 0.733113 0.946652
vt 0.733113 0.938659
vt 0.610774 0.938659
vt 0.733113 0.962640
vt 0.733113 0.954648
vt 0.610774 0.954648
vt 0.988976 0.902430
vt 0.947472 0.885673
vt 0.943730 0.542329
vt 0.733112 0.986620
vt 0.733113 0.914679
vt 0.610774 0.946652
vt 0.989512 0.368388
vt 0.981397 0.533142
vt 0.973435 0.368388
vt 0.985072 0.028775
vt 0.970067 0.197204
vt 0.971292 0.027857
vt 0.985455 0.199960
vt 0.993569 0.533142
vt 0.799942 0.764228
vt 0.820639 0.805691
vt 0.799137 0.805988
vt 0.818063 0.847772
vt 0.799269 0.848032
vt 0.801054 0.727314
vt 0.822536 0.763737
vt 0.823811 0.726820
s 1
usemtl Material.001
f 1/1/1 2/2/2 3/3/2
f 4/4/3 5/5/4 6/1/5
f 7/4/3 8/6/6 9/7/7
f 10/1/8 11/3/9 12/2/9
f 13/4/10 14/1/8 15/5/11
f 16/4/10 17/7/12 18/6/13
f 153/8/14 154/9/15 155/10/16
f 156/11/17 157/12/18 158/13/19
f 159/14/20 160/15/21 161/16/22
f 162/10/16 163/17/23 164/18/24
f 165/19/25 166/20/26 167/21/27
f 168/22/28 169/13/19 170/12/29
f 171/23/30 172/8/14 173/24/31
f 174/23/32 175/25/33 176/14/20
f 177/24/34 178/21/35 179/11/36
f 180/8/14 181/23/37 182/9/38
f 183/24/31 184/13/39 185/23/40
f 186/14/20 187/25/41 188/15/42
f 189/10/16 190/9/15 191/17/23
f 192/19/43 193/26/44 194/20/45
f 195/22/46 196/27/47 197/13/39
f 198/23/40 199/13/39 200/25/41
f 201/24/48 202/19/25 203/21/27
f 204/24/48 205/11/36 206/13/39
f 207/28/49 208/29/50 209/30/51
f 210/31/52 211/32/53 212/33/54
f 213/30/55 214/34/56 215/35/57
f 216/30/55 217/35/57 218/36/58
f 219/37/59 220/38/60 221/39/61
f 222/40/62 223/34/63 224/30/51
f 225/30/51 226/33/64 227/32/65
f 228/41/66 229/42/67 230/43/68
f 231/44/69 232/45/70 233/29/71
f 234/34/72 235/37/73 236/46/74
f 237/28/75 238/30/55 239/36/58
f 240/32/53 241/31/76 242/47/77
f 243/37/73 244/39/78 245/46/74
f 246/30/51 247/32/79 248/40/62
f 249/48/80 250/49/81 251/50/82
f 252/45/70 253/51/83 254/29/71
f 255/41/66 256/52/84 257/53/85
f 258/34/56 259/46/74 260/35/57
f 261/54/86 262/55/87 263/56/88
f 264/57/89 265/58/90 266/59/91
f 267/60/92 268/57/89 269/61/93
f 270/55/94 271/60/95 272/62/96
f 273/48/97 274/63/98 275/64/77
f 276/31/99 277/65/100 278/66/101
f 279/45/70 280/44/69 281/67/102
f 282/42/103 283/68/85 284/69/83
f 285/49/104 286/48/105 287/47/106
f 288/51/83 289/45/70 290/43/102
f 291/70/98 292/48/105 293/50/82
f 294/71/107 295/72/108 296/73/109
f 297/74/110 298/75/111 299/76/112
f 300/77/113 301/78/114 302/79/115
f 303/80/116 304/81/117 305/82/118
f 306/76/112 307/73/119 308/74/110
f 309/83/120 310/78/121 311/72/122
f 312/82/123 313/84/124 314/80/116
f 315/77/125 316/85/126 317/86/127
f 318/83/128 319/73/129 320/71/130
f 321/87/131 322/76/132 323/74/133
f 324/77/134 325/78/135 326/79/136
f 327/80/137 328/81/138 329/82/139
f 330/76/132 331/73/129 332/74/140
f 333/79/141 334/72/142 335/83/143
f 336/82/139 337/84/144 338/80/137
f 339/77/145 340/85/146 341/86/147
f 342/71/148 343/72/149 344/73/150
f 345/74/151 346/75/152 347/76/153
f 348/80/154 349/81/155 350/82/156
f 351/76/153 352/73/150 353/74/151
f 354/88/157 355/86/158 356/89/159
f 357/77/160 358/90/161 359/86/162
f 360/89/163 361/79/164 362/88/157
f 363/78/165 364/91/166 365/79/167
f 366/83/168 367/92/169 368/72/170
f 369/93/171 370/94/172 371/90/173
f 372/82/174 373/95/175 374/80/154
f 375/96/176 376/97/177 377/98/178
f 378/99/179 379/100/180 380/101/181
f 381/100/180 382/102/182 383/101/183
f 384/102/184 385/96/185 386/101/183
f 387/103/186 388/101/183 389/96/187
f 390/98/178 391/103/188 392/96/176
f 393/104/189 394/98/178 395/97/177
f 396/104/190 397/105/191 398/98/178
f 399/106/192 400/107/193 401/97/194
f 402/107/193 403/104/195 404/97/194
f 405/1/196 406/5/4 407/2/197
f 408/4/3 409/7/7 410/5/4
f 411/4/198 412/108/199 413/6/199
f 414/1/200 415/2/201 416/5/11
f 417/4/10 418/5/11 419/7/202
f 420/4/10 421/6/203 422/108/203
f 561/31/76 562/33/54 563/65/204
f 564/44/205 565/29/50 566/28/206
f 567/41/207 568/53/85 569/42/67
f 570/54/86 571/56/208 572/109/209
f 573/57/210 574/59/91 575/61/211
f 576/60/95 577/61/93 578/62/212
f 579/55/87 580/62/213 581/56/88
f 582/49/104 583/47/214 584/31/52
f 585/51/83 586/43/102 587/42/215
f 588/70/216 589/50/217 590/110/218
f 591/71/107 592/83/219 593/72/108
f 594/74/110 595/87/220 596/75/221
f 597/77/113 598/86/222 599/78/121
f 600/80/223 601/111/224 602/81/225
f 603/76/112 604/71/107 605/73/109
f 606/83/120 607/79/226 608/78/121
f 609/82/118 610/85/227 611/84/124
f 612/77/125 613/84/228 614/85/126
f 615/83/128 616/72/142 617/73/129
f 618/87/229 619/75/230 620/76/132
f 621/77/145 622/86/147 623/78/135
f 624/80/137 625/111/231 626/81/138
f 627/76/132 628/71/232 629/73/129
f 630/79/141 631/78/233 632/72/142
f 633/82/139 634/85/234 635/84/235
f 636/77/145 637/84/236 638/85/146
f 639/71/148 640/83/168 641/72/149
f 642/74/151 643/87/237 644/75/152
f 645/80/154 646/111/238 647/81/155
f 648/76/239 649/71/240 650/73/150
f 651/88/157 652/77/241 653/86/158
f 654/77/160 655/93/242 656/90/243
f 657/89/159 658/78/165 659/79/164
f 660/78/165 661/92/244 662/91/166
f 663/83/245 664/91/246 665/92/247
f 666/93/242 667/95/248 668/94/249
f 669/82/174 670/94/249 671/95/248
f 672/112/250 673/113/251 674/114/252
f 675/113/251 676/112/250 677/115/253
f 678/116/254 679/115/253 680/117/255
f 681/118/256 682/119/257 683/120/258
f 684/112/259 685/114/260 686/113/261
f 687/113/261 688/115/262 689/112/263
f 690/116/264 691/117/265 692/115/262
f 693/118/266 694/120/267 695/119/268
f 776/121/269 777/122/270 778/123/271
f 779/124/272 780/125/273 781/126/274
f 794/127/275 795/128/276 796/129/277
f 797/129/278 798/130/279 799/131/280
f 810/132/281 811/133/282 812/134/283
f 835/8/284 836/9/285 837/10/286
f 838/11/287 839/12/288 840/13/289
f 841/14/290 842/15/291 843/16/292
f 844/10/293 845/17/294 846/18/295
f 847/19/296 848/20/297 849/21/298
f 850/22/299 851/13/289 852/12/288
f 853/23/300 854/8/284 855/24/301
f 856/23/300 857/25/302 858/14/290
f 859/24/301 860/21/298 861/11/303
f 862/8/304 863/23/300 864/9/305
f 865/24/306 866/13/307 867/23/308
f 868/14/290 869/25/302 870/15/291
f 871/10/286 872/9/285 873/17/294
f 874/19/296 875/26/309 876/20/310
f 877/22/299 878/27/311 879/13/289
f 880/23/300 881/13/289 882/25/302
f 883/24/312 884/19/296 885/21/298
f 886/24/301 887/11/303 888/13/289
f 889/28/313 890/29/314 891/30/315
f 892/135/316 893/66/317 894/50/318
f 895/30/319 896/34/320 897/35/321
f 898/30/315 899/35/321 900/36/322
f 901/37/323 902/38/324 903/39/325
f 904/40/326 905/34/320 906/30/315
f 907/30/315 908/33/327 909/32/328
f 910/32/328 911/33/327 912/66/317
f 913/41/329 914/52/330 915/136/331
f 916/67/332 917/136/333 918/29/334
f 919/34/320 920/37/335 921/46/336
f 922/28/337 923/30/315 924/36/322
f 925/135/316 926/50/318 927/110/338
f 928/37/335 929/39/339 930/46/336
f 931/30/315 932/32/328 933/40/340
f 934/32/341 935/66/317 936/135/316
f 937/41/329 938/136/342 939/67/343
f 940/67/343 941/29/314 942/28/344
f 943/34/320 944/46/345 945/35/321
f 946/112/250 947/114/346 948/137/346
f 949/113/251 950/115/253 951/116/254
f 952/116/254 953/117/255 954/120/258
f 955/118/256 956/120/258 957/117/255
f 958/112/347 959/137/348 960/114/348
f 961/113/261 962/116/264 963/115/262
f 964/116/264 965/120/267 966/117/265
f 967/118/266 968/117/265 969/120/267
f 1052/121/269 1053/123/271 1054/138/349
f 1055/124/272 1056/126/274 1057/139/350
f 1070/127/351 1071/129/277 1072/140/352
f 1111/141/353 1112/142/354 1113/143/355
f 1114/144/356 1115/145/357 1116/146/356
f 1117/147/358 1118/143/355 1119/145/357
f 1120/141/359 1121/143/360 1122/142/361
f 1123/144/362 1124/146/362 1125/145/363
f 1126/147/364 1127/145/363 1128/143/360
f 1263/8/365 1264/10/366 1265/9/367
f 1266/11/368 1267/13/369 1268/12/370
f 1269/14/371 1270/16/372 1271/15/373
f 1272/10/374 1273/18/375 1274/17/376
f 1275/19/377 1276/21/378 1277/20/379
f 1278/22/380 1279/12/381 1280/13/382
f 1281/23/383 1282/24/384 1283/8/365
f 1284/23/385 1285/14/371 1286/25/386
f 1287/24/384 1288/11/387 1289/21/388
f 1290/8/365 1291/9/389 1292/23/383
f 1293/24/390 1294/23/383 1295/13/369
f 1296/14/391 1297/15/392 1298/25/386
f 1299/10/393 1300/17/394 1301/9/367
f 1302/19/377 1303/20/395 1304/26/396
f 1305/22/397 1306/13/382 1307/27/398
f 1308/23/383 1309/25/399 1310/13/382
f 1311/24/400 1312/21/401 1313/19/402
f 1314/24/384 1315/13/403 1316/11/387
f 1317/28/404 1318/30/405 1319/29/406
f 1320/135/407 1321/50/408 1322/66/409
f 1323/30/405 1324/35/410 1325/34/411
f 1326/30/405 1327/36/412 1328/35/413
f 1329/37/414 1330/39/415 1331/38/416
f 1332/40/417 1333/30/405 1334/34/418
f 1335/30/405 1336/32/419 1337/33/420
f 1338/32/419 1339/66/421 1340/33/420
f 1341/41/422 1342/136/423 1343/52/424
f 1344/67/425 1345/29/406 1346/136/426
f 1347/34/427 1348/46/428 1349/37/429
f 1350/28/430 1351/36/412 1352/30/405
f 1353/135/407 1354/110/431 1355/50/408
f 1356/37/429 1357/46/428 1358/39/432
f 1359/30/405 1360/40/417 1361/32/433
f 1362/32/419 1363/135/407 1364/66/409
f 1365/41/422 1366/67/425 1367/136/434
f 1368/67/425 1369/28/404 1370/29/406
f 1371/34/411 1372/35/410 1373/46/428
f 1374/54/435 1375/55/436 1376/56/437
f 1377/57/438 1378/58/439 1379/59/440
f 1380/60/441 1381/57/438 1382/61/442
f 1383/55/443 1384/60/441 1385/62/444
f 1386/54/445 1387/55/446 1388/56/447
f 1389/57/448 1390/58/449 1391/59/450
f 1392/60/451 1393/57/448 1394/61/452
f 1395/55/453 1396/60/454 1397/62/455
f 1398/141/353 1399/148/354 1400/142/354
f 1401/144/356 1402/147/456 1403/145/357
f 1404/147/456 1405/141/353 1406/143/355
f 1407/141/359 1408/142/361 1409/148/361
f 1410/144/362 1411/145/363 1412/147/364
f 1413/147/364 1414/143/360 1415/141/359
f 1554/54/435 1555/56/457 1556/109/458
f 1557/57/459 1558/59/460 1559/61/461
f 1560/60/441 1561/61/442 1562/62/444
f 1563/55/436 1564/62/462 1565/56/437
f 1566/54/463 1567/56/447 1568/109/464
f 1569/57/448 1570/59/465 1571/61/452
f 1572/60/454 1573/61/452 1574/62/455
f 1575/55/453 1576/62/466 1577/56/467
f 1578/1/5 1579/2/2 1580/3/2
f 1581/4/3 1582/5/4 1583/1/5
f 1584/4/3 1585/6/6 1586/7/7
f 1587/1/8 1588/3/9 1589/2/9
f 1590/4/10 1591/1/8 1592/5/11
f 1593/4/10 1594/7/12 1595/6/13
f 1730/8/468 1731/10/469 1732/9/470
f 1733/11/471 1734/13/472 1735/12/473
f 1736/14/474 1737/16/475 1738/15/476
f 1739/10/477 1740/18/478 1741/17/479
f 1742/19/480 1743/21/481 1744/20/482
f 1745/22/483 1746/12/473 1747/13/472
f 1748/23/484 1749/24/485 1750/8/468
f 1751/23/486 1752/14/474 1753/25/487
f 1754/24/488 1755/11/471 1756/21/481
f 1757/8/489 1758/9/490 1759/23/486
f 1760/24/485 1761/23/486 1762/13/491
f 1763/14/474 1764/15/492 1765/25/487
f 1766/10/469 1767/17/493 1768/9/494
f 1769/19/495 1770/20/496 1771/26/497
f 1772/22/498 1773/13/499 1774/27/500
f 1775/23/486 1776/25/487 1777/13/472
f 1778/24/501 1779/21/481 1780/19/495
f 1781/24/485 1782/13/491 1783/11/471
f 1784/54/86 1785/55/87 1786/56/88
f 1787/57/89 1788/58/90 1789/59/91
f 1790/60/92 1791/57/89 1792/61/93
f 1793/55/94 1794/60/95 1795/62/96
f 1796/28/502 1797/29/503 1798/30/504
f 1799/135/505 1800/66/506 1801/50/507
f 1802/30/508 1803/34/509 1804/35/510
f 1805/30/511 1806/35/510 1807/36/512
f 1808/37/513 1809/38/514 1810/39/515
f 1811/40/516 1812/34/509 1813/30/517
f 1814/30/504 1815/33/518 1816/32/519
f 1817/32/519 1818/33/518 1819/66/520
f 1820/41/521 1821/52/522 1822/136/523
f 1823/67/524 1824/136/525 1825/29/526
f 1826/34/527 1827/37/513 1828/46/528
f 1829/28/502 1830/30/511 1831/36/529
f 1832/135/505 1833/50/530 1834/110/531
f 1835/37/532 1836/39/533 1837/46/528
f 1838/30/517 1839/32/519 1840/40/516
f 1841/32/519 1842/66/520 1843/135/505
f 1844/41/521 1845/136/525 1846/67/524
f 1847/67/534 1848/29/535 1849/28/536
f 1850/34/537 1851/46/528 1852/35/510
f 1853/55/538 1854/109/539 1855/56/540
f 1856/149/541 1857/150/542 1858/151/543
f 1859/151/544 1860/152/545 1861/153/546
f 1862/153/546 1863/59/547 1864/58/548
f 1865/154/549 1866/155/550 1867/149/541
f 1868/55/551 1869/156/552 1870/154/549
f 1871/1/196 1872/5/4 1873/2/197
f 1874/4/3 1875/7/7 1876/5/4
f 1877/4/198 1878/108/553 1879/6/553
f 1880/1/200 1881/2/201 1882/5/554
f 1883/4/10 1884/5/11 1885/7/202
f 1886/4/10 1887/6/203 1888/108/203
f 2027/54/86 2028/56/208 2029/109/209
f 2030/57/210 2031/59/91 2032/61/211
f 2033/60/95 2034/61/93 2035/62/212
f 2036/55/87 2037/62/213 2038/56/88
f 2039/55/538 2040/54/555 2041/109/539
f 2042/149/541 2043/155/556 2044/150/557
f 2045/151/558 2046/150/542 2047/152/559
f 2048/153/546 2049/152/545 2050/59/560
f 2051/154/549 2052/156/561 2053/155/550
f 2054/55/551 2055/56/540 2056/156/561
l 19 20
l 21 22
l 23 24
l 25 26
l 27 28
l 29 30
l 31 32
l 33 34
l 35 36
l 37 38
l 39 40
l 41 42
l 43 44
l 45 46
l 47 48
l 49 50
l 51 52
l 53 54
l 55 56
l 57 58
l 59 60
l 61 62
l 63 64
l 65 66
l 67 68
l 69 70
l 71 72
l 73 74
l 75 76
l 77 78
l 79 80
l 81 82
l 83 84
l 85 86
l 87 88
l 89 90
l 91 92
l 93 94
l 95 96
l 97 98
l 99 100
l 101 102
l 103 104
l 105 106
l 107 108
l 109 110
l 111 112
l 113 114
l 115 116
l 117 118
l 119 120
l 121 122
l 123 124
l 125 126
l 127 128
l 129 130
l 131 132
l 133 134
l 135 136
l 137 138
l 139 140
l 141 142
l 143 144
l 145 146
l 147 148
l 149 150
l 151 152
l 423 424
l 425 426
l 427 428
l 429 430
l 431 432
l 433 434
l 435 436
l 437 438
l 439 440
l 441 442
l 443 444
l 445 446
l 447 448
l 449 450
l 451 452
l 453 454
l 455 456
l 457 458
l 459 460
l 461 462
l 463 464
l 465 466
l 467 468
l 469 470
l 471 472
l 473 474
l 475 476
l 477 478
l 479 480
l 481 482
l 483 484
l 485 486
l 487 488
l 489 490
l 491 492
l 493 494
l 495 496
l 497 498
l 499 500
l 501 502
l 503 504
l 505 506
l 507 508
l 509 510
l 511 512
l 513 514
l 515 516
l 517 518
l 519 520
l 521 522
l 523 524
l 525 526
l 527 528
l 529 530
l 531 532
l 533 534
l 535 536
l 537 538
l 539 540
l 541 542
l 543 544
l 545 546
l 547 548
l 549 550
l 551 552
l 553 554
l 555 556
l 557 558
l 559 560
l 696 697
l 698 699
l 700 701
l 702 703
l 704 705
l 706 707
l 708 709
l 710 711
l 712 713
l 714 715
l 716 717
l 718 719
l 720 721
l 722 723
l 724 725
l 726 727
l 728 729
l 730 731
l 732 733
l 734 735
l 736 737
l 738 739
l 740 741
l 742 743
l 744 745
l 746 747
l 748 749
l 750 751
l 752 753
l 754 755
l 756 757
l 758 759
l 760 761
l 762 763
l 764 765
l 766 767
l 768 769
l 770 771
l 772 773
l 774 775
l 782 783
l 784 785
l 786 787
l 788 789
l 790 791
l 792 793
l 800 801
l 802 803
l 804 805
l 806 807
l 808 809
l 813 814
l 815 816
l 817 818
l 819 820
l 821 822
l 823 824
l 825 826
l 827 828
l 829 830
l 831 832
l 833 834
l 970 971
l 972 973
l 974 975
l 976 977
l 978 979
l 980 981
l 982 983
l 984 985
l 986 987
l 988 989
l 990 991
l 992 993
l 994 995
l 996 997
l 998 999
l 1000 1001
l 1002 1003
l 1004 1005
l 1006 1007
l 1008 1009
l 1010 1011
l 1012 1013
l 1014 1015
l 1016 1017
l 1018 1019
l 1020 1021
l 1022 1023
l 1024 1025
l 1026 1027
l 1028 1029
l 1030 1031
l 1032 1033
l 1034 1035
l 1036 1037
l 1038 1039
l 1040 1041
l 1042 1043
l 1044 1045
l 1046 1047
l 1048 1049
l 1050 1051
l 1058 1059
l 1060 1061
l 1062 1063
l 1064 1065
l 1066 1067
l 1068 1069
l 1073 1074
l 1075 1076
l 1077 1078
l 1079 1080
l 1081 1082
l 1083 1084
l 1085 1086
l 1087 1088
l 1089 1090
l 1091 1092
l 1093 1094
l 1095 1096
l 1097 1098
l 1099 1100
l 1101 1102
l 1103 1104
l 1105 1106
l 1107 1108
l 1109 1110
l 1129 1130
l 1131 1132
l 1133 1134
l 1135 1136
l 1137 1138
l 1139 1140
l 1141 1142
l 1143 1144
l 1145 1146
l 1147 1148
l 1149 1150
l 1151 1152
l 1153 1154
l 1155 1156
l 1157 1158
l 1159 1160
l 1161 1162
l 1163 1164
l 1165 1166
l 1167 1168
l 1169 1170
l 1171 1172
l 1173 1174
l 1175 1176
l 1177 1178
l 1179 1180
l 1181 1182
l 1183 1184
l 1185 1186
l 1187 1188
l 1189 1190
l 1191 1192
l 1193 1194
l 1195 1196
l 1197 1198
l 1199 1200
l 1201 1202
l 1203 1204
l 1205 1206
l 1207 1208
l 1209 1210
l 1211 1212
l 1213 1214
l 1215 1216
l 1217 1218
l 1219 1220
l 1221 1222
l 1223 1224
l 1225 1226
l 1227 1228
l 1229 1230
l 1231 1232
l 1233 1234
l 1235 1236
l 1237 1238
l 1239 1240
l 1241 1242
l 1243 1244
l 1245 1246
l 1247 1248
l 1249 1250
l 1251 1252
l 1253 1254
l 1255 1256
l 1257 1258
l 1259 1260
l 1261 1262
l 1416 1417
l 1418 1419
l 1420 1421
l 1422 1423
l 1424 1425
l 1426 1427
l 1428 1429
l 1430 1431
l 1432 1433
l 1434 1435
l 1436 1437
l 1438 1439
l 1440 1441
l 1442 1443
l 1444 1445
l 1446 1447
l 1448 1449
l 1450 1451
l 1452 1453
l 1454 1455
l 1456 1457
l 1458 1459
l 1460 1461
l 1462 1463
l 1464 1465
l 1466 1467
l 1468 1469
l 1470 1471
l 1472 1473
l 1474 1475
l 1476 1477
l 1478 1479
l 1480 1481
l 1482 1483
l 1484 1485
l 1486 1487
l 1488 1489
l 1490 1491
l 1492 1493
l 1494 1495
l 1496 1497
l 1498 1499
l 1500 1501
l 1502 1503
l 1504 1505
l 1506 1507
l 1508 1509
l 1510 1511
l 1512 1513
l 1514 1515
l 1516 1517
l 1518 1519
l 1520 1521
l 1522 1523
l 1524 1525
l 1526 1527
l 1528 1529
l 1530 1531
l 1532 1533
l 1534 1535
l 1536 1537
l 1538 1539
l 1540 1541
l 1542 1543
l 1544 1545
l 1546 1547
l 1548 1549
l 1550 1551
l 1552 1553
l 1596 1597
l 1598 1599
l 1600 1601
l 1602 1603
l 1604 1605
l 1606 1607
l 1608 1609
l 1610 1611
l 1612 1613
l 1614 1615
l 1616 1617
l 1618 1619
l 1620 1621
l 1622 1623
l 1624 1625
l 1626 1627
l 1628 1629
l 1630 1631
l 1632 1633
l 1634 1635
l 1636 1637
l 1638 1639
l 1640 1641
l 1642 1643
l 1644 1645
l 1646 1647
l 1648 1649
l 1650 1651
l 1652 1653
l 1654 1655
l 1656 1657
l 1658 1659
l 1660 1661
l 1662 1663
l 1664 1665
l 1666 1667
l 1668 1669
l 1670 1671
l 1672 1673
l 1674 1675
l 1676 1677
l 1678 1679
l 1680 1681
l 1682 1683
l 1684 1685
l 1686 1687
l 1688 1689
l 1690 1691
l 1692 1693
l 1694 1695
l 1696 1697
l 1698 1699
l 1700 1701
l 1702 1703
l 1704 1705
l 1706 1707
l 1708 1709
l 1710 1711
l 1712 1713
l 1714 1715
l 1716 1717
l 1718 1719
l 1720 1721
l 1722 1723
l 1724 1725
l 1726 1727
l 1728 1729
l 1889 1890
l 1891 1892
l 1893 1894
l 1895 1896
l 1897 1898
l 1899 1900
l 1901 1902
l 1903 1904
l 1905 1906
l 1907 1908
l 1909 1910
l 1911 1912
l 1913 1914
l 1915 1916
l 1917 1918
l 1919 1920
l 1921 1922
l 1923 1924
l 1925 1926
l 1927 1928
l 1929 1930
l 1931 1932
l 1933 1934
l 1935 1936
l 1937 1938
l 1939 1940
l 1941 1942
l 1943 1944
l 1945 1946
l 1947 1948
l 1949 1950
l 1951 1952
l 1953 1954
l 1955 1956
l 1957 1958
l 1959 1960
l 1961 1962
l 1963 1964
l 1965 1966
l 1967 1968
l 1969 1970
l 1971 1972
l 1973 1974
l 1975 1976
l 1977 1978
l 1979 1980
l 1981 1982
l 1983 1984
l 1985 1986
l 1987 1988
l 1989 1990
l 1991 1992
l 1993 1994
l 1995 1996
l 1997 1998
l 1999 2000
l 2001 2002
l 2003 2004
l 2005 2006
l 2007 2008
l 2009 2010
l 2011 2012
l 2013 2014
l 2015 2016
l 2017 2018
l 2019 2020
l 2021 2022
l 2023 2024
l 2025 2026
