# Blender 4.0.2
# www.blender.org
mtllib polish_house_2.mtl
o polish_house_2
v 2.600000 2.670639 5.000000
v 2.600000 0.170638 5.000000
v 2.600000 2.670638 -5.000000
v 2.600000 0.170638 -5.000000
v -2.600000 2.670639 5.000000
v -2.600000 0.170638 5.000000
v -2.600000 2.670638 -5.000000
v -2.600000 0.170638 -5.000000
v 0.000000 0.170638 5.000000
v 0.000000 2.670638 -5.000000
v 0.000000 0.170638 -5.000000
v 0.000000 2.670639 5.000000
v 2.706128 2.543951 5.207414
v 2.706128 2.543950 -5.207414
v -2.708364 2.541787 5.207414
v -2.708364 2.541786 -5.207414
v 0.000000 5.161888 -5.207415
v 0.000000 5.161889 5.207414
v 0.000000 5.180754 -5.000000
v 0.000000 5.180755 5.000000
v 0.000000 5.264269 -5.207415
v -2.756253 2.597840 -5.207414
v 2.756253 2.597841 5.207414
v 2.756253 2.597840 -5.207414
v -2.756253 2.597841 5.207414
v 0.000000 5.264270 5.207414
v -2.693516 2.565429 -5.171739
v -2.575534 2.698900 -4.995227
v -2.693516 2.565430 5.171739
v -2.575534 2.698901 4.995053
v 2.693516 2.565429 -5.171739
v 2.575534 2.698900 -4.995227
v 2.693516 2.565430 5.171739
v 2.575534 2.698901 4.995053
v 2.600000 1.051340 5.000000
v -2.600000 1.051340 -5.000000
v 2.600000 1.051340 -5.000000
v -2.600000 1.051340 5.000000
v 0.000000 1.051340 5.000000
v 0.000000 1.051340 -5.000000
v -2.600000 2.452703 -5.000000
v 2.600000 2.452704 5.000000
v 2.600000 2.452703 -5.000000
v -2.600000 2.452704 5.000000
v 0.000000 2.452704 5.000000
v 0.000000 2.452703 -5.000000
v -2.600000 0.170638 1.896263
v -2.600000 2.670638 1.896263
v -2.600000 1.051340 1.896263
v -2.600000 2.452704 1.896263
v -2.600000 0.170638 0.787860
v -2.600000 2.670638 0.787860
v -2.600000 1.051340 0.787860
v -2.600000 2.452704 0.787860
v -2.600000 0.170638 -1.432602
v -2.600000 2.670638 -1.432602
v -2.600000 1.051340 -1.432602
v -2.600000 2.452704 -1.432602
v -2.600000 0.170638 -2.541184
v -2.600000 2.670638 -2.541184
v -2.600000 1.051340 -2.541184
v -2.600000 2.452704 -2.541184
v -0.553303 2.670638 -5.000000
v -0.553303 0.170638 -5.000000
v -0.553303 1.051340 -5.000000
v -0.553303 2.452703 -5.000000
v 0.553769 0.170638 -5.000000
v 0.553769 2.670638 -5.000000
v 0.553769 1.051340 -5.000000
v 0.553769 2.452703 -5.000000
v -2.547072 1.051340 0.787860
v -2.547072 1.051340 1.896263
v -2.547072 2.452704 0.787860
v -2.547072 2.452704 1.896263
v -2.547072 1.051340 -2.541184
v -2.547072 1.051340 -1.432602
v -2.547072 2.452704 -2.541184
v -2.547072 2.452704 -1.432602
v 0.000000 2.452703 -4.947806
v 0.000000 1.051340 -4.947806
v 0.553769 1.051340 -4.947806
v 0.553769 2.452703 -4.947806
v -0.553303 1.051340 -4.947806
v -0.553303 2.452703 -4.947806
v -2.600000 2.670638 3.292475
v -2.600000 1.051340 3.292475
v -2.600000 2.452704 3.292475
v -2.600000 0.170638 3.292476
v -2.600000 2.670638 4.296821
v -2.600000 1.051340 4.296821
v -2.600000 2.452704 4.296821
v -2.600000 0.170638 4.296822
v 2.600000 2.313915 5.000000
v 2.600000 2.313914 -5.000000
v -2.600000 2.313915 5.000000
v 0.000000 2.313915 5.000000
v -2.600000 2.313914 -5.000000
v -2.600000 2.313914 1.896263
v -2.600000 2.313914 0.787860
v -2.600000 2.313914 -1.432602
v -2.600000 2.313914 -2.541184
v -0.553303 2.313914 -5.000000
v 0.553769 2.313914 -5.000000
v -2.547070 2.313914 1.896260
v -2.547072 2.313914 0.787860
v -2.547072 2.313914 -1.432602
v -2.547072 2.313914 -2.541184
v 0.000000 2.313914 -4.947806
v -0.553303 2.313914 -4.947806
v 0.553769 2.313914 -4.947806
v -2.600000 2.313914 3.292475
v -2.600000 2.313914 4.296821
v -2.547070 0.170638 4.296822
v -2.547070 0.170638 3.292476
v -2.547070 2.313914 3.292476
v -2.547070 1.051340 3.292480
v -2.547070 1.051340 4.296820
v -2.547070 2.313914 4.296821
v 2.600000 -0.290910 5.000000
v 2.600000 -0.290910 -5.000000
v -2.600000 -0.290910 5.000000
v -2.600000 -0.290910 -5.000000
v 0.000000 -0.290910 5.000000
v 0.000000 -0.290910 -5.000000
v -2.600000 -0.290910 1.896263
v -2.600000 -0.290910 0.787860
v -2.600000 -0.290910 -1.432602
v -2.600000 -0.290910 -2.541184
v -0.553303 -0.290910 -5.000000
v 0.553769 -0.290910 -5.000000
v -2.600000 -0.290910 3.292476
v -2.600000 -0.290910 4.296822
v -0.008854 4.739998 -0.250000
v -0.008854 5.722354 -0.250000
v -0.008854 4.739998 0.250000
v -0.008854 5.722354 0.250000
v 0.491146 4.739998 -0.250000
v 0.491146 5.722354 -0.250000
v 0.491146 4.739998 0.250000
v 0.491146 5.722354 0.250000
v -0.047145 5.722354 -0.288290
v -0.047145 5.722354 0.288290
v 0.529436 5.722354 -0.288290
v 0.529436 5.722354 0.288290
v 0.082226 5.837985 -0.157296
v 0.082226 5.837985 0.157296
v 0.400065 5.837985 0.157296
v 0.400065 5.837985 -0.157296
v -0.047145 5.837985 -0.288290
v -0.047145 5.837985 0.288290
v 0.529436 5.837985 0.288290
v 0.529436 5.837985 -0.288290
v 0.082226 5.333937 -0.157296
v 0.082226 5.333937 0.157296
v 0.400065 5.333937 0.157296
v 0.400065 5.333937 -0.157296
v -3.029076 -0.287545 3.243551
v -3.029076 0.082618 3.243551
v -3.029076 -0.287545 4.340765
v -3.029076 0.082618 4.340765
v -2.571764 -0.287545 3.243551
v -2.571764 0.082618 3.243551
v -2.571764 -0.287545 4.340765
v -2.571764 0.082618 4.340765
vn -0.0000 -0.0000 -1.0000
vn -1.0000 -0.0000 -0.0000
vn 1.0000 -0.0000 -0.0000
vn -0.0000 -0.0000 1.0000
vn 0.6953 -0.7187 -0.0000
vn -0.6953 -0.7187 -0.0000
vn -0.6953 0.7187 -0.0000
vn 0.6953 0.7187 -0.0000
vn -0.7603 -0.6496 -0.0000
vn 0.7322 -0.6811 -0.0000
vn -0.0000 0.7979 0.6028
vn -0.0000 0.7976 -0.6031
vn -0.0000 1.0000 -0.0000
vn -0.0000 -1.0000 -0.0000
vn -0.0001 -0.0000 1.0000
vt 0.493229 0.605830
vt 0.371549 0.605830
vt 0.371549 0.618787
vt 0.493229 0.618787
vt 0.443068 0.792612
vt 0.401263 0.792612
vt 0.401263 0.805569
vt 0.443068 0.805569
vt 0.995783 0.980542
vt 0.401263 0.980542
vt 0.401263 0.993498
vt 0.995783 0.993498
vt 0.841820 0.605830
vt 0.687244 0.605830
vt 0.687244 0.618787
vt 0.841820 0.618787
vt 0.996395 0.605830
vt 0.996395 0.618787
vt 0.559047 0.605830
vt 0.526124 0.605830
vt 0.526124 0.618787
vt 0.559047 0.618787
vt 0.137371 0.987798
vt 0.261921 0.987798
vt 0.261921 0.557516
vt 0.137371 0.557516
vt 0.012924 0.987798
vt 0.012924 0.557516
vt 0.014541 0.368180
vt 0.186162 0.368180
vt 0.014541 0.190413
vt 0.014541 0.545946
vt 0.210153 0.188863
vt 0.038532 0.188863
vt 0.210153 0.366629
vt 0.210153 0.226725
vt 0.210153 0.011096
vt 0.210153 0.151032
vt 0.352248 0.194075
vt 0.993957 0.194075
vt 0.993957 0.005155
vt 0.352248 0.005155
vt 0.352248 0.382996
vt 0.993957 0.382996
vt 0.379845 0.665835
vt 0.384160 0.661668
vt 0.383960 0.886361
vt 0.379649 0.886442
vt 0.356865 0.996845
vt 0.360149 0.996845
vt 0.360149 0.485405
vt 0.356865 0.485405
vt 0.373096 0.658167
vt 0.377408 0.658430
vt 0.377608 0.883123
vt 0.373293 0.878956
vt 0.366758 0.878956
vt 0.371073 0.883123
vt 0.370873 0.658430
vt 0.366561 0.658167
vt 0.385366 0.886442
vt 0.389678 0.886361
vt 0.389878 0.661668
vt 0.385563 0.665835
vt 0.350457 0.485405
vt 0.353615 0.485405
vt 0.353615 0.996845
vt 0.350457 0.996845
vt 0.683229 0.430172
vt 0.372101 0.430172
vt 0.378915 0.437881
vt 0.676414 0.437881
vt 0.683228 0.418821
vt 0.372101 0.418821
vt 0.378915 0.426530
vt 0.676414 0.426530
vt 0.237554 0.583745
vt 0.237554 0.969460
vt 0.038676 0.969460
vt 0.038676 0.583745
vt 0.559047 0.470157
vt 0.526124 0.470157
vt 0.526124 0.522516
vt 0.559047 0.522516
vt 0.996395 0.470157
vt 0.841820 0.470157
vt 0.841820 0.522516
vt 0.996395 0.522516
vt 0.687244 0.470157
vt 0.687244 0.522516
vt 0.995783 0.844868
vt 0.401263 0.844868
vt 0.401263 0.897228
vt 0.995783 0.897228
vt 0.443068 0.656939
vt 0.401263 0.656939
vt 0.401263 0.709298
vt 0.443068 0.709298
vt 0.493229 0.470157
vt 0.371549 0.470157
vt 0.371549 0.522516
vt 0.493229 0.522516
vt 0.326961 0.680854
vt 0.331370 0.680854
vt 0.331370 0.634115
vt 0.326961 0.634115
vt 0.996395 0.597579
vt 0.841820 0.597579
vt 0.687244 0.597579
vt 0.995783 0.972290
vt 0.401263 0.972290
vt 0.443068 0.784361
vt 0.401263 0.784361
vt 0.493229 0.597579
vt 0.371549 0.597579
vt 0.336231 0.693260
vt 0.340702 0.693260
vt 0.340702 0.786906
vt 0.336231 0.786906
vt 0.651683 0.656939
vt 0.585786 0.656939
vt 0.585786 0.709298
vt 0.651683 0.709298
vt 0.651683 0.792612
vt 0.585786 0.792612
vt 0.585786 0.805569
vt 0.651683 0.805569
vt 0.783694 0.792612
vt 0.783694 0.805569
vt 0.783694 0.656939
vt 0.783694 0.709298
vt 0.783694 0.784361
vt 0.651683 0.784361
vt 0.336231 0.802487
vt 0.340702 0.802487
vt 0.340702 0.896118
vt 0.336231 0.896118
vt 0.849601 0.656939
vt 0.849601 0.709298
vt 0.849601 0.792612
vt 0.849601 0.805569
vt 0.995783 0.792612
vt 0.995783 0.805569
vt 0.995783 0.656939
vt 0.995783 0.709298
vt 0.995783 0.784361
vt 0.849601 0.784361
vt 0.303518 0.628365
vt 0.297169 0.628365
vt 0.297169 0.474783
vt 0.303518 0.474783
vt 0.680699 0.597579
vt 0.559047 0.597579
vt 0.680699 0.605830
vt 0.680699 0.470157
vt 0.680699 0.522516
vt 0.680699 0.618787
vt 0.585786 0.784361
vt 0.276971 0.627777
vt 0.283409 0.627777
vt 0.283409 0.474196
vt 0.276971 0.474196
vt 0.328446 0.896017
vt 0.332917 0.896017
vt 0.332917 0.802387
vt 0.328446 0.802387
vt 0.293237 0.627777
vt 0.286798 0.627777
vt 0.286798 0.644660
vt 0.293237 0.644660
vt 0.276971 0.627778
vt 0.283409 0.627778
vt 0.293237 0.627778
vt 0.286798 0.627778
vt 0.328446 0.786805
vt 0.332917 0.786805
vt 0.332917 0.693160
vt 0.328446 0.693160
vt 0.526124 0.597579
vt 0.312940 0.628365
vt 0.306591 0.628365
vt 0.306591 0.645247
vt 0.312940 0.645247
vt 0.331370 0.587336
vt 0.326961 0.587336
vt 0.336631 0.633719
vt 0.341040 0.633719
vt 0.341040 0.680458
vt 0.336631 0.680458
vt 0.336631 0.586940
vt 0.341040 0.586940
vt 0.502779 0.784361
vt 0.502779 0.792612
vt 0.502779 0.656939
vt 0.502779 0.709298
vt 0.502779 0.805569
vt 0.841820 0.442717
vt 0.687244 0.442717
vt 0.317928 0.656433
vt 0.310202 0.656433
vt 0.310202 0.784989
vt 0.317928 0.784989
vt 0.312940 0.474783
vt 0.306591 0.474783
vt 0.293237 0.474196
vt 0.286798 0.474196
vt 0.276971 0.644660
vt 0.283409 0.644660
vt 0.303518 0.645247
vt 0.297169 0.645247
vt 0.502778 0.709298
vt 0.336231 0.909372
vt 0.340702 0.909372
vt 0.340702 0.994213
vt 0.336231 0.994213
vt 0.296281 0.784989
vt 0.304008 0.784989
vt 0.304008 0.656433
vt 0.296281 0.656433
vt 0.310202 0.969287
vt 0.317928 0.969287
vt 0.296281 0.969287
vt 0.304008 0.969287
vt 0.502779 0.629499
vt 0.443068 0.629499
vt 0.559047 0.442717
vt 0.526124 0.442717
vt 0.401263 0.629499
vt 0.493229 0.442717
vt 0.328446 0.909271
vt 0.328446 0.994112
vt 0.332917 0.994112
vt 0.332917 0.909271
vt 0.849601 0.629499
vt 0.783694 0.629499
vt 0.651683 0.629499
vt 0.995783 0.629499
vt 0.371549 0.442717
vt 0.585786 0.629499
vt 0.680699 0.442717
vt 0.996395 0.442717
vt 0.995783 0.817428
vt 0.401263 0.817428
vt 0.325713 0.273017
vt 0.283714 0.273017
vt 0.283714 0.355532
vt 0.325713 0.355532
vt 0.325378 0.162282
vt 0.283379 0.162282
vt 0.283379 0.244797
vt 0.325378 0.244797
vt 0.272064 0.273017
vt 0.230065 0.273017
vt 0.230065 0.355532
vt 0.272064 0.355532
vt 0.272431 0.162282
vt 0.230432 0.162282
vt 0.230432 0.244797
vt 0.272431 0.244797
vt 0.293028 0.427901
vt 0.293028 0.389749
vt 0.266192 0.389749
vt 0.266192 0.427901
vt 0.744544 0.389479
vt 0.744544 0.425631
vt 0.780696 0.425631
vt 0.780696 0.389479
vt 0.328929 0.365245
vt 0.328929 0.355532
vt 0.280497 0.355532
vt 0.280497 0.365245
vt 0.328594 0.254510
vt 0.328594 0.244797
vt 0.280163 0.244797
vt 0.280163 0.254510
vt 0.275647 0.254510
vt 0.275647 0.244797
vt 0.227216 0.244797
vt 0.227216 0.254510
vt 0.728667 0.397927
vt 0.740494 0.386246
vt 0.688434 0.386246
vt 0.700262 0.397927
vt 0.688434 0.438305
vt 0.700262 0.426624
vt 0.740494 0.438305
vt 0.728667 0.426624
vt 0.260620 0.427901
vt 0.260620 0.389749
vt 0.234058 0.389749
vt 0.234058 0.427901
vt 0.324499 0.427901
vt 0.324499 0.389749
vt 0.297938 0.389749
vt 0.297938 0.427901
vt 0.355912 0.427901
vt 0.355912 0.389749
vt 0.329077 0.389749
vt 0.329077 0.427901
vt 0.549510 0.392332
vt 0.488508 0.392332
vt 0.488508 0.412912
vt 0.549510 0.412912
vt 0.615112 0.392332
vt 0.589687 0.392332
vt 0.589687 0.412911
vt 0.615112 0.412911
vt 0.581549 0.392332
vt 0.556124 0.392332
vt 0.556124 0.412911
vt 0.581549 0.412911
vt 0.422433 0.415173
vt 0.483434 0.415173
vt 0.483434 0.389748
vt 0.422433 0.389748
vt 0.275280 0.365245
vt 0.275280 0.355532
vt 0.226848 0.355532
vt 0.226848 0.365245
s 0
usemtl mat_polish_house_2
f 66/1/1 41/2/1 7/3/1 63/4/1
f 91/5/2 44/6/2 5/7/2 89/8/2
f 42/9/3 43/10/3 3/11/3 1/12/3
f 45/13/4 42/14/4 1/15/4 12/16/4
f 44/17/4 45/13/4 12/16/4 5/18/4
f 70/19/1 46/20/1 10/21/1 68/22/1
f 18/23/5 15/24/5 16/25/5 17/26/5
f 13/27/6 18/23/6 17/26/6 14/28/6
f 12/29/4 20/30/4 5/31/4
f 1/32/4 20/30/4 12/29/4
f 10/33/1 19/34/1 3/35/1 68/36/1
f 7/37/1 19/34/1 10/33/1 63/38/1
f 26/39/7 21/40/7 22/41/7 25/42/7
f 23/43/8 24/44/8 21/40/8 26/39/8
f 17/45/1 21/46/1 24/47/1 14/48/1
f 15/49/9 25/50/9 22/51/9 16/52/9
f 16/53/1 22/54/1 21/55/1 17/56/1
f 18/57/4 26/58/4 25/59/4 15/60/4
f 13/61/4 23/62/4 26/63/4 18/64/4
f 14/65/10 24/66/10 23/67/10 13/68/10
f 29/69/11 33/70/11 34/71/11 30/72/11
f 31/73/12 27/74/12 28/75/12 32/76/12
f 34/77/13 32/78/13 28/79/13 30/80/13
f 67/81/1 11/82/1 40/83/1 69/84/1
f 6/85/4 9/86/4 39/87/4 38/88/4
f 9/86/4 2/89/4 35/90/4 39/87/4
f 2/91/3 4/92/3 37/93/3 35/94/3
f 92/95/2 6/96/2 38/97/2 90/98/2
f 64/99/1 8/100/1 36/101/1 65/102/1
f 65/103/13 83/104/13 80/105/13 40/106/13
f 95/107/4 96/108/4 45/13/4 44/17/4
f 96/108/4 93/109/4 42/14/4 45/13/4
f 93/110/3 94/111/3 43/10/3 42/9/3
f 112/112/2 95/113/2 44/6/2 91/5/2
f 102/114/1 97/115/1 41/2/1 66/1/1
f 62/116/14 77/117/14 78/118/14 58/119/14
f 51/120/2 47/121/2 49/122/2 53/123/2
f 54/124/2 50/125/2 48/126/2 52/127/2
f 58/128/2 54/124/2 52/127/2 56/129/2
f 55/130/2 51/120/2 53/123/2 57/131/2
f 100/132/2 99/133/2 54/124/2 58/128/2
f 54/134/14 73/135/14 74/136/14 50/137/14
f 59/138/2 55/130/2 57/131/2 61/139/2
f 62/140/2 58/128/2 56/129/2 60/141/2
f 41/142/2 62/140/2 60/141/2 7/143/2
f 8/144/2 59/138/2 61/139/2 36/145/2
f 97/146/2 101/147/2 62/140/2 41/142/2
f 102/148/3 109/149/3 83/150/3 65/151/3
f 11/82/1 64/99/1 65/102/1 40/83/1
f 46/20/1 66/1/1 63/4/1 10/21/1
f 94/152/1 103/153/1 70/19/1 43/154/1
f 4/155/1 67/81/1 69/84/1 37/156/1
f 43/154/1 70/19/1 68/22/1 3/157/1
f 105/133/2 104/158/2 74/125/2 73/124/2
f 107/147/2 106/132/2 78/128/2 77/140/2
f 98/159/1 104/160/1 72/161/1 49/162/1
f 49/163/13 72/164/13 71/165/13 53/166/13
f 99/167/4 105/168/4 73/169/4 54/170/4
f 100/171/1 106/172/1 76/161/1 57/162/1
f 101/173/4 107/174/4 77/169/4 62/170/4
f 57/175/13 76/176/13 75/177/13 61/178/13
f 110/153/1 108/179/1 79/20/1 82/19/1
f 108/179/1 109/114/1 84/1/1 79/20/1
f 103/180/2 110/181/2 82/182/2 70/183/2
f 40/106/13 80/105/13 81/184/13 69/185/13
f 46/186/14 79/187/14 84/188/14 66/189/14
f 70/190/14 82/191/14 79/187/14 46/186/14
f 98/158/2 111/192/2 87/193/2 50/125/2
f 47/121/2 88/194/2 86/195/2 49/122/2
f 50/125/2 87/193/2 85/196/2 48/126/2
f 111/192/2 112/112/2 91/5/2 87/193/2
f 9/86/4 123/197/4 119/198/4 2/89/4
f 87/193/2 91/5/2 89/8/2 85/196/2
f 88/199/15 114/200/15 116/201/15 86/202/15
f 49/122/2 86/195/2 111/192/2 98/158/2
f 69/203/2 81/204/2 110/181/2 103/180/2
f 80/83/1 83/102/1 109/114/1 108/179/1
f 81/84/1 80/83/1 108/179/1 110/153/1
f 61/205/4 75/206/4 107/174/4 101/173/4
f 58/207/1 78/208/1 106/172/1 100/171/1
f 53/205/4 71/206/4 105/168/4 99/167/4
f 50/207/1 74/208/1 104/160/1 98/159/1
f 75/139/2 76/131/2 106/132/2 107/147/2
f 71/123/2 72/122/2 104/158/2 105/133/2
f 37/156/1 69/84/1 103/153/1 94/152/1
f 66/209/3 84/210/3 109/149/3 102/148/3
f 36/145/2 61/139/2 101/147/2 97/146/2
f 57/131/2 53/123/2 99/133/2 100/132/2
f 65/102/1 36/101/1 97/115/1 102/114/1
f 90/98/2 38/97/2 95/113/2 112/112/2
f 35/94/3 37/93/3 94/111/3 93/110/3
f 39/87/4 35/90/4 93/109/4 96/108/4
f 38/88/4 39/87/4 96/108/4 95/107/4
f 114/194/2 113/95/2 117/98/2 116/211/2
f 116/211/2 117/98/2 118/112/2 115/192/2
f 111/212/14 115/213/14 118/214/14 112/215/14
f 90/216/1 117/217/1 113/218/1 92/219/1
f 86/202/15 116/201/15 115/220/15 111/221/15
f 112/222/1 118/223/1 117/217/1 90/216/1
f 88/194/2 131/224/2 132/225/2 92/95/2
f 67/81/1 130/226/1 124/227/1 11/82/1
f 92/95/2 132/225/2 121/228/2 6/96/2
f 11/82/1 124/227/1 129/229/1 64/99/1
f 88/230/13 92/231/13 113/232/13 114/233/13
f 59/138/2 128/234/2 127/235/2 55/130/2
f 55/130/2 127/235/2 126/236/2 51/120/2
f 8/144/2 122/237/2 128/234/2 59/138/2
f 64/99/1 129/229/1 122/238/1 8/100/1
f 51/120/2 126/236/2 125/239/2 47/121/2
f 4/155/1 120/240/1 130/226/1 67/81/1
f 47/121/2 125/239/2 131/224/2 88/194/2
f 6/85/4 121/241/4 123/197/4 9/86/4
f 2/91/3 119/242/3 120/243/3 4/92/3
f 133/244/2 135/245/2 136/246/2 134/247/2
f 135/248/4 139/249/4 140/250/4 136/251/4
f 139/252/3 137/253/3 138/254/3 140/255/3
f 137/256/1 133/257/1 134/258/1 138/259/1
f 147/260/1 155/261/1 154/262/1 146/263/1
f 144/264/14 142/265/14 141/266/14 143/267/14
f 149/268/2 141/269/2 142/270/2 150/271/2
f 150/272/4 142/273/4 144/274/4 151/275/4
f 152/276/1 143/277/1 141/278/1 149/279/1
f 145/280/13 149/281/13 150/282/13 146/283/13
f 146/283/13 150/282/13 151/284/13 147/285/13
f 147/285/13 151/284/13 152/286/13 148/287/13
f 148/287/13 152/286/13 149/281/13 145/280/13
f 155/285/13 156/287/13 153/280/13 154/283/13
f 148/288/2 156/289/2 155/290/2 147/291/2
f 146/292/3 154/293/3 153/294/3 145/295/3
f 145/296/4 153/297/4 156/298/4 148/299/4
f 157/300/2 159/301/2 160/302/2 158/303/2
f 159/304/4 163/305/4 164/306/4 160/307/4
f 161/308/1 157/309/1 158/310/1 162/311/1
f 164/312/13 162/313/13 158/314/13 160/315/13
f 151/316/3 144/317/3 143/318/3 152/319/3
l 161 163
l 19 20
l 29 27
l 31 33
