# Blender 4.4.1
# www.blender.org
mtllib rail_depot.mtl
o rail_depot
v -11.000000 5.045450 -4.980255
v -11.000000 5.045451 4.980255
v -10.269178 5.045450 -4.980255
v -10.269178 5.045451 4.980255
v 10.269178 5.045450 -4.980255
v 10.269178 5.045451 4.980255
v 11.000000 5.045450 -4.980255
v 11.000000 5.045451 4.980255
v -0.327800 -0.170416 -4.826712
v -4.970689 -0.170416 -4.826712
v -0.327800 4.729495 -4.826712
v -4.970689 4.729495 -4.826712
v -5.669268 -0.170415 4.980255
v -5.669268 4.729496 4.980255
v -5.669268 -0.170415 4.782140
v -5.669268 4.729496 4.782140
v 10.269178 4.856892 -5.069407
v 10.269178 4.729495 -5.069407
v -10.269178 4.856892 -5.069407
v -10.269178 4.729495 -5.069407
v 10.269178 4.856893 5.069407
v 10.269178 4.729496 5.069407
v 10.269178 4.856892 -5.069407
v 10.269178 4.729495 -5.069407
v -10.269178 4.856893 5.069407
v -10.269178 4.729496 5.069407
v 10.269178 4.856893 5.069407
v 10.269178 4.729496 5.069407
v -10.269178 4.856892 -5.069407
v -10.269178 4.729495 -5.069407
v -10.269178 4.856893 5.069407
v -10.269178 4.729496 5.069407
v 10.269178 4.856892 -5.069407
v -10.269178 4.856892 -5.069407
v 10.269178 4.856893 5.069407
v -10.269178 4.856893 5.069407
v -10.269178 4.729496 5.069407
v -10.269178 4.729495 -5.069407
v 10.269178 4.729496 5.069407
v 10.269178 4.729495 -5.069407
v -10.881781 -0.170415 0.859347
v -10.881781 3.389220 0.859346
v -11.000000 -0.170415 0.859347
v -11.000000 3.389220 0.859346
v -10.269178 4.923148 4.980255
v -10.269178 5.045451 4.980255
v -10.301412 4.923148 4.980255
v -11.000000 5.045451 4.980255
v -11.000000 -0.170415 4.980255
v 11.000000 -0.170415 3.548838
v 11.000000 3.389211 3.548838
v 11.000000 -0.170415 4.980255
v 11.000000 5.045451 4.980255
v 11.000000 3.389211 0.532453
v 11.000000 3.389211 -0.879164
v 11.000000 3.389211 -3.994611
v 11.000000 5.045450 -4.980255
v 11.000000 -0.170416 -4.980255
v 5.637034 4.729495 -4.826712
v 5.637034 -0.170416 -4.826712
v 5.637034 4.729495 -4.980255
v 5.637034 -0.170416 -4.980255
v -10.269178 4.729496 4.782140
v -10.269178 4.729495 -4.821758
v -10.269178 4.923148 4.782140
v -10.269178 4.923147 -4.821758
v -10.269178 5.045451 4.980255
v -10.269178 5.045450 -4.980255
v -11.000000 -0.170415 -0.547307
v -11.000000 -0.170415 0.859347
v -11.000000 3.389220 -0.547307
v -11.000000 3.389220 0.859346
v -11.000000 5.045451 4.980255
v -11.000000 3.389220 3.979747
v -11.000000 -0.170415 4.980255
v -11.000000 -0.170415 3.979748
v -11.000000 3.389220 -3.568647
v -11.000000 5.045450 -4.980255
v -11.000000 -0.170416 -4.980255
v 11.000000 -0.170415 -0.879164
v 11.000000 -0.170415 0.532453
v -5.669268 4.729496 4.782140
v -10.269178 4.729496 4.782140
v -5.669268 -0.170415 4.782140
v -10.301421 -0.170415 4.782140
v -10.301412 4.923148 4.782140
v -10.269178 4.923148 4.782140
v 5.637034 4.729496 4.782140
v 5.637034 -0.170415 4.782140
v 10.269178 4.729496 4.782140
v 10.279922 -0.170415 4.782140
v 10.279922 4.923148 4.782140
v 10.269178 4.923147 -4.980255
v 10.269178 4.923147 -4.826712
v 10.269178 5.045450 -4.980255
v 10.269178 5.045451 4.980255
v 10.269178 4.923148 4.782140
v 10.269178 4.923148 4.980255
v 10.269178 4.729496 4.782140
v 10.269178 4.729495 -4.826712
v 10.279922 -0.170415 4.980255
v 11.000000 -0.170415 4.980255
v 10.279922 4.923148 4.980255
v 11.000000 5.045451 4.980255
v 10.269178 5.045451 4.980255
v 10.269178 4.923147 -4.826712
v 10.279922 4.923147 -4.826712
v 10.269178 4.729495 -4.826712
v 10.279922 -0.170416 -4.826712
v 5.637034 -0.170416 -4.826712
v 10.269178 4.923147 -4.980255
v 10.269178 5.045450 -4.980255
v 10.279922 4.923147 -4.980255
v 11.000000 5.045450 -4.980255
v 11.000000 -0.170416 -4.980255
v -10.269178 4.923147 -4.821758
v -10.269178 4.729495 -4.821758
v -10.301412 4.923147 -4.821758
v -10.301421 -0.170416 -4.821758
v -5.658524 -0.170416 -4.821758
v -5.658524 4.729495 -4.821758
v -10.269178 4.923147 -4.980255
v -10.301412 4.923147 -4.980255
v -10.269178 5.045450 -4.980255
v -11.000000 5.045450 -4.980255
v -11.000000 -0.170416 -4.980255
v -10.301421 -0.170416 -4.980255
v 10.903270 3.389211 3.548838
v 10.881781 3.389211 0.532453
v 11.000000 3.389211 3.548838
v 11.000000 3.389211 0.532453
v 11.000000 -0.170415 0.532453
v 11.000000 3.389211 0.532453
v 10.881781 -0.170415 0.532453
v 10.881781 3.389211 0.532453
v 10.903270 3.389211 3.548838
v 11.000000 3.389211 3.548838
v 10.903270 -0.170415 3.548838
v 11.000000 -0.170415 3.548838
v 10.871028 3.389211 -0.879164
v 10.849538 3.389211 -3.994611
v 11.000000 3.389211 -0.879164
v 11.000000 3.389211 -3.994611
v 11.000000 -0.170416 -3.994610
v 11.000000 3.389211 -3.994611
v 10.849538 -0.170416 -3.994610
v 10.849538 3.389211 -3.994611
v 11.000000 3.389211 -0.879164
v 11.000000 -0.170415 -0.879164
v 10.871028 3.389211 -0.879164
v 10.871028 -0.170415 -0.879164
v -10.881781 3.389220 -3.568647
v -10.881781 3.389220 -0.547307
v -11.000000 3.389220 -3.568647
v -11.000000 3.389220 -0.547307
v -11.000000 -0.170415 -0.547307
v -11.000000 3.389220 -0.547307
v -10.881781 -0.170415 -0.547307
v -10.881781 3.389220 -0.547307
v -10.881781 3.389220 -3.568647
v -10.881781 -0.170416 -3.568646
v -10.881781 3.389220 -0.547307
v -10.881781 -0.170415 -0.547307
v -11.000000 3.389220 -3.568647
v -11.000000 -0.170416 -3.568646
v -10.881781 3.389220 -3.568647
v -10.881781 -0.170416 -3.568646
v -10.881781 3.389220 0.859346
v -10.881781 3.389220 3.979747
v -11.000000 3.389220 0.859346
v -11.000000 3.389220 3.979747
v -11.000000 -0.170415 3.979748
v -11.000000 3.389220 3.979747
v -10.881781 -0.170415 3.979748
v -10.881781 3.389220 3.979747
v -10.881781 3.389220 3.979747
v -10.881781 3.389220 0.859346
v -10.881781 -0.170415 3.979748
v -10.881781 -0.170415 0.859347
v 10.881781 3.389211 0.532453
v 10.903270 3.389211 3.548838
v 10.881781 -0.170415 0.532453
v 10.903270 -0.170415 3.548838
v -10.301412 4.923148 4.980255
v -10.301421 -0.170415 4.980255
v -10.301412 4.923148 4.782140
v -10.301421 -0.170415 4.782140
v -10.301412 4.923148 4.980255
v -10.301412 4.923148 4.782140
v -10.269178 4.923148 4.980255
v -10.269178 4.923148 4.782140
v -4.970689 4.729496 4.980255
v -5.669268 4.729496 4.980255
v -4.970689 -0.170415 4.980255
v -5.669268 -0.170415 4.980255
v -4.970689 4.729496 4.980255
v -4.970689 -0.170415 4.980255
v -4.970689 4.729496 4.782140
v -4.970689 -0.170415 4.782140
v -4.970689 -0.170415 4.782140
v -0.327800 -0.170415 4.782140
v -4.970689 4.729496 4.782140
v -0.327800 4.729496 4.782140
v -0.327800 -0.170415 4.980255
v -0.327800 4.729496 4.980255
v -0.327800 -0.170415 4.782140
v -0.327800 4.729496 4.782140
v 0.317046 4.729496 4.980255
v -0.327800 4.729496 4.980255
v 0.317046 -0.170415 4.980255
v -0.327800 -0.170415 4.980255
v 0.317046 4.729496 4.980255
v 0.317046 -0.170415 4.980255
v 0.317046 4.729496 4.782140
v 0.317046 -0.170415 4.782140
v 0.317046 -0.170415 4.782140
v 4.949190 -0.170415 4.782140
v 0.317046 4.729496 4.782140
v 4.949190 4.729496 4.782140
v 4.949190 -0.170415 4.980255
v 4.949190 4.729496 4.980255
v 4.949190 -0.170415 4.782140
v 4.949190 4.729496 4.782140
v 5.637034 4.729496 4.980255
v 4.949190 4.729496 4.980255
v 5.637034 -0.170415 4.980255
v 4.949190 -0.170415 4.980255
v 10.279922 -0.170415 4.980255
v 10.279922 4.923148 4.980255
v 10.279922 -0.170415 4.782140
v 10.279922 4.923148 4.782140
v 5.637034 4.729496 4.980255
v 5.637034 -0.170415 4.980255
v 5.637034 4.729496 4.782140
v 5.637034 -0.170415 4.782140
v 10.269178 4.923148 4.980255
v 10.269178 4.923148 4.782140
v 10.279922 4.923148 4.980255
v 10.279922 4.923148 4.782140
v -4.970689 4.729495 -4.826712
v -4.970689 -0.170416 -4.826712
v -4.970689 4.729495 -4.980255
v -4.970689 -0.170416 -4.980255
v 10.849538 3.389211 -3.994611
v 10.871028 3.389211 -0.879164
v 10.849538 -0.170416 -3.994610
v 10.871028 -0.170415 -0.879164
v -10.301421 -0.170416 -4.980255
v -10.301412 4.923147 -4.980255
v -10.301421 -0.170416 -4.821758
v -10.301412 4.923147 -4.821758
v 4.949190 4.729495 -4.980255
v 5.637034 4.729495 -4.980255
v 4.949190 -0.170416 -4.980255
v 5.637034 -0.170416 -4.980255
v 0.317046 -0.170416 -4.980255
v 0.317046 4.729495 -4.980255
v 0.317046 -0.170416 -4.826712
v 0.317046 4.729495 -4.826712
v 4.949190 -0.170416 -4.826712
v 0.317046 -0.170416 -4.826712
v 4.949190 4.729495 -4.826712
v 0.317046 4.729495 -4.826712
v 4.949190 4.729495 -4.980255
v 4.949190 -0.170416 -4.980255
v 4.949190 4.729495 -4.826712
v 4.949190 -0.170416 -4.826712
v -0.327800 4.729495 -4.980255
v 0.317046 4.729495 -4.980255
v -0.327800 -0.170416 -4.980255
v 0.317046 -0.170416 -4.980255
v -10.301412 4.923147 -4.821758
v -10.301412 4.923147 -4.980255
v -10.269178 4.923147 -4.821758
v -10.269178 4.923147 -4.980255
v 10.279922 4.923147 -4.980255
v 10.279922 -0.170416 -4.980255
v 10.279922 4.923147 -4.826712
v 10.279922 -0.170416 -4.826712
v -5.658524 4.729495 -4.980255
v -4.970689 4.729495 -4.980255
v -5.658524 -0.170416 -4.980255
v -4.970689 -0.170416 -4.980255
v -5.658524 -0.170416 -4.821758
v -5.658524 4.729495 -4.821758
v -5.658524 -0.170416 -4.980255
v -5.658524 4.729495 -4.980255
v 10.279922 4.923147 -4.980255
v 10.279922 4.923147 -4.826712
v 10.269178 4.923147 -4.980255
v 10.269178 4.923147 -4.826712
v -0.327800 4.729495 -4.980255
v -0.327800 -0.170416 -4.980255
v -0.327800 4.729495 -4.826712
v -0.327800 -0.170416 -4.826712
v 10.279922 -0.170416 -4.980255
v 5.637034 4.729495 -4.826712
v 10.269178 4.923148 4.980255
v 10.269178 4.923148 4.782140
v -10.301421 -0.170415 4.980255
v -10.269178 4.923148 4.980255
v -10.269178 4.923147 -4.980255
v -11.000000 -0.170416 -3.568646
v 11.000000 -0.170416 -3.994610
vn -0.0000 1.0000 -0.0000
vn -0.0000 -0.0000 -1.0000
vn -1.0000 -0.0000 -0.0000
vn 1.0000 -0.0000 -0.0000
vn -0.0000 -0.0000 1.0000
vn -0.0000 -1.0000 -0.0000
vn 1.0000 -0.0000 -0.0071
vn 1.0000 -0.0000 -0.0069
vt 0.149430 0.447197
vt 0.395432 0.447197
vt 0.149430 0.480160
vt 0.395432 0.480160
vt 0.465020 0.480282
vt 0.219019 0.480282
vt 0.465020 0.447319
vt 0.219019 0.447319
vt 0.519714 0.499572
vt 0.720300 0.499572
vt 0.519714 0.960443
vt 0.720300 0.960443
vt 0.261260 0.024173
vt 0.261260 0.476376
vt 0.279573 0.024173
vt 0.279573 0.476376
vt 0.959831 0.984860
vt 0.959831 0.973384
vt 0.039066 0.984860
vt 0.039066 0.973384
vt 0.397019 0.982418
vt 0.397019 0.972285
vt 0.713829 0.982418
vt 0.713829 0.972285
vt 0.038699 0.984860
vt 0.038699 0.973384
vt 0.959586 0.984860
vt 0.959586 0.973384
vt 0.397141 0.982418
vt 0.397141 0.972285
vt 0.713951 0.982418
vt 0.713951 0.972285
vt 0.502744 0.002686
vt 0.999386 0.002686
vt 0.502744 0.494688
vt 0.999386 0.494688
vt 0.502744 0.495055
vt 0.502744 0.003052
vt 0.999386 0.495055
vt 0.999386 0.003052
vt 0.264068 0.003052
vt 0.264068 0.329263
vt 0.267365 0.003052
vt 0.267365 0.329263
vt 0.034182 0.980709
vt 0.034182 0.992307
vt 0.032961 0.980709
vt 0.003173 0.992307
vt 0.003173 0.497985
vt 0.072273 0.001831
vt 0.072273 0.337443
vt 0.000853 0.001831
vt 0.000853 0.493590
vt 0.223048 0.337443
vt 0.293491 0.337443
vt 0.449271 0.337443
vt 0.498349 0.493590
vt 0.498349 0.001831
vt 0.278718 0.464167
vt 0.278718 0.011842
vt 0.260772 0.464167
vt 0.260772 0.011842
vt 0.485653 0.457697
vt 0.029299 0.457697
vt 0.485653 0.476009
vt 0.029299 0.476009
vt 0.495053 0.487485
vt 0.021852 0.487485
vt 0.222437 0.001831
vt 0.292758 0.001831
vt 0.222437 0.337443
vt 0.292758 0.337443
vt 0.498594 0.493590
vt 0.448661 0.337443
vt 0.498594 0.001831
vt 0.448661 0.001831
vt 0.071540 0.337443
vt 0.000975 0.493590
vt 0.000975 0.001831
vt 0.293491 0.001831
vt 0.223048 0.001831
vt 0.241116 0.961541
vt 0.042484 0.961541
vt 0.241116 0.494933
vt 0.041263 0.494933
vt 0.041263 0.980098
vt 0.042484 0.980098
vt 0.760344 0.956780
vt 0.760344 0.500548
vt 0.961540 0.956780
vt 0.961906 0.500548
vt 0.961906 0.974971
vt 0.008300 0.466731
vt 0.015625 0.466731
vt 0.008300 0.455255
vt 0.481502 0.455255
vt 0.472223 0.466731
vt 0.481502 0.466731
vt 0.472223 0.485166
vt 0.015625 0.485166
vt 0.966667 0.497985
vt 0.996822 0.497985
vt 0.966667 0.984249
vt 0.996822 0.995847
vt 0.966423 0.995847
vt 0.041141 0.978633
vt 0.040897 0.978633
vt 0.041141 0.960198
vt 0.040897 0.497985
vt 0.241482 0.497985
vt 0.965691 0.985470
vt 0.965691 0.997190
vt 0.965935 0.985470
vt 0.996456 0.997190
vt 0.996456 0.497496
vt 0.960197 0.974116
vt 0.960197 0.956048
vt 0.961296 0.974116
vt 0.961296 0.500548
vt 0.759001 0.500548
vt 0.759001 0.956048
vt 0.034671 0.982174
vt 0.033572 0.982174
vt 0.034671 0.993772
vt 0.003539 0.993772
vt 0.003539 0.497496
vt 0.033572 0.497496
vt 0.172627 0.382614
vt 0.289584 0.382614
vt 0.172627 0.377243
vt 0.289584 0.376388
vt 0.278108 0.003052
vt 0.278108 0.329263
vt 0.281282 0.003052
vt 0.281282 0.329263
vt 0.266876 0.329263
vt 0.266876 0.003052
vt 0.172627 0.375900
vt 0.289584 0.374923
vt 0.277375 0.003052
vt 0.277375 0.329263
vt 0.267487 0.329263
vt 0.267487 0.003052
vt 0.172627 0.376266
vt 0.289584 0.376266
vt 0.277986 0.003052
vt 0.277986 0.329263
vt 0.074104 0.333780
vt 0.074104 0.000122
vt 0.220118 0.333780
vt 0.220118 0.000122
vt 0.446341 0.331827
vt 0.297031 0.331827
vt 0.446341 0.000366
vt 0.297031 0.000366
vt 0.219996 0.333780
vt 0.219996 0.000244
vt 0.074104 0.000244
vt 0.279695 0.479672
vt 0.279695 0.009523
vt 0.261260 0.479672
vt 0.261260 0.009523
vt 0.760100 0.000000
vt -0.000002 0.000000
vt 0.760100 0.006104
vt -0.000002 0.006104
vt 0.275788 0.936026
vt 0.244168 0.936026
vt 0.275788 0.497985
vt 0.244168 0.497985
vt 0.279329 0.465388
vt 0.279329 0.013185
vt 0.260894 0.465388
vt 0.260894 0.013185
vt 0.280183 0.497374
vt 0.482600 0.497374
vt 0.280183 0.959466
vt 0.482600 0.959466
vt 0.261016 0.016848
vt 0.261016 0.469050
vt 0.279329 0.016848
vt 0.279329 0.469050
vt 0.514342 0.936026
vt 0.485042 0.936026
vt 0.514342 0.497985
vt 0.485042 0.497985
vt 0.279695 0.480038
vt 0.279695 0.027835
vt 0.261382 0.480038
vt 0.261382 0.027835
vt 0.520203 0.498961
vt 0.720422 0.498961
vt 0.520203 0.960321
vt 0.720422 0.960321
vt 0.261749 0.013185
vt 0.261749 0.465388
vt 0.280061 0.013185
vt 0.280061 0.465388
vt 0.754850 0.936026
vt 0.723718 0.936026
vt 0.754850 0.497985
vt 0.723718 0.497985
vt 0.261138 0.013185
vt 0.261138 0.483457
vt 0.279451 0.013185
vt 0.279451 0.483457
vt 0.279329 0.472713
vt 0.279329 0.020510
vt 0.260894 0.472713
vt 0.260894 0.020510
vt 0.760100 0.998777
vt -0.000002 0.998777
vt 0.760100 0.999998
vt -0.000002 0.999998
vt 0.279573 0.460505
vt 0.279573 0.015627
vt 0.261627 0.460505
vt 0.261627 0.015627
vt 0.446341 0.001099
vt 0.297031 0.001099
vt 0.261382 0.000855
vt 0.261382 0.467463
vt 0.279451 0.000855
vt 0.279451 0.467463
vt 0.723962 0.935659
vt 0.755094 0.935659
vt 0.723962 0.497496
vt 0.755094 0.497496
vt 0.261504 0.000855
vt 0.261504 0.475155
vt 0.279207 0.000855
vt 0.279207 0.475155
vt 0.279207 0.497618
vt 0.482967 0.497618
vt 0.279207 0.960809
vt 0.482967 0.960809
vt 0.279573 0.464167
vt 0.279573 0.004517
vt 0.261382 0.464167
vt 0.261382 0.004517
vt 0.485408 0.935659
vt 0.514709 0.935659
vt 0.485408 0.497496
vt 0.514709 0.497496
vt 0.999997 0.000000
vt 0.883650 0.000000
vt 0.999997 0.005616
vt 0.883650 0.005616
vt 0.279939 0.471126
vt 0.279939 0.000855
vt 0.261627 0.471126
vt 0.261627 0.000855
vt 0.244657 0.935659
vt 0.276033 0.935659
vt 0.244657 0.497496
vt 0.276033 0.497496
vt 0.261016 0.015627
vt 0.261016 0.467830
vt 0.279695 0.015627
vt 0.279695 0.467830
vt 0.403245 0.999998
vt 0.999997 0.999998
vt 0.403245 0.998777
vt 0.999997 0.998777
vt 0.279085 0.467830
vt 0.279085 0.015627
vt 0.261382 0.467830
vt 0.261382 0.015627
vt 0.965935 0.497496
vt 0.241482 0.960198
vt 0.966423 0.984249
vt 0.961540 0.974971
vt 0.032961 0.497985
vt 0.495053 0.476009
vt 0.021852 0.476009
vt 0.071540 0.001831
vt 0.449271 0.001831
s 0
usemtl TexMap
f 1/1/1 2/2/1 3/3/1
f 2/2/1 4/4/1 3/3/1
f 5/5/1 6/6/1 7/7/1
f 6/6/1 8/8/1 7/7/1
f 9/9/2 10/10/2 11/11/2
f 10/10/2 12/12/2 11/11/2
f 13/13/3 14/14/3 15/15/3
f 14/14/3 16/16/3 15/15/3
f 17/17/2 18/18/2 19/19/2
f 18/18/2 20/20/2 19/19/2
f 21/21/4 22/22/4 23/23/4
f 22/22/4 24/24/4 23/23/4
f 25/25/5 26/26/5 27/27/5
f 26/26/5 28/28/5 27/27/5
f 29/29/3 30/30/3 31/31/3
f 30/30/3 32/32/3 31/31/3
f 33/33/1 34/34/1 35/35/1
f 34/34/1 36/36/1 35/35/1
f 37/37/6 38/38/6 39/39/6
f 38/38/6 40/40/6 39/39/6
f 41/41/5 42/42/5 43/43/5
f 42/42/5 44/44/5 43/43/5
f 45/45/5 46/46/5 47/47/5
f 46/46/5 48/48/5 47/47/5
f 47/47/5 48/48/5 49/49/5
f 50/50/4 51/51/4 52/52/4
f 51/51/4 53/53/4 52/52/4
f 51/51/4 54/54/4 53/53/4
f 54/54/4 55/55/4 53/53/4
f 53/53/4 55/55/4 56/56/4
f 53/53/4 56/56/4 57/57/4
f 56/56/4 58/58/4 57/57/4
f 59/59/4 60/60/4 61/61/4
f 60/60/4 62/62/4 61/61/4
f 63/63/4 64/64/4 65/65/4
f 64/64/4 66/66/4 65/65/4
f 65/65/4 66/66/4 67/67/4
f 66/66/4 68/68/4 67/67/4
f 69/69/3 70/70/3 71/71/3
f 70/70/3 72/72/3 71/71/3
f 71/71/3 72/72/3 73/73/3
f 72/72/3 74/74/3 73/73/3
f 73/73/3 74/74/3 75/75/3
f 74/74/3 76/76/3 75/75/3
f 71/71/3 73/73/3 77/77/3
f 73/73/3 78/78/3 77/77/3
f 77/77/3 78/78/3 79/79/3
f 55/55/4 54/54/4 80/80/4
f 54/54/4 81/81/4 80/80/4
f 82/82/5 83/83/5 84/84/5
f 83/83/5 85/85/5 84/84/5
f 85/85/5 83/83/5 86/86/5
f 83/83/5 87/87/5 86/86/5
f 88/88/5 89/89/5 90/90/5
f 89/89/5 91/91/5 90/90/5
f 90/90/5 91/91/5 92/92/5
f 93/93/3 94/94/3 95/95/3
f 94/94/3 96/96/3 95/95/3
f 94/94/3 97/97/3 96/96/3
f 97/97/3 98/98/3 96/96/3
f 97/97/3 94/94/3 99/99/3
f 94/94/3 100/100/3 99/99/3
f 101/101/5 102/102/5 103/103/5
f 102/102/5 104/104/5 103/103/5
f 103/103/5 104/104/5 105/105/5
f 106/106/2 107/107/2 108/108/2
f 107/107/2 109/109/2 108/108/2
f 108/108/2 109/109/2 110/110/2
f 111/111/2 112/112/2 113/113/2
f 112/112/2 114/114/2 113/113/2
f 113/113/2 114/114/2 115/115/2
f 116/116/2 117/117/2 118/118/2
f 117/117/2 119/119/2 118/118/2
f 119/119/2 117/117/2 120/120/2
f 117/117/2 121/121/2 120/120/2
f 122/122/2 123/123/2 124/124/2
f 123/123/2 125/125/2 124/124/2
f 125/125/2 123/123/2 126/126/2
f 123/123/2 127/127/2 126/126/2
f 128/128/6 129/129/6 130/130/6
f 129/129/6 131/131/6 130/130/6
f 132/132/5 133/133/5 134/134/5
f 133/133/5 135/135/5 134/134/5
f 136/42/2 137/136/2 138/41/2
f 137/136/2 139/137/2 138/41/2
f 140/128/6 141/129/6 142/138/6
f 141/129/6 143/139/6 142/138/6
f 144/140/5 145/141/5 146/134/5
f 145/141/5 147/135/5 146/134/5
f 148/142/2 149/143/2 150/42/2
f 149/143/2 151/41/2 150/42/2
f 152/128/6 153/129/6 154/144/6
f 153/129/6 155/145/6 154/144/6
f 156/146/2 157/147/2 158/134/2
f 157/147/2 159/135/2 158/134/2
f 160/148/3 161/149/3 162/150/3
f 161/149/3 163/151/3 162/150/3
f 164/44/5 165/43/5 166/42/5
f 165/43/5 167/41/5 166/42/5
f 168/128/6 169/129/6 170/144/6
f 169/129/6 171/145/6 170/144/6
f 172/146/2 173/147/2 174/134/2
f 173/147/2 175/135/2 174/134/2
f 176/152/3 177/153/3 178/154/3
f 177/153/3 179/155/3 178/154/3
f 180/156/7 181/148/7 182/157/7
f 181/148/7 183/158/7 182/157/7
f 184/159/4 185/160/4 186/161/4
f 185/160/4 187/162/4 186/161/4
f 188/163/6 189/164/6 190/165/6
f 189/164/6 191/166/6 190/165/6
f 192/167/5 193/168/5 194/169/5
f 193/168/5 195/170/5 194/169/5
f 196/171/4 197/172/4 198/173/4
f 197/172/4 199/174/4 198/173/4
f 200/175/5 201/176/5 202/177/5
f 201/176/5 203/178/5 202/177/5
f 204/179/3 205/180/3 206/181/3
f 205/180/3 207/182/3 206/181/3
f 208/183/5 209/184/5 210/185/5
f 209/184/5 211/186/5 210/185/5
f 212/187/4 213/188/4 214/189/4
f 213/188/4 215/190/4 214/189/4
f 216/191/5 217/192/5 218/193/5
f 217/192/5 219/194/5 218/193/5
f 220/195/3 221/196/3 222/197/3
f 221/196/3 223/198/3 222/197/3
f 224/199/5 225/200/5 226/201/5
f 225/200/5 227/202/5 226/201/5
f 228/203/3 229/204/3 230/205/3
f 229/204/3 231/206/3 230/205/3
f 232/207/4 233/208/4 234/209/4
f 233/208/4 235/210/4 234/209/4
f 236/211/6 237/212/6 238/213/6
f 237/212/6 239/214/6 238/213/6
f 240/215/4 241/216/4 242/217/4
f 241/216/4 243/218/4 242/217/4
f 244/152/8 245/153/8 246/219/8
f 245/153/8 247/220/8 246/219/8
f 248/221/4 249/222/4 250/223/4
f 249/222/4 251/224/4 250/223/4
f 252/225/2 253/226/2 254/227/2
f 253/226/2 255/228/2 254/227/2
f 256/229/4 257/230/4 258/231/4
f 257/230/4 259/232/4 258/231/4
f 260/233/2 261/234/2 262/235/2
f 261/234/2 263/236/2 262/235/2
f 264/237/3 265/238/3 266/239/3
f 265/238/3 267/240/3 266/239/3
f 268/241/2 269/242/2 270/243/2
f 269/242/2 271/244/2 270/243/2
f 272/245/6 273/246/6 274/247/6
f 273/246/6 275/248/6 274/247/6
f 276/249/3 277/250/3 278/251/3
f 277/250/3 279/252/3 278/251/3
f 280/253/2 281/254/2 282/255/2
f 281/254/2 283/256/2 282/255/2
f 284/257/3 285/258/3 286/259/3
f 285/258/3 287/260/3 286/259/3
f 288/261/6 289/262/6 290/263/6
f 289/262/6 291/264/6 290/263/6
f 292/265/3 293/266/3 294/267/3
f 293/266/3 295/268/3 294/267/3
f 115/115/2 296/269/2 113/113/2
f 110/110/2 297/270/2 108/108/2
f 103/103/5 105/105/5 298/271/5
f 90/90/5 92/92/5 299/272/5
f 49/49/5 300/273/5 47/47/5
f 67/67/4 301/274/4 65/65/4
f 68/68/4 66/66/4 302/275/4
f 79/79/3 303/276/3 77/77/3
f 56/56/4 304/277/4 58/58/4
