# Blender 4.4.1
# www.blender.org
mtllib watchtower.mtl
o watchtower
v -0.783924 3.776439 0.825992
v -0.783924 3.992288 0.825992
v 0.787437 3.776439 0.825993
v 0.787437 3.992288 0.825993
v -0.783924 3.776439 0.864805
v -0.783924 3.992288 0.864805
v 0.787437 3.776439 0.864805
v 0.787437 3.992288 0.864805
v -0.783924 3.119639 0.825992
v -0.783924 3.335488 0.825992
v 0.786636 3.112812 0.828459
v 0.786636 3.328662 0.828459
v -0.797465 3.119639 0.864805
v -0.797465 3.335488 0.864805
v 0.786636 3.112812 0.867271
v 0.786636 3.328662 0.867271
v -0.783924 3.336807 0.825992
v -0.783924 3.552656 0.825992
v 0.787437 3.336807 0.825993
v 0.787437 3.552656 0.825993
v -0.783924 3.336807 0.864805
v -0.783924 3.552656 0.864805
v 0.787437 3.336807 0.864805
v 0.787437 3.552656 0.864805
v -0.783924 3.557506 0.825992
v -0.783924 3.773355 0.825992
v 0.787437 3.557506 0.825993
v 0.787437 3.773355 0.825993
v -0.770671 3.557506 0.864805
v -0.770671 3.773355 0.864805
v 0.764330 3.557506 0.864805
v 0.764330 3.773355 0.864805
v 0.452228 3.776439 0.825993
v -0.448715 3.776439 0.825992
v -0.448715 3.992288 0.825992
v 0.452228 3.992288 0.825993
v -0.448715 3.776439 0.864805
v 0.452228 3.776439 0.864805
v 0.452228 3.992288 0.864805
v -0.448715 3.992288 0.864805
v 0.452228 3.557506 0.825993
v -0.448715 3.557506 0.825992
v -0.448715 3.773355 0.825992
v 0.452228 3.773355 0.825993
v -0.435462 3.557506 0.864805
v 0.429121 3.557506 0.864805
v 0.429121 3.773355 0.864805
v -0.435462 3.773355 0.864805
v 0.452228 3.336807 0.825993
v -0.448715 3.336807 0.825992
v -0.448715 3.552656 0.825992
v 0.452228 3.552656 0.825993
v -0.448715 3.336807 0.864805
v 0.452228 3.336807 0.864805
v 0.452228 3.552656 0.864805
v -0.448715 3.552656 0.864805
v 0.451427 3.112812 0.828458
v -0.448715 3.119639 0.825992
v -0.448715 3.335488 0.825992
v 0.451427 3.328662 0.828458
v -0.462256 3.119639 0.864805
v 0.451427 3.112812 0.867271
v 0.451427 3.328662 0.867271
v -0.462256 3.335488 0.864805
v -0.827767 3.066009 0.872580
v -0.827767 3.126932 0.872580
v -0.827767 3.066009 -0.783140
v -0.827767 3.126932 -0.783140
v 0.827953 3.066009 0.872580
v 0.827953 3.126932 0.872580
v 0.827953 3.066009 -0.783140
v 0.827953 3.126932 -0.783140
v 0.552000 3.066009 -0.783140
v 0.276046 3.066009 -0.783140
v 0.000093 3.066009 -0.783140
v -0.275861 3.066009 -0.783140
v -0.551814 3.066009 -0.783140
v -0.551814 3.126932 -0.783140
v -0.276161 3.121726 -0.780886
v 0.000093 3.126932 -0.783140
v 0.276046 3.126932 -0.783140
v 0.551693 3.121630 -0.780844
v -0.551814 3.066009 0.872580
v -0.275860 3.066009 0.872580
v 0.000093 3.066009 0.872580
v 0.276046 3.066009 0.872580
v 0.552000 3.066009 0.872580
v 0.556374 3.117059 0.877516
v 0.280727 3.122361 0.875220
v 0.000093 3.126932 0.872580
v -0.276161 3.121726 0.874835
v -0.551814 3.126932 0.872580
v 0.788734 3.119639 0.872580
v 0.788734 3.335488 0.872580
v 0.788734 3.119639 -0.804378
v 0.788734 3.335488 -0.804378
v 0.827546 3.119639 0.872580
v 0.827546 3.335488 0.872580
v 0.827546 3.119639 -0.804378
v 0.827546 3.335488 -0.804378
v 0.788734 3.336806 0.881242
v 0.788734 3.552656 0.881242
v 0.788734 3.336806 -0.783140
v 0.788734 3.552656 -0.783140
v 0.827546 3.336806 0.881242
v 0.827546 3.552656 0.881242
v 0.827546 3.336806 -0.783140
v 0.827546 3.552656 -0.783140
v 0.788734 3.557505 0.884459
v 0.788734 3.773355 0.884459
v 0.788734 3.557505 -0.795019
v 0.788734 3.773355 -0.795019
v 0.827546 3.557505 0.884459
v 0.827546 3.773355 0.884459
v 0.827546 3.557505 -0.795019
v 0.827546 3.773355 -0.795019
v 0.788734 3.776438 0.872580
v 0.788734 3.992288 0.872580
v 0.789437 3.776438 -0.783141
v 0.789437 3.992288 -0.783141
v 0.827546 3.776438 0.872580
v 0.827546 3.992288 0.872580
v 0.828249 3.776438 -0.783141
v 0.828249 3.992288 -0.783141
v -0.824050 3.116279 0.872427
v -0.823586 3.332126 0.873315
v -0.822298 3.123082 -0.783279
v -0.821835 3.338929 -0.782391
v -0.785238 3.116196 0.872468
v -0.784774 3.332043 0.873355
v -0.783486 3.122998 -0.783238
v -0.783023 3.338845 -0.782351
v -0.831747 3.332080 0.858375
v -0.831095 3.547925 0.859624
v -0.829277 3.341652 -0.797316
v -0.828625 3.557497 -0.796067
v -0.792934 3.331962 0.858432
v -0.792283 3.547807 0.859681
v -0.790465 3.341535 -0.797259
v -0.789813 3.557379 -0.796010
v -0.799909 3.557505 0.872580
v -0.799909 3.773355 0.872580
v -0.799909 3.557505 -0.783141
v -0.799909 3.773355 -0.783141
v -0.761096 3.557505 0.872580
v -0.761096 3.773355 0.872580
v -0.761096 3.557505 -0.783141
v -0.761096 3.773355 -0.783141
v -0.823109 3.776438 0.852873
v -0.823109 3.992288 0.852873
v -0.823109 3.776438 -0.802848
v -0.823109 3.992288 -0.802848
v -0.784296 3.776438 0.852873
v -0.784296 3.992288 0.852873
v -0.784296 3.776438 -0.802848
v -0.784296 3.992288 -0.802848
v -0.783924 3.119639 -0.780145
v -0.783924 3.335488 -0.780145
v 0.787437 3.119639 -0.780145
v 0.787437 3.335488 -0.780145
v -0.783924 3.119639 -0.741333
v -0.783924 3.335488 -0.741333
v 0.787437 3.119639 -0.741333
v 0.787437 3.335488 -0.741333
v -0.783515 3.330900 -0.785730
v -0.785313 3.546669 -0.780119
v 0.787764 3.343746 -0.776130
v 0.785966 3.559515 -0.770520
v -0.783744 3.329889 -0.746931
v -0.785542 3.545658 -0.741321
v 0.787536 3.342736 -0.737332
v 0.785737 3.558505 -0.731722
v -0.783132 3.547022 -0.790265
v -0.786380 3.762613 -0.780215
v 0.787966 3.569875 -0.772818
v 0.784719 3.785465 -0.762769
v -0.783536 3.545209 -0.751496
v -0.786784 3.760800 -0.741447
v 0.787562 3.568062 -0.734051
v 0.784314 3.783652 -0.724001
v -0.783641 3.772210 -0.784114
v -0.784920 3.988018 -0.780110
v 0.787679 3.781400 -0.777300
v 0.786399 3.997208 -0.773296
v -0.783805 3.771489 -0.745309
v -0.785084 3.987298 -0.741305
v 0.787515 3.780679 -0.738495
v 0.786235 3.996487 -0.734491
v -0.778026 -0.337961 -0.621700
v -0.778026 4.803155 -0.621700
v -0.778026 -0.337961 -0.740283
v -0.778026 4.803155 -0.740284
v -0.659442 -0.337961 -0.621700
v -0.659442 4.803155 -0.621700
v -0.659442 -0.337961 -0.740283
v -0.659442 4.803155 -0.740284
v 0.662876 -0.337961 -0.621700
v 0.662876 4.803155 -0.621700
v 0.662876 -0.337961 -0.740283
v 0.662876 4.803155 -0.740284
v 0.781460 -0.337961 -0.621700
v 0.781460 4.803155 -0.621700
v 0.781460 -0.337961 -0.740283
v 0.781460 4.803155 -0.740284
v -0.778026 -0.337961 0.827159
v -0.778026 4.803155 0.827158
v -0.778026 -0.337961 0.708575
v -0.778026 4.803155 0.708574
v -0.659442 -0.337961 0.827159
v -0.659442 4.803155 0.827158
v -0.659442 -0.337961 0.708575
v -0.659442 4.803155 0.708574
v 0.662876 -0.337961 0.827159
v 0.662876 4.803155 0.827158
v 0.662876 -0.337961 0.708575
v 0.662876 4.803155 0.708574
v 0.781460 -0.337961 0.827159
v 0.781460 4.803155 0.827158
v 0.781460 -0.337961 0.708575
v 0.781460 4.803155 0.708574
v -1.038401 4.700213 1.060134
v -0.064766 5.401211 0.086499
v -1.038401 4.700213 -0.999753
v -0.064766 5.401211 -0.026119
v 1.021486 4.700213 1.060134
v 0.042224 5.395564 0.084158
v 1.021486 4.700213 -0.999753
v 0.047851 5.401211 -0.026119
v -1.038401 4.611938 -0.999753
v -1.038401 4.611938 1.060134
v 1.021486 4.611938 -0.999753
v 1.021486 4.611938 1.060134
v -0.764708 4.875463 0.840386
v -0.548092 5.045284 0.578020
v -0.308175 5.225962 0.329908
v -0.308175 5.225962 -0.269527
v -0.548092 5.045284 -0.508232
v -0.777505 4.875463 -0.742682
v 0.291260 5.225962 -0.269527
v 0.534668 5.050713 -0.512936
v 0.778077 4.875463 -0.756344
v 0.285633 5.220315 0.327567
v 0.534668 5.050713 0.573316
v 0.790873 4.875463 0.826723
v 0.194268 -0.337961 0.922912
v 0.194268 3.308322 0.922912
v 0.194268 -0.337961 0.888368
v 0.194268 3.308322 0.888368
v 0.279925 -0.337961 0.922912
v 0.279925 3.308322 0.922912
v 0.279925 -0.337961 0.888368
v 0.279925 3.308322 0.888368
v -0.251031 -0.337961 0.922912
v -0.251031 3.308322 0.922912
v -0.251031 -0.337961 0.888368
v -0.251031 3.308322 0.888368
v -0.165374 -0.337961 0.922912
v -0.165374 3.308322 0.922912
v -0.165374 -0.337961 0.888368
v -0.165374 3.308322 0.888368
v -0.296220 0.006020 0.953304
v 0.296514 0.025029 0.949724
v -0.296423 0.005845 0.918760
v 0.296311 0.024854 0.915181
v -0.293472 -0.079592 0.953721
v 0.299262 -0.060584 0.950141
v -0.293675 -0.079767 0.919177
v 0.299059 -0.060758 0.915598
v -0.293113 0.371039 0.949953
v 0.299361 0.345328 0.954639
v -0.292830 0.371264 0.915411
v 0.299644 0.345554 0.920097
v -0.296822 0.285464 0.949364
v 0.295652 0.259754 0.954050
v -0.296539 0.285690 0.914822
v 0.295935 0.259979 0.919508
v -0.296721 0.718825 0.954139
v 0.295564 0.748412 0.948525
v -0.297035 0.718550 0.919597
v 0.295250 0.748138 0.913983
v -0.292441 0.633277 0.954781
v 0.299843 0.662865 0.949167
v -0.292755 0.633002 0.920239
v 0.299530 0.662590 0.914626
v -0.289193 1.106198 0.947321
v 0.300294 1.042283 0.958640
v -0.288472 1.106736 0.912789
v 0.301015 1.042822 0.924107
v -0.298396 1.021050 0.945802
v 0.291091 0.957136 0.957121
v -0.297675 1.021588 0.911269
v 0.291813 0.957674 0.922588
v -0.295095 1.423198 0.951844
v 0.297955 1.423198 0.951844
v -0.295095 1.423198 0.917300
v 0.297955 1.423198 0.917300
v -0.295095 1.337541 0.951844
v 0.297955 1.337541 0.951844
v -0.295095 1.337541 0.917300
v 0.297955 1.337541 0.917300
v -0.293049 1.779758 0.949900
v 0.299392 1.753311 0.954718
v -0.292757 1.779990 0.915358
v 0.299683 1.753544 0.920176
v -0.296864 1.694188 0.949294
v 0.295577 1.667742 0.954111
v -0.296572 1.694420 0.914752
v 0.295868 1.667974 0.919569
v -0.296703 2.127403 0.954105
v 0.295604 2.156567 0.948573
v -0.297012 2.127132 0.919563
v 0.295295 2.156296 0.914031
v -0.292484 2.041852 0.954738
v 0.299822 2.071017 0.949206
v -0.292794 2.041581 0.920196
v 0.299513 2.070746 0.914665
v -0.311357 2.485307 0.951844
v 0.316576 2.485307 0.951844
v -0.311357 2.485307 0.917300
v 0.316576 2.485307 0.917300
v -0.311357 2.399650 0.951844
v 0.316576 2.399650 0.951844
v -0.311357 2.399650 0.917300
v 0.316576 2.399650 0.917300
v -0.293456 2.836056 0.950241
v 0.299183 2.814350 0.954209
v -0.293218 2.836247 0.915698
v 0.299421 2.814541 0.919666
v -0.296588 2.750458 0.949746
v 0.296051 2.728752 0.953713
v -0.296350 2.750649 0.915203
v 0.296289 2.728943 0.919170
v -0.294273 3.175755 0.950986
v 0.298661 3.164253 0.953104
v -0.294148 3.175857 0.916442
v 0.298786 3.164356 0.918560
v -0.295934 3.090115 0.950726
v 0.297001 3.078613 0.952844
v -0.295808 3.090217 0.916182
v 0.297126 3.078715 0.918300
v -0.821192 1.500502 0.894497
v -0.818508 1.714563 0.923340
v -0.812314 1.730504 -0.813332
v -0.809630 1.944565 -0.784489
v -0.782383 1.499997 0.894631
v -0.779699 1.714058 0.923474
v -0.773506 1.729999 -0.813198
v -0.770821 1.944060 -0.784356
v -0.824336 0.913750 0.881320
v -0.801696 1.120478 0.822906
v -0.814592 0.444180 -0.776712
v -0.791952 0.650908 -0.835126
v -0.785738 0.909895 0.882639
v -0.763098 1.116623 0.824225
v -0.775994 0.440325 -0.775393
v -0.753354 0.647053 -0.833808
v 0.761463 2.306956 0.904332
v 0.764147 2.522777 0.913022
v 0.770340 2.376181 -0.817525
v 0.773025 2.592002 -0.808834
v 0.800271 2.306466 0.904512
v 0.802956 2.522287 0.913202
v 0.809149 2.375691 -0.817345
v 0.811834 2.591512 -0.808654
v 0.758318 1.072422 0.906197
v 0.780959 1.287245 0.906455
v 0.768063 1.073464 -0.817046
v 0.790703 1.288286 -0.816788
v 0.796916 1.068354 0.906413
v 0.819556 1.283177 0.906671
v 0.806661 1.069396 -0.816830
v 0.829301 1.284218 -0.816572
v -0.784512 1.756761 -0.780145
v -0.775591 1.972426 -0.780145
v 0.785507 1.691822 -0.780145
v 0.794428 1.907487 -0.780145
v -0.784512 1.756761 -0.741333
v -0.775591 1.972426 -0.741333
v 0.785507 1.691822 -0.741333
v 0.794428 1.907487 -0.741333
v -0.781316 0.716584 -0.780145
v -0.792422 0.932148 -0.780145
v 0.787964 0.797434 -0.780145
v 0.776858 1.012998 -0.780145
v -0.781316 0.716584 -0.741333
v -0.792422 0.932148 -0.741333
v 0.787964 0.797434 -0.741333
v 0.776858 1.012998 -0.741333
vn -0.0000 -0.0000 -1.0000
vn 1.0000 -0.0000 -0.0000
vn -0.0000 -0.0000 1.0000
vn -1.0000 -0.0000 -0.0000
vn -0.0000 -1.0000 -0.0000
vn -0.0000 1.0000 -0.0000
vn -0.9442 -0.0000 -0.3294
vn 0.8592 -0.0000 0.5116
vn -0.9463 -0.0000 0.3231
vn -0.9464 -0.0000 0.3231
vn -0.8592 -0.0000 -0.5116
vn 0.9442 -0.0000 0.3294
vn 0.9463 -0.0000 -0.3231
vn -0.0000 0.0413 -0.9991
vn -0.0079 -0.0000 1.0000
vn -0.0192 0.9998 -0.0000
vn 0.0192 0.9998 0.0027
vn 0.0171 0.9999 0.0027
vn 0.0163 0.9999 0.0027
vn -0.0188 0.9998 -0.0000
vn 0.0189 0.9998 -0.0000
vn -0.0000 -0.0962 0.9954
vn -0.0051 -0.0958 0.9954
vn -0.0050 -0.0958 0.9954
vn -0.0000 -0.0468 0.9989
vn -0.0001 -0.0458 0.9990
vn -0.0050 -0.0464 0.9989
vn 0.0002 -0.0000 1.0000
vn 0.0079 -0.0000 1.0000
vn -0.0000 -0.0404 0.9992
vn -0.0002 -0.0000 -1.0000
vn -0.0000 0.0404 -0.9992
vn -0.0079 -0.0000 -1.0000
vn -0.0000 0.0412 -0.9991
vn -1.0000 -0.0000 -0.0004
vn 1.0000 -0.0000 0.0004
vn -1.0000 0.0022 -0.0010
vn 0.0011 0.0041 -1.0000
vn 1.0000 -0.0022 0.0010
vn -0.0011 -0.0041 1.0000
vn -0.0021 -1.0000 -0.0041
vn 0.0022 1.0000 0.0041
vn 0.0021 1.0000 0.0041
vn -1.0000 0.0030 -0.0015
vn 0.0015 0.0058 -1.0000
vn 1.0000 -0.0030 0.0015
vn -0.0015 -0.0058 1.0000
vn -0.0030 -1.0000 -0.0058
vn 0.0030 1.0000 0.0058
vn 0.0059 0.0260 -0.9996
vn 0.9999 0.0082 0.0061
vn -0.0059 -0.0260 0.9996
vn -0.9999 -0.0082 -0.0061
vn 0.0083 -0.9996 -0.0260
vn -0.0083 0.9996 0.0260
vn 0.0104 0.0467 -0.9989
vn 0.9998 0.0145 0.0111
vn -0.0104 -0.0467 0.9989
vn -0.9998 -0.0145 -0.0111
vn 0.0150 -0.9988 -0.0466
vn -0.0150 0.9988 0.0466
vn 0.0042 0.0186 -0.9998
vn 1.0000 0.0058 0.0043
vn -0.0042 -0.0186 0.9998
vn -1.0000 -0.0058 -0.0043
vn 0.0059 -0.9998 -0.0186
vn -0.0059 0.9998 0.0186
vn -0.0059 0.9998 0.0185
vn -0.5843 0.8115 -0.0000
vn -0.0000 0.8115 -0.5843
vn 0.5929 0.8052 0.0132
vn 0.0100 0.8162 0.5776
vn -0.0000 0.9987 0.0511
vn -0.0000 0.7818 0.6235
vn 0.0050 0.8248 0.5654
vn -0.0017 0.8222 0.5691
vn 0.6050 0.7962 -0.0000
vn 0.5677 0.8232 -0.0046
vn 0.5629 0.8265 -0.0000
vn -0.0000 0.8263 -0.5633
vn -0.0053 0.8094 -0.5872
vn -0.0067 0.8113 -0.5846
vn -0.0052 0.8091 -0.5877
vn -0.0066 0.8095 -0.5870
vn -0.0066 0.8084 -0.5886
vn -0.5576 0.8301 -0.0000
vn -0.6132 0.7899 0.0050
vn -0.6016 0.7988 -0.0000
vn -0.6009 0.7993 -0.0000
vn -0.5965 0.8026 -0.0000
vn -0.0321 0.9995 -0.0049
vn -0.0059 -0.0051 -1.0000
vn 0.0321 -0.9995 0.0049
vn 0.0059 0.0051 1.0000
vn -0.9995 -0.0321 0.0060
vn 0.9995 0.0321 -0.0060
vn 0.0433 0.9990 0.0069
vn 0.0082 0.0065 -0.9999
vn -0.0433 -0.9990 -0.0069
vn -0.0082 -0.0065 0.9999
vn -0.9990 0.0434 -0.0079
vn 0.9990 -0.0434 0.0079
vn -0.0500 0.9987 -0.0075
vn -0.0091 -0.0080 -0.9999
vn 0.0500 -0.9987 0.0075
vn 0.0091 0.0080 0.9999
vn -0.9987 -0.0499 0.0095
vn 0.9987 0.0499 -0.0095
vn 0.1074 0.9941 0.0177
vn 0.0209 0.0156 -0.9997
vn -0.1074 -0.9941 -0.0177
vn -0.0209 -0.0156 0.9997
vn -0.9940 0.1078 -0.0191
vn 0.9940 -0.1078 0.0191
vn 0.0445 0.9990 0.0071
vn 0.0084 0.0067 -0.9999
vn -0.0445 -0.9990 -0.0071
vn -0.0084 -0.0067 0.9999
vn -0.9990 0.0446 -0.0081
vn 0.9990 -0.0446 0.0081
vn -0.0492 0.9988 -0.0074
vn -0.0090 -0.0078 -0.9999
vn 0.0492 -0.9988 0.0074
vn 0.0090 0.0078 0.9999
vn -0.9987 -0.0492 0.0093
vn 0.9987 0.0492 -0.0093
vn 0.0366 0.9993 0.0058
vn 0.0069 0.0055 -1.0000
vn -0.0366 -0.9993 -0.0058
vn -0.0069 -0.0055 1.0000
vn -0.9993 0.0366 -0.0067
vn 0.9993 -0.0366 0.0067
vn 0.0194 0.9998 0.0030
vn 0.0036 0.0030 -1.0000
vn -0.0194 -0.9998 -0.0030
vn -0.0036 -0.0030 1.0000
vn -0.9998 0.0194 -0.0036
vn 0.9998 -0.0194 0.0036
vn -0.9999 0.0130 -0.0034
vn 0.0051 0.1335 -0.9910
vn 0.9999 -0.0130 0.0034
vn -0.0051 -0.1335 0.9910
vn -0.0124 -0.9910 -0.1335
vn 0.0124 0.9910 0.1335
vn -0.9945 0.0993 -0.0340
vn 0.0057 -0.2725 -0.9621
vn 0.0056 -0.2725 -0.9621
vn 0.9945 -0.0993 0.0340
vn -0.0057 0.2725 0.9621
vn -0.1048 -0.9570 0.2704
vn 0.1048 0.9570 -0.2704
vn -0.9999 0.0126 -0.0046
vn 0.0052 0.0402 -0.9992
vn 0.0051 0.0402 -0.9992
vn 0.9999 -0.0126 0.0046
vn -0.0051 -0.0402 0.9992
vn -0.0052 -0.0402 0.9992
vn -0.0124 -0.9991 -0.0402
vn 0.0124 0.9991 0.0402
vn -0.9945 0.1048 -0.0056
vn 0.0057 0.0006 -1.0000
vn 0.9945 -0.1048 0.0056
vn -0.0057 -0.0006 1.0000
vn -0.1048 -0.9945 -0.0012
vn 0.1048 0.9945 0.0012
vn 0.9991 -0.0413 -0.0000
vn -0.9991 0.0413 -0.0000
vn -0.0413 -0.9991 -0.0000
vn 0.0413 0.9991 -0.0000
vn 0.9987 0.0515 -0.0000
vn -0.9987 -0.0515 -0.0000
vn 0.0515 -0.9987 -0.0000
vn -0.0515 0.9987 -0.0000
vn -0.0083 -0.0000 -1.0000
vn -0.0363 0.9993 0.0029
vn 0.0182 -0.0000 0.9998
vn -0.0101 -0.0954 0.9954
vn -0.0101 -0.0459 0.9989
vn 0.0082 -0.0000 1.0000
vn -0.0082 -0.0000 1.0000
vn 0.0041 -0.0000 -1.0000
vn 0.0082 -0.0000 -1.0000
vn -0.0082 -0.0000 -1.0000
vn 0.0083 -0.0000 -1.0000
vn 0.5355 0.8416 0.0704
vn 0.0549 0.7835 0.6190
vn 0.0527 0.9986 -0.0000
vn 0.0052 0.8022 0.5971
vn -0.0019 0.8402 0.5423
vn 0.0100 0.8037 0.5949
vn 0.5812 0.8138 -0.0047
vn 0.5843 0.8115 -0.0000
vn -0.0000 0.7973 -0.6035
vn -0.5368 0.8437 0.0043
vn -0.5950 0.8037 -0.0000
vt 0.121966 0.810854
vt 0.152459 0.763264
vt 0.152459 0.810854
vt 0.231395 0.887518
vt 0.225913 0.856875
vt 0.231395 0.856874
vt 0.325167 0.819776
vt 0.355659 0.772186
vt 0.355659 0.819776
vt 0.378725 0.887026
vt 0.373243 0.856382
vt 0.378725 0.856382
vt 0.452373 0.819959
vt 0.446890 0.867548
vt 0.446890 0.819959
vt 0.514419 0.884157
vt 0.519902 0.836568
vt 0.519902 0.884157
vt 0.264385 0.772160
vt 0.233893 0.819750
vt 0.233893 0.772160
vt 0.807428 0.861661
vt 0.812910 0.892304
vt 0.807428 0.892305
vt 0.674340 0.825067
vt 0.704833 0.777477
vt 0.704833 0.825067
vt 0.269916 0.867251
vt 0.264407 0.836621
vt 0.269916 0.836608
vt 0.281159 0.867361
vt 0.286642 0.821695
vt 0.286642 0.869284
vt 0.292125 0.867361
vt 0.292125 0.819772
vt 0.182951 0.763264
vt 0.312482 0.887022
vt 0.307000 0.856379
vt 0.312482 0.856378
vt 0.467786 0.819732
vt 0.498278 0.772142
vt 0.498278 0.819733
vt 0.324583 0.891973
vt 0.319100 0.861329
vt 0.324583 0.861329
vt 0.213443 0.868250
vt 0.218925 0.820661
vt 0.218925 0.868250
vt 0.508936 0.884157
vt 0.514419 0.836568
vt 0.674340 0.777477
vt 0.704833 0.729887
vt 0.534344 0.867233
vt 0.528816 0.836567
vt 0.534344 0.836590
vt 0.264407 0.819772
vt 0.294899 0.772182
vt 0.294899 0.819772
vt 0.525358 0.897893
vt 0.519901 0.867235
vt 0.525358 0.867249
vt 0.341919 0.821657
vt 0.347402 0.867365
vt 0.341919 0.869247
vt 0.352885 0.821657
vt 0.347402 0.819776
vt 0.799170 0.825055
vt 0.793687 0.872644
vt 0.793687 0.825055
vt 0.696575 0.825067
vt 0.691092 0.872656
vt 0.691092 0.825067
vt 0.837920 0.729875
vt 0.807428 0.777465
vt 0.807428 0.729875
vt 0.776936 0.777465
vt 0.551050 0.823011
vt 0.556533 0.867320
vt 0.551050 0.870600
vt 0.545568 0.867320
vt 0.545568 0.819731
vt 0.498278 0.819732
vt 0.528770 0.772142
vt 0.528770 0.819733
vt 0.060983 0.812081
vt 0.091476 0.764491
vt 0.091476 0.812081
vt 0.799170 0.872644
vt 0.804653 0.825055
vt 0.804653 0.872644
vt 0.459360 0.861130
vt 0.464843 0.891775
vt 0.459360 0.891774
vt 0.224408 0.820661
vt 0.379860 0.856380
vt 0.385343 0.887024
vt 0.379860 0.887024
vt 0.528816 0.819731
vt 0.559308 0.772141
vt 0.559308 0.819731
vt 0.525429 0.867212
vt 0.519901 0.836591
vt 0.525429 0.836568
vt 0.385907 0.813522
vt 0.416399 0.765932
vt 0.416399 0.813522
vt 0.361142 0.856382
vt 0.366624 0.887026
vt 0.361142 0.887025
vt 0.696575 0.872656
vt 0.702058 0.825067
vt 0.702058 0.872656
vt 0.534344 0.867210
vt 0.539853 0.836580
vt 0.539853 0.867224
vt 0.457856 0.867548
vt 0.452373 0.867548
vt 0.355659 0.887026
vt 0.355659 0.856382
vt 0.776936 0.825055
vt 0.807428 0.825055
vt 0.528816 0.897891
vt 0.534272 0.867233
vt 0.534272 0.897877
vt 0.030492 0.766276
vt 0.000000 0.813866
vt 0.000000 0.766276
vt 0.317965 0.856378
vt 0.317965 0.887022
vt 0.657588 0.729887
vt 0.648982 0.964930
vt 0.648982 0.729888
vt 0.949327 0.195845
vt 0.941469 0.235065
vt 0.941469 0.195888
vt 0.665734 0.964929
vt 0.674340 0.729888
vt 0.674340 0.964930
vt 0.958682 0.195888
vt 0.950075 0.235065
vt 0.950075 0.195888
vt 0.467786 0.292448
vt 0.428804 0.527513
vt 0.428804 0.292448
vt 0.233893 0.292450
vt 0.194910 0.527514
vt 0.194910 0.292449
vt 0.039020 0.292775
vt 0.000000 0.527513
vt 0.000000 0.292448
vt 0.077298 0.527889
vt 0.038354 0.528216
vt 0.077964 0.292448
vt 0.116946 0.527514
vt 0.155966 0.292770
vt 0.116946 0.292449
vt 0.155966 0.527835
vt 0.272875 0.292448
vt 0.233893 0.527514
vt 0.233893 0.292449
vt 0.311857 0.292448
vt 0.272875 0.527514
vt 0.350839 0.292448
vt 0.311857 0.527514
vt 0.389821 0.292448
vt 0.350839 0.527513
vt 0.389822 0.527513
vt 0.950075 0.000000
vt 0.957290 0.038556
vt 0.950075 0.039178
vt 0.958037 0.077690
vt 0.950075 0.078355
vt 0.958682 0.117533
vt 0.950075 0.117533
vt 0.957947 0.156752
vt 0.950075 0.156710
vt 0.941469 0.039178
vt 0.941469 0.000000
vt 0.949340 0.078313
vt 0.941469 0.078355
vt 0.941469 0.117533
vt 0.941469 0.156710
vt 0.030492 0.528216
vt 0.030492 0.766273
vt 0.685306 0.841903
vt 0.690789 0.872547
vt 0.685306 0.872547
vt 0.060983 0.528219
vt 0.060983 0.766276
vt 0.052424 0.855424
vt 0.057907 0.886069
vt 0.052424 0.886069
vt 0.848886 0.729875
vt 0.843403 0.967955
vt 0.843403 0.729875
vt 0.837920 0.967955
vt 0.060983 0.764491
vt 0.091475 0.528216
vt 0.091475 0.764488
vt 0.492184 0.853404
vt 0.497667 0.884048
vt 0.492184 0.884048
vt 0.121966 0.528219
vt 0.121966 0.764491
vt 0.035975 0.855424
vt 0.041458 0.886069
vt 0.035975 0.886069
vt 0.975078 0.236295
vt 0.980560 0.000000
vt 0.980560 0.236295
vt 0.969595 0.236295
vt 0.975078 0.000000
vt 0.975077 0.236295
vt 0.385907 0.765932
vt 0.416398 0.527514
vt 0.416398 0.765929
vt 0.782419 0.841891
vt 0.787902 0.872536
vt 0.782419 0.872536
vt 0.446890 0.527517
vt 0.446890 0.765932
vt 0.046941 0.855424
vt 0.704833 0.968325
vt 0.710315 0.729887
vt 0.710315 0.968325
vt 0.715798 0.729887
vt 0.715798 0.968325
vt 0.559308 0.537094
vt 0.528816 0.772141
vt 0.528816 0.537097
vt 0.679823 0.841903
vt 0.528770 0.537098
vt 0.498278 0.772138
vt 0.498278 0.537095
vt 0.503150 0.884048
vt 0.497667 0.853404
vt 0.503150 0.853404
vt 0.986043 0.000002
vt 0.991526 0.235065
vt 0.986043 0.235068
vt 0.199399 0.763266
vt 0.193917 0.998329
vt 0.193917 0.763264
vt 0.467786 0.537097
vt 0.498278 0.772140
vt 0.467786 0.772142
vt 0.336133 0.836611
vt 0.341616 0.867256
vt 0.336133 0.867256
vt 0.182951 0.763261
vt 0.213443 0.528217
vt 0.213443 0.763263
vt 0.674340 0.872547
vt 0.679823 0.872547
vt 0.188434 0.763264
vt 0.193917 0.998328
vt 0.188434 0.998328
vt 0.182951 0.998328
vt 0.152459 0.528217
vt 0.182951 0.763262
vt 0.046941 0.886069
vt 0.041458 0.855424
vt 0.121966 0.763262
vt 0.152458 0.528217
vt 0.152458 0.763264
vt 0.330650 0.867256
vt 0.330650 0.836611
vt 0.986043 0.235062
vt 0.980560 0.235062
vt 0.204882 0.998327
vt 0.210365 0.763264
vt 0.210365 0.998327
vt 0.849994 0.235046
vt 0.880485 0.000000
vt 0.880485 0.235042
vt 0.776936 0.841891
vt 0.776936 0.872536
vt 0.849993 0.705133
vt 0.880485 0.470094
vt 0.880485 0.705137
vt 0.508633 0.884048
vt 0.096958 0.764491
vt 0.091476 0.999556
vt 0.096958 0.999556
vt 0.102441 0.764491
vt 0.102441 0.999556
vt 0.880485 0.235046
vt 0.849993 0.470091
vt 0.849994 0.235049
vt 0.793384 0.872536
vt 0.787902 0.841891
vt 0.793384 0.841891
vt 0.910977 0.000003
vt 0.300382 0.887022
vt 0.294899 0.856378
vt 0.300382 0.856378
vt 0.107924 0.764491
vt 0.199399 0.998329
vt 0.204882 0.763264
vt 0.204882 0.998329
vt 0.910977 0.470091
vt 0.880485 0.693180
vt 0.880485 0.470091
vt 0.818393 0.892304
vt 0.812910 0.861661
vt 0.818393 0.861660
vt 0.941469 0.247003
vt 0.941469 0.470091
vt 0.305865 0.887022
vt 0.305865 0.856378
vt 0.959053 0.764667
vt 0.953570 0.987751
vt 0.953570 0.764667
vt 0.964536 0.764667
vt 0.959053 0.987750
vt 0.715990 0.729878
vt 0.746474 0.952961
vt 0.715990 0.952965
vt 0.825011 0.892301
vt 0.819529 0.861661
vt 0.825011 0.861660
vt 0.581974 0.952977
vt 0.612459 0.729894
vt 0.612459 0.952980
vt 0.830494 0.892302
vt 0.975499 0.764667
vt 0.970018 0.987734
vt 0.970018 0.764669
vt 0.946952 0.987733
vt 0.952433 0.764672
vt 0.952433 0.987735
vt 0.746474 0.952966
vt 0.776936 0.729875
vt 0.776936 0.952953
vt 0.280882 0.897893
vt 0.275399 0.867256
vt 0.280882 0.867256
vt 0.612459 0.729891
vt 0.642923 0.952982
vt 0.612459 0.952969
vt 0.269890 0.897903
vt 0.264407 0.867265
vt 0.269890 0.867265
vt 0.432842 0.765937
vt 0.438319 0.988971
vt 0.432842 0.988976
vt 0.427365 0.765932
vt 0.432842 0.988974
vt 0.427365 0.988968
vt 0.910977 0.916269
vt 0.941466 0.693180
vt 0.941466 0.916267
vt 0.373243 0.887024
vt 0.367760 0.856383
vt 0.880483 0.928225
vt 0.849994 0.705136
vt 0.880483 0.705138
vt 0.831629 0.861655
vt 0.837112 0.892298
vt 0.831629 0.892297
vt 0.970018 0.764667
vt 0.964536 0.987740
vt 0.964536 0.764668
vt 0.941470 0.987740
vt 0.946952 0.764671
vt 0.946952 0.987741
vt 0.782992 0.729875
vt 0.766241 0.000000
vt 0.782992 0.000002
vt 0.632230 0.000000
vt 0.648982 0.729891
vt 0.632230 0.729891
vt 0.766241 0.729873
vt 0.749491 0.000002
vt 0.665734 0.729887
vt 0.648982 0.000000
vt 0.665734 0.000000
vt 0.508936 0.836568
vt 0.492184 0.836568
vt 0.793687 0.825056
vt 0.793687 0.841891
vt 0.816493 0.729875
vt 0.799742 0.000000
vt 0.816493 0.000002
vt 0.598726 0.000000
vt 0.615478 0.729891
vt 0.598726 0.729891
vt 0.799742 0.729873
vt 0.715990 0.729887
vt 0.699238 0.000000
vt 0.715990 0.000000
vt 0.264407 0.836608
vt 0.281159 0.819772
vt 0.281159 0.836608
vt 0.528816 0.836566
vt 0.545568 0.836567
vt 0.833243 0.000000
vt 0.849994 0.729875
vt 0.833243 0.729873
vt 0.615478 0.000000
vt 0.732741 0.729873
vt 0.715990 0.000002
vt 0.732741 0.000000
vt 0.699238 0.729887
vt 0.682486 0.000000
vt 0.525688 0.819733
vt 0.508936 0.819733
vt 0.833243 0.729875
vt 0.816493 0.000000
vt 0.833243 0.000002
vt 0.581974 0.000000
vt 0.581974 0.729891
vt 0.749491 0.729873
vt 0.732741 0.000002
vt 0.749491 0.000000
vt 0.682486 0.729887
vt 0.674340 0.841903
vt 0.325167 0.836612
vt 0.341919 0.819776
vt 0.341919 0.836612
vt 0.154147 0.154100
vt 0.188357 0.103584
vt 0.188357 0.188687
vt 0.138239 0.138111
vt 0.103679 0.103583
vt 0.104468 0.188355
vt 0.139028 0.153768
vt 0.213443 0.528216
vt 0.225913 0.820661
vt 0.213443 0.820661
vt 0.154147 0.138111
vt 0.290986 0.292446
vt 0.581974 0.292445
vt 0.446890 0.527514
vt 0.459360 0.819959
vt 0.977771 0.247004
vt 0.990241 0.539419
vt 0.977771 0.539421
vt 0.990241 0.831839
vt 0.990241 0.539422
vt 0.000000 0.292445
vt 0.252499 0.261220
vt 0.290986 0.292448
vt 0.069119 0.223272
vt 0.032752 0.259278
vt 0.222068 0.223942
vt 0.000000 0.000000
vt 0.034560 0.034528
vt 0.069119 0.069056
vt 0.254306 0.036469
vt 0.290986 0.000002
vt 0.222068 0.069726
vt 0.995121 0.247003
vt 1.000000 0.764658
vt 0.995121 0.764657
vt 0.559331 0.292448
vt 0.571431 0.810115
vt 0.559331 0.810115
vt 0.581974 0.810101
vt 0.577094 0.292447
vt 0.581974 0.292446
vt 0.977771 0.764667
vt 0.965670 0.247003
vt 0.977771 0.247003
vt 0.218323 0.880410
vt 0.213443 0.880410
vt 0.347402 0.869246
vt 0.352282 0.881407
vt 0.347402 0.881407
vt 0.577094 0.810102
vt 0.572215 0.292446
vt 0.953570 0.764670
vt 0.941470 0.764670
vt 0.990241 0.247003
vt 0.995120 0.764657
vt 0.990241 0.764658
vt 0.965670 0.764667
vt 0.953570 0.247003
vt 0.223202 0.880410
vt 0.218323 0.868250
vt 0.223202 0.868250
vt 0.346799 0.881407
vt 0.346799 0.869247
vt 0.253412 0.903883
vt 0.258292 0.819750
vt 0.258292 0.903882
vt 0.170368 0.810854
vt 0.158268 0.895049
vt 0.158268 0.810855
vt 0.248532 0.819750
vt 0.253412 0.903885
vt 0.248532 0.903884
vt 0.182468 0.895049
vt 0.170368 0.895048
vt 0.577095 0.822257
vt 0.581974 0.834412
vt 0.577095 0.834409
vt 0.581974 0.810102
vt 0.577095 0.810106
vt 0.024198 0.813867
vt 0.029078 0.898007
vt 0.024198 0.898008
vt 0.146167 0.810854
vt 0.134067 0.895049
vt 0.134067 0.810855
vt 0.238772 0.903890
vt 0.238772 0.819751
vt 0.121966 0.895049
vt 0.786695 0.872536
vt 0.791575 0.884688
vt 0.786695 0.884689
vt 0.786696 0.872537
vt 0.781816 0.884688
vt 0.781816 0.872536
vt 0.477546 0.819735
vt 0.482425 0.903792
vt 0.477546 0.903795
vt 0.073083 0.896272
vt 0.060983 0.812082
vt 0.073083 0.812081
vt 0.472666 0.819733
vt 0.477546 0.903797
vt 0.472666 0.903795
vt 0.398007 0.897713
vt 0.410106 0.813524
vt 0.410106 0.897715
vt 0.581973 0.883003
vt 0.577095 0.870855
vt 0.581973 0.870862
vt 0.581973 0.870849
vt 0.577095 0.858714
vt 0.581973 0.858708
vt 0.487305 0.903501
vt 0.482425 0.819740
vt 0.487305 0.819733
vt 0.024198 0.898049
vt 0.012099 0.813869
vt 0.024198 0.813866
vt 0.492184 0.903504
vt 0.487305 0.903496
vt 0.012099 0.898052
vt 0.793687 0.884744
vt 0.798567 0.872648
vt 0.798567 0.884747
vt 0.803447 0.872644
vt 0.225913 0.772680
vt 0.230793 0.856874
vt 0.225913 0.856874
vt 0.307000 0.772182
vt 0.319100 0.856378
vt 0.307000 0.856378
vt 0.379860 0.772186
vt 0.384740 0.856380
vt 0.379860 0.856382
vt 0.367760 0.772186
vt 0.679220 0.884708
vt 0.674340 0.884708
vt 0.684703 0.884708
vt 0.679823 0.872548
vt 0.684703 0.872547
vt 0.243652 0.903887
vt 0.243652 0.819750
vt 0.158268 0.810854
vt 0.146167 0.895049
vt 0.146167 0.810855
vt 0.248532 0.903887
vt 0.243652 0.903885
vt 0.571431 0.894310
vt 0.559331 0.894309
vt 0.691092 0.872657
vt 0.695972 0.884809
vt 0.691092 0.884810
vt 0.701455 0.872657
vt 0.696575 0.884809
vt 0.467786 0.903798
vt 0.467786 0.819735
vt 0.073083 0.812082
vt 0.085183 0.896272
vt 0.073083 0.896273
vt 0.258292 0.903816
vt 0.263172 0.819752
vt 0.263172 0.903818
vt 0.398006 0.897715
vt 0.385907 0.897713
vt 0.577095 0.834412
vt 0.581973 0.846560
vt 0.577095 0.846554
vt 0.577095 0.858708
vt 0.577095 0.846566
vt 0.464240 0.861130
vt 0.459360 0.771984
vt 0.464240 0.771984
vt 0.035975 0.766276
vt 0.048076 0.855424
vt 0.319100 0.772182
vt 0.323980 0.861329
vt 0.060176 0.855424
vt 0.048076 0.766276
vt 0.060176 0.766276
vt 0.555930 0.882761
vt 0.551050 0.882761
vt 0.545568 0.870601
vt 0.550447 0.882761
vt 0.545568 0.882762
vt 0.085183 0.812082
vt 0.090063 0.896240
vt 0.085183 0.896241
vt 0.831629 0.777465
vt 0.819529 0.861660
vt 0.819529 0.777465
vt 0.414986 0.897681
vt 0.410106 0.813522
vt 0.414986 0.813523
vt 0.807428 0.861660
vt 0.776936 0.884692
vt 0.781816 0.884691
vt 0.684703 0.884703
vt 0.689583 0.872548
vt 0.689583 0.884704
vt 0.836509 0.861655
vt 0.836509 0.777465
vt 0.577095 0.894291
vt 0.572215 0.810102
vt 0.577095 0.810102
vt 0.367760 0.856382
vt 0.286642 0.881444
vt 0.291521 0.869284
vt 0.291521 0.881444
vt 0.281159 0.881444
vt 0.286039 0.869284
vt 0.286039 0.881444
vt 0.264407 0.527516
vt 0.233893 0.772158
vt 0.539853 0.867234
vt 0.545336 0.897637
vt 0.539853 0.897635
vt 0.528816 0.537094
vt 0.559331 0.537092
vt 0.269916 0.897686
vt 0.275399 0.867275
vt 0.275399 0.897684
vt 0.642924 0.729896
vt 0.648406 0.972374
vt 0.642923 0.972379
vt 0.657588 0.972391
vt 0.663071 0.729891
vt 0.663071 0.972395
vt 0.294787 0.772165
vt 0.325167 0.527530
vt 0.325167 0.772182
vt 0.452370 0.867548
vt 0.446890 0.897106
vt 0.446890 0.867599
vt 0.264407 0.527531
vt 0.264407 0.772182
vt 0.457849 0.897090
vt 0.452370 0.897039
vt 0.113381 0.764636
vt 0.107924 0.999855
vt 0.113381 0.999957
vt 0.118839 0.764491
vt 0.118839 0.999812
vt 0.528816 0.292449
vt 0.498301 0.537093
vt 0.498301 0.292448
vt 0.325167 0.836611
vt 0.330650 0.867257
vt 0.325167 0.867257
vt 0.467786 0.537095
vt 0.280882 0.867255
vt 0.275399 0.836608
vt 0.280882 0.836608
vt 0.231396 0.528216
vt 0.225913 0.528217
vt 0.459360 0.771983
vt 0.464843 0.527515
vt 0.464843 0.771984
vt 0.355537 0.772161
vt 0.385907 0.527539
vt 0.385907 0.772186
vt 0.545336 0.867234
vt 0.539853 0.836567
vt 0.545336 0.836567
vt 0.325167 0.772186
vt 0.355537 0.527514
vt 0.964138 0.244656
vt 0.969595 0.000000
vt 0.969595 0.244655
vt 0.958682 0.000000
vt 0.964138 0.244655
vt 0.958682 0.244656
vt 0.910977 0.247003
vt 0.336133 0.897885
vt 0.330650 0.897883
vt 0.941469 0.693180
vt 0.910977 0.693180
vt 0.534344 0.867226
vt 0.539826 0.897850
vt 0.534344 0.897853
vt 0.421882 0.988886
vt 0.421882 0.765932
vt 0.416399 0.988890
vt 0.421882 0.988890
vt 0.880485 0.916268
vt 0.910977 0.916268
vt 0.336133 0.867260
vt 0.341615 0.897848
vt 0.336133 0.897852
vt 0.910977 0.000000
vt 0.941469 0.223089
vt 0.910977 0.223088
vt 0.330650 0.897854
vt 0.325167 0.897849
vt 0.443802 0.765932
vt 0.438319 0.988645
vt 0.438319 0.765932
vt 0.030492 0.988983
vt 0.035975 0.988982
vt 0.121966 0.763264
vt 0.225913 0.887518
vt 0.373243 0.887026
vt 0.264385 0.819750
vt 0.812910 0.861660
vt 0.182951 0.810854
vt 0.307000 0.887022
vt 0.319100 0.891972
vt 0.674340 0.729887
vt 0.528816 0.867210
vt 0.519902 0.897879
vt 0.352885 0.869246
vt 0.837920 0.777465
vt 0.556533 0.819731
vt 0.551050 0.870601
vt 0.464843 0.861131
vt 0.224408 0.868250
vt 0.385343 0.856381
vt 0.366624 0.856382
vt 0.534344 0.836567
vt 0.457856 0.819959
vt 0.528816 0.867248
vt 0.030492 0.813866
vt 0.312482 0.856379
vt 0.657588 0.964929
vt 0.958682 0.235065
vt 0.467786 0.527513
vt 0.233893 0.527515
vt 0.000000 0.528219
vt 0.690789 0.841903
vt 0.057907 0.855424
vt 0.848886 0.967955
vt 0.385907 0.527517
vt 0.710316 0.729887
vt 0.559308 0.772138
vt 0.528770 0.772141
vt 0.991526 0.000000
vt 0.199399 0.998332
vt 0.341616 0.836611
vt 0.182951 0.528216
vt 0.121966 0.528216
vt 0.986043 0.000000
vt 0.849993 0.000003
vt 0.849994 0.470091
vt 0.508633 0.853404
vt 0.880485 0.470088
vt 0.910977 0.235046
vt 0.294899 0.887022
vt 0.107924 0.999556
vt 0.199400 0.763264
vt 0.910977 0.693179
vt 0.812910 0.892305
vt 0.959053 0.987751
vt 0.964536 0.987750
vt 0.746474 0.729875
vt 0.819529 0.892302
vt 0.830494 0.861661
vt 0.975499 0.987732
vt 0.946952 0.764670
vt 0.746474 0.729888
vt 0.275399 0.897894
vt 0.642923 0.729904
vt 0.264407 0.897902
vt 0.910977 0.693181
vt 0.367760 0.887025
vt 0.849993 0.928224
vt 0.837112 0.861656
vt 0.970018 0.987739
vt 0.941469 0.764670
vt 0.749491 0.729875
vt 0.648982 0.729887
vt 0.508936 0.853404
vt 0.849994 0.000002
vt 0.715990 0.729875
vt 0.525687 0.836568
vt 0.492184 0.819733
vt 0.816493 0.729873
vt 0.732741 0.729875
vt 0.691092 0.841903
vt 0.225913 0.528216
vt 0.290986 0.000001
vt 0.459360 0.527514
vt 0.977771 0.831838
vt 1.000000 0.247003
vt 0.571431 0.292448
vt 0.352282 0.869246
vt 0.572215 0.810101
vt 0.995120 0.247003
vt 0.341919 0.881407
vt 0.253412 0.819751
vt 0.182468 0.810855
vt 0.581974 0.822261
vt 0.581974 0.822253
vt 0.029078 0.813866
vt 0.233893 0.903889
vt 0.791575 0.872536
vt 0.786696 0.884689
vt 0.482425 0.819733
vt 0.060983 0.896273
vt 0.398007 0.813522
vt 0.577095 0.882996
vt 0.482425 0.903508
vt 0.492184 0.819740
vt 0.000000 0.898048
vt 0.803447 0.884744
vt 0.230793 0.772680
vt 0.384740 0.772186
vt 0.679220 0.872548
vt 0.679823 0.884708
vt 0.238772 0.903888
vt 0.248532 0.819751
vt 0.695972 0.872656
vt 0.701455 0.884810
vt 0.472666 0.903796
vt 0.085183 0.812081
vt 0.398006 0.813524
vt 0.581973 0.834419
vt 0.581973 0.858702
vt 0.323980 0.772182
vt 0.555930 0.870601
vt 0.550447 0.870601
vt 0.090063 0.812081
vt 0.831629 0.861660
vt 0.410106 0.897680
vt 0.776936 0.872537
vt 0.572215 0.894291
vt 0.281159 0.869284
vt 0.264407 0.772160
vt 0.545336 0.867236
vt 0.528816 0.292450
vt 0.269916 0.867277
vt 0.648406 0.729891
vt 0.657589 0.729887
vt 0.294787 0.527514
vt 0.452370 0.897055
vt 0.457849 0.867600
vt 0.113381 1.000000
vt 0.113381 0.764635
vt 0.528816 0.537095
vt 0.330650 0.836612
vt 0.467786 0.292449
vt 0.231396 0.772678
vt 0.325167 0.527539
vt 0.269916 0.867275
vt 0.964138 0.000000
vt 0.880485 0.247003
vt 0.336133 0.867258
vt 0.539826 0.867224
vt 0.427365 0.988886
vt 0.341615 0.867256
vt 0.330650 0.867262
vt 0.443802 0.988645
s 1
usemtl Material.001
f 36/1/1 3/2/1 33/3/1
f 4/4/2 7/5/2 3/6/2
f 40/7/3 5/8/3 37/9/3
f 6/10/4 1/11/4 5/12/4
f 37/13/5 1/14/5 34/15/5
f 35/16/6 6/17/6 40/18/6
f 60/19/1 11/20/1 57/21/1
f 12/22/2 15/23/2 11/24/2
f 64/25/3 13/26/3 61/27/3
f 14/28/7 9/29/7 13/30/7
f 61/31/5 9/32/5 58/33/5
f 64/34/6 10/32/6 14/35/6
f 52/36/1 19/3/1 49/2/1
f 20/37/2 23/38/2 19/39/2
f 56/40/3 21/41/3 53/42/3
f 22/43/4 17/44/4 21/45/4
f 53/46/5 17/47/5 50/48/5
f 51/49/6 22/50/6 56/16/6
f 44/51/1 27/52/1 41/26/1
f 28/53/8 31/54/8 27/55/8
f 48/56/3 29/57/3 45/58/3
f 30/59/9 25/60/10 29/61/10
f 42/62/5 29/63/5 25/64/5
f 43/65/6 30/63/6 48/66/6
f 4/67/6 39/68/6 8/69/6
f 7/70/5 33/71/5 3/72/5
f 8/73/3 38/74/3 7/75/3
f 2/76/1 34/75/1 1/74/1
f 32/77/6 44/78/6 47/79/6
f 31/77/5 41/80/5 27/81/5
f 32/82/3 46/83/3 31/84/3
f 26/85/1 42/86/1 25/87/1
f 20/88/6 55/89/6 24/90/6
f 57/91/4 63/92/4 60/93/4
f 23/94/5 49/48/5 19/47/5
f 49/95/4 55/96/4 52/97/4
f 24/98/3 54/99/3 23/100/3
f 41/101/11 47/102/11 44/103/11
f 18/104/1 50/105/1 17/106/1
f 33/107/4 39/108/4 36/109/4
f 12/110/6 63/111/6 16/112/6
f 64/113/12 58/114/12 59/115/12
f 11/13/5 62/116/5 57/117/5
f 56/107/2 50/118/2 51/119/2
f 16/120/3 62/74/3 15/121/3
f 48/122/13 42/123/13 43/124/13
f 10/125/1 58/126/1 9/127/1
f 40/37/2 34/128/2 35/129/2
f 66/130/4 67/131/4 65/132/4
f 82/133/14 71/134/14 73/135/14
f 72/136/2 69/137/2 71/138/2
f 92/139/3 65/140/3 83/141/15
f 71/142/5 87/143/5 73/144/5
f 68/145/6 92/146/6 78/147/6
f 82/148/16 70/149/16 72/150/16
f 82/148/17 89/151/17 88/152/17
f 81/153/18 90/154/19 89/151/17
f 79/155/20 90/154/20 80/156/20
f 79/155/21 92/146/21 91/157/21
f 77/158/5 65/159/5 67/160/5
f 76/161/5 83/162/5 77/158/5
f 75/163/5 84/164/5 76/161/5
f 74/165/5 85/166/5 75/163/5
f 73/144/5 86/167/5 74/165/5
f 69/168/22 88/169/23 87/170/24
f 87/170/25 89/171/26 86/172/27
f 86/172/3 90/173/28 85/174/29
f 85/174/30 91/175/30 84/176/30
f 91/175/30 83/141/30 84/176/30
f 68/168/1 77/177/31 67/178/1
f 77/177/32 79/179/32 76/180/32
f 79/179/32 75/181/32 76/180/32
f 80/174/1 74/182/31 75/181/33
f 74/182/34 82/133/14 73/135/14
f 94/127/4 95/183/4 93/184/4
f 96/185/1 99/186/1 95/187/1
f 100/184/2 97/188/2 99/189/2
f 98/190/3 93/191/3 97/192/3
f 99/193/5 93/194/5 95/195/5
f 96/195/6 98/196/6 100/73/6
f 102/197/4 103/198/4 101/199/4
f 104/200/1 107/201/1 103/202/1
f 108/199/2 105/203/2 107/204/2
f 106/205/3 101/206/3 105/207/3
f 107/208/5 101/209/5 103/210/5
f 104/211/6 106/212/6 108/213/6
f 110/214/4 111/215/4 109/216/4
f 112/217/1 115/218/1 111/219/1
f 116/216/2 113/220/2 115/221/2
f 114/192/3 109/222/3 113/190/3
f 115/223/5 109/224/5 111/225/5
f 112/225/6 114/226/6 116/227/6
f 118/228/35 119/229/35 117/230/35
f 120/187/1 123/231/1 119/185/1
f 124/232/36 121/233/36 123/234/36
f 122/235/3 117/236/3 121/237/3
f 119/238/5 121/239/5 117/240/5
f 120/241/6 122/242/6 124/243/6
f 125/244/37 128/245/37 127/246/37
f 128/247/38 131/248/38 127/249/38
f 132/250/39 129/251/39 131/252/39
f 129/253/40 126/231/40 125/254/40
f 127/255/41 129/256/41 125/257/41
f 128/258/42 130/255/43 132/257/42
f 133/259/44 136/260/44 135/2/44
f 136/261/45 139/262/45 135/222/45
f 140/263/46 137/264/46 139/265/46
f 137/247/47 134/266/47 133/267/47
f 135/209/48 137/268/48 133/269/48
f 136/270/49 138/271/49 140/272/49
f 142/273/4 143/274/4 141/275/4
f 144/276/1 147/219/1 143/277/1
f 148/278/2 145/279/2 147/280/2
f 146/237/3 141/281/3 145/235/3
f 147/282/5 141/283/5 143/86/5
f 144/284/6 146/285/6 148/286/6
f 150/287/4 151/288/4 149/289/4
f 152/290/1 155/291/1 151/292/1
f 156/293/2 153/275/2 155/274/2
f 154/294/3 149/295/3 153/296/3
f 155/297/5 149/286/5 151/285/5
f 152/298/6 154/299/6 156/300/6
f 158/301/1 159/302/1 157/303/1
f 160/304/2 163/305/2 159/306/2
f 164/301/3 161/307/3 163/308/3
f 162/309/4 157/296/4 161/310/4
f 163/311/5 157/312/5 159/313/5
f 160/314/6 162/315/6 164/311/6
f 165/316/50 168/317/50 167/318/50
f 168/319/51 171/320/51 167/321/51
f 172/322/52 169/323/52 171/324/52
f 170/321/53 165/325/53 169/319/53
f 171/326/54 165/327/54 167/328/54
f 168/329/55 170/330/55 172/331/55
f 174/332/56 175/333/56 173/334/56
f 176/335/57 179/336/57 175/337/57
f 179/338/58 178/339/58 177/340/58
f 178/341/59 173/342/59 177/343/59
f 175/344/60 177/345/60 173/346/60
f 180/347/61 174/348/61 178/349/61
f 182/350/62 183/351/62 181/352/62
f 184/353/63 187/354/63 183/11/63
f 187/355/64 186/356/64 185/357/64
f 186/358/65 181/359/65 185/360/65
f 187/361/66 181/362/66 183/363/66
f 184/364/67 186/365/68 188/366/67
f 190/367/4 191/368/4 189/369/4
f 192/370/1 195/371/1 191/372/1
f 196/373/2 193/374/2 195/368/2
f 194/375/3 189/376/3 193/377/3
f 195/378/5 189/200/5 191/379/5
f 192/276/6 194/380/6 196/381/6
f 198/382/4 199/383/4 197/384/4
f 200/385/1 203/386/1 199/387/1
f 204/388/2 201/369/2 203/383/2
f 202/389/3 197/390/3 201/391/3
f 203/392/5 197/393/5 199/394/5
f 200/395/6 202/81/6 204/396/6
f 206/397/4 207/398/4 205/399/4
f 208/400/1 211/372/1 207/386/1
f 212/401/2 209/402/2 211/403/2
f 210/404/3 205/405/3 209/390/3
f 211/406/5 205/378/5 207/407/5
f 208/379/6 210/407/6 212/378/6
f 214/408/4 215/409/4 213/410/4
f 216/411/1 219/387/1 215/412/1
f 220/413/2 217/414/2 219/415/2
f 218/416/3 213/377/3 217/405/3
f 219/72/5 213/417/5 215/25/5
f 216/418/6 218/419/6 220/420/6
f 222/421/69 236/422/69 235/423/69
f 236/422/70 228/424/70 239/425/70
f 228/424/71 242/426/71 239/425/71
f 226/427/72 235/423/72 242/426/72
f 221/428/3 232/429/3 225/430/3
f 224/431/73 226/427/73 228/424/73
f 231/432/5 230/411/5 229/433/5
f 227/434/1 229/435/1 223/15/1
f 223/436/4 230/437/4 221/438/4
f 225/439/2 231/438/2 227/440/2
f 225/441/74 233/442/74 221/443/74
f 243/444/75 233/442/75 244/445/75
f 242/426/76 234/446/76 243/444/76
f 227/447/77 244/445/77 225/441/77
f 241/448/78 243/444/78 244/445/78
f 240/449/79 242/426/79 243/444/79
f 238/450/80 227/447/80 223/451/80
f 238/450/81 240/449/82 241/448/83
f 237/452/84 239/425/85 240/449/82
f 221/443/86 238/450/86 223/451/86
f 234/446/87 238/450/87 233/442/87
f 235/423/88 237/452/89 234/446/90
f 246/453/4 247/454/4 245/455/4
f 248/456/1 251/457/1 247/458/1
f 252/459/2 249/460/2 251/461/2
f 250/462/3 245/463/3 249/464/3
f 251/46/5 245/465/5 247/466/5
f 248/467/6 250/468/6 252/469/6
f 254/470/4 255/471/4 253/460/4
f 256/307/1 259/472/1 255/473/1
f 260/474/2 257/475/2 259/476/2
f 258/477/3 253/478/3 257/463/3
f 259/479/5 253/480/5 255/481/5
f 256/482/6 258/64/6 260/483/6
f 261/484/91 264/485/91 263/486/91
f 263/487/92 268/488/92 267/489/92
f 268/490/93 265/491/93 267/492/93
f 266/487/94 261/493/94 265/494/94
f 267/495/95 261/496/95 263/497/95
f 268/498/96 262/495/96 266/499/96
f 270/500/97 271/501/97 269/502/97
f 271/503/98 276/504/98 275/505/98
f 276/506/99 273/20/99 275/507/99
f 273/508/100 270/505/100 269/504/100
f 275/509/101 269/510/101 271/511/101
f 276/512/102 270/513/102 274/514/102
f 278/515/103 279/516/103 277/517/103
f 280/518/104 283/519/104 279/520/104
f 284/521/105 281/522/105 283/523/105
f 281/524/106 278/525/106 277/526/106
f 283/527/107 277/528/107 279/529/107
f 280/530/108 282/531/108 284/532/108
f 286/533/109 287/534/109 285/535/109
f 288/536/110 291/537/110 287/538/110
f 292/535/111 289/539/111 291/540/111
f 290/541/112 285/126/112 289/537/112
f 287/542/113 289/543/113 285/544/113
f 292/545/114 286/544/114 290/543/114
f 294/546/6 295/547/6 293/548/6
f 296/549/1 299/550/1 295/551/1
f 300/552/5 297/553/5 299/95/5
f 298/554/3 293/555/3 297/552/3
f 299/253/4 293/556/4 295/557/4
f 296/558/2 298/559/2 300/560/2
f 302/561/115 303/507/115 301/562/115
f 303/563/116 308/564/116 307/565/116
f 308/562/117 305/566/117 307/567/117
f 306/458/118 301/568/118 305/569/118
f 307/570/119 301/571/119 303/572/119
f 308/573/120 302/574/120 306/110/120
f 309/521/121 312/575/121 311/576/121
f 312/577/122 315/578/122 311/579/122
f 315/580/123 314/581/123 313/582/123
f 314/104/124 309/583/124 313/584/124
f 315/585/125 309/586/125 311/587/125
f 316/586/126 310/588/126 314/589/126
f 318/590/6 319/591/6 317/592/6
f 320/593/1 323/594/1 319/205/1
f 324/595/5 321/596/5 323/44/5
f 322/597/3 317/598/3 321/599/3
f 323/79/4 317/600/4 319/601/4
f 320/602/2 322/603/2 324/604/2
f 326/605/127 327/606/127 325/607/127
f 327/608/128 332/609/128 331/610/128
f 332/611/129 329/612/129 331/613/129
f 330/74/130 325/609/130 329/614/130
f 327/615/131 329/514/131 325/616/131
f 332/617/132 326/618/132 330/619/132
f 334/620/133 335/608/133 333/621/133
f 336/57/134 339/551/134 335/295/134
f 340/622/135 337/623/135 339/624/135
f 337/119/136 334/555/136 333/625/136
f 335/626/137 337/627/137 333/628/137
f 340/629/138 334/630/138 338/631/138
f 342/632/139 343/633/139 341/159/139
f 344/634/140 347/635/140 343/636/140
f 348/637/141 345/456/141 347/638/141
f 345/639/142 342/640/142 341/641/142
f 343/642/143 345/643/143 341/644/143
f 344/645/144 346/646/144 348/647/144
f 350/648/145 351/649/145 349/650/145
f 351/651/146 356/652/147 355/653/146
f 355/654/148 354/648/148 353/655/148
f 354/651/149 349/656/149 353/657/149
f 355/658/150 349/659/150 351/297/150
f 352/660/151 354/661/151 356/662/151
f 358/663/152 359/664/152 357/665/152
f 360/666/153 363/667/154 359/668/154
f 364/669/155 361/665/155 363/664/155
f 362/670/156 357/671/157 361/672/157
f 363/673/158 357/546/158 359/674/158
f 360/675/159 362/676/159 364/677/159
f 366/678/160 367/679/160 365/680/160
f 368/681/161 371/682/161 367/683/161
f 372/684/162 369/685/162 371/678/162
f 370/640/163 365/30/163 369/671/163
f 371/686/164 365/687/164 367/688/164
f 372/689/165 366/690/165 370/691/165
f 374/303/1 375/692/1 373/301/1
f 376/266/166 379/693/166 375/694/166
f 379/301/3 378/695/3 377/696/3
f 378/697/167 373/698/167 377/699/167
f 379/347/168 373/700/168 375/701/168
f 376/702/169 378/701/169 380/703/169
f 382/704/1 383/696/1 381/705/1
f 384/706/170 387/707/170 383/708/170
f 387/709/3 386/710/3 385/711/3
f 386/668/171 381/712/171 385/713/171
f 387/714/172 381/715/172 383/716/172
f 384/717/173 386/593/173 388/718/173
f 36/1/1 4/719/1 3/2/1
f 4/4/2 8/720/2 7/5/2
f 40/7/3 6/684/3 5/8/3
f 6/10/4 2/721/4 1/11/4
f 37/13/5 5/117/5 1/14/5
f 35/16/6 2/50/6 6/17/6
f 60/19/1 12/722/1 11/20/1
f 12/22/2 16/723/2 15/23/2
f 64/25/3 14/51/3 13/26/3
f 14/28/7 10/342/7 9/29/7
f 61/31/5 13/393/5 9/32/5
f 64/34/6 59/33/6 10/32/6
f 52/36/1 20/724/1 19/3/1
f 20/37/2 24/725/2 23/38/2
f 56/40/3 22/246/3 21/41/3
f 22/43/4 18/726/4 17/44/4
f 53/46/5 21/430/5 17/47/5
f 51/49/6 18/378/6 22/50/6
f 44/51/1 28/727/1 27/52/1
f 28/53/8 32/728/8 31/54/8
f 48/56/3 30/655/3 29/57/3
f 30/59/9 26/729/9 25/60/10
f 42/62/5 45/66/5 29/63/5
f 43/65/6 26/730/6 30/63/6
f 4/67/6 36/88/6 39/68/6
f 7/70/5 38/110/5 33/71/5
f 8/73/3 39/731/3 38/74/3
f 2/76/1 35/333/1 34/75/1
f 32/77/6 28/732/6 44/78/6
f 31/77/5 46/733/5 41/80/5
f 32/82/3 47/41/3 46/83/3
f 26/85/1 43/197/1 42/86/1
f 20/88/6 52/67/6 55/89/6
f 57/91/4 62/734/4 63/92/4
f 23/94/5 54/735/5 49/48/5
f 49/95/4 54/736/4 55/96/4
f 24/98/3 55/229/3 54/99/3
f 41/101/11 46/60/11 47/102/11
f 18/104/1 51/214/1 50/105/1
f 33/107/4 38/737/4 39/108/4
f 12/110/6 60/70/6 63/111/6
f 64/113/12 61/738/12 58/114/12
f 11/13/5 15/739/5 62/116/5
f 56/107/2 53/109/2 50/118/2
f 16/120/3 63/76/3 62/74/3
f 48/122/13 45/740/13 42/123/13
f 10/125/1 59/741/1 58/126/1
f 40/37/2 37/742/2 34/128/2
f 66/130/4 68/743/4 67/131/4
f 82/133/174 72/140/174 71/134/174
f 72/136/2 70/375/2 69/137/2
f 92/139/3 66/744/3 65/140/3
f 71/142/5 69/745/5 87/143/5
f 68/145/6 66/746/6 92/146/6
f 82/148/175 88/152/175 70/149/175
f 82/148/17 81/153/18 89/151/17
f 81/153/6 80/156/6 90/154/6
f 79/155/20 91/157/20 90/154/20
f 79/155/21 78/147/21 92/146/21
f 77/158/5 83/162/5 65/159/5
f 76/161/5 84/164/5 83/162/5
f 75/163/5 85/166/5 84/164/5
f 74/165/5 86/167/5 85/166/5
f 73/144/5 87/143/5 86/167/5
f 69/168/176 70/689/176 88/169/176
f 87/170/24 88/169/23 89/171/177
f 86/172/27 89/171/26 90/173/178
f 85/174/29 90/173/28 91/175/179
f 91/175/180 92/139/3 83/141/15
f 68/168/1 78/170/181 77/177/31
f 77/177/31 78/170/181 79/179/182
f 79/179/183 80/174/1 75/181/33
f 80/174/1 81/176/181 74/182/31
f 74/182/31 81/176/181 82/133/184
f 94/127/4 96/747/4 95/183/4
f 96/185/1 100/748/1 99/186/1
f 100/184/2 98/183/2 97/188/2
f 98/190/3 94/749/3 93/191/3
f 99/193/5 97/750/5 93/194/5
f 96/195/6 94/194/6 98/196/6
f 102/197/4 104/188/4 103/198/4
f 104/200/1 108/236/1 107/201/1
f 108/199/2 106/198/2 105/203/2
f 106/205/3 102/262/3 101/206/3
f 107/208/5 105/212/5 101/209/5
f 104/211/6 102/687/6 106/212/6
f 110/214/4 112/751/4 111/215/4
f 112/217/1 116/291/1 115/218/1
f 116/216/2 114/215/2 113/220/2
f 114/192/3 110/261/3 109/222/3
f 115/223/5 113/52/5 109/224/5
f 112/225/6 110/752/6 114/226/6
f 118/228/35 120/753/35 119/229/35
f 120/187/1 124/254/1 123/231/1
f 124/232/36 122/754/36 121/233/36
f 122/235/3 118/201/3 117/236/3
f 119/238/5 123/755/5 121/239/5
f 120/241/6 118/756/6 122/242/6
f 125/244/37 126/234/37 128/245/37
f 128/247/38 132/757/38 131/248/38
f 132/250/39 130/758/39 129/251/39
f 129/253/40 130/417/40 126/231/40
f 127/255/41 131/243/41 129/256/41
f 128/258/42 126/36/43 130/255/43
f 133/259/44 134/758/44 136/260/44
f 136/261/45 140/206/45 139/262/45
f 140/263/46 138/759/46 137/264/46
f 137/247/47 138/249/47 134/266/47
f 135/209/48 139/760/48 137/268/48
f 136/270/49 134/299/49 138/271/49
f 142/273/4 144/761/4 143/274/4
f 144/276/1 148/217/1 147/219/1
f 148/278/2 146/762/2 145/279/2
f 146/237/3 142/763/3 141/281/3
f 147/282/5 145/284/5 141/283/5
f 144/284/6 142/282/6 146/285/6
f 150/287/4 152/764/4 151/288/4
f 152/290/1 156/218/1 155/291/1
f 156/293/2 154/765/2 153/275/2
f 154/294/3 150/766/3 149/295/3
f 155/297/5 153/767/5 149/286/5
f 152/298/6 150/768/6 154/299/6
f 158/301/1 160/769/1 159/302/1
f 160/304/2 164/770/2 163/305/2
f 164/301/3 162/692/3 161/307/3
f 162/309/4 158/294/4 157/296/4
f 163/311/5 161/771/5 157/312/5
f 160/314/6 158/772/6 162/315/6
f 165/316/50 166/773/50 168/317/50
f 168/319/51 172/774/51 171/320/51
f 172/322/52 170/412/52 169/323/52
f 170/321/53 166/775/53 165/325/53
f 171/326/54 169/776/54 165/327/54
f 168/329/55 166/777/55 170/330/55
f 174/332/56 176/778/56 175/333/56
f 176/335/57 180/779/57 179/336/57
f 179/338/58 180/780/58 178/339/58
f 178/341/59 174/781/59 173/342/59
f 175/344/60 179/716/60 177/345/60
f 180/347/61 176/344/61 174/348/61
f 182/350/62 184/782/62 183/351/62
f 184/353/63 188/783/63 187/354/63
f 187/355/64 188/784/64 186/356/64
f 186/358/65 182/785/65 181/359/65
f 187/361/66 185/786/66 181/362/66
f 184/364/67 182/787/68 186/365/68
f 190/367/4 192/373/4 191/368/4
f 192/370/1 196/376/1 195/371/1
f 196/373/2 194/788/2 193/374/2
f 194/375/3 190/789/3 189/376/3
f 195/378/5 193/790/5 189/200/5
f 192/276/6 190/120/6 194/380/6
f 198/382/4 200/388/4 199/383/4
f 200/385/1 204/400/1 203/386/1
f 204/388/2 202/367/2 201/369/2
f 202/389/3 198/404/3 197/390/3
f 203/392/5 201/56/5 197/393/5
f 200/395/6 198/98/6 202/81/6
f 206/397/4 208/791/4 207/398/4
f 208/400/1 212/370/1 211/372/1
f 212/401/2 210/792/2 209/402/2
f 210/404/3 206/416/3 205/405/3
f 211/406/5 209/793/5 205/378/5
f 208/379/6 206/794/6 210/407/6
f 214/408/4 216/795/4 215/409/4
f 216/411/1 220/385/1 219/387/1
f 220/413/2 218/796/2 217/414/2
f 218/416/3 214/375/3 213/377/3
f 219/72/5 217/797/5 213/417/5
f 216/418/6 214/7/6 218/419/6
f 222/421/69 224/431/69 236/422/69
f 236/422/70 224/431/70 228/424/70
f 228/424/185 226/427/185 242/426/185
f 226/427/186 222/421/186 235/423/186
f 221/428/3 230/798/3 232/429/3
f 224/431/187 222/421/187 226/427/187
f 231/432/5 232/799/5 230/411/5
f 227/434/1 231/800/1 229/435/1
f 223/436/4 229/474/4 230/437/4
f 225/439/2 232/801/2 231/438/2
f 225/441/188 244/445/188 233/442/188
f 243/444/189 234/446/189 233/442/189
f 242/426/190 235/423/190 234/446/190
f 227/447/191 241/448/191 244/445/191
f 241/448/192 240/449/192 243/444/192
f 240/449/71 239/425/71 242/426/71
f 238/450/81 241/448/83 227/447/83
f 238/450/81 237/452/84 240/449/82
f 237/452/193 236/422/193 239/425/193
f 221/443/194 233/442/194 238/450/194
f 234/446/90 237/452/89 238/450/195
f 235/423/88 236/422/88 237/452/89
f 246/453/4 248/802/4 247/454/4
f 248/456/1 252/803/1 251/457/1
f 252/459/2 250/470/2 249/460/2
f 250/462/3 246/477/3 245/463/3
f 251/46/5 249/480/5 245/465/5
f 248/467/6 246/804/6 250/468/6
f 254/470/4 256/805/4 255/471/4
f 256/307/1 260/478/1 259/472/1
f 260/474/2 258/806/2 257/475/2
f 258/477/3 254/313/3 253/478/3
f 259/479/5 257/465/5 253/480/5
f 256/482/6 254/807/6 258/64/6
f 261/484/91 262/808/91 264/485/91
f 263/487/92 264/494/92 268/488/92
f 268/490/93 266/808/93 265/491/93
f 266/487/94 262/809/94 261/493/94
f 267/495/95 265/810/95 261/496/95
f 268/498/96 264/811/96 262/495/96
f 270/500/97 272/812/97 271/501/97
f 271/503/98 272/564/98 276/504/98
f 276/506/99 274/813/99 273/20/99
f 273/508/100 274/1/100 270/505/100
f 275/509/101 273/814/101 269/510/101
f 276/512/102 272/815/102 270/513/102
f 278/515/103 280/816/103 279/516/103
f 280/518/104 284/817/104 283/519/104
f 284/521/105 282/515/105 281/522/105
f 281/524/106 282/818/106 278/525/106
f 283/527/107 281/819/107 277/528/107
f 280/530/108 278/528/108 282/531/108
f 286/533/109 288/820/109 287/534/109
f 288/536/110 292/541/110 291/537/110
f 292/535/111 290/821/111 289/539/111
f 290/541/112 286/822/112 285/126/112
f 287/542/113 291/68/113 289/543/113
f 292/545/114 288/823/114 286/544/114
f 294/546/6 296/824/6 295/547/6
f 296/549/1 300/595/1 299/550/1
f 300/552/5 298/825/5 297/553/5
f 298/554/3 294/625/3 293/555/3
f 299/253/4 297/826/4 293/556/4
f 296/558/2 294/827/2 298/559/2
f 302/561/115 304/828/115 303/507/115
f 303/563/116 304/488/116 308/564/116
f 308/562/117 306/829/117 305/566/117
f 306/458/118 302/457/118 301/568/118
f 307/570/119 305/830/119 301/571/119
f 308/573/120 304/831/120 302/574/120
f 309/521/121 310/832/121 312/575/121
f 312/577/122 316/833/122 315/578/122
f 315/580/123 316/485/123 314/581/123
f 314/104/124 310/834/124 309/583/124
f 315/585/125 313/835/125 309/586/125
f 316/586/126 312/836/126 310/588/126
f 318/590/6 320/91/6 319/591/6
f 320/593/1 324/598/1 323/594/1
f 324/595/5 322/837/5 321/596/5
f 322/597/3 318/594/3 317/598/3
f 323/79/4 321/838/4 317/600/4
f 320/602/2 318/839/2 322/603/2
f 326/605/127 328/840/127 327/606/127
f 327/608/128 328/841/128 332/609/128
f 332/611/129 330/842/129 329/612/129
f 330/74/130 326/610/130 325/609/130
f 327/615/131 331/843/131 329/514/131
f 332/617/132 328/560/132 326/618/132
f 334/620/133 336/358/133 335/608/133
f 336/57/134 340/549/134 339/551/134
f 340/622/135 338/844/135 337/623/135
f 337/119/136 338/8/136 334/555/136
f 335/626/137 339/33/137 337/627/137
f 340/629/138 336/845/138 334/630/138
f 342/632/139 344/846/139 343/633/139
f 344/634/140 348/847/140 347/635/140
f 348/637/141 346/848/141 345/456/141
f 345/639/142 346/849/142 342/640/142
f 343/642/143 347/850/143 345/643/143
f 344/645/144 342/851/144 346/646/144
f 350/648/145 352/852/145 351/649/145
f 351/651/146 352/853/147 356/652/147
f 355/654/148 356/852/148 354/648/148
f 354/651/149 350/854/149 349/656/149
f 355/658/150 353/855/150 349/659/150
f 352/660/151 350/856/151 354/661/151
f 358/663/152 360/857/152 359/664/152
f 360/666/153 364/858/153 363/667/154
f 364/669/155 362/859/155 361/665/155
f 362/670/156 358/336/156 357/671/157
f 363/673/158 361/860/158 357/546/158
f 360/675/159 358/800/159 362/676/159
f 366/678/160 368/685/160 367/679/160
f 368/681/161 372/634/161 371/682/161
f 372/684/162 370/861/162 369/685/162
f 370/640/163 366/862/163 365/30/163
f 371/686/164 369/863/164 365/687/164
f 372/689/165 368/863/165 366/690/165
f 374/303/1 376/864/1 375/692/1
f 376/266/166 380/865/166 379/693/166
f 379/301/3 380/308/3 378/695/3
f 378/697/167 374/866/167 373/698/167
f 379/347/168 377/867/168 373/700/168
f 376/702/169 374/105/169 378/701/169
f 382/704/1 384/302/1 383/696/1
f 384/706/170 388/868/170 387/707/170
f 387/709/3 388/178/3 386/710/3
f 386/668/171 382/869/171 381/712/171
f 387/714/172 385/870/172 381/715/172
f 384/717/173 382/125/173 386/593/173
