# Blender 4.4.1
# www.blender.org
mtllib tree3.mtl
o tree3
v -1.454653 7.944378 0.566109 0.0000 0.0000 0.0000
v -1.454653 7.944378 0.566109 0.0000 0.0000 0.0000
v -1.454653 7.944378 0.566109 0.0000 0.0000 0.0000
v -1.459267 7.942214 0.573800 0.0000 0.0000 0.0000
v -1.459267 7.942214 0.573800 0.0000 0.0000 0.0000
v -1.459267 7.942214 0.573800 0.0000 0.0000 0.0000
v -1.468227 7.940048 0.573347 0.0000 0.0000 0.0000
v -1.468227 7.940048 0.573347 0.0000 0.0000 0.0000
v -1.468227 7.940048 0.573347 0.0000 0.0000 0.0000
v -1.464112 7.942214 0.564912 0.0000 0.0000 0.0000
v -1.464112 7.942214 0.564912 1.0000 1.0000 1.0000
v -1.464112 7.942214 0.564912 0.0000 0.0000 0.0000
v -1.464112 7.942214 0.564912 0.0000 0.0000 0.0000
v -1.215731 7.013944 0.443002 0.0000 0.0000 0.0000
v -1.215731 7.013944 0.443002 0.0000 0.0000 0.0000
v -1.224172 7.009603 0.457109 0.0000 0.0000 0.0000
v -1.224172 7.009603 0.457109 0.0000 0.0000 0.0000
v -1.241028 7.007431 0.456600 0.0000 0.0000 0.0000
v -1.241028 7.007431 0.456600 0.0000 0.0000 0.0000
v -1.249442 7.009599 0.441987 0.0000 0.0000 0.0000
v -1.249442 7.009599 0.441987 1.0000 1.0000 1.0000
v -1.241002 7.013939 0.427880 1.0000 1.0000 1.0000
v -1.241002 7.013939 0.427880 0.0000 0.0000 0.0000
v -1.212057 6.584449 0.284797 0.0000 0.0000 0.0000
v -1.212057 6.584449 0.284797 0.0000 0.0000 0.0000
v -1.212057 6.584449 0.284797 0.0000 0.0000 0.0000
v -1.212056 6.575142 0.322253 0.0000 0.0000 0.0000
v -1.212056 6.575142 0.322253 0.0000 0.0000 0.0000
v -1.234319 6.576074 0.322486 0.0000 0.0000 0.0000
v -1.234319 6.576074 0.322486 0.0000 0.0000 0.0000
v -1.234319 6.585381 0.285030 0.0000 0.0000 0.0000
v -1.234319 6.585381 0.285030 0.0000 0.0000 0.0000
v -1.234319 6.585381 0.285030 1.0000 1.0000 1.0000
v -1.234319 6.585381 0.285030 0.0000 0.0000 0.0000
v -1.253734 6.178880 0.208096 0.0000 0.0000 0.0000
v -1.253734 6.178880 0.208096 0.0000 0.0000 0.0000
v -1.239977 6.175985 0.232154 0.0000 0.0000 0.0000
v -1.239977 6.175985 0.232154 0.0000 0.0000 0.0000
v -1.253834 6.169456 0.255427 0.0000 0.0000 0.0000
v -1.253834 6.169456 0.255427 0.0000 0.0000 0.0000
v -1.295203 6.168714 0.230586 0.0000 0.0000 0.0000
v -1.295203 6.168714 0.230586 0.0000 0.0000 0.0000
v -1.295203 6.168714 0.230586 0.0000 0.0000 0.0000
v -1.295203 6.168714 0.230586 0.0000 0.0000 0.0000
v -1.281346 6.175244 0.207314 0.0000 0.0000 0.0000
v -1.281346 6.175244 0.207314 0.0000 0.0000 0.0000
v -1.037584 5.655077 0.083855 0.0000 0.0000 0.0000
v -1.037584 5.655077 0.083855 0.0000 0.0000 0.0000
v -1.020748 5.657151 0.116465 0.0000 0.0000 0.0000
v -1.020748 5.657151 0.116465 0.0000 0.0000 0.0000
v -1.039025 5.648523 0.147167 0.0000 0.0000 0.0000
v -1.039025 5.648523 0.147167 0.0000 0.0000 0.0000
v -1.074139 5.637819 0.145259 0.0000 0.0000 0.0000
v -1.074139 5.637819 0.145259 0.0000 0.0000 0.0000
v -1.070346 5.635744 0.100277 0.0000 0.0000 0.0000
v -1.070346 5.635744 0.100277 0.0000 0.0000 0.0000
v -1.070346 5.635744 0.100277 0.0000 0.0000 0.0000
v -0.594962 3.904804 0.154466 0.0000 0.0000 0.0000
v -0.594962 3.904804 0.154466 0.0000 0.0000 0.0000
v -0.632815 3.898862 0.212534 0.0000 0.0000 0.0000
v -0.632815 3.898862 0.212534 0.0000 0.0000 0.0000
v -0.698934 3.877519 0.208926 0.0000 0.0000 0.0000
v -0.698934 3.877519 0.208926 0.0000 0.0000 0.0000
v -0.709160 3.862118 0.114787 0.0000 0.0000 0.0000
v -0.709160 3.862118 0.114787 0.0000 0.0000 0.0000
v -0.689346 3.868061 0.089181 0.0000 0.0000 0.0000
v -0.689346 3.868061 0.089181 0.0000 0.0000 0.0000
v -0.689346 3.868061 0.089181 0.0000 0.0000 0.0000
v -0.397150 3.361912 0.187338 0.0000 0.0000 0.0000
v -0.397150 3.361912 0.187338 0.0000 0.0000 0.0000
v -0.363373 3.374644 0.258260 0.0000 0.0000 0.0000
v -0.363373 3.374644 0.258260 0.0000 0.0000 0.0000
v -0.363373 3.374644 0.258260 0.0000 0.0000 0.0000
v -0.363373 3.374644 0.258260 0.0000 0.0000 0.0000
v -0.482704 3.344791 0.320452 0.0000 0.0000 0.0000
v -0.482704 3.344791 0.320452 0.0000 0.0000 0.0000
v -0.516482 3.332061 0.249530 0.0000 0.0000 0.0000
v -0.516482 3.332061 0.249530 0.0000 0.0000 0.0000
v -0.473706 3.340621 0.182972 0.0000 0.0000 0.0000
v -0.473706 3.340621 0.182972 0.0000 0.0000 0.0000
v -0.195885 2.053892 0.056862 0.0000 0.0000 0.0000
v -0.195885 2.053892 0.056862 0.0000 0.0000 0.0000
v -0.150398 2.055839 0.146976 0.0000 0.0000 0.0000
v -0.150398 2.055839 0.146976 0.0000 0.0000 0.0000
v -0.205242 2.048083 0.231386 0.0000 0.0000 0.0000
v -0.205242 2.048083 0.231386 0.0000 0.0000 0.0000
v -0.305577 2.038380 0.225682 0.0000 0.0000 0.0000
v -0.305577 2.038380 0.225682 0.0000 0.0000 0.0000
v -0.351070 2.036434 0.135570 0.0000 0.0000 0.0000
v -0.351070 2.036434 0.135570 0.0000 0.0000 0.0000
v -0.351070 2.036434 0.135570 0.0000 0.0000 0.0000
v -0.351070 2.036434 0.135570 0.0000 0.0000 0.0000
v -0.158895 1.427045 0.069033 0.0000 0.0000 0.0000
v -0.158895 1.427045 0.069033 0.0000 0.0000 0.0000
v -0.135294 1.415739 0.201334 0.0000 0.0000 0.0000
v -0.135294 1.415739 0.201334 0.0000 0.0000 0.0000
v -0.135294 1.415739 0.201334 0.4510 0.4510 0.4510
v -0.135294 1.415739 0.201334 0.0000 0.0000 0.0000
v -0.276602 1.406945 0.250528 0.0000 0.0000 0.0000
v -0.276602 1.406945 0.250528 0.0000 0.0000 0.0000
v -0.325848 1.408202 0.153715 0.0000 0.0000 0.0000
v -0.325848 1.408202 0.153715 0.0000 0.0000 0.0000
v -0.266994 1.418251 0.062967 0.0000 0.0000 0.0000
v -0.266994 1.418251 0.062967 0.0000 0.0000 0.0000
v 0.018246 -0.065740 -0.148581 0.0000 0.0000 0.0000
v 0.018246 -0.065740 -0.148581 0.0000 0.0000 0.0000
v 0.009633 -0.065740 0.052125 0.0000 0.0000 0.0000
v 0.009633 -0.065740 0.052125 0.4510 0.4510 0.4510
v -0.106720 -0.065740 0.045265 0.0000 0.0000 0.0000
v -0.106720 -0.065740 0.045265 0.0000 0.0000 0.0000
v -0.106720 -0.065740 0.045265 0.0000 0.0000 0.0000
v -0.106720 -0.065740 0.045265 0.0000 0.0000 0.0000
v -0.160590 -0.065740 -0.058517 0.0000 0.0000 0.0000
v -0.160590 -0.065740 -0.058517 0.0000 0.0000 0.0000
v -0.098108 -0.065740 -0.155440 0.0000 0.0000 0.0000
v -0.098108 -0.065740 -0.155440 0.0000 0.0000 0.0000
v 0.750673 7.795547 -0.375108 1.0000 1.0000 1.0000
v 0.750673 7.795547 -0.375108 1.0000 1.0000 1.0000
v 0.750673 7.795547 -0.375108 0.0000 0.0000 0.0000
v 0.744424 7.796227 -0.387818 1.0000 1.0000 1.0000
v 0.744424 7.796227 -0.387818 0.0000 0.0000 0.0000
v 0.744424 7.796227 -0.387818 1.0000 1.0000 1.0000
v 0.744424 7.796227 -0.387818 1.0000 1.0000 1.0000
v 0.754889 7.795302 -0.392020 1.0000 1.0000 1.0000
v 0.754889 7.795302 -0.392020 1.0000 1.0000 1.0000
v 0.754889 7.795302 -0.392020 1.0000 1.0000 1.0000
v 0.759786 7.794283 -0.380162 1.0000 1.0000 1.0000
v 0.759786 7.794283 -0.380162 0.0000 0.0000 0.0000
v 0.759786 7.794283 -0.380162 1.0000 1.0000 1.0000
v 0.759786 7.794283 -0.380162 0.0000 0.0000 0.0000
v 0.691918 6.977215 -0.269367 0.2353 0.2353 0.2353
v 0.691918 6.977215 -0.269367 0.0000 0.0000 0.0000
v 0.680951 6.975596 -0.286453 0.0000 0.0000 0.0000
v 0.680951 6.975596 -0.286453 0.2510 0.2510 0.2510
v 0.691511 6.964710 -0.303139 0.0000 0.0000 0.0000
v 0.691511 6.964710 -0.303139 0.3372 0.3372 0.3372
v 0.691511 6.964710 -0.303139 0.3372 0.3372 0.3372
v 0.707172 6.967592 -0.290914 0.3333 0.3333 0.3333
v 0.707172 6.967592 -0.290914 0.0000 0.0000 0.0000
v 0.707294 6.971319 -0.280851 0.0000 0.0000 0.0000
v 0.707294 6.971319 -0.280851 0.0000 0.0000 0.0000
v 0.623888 6.516582 0.047609 0.0000 0.0000 0.0000
v 0.623888 6.516582 0.047609 0.0078 0.0078 0.0078
v 0.623888 6.516582 0.047609 0.0000 0.0000 0.0000
v 0.603003 6.512687 0.036493 0.0000 0.0000 0.0000
v 0.603003 6.512687 0.036493 0.0000 0.0000 0.0000
v 0.603003 6.512687 0.036493 0.0078 0.0078 0.0078
v 0.623404 6.501113 0.002217 0.0000 0.0000 0.0000
v 0.623404 6.501113 0.002217 0.0000 0.0000 0.0000
v 0.623404 6.501113 0.002217 0.0000 0.0000 0.0000
v 0.623404 6.501113 0.002217 0.0078 0.0078 0.0078
v 0.644290 6.505007 0.013335 0.0000 0.0000 0.0000
v 0.644290 6.505007 0.013335 0.0078 0.0078 0.0078
v 0.644290 6.505007 0.013335 0.0000 0.0000 0.0000
v 0.631968 6.512743 0.040135 0.0000 0.0000 0.0000
v 0.631968 6.512743 0.040135 0.0000 0.0000 0.0000
v 0.676842 6.136141 0.075595 0.0000 0.0000 0.0000
v 0.676842 6.136141 0.075595 0.0000 0.0000 0.0000
v 0.647440 6.137790 0.044187 0.0000 0.0000 0.0000
v 0.647440 6.137790 0.044187 0.0000 0.0000 0.0000
v 0.647440 6.137790 0.044187 0.0000 0.0000 0.0000
v 0.647440 6.137790 0.044187 0.0000 0.0000 0.0000
v 0.672646 6.137000 0.019458 0.0000 0.0000 0.0000
v 0.672646 6.137000 0.019458 0.0000 0.0000 0.0000
v 0.697991 6.135731 0.033970 0.0000 0.0000 0.0000
v 0.697991 6.135731 0.033970 0.0000 0.0000 0.0000
v 0.694105 6.135519 0.065529 0.0000 0.0000 0.0000
v 0.500308 5.352334 0.020878 0.0000 0.0000 0.0000
v 0.500308 5.352334 0.020878 0.0000 0.0000 0.0000
v 0.500308 5.352334 0.020878 0.0000 0.0000 0.0000
v 0.461043 5.365528 -0.014603 0.0000 0.0000 0.0000
v 0.461043 5.365528 -0.014603 0.0000 0.0000 0.0000
v 0.461375 5.368996 -0.031612 0.0000 0.0000 0.0000
v 0.461375 5.368996 -0.031612 0.0000 0.0000 0.0000
v 0.501933 5.369249 -0.062062 0.0000 0.0000 0.0000
v 0.501933 5.369249 -0.062062 0.0000 0.0000 0.0000
v 0.546318 5.357913 -0.023227 0.0000 0.0000 0.0000
v 0.546318 5.357913 -0.023227 0.0000 0.0000 0.0000
v 0.255395 4.305815 -0.339454 0.0000 0.0000 0.0000
v 0.255395 4.305815 -0.339454 0.0000 0.0000 0.0000
v 0.255395 4.305815 -0.339454 0.0000 0.0000 0.0000
v 0.255395 4.305815 -0.339454 0.0000 0.0000 0.0000
v 0.255395 4.305815 -0.339454 0.0000 0.0000 0.0000
v 0.255395 4.305815 -0.339454 0.0000 0.0000 0.0000
v 0.256543 4.317903 -0.399988 0.0000 0.0000 0.0000
v 0.256543 4.317903 -0.399988 0.0000 0.0000 0.0000
v 0.256543 4.317903 -0.399988 0.0000 0.0000 0.0000
v 0.256543 4.317903 -0.399988 0.0000 0.0000 0.0000
v 0.256543 4.317903 -0.399988 0.0000 0.0000 0.0000
v 0.256543 4.317903 -0.399988 0.0000 0.0000 0.0000
v 0.361859 4.295788 -0.339438 0.0000 0.0000 0.0000
v 0.361859 4.295788 -0.339438 0.0000 0.0000 0.0000
v 0.318098 3.676705 -0.364457 0.0000 0.0000 0.0000
v 0.318098 3.676705 -0.364457 0.0000 0.0000 0.0000
v 0.238214 3.677722 -0.383806 0.0000 0.0000 0.0000
v 0.238214 3.677722 -0.383806 0.0000 0.0000 0.0000
v 0.238552 3.675732 -0.457087 0.0000 0.0000 0.0000
v 0.238552 3.675732 -0.457087 0.0000 0.0000 0.0000
v 0.275051 3.672725 -0.471984 0.0000 0.0000 0.0000
v 0.365458 3.671708 -0.456390 0.0000 0.0000 0.0000
v 0.365458 3.671708 -0.456390 0.0000 0.0000 0.0000
v 0.365119 3.673697 -0.383111 0.0000 0.0000 0.0000
v 0.365119 3.673697 -0.383111 0.0000 0.0000 0.0000
v 0.173199 2.716228 -0.245461 0.0000 0.0000 0.0000
v 0.173199 2.716228 -0.245461 0.0000 0.0000 0.0000
v 0.173113 2.705079 -0.335175 0.0000 0.0000 0.0000
v 0.173113 2.705079 -0.335175 0.0000 0.0000 0.0000
v 0.173113 2.705079 -0.335175 0.0000 0.0000 0.0000
v 0.329152 2.692104 -0.333711 0.0000 0.0000 0.0000
v 0.329152 2.692104 -0.333711 0.0000 0.0000 0.0000
v 0.329237 2.703252 -0.243998 0.0000 0.0000 0.0000
v 0.329237 2.703252 -0.243998 0.0000 0.0000 0.0000
v 0.329237 2.703252 -0.243998 0.0000 0.0000 0.0000
v 0.329237 2.703252 -0.243998 0.0000 0.0000 0.0000
v 0.106506 1.474992 -0.040617 0.0000 0.0000 0.0000
v 0.106506 1.474992 -0.040617 0.0000 0.0000 0.0000
v 0.013391 1.476762 -0.095111 0.0000 0.0000 0.0000
v 0.013391 1.476762 -0.095111 0.0000 0.0000 0.0000
v 0.013393 1.464674 -0.202333 0.0000 0.0000 0.0000
v 0.013393 1.464674 -0.202333 0.0000 0.0000 0.0000
v 0.080469 1.450816 -0.227696 0.0000 0.0000 0.0000
v 0.199623 1.449046 -0.200571 0.0000 0.0000 0.0000
v 0.199623 1.449046 -0.200571 0.0000 0.0000 0.0000
v 0.199621 1.461135 -0.093347 0.0000 0.0000 0.0000
v 0.199621 1.461135 -0.093347 0.0000 0.0000 0.0000
v 0.025590 -0.065740 0.170613 0.0000 0.0000 0.0000
v 0.025590 -0.065740 0.170613 0.0000 0.0000 0.0000
v -0.075489 -0.065740 0.111920 0.0000 0.0000 0.0000
v -0.075489 -0.065740 0.111920 0.0000 0.0000 0.0000
v 0.072114 -0.065740 -0.044797 0.0000 0.0000 0.0000
v 0.072114 -0.065740 -0.044797 0.0000 0.0000 0.0000
v 0.072114 -0.065740 -0.044797 0.4510 0.4510 0.4510
v 0.072114 -0.065740 -0.044797 0.0000 0.0000 0.0000
v 0.125684 -0.065740 -0.035184 0.0000 0.0000 0.0000
v 0.125684 -0.065740 -0.035184 0.0000 0.0000 0.0000
v 0.167201 -0.065740 0.110897 0.0000 0.0000 0.0000
v 0.167201 -0.065740 0.110897 0.0000 0.0000 0.0000
v -0.529045 8.038920 -0.990386 1.0000 1.0000 1.0000
v -0.529045 8.038920 -0.990386 0.0000 0.0000 0.0000
v -0.529045 8.038920 -0.990386 0.0000 0.0000 0.0000
v -0.529045 8.038920 -0.990386 0.0000 0.0000 0.0000
v -0.539278 8.037110 -0.978307 0.0000 0.0000 0.0000
v -0.539278 8.037110 -0.978307 1.0000 1.0000 1.0000
v -0.539278 8.037110 -0.978307 0.0000 0.0000 0.0000
v -0.544279 8.035302 -0.993327 0.0000 0.0000 0.0000
v -0.544279 8.035302 -0.993327 0.0000 0.0000 0.0000
v -0.544279 8.035302 -0.993327 0.0000 0.0000 0.0000
v -0.544279 8.035302 -0.993327 1.0000 1.0000 1.0000
v -0.535792 8.037110 -0.996372 0.0000 0.0000 0.0000
v -0.535792 8.037110 -0.996372 1.0000 1.0000 1.0000
v -0.535792 8.037110 -0.996372 0.0000 0.0000 0.0000
v -0.225817 6.753736 -0.924848 0.0000 0.0000 0.0000
v -0.225817 6.753736 -0.924848 0.0000 0.0000 0.0000
v -0.228240 6.756364 -0.917260 0.0000 0.0000 0.0000
v -0.228240 6.756364 -0.917260 0.0000 0.0000 0.0000
v -0.250957 6.749772 -0.910204 0.0000 0.0000 0.0000
v -0.250957 6.749772 -0.910204 0.0000 0.0000 0.0000
v -0.258969 6.745741 -0.917522 0.0000 0.0000 0.0000
v -0.258969 6.745741 -0.917522 0.0000 0.0000 0.0000
v -0.257059 6.741867 -0.943584 0.0000 0.0000 0.0000
v -0.257059 6.741867 -0.943584 0.0000 0.0000 0.0000
v -0.237990 6.746487 -0.950541 0.0000 0.0000 0.0000
v -0.237990 6.746487 -0.950541 0.0000 0.0000 0.0000
v 0.174198 5.827862 -0.586809 0.0000 0.0000 0.0000
v 0.174198 5.827862 -0.586809 0.0000 0.0000 0.0000
v 0.165894 5.834103 -0.553665 0.0000 0.0000 0.0000
v 0.165894 5.834103 -0.553665 0.0000 0.0000 0.0000
v 0.133429 5.828672 -0.542576 0.0000 0.0000 0.0000
v 0.133429 5.828672 -0.542576 0.0000 0.0000 0.0000
v 0.109268 5.816999 -0.564631 0.0000 0.0000 0.0000
v 0.109268 5.816999 -0.564631 0.0000 0.0000 0.0000
v 0.117572 5.810760 -0.597776 0.0000 0.0000 0.0000
v 0.117572 5.810760 -0.597776 0.0000 0.0000 0.0000
v 0.150036 5.816191 -0.608864 0.0000 0.0000 0.0000
v 0.150036 5.816191 -0.608864 0.0000 0.0000 0.0000
v 0.363000 4.307875 -0.399970 0.0000 0.0000 0.0000
v 0.363000 4.307875 -0.399970 0.0000 0.0000 0.0000
v 0.363000 4.307875 -0.399970 0.0000 0.0000 0.0000
v 0.363000 4.307875 -0.399970 0.0000 0.0000 0.0000
v 0.363000 4.307875 -0.399970 0.0000 0.0000 0.0000
v 0.353985 4.317388 -0.328543 0.0000 0.0000 0.0000
v 0.353985 4.317388 -0.328543 0.0000 0.0000 0.0000
v 0.308053 4.294757 -0.309180 0.0000 0.0000 0.0000
v 0.308053 4.294757 -0.309180 0.0000 0.0000 0.0000
v 0.308053 4.294757 -0.309180 0.0000 0.0000 0.0000
v 0.308053 4.294757 -0.309180 0.0000 0.0000 0.0000
v 0.308053 4.294757 -0.309180 0.0000 0.0000 0.0000
v 0.310346 4.318933 -0.430245 0.0000 0.0000 0.0000
v 0.310346 4.318933 -0.430245 0.0000 0.0000 0.0000
v 0.310346 4.318933 -0.430245 0.0000 0.0000 0.0000
v 0.310346 4.318933 -0.430245 0.0000 0.0000 0.0000
v 0.310346 4.318933 -0.430245 0.0000 0.0000 0.0000
v 0.310346 4.318933 -0.430245 0.0000 0.0000 0.0000
v 2.487959 4.871200 -2.458869 1.0000 1.0000 1.0000
v 1.896374 3.046665 -1.935704 1.0000 1.0000 1.0000
v 0.865995 6.012125 -0.313984 0.1333 0.1333 0.1333
v 0.274408 4.187592 0.209181 0.2039 0.2039 0.2039
v 1.931202 3.917224 -2.384896 1.0000 1.0000 1.0000
v 1.931202 3.917224 -2.384896 1.0000 1.0000 1.0000
v 0.451995 5.080534 -0.137145 0.1216 0.1216 0.1216
v 0.451995 5.080534 -0.137145 0.1216 0.1216 0.1216
v 0.873688 4.732175 -1.385845 1.0000 1.0000 1.0000
v 0.873688 4.732175 -1.385845 1.0000 1.0000 1.0000
v 1.686308 5.389115 -1.559135 1.0000 1.0000 1.0000
v 1.050964 3.594325 -0.981718 0.9294 0.9294 0.9294
v -0.333383 8.539913 0.189012 1.0000 1.0000 1.0000
v 0.880838 8.944733 -0.631103 1.0000 1.0000 1.0000
v 0.152537 7.098042 0.196715 0.1686 0.1686 0.1686
v 1.366756 7.502859 -0.623400 1.0000 1.0000 1.0000
v 0.119262 8.700666 -0.414435 0.4551 0.4551 0.4551
v 0.119262 8.700666 -0.414435 0.4551 0.4551 0.4551
v 0.723071 7.292710 -0.323327 0.4392 0.4392 0.4392
v 1.075019 8.235869 -0.693509 1.0000 1.0000 1.0000
v -0.130235 7.802228 0.125652 0.4510 0.4510 0.4510
v 0.327004 7.981439 -0.515196 1.0000 1.0000 1.0000
v 0.743299 6.838946 -2.631815 1.0000 1.0000 1.0000
v 2.171033 5.002413 -2.884359 1.0000 1.0000 1.0000
v -0.385540 5.628633 -0.212063 0.0392 0.0392 0.0392
v 1.042191 3.792102 -0.464607 0.0000 0.0000 0.0000
v 1.303599 5.726043 -2.936651 1.0000 1.0000 1.0000
v 1.303599 5.726043 -2.936651 1.0000 1.0000 1.0000
v 0.259211 4.621854 -0.419180 0.3372 0.3372 0.3372
v 0.383035 5.094099 -1.688050 0.8431 0.8431 0.8431
v 0.175112 6.255075 -1.598020 0.2039 0.2039 0.2039
v 1.572160 4.386213 -1.788937 1.0000 1.0000 1.0000
v 2.945242 3.292835 -0.975115 1.0000 1.0000 1.0000
v 1.398166 1.770710 -1.768585 1.0000 1.0000 1.0000
v 1.113918 4.581956 0.122590 1.0000 1.0000 1.0000
v -0.433158 3.059831 -0.670881 0.0392 0.0392 0.0392
v 2.096429 2.615939 -1.611847 1.0000 1.0000 1.0000
v 0.305938 3.858588 -0.382918 0.2157 0.2157 0.2157
v 1.177903 3.581633 -1.096894 1.0000 1.0000 1.0000
v 2.116259 3.912676 -0.547842 1.0000 1.0000 1.0000
v 0.521489 2.424938 -1.314294 1.0000 1.0000 1.0000
v -3.080740 5.414477 -0.015076 1.0000 1.0000 1.0000
v 0.546387 7.160048 -1.862197 1.0000 1.0000 1.0000
v -1.510983 2.941325 0.730216 1.0000 1.0000 1.0000
v 2.116143 4.686895 -1.116902 1.0000 1.0000 1.0000
v -1.273702 6.161057 -1.426239 1.0000 1.0000 1.0000
v 0.300535 3.757452 -0.414397 0.1843 0.1843 0.1843
v -0.802647 4.469034 -1.190478 0.4510 0.4510 0.4510
v -2.415479 4.248153 0.189073 1.0000 1.0000 1.0000
v 1.251507 5.928263 -1.641639 1.0000 1.0000 1.0000
v 2.031945 3.945988 -2.970437 1.0000 1.0000 1.0000
v -0.055323 2.086771 -2.494570 1.0000 1.0000 1.0000
v 1.442350 5.211284 -0.613012 0.5451 0.5451 0.5451
v -0.644918 3.352067 -0.137147 0.0392 0.0392 0.0392
v 0.774455 3.086849 -2.829569 1.0000 1.0000 1.0000
v 0.301444 4.313091 -0.418873 0.2039 0.2039 0.2039
v 0.505133 4.066055 -1.632553 1.0000 1.0000 1.0000
v 1.723306 4.554400 -1.947134 1.0000 1.0000 1.0000
v -0.380257 2.728937 -1.410864 1.0000 1.0000 1.0000
v -0.559764 5.842762 1.187039 0.2039 0.2039 0.2039
v 0.048084 6.853493 -0.016782 0.0118 0.0118 0.0118
v 0.223467 4.713489 0.634376 0.0863 0.0863 0.0863
v 0.831314 5.724220 -0.569443 0.1255 0.1255 0.1255
v -0.523067 6.264408 0.426684 1.0000 1.0000 1.0000
v -0.523067 6.264408 0.426684 1.0000 1.0000 1.0000
v 0.423170 5.208703 -0.072234 0.1373 0.1373 0.1373
v 0.423170 5.208703 -0.072234 0.1373 0.1373 0.1373
v 0.346878 6.286533 -0.341931 0.0000 0.0000 0.0000
v -0.246755 5.253031 0.849947 0.4510 0.4510 0.4510
v -0.232861 5.698374 0.053331 0.1412 0.1412 0.1412
v -0.232861 5.698374 0.053331 0.1412 0.1412 0.1412
v 1.991691 6.755922 -2.233621 1.0000 1.0000 1.0000
v 1.513111 8.462167 -0.685671 1.0000 1.0000 1.0000
v 0.766233 5.137735 -0.828833 0.4471 0.4471 0.4471
v 0.287654 6.843982 0.719118 0.4941 0.4941 0.4941
v 1.997277 7.608710 -1.263825 1.0000 1.0000 1.0000
v 1.997277 7.608710 -1.263825 1.0000 1.0000 1.0000
v 0.637605 5.991134 0.034120 0.0471 0.0471 0.0471
v 1.557491 6.504259 -0.488819 1.0000 1.0000 1.0000
v 1.521616 6.012183 -1.559161 1.0000 1.0000 1.0000
v 1.013030 7.676035 0.026242 1.0000 1.0000 1.0000
v 0.077874 7.631974 -3.247200 1.0000 1.0000 1.0000
v 1.000325 8.852833 -1.194822 1.0000 1.0000 1.0000
v -0.620899 5.665253 -1.763225 1.0000 1.0000 1.0000
v 0.301550 6.886112 0.289153 0.0275 0.0275 0.0275
v 0.804331 8.177284 -2.194578 1.0000 1.0000 1.0000
v -0.039453 6.246529 -0.724566 0.0196 0.0196 0.0196
v 0.520002 6.878928 -1.568025 1.0000 1.0000 1.0000
v -0.163979 6.716978 -2.594212 1.0000 1.0000 1.0000
v 0.741951 7.886065 -0.503612 1.0000 1.0000 1.0000
v -1.685091 6.264291 -0.481507 1.0000 1.0000 1.0000
v -0.757646 7.394010 -0.905353 1.0000 1.0000 1.0000
v -0.357830 5.267451 -0.234230 0.0353 0.0353 0.0353
v 0.569614 6.397169 -0.658075 0.3961 0.3961 0.3961
v -1.269773 6.718592 -0.985690 1.0000 1.0000 1.0000
v -1.269773 6.718592 -0.985690 1.0000 1.0000 1.0000
v 0.109431 5.813280 -0.589995 0.3137 0.3137 0.3137
v 0.109431 5.813280 -0.589995 0.3137 0.3137 0.3137
v -0.124366 6.883462 -0.880453 0.8941 0.8941 0.8941
v -1.025597 5.733472 -0.453279 0.2039 0.2039 0.2039
v -0.609014 6.209861 -0.999204 1.0000 1.0000 1.0000
v -0.609014 6.209861 -0.999204 1.0000 1.0000 1.0000
v -1.702774 8.127143 -0.931802 1.0000 1.0000 1.0000
v -0.744338 8.898872 -1.078898 1.0000 1.0000 1.0000
v -0.916834 7.177622 -0.792430 1.0000 1.0000 1.0000
v 0.041604 7.949353 -0.939524 1.0000 1.0000 1.0000
v -1.252394 8.471569 -1.203641 1.0000 1.0000 1.0000
v -1.252394 8.471569 -1.203641 1.0000 1.0000 1.0000
v -0.424374 7.565908 -0.959718 1.0000 1.0000 1.0000
v -0.366834 8.430804 -1.074878 1.0000 1.0000 1.0000
v -1.309709 7.640074 -0.926074 1.0000 1.0000 1.0000
v -0.850009 8.005798 -1.223004 1.0000 1.0000 1.0000
v -0.646575 8.300286 -2.521920 1.0000 1.0000 1.0000
v -0.315078 9.115369 -1.023688 1.0000 1.0000 1.0000
v -0.595647 6.769412 -1.700346 0.9960 0.9960 0.9960
v -0.264149 7.584493 -0.202114 0.4628 0.4628 0.4628
v -0.296349 8.727846 -1.757051 1.0000 1.0000 1.0000
v -0.346357 7.186213 -0.943728 1.0000 1.0000 1.0000
v -0.156552 7.789336 -1.450033 1.0000 1.0000 1.0000
v -0.570660 7.611088 -2.163771 1.0000 1.0000 1.0000
v -0.236649 8.386390 -0.644456 0.4510 0.4510 0.4510
v -2.760299 7.239443 -1.232133 1.0000 1.0000 1.0000
v -1.206119 8.377981 -0.442892 1.0000 1.0000 1.0000
v -2.129568 5.601361 -0.111115 1.0000 1.0000 1.0000
v -0.575389 6.739900 0.678126 1.0000 1.0000 1.0000
v -1.807359 7.790521 -0.973679 1.0000 1.0000 1.0000
v -1.272536 6.162685 0.222102 1.0000 1.0000 1.0000
v -1.485399 6.724417 -0.540275 1.0000 1.0000 1.0000
v -2.439370 6.487129 -0.778838 1.0000 1.0000 1.0000
v -0.867967 7.582765 0.038376 1.0000 1.0000 1.0000
v -2.496963 6.541052 1.592324 1.0000 1.0000 1.0000
v -2.144817 7.533931 -0.272386 1.0000 1.0000 1.0000
v -1.162014 5.289130 1.177830 1.0000 1.0000 1.0000
v -0.809868 6.282007 -0.686879 0.6667 0.6667 0.6667
v -2.569072 6.832415 0.552677 1.0000 1.0000 1.0000
v -2.569072 6.832415 0.552677 1.0000 1.0000 1.0000
v -1.088557 5.720024 0.145791 1.0000 1.0000 1.0000
v -1.574433 6.869179 -0.518621 1.0000 1.0000 1.0000
v -1.901331 5.850451 1.337090 1.0000 1.0000 1.0000
v -2.005095 6.153731 0.251268 1.0000 1.0000 1.0000
v -2.517347 6.050465 -2.444385 1.0000 1.0000 1.0000
v -1.834661 8.023081 -0.903668 1.0000 1.0000 1.0000
v -1.445115 4.214178 -0.568441 1.0000 1.0000 1.0000
v -0.762429 6.186793 0.972274 0.2510 0.2510 0.2510
v -1.847715 7.127822 -1.789798 1.0000 1.0000 1.0000
v -1.847715 7.127822 -1.789798 1.0000 1.0000 1.0000
v -0.955086 5.242170 0.149928 0.9568 0.9568 0.9568
v -0.955086 5.242170 0.149928 0.9568 0.9568 0.9568
v -1.056137 5.943973 -0.999115 1.0000 1.0000 1.0000
v -1.056137 5.943973 -0.999115 1.0000 1.0000 1.0000
v -1.942716 5.234091 -1.653779 1.0000 1.0000 1.0000
v -1.230097 7.159222 -0.065530 1.0000 1.0000 1.0000
v -1.893650 5.821722 -0.935165 1.0000 1.0000 1.0000
v -1.522808 3.832146 -2.844465 1.0000 1.0000 1.0000
v -0.440445 4.102364 1.138741 1.0000 1.0000 1.0000
v -0.069601 2.112786 -0.770558 0.4510 0.4510 0.4510
v -1.993850 4.625559 -1.871195 1.0000 1.0000 1.0000
v -1.993850 4.625559 -1.871195 1.0000 1.0000 1.0000
v -0.384144 3.015976 0.192039 0.0039 0.0039 0.0039
v -1.446350 3.718519 -0.472312 1.0000 1.0000 1.0000
v -1.332739 5.008925 0.020752 0.2039 0.2039 0.2039
v -0.926237 2.973796 -1.834154 1.0000 1.0000 1.0000
v -2.515709 3.519974 -0.147241 1.0000 1.0000 1.0000
v -2.020213 1.982410 0.945063 1.0000 1.0000 1.0000
v -0.627967 3.912403 -0.451172 0.4510 0.4510 0.4510
v -0.132472 2.374841 0.641132 0.0000 0.0000 0.0000
v -2.287983 2.964513 0.639246 1.0000 1.0000 1.0000
v -2.287983 2.964513 0.639246 1.0000 1.0000 1.0000
v -0.375687 3.197955 0.233667 0.0157 0.0157 0.0157
v -1.109258 2.230131 0.880528 0.4510 0.4510 0.4510
v -1.567304 3.776454 -0.216431 1.0000 1.0000 1.0000
v -1.349979 3.207026 0.620984 1.0000 1.0000 1.0000
v 1.939414 3.231259 2.227747 1.0000 1.0000 1.0000
v 2.362503 1.528540 0.659326 1.0000 1.0000 1.0000
v 0.001025 4.365157 0.473866 0.0196 0.0196 0.0196
v 0.424115 2.662438 -1.094555 1.0000 1.0000 1.0000
v 2.357111 2.469198 1.283984 1.0000 1.0000 1.0000
v 0.305938 3.553770 -0.382918 0.0078 0.0078 0.0078
v 1.382809 3.371871 0.343709 1.0000 1.0000 1.0000
v 1.128325 3.784864 1.407941 1.0000 1.0000 1.0000
v 1.502430 2.112581 -0.206735 1.0000 1.0000 1.0000
v -3.455912 4.615255 0.704347 1.0000 1.0000 1.0000
v -1.824622 5.897248 -1.370795 1.0000 1.0000 1.0000
v -1.328405 3.080763 1.428812 1.0000 1.0000 1.0000
v 0.302883 4.362758 -0.646331 0.2039 0.2039 0.2039
v -2.805152 4.945375 -0.572625 1.0000 1.0000 1.0000
v -2.805152 4.945375 -0.572625 1.0000 1.0000 1.0000
v -0.542611 3.616285 0.226018 0.4157 0.4157 0.4157
v -0.836152 5.064091 -1.108462 0.4745 0.4745 0.4745
v -2.425874 3.750106 0.979594 1.0000 1.0000 1.0000
v -1.779126 4.090007 -0.373006 1.0000 1.0000 1.0000
v -2.639113 2.636880 -0.076617 1.0000 1.0000 1.0000
v -1.982097 3.652987 2.334266 1.0000 1.0000 1.0000
v -1.016770 4.064490 -1.120427 0.4510 0.4510 0.4510
v -0.359756 5.080596 1.290456 0.1059 0.1059 0.1059
v -2.596247 3.382927 1.046522 1.0000 1.0000 1.0000
v -2.596247 3.382927 1.046522 1.0000 1.0000 1.0000
v -0.799467 4.708080 0.113906 0.3176 0.3176 0.3176
v -1.282449 4.425767 1.817899 1.0000 1.0000 1.0000
v -1.908672 3.439384 -0.613904 1.0000 1.0000 1.0000
v -1.897814 4.217351 0.561612 1.0000 1.0000 1.0000
v 3.253587 4.506149 0.589810 1.0000 1.0000 1.0000
v 1.986753 3.897250 -1.912490 1.0000 1.0000 1.0000
v 1.156073 5.828036 1.330049 1.0000 1.0000 1.0000
v -0.110758 5.219138 -1.172252 0.3568 0.3568 0.3568
v 2.662875 4.355208 -0.830523 1.0000 1.0000 1.0000
v 0.541660 5.592882 0.001735 0.0627 0.0627 0.0627
v 1.657685 5.292326 -0.267647 1.0000 1.0000 1.0000
v 2.338384 5.152558 0.895852 1.0000 1.0000 1.0000
v 1.017701 4.579165 -1.587827 1.0000 1.0000 1.0000
v -3.198652 6.874312 0.100950 1.0000 1.0000 1.0000
v -2.004992 7.472012 -1.148038 1.0000 1.0000 1.0000
v -1.868330 5.919762 0.915548 1.0000 1.0000 1.0000
v -0.674668 6.517463 -0.333441 0.4510 0.4510 0.4510
v -2.604773 7.049210 -0.675265 1.0000 1.0000 1.0000
v -1.272536 6.162685 0.222102 1.0000 1.0000 1.0000
v -1.991764 6.344173 -0.197562 1.0000 1.0000 1.0000
v -2.614809 6.401904 0.432862 1.0000 1.0000 1.0000
v -1.386916 6.973838 -0.795743 1.0000 1.0000 1.0000
v 1.333726 4.751493 3.363214 1.0000 1.0000 1.0000
v 2.452027 2.913578 1.236602 1.0000 1.0000 1.0000
v -0.148287 6.460403 1.106964 1.0000 1.0000 1.0000
v 0.970013 4.622490 -1.019648 1.0000 1.0000 1.0000
v 2.181377 3.947248 2.208414 1.0000 1.0000 1.0000
v 0.541660 5.592882 0.001735 0.0627 0.0627 0.0627
v 1.452265 5.209683 1.102604 1.0000 1.0000 1.0000
v 0.745513 5.572294 2.344518 1.0000 1.0000 1.0000
v 1.827078 3.779949 0.159211 1.0000 1.0000 1.0000
v -3.075227 2.318450 0.011321 1.0000 1.0000 1.0000
v -1.877696 1.130212 1.774624 1.0000 1.0000 1.0000
v -0.988113 3.365138 -0.700791 0.0902 0.0902 0.0902
v 0.209419 2.176899 1.062511 0.0588 0.0588 0.0588
v -2.548281 1.920844 0.989751 1.0000 1.0000 1.0000
v -0.415054 2.853191 0.234629 0.0078 0.0078 0.0078
v -1.214300 2.552092 0.868624 0.4510 0.4510 0.4510
v -0.900638 1.678964 1.480852 1.0000 1.0000 1.0000
v -2.062016 2.886202 -0.294200 1.0000 1.0000 1.0000
v 1.874344 3.050188 -2.457917 1.0000 1.0000 1.0000
v 0.017313 1.656271 -2.221074 1.0000 1.0000 1.0000
v 1.266427 4.190471 -0.513427 0.2000 0.2000 0.2000
v -0.590605 2.796555 -0.276585 0.0392 0.0392 0.0392
v 0.877323 2.520801 -2.465353 1.0000 1.0000 1.0000
v 0.296403 3.561427 -0.450603 0.0039 0.0039 0.0039
v 0.224934 3.158090 -1.381828 1.0000 1.0000 1.0000
v -0.307047 2.238765 -1.336099 1.0000 1.0000 1.0000
v 1.538866 3.653152 -1.539634 1.0000 1.0000 1.0000
v 3.512126 4.123442 0.550525 1.0000 1.0000 1.0000
v 2.053768 2.223100 -0.835327 1.0000 1.0000 1.0000
v 1.114442 5.889487 0.651977 0.9490 0.9490 0.9490
v -0.343916 3.989147 -0.733874 0.1882 0.1882 0.1882
v 2.904211 3.337749 -0.357412 1.0000 1.0000 1.0000
v 0.431863 5.002964 -0.146069 0.3451 0.3451 0.3451
v 1.392756 4.280285 -0.647504 1.0000 1.0000 1.0000
v 0.942798 3.097538 -0.865298 0.3608 0.3608 0.3608
v 2.359796 5.029174 0.521164 1.0000 1.0000 1.0000
v 1.531879 8.469421 1.344330 1.0000 1.0000 1.0000
v 1.349231 8.769062 -0.894902 1.0000 1.0000 1.0000
v 0.818857 6.329368 1.116121 1.0000 1.0000 1.0000
v 0.636211 6.629007 -1.123111 1.0000 1.0000 1.0000
v 1.251454 8.678923 0.305473 1.0000 1.0000 1.0000
v 0.640950 6.507884 0.020359 0.0078 0.0078 0.0078
v 0.650804 7.493374 -0.048356 0.4392 0.4392 0.4392
v 0.950375 7.774800 -0.995414 1.0000 1.0000 1.0000
v 1.119710 7.438202 1.239958 0.9960 0.9960 0.9960
v 0.697329 6.967651 -0.298891 0.3294 0.3294 0.3294
v 0.697329 6.967651 -0.298891 0.3294 0.3294 0.3294
v 0.352658 8.470892 -1.173996 1.0000 1.0000 1.0000
v 0.352658 8.470892 -1.173996 1.0000 1.0000 1.0000
v 0.653397 7.716533 -0.876227 1.0000 1.0000 1.0000
v 0.653397 7.716533 -0.876227 1.0000 1.0000 1.0000
v -0.195982 8.157040 -1.327313 1.0000 1.0000 1.0000
v -0.050689 7.385721 -1.126818 1.0000 1.0000 1.0000
v 0.456248 8.754757 -0.754046 1.0000 1.0000 1.0000
v 0.892098 8.070838 -0.270542 1.0000 1.0000 1.0000
v 0.794107 7.141814 -0.065035 0.4510 0.4510 0.4510
v 0.270142 6.661640 -0.525566 0.0000 0.0000 0.0000
v 0.743602 7.772688 -0.379223 1.0000 1.0000 1.0000
v 0.743602 7.772688 -0.379223 1.0000 1.0000 1.0000
v 1.269934 8.683175 -0.560252 1.0000 1.0000 1.0000
v 1.269934 8.683175 -0.560252 1.0000 1.0000 1.0000
v 0.946406 8.275426 -0.554303 1.0000 1.0000 1.0000
v 0.946406 8.275426 -0.554303 1.0000 1.0000 1.0000
v 1.132766 8.774001 -0.205091 1.0000 1.0000 1.0000
v 0.789854 8.438713 -0.117557 1.0000 1.0000 1.0000
v 1.529237 8.527802 -0.634832 1.0000 1.0000 1.0000
v 1.281747 8.020651 -0.701269 1.0000 1.0000 1.0000
v 0.891252 7.683554 -0.445852 1.0000 1.0000 1.0000
v 0.572748 7.881339 -0.100620 1.0000 1.0000 1.0000
v 3.198030 6.695385 1.145490 1.0000 1.0000 1.0000
v 1.838740 8.458471 -0.112002 1.0000 1.0000 1.0000
v 1.430759 4.919096 0.565350 1.0000 1.0000 1.0000
v 0.071470 6.682181 -0.692140 0.0157 0.0157 0.0157
v 0.633801 5.895361 0.028659 0.0471 0.0471 0.0471
v 2.333408 7.689884 0.788996 1.0000 1.0000 1.0000
v 2.333408 7.689884 0.788996 1.0000 1.0000 1.0000
v 1.466425 6.830647 0.725210 1.0000 1.0000 1.0000
v 2.198690 5.772229 0.931404 1.0000 1.0000 1.0000
v 0.842949 7.538756 -0.325103 1.0000 1.0000 1.0000
v 2.053805 5.787269 -2.723859 1.0000 1.0000 1.0000
v 0.665835 7.636639 -1.991820 1.0000 1.0000 1.0000
v 1.113645 4.226747 -0.564045 0.2118 0.2118 0.2118
v -0.274326 6.076117 0.167995 0.0549 0.0549 0.0549
v 0.490995 5.265181 -0.091129 0.0706 0.0706 0.0706
v 1.593411 6.862246 -2.161591 1.0000 1.0000 1.0000
v 1.593411 6.862246 -2.161591 1.0000 1.0000 1.0000
v 1.345409 6.120752 -1.073493 1.0000 1.0000 1.0000
v 1.635018 4.991411 -1.507293 1.0000 1.0000 1.0000
v 0.248757 6.843778 -0.779587 0.0353 0.0353 0.0353
v -1.224276 6.864297 0.405421 1.0000 1.0000 1.0000
v -1.224276 6.864297 0.405421 1.0000 1.0000 1.0000
v -1.858498 8.291528 0.060966 1.0000 1.0000 1.0000
v -1.858498 8.291528 0.060966 1.0000 1.0000 1.0000
v -1.533999 7.582076 0.062193 1.0000 1.0000 1.0000
v -1.533999 7.582076 0.062193 1.0000 1.0000 1.0000
v -2.347614 8.038221 0.262758 1.0000 1.0000 1.0000
v -2.187600 7.325722 0.286851 1.0000 1.0000 1.0000
v -1.523806 8.511456 0.300457 1.0000 1.0000 1.0000
v -0.993801 7.847013 0.353555 1.0000 1.0000 1.0000
v -1.009819 7.000007 0.516651 1.0000 1.0000 1.0000
v -1.671621 6.619838 0.486366 1.0000 1.0000 1.0000
v -1.457318 7.940822 0.565276 1.0000 1.0000 1.0000
v -1.457318 7.940822 0.565276 1.0000 1.0000 1.0000
v -1.389250 8.779213 0.572801 1.0000 1.0000 1.0000
v -1.389250 8.779213 0.572801 1.0000 1.0000 1.0000
v -1.483469 8.385310 0.507015 1.0000 1.0000 1.0000
v -1.483469 8.385310 0.507015 1.0000 1.0000 1.0000
v -1.512413 8.746822 0.853825 1.0000 1.0000 1.0000
v -1.643550 8.385657 0.860129 1.0000 1.0000 1.0000
v -1.153296 8.766962 0.506387 1.0000 1.0000 1.0000
v -1.161026 8.338925 0.374708 1.0000 1.0000 1.0000
v -1.323090 7.936822 0.508643 1.0000 1.0000 1.0000
v -1.611585 7.920643 0.787756 1.0000 1.0000 1.0000
v -0.527325 7.986712 -0.993518 1.0000 1.0000 1.0000
v -0.527325 7.986712 -0.993518 1.0000 1.0000 1.0000
v -0.699696 8.959040 -0.912510 1.0000 1.0000 1.0000
v -0.699696 8.959040 -0.912510 1.0000 1.0000 1.0000
v -0.562032 8.512723 -1.036754 1.0000 1.0000 1.0000
v -0.562032 8.512723 -1.036754 1.0000 1.0000 1.0000
v -1.039851 8.857534 -0.990368 1.0000 1.0000 1.0000
v -0.999419 8.432506 -1.140706 1.0000 1.0000 1.0000
v -0.568369 8.968430 -0.655149 1.0000 1.0000 1.0000
v -0.329029 8.499932 -0.694609 0.4510 0.4510 0.4510
v -0.431831 7.999447 -0.851434 0.4510 0.4510 0.4510
v -0.810592 7.910360 -1.120732 1.0000 1.0000 1.0000
v -0.107286 6.383392 -0.811828 0.0627 0.0627 0.0627
v -0.107286 6.383392 -0.811828 0.0627 0.0627 0.0627
v -0.629343 8.389965 0.058252 0.4590 0.4590 0.4590
v -0.629343 8.389965 0.058252 0.4590 0.4590 0.4590
v -0.608061 7.392530 -0.397473 1.0000 1.0000 1.0000
v -0.608061 7.392530 -0.397473 1.0000 1.0000 1.0000
v -0.375382 8.033836 0.757441 1.0000 1.0000 1.0000
v -0.331897 7.032120 0.534135 0.5451 0.5451 0.5451
v -0.272776 8.699169 -0.397430 0.9019 0.9019 0.9019
v -0.166246 7.765015 -1.138691 1.0000 1.0000 1.0000
v 0.061876 6.574192 -1.106359 0.4902 0.4902 0.4902
v -0.020552 6.039703 -0.178600 0.0118 0.0118 0.0118
v -1.066770 7.203369 2.136014 1.0000 1.0000 1.0000
v -1.045415 8.368093 0.822634 1.0000 1.0000 1.0000
v -1.140739 5.891088 0.971062 1.0000 1.0000 1.0000
v -1.119386 7.055813 -0.342318 1.0000 1.0000 1.0000
v -1.217061 6.516398 0.275409 1.0000 1.0000 1.0000
v -1.249568 7.816967 1.465030 1.0000 1.0000 1.0000
v -1.390975 7.160339 0.972393 1.0000 1.0000 1.0000
v -1.170128 6.504935 1.514953 1.0000 1.0000 1.0000
v -1.148528 7.672226 0.203853 1.0000 1.0000 1.0000
v -1.629083 4.687707 -3.211803 1.0000 1.0000 1.0000
v -0.588753 2.570426 -1.863322 1.0000 1.0000 1.0000
v -0.227476 6.604859 -1.282948 0.4432 0.4432 0.4432
v 0.812852 4.487577 0.065533 1.0000 1.0000 1.0000
v -1.406661 3.671275 -2.378456 1.0000 1.0000 1.0000
v -1.406661 3.671275 -2.378456 1.0000 1.0000 1.0000
v 0.163882 5.553321 -0.529091 0.4235 0.4235 0.4235
v -0.683680 4.576758 -0.931734 0.2667 0.2667 0.2667
v -0.008822 3.476601 -0.887919 0.5530 0.5530 0.5530
v -1.026000 5.627221 -2.201921 1.0000 1.0000 1.0000
v 2.410601 5.187196 1.731136 1.0000 1.0000 1.0000
v 0.187675 7.127167 -0.035296 0.0392 0.0392 0.0392
v 1.494610 2.854378 0.321841 0.9215 0.9215 0.9215
v -0.728316 4.794348 -1.444591 0.4432 0.4432 0.4432
v 1.111486 6.063636 1.148668 1.0000 1.0000 1.0000
v 0.285664 3.793030 -0.435322 0.2000 0.2000 0.2000
v 0.132770 4.846886 0.331523 0.4314 0.4314 0.4314
v -0.322976 6.006343 -0.623614 0.0353 0.0353 0.0353
v 1.882872 4.025541 1.119462 1.0000 1.0000 1.0000
v 0.435090 5.204243 -0.095396 0.1294 0.1294 0.1294
v 0.435090 5.204243 -0.095396 0.1294 0.1294 0.1294
v 0.390904 6.695063 0.764435 0.3372 0.3372 0.3372
v 0.390904 6.695063 0.764435 0.3372 0.3372 0.3372
v 0.182400 6.020048 0.312100 0.0549 0.0549 0.0549
v 0.182400 6.020048 0.312100 0.0549 0.0549 0.0549
v 0.182400 6.020048 0.312100 0.0549 0.0549 0.0549
v 0.534447 6.233564 1.332353 1.0000 1.0000 1.0000
v 0.340801 5.507342 1.075408 0.8862 0.8862 0.8862
v 0.822239 6.918485 0.411608 0.1176 0.1176 0.1176
v 0.718583 6.320932 -0.274123 0.0863 0.0863 0.0863
v 0.718583 6.320932 -0.274123 0.0863 0.0863 0.0863
v 0.652250 5.357734 -0.325478 0.0431 0.0431 0.0431
v 0.421055 4.807508 0.414198 0.9921 0.9921 0.9921
v -2.048070 7.059963 -0.906332 1.0000 1.0000 1.0000
v -1.073950 8.300589 -1.222433 1.0000 1.0000 1.0000
v -0.767393 6.109917 -0.688406 0.4432 0.4432 0.4432
v 0.206728 7.350542 -1.004508 1.0000 1.0000 1.0000
v -0.251750 6.752421 -0.935170 0.8588 0.8588 0.8588
v -1.551107 7.661474 -1.243188 1.0000 1.0000 1.0000
v -0.990048 7.144337 -1.222966 1.0000 1.0000 1.0000
v -1.364667 6.538533 -0.846796 1.0000 1.0000 1.0000
v -0.393055 7.781039 -1.163236 1.0000 1.0000 1.0000
v -0.999726 5.462520 0.156757 1.0000 1.0000 1.0000
v -0.999726 5.462520 0.156757 1.0000 1.0000 1.0000
v -0.524915 7.047843 1.944641 1.0000 1.0000 1.0000
v -0.524915 7.047843 1.944641 1.0000 1.0000 1.0000
v -0.876120 6.128487 1.279145 1.0000 1.0000 1.0000
v -0.876120 6.128487 1.279145 1.0000 1.0000 1.0000
v 0.387536 6.765459 1.766845 1.0000 1.0000 1.0000
v 0.300144 5.829417 1.158331 1.0000 1.0000 1.0000
v -0.933826 7.600910 1.591253 1.0000 1.0000 1.0000
v -1.574919 6.822273 0.774820 1.0000 1.0000 1.0000
v -1.285839 5.776662 -0.016552 1.0000 1.0000 1.0000
v -0.224331 5.105506 0.124507 0.0667 0.0667 0.0667
v 1.035141 7.218581 0.855214 0.4510 0.4510 0.4510
v -1.263444 8.624701 -0.234070 1.0000 1.0000 1.0000
v -0.016071 5.314984 0.616178 0.5059 0.5059 0.5059
v -2.314659 6.721102 -0.473107 1.0000 1.0000 1.0000
v -0.162168 7.922767 0.607192 1.0000 1.0000 1.0000
v -1.200106 6.026517 0.199558 1.0000 1.0000 1.0000
v -1.117364 6.970419 0.568114 1.0000 1.0000 1.0000
v -1.795156 7.732950 -0.263193 1.0000 1.0000 1.0000
v 0.484637 6.293849 0.823175 1.0000 1.0000 1.0000
v -3.184854 4.675112 -1.129237 1.0000 1.0000 1.0000
v -1.501204 6.480564 -1.054834 1.0000 1.0000 1.0000
v -1.518663 3.064126 0.258817 0.9333 0.9333 0.9333
v 0.164989 4.869579 0.333219 0.4510 0.4510 0.4510
v -2.280178 5.444856 -1.336677 1.0000 1.0000 1.0000
v -2.280178 5.444856 -1.336677 1.0000 1.0000 1.0000
v -0.638869 3.916917 0.185764 0.7960 0.7960 0.7960
v -1.025328 4.608059 -0.701021 0.4510 0.4510 0.4510
v -0.677905 5.688803 -0.472272 0.0902 0.0902 0.0902
v -2.332055 3.854889 -0.523625 1.0000 1.0000 1.0000
v -0.847765 4.763459 0.135399 0.4392 0.4392 0.4392
v -0.847765 4.763459 0.135399 0.4392 0.4392 0.4392
v -1.768962 6.523126 1.754336 1.0000 1.0000 1.0000
v -1.768962 6.523126 1.754336 1.0000 1.0000 1.0000
v -1.607161 5.696738 0.831605 1.0000 1.0000 1.0000
v -1.607161 5.696738 0.831605 1.0000 1.0000 1.0000
v -1.638142 5.881922 2.336333 1.0000 1.0000 1.0000
v -1.512786 4.965412 1.639384 1.0000 1.0000 1.0000
v -1.191722 6.929185 1.624447 1.0000 1.0000 1.0000
v -0.842694 6.251801 0.498928 1.0000 1.0000 1.0000
v -0.552460 5.027306 0.022158 0.1020 0.1020 0.1020
v -0.911087 4.185993 0.594048 1.0000 1.0000 1.0000
v 0.571547 5.259777 3.410196 1.0000 1.0000 1.0000
v -2.183973 6.897893 1.690570 1.0000 1.0000 1.0000
v 0.795777 3.065812 0.960917 0.1725 0.1725 0.1725
v -1.959747 4.703933 -0.758707 1.0000 1.0000 1.0000
v -0.934230 5.862812 2.742094 1.0000 1.0000 1.0000
v -0.655506 3.796422 0.178095 0.5137 0.5137 0.5137
v -1.254244 4.590797 1.224107 1.0000 1.0000 1.0000
v -2.139195 5.802269 0.575122 1.0000 1.0000 1.0000
v 0.619323 4.125136 2.252780 1.0000 1.0000 1.0000
v 1.007539 6.669538 1.697518 1.0000 1.0000 1.0000
v -0.577702 7.104283 -1.891910 1.0000 1.0000 1.0000
v 1.198573 4.391956 1.337295 1.0000 1.0000 1.0000
v -0.386668 4.826700 -2.252136 1.0000 1.0000 1.0000
v -0.072290 6.841348 0.132666 0.1922 0.1922 0.1922
v 0.267044 4.591178 -0.373761 0.4078 0.4078 0.4078
v -0.393081 5.505641 -0.349583 0.0196 0.0196 0.0196
v -0.589321 6.012905 -2.018965 1.0000 1.0000 1.0000
v 0.997734 5.538338 1.564839 1.0000 1.0000 1.0000
v -0.440955 6.451866 1.693305 1.0000 1.0000 1.0000
v -1.153775 6.452045 -1.448123 1.0000 1.0000 1.0000
v -0.342951 4.636569 1.670962 1.0000 1.0000 1.0000
v -1.055770 4.636748 -1.470465 0.4510 0.4510 0.4510
v -1.065682 6.448299 0.266041 1.0000 1.0000 1.0000
v -0.824783 4.635005 0.147354 0.3686 0.3686 0.3686
v -1.315844 5.366349 -0.028820 0.2039 0.2039 0.2039
v -1.196797 5.589695 -1.438411 1.0000 1.0000 1.0000
v -0.483592 5.557886 1.702929 1.0000 1.0000 1.0000
v 2.811693 7.296601 -0.781041 1.0000 1.0000 1.0000
v -0.779877 5.924417 3.759700 1.0000 1.0000 1.0000
v 1.873026 3.645885 -2.626718 1.0000 1.0000 1.0000
v -1.718545 2.273701 1.914021 1.0000 1.0000 1.0000
v 1.494183 6.439370 1.621032 1.0000 1.0000 1.0000
v 0.273269 2.874598 -0.271049 0.2039 0.2039 0.2039
v 0.869724 3.956404 1.206539 0.6000 0.6000 0.6000
v -1.103656 4.128186 2.960791 1.0000 1.0000 1.0000
v 2.473366 5.435845 -1.610956 1.0000 1.0000 1.0000
v -1.758940 3.432669 2.225857 1.0000 1.0000 1.0000
v -0.273273 1.967337 2.106829 1.0000 1.0000 1.0000
v -1.268236 4.086491 0.301579 1.0000 1.0000 1.0000
v 0.217432 2.621159 0.182551 0.0353 0.0353 0.0353
v -0.928107 2.857177 2.247191 1.0000 1.0000 1.0000
v -0.477177 3.416631 0.277966 0.1412 0.1412 0.1412
v -0.376615 3.187814 1.154031 0.4432 0.4432 0.4432
v -0.001325 2.315234 1.218282 0.0196 0.0196 0.0196
v -1.477870 3.792509 1.304160 1.0000 1.0000 1.0000
v 1.534242 2.206526 1.948568 1.0000 1.0000 1.0000
v 2.167088 1.243995 -0.236044 1.0000 1.0000 1.0000
v -0.114001 3.666625 0.827785 0.0039 0.0039 0.0039
v 0.518845 2.704094 -1.356826 1.0000 1.0000 1.0000
v 0.311724 3.239511 -0.346708 0.0039 0.0039 0.0039
v 2.057663 1.897599 0.794069 1.0000 1.0000 1.0000
v 1.364502 2.725116 0.338097 0.6980 0.6980 0.6980
v 0.716717 3.049949 1.340135 0.5530 0.5530 0.5530
v 1.352690 2.084457 -0.842266 1.0000 1.0000 1.0000
v -0.824568 4.523328 0.220325 0.3921 0.3921 0.3921
v 0.104856 3.628573 2.507129 1.0000 1.0000 1.0000
v 0.104856 3.628573 2.507129 1.0000 1.0000 1.0000
v -0.377934 4.232900 1.485162 1.0000 1.0000 1.0000
v -0.731140 3.163513 2.540086 1.0000 1.0000 1.0000
v -1.403958 3.612665 1.646234 1.0000 1.0000 1.0000
v 0.803282 3.587284 2.259152 1.0000 1.0000 1.0000
v 0.622696 4.294047 1.061252 0.9490 0.9490 0.9490
v -0.391173 4.537079 0.086641 0.2039 0.2039 0.2039
v -1.623844 4.196646 0.312327 1.0000 1.0000 1.0000
v -0.701588 6.297998 3.056998 1.0000 1.0000 1.0000
v -1.369336 4.418509 2.177198 1.0000 1.0000 1.0000
v 0.872871 6.963897 0.439481 0.4196 0.4196 0.4196
v 0.205126 5.084411 -0.440317 0.4510 0.4510 0.4510
v 0.633801 5.895361 0.028659 0.0471 0.0471 0.0471
v -0.789387 5.176357 2.729486 1.0000 1.0000 1.0000
v -0.789387 5.176357 2.729486 1.0000 1.0000 1.0000
v 0.117959 5.481085 1.601553 1.0000 1.0000 1.0000
v 0.225695 6.604796 1.697806 1.0000 1.0000 1.0000
v -0.445271 4.724083 0.823072 0.3098 0.3098 0.3098
v 1.167765 3.516569 2.800205 1.0000 1.0000 1.0000
v 1.879799 5.455930 1.535197 1.0000 1.0000 1.0000
v 0.063463 2.246592 0.231649 0.0549 0.0549 0.0549
v 0.775497 4.185954 -1.033359 0.6000 0.6000 0.6000
v 1.259035 4.562741 2.251907 1.0000 1.0000 1.0000
v 1.259035 4.562741 2.251907 1.0000 1.0000 1.0000
v 0.303741 3.261859 -0.369924 0.0039 0.0039 0.0039
v 0.477730 4.115849 0.633277 0.0588 0.0588 0.0588
v 1.278640 4.892527 0.333082 1.0000 1.0000 1.0000
v 0.546235 2.931628 1.553604 1.0000 1.0000 1.0000
vn 0.4029 0.2243 -0.8873
vn 0.3475 0.2725 -0.8972
vn 0.3465 0.2733 -0.8974
vn 0.8299 0.1418 0.5396
vn 0.9334 0.0552 0.3546
vn 0.9340 0.0545 0.3532
vn 0.8301 0.1418 0.5392
vn -0.0154 -0.1279 0.9917
vn -0.0064 -0.2133 0.9770
vn -0.0064 -0.2134 0.9769
vn -0.9604 -0.2448 0.1331
vn -0.9775 -0.1589 0.1389
vn -0.9774 -0.1596 0.1387
vn -0.9604 -0.2446 0.1332
vn -0.8349 -0.1214 -0.5369
vn -0.8597 0.0124 -0.5106
vn -0.8595 0.0102 -0.5111
vn 0.1471 0.2566 -0.9553
vn 0.1461 0.2562 -0.9555
vn 0.9822 -0.0731 0.1733
vn 0.9822 -0.0728 0.1731
vn -0.1836 -0.2192 0.9583
vn -0.1816 -0.2200 0.9585
vn -0.9963 0.0368 0.0778
vn -0.9954 0.0321 0.0903
vn -0.8681 0.1447 -0.4748
vn -0.1433 0.1414 -0.9795
vn -0.1435 0.1413 -0.9795
vn 0.8683 0.0046 -0.4960
vn 0.8526 0.2273 -0.4706
vn 0.8531 0.2240 -0.4712
vn 0.9223 0.0572 0.3822
vn 0.9231 0.0557 0.3806
vn -0.3190 -0.2109 0.9240
vn -0.3190 -0.2110 0.9240
vn -0.8663 -0.0093 -0.4994
vn -0.8578 -0.0109 -0.5138
vn -0.3396 0.0169 -0.9404
vn -0.3565 -0.0045 -0.9343
vn 0.7349 0.2871 -0.6144
vn 0.7344 0.2861 -0.6155
vn 0.8102 0.2147 0.5454
vn -0.1734 -0.1334 0.9758
vn -0.1726 -0.1322 0.9761
vn -0.9249 -0.3754 -0.0607
vn -0.9599 -0.2799 0.0129
vn -0.9549 -0.2970 -0.0000
vn -0.8130 -0.2102 -0.5430
vn -0.7497 -0.2776 -0.6008
vn 0.6534 0.1663 -0.7385
vn 0.6528 0.1650 -0.7394
vn 0.7806 0.3148 0.5399
vn 0.7791 0.3196 0.5393
vn 0.0864 0.1374 0.9867
vn 0.0890 0.1395 0.9862
vn -0.9521 -0.2449 0.1830
vn -0.9524 -0.2445 0.1819
vn -0.7496 -0.2909 -0.5945
vn 0.0943 -0.1368 -0.9861
vn -0.1203 -0.0525 -0.9914
vn -0.1135 -0.0552 -0.9920
vn 0.7871 0.1938 -0.5856
vn 0.7853 0.1940 -0.5879
vn 0.7378 0.4250 0.5244
vn 0.2426 0.1163 0.9631
vn 0.2427 0.1145 0.9633
vn -0.9022 -0.2194 0.3713
vn -0.9020 -0.2186 0.3722
vn -0.7936 -0.2371 -0.5603
vn -0.7962 -0.2291 -0.5600
vn -0.2885 0.0235 -0.9572
vn -0.2892 0.0236 -0.9570
vn 0.9223 0.1011 -0.3730
vn 0.9219 0.1019 -0.3738
vn 0.8316 0.0880 0.5484
vn 0.8328 0.0772 0.5482
vn 0.8328 0.0773 0.5482
vn 0.2138 -0.0014 0.9769
vn 0.2134 -0.0014 0.9770
vn -0.8885 -0.0874 0.4506
vn -0.8885 -0.0875 0.4504
vn -0.8363 -0.0588 -0.5451
vn -0.1097 0.0871 -0.9901
vn -0.1137 0.0855 -0.9898
vn 0.9492 0.0991 -0.2987
vn 0.9497 0.0946 -0.2985
vn 0.8339 0.0662 0.5479
vn 0.1709 -0.0441 0.9843
vn 0.1705 -0.0475 0.9842
vn -0.8871 -0.0937 0.4520
vn -0.8870 -0.0937 0.4521
vn -0.8355 -0.0494 -0.5473
vn -0.8374 -0.0316 -0.5456
vn -0.8372 -0.0325 -0.5460
vn 0.0510 0.1505 -0.9873
vn 0.9390 0.1682 -0.3001
vn 0.8402 0.0276 0.5416
vn 0.1644 -0.1002 0.9813
vn 0.1643 -0.1002 0.9813
vn -0.8778 -0.1636 0.4502
vn -0.8393 -0.0157 -0.5435
vn -0.8393 -0.0157 -0.5434
vn 0.5712 0.0635 0.8183
vn 0.6314 0.2095 0.7466
vn 0.6310 0.2083 0.7473
vn 0.5712 0.0635 0.8184
vn -0.8606 0.1265 0.4933
vn -0.7745 0.3047 0.5544
vn -0.7478 0.3472 0.5659
vn -0.8452 -0.0006 -0.5345
vn -0.8650 -0.0965 -0.4924
vn -0.8623 -0.0799 -0.5001
vn -0.3770 -0.0701 -0.9235
vn 0.7596 -0.1218 -0.6388
vn 0.6609 -0.3288 -0.6746
vn 0.6601 -0.3301 -0.6748
vn 0.7597 -0.1218 -0.6388
vn 0.9980 -0.0623 0.0110
vn 0.9876 -0.0015 0.1568
vn 0.9876 -0.0013 0.1573
vn 0.6358 0.2570 0.7278
vn 0.6294 0.2428 0.7382
vn -0.6174 0.5116 0.5975
vn -0.6175 0.5116 0.5975
vn -0.8688 -0.1424 -0.4742
vn -0.8723 -0.1422 -0.4678
vn 0.5265 -0.5181 -0.6740
vn 0.9561 0.1132 0.2704
vn 0.9560 0.1104 0.2717
vn 0.5434 -0.0136 0.8394
vn 0.7681 -0.0221 0.6400
vn -0.6437 -0.0469 0.7638
vn -0.6653 0.0307 0.7459
vn -0.6652 0.0304 0.7460
vn -0.6437 -0.0469 0.7639
vn -0.6791 0.0475 -0.7325
vn -0.8688 -0.1424 -0.4743
vn -0.6718 0.0494 -0.7391
vn 0.4838 0.0227 -0.8749
vn 0.5447 -0.0160 -0.8385
vn 0.5441 -0.0157 -0.8389
vn 0.9174 -0.0272 0.3970
vn 0.8630 -0.2416 0.4438
vn -0.6453 -0.0155 0.7638
vn -0.6469 -0.0106 0.7625
vn -0.9722 0.2325 0.0284
vn -0.9777 0.2086 0.0235
vn -0.9777 0.2085 0.0234
vn -0.5698 0.2953 -0.7669
vn -0.5669 0.2989 -0.7676
vn 0.6029 0.0529 -0.7960
vn 0.6027 0.0662 -0.7952
vn 0.8613 -0.2395 0.4481
vn 0.4660 -0.3397 0.8170
vn 0.4550 -0.2064 0.8663
vn 0.4546 -0.2030 0.8673
vn -0.5995 -0.1315 0.7895
vn -0.9826 0.1851 0.0183
vn -0.5065 0.3687 -0.7794
vn 0.5974 0.1712 -0.7834
vn 0.9727 -0.1329 0.1900
vn 0.9734 -0.1312 0.1880
vn 0.1033 0.0290 0.9942
vn 0.4049 0.0276 0.9140
vn -0.3555 -0.0725 0.9319
vn -0.2185 0.0331 0.9753
vn 0.1029 0.0290 0.9943
vn -0.9996 0.0284 -0.0091
vn -0.9988 0.0475 -0.0078
vn -0.9996 0.0284 -0.0090
vn -0.4440 0.0868 -0.8918
vn -0.1166 -0.0218 -0.9929
vn -0.4157 -0.0001 -0.9095
vn 0.3096 0.0647 -0.9487
vn 0.1878 -0.0360 -0.9815
vn -0.1164 -0.0218 -0.9930
vn 0.9998 -0.0165 0.0079
vn 0.9998 -0.0165 0.0077
vn -0.1345 0.1523 0.9791
vn -0.1436 0.1527 0.9778
vn -0.9953 0.0964 -0.0110
vn 0.0655 -0.1188 -0.9908
vn 0.0792 -0.1199 -0.9896
vn 0.9975 -0.0696 0.0077
vn 0.9975 -0.0696 0.0078
vn 0.4980 0.0530 0.8655
vn 0.4659 0.0799 0.8812
vn 0.4666 0.0793 0.8809
vn -0.3562 0.1587 0.9208
vn -0.3555 0.1588 0.9211
vn -0.9910 0.1097 0.0768
vn -0.9909 0.1093 0.0789
vn -0.1339 -0.1006 -0.9859
vn -0.3945 -0.0801 -0.9154
vn 0.1504 -0.1106 -0.9824
vn 0.9941 -0.0782 -0.0747
vn 0.9942 -0.0783 -0.0742
vn 0.4347 0.1052 0.8944
vn 0.4347 0.1051 0.8944
vn -0.4970 0.1435 0.8558
vn -0.9812 0.0919 0.1699
vn -0.4274 -0.1088 -0.8975
vn 0.2055 -0.1172 -0.9716
vn 0.9858 -0.0538 -0.1590
vn 0.8241 0.1689 -0.5407
vn 0.7991 0.1327 -0.5863
vn 0.8009 0.1352 -0.5833
vn 0.8234 0.1721 -0.5408
vn 0.9466 0.2346 0.2210
vn 0.9271 0.3252 0.1862
vn 0.9195 0.3518 0.1754
vn 0.4664 0.1548 0.8709
vn 0.3339 0.3023 0.8928
vn 0.3395 0.2966 0.8926
vn 0.4659 0.1568 0.8708
vn -0.8351 -0.1564 0.5274
vn -0.7652 -0.0733 0.6396
vn -0.7651 -0.0733 0.6397
vn -0.8352 -0.1564 0.5273
vn -0.9752 -0.2180 -0.0391
vn -0.9492 -0.3082 -0.0641
vn -0.9480 -0.3116 -0.0651
vn -0.3170 -0.1067 -0.9424
vn -0.2754 -0.2664 -0.9237
vn -0.2755 -0.2664 -0.9236
vn 0.6763 0.0321 -0.7359
vn 0.6758 0.0318 -0.7364
vn 0.9462 0.2907 0.1420
vn 0.9465 0.2899 0.1420
vn 0.2507 0.3071 0.9181
vn 0.2509 0.3066 0.9182
vn -0.6213 0.0382 0.7826
vn -0.6210 0.0383 0.7829
vn -0.9615 -0.2562 -0.0991
vn -0.9617 -0.2556 -0.0991
vn -0.3267 -0.2896 -0.8997
vn -0.3271 -0.2892 -0.8997
vn 0.5629 -0.0349 -0.8258
vn 0.9799 0.1408 0.1411
vn 0.3008 0.1766 0.9372
vn -0.5622 0.0649 0.8245
vn -0.5621 0.0649 0.8245
vn -0.9883 -0.1088 -0.1065
vn -0.4176 -0.1545 -0.8954
vn -0.2230 0.9739 -0.0430
vn -0.2229 0.9739 -0.0430
vn -0.2231 0.9739 -0.0430
vn 0.1182 0.9929 0.0150
vn 0.1180 0.9929 0.0150
vn 0.1182 0.9929 0.0151
vn 0.1183 0.9929 0.0150
vn -0.2381 0.9625 0.1299
vn -0.2380 0.9626 0.1292
vn -0.2379 0.9626 0.1295
vn -0.2379 0.9625 0.1301
vn -0.5405 0.3415 -0.7689
vn -0.6549 0.4046 -0.6383
vn -0.6215 0.3862 -0.6816
vn -0.9091 -0.1443 -0.3908
vn -0.8588 -0.2105 -0.4670
vn -0.8424 -0.2290 -0.4877
vn -0.7230 0.4410 -0.5318
vn -0.7230 0.4409 -0.5318
vn -0.7788 -0.2913 -0.5556
vn -0.7780 -0.1508 -0.6099
vn -0.7779 -0.1507 -0.6100
vn -0.4971 -0.2122 -0.8413
vn -0.7000 -0.2935 -0.6511
vn -0.4247 -0.3611 -0.8302
vn -0.2486 -0.1239 -0.9607
vn -0.2266 -0.2814 -0.9324
vn -0.6067 -0.4227 -0.6732
vn -0.2640 0.0358 -0.9639
vn -0.7851 -0.1614 -0.5980
vn -0.7267 -0.4607 -0.5096
vn -0.8359 -0.2210 -0.5024
vn -0.7434 -0.5298 -0.4081
vn -0.5109 -0.6642 -0.5457
vn -0.5745 -0.6958 -0.4310
vn -0.8863 -0.3002 -0.3527
vn -0.4537 -0.6305 -0.6298
vn 0.1549 0.6255 -0.7647
vn -0.0464 0.4731 -0.8798
vn -0.1291 0.5879 -0.7986
vn 0.0560 0.6937 -0.7181
vn -0.2407 0.6213 -0.7457
vn -0.2833 0.3880 -0.8771
vn -0.3643 0.4682 -0.8050
vn -0.0808 0.7685 -0.6347
vn -0.2130 0.3169 -0.9242
vn -0.5378 -0.3330 -0.7745
vn -0.2999 -0.2619 -0.9173
vn -0.2437 -0.4789 -0.8434
vn -0.4298 -0.5139 -0.7424
vn -0.0883 -0.6086 -0.7885
vn -0.0258 -0.3488 -0.9368
vn 0.0598 -0.5110 -0.8575
vn -0.2730 -0.7012 -0.6587
vn -0.1010 -0.1930 -0.9760
vn -0.4667 0.6575 -0.5916
vn -0.6332 0.5426 -0.5519
vn -0.6331 0.6286 -0.4517
vn -0.4970 0.7082 -0.5014
vn -0.6708 0.6505 -0.3561
vn -0.7635 0.4835 -0.4281
vn -0.7713 0.5414 -0.3346
vn -0.5287 0.7632 -0.3714
vn -0.7500 0.4309 -0.5018
vn -0.9137 -0.3417 -0.2200
vn -0.8132 -0.4692 -0.3444
vn -0.8072 -0.4751 -0.3504
vn -0.4853 -0.2444 -0.8395
vn -0.5897 -0.0557 -0.8057
vn -0.5846 -0.0664 -0.8086
vn -0.6710 -0.5820 -0.4595
vn -0.6593 0.1153 -0.7430
vn 0.9315 -0.3121 0.1868
vn 0.8216 -0.2683 0.5030
vn 0.8653 -0.4125 0.2849
vn 0.7236 -0.3324 0.6049
vn 0.7421 -0.0226 0.6699
vn 0.6616 -0.1440 0.7359
vn 0.7436 -0.5315 0.4056
vn 0.7946 0.0784 0.6021
vn 0.7946 0.0785 0.6021
vn 0.8094 -0.4261 -0.4042
vn 0.9240 -0.3312 -0.1912
vn 0.8687 -0.4749 -0.1409
vn 0.7840 -0.5282 -0.3260
vn 0.8359 -0.5475 -0.0392
vn 0.9427 -0.3305 0.0461
vn 0.8919 -0.4395 0.1066
vn 0.7288 -0.6510 -0.2123
vn 0.9718 -0.2356 -0.0047
vn -0.3937 -0.5102 -0.7647
vn -0.3936 -0.5107 -0.7644
vn -0.2300 -0.5819 -0.7801
vn -0.2202 -0.5855 -0.7802
vn 0.3005 -0.1881 -0.9350
vn 0.1874 -0.0441 -0.9813
vn 0.1926 -0.0505 -0.9800
vn 0.3005 -0.1881 -0.9351
vn -0.0479 -0.6372 -0.7692
vn 0.0784 0.0890 -0.9929
vn 0.0785 0.0886 -0.9930
vn -0.3455 -0.2758 -0.8970
vn -0.3455 -0.2756 -0.8970
vn 0.0035 -0.1910 -0.9816
vn -0.2087 -0.3725 -0.9043
vn 0.1174 -0.3058 -0.9448
vn 0.2228 -0.0019 -0.9749
vn 0.2914 -0.1453 -0.9455
vn -0.0719 -0.4555 -0.8873
vn 0.1488 0.1403 -0.9789
vn 0.8966 -0.0605 -0.4387
vn 0.9761 0.0413 -0.2133
vn 0.9761 -0.1177 -0.1826
vn 0.9108 -0.1739 -0.3745
vn 0.9736 -0.2093 -0.0914
vn 0.9996 0.0189 0.0226
vn 0.9919 -0.1076 0.0679
vn 0.9051 -0.3214 -0.2783
vn 0.9922 0.1235 -0.0153
vn 0.3562 -0.3048 -0.8833
vn 0.5722 -0.1880 -0.7983
vn 0.5859 -0.3372 -0.7369
vn 0.4051 -0.4077 -0.8184
vn 0.6418 -0.4115 -0.6472
vn 0.7485 -0.1785 -0.6387
vn 0.7679 -0.2925 -0.5699
vn 0.4597 -0.5346 -0.7091
vn 0.7221 -0.0815 -0.6870
vn -0.7798 -0.6167 -0.1080
vn -0.7799 -0.6166 -0.1080
vn -0.6535 -0.6096 -0.4486
vn -0.6616 -0.7242 -0.1945
vn -0.5076 -0.7098 -0.4884
vn -0.5852 -0.4564 -0.6703
vn -0.4624 -0.5822 -0.6688
vn -0.5273 -0.8051 -0.2716
vn -0.6896 -0.3169 -0.6512
vn 0.6974 -0.0861 -0.7115
vn 0.7882 -0.2102 -0.5785
vn 0.7690 -0.1807 -0.6131
vn 0.9793 0.1224 -0.1610
vn 0.9449 0.2261 -0.2368
vn 0.9357 0.2469 -0.2520
vn 0.8368 -0.3019 -0.4568
vn 0.8816 0.3449 -0.3221
vn -0.9292 -0.1208 0.3493
vn -0.9292 -0.1208 0.3492
vn -0.8482 -0.4235 0.3180
vn -0.8728 -0.2068 0.4422
vn -0.7671 -0.5179 0.3785
vn -0.7942 -0.6002 0.0952
vn -0.7233 -0.6587 0.2072
vn -0.7683 -0.3180 0.5555
vn -0.8399 -0.5428 0.0011
vn -0.1800 0.7849 0.5929
vn -0.1801 0.7848 0.5930
vn 0.0471 0.5883 0.8073
vn -0.0133 0.7920 0.6103
vn 0.2088 0.6000 0.7723
vn 0.1147 0.3371 0.9344
vn 0.2558 0.3956 0.8821
vn 0.1470 0.7780 0.6108
vn -0.0286 0.2703 0.9624
vn 0.7138 0.6818 -0.1600
vn 0.7779 0.5075 -0.3705
vn 0.6742 0.5995 -0.4314
vn 0.6427 0.7284 -0.2376
vn 0.5975 0.6145 -0.5151
vn 0.7197 0.3810 -0.5804
vn 0.6289 0.4441 -0.6381
vn 0.5269 0.7779 -0.3424
vn 0.7842 0.3264 -0.5277
vn -0.5139 -0.7358 -0.4409
vn -0.5139 -0.7358 -0.4410
vn -0.2535 -0.7208 -0.6451
vn -0.3759 -0.8151 -0.4407
vn -0.1207 -0.7910 -0.5998
vn -0.1073 -0.5843 -0.8044
vn -0.0075 -0.6785 -0.7345
vn -0.2340 -0.8720 -0.4299
vn -0.2039 -0.4771 -0.8549
vn -0.8038 0.5044 -0.3155
vn -0.8037 0.5044 -0.3157
vn -0.6700 0.7317 -0.1254
vn -0.7001 0.6233 -0.3482
vn -0.5479 0.8165 -0.1821
vn -0.5917 0.7998 0.1010
vn -0.4913 0.8710 0.0051
vn -0.5831 0.7227 -0.3711
vn -0.6772 0.7098 0.1938
vn 0.5378 0.7993 -0.2681
vn 0.4461 0.7815 -0.4362
vn 0.3641 0.8556 -0.3678
vn 0.4509 0.8588 -0.2432
vn 0.2664 0.8935 -0.3615
vn 0.2929 0.7981 -0.5265
vn 0.2103 0.8516 -0.4801
vn 0.3284 0.9218 -0.2060
vn 0.3596 0.7459 -0.5607
vn -0.4501 -0.7693 -0.4535
vn -0.2745 -0.7192 -0.6383
vn -0.1945 -0.8194 -0.5392
vn -0.3539 -0.8435 -0.4041
vn -0.0788 -0.8621 -0.5006
vn -0.0458 -0.7091 -0.7037
vn 0.0379 -0.7794 -0.6254
vn -0.2153 -0.9202 -0.3270
vn -0.1147 -0.6409 -0.7590
vn 0.7454 0.6446 0.1697
vn 0.8559 0.5165 -0.0255
vn 0.7739 0.6257 -0.0977
vn 0.6975 0.7122 0.0790
vn 0.7227 0.6609 -0.2023
vn 0.8563 0.4514 -0.2510
vn 0.7847 0.5282 -0.3245
vn 0.6151 0.7871 -0.0466
vn 0.9045 0.3829 -0.1877
vn -0.3259 0.8107 0.4864
vn -0.2547 0.7248 0.6401
vn -0.1062 0.7635 0.6371
vn -0.2369 0.8506 0.4694
vn -0.0308 0.8240 0.5658
vn -0.0516 0.6402 0.7665
vn 0.0908 0.7070 0.7014
vn -0.1242 0.8882 0.4423
vn -0.1530 0.5808 0.7995
vn -0.3534 0.7070 -0.6126
vn -0.5079 0.5968 -0.6212
vn -0.5881 0.6380 -0.4971
vn -0.3911 0.7509 -0.5322
vn -0.5760 0.7113 -0.4028
vn -0.7082 0.4950 -0.5035
vn -0.7370 0.5745 -0.3559
vn -0.4323 0.7946 -0.4263
vn -0.6748 0.4289 -0.6006
vn 0.4488 0.5214 -0.7257
vn 0.3605 0.3704 -0.8560
vn 0.2083 0.4255 -0.8807
vn 0.3606 0.5756 -0.7340
vn 0.1345 0.5210 -0.8429
vn 0.1306 0.2423 -0.9614
vn -0.0120 0.3503 -0.9366
vn 0.2451 0.6344 -0.7331
vn 0.2288 0.1612 -0.9600
vn -0.8842 0.3374 0.3230
vn -0.9109 0.3876 0.1417
vn -0.9629 0.2589 0.0763
vn -0.9206 0.2478 0.3019
vn -0.9836 0.1448 0.1072
vn -0.9429 0.3176 -0.1000
vn -0.9823 0.1524 -0.1092
vn -0.9530 0.1342 0.2717
vn -0.8978 0.4308 -0.0916
vn 0.9472 -0.1601 -0.2776
vn 0.9309 0.0363 -0.3634
vn 0.9308 0.0368 -0.3636
vn 0.9472 -0.1601 -0.2777
vn 0.4734 -0.3138 -0.8230
vn 0.3856 -0.1826 -0.9044
vn 0.4727 -0.3127 -0.8239
vn 0.8774 0.2170 -0.4278
vn 0.5470 -0.4362 -0.7145
vn -0.4699 -0.1166 -0.8750
vn -0.3468 0.0484 -0.9367
vn -0.3465 0.0489 -0.9368
vn -0.4699 -0.1165 -0.8750
vn -0.7808 0.4149 -0.4671
vn -0.6953 0.5682 -0.4402
vn -0.7802 0.4163 -0.4669
vn -0.2183 0.1994 -0.9553
vn -0.8422 0.2468 -0.4793
vn -0.7051 0.2334 0.6695
vn -0.6231 0.0968 0.7762
vn -0.5030 0.1928 0.8425
vn -0.6433 0.3494 0.6812
vn -0.2284 0.0880 0.9696
vn -0.3827 0.0061 0.9238
vn -0.5024 -0.0627 0.8624
vn -0.5567 0.4771 0.6800
vn 0.5496 0.4034 0.7316
vn 0.6749 0.2517 0.6937
vn 0.7502 0.3169 0.5803
vn 0.5639 0.4957 0.6605
vn 0.9193 0.1480 0.3647
vn 0.8536 0.1066 0.5099
vn 0.7826 0.0706 0.6185
vn 0.5709 0.5972 0.5634
vn 0.5321 -0.1686 -0.8297
vn 0.4806 0.0347 -0.8763
vn 0.4804 0.0353 -0.8763
vn -0.1914 -0.2596 -0.9466
vn -0.3001 -0.1191 -0.9464
vn -0.1924 -0.2584 -0.9467
vn 0.4130 0.2219 -0.8833
vn -0.0755 -0.3932 -0.9164
vn -0.3918 -0.1434 -0.9088
vn -0.3516 0.0662 -0.9338
vn -0.3515 0.0668 -0.9338
vn -0.8915 0.1246 -0.4356
vn -0.8787 0.2920 -0.3777
vn -0.8915 0.1261 -0.4351
vn -0.2998 0.2578 -0.9185
vn -0.8759 -0.0485 -0.4800
vn -0.8759 -0.0485 -0.4801
vn 0.8275 0.0073 -0.5615
vn 0.8213 0.2192 -0.5267
vn 0.8213 0.2198 -0.5265
vn 0.8275 0.0072 -0.5614
vn 0.2267 0.1691 -0.9592
vn 0.1430 0.3239 -0.9352
vn 0.2260 0.1706 -0.9591
vn 0.7818 0.4067 -0.4727
vn 0.3040 0.0074 -0.9526
vn 0.3041 0.0074 -0.9526
vn -0.8061 -0.1686 -0.5672
vn -0.8549 0.0347 -0.5176
vn -0.8550 0.0353 -0.5175
vn -0.9539 -0.2596 0.1506
vn -0.9584 -0.1191 0.2592
vn -0.9541 -0.2584 0.1517
vn -0.8648 0.2219 -0.4505
vn -0.9187 -0.3932 0.0362
vn -0.9776 0.0452 -0.2055
vn -0.9933 -0.0675 -0.0941
vn -0.9997 0.0174 0.0150
vn -0.9761 0.1459 -0.1612
vn -0.9902 0.1181 0.0740
vn -0.9813 -0.1282 0.1437
vn -0.9617 -0.0480 0.2697
vn -0.9805 -0.1933 0.0353
vn -0.9594 0.2612 -0.1068
vn -0.9118 0.1426 0.3850
vn -0.9118 0.1427 0.3850
vn -0.7555 -0.0095 0.6551
vn -0.8597 0.2022 0.4691
vn -0.7015 0.1119 0.7038
vn -0.6562 -0.2330 0.7177
vn -0.5559 -0.0964 0.8256
vn -0.7782 0.2730 0.5656
vn -0.7109 -0.3236 0.6244
vn -0.4915 -0.1982 0.8480
vn -0.6326 -0.0619 0.7720
vn -0.7400 -0.1775 0.6488
vn -0.5491 -0.3011 0.7796
vn -0.7376 -0.3326 0.5877
vn -0.8348 -0.0221 0.5501
vn -0.8784 -0.2048 0.4319
vn -0.6028 -0.4153 0.6813
vn -0.7737 0.1186 0.6224
vn -0.7560 0.0881 -0.6486
vn -0.7562 0.0882 -0.6484
vn -0.9896 -0.0421 0.1373
vn -0.9460 0.1189 0.3016
vn -0.9885 -0.0323 0.1476
vn -0.7142 0.5557 -0.4255
vn -0.9803 -0.1953 -0.0284
vn 0.2072 -0.1846 -0.9607
vn 0.1198 -0.3163 -0.9411
vn -0.0035 -0.2588 -0.9659
vn 0.1442 -0.0977 -0.9847
vn -0.0810 -0.1724 -0.9817
vn -0.1019 -0.4155 -0.9039
vn -0.2413 -0.3584 -0.9018
vn 0.0170 -0.4561 -0.8898
vn 0.0683 0.0054 -0.9977
vn -0.7762 -0.5018 0.3817
vn -0.7648 -0.3403 0.5471
vn -0.7640 -0.3361 0.5508
vn -0.1318 -0.6878 0.7138
vn -0.0374 -0.5596 0.8279
vn -0.1287 -0.6840 0.7181
vn -0.7165 -0.1714 0.6762
vn -0.2200 -0.7885 0.5744
vn -0.1403 0.0752 0.9872
vn -0.2903 0.1986 0.9361
vn -0.4452 0.0608 0.8934
vn -0.2242 -0.0448 0.9735
vn -0.4680 -0.1178 0.8758
vn -0.5642 0.1903 0.8034
vn -0.6534 -0.0226 0.7567
vn -0.3156 -0.1829 0.9311
vn -0.4719 0.3506 0.8089
vn 0.1598 -0.4536 -0.8768
vn 0.4564 -0.3352 -0.8242
vn 0.2393 -0.5102 -0.8261
vn 0.4950 -0.4399 -0.7493
vn 0.5640 -0.1295 -0.8156
vn 0.6659 -0.2468 -0.7040
vn 0.3346 -0.5723 -0.7487
vn 0.4795 -0.0437 -0.8765
vn -0.5103 0.2057 -0.8350
vn -0.5735 0.4085 -0.7101
vn -0.5710 0.3983 -0.7179
vn -0.9505 -0.2596 -0.1707
vn -0.9867 -0.1623 -0.0003
vn -0.9503 -0.2599 -0.1714
vn -0.6002 0.5659 -0.5652
vn -0.8735 -0.3491 -0.3394
vn -0.5001 -0.6179 0.6067
vn -0.6405 -0.5370 0.5491
vn -0.6718 -0.6108 0.4190
vn -0.5046 -0.6821 0.5292
vn -0.6227 -0.6996 0.3504
vn -0.7861 -0.4999 0.3636
vn -0.7586 -0.6077 0.2352
vn -0.5033 -0.7505 0.4282
vn -0.7920 -0.4105 0.4519
vn -0.8155 -0.0347 0.5777
vn -0.9010 0.0137 0.4336
vn -0.9236 -0.1970 0.3289
vn -0.8145 -0.2042 0.5430
vn -0.8495 -0.3950 0.3498
vn -0.9746 -0.1361 0.1777
vn -0.9104 -0.3906 0.1363
vn -0.7845 -0.3869 0.4847
vn -0.9758 0.0828 0.2026
vn -0.9073 0.0747 0.4138
vn -0.9619 0.1073 0.2516
vn -0.9779 -0.1229 0.1690
vn -0.9098 -0.1057 0.4015
vn -0.9164 -0.3276 0.2300
vn -0.9967 -0.0815 0.0046
vn -0.9365 -0.3506 0.0086
vn -0.8774 -0.3029 0.3721
vn -0.9888 0.1490 0.0010
vn 0.8835 -0.2991 0.3605
vn 0.8006 -0.3215 0.5057
vn 0.7249 -0.4949 0.4792
vn 0.8514 -0.4203 0.3138
vn 0.7103 -0.6052 0.3593
vn 0.6239 -0.4887 0.6099
vn 0.5645 -0.6596 0.4963
vn 0.7953 -0.5509 0.2528
vn 0.6508 -0.3371 0.6803
vn 0.4859 0.7454 0.4564
vn 0.6272 0.6194 0.4722
vn 0.6996 0.6299 0.3373
vn 0.5206 0.7708 0.3672
vn 0.6870 0.6882 0.2331
vn 0.8030 0.4758 0.3590
vn 0.8267 0.5265 0.1984
vn 0.5564 0.7916 0.2526
vn 0.7716 0.4308 0.4681
vn 0.6299 0.7063 -0.3230
vn 0.5913 0.7839 -0.1894
vn 0.6835 0.7221 -0.1067
vn 0.7107 0.6337 -0.3056
vn 0.7629 0.6423 -0.0743
vn 0.6038 0.7952 0.0558
vn 0.6799 0.7159 0.1589
vn 0.5293 0.8478 -0.0318
vn 0.7941 0.5391 -0.2806
vn -0.1913 0.9315 0.3094
vn -0.1390 0.8891 0.4361
vn 0.1073 0.9312 0.3483
vn 0.0315 0.9767 0.2121
vn -0.3712 0.7837 0.4981
vn -0.3529 0.7136 0.6052
vn 0.1726 0.8698 0.4622
vn -0.3835 0.8411 0.3814
vn 0.7762 -0.6119 0.1520
vn 0.8681 -0.4357 0.2378
vn 0.8184 -0.4471 0.3611
vn 0.7146 -0.6664 0.2128
vn 0.8124 -0.1757 0.5560
vn 0.8814 -0.2020 0.4270
vn 0.9220 -0.2196 0.3188
vn 0.6278 -0.7243 0.2851
vn -0.9029 0.2427 0.3547
vn -0.8919 0.4411 0.0995
vn -0.9383 0.2177 0.2687
vn -0.9335 0.3575 0.0292
vn -0.7724 0.6350 0.0160
vn -0.8270 0.5482 -0.1247
vn -0.9712 0.1822 0.1537
vn -0.7228 0.6823 0.1099
vt 0.966382 8.503631
vt 0.966382 6.725045
vt 0.810921 6.725045
vt 0.810921 8.503631
vt 0.344539 8.503631
vt 0.344539 6.725048
vt 0.189079 6.725048
vt 0.189079 8.503631
vt 0.500000 8.503631
vt 0.500000 6.725048
vt 0.655461 8.503631
vt 0.655461 6.725048
vt 0.966382 4.946462
vt 0.810921 4.946462
vt 0.344539 4.946462
vt 0.189079 4.946462
vt 0.500000 4.946462
vt 0.655461 4.946462
vt 0.966382 3.167876
vt 0.810921 3.167876
vt 0.189079 3.167876
vt 0.033618 3.167878
vt 0.344539 3.167876
vt 0.500000 3.167876
vt 0.655461 3.167876
vt 0.966382 1.389293
vt 0.810921 1.389293
vt 0.189079 1.389293
vt 0.033618 1.389293
vt 0.344539 1.389293
vt 0.500000 1.389293
vt 0.655461 1.389293
vt 0.810921 -0.389293
vt 0.189079 -0.389293
vt 0.033618 -0.389292
vt 0.344539 -0.389293
vt 0.500000 -0.389293
vt 0.655461 -0.389293
vt 0.966382 -0.389294
vt 0.966382 -2.167878
vt 0.810921 -2.167878
vt 0.189079 -2.167876
vt 0.033618 -2.167876
vt 0.500000 -2.167877
vt 0.344539 -2.167877
vt 0.655461 -2.167877
vt 0.966382 -3.946462
vt 0.810921 -3.946462
vt 0.189079 -3.946462
vt 0.033618 -3.946462
vt 0.344539 -3.946462
vt 0.500000 -3.946462
vt 0.655461 -3.946462
vt 0.966382 -5.725047
vt 0.810921 -5.725047
vt 0.189079 -5.725045
vt 0.033618 -5.725045
vt 0.500000 -5.725046
vt 0.344539 -5.725046
vt 0.655461 -5.725046
vt 0.966382 -7.503632
vt 0.810921 -7.503630
vt 0.189079 -7.503630
vt 0.033618 -7.503630
vt 0.344539 -7.503630
vt 0.500000 -7.503630
vt 0.655461 -7.503630
vt 0.033618 6.725048
vt 0.033618 8.503633
vt 0.033618 4.946462
vt 0.000000 0.000000
vt 0.533479 0.000000
vt 0.447807 0.563622
vt 0.000000 0.448746
vt 0.515396 1.000000
vt 1.000000 0.474699
vt 1.000000 1.000000
vt 0.000000 1.000000
vt 1.000000 0.000000
vt 0.480173 0.000000
vt 0.499095 0.494221
vt 0.000000 0.504135
vt 0.518459 1.000000
vt 1.000000 0.484268
vt 0.475004 0.000000
vt 0.581436 0.594393
vt 0.000000 0.491831
vt 0.494355 1.000000
vt 1.000000 0.474417
vt 0.509433 1.000000
vt 0.557025 0.488493
vt 0.943530 0.531260
vt 0.672370 1.000000
vt 0.124045 0.440587
vt 0.259966 0.000000
vt 0.602475 0.000000
vt 0.860970 0.000000
vt 0.189556 1.000000
vt 0.532232 1.000000
vt 0.477364 0.470556
vt 1.000000 0.533264
vt 0.516556 0.000000
vt 0.000000 0.535225
s 1
usemtl trunk-01
f 2/1/1 14/2/2 23/3/3
f 2/1/1 23/3/3 13/4/1
f 6/5/4 17/6/5 15/7/6
f 6/5/4 15/7/6 3/8/7
f 9/9/8 19/10/9 16/6/10
f 9/9/8 16/6/10 5/5/8
f 10/11/11 20/12/12 18/10/13
f 10/11/11 18/10/13 7/9/14
f 11/4/15 22/3/16 21/12/17
f 14/2/2 24/13/18 34/14/19
f 14/2/2 34/14/19 23/3/3
f 17/6/5 28/15/20 26/16/21
f 17/6/5 26/16/21 15/7/6
f 19/10/9 30/17/22 27/15/23
f 19/10/9 27/15/23 16/6/10
f 20/12/12 31/18/24 29/17/25
f 20/12/12 29/17/25 18/10/13
f 22/3/16 33/18/26 21/12/17
f 24/13/18 35/19/27 46/20/28
f 24/13/18 46/20/28 34/14/19
f 25/16/29 37/21/30 36/22/31
f 28/15/20 40/23/32 38/21/33
f 28/15/20 38/21/33 26/16/21
f 30/17/22 44/24/34 39/23/35
f 30/17/22 39/23/35 27/15/23
f 31/18/24 42/24/36 29/17/25
f 32/14/24 45/20/37 43/25/36
f 35/19/27 47/26/38 57/27/39
f 35/19/27 57/27/39 46/20/28
f 37/21/30 49/28/40 48/29/41
f 37/21/30 48/29/41 36/22/31
f 40/23/32 52/30/42 50/28/42
f 40/23/32 50/28/42 38/21/33
f 44/24/34 54/31/43 51/30/44
f 44/24/34 51/30/44 39/23/35
f 41/25/45 55/32/46 53/31/47
f 45/20/37 56/32/48 43/25/36
f 47/26/38 66/33/49 57/27/39
f 49/28/40 58/34/50 68/35/51
f 49/28/40 68/35/51 48/29/41
f 52/30/42 61/36/52 59/34/53
f 52/30/42 59/34/53 50/28/42
f 54/31/43 63/37/54 60/36/55
f 54/31/43 60/36/55 51/30/44
f 55/32/46 64/38/56 62/37/57
f 55/32/46 62/37/57 53/31/47
f 57/27/39 66/33/49 65/38/58
f 67/39/59 69/40/60 80/41/61
f 58/34/50 73/42/62 70/43/63
f 58/34/50 70/43/63 68/35/51
f 61/36/52 72/42/64 59/34/53
f 63/37/54 76/44/65 71/45/66
f 63/37/54 71/45/66 60/36/55
f 64/38/56 77/46/67 75/44/68
f 64/38/56 75/44/68 62/37/57
f 66/33/49 79/41/69 78/46/70
f 66/33/49 78/46/70 65/38/58
f 69/40/60 81/47/71 92/48/72
f 69/40/60 92/48/72 80/41/61
f 73/42/62 84/49/73 82/50/74
f 73/42/62 82/50/74 70/43/63
f 74/45/75 86/51/76 83/49/77
f 76/44/65 88/52/78 85/51/79
f 76/44/65 85/51/79 71/45/66
f 77/46/67 89/53/80 87/52/81
f 77/46/67 87/52/81 75/44/68
f 79/41/69 90/53/82 78/46/70
f 81/47/71 93/54/83 104/55/84
f 81/47/71 104/55/84 92/48/72
f 84/49/73 98/56/85 94/57/86
f 84/49/73 94/57/86 82/50/74
f 86/51/76 96/56/87 83/49/77
f 88/52/78 100/58/88 95/59/89
f 88/52/78 95/59/89 85/51/79
f 89/53/80 101/60/90 99/58/91
f 89/53/80 99/58/91 87/52/81
f 91/48/92 103/55/93 102/60/94
f 93/54/83 105/61/95 116/62/95
f 93/54/83 116/62/95 104/55/84
f 98/56/85 233/63/96 106/64/96
f 98/56/85 106/64/96 94/57/86
f 97/59/97 108/65/97 232/63/97
f 100/58/88 112/66/98 107/65/99
f 100/58/88 107/65/99 95/59/89
f 101/60/90 113/67/100 110/66/100
f 101/60/90 110/66/100 99/58/91
f 103/55/93 115/62/101 114/67/102
f 103/55/93 114/67/102 102/60/94
f 119/1/103 132/2/104 140/3/105
f 119/1/103 140/3/105 128/4/106
f 120/8/107 134/7/108 131/68/109
f 120/8/107 131/68/109 117/69/107
f 121/5/110 135/6/111 133/7/112
f 124/9/113 136/6/113 122/5/113
f 129/11/114 138/12/115 137/10/116
f 129/11/114 137/10/116 126/9/117
f 130/4/118 141/3/119 139/12/120
f 132/2/104 144/13/121 155/14/122
f 132/2/104 155/14/122 140/3/105
f 134/7/108 147/16/123 143/70/124
f 134/7/108 143/70/124 131/68/109
f 135/6/111 148/15/125 145/16/126
f 135/6/111 145/16/126 133/7/112
f 138/12/115 153/18/127 151/17/127
f 138/12/115 151/17/127 137/10/116
f 141/3/119 156/14/128 154/18/129
f 141/3/119 154/18/129 139/12/120
f 144/13/121 158/19/130 167/20/131
f 144/13/121 167/20/131 155/14/122
f 146/16/132 162/21/133 157/22/134
f 146/16/132 157/22/134 142/70/135
f 148/15/125 160/21/136 145/16/126
f 149/17/137 163/24/138 161/23/136
f 152/18/139 165/25/140 164/24/141
f 152/18/139 164/24/141 150/17/139
f 156/14/128 167/20/131 166/25/142
f 156/14/128 166/25/142 154/18/129
f 158/19/130 170/27/143 167/20/131
f 162/21/133 172/28/144 168/29/145
f 162/21/133 168/29/145 157/22/134
f 159/23/146 173/30/147 171/28/148
f 163/24/138 175/31/149 174/30/150
f 163/24/138 174/30/150 161/23/136
f 165/25/140 177/32/151 176/31/152
f 165/25/140 176/31/152 164/24/141
f 167/20/131 170/27/143 178/32/153
f 167/20/131 178/32/153 166/25/142
f 169/26/154 287/39/155 191/33/156
f 172/28/144 182/34/157 283/35/157
f 172/28/144 283/35/157 168/29/145
f 173/30/147 187/36/158 181/34/158
f 173/30/147 181/34/158 171/28/148
f 175/31/149 288/37/159 188/36/159
f 175/31/149 188/36/159 174/30/150
f 177/32/151 278/38/160 293/37/160
f 177/32/151 293/37/160 176/31/152
f 170/27/143 192/33/161 279/38/162
f 170/27/143 279/38/162 178/32/153
f 287/39/155 194/40/163 202/41/164
f 287/39/155 202/41/164 191/33/156
f 184/34/165 196/42/166 193/43/167
f 184/34/165 193/43/167 285/35/165
f 185/36/168 197/45/169 195/42/169
f 185/36/168 195/42/169 179/34/170
f 289/37/171 199/44/172 198/45/173
f 289/37/171 198/45/173 189/36/171
f 276/38/174 200/46/175 199/44/176
f 276/38/174 199/44/176 291/37/174
f 192/33/161 203/41/177 201/46/178
f 192/33/161 201/46/178 279/38/162
f 194/40/163 212/48/179 202/41/164
f 196/42/166 205/49/180 211/50/179
f 196/42/166 211/50/179 193/43/167
f 197/45/169 206/51/181 204/49/181
f 197/45/169 204/49/181 195/42/169
f 199/44/172 207/51/182 198/45/173
f 200/46/175 209/53/183 208/52/182
f 200/46/175 208/52/182 199/44/176
f 203/41/177 214/48/184 210/53/185
f 203/41/177 210/53/185 201/46/178
f 213/47/186 216/54/187 224/55/188
f 205/49/180 218/56/189 215/57/190
f 205/49/180 215/57/190 211/50/179
f 206/51/181 219/59/191 217/56/192
f 206/51/181 217/56/192 204/49/181
f 208/52/182 221/58/193 220/59/194
f 209/53/183 222/60/195 221/58/193
f 209/53/183 221/58/193 208/52/182
f 214/48/184 225/55/196 223/60/197
f 214/48/184 223/60/197 210/53/185
f 216/54/187 227/61/198 236/62/199
f 216/54/187 236/62/199 224/55/188
f 218/56/189 229/63/200 226/64/200
f 218/56/189 226/64/200 215/57/190
f 219/59/191 109/65/201 228/63/201
f 219/59/191 228/63/201 217/56/192
f 221/58/193 230/66/202 111/65/202
f 221/58/193 111/65/202 220/59/194
f 222/60/195 234/67/203 231/66/203
f 222/60/195 231/66/203 221/58/193
f 225/55/196 237/62/204 235/67/204
f 225/55/196 235/67/204 223/60/197
f 240/1/205 252/19/206 263/20/207
f 240/1/205 263/20/207 251/4/208
f 241/8/209 255/21/210 253/22/211
f 244/5/212 257/23/213 254/21/214
f 244/5/212 254/21/214 239/8/215
f 246/9/216 259/24/217 256/23/218
f 246/9/216 256/23/218 242/5/219
f 245/11/220 260/25/221 258/24/222
f 249/4/223 262/20/224 261/25/225
f 249/4/223 261/25/225 247/11/223
f 252/19/206 264/40/226 275/41/227
f 252/19/206 275/41/227 263/20/207
f 255/21/210 267/42/228 265/43/229
f 255/21/210 265/43/229 253/22/211
f 257/23/213 269/45/230 266/42/231
f 257/23/213 266/42/231 254/21/214
f 259/24/217 271/44/232 268/45/233
f 259/24/217 268/45/233 256/23/218
f 260/25/221 272/46/234 270/44/235
f 260/25/221 270/44/235 258/24/222
f 262/20/224 274/41/236 273/46/237
f 262/20/224 273/46/237 261/25/225
f 264/40/226 277/61/238 292/62/238
f 264/40/226 292/62/238 275/41/227
f 267/42/228 282/63/239 280/64/239
f 267/42/228 280/64/239 265/43/229
f 269/45/230 286/65/240 281/63/240
f 269/45/230 281/63/240 266/42/231
f 271/44/232 183/66/241 284/65/242
f 271/44/232 284/65/242 268/45/233
f 272/46/234 186/67/243 180/66/243
f 272/46/234 180/66/243 270/44/235
f 274/41/236 290/62/244 190/67/244
f 274/41/236 190/67/244 273/46/237
f 250/4/245 248/11/246 243/5/245
f 250/4/245 243/5/245 238/8/247
f 127/11/248 125/9/249 123/5/250
f 127/11/248 123/5/250 118/69/251
f 8/9/252 4/5/253 1/1/254
f 8/9/252 1/1/254 12/11/255
usemtl branch-01
f 294/71/256 299/72/256 303/73/257
f 294/71/256 303/73/257 304/74/258
f 300/75/259 302/73/260 305/76/261
f 300/75/259 305/76/261 297/77/259
f 304/74/258 303/73/257 301/75/262
f 304/74/258 301/75/262 296/78/263
f 305/76/261 302/73/260 298/72/264
f 305/76/261 298/72/264 295/79/264
f 306/71/265 310/80/266 315/81/267
f 306/71/265 315/81/267 314/82/268
f 312/83/269 315/81/267 313/84/270
f 312/83/269 313/84/270 309/77/271
f 314/82/268 315/81/267 312/83/269
f 314/82/268 312/83/269 308/78/272
f 313/84/270 315/81/267 311/80/273
f 313/84/270 311/80/273 307/79/273
f 316/71/274 320/72/274 323/73/275
f 316/71/274 323/73/275 324/74/276
f 322/75/277 323/73/275 325/76/278
f 322/75/277 325/76/278 319/77/279
f 324/74/276 323/73/275 322/75/277
f 324/74/276 322/75/277 318/78/280
f 325/76/278 323/73/275 321/72/281
f 325/76/278 321/72/281 317/79/281
f 326/71/282 330/72/283 332/73/284
f 326/71/282 332/73/284 333/74/285
f 331/75/286 332/73/284 334/76/287
f 331/75/286 334/76/287 329/77/288
f 333/74/285 332/73/284 331/75/286
f 333/74/285 331/75/286 328/78/289
f 334/76/287 332/73/284 330/72/283
f 334/76/287 330/72/283 327/79/290
f 335/71/291 339/72/292 341/73/293
f 335/71/291 341/73/293 342/74/294
f 340/75/295 341/73/293 343/76/296
f 340/75/295 343/76/296 338/77/297
f 342/74/294 341/73/293 340/75/295
f 342/74/294 340/75/295 337/78/298
f 343/76/296 341/73/293 339/72/292
f 343/76/296 339/72/292 336/79/299
f 344/71/300 348/72/301 350/73/302
f 344/71/300 350/73/302 351/74/303
f 349/75/304 350/73/302 352/76/305
f 349/75/304 352/76/305 347/77/306
f 351/74/303 350/73/302 349/75/304
f 351/74/303 349/75/304 346/78/307
f 352/76/305 350/73/302 348/72/301
f 352/76/305 348/72/301 345/79/308
f 353/71/309 357/80/309 363/81/310
f 353/71/309 363/81/310 362/82/311
f 360/83/312 364/81/313 361/84/314
f 360/83/312 361/84/314 356/77/312
f 362/82/311 363/81/310 359/83/315
f 362/82/311 359/83/315 355/78/315
f 361/84/314 364/81/313 358/80/316
f 361/84/314 358/80/316 354/79/316
f 365/71/317 370/72/317 372/73/318
f 365/71/317 372/73/318 373/74/319
f 371/75/320 372/73/318 374/76/321
f 371/75/320 374/76/321 368/77/322
f 373/74/319 372/73/318 371/75/320
f 373/74/319 371/75/320 367/78/323
f 374/76/321 372/73/318 369/72/324
f 374/76/321 369/72/324 366/79/325
f 375/71/326 379/72/327 381/73/328
f 375/71/326 381/73/328 382/74/329
f 380/75/330 381/73/328 383/76/331
f 380/75/330 383/76/331 378/77/332
f 382/74/329 381/73/328 380/75/330
f 382/74/329 380/75/330 377/78/333
f 383/76/331 381/73/328 379/72/327
f 383/76/331 379/72/327 376/79/334
f 384/71/335 388/80/336 394/81/337
f 384/71/335 394/81/337 393/82/338
f 391/83/339 395/81/340 392/84/341
f 391/83/339 392/84/341 387/77/342
f 393/82/338 394/81/337 390/83/343
f 393/82/338 390/83/343 386/78/343
f 392/84/341 395/81/340 389/80/344
f 392/84/341 389/80/344 385/79/345
f 396/71/346 400/80/347 405/81/348
f 396/71/346 405/81/348 404/82/349
f 402/83/350 405/81/348 403/84/351
f 402/83/350 403/84/351 399/77/352
f 404/82/349 405/81/348 402/83/350
f 404/82/349 402/83/350 398/78/353
f 403/84/351 405/81/348 401/80/354
f 403/84/351 401/80/354 397/79/354
f 406/71/355 410/72/356 412/73/357
f 406/71/355 412/73/357 413/74/358
f 411/75/359 412/73/357 414/76/360
f 411/75/359 414/76/360 409/77/361
f 413/74/358 412/73/357 411/75/359
f 413/74/358 411/75/359 408/78/362
f 414/76/360 412/73/357 410/72/356
f 414/76/360 410/72/356 407/79/363
f 415/71/364 419/72/365 421/73/366
f 415/71/364 421/73/366 422/74/367
f 420/75/368 421/73/366 423/76/369
f 420/75/368 423/76/369 418/77/370
f 422/74/367 421/73/366 420/75/368
f 422/74/367 420/75/368 417/78/371
f 423/76/369 421/73/366 419/72/365
f 423/76/369 419/72/365 416/79/372
f 424/71/373 428/80/374 433/81/375
f 424/71/373 433/81/375 432/82/376
f 430/83/377 433/81/375 431/84/378
f 430/83/377 431/84/378 427/77/379
f 432/82/376 433/81/375 430/83/377
f 432/82/376 430/83/377 426/78/380
f 431/84/378 433/81/375 429/80/381
f 431/84/378 429/80/381 425/79/381
f 434/71/382 438/72/382 442/73/383
f 434/71/382 442/73/383 444/74/384
f 441/75/385 443/73/386 445/76/387
f 441/75/385 445/76/387 437/77/385
f 444/74/384 442/73/383 440/75/388
f 444/74/384 440/75/388 436/78/388
f 445/76/387 443/73/386 439/72/389
f 445/76/387 439/72/389 435/79/389
f 446/71/390 450/72/391 453/73/392
f 446/71/390 453/73/392 454/74/393
f 452/75/394 453/73/392 455/76/395
f 452/75/394 455/76/395 449/77/396
f 454/74/393 453/73/392 452/75/394
f 454/74/393 452/75/394 448/78/397
f 455/76/395 453/73/392 451/72/398
f 455/76/395 451/72/398 447/79/398
f 456/71/399 460/80/400 465/81/401
f 456/71/399 465/81/401 464/82/402
f 462/83/403 465/81/401 463/84/404
f 462/83/403 463/84/404 459/77/405
f 464/82/402 465/81/401 462/83/403
f 464/82/402 462/83/403 458/78/406
f 463/84/404 465/81/401 461/80/407
f 463/84/404 461/80/407 457/79/407
f 466/71/408 470/72/409 472/73/410
f 466/71/408 472/73/410 473/74/411
f 471/75/412 472/73/410 474/76/413
f 471/75/412 474/76/413 469/77/414
f 473/74/411 472/73/410 471/75/412
f 473/74/411 471/75/412 468/78/415
f 474/76/413 472/73/410 470/72/409
f 474/76/413 470/72/409 467/79/416
f 475/71/417 479/80/418 484/81/419
f 475/71/417 484/81/419 483/82/420
f 481/83/421 484/81/419 482/84/422
f 481/83/421 482/84/422 478/77/423
f 483/82/420 484/81/419 481/83/421
f 483/82/420 481/83/421 477/78/424
f 482/84/422 484/81/419 480/80/425
f 482/84/422 480/80/425 476/79/425
f 485/71/426 489/80/427 494/81/428
f 485/71/426 494/81/428 493/82/429
f 491/83/430 494/81/428 492/84/431
f 491/83/430 492/84/431 488/77/432
f 493/82/429 494/81/428 491/83/430
f 493/82/429 491/83/430 487/78/433
f 492/84/431 494/81/428 490/80/434
f 492/84/431 490/80/434 486/79/434
f 495/71/435 499/72/436 501/73/437
f 495/71/435 501/73/437 502/74/438
f 500/75/439 501/73/437 503/76/440
f 500/75/439 503/76/440 498/77/441
f 502/74/438 501/73/437 500/75/439
f 502/74/438 500/75/439 497/78/442
f 503/76/440 501/73/437 499/72/436
f 503/76/440 499/72/436 496/79/443
f 504/71/444 508/72/445 510/73/446
f 504/71/444 510/73/446 511/74/447
f 509/75/448 510/73/446 512/76/449
f 509/75/448 512/76/449 507/77/450
f 511/74/447 510/73/446 509/75/448
f 511/74/447 509/75/448 506/78/451
f 512/76/449 510/73/446 508/72/445
f 512/76/449 508/72/445 505/79/452
f 513/71/453 517/72/454 519/73/455
f 513/71/453 519/73/455 520/74/456
f 518/75/457 519/73/455 521/76/458
f 518/75/457 521/76/458 516/77/459
f 520/74/456 519/73/455 518/75/457
f 520/74/456 518/75/457 515/78/460
f 521/76/458 519/73/455 517/72/454
f 521/76/458 517/72/454 514/79/461
usemtl branch-02
f 522/71/462 526/85/463 528/86/464
f 522/71/462 528/86/464 530/87/465
f 527/88/466 528/86/464 529/89/467
f 527/88/466 529/89/467 525/77/468
f 530/87/465 528/86/464 527/88/466
f 530/87/465 527/88/466 524/78/469
f 529/89/467 528/86/464 526/85/463
f 529/89/467 526/85/463 523/79/470
f 531/71/471 535/85/472 537/86/473
f 531/71/471 537/86/473 539/87/474
f 536/88/475 537/86/473 538/89/476
f 536/88/475 538/89/476 534/77/477
f 539/87/474 537/86/473 536/88/475
f 539/87/474 536/88/475 533/78/478
f 538/89/476 537/86/473 535/85/472
f 538/89/476 535/85/472 532/79/479
f 540/71/480 544/85/481 546/86/482
f 540/71/480 546/86/482 548/87/483
f 545/88/484 546/86/482 547/89/485
f 545/88/484 547/89/485 543/77/486
f 548/87/483 546/86/482 545/88/484
f 548/87/483 545/88/484 542/78/487
f 547/89/485 546/86/482 544/85/481
f 547/89/485 544/85/481 541/79/488
f 549/71/489 553/85/490 555/86/491
f 549/71/489 555/86/491 557/87/492
f 554/88/493 555/86/491 556/89/494
f 554/88/493 556/89/494 552/77/495
f 557/87/492 555/86/491 554/88/493
f 557/87/492 554/88/493 551/78/496
f 556/89/494 555/86/491 553/85/490
f 556/89/494 553/85/490 550/79/497
f 559/90/498 563/91/499 567/92/500
f 559/90/498 567/92/500 568/93/501
f 565/94/502 564/95/503 560/96/503
f 565/94/502 560/96/503 562/91/504
f 566/97/505 567/92/500 563/91/499
f 566/97/505 563/91/499 561/96/505
f 569/98/506 565/94/502 562/91/504
f 569/98/506 562/91/504 558/90/506
f 571/90/507 575/91/508 579/92/509
f 571/90/507 579/92/509 580/93/510
f 577/94/511 576/95/512 572/96/512
f 577/94/511 572/96/512 574/91/513
f 578/97/514 579/92/509 575/91/508
f 578/97/514 575/91/508 573/96/514
f 581/98/515 577/94/511 574/91/513
f 581/98/515 574/91/513 570/90/515
f 585/77/516 586/99/517 589/100/518
f 585/77/516 589/100/518 591/101/519
f 588/102/520 589/100/518 590/103/521
f 588/102/520 590/103/521 582/71/520
f 590/103/521 589/100/518 586/99/517
f 590/103/521 586/99/517 584/78/522
f 591/101/519 589/100/518 587/102/523
f 591/101/519 587/102/523 583/79/523
f 595/77/524 596/99/525 599/100/526
f 595/77/524 599/100/526 601/101/527
f 598/102/528 599/100/526 600/103/529
f 598/102/528 600/103/529 592/71/528
f 600/103/529 599/100/526 596/99/525
f 600/103/529 596/99/525 594/78/530
f 601/101/527 599/100/526 597/102/531
f 601/101/527 597/102/531 593/79/531
f 603/90/532 607/91/533 611/92/534
f 603/90/532 611/92/534 612/93/532
f 609/94/535 608/95/536 604/96/536
f 609/94/535 604/96/536 606/91/537
f 610/97/538 611/92/534 607/91/533
f 610/97/538 607/91/533 605/96/538
f 613/98/539 609/94/535 606/91/537
f 613/98/539 606/91/537 602/90/539
f 615/90/540 619/91/541 623/92/542
f 615/90/540 623/92/542 624/93/540
f 621/94/543 620/95/544 616/96/544
f 621/94/543 616/96/544 618/91/545
f 622/97/546 623/92/542 619/91/541
f 622/97/546 619/91/541 617/96/546
f 625/98/547 621/94/543 618/91/545
f 625/98/547 618/91/545 614/90/548
f 627/90/549 631/91/550 635/92/551
f 627/90/549 635/92/551 636/93/552
f 633/94/553 632/95/554 628/96/554
f 633/94/553 628/96/554 630/91/555
f 634/97/556 635/92/551 631/91/550
f 634/97/556 631/91/550 629/96/556
f 637/98/557 633/94/553 630/91/555
f 637/98/557 630/91/555 626/90/558
f 639/90/559 643/91/560 647/92/561
f 639/90/559 647/92/561 648/93/559
f 645/94/562 644/95/563 640/96/563
f 645/94/562 640/96/563 642/91/564
f 646/97/565 647/92/561 643/91/560
f 646/97/565 643/91/560 641/96/565
f 649/98/566 645/94/562 642/91/564
f 649/98/566 642/91/564 638/90/566
f 653/77/567 654/99/568 656/100/569
f 653/77/567 656/100/569 658/101/570
f 655/102/571 656/100/569 657/103/572
f 655/102/571 657/103/572 650/71/573
f 657/103/572 656/100/569 654/99/568
f 657/103/572 654/99/568 652/78/574
f 658/101/570 656/100/569 655/102/571
f 658/101/570 655/102/571 651/79/575
f 659/71/576 663/85/577 666/86/578
f 659/71/576 666/86/578 668/87/579
f 665/88/580 666/86/578 667/89/581
f 665/88/580 667/89/581 662/77/582
f 668/87/579 666/86/578 665/88/580
f 668/87/579 665/88/580 661/78/583
f 667/89/581 666/86/578 664/85/584
f 667/89/581 664/85/584 660/79/584
f 669/71/585 673/85/586 675/86/587
f 669/71/585 675/86/587 677/87/588
f 674/88/589 675/86/587 676/89/590
f 674/88/589 676/89/590 672/77/591
f 677/87/588 675/86/587 674/88/589
f 677/87/588 674/88/589 671/78/592
f 676/89/590 675/86/587 673/85/586
f 676/89/590 673/85/586 670/79/593
f 679/90/594 683/91/594 688/92/595
f 679/90/594 688/92/595 690/93/594
f 686/94/596 685/95/597 680/96/597
f 686/94/596 680/96/597 682/91/598
f 687/97/599 689/92/599 684/91/599
f 687/97/599 684/91/599 681/96/599
f 691/98/600 686/94/596 682/91/598
f 691/98/600 682/91/598 678/90/600
f 695/77/601 696/99/602 698/100/603
f 695/77/601 698/100/603 700/101/604
f 697/102/605 698/100/603 699/103/606
f 697/102/605 699/103/606 692/71/607
f 699/103/606 698/100/603 696/99/602
f 699/103/606 696/99/602 694/78/608
f 700/101/604 698/100/603 697/102/605
f 700/101/604 697/102/605 693/79/609
f 701/90/610 705/91/611 710/92/612
f 701/90/610 710/92/612 711/93/610
f 708/94/613 707/95/614 704/96/614
f 708/94/613 704/96/614 706/91/615
f 709/97/616 710/92/612 705/91/611
f 709/97/616 705/91/611 703/96/616
f 712/98/617 708/94/613 706/91/615
f 712/98/617 706/91/615 702/90/617
f 713/71/618 717/85/619 719/86/620
f 713/71/618 719/86/620 721/87/621
f 718/88/622 719/86/620 720/89/623
f 718/88/622 720/89/623 716/77/624
f 721/87/621 719/86/620 718/88/622
f 721/87/621 718/88/622 715/78/625
f 720/89/623 719/86/620 717/85/619
f 720/89/623 717/85/619 714/79/626
f 722/71/627 726/85/627 729/86/628
f 722/71/627 729/86/628 731/87/629
f 728/88/630 729/86/628 730/89/631
f 728/88/630 730/89/631 725/77/632
f 731/87/629 729/86/628 728/88/630
f 731/87/629 728/88/630 724/78/633
f 730/89/631 729/86/628 727/85/634
f 730/89/631 727/85/634 723/79/634
f 733/90/635 737/91/636 741/92/637
f 733/90/635 741/92/637 742/93/635
f 739/94/638 738/95/639 734/96/639
f 739/94/638 734/96/639 736/91/640
f 740/97/641 741/92/637 737/91/636
f 740/97/641 737/91/636 735/96/641
f 743/98/642 739/94/638 736/91/640
f 743/98/642 736/91/640 732/90/642
f 744/71/643 748/85/644 750/86/645
f 744/71/643 750/86/645 752/87/646
f 749/88/647 750/86/645 751/89/648
f 749/88/647 751/89/648 747/77/649
f 752/87/646 750/86/645 749/88/647
f 752/87/646 749/88/647 746/78/650
f 751/89/648 750/86/645 748/85/644
f 751/89/648 748/85/644 745/79/651
f 753/71/652 757/85/653 759/86/654
f 753/71/652 759/86/654 761/87/655
f 758/88/656 759/86/654 760/89/657
f 758/88/656 760/89/657 756/77/658
f 761/87/655 759/86/654 758/88/656
f 761/87/655 758/88/656 755/78/659
f 760/89/657 759/86/654 757/85/653
f 760/89/657 757/85/653 754/79/660
f 762/71/661 766/85/662 768/86/663
f 762/71/661 768/86/663 770/87/664
f 767/88/665 768/86/663 769/89/666
f 767/88/665 769/89/666 765/77/667
f 770/87/664 768/86/663 767/88/665
f 770/87/664 767/88/665 764/78/668
f 769/89/666 768/86/663 766/85/662
f 769/89/666 766/85/662 763/79/669
f 771/71/670 775/85/671 777/86/672
f 771/71/670 777/86/672 779/87/673
f 776/88/674 777/86/672 778/89/675
f 776/88/674 778/89/675 774/77/676
f 779/87/673 777/86/672 776/88/674
f 779/87/673 776/88/674 773/78/677
f 778/89/675 777/86/672 775/85/671
f 778/89/675 775/85/671 772/79/678
f 780/71/679 784/85/680 786/86/681
f 780/71/679 786/86/681 788/87/682
f 785/88/683 786/86/681 787/89/684
f 785/88/683 787/89/684 783/77/685
f 788/87/682 786/86/681 785/88/683
f 788/87/682 785/88/683 782/78/686
f 787/89/684 786/86/681 784/85/680
f 787/89/684 784/85/680 781/79/687
f 792/77/688 793/99/689 795/100/690
f 792/77/688 795/100/690 797/101/691
f 794/102/692 795/100/690 796/103/693
f 794/102/692 796/103/693 789/71/694
f 796/103/693 795/100/690 793/99/689
f 796/103/693 793/99/689 791/78/695
f 797/101/691 795/100/690 794/102/692
f 797/101/691 794/102/692 790/79/696
f 798/90/697 801/91/698 805/92/699
f 798/90/697 805/92/699 806/93/700
f 803/94/701 802/95/702 799/96/702
f 803/94/701 799/96/702 801/91/698
f 804/97/703 805/92/699 801/91/698
f 804/97/703 801/91/698 800/96/703
f 807/98/704 803/94/701 801/91/698
f 807/98/704 801/91/698 798/90/697
f 811/77/705 812/99/706 815/100/707
f 811/77/705 815/100/707 817/101/708
f 814/102/709 815/100/707 816/103/710
f 814/102/709 816/103/710 808/71/709
f 816/103/710 815/100/707 812/99/706
f 816/103/710 812/99/706 810/78/711
f 817/101/708 815/100/707 813/102/712
f 817/101/708 813/102/712 809/79/712
f 818/71/713 822/85/713 825/86/714
f 818/71/713 825/86/714 827/87/715
f 824/88/716 825/86/714 826/89/717
f 824/88/716 826/89/717 821/77/718
f 827/87/715 825/86/714 824/88/716
f 827/87/715 824/88/716 820/78/719
f 826/89/717 825/86/714 823/85/720
f 826/89/717 823/85/720 819/79/720
