# Blender 4.4.1
# www.blender.org
mtllib polish_house_5.mtl
o polish_house_5
v 1.599994 7.196524 -0.490609
v 1.599994 7.196524 0.518284
v 1.599994 8.000000 0.518284
v 1.599994 8.000000 -0.490609
v 0.999994 7.196524 0.518284
v 0.999994 7.196524 -0.490609
v 0.999994 8.000000 -0.490608
v 0.999994 8.000000 0.518284
v 2.163379 -0.000001 4.768536
v 2.163380 -0.000001 6.600101
v 2.163380 3.716078 6.600101
v 2.163379 3.716079 4.768536
v -1.079853 7.196524 -0.490608
v -1.079853 7.196524 0.518285
v -1.079853 8.000000 0.518285
v -1.079853 8.000000 -0.490608
v 2.253815 3.698473 4.639529
v 2.253816 3.698472 6.707758
v 2.253816 3.919429 6.707758
v 2.253815 3.919429 4.639529
v -1.679852 8.000000 -0.490607
v -1.079853 8.000000 -0.490608
v -1.079853 8.000000 0.518285
v -1.679852 8.000000 0.518285
v 2.253816 3.698472 6.707758
v 2.253815 3.698473 4.639529
v -2.641520 3.698473 4.639531
v -2.641519 3.698472 6.707760
v 4.500002 -0.000001 4.792238
v -4.499998 -0.000001 4.792242
v -4.499998 7.231287 4.792243
v 4.500002 7.231287 4.792240
v 0.999994 7.196524 -0.490609
v 1.599994 7.196524 -0.490609
v 1.599994 8.000000 -0.490609
v 0.999994 8.000000 -0.490608
v 4.499998 0.000001 -4.792242
v 4.500002 -0.000001 4.792238
v 4.500002 7.231287 4.792240
v 4.499998 7.231287 -4.792242
v 4.500002 7.231287 4.792240
v -4.499998 7.231287 4.792243
v -4.500002 7.231287 -4.792237
v 4.499998 7.231287 -4.792242
v -4.500002 0.000001 -4.792238
v 4.499998 0.000001 -4.792242
v 4.499998 7.231287 -4.792242
v -4.500002 7.231287 -4.792237
v -1.679852 7.196524 -0.490607
v -1.079853 7.196524 -0.490608
v -1.079853 8.000000 -0.490608
v -1.679852 8.000000 -0.490607
v 2.253816 3.698472 6.707758
v -2.641519 3.698472 6.707760
v -2.641519 3.919429 6.707760
v 2.253816 3.919429 6.707758
v -0.836620 1.209598 6.600102
v -0.836621 1.209599 4.771441
v -0.836621 3.716079 4.771441
v -0.836620 3.716078 6.600101
v 2.253815 3.919429 4.639529
v 2.253816 3.919429 6.707758
v -2.641519 3.919429 6.707760
v -2.641520 3.919429 4.639531
v -4.499998 -0.000001 4.792242
v -4.500002 0.000001 -4.792238
v -4.500002 7.231287 -4.792237
v -4.499998 7.231287 4.792243
v -2.641520 3.919429 4.639531
v -2.641519 3.919429 6.707760
v -2.641519 3.698472 6.707760
v -2.641520 3.698473 4.639531
v -1.079853 7.196524 0.518285
v -1.679852 7.196524 0.518285
v -1.679852 8.000000 0.518285
v -1.079853 8.000000 0.518285
v -1.679852 7.196524 0.518285
v -1.679852 7.196524 -0.490607
v -1.679852 8.000000 -0.490607
v -1.679852 8.000000 0.518285
v 1.599994 7.196524 0.518284
v 0.999994 7.196524 0.518284
v 0.999994 8.000000 0.518284
v 1.599994 8.000000 0.518284
v 0.999994 8.000000 -0.490608
v 1.599994 8.000000 -0.490609
v 1.599994 8.000000 0.518284
v 0.999994 8.000000 0.518284
v -1.836620 1.209598 6.600102
v -1.836621 1.209599 4.771441
v -0.836621 1.209599 4.771441
v -0.836620 1.209598 6.600102
v -1.836620 0.907198 6.600102
v -1.836621 0.907199 4.771441
v -1.836621 1.209599 4.771441
v -1.836620 1.209598 6.600102
v -2.136620 0.907198 6.600102
v -2.136621 0.907199 4.771441
v -1.836621 0.907199 4.771441
v -1.836620 0.907198 6.600102
v -2.436620 0.604799 6.600102
v -2.436621 0.604799 4.771441
v -2.136621 0.604799 4.771441
v -2.136620 0.604799 6.600102
v -2.136620 0.604799 6.600102
v -2.136621 0.604799 4.771441
v -2.136621 0.907199 4.771441
v -2.136620 0.907198 6.600102
v -2.436620 0.302400 6.600102
v -2.436621 0.302399 4.771441
v -2.436621 0.604799 4.771441
v -2.436620 0.604799 6.600102
v -2.736620 -0.000001 6.600102
v -2.736621 -0.000001 4.771441
v -2.736621 0.302399 4.771441
v -2.736620 0.302400 6.600102
v -2.736620 0.302400 6.600102
v -2.736621 0.302399 4.771441
v -2.436621 0.302399 4.771441
v -2.436620 0.302400 6.600102
v -2.136620 0.604799 6.600102
v -2.136620 0.907198 6.600102
v -1.836620 0.907198 6.600102
v -2.436620 0.302400 6.600102
v -2.436620 0.604799 6.600102
v -2.736620 -0.000001 6.600102
v -2.736620 0.302400 6.600102
v -0.836620 3.716078 6.600101
v 2.163380 3.716078 6.600101
v 2.163380 -0.000001 6.600101
v -1.836620 1.209598 6.600102
v -0.836620 1.209598 6.600102
vn 1.0000 -0.0000 -0.0000
vn -1.0000 -0.0000 -0.0000
vn -0.0000 1.0000 -0.0000
vn -0.0000 -1.0000 -0.0000
vn -0.0000 -0.0000 1.0000
vn -0.0000 -0.0000 -1.0000
vt 0.207846 0.089744
vt 0.309732 0.019879
vt 0.309732 0.089744
vt 0.207846 0.019879
vt 0.207846 0.159609
vt 0.309732 0.159609
vt 0.998192 0.001146
vt 0.891566 0.273170
vt 0.891566 0.001146
vt 0.998192 0.273170
vt 0.411619 0.019879
vt 0.411619 0.089744
vt 0.310650 0.018488
vt 0.414327 0.009454
vt 0.414327 0.018488
vt 0.310650 0.009454
vt 0.515676 0.121580
vt 0.530480 0.091194
vt 0.530480 0.121580
vt 0.515676 0.091194
vt 0.521529 0.089174
vt 0.509823 0.123600
vt 0.509823 0.089174
vt 0.521529 0.123600
vt 0.398305 0.276693
vt 0.998090 0.634877
vt 0.998090 0.276693
vt 0.398305 0.634877
vt 0.492943 0.123485
vt 0.447049 0.194875
vt 0.447049 0.123485
vt 0.492943 0.194875
vt 0.998197 0.638398
vt 0.398197 0.996582
vt 0.398197 0.638398
vt 0.998197 0.996582
vt 0.000000 1.000000
vt 0.394681 0.481909
vt 0.394681 1.000000
vt 0.000000 0.481909
vt 0.401156 0.266265
vt 0.401156 0.194875
vt 0.447049 0.266265
vt 0.454479 0.000288
vt 0.206903 0.009322
vt 0.206903 0.000288
vt 0.454479 0.009322
vt 0.204494 0.000000
vt 0.000000 0.344608
vt -0.000000 0.000000
vt 0.204494 0.344608
vt 0.000000 0.346748
vt 0.394768 0.480979
vt 0.000000 0.480978
vt 0.394768 0.346748
vt 0.310628 0.009506
vt 0.206951 0.018540
vt 0.206951 0.009506
vt 0.310628 0.018540
vt 0.492943 0.052095
vt 0.447050 0.123485
vt 0.447050 0.052095
vt 0.411619 0.159609
vt 0.492943 0.266265
vt 0.500873 0.121580
vt 0.500873 0.091194
vt 0.624191 0.273359
vt 0.535952 0.091474
vt 0.624191 0.091474
vt 0.535952 0.273359
vt 0.396099 0.240358
vt 0.208057 0.265721
vt 0.208057 0.240358
vt 0.396099 0.265721
vt 0.208057 0.290992
vt 0.396099 0.290992
vt 0.208057 0.341535
vt 0.396099 0.316264
vt 0.396099 0.341535
vt 0.208057 0.316264
vt 0.396099 0.214995
vt 0.208057 0.214995
vt 0.207935 0.189608
vt 0.395977 0.164245
vt 0.395977 0.189608
vt 0.207935 0.164245
vt 0.396099 0.189632
vt 0.208057 0.189632
vt 0.509198 0.045669
vt 0.535883 0.067772
vt 0.509198 0.067772
vt 0.482513 0.023567
vt 0.482513 0.045669
vt 0.455828 0.001465
vt 0.455828 0.023567
vt 0.624833 0.273072
vt 0.891682 0.001465
vt 0.891682 0.273072
vt 0.624833 0.089874
vt 0.535883 0.089874
s 1
usemtl dom3.dds-0
f 1/1/1 3/2/1 2/3/1
f 3/2/1 1/1/1 4/4/1
f 5/5/2 7/3/2 6/6/2
f 7/3/2 5/5/2 8/1/2
f 9/7/1 11/8/1 10/9/1
f 11/8/1 9/7/1 12/10/1
f 13/3/1 15/11/1 14/12/1
f 15/11/1 13/3/1 16/2/1
f 17/13/1 19/14/1 18/15/1
f 19/14/1 17/13/1 20/16/1
f 21/17/3 23/18/3 22/19/3
f 23/18/3 21/17/3 24/20/3
f 25/21/4 27/22/4 26/23/4
f 27/22/4 25/21/4 28/24/4
f 29/25/5 31/26/5 30/27/5
f 31/26/5 29/25/5 32/28/5
f 33/29/6 35/30/6 34/31/6
f 35/30/6 33/29/6 36/32/6
f 37/33/1 39/34/1 38/35/1
f 39/34/1 37/33/1 40/36/1
f 41/37/3 43/38/3 42/39/3
f 43/38/3 41/37/3 44/40/3
f 45/27/6 47/28/6 46/25/6
f 47/28/6 45/27/6 48/26/6
f 49/30/6 51/41/6 50/42/6
f 51/41/6 49/30/6 52/43/6
f 53/44/5 55/45/5 54/46/5
f 55/45/5 53/44/5 56/47/5
f 57/48/2 59/49/2 58/50/2
f 59/49/2 57/48/2 60/51/2
f 61/52/3 63/53/3 62/54/3
f 63/53/3 61/52/3 64/55/3
f 65/33/2 67/34/2 66/35/2
f 67/34/2 65/33/2 68/36/2
f 69/56/2 71/57/2 70/58/2
f 71/57/2 69/56/2 72/59/2
f 73/60/5 75/61/5 74/62/5
f 75/61/5 73/60/5 76/29/5
f 77/6/2 79/12/2 78/63/2
f 79/12/2 77/6/2 80/3/2
f 81/32/5 83/43/5 82/30/5
f 83/43/5 81/32/5 84/64/5
f 85/65/3 87/20/3 86/17/3
f 87/20/3 85/65/3 88/66/3
f 89/67/3 91/68/3 90/69/3
f 91/68/3 89/67/3 92/70/3
f 93/71/2 95/72/2 94/73/2
f 95/72/2 93/71/2 96/74/2
f 97/75/3 99/74/3 98/76/3
f 99/74/3 97/75/3 100/72/3
f 101/77/3 103/78/3 102/79/3
f 103/78/3 101/77/3 104/80/3
f 105/73/2 107/81/2 106/71/2
f 107/81/2 105/73/2 108/82/2
f 109/83/2 111/84/2 110/85/2
f 111/84/2 109/83/2 112/86/2
f 113/82/2 115/87/2 114/81/2
f 115/87/2 113/82/2 116/88/2
f 117/80/3 119/76/3 118/78/3
f 119/76/3 117/80/3 120/75/3
f 121/89/5 123/90/5 122/91/5
f 124/92/5 121/89/5 125/93/5
f 126/94/5 124/92/5 127/95/5
f 128/96/5 130/97/5 129/98/5
f 123/90/5 132/99/5 131/100/5
f 132/99/5 130/97/5 128/96/5
f 130/97/5 124/92/5 126/94/5
f 121/89/5 132/99/5 123/90/5
f 130/97/5 121/89/5 124/92/5
f 132/99/5 121/89/5 130/97/5
