# Blender 4.4.1
# www.blender.org
mtllib fork_arrow.mtl
o fork_arrow
v 0.217161 1.318165 -0.451805
v 0.544589 1.318165 -0.274283
v 0.544589 1.073024 -0.274283
v 0.217161 1.073024 -0.451805
v -0.544589 1.318165 -0.274283
v 0.217161 1.318165 0.769117
v 0.217161 1.073024 0.769117
v -0.544589 1.073024 -0.274283
v -0.217161 1.318165 -0.451805
v 0.000000 1.073024 -0.739789
v 0.000000 1.318165 -0.274283
v -0.217161 1.073024 -0.451805
v -0.217161 1.318165 0.769117
v 0.000000 1.073024 -0.274283
v -0.217161 1.073024 0.769117
v 0.000000 1.318165 -0.739789
v -0.217161 1.318165 -0.274283
v -0.217161 1.073024 -0.274283
v 0.217161 1.318165 -0.274283
v 0.217161 1.073024 -0.274283
v 0.000000 1.318165 -0.451805
v 0.000000 1.073024 -0.451805
vn -0.0000 1.0000 -0.0000
vn -0.0000 -0.0000 1.0000
vn -0.0000 -1.0000 -0.0000
vn -0.6498 -0.0000 -0.7601
vn 0.6498 -0.0000 -0.7601
vn -1.0000 -0.0000 -0.0000
vn 1.0000 -0.0000 -0.0000
vt 0.799845 0.654662
vt 0.750000 0.500000
vt 0.875000 0.750000
vt 0.750000 0.654662
vt 0.799845 0.750000
vt 0.750000 0.750000
vt 0.375000 1.000000
vt 0.625000 0.924845
vt 0.625000 1.000000
vt 0.250000 0.500000
vt 0.375000 0.750000
vt 0.299845 0.654662
vt 0.250000 0.750000
vt 0.299845 0.750000
vt 0.625000 0.375000
vt 0.375000 0.000000
vt 0.625000 0.000000
vt 0.125000 0.750000
vt 0.200155 0.654662
vt 0.200155 0.750000
vt 0.625000 0.750000
vt 0.375000 0.825155
vt 0.700155 0.654662
vt 0.700155 0.750000
vt 0.375000 0.375000
vt 0.750000 0.530457
vt 0.625000 0.530457
vt 0.375000 0.219543
vt 0.250000 0.530457
vt 0.125000 0.530457
vt 0.375000 0.924845
vt 0.250000 0.654662
vt 0.625000 0.825155
vt 0.875000 0.530457
vt 0.625000 0.219543
vt 0.375000 0.530457
s 0
usemtl Material
f 9/1/1 16/2/1 5/3/1
f 21/4/1 17/5/1 11/6/1
f 8/7/2 17/8/2 5/9/2
f 10/10/3 3/11/3 4/12/3
f 14/13/3 4/12/3 20/14/3
f 16/15/4 8/16/4 5/17/4
f 8/18/3 10/10/3 12/19/3
f 12/19/3 14/13/3 18/20/3
f 2/21/2 20/22/2 3/11/2
f 1/23/1 2/21/1 16/2/1
f 1/23/1 11/6/1 19/24/1
f 16/15/5 3/11/5 10/25/5
f 11/26/1 13/3/1 19/27/1
f 6/21/2 15/7/2 7/11/2
f 13/17/6 18/28/6 15/16/6
f 14/29/3 7/11/3 18/30/3
f 7/11/7 19/27/7 6/21/7
f 9/1/1 21/4/1 16/2/1
f 5/3/1 17/5/1 9/1/1
f 21/4/1 9/1/1 17/5/1
f 8/7/2 18/31/2 17/8/2
f 3/11/3 20/14/3 4/12/3
f 4/12/3 22/32/3 10/10/3
f 14/13/3 22/32/3 4/12/3
f 16/15/4 10/25/4 8/16/4
f 10/10/3 22/32/3 12/19/3
f 12/19/3 18/20/3 8/18/3
f 12/19/3 22/32/3 14/13/3
f 2/21/2 19/33/2 20/22/2
f 1/23/1 19/24/1 2/21/1
f 16/2/1 21/4/1 1/23/1
f 1/23/1 21/4/1 11/6/1
f 16/15/5 2/21/5 3/11/5
f 11/26/1 17/34/1 13/3/1
f 13/3/1 6/21/1 19/27/1
f 6/21/2 13/9/2 15/7/2
f 13/17/6 17/35/6 18/28/6
f 14/29/3 20/36/3 7/11/3
f 7/11/3 15/18/3 18/30/3
f 7/11/7 20/36/7 19/27/7
