# Blender 4.4.1
# www.blender.org
mtllib city_house_4.mtl
o 3_3_0
v 0.492802 6.145046 7.000001
v 1.777722 6.157195 7.000001
v 4.000000 7.036861 7.000001
v 1.777722 6.157195 7.000001
v 2.839989 6.164020 7.000001
v 4.000000 7.036861 7.000001
v 4.000000 0.000000 7.000001
v 2.839943 1.422115 7.000001
v 1.746228 1.422115 7.000001
v 4.000000 0.000000 7.000001
v 1.746228 1.422115 7.000001
v 0.493588 1.400001 7.000001
v 4.000000 0.000000 7.000001
v 0.493588 1.400001 7.000001
v -0.586171 1.397544 7.000001
v 4.000000 0.000000 7.000001
v -0.586171 1.397544 7.000001
v -2.142266 0.291825 7.000001
v -4.000000 7.036861 7.000002
v -0.591904 4.266481 7.000001
v -0.578254 6.143544 7.000001
v -3.178128 3.135730 7.000001
v -2.158125 3.135730 7.000001
v -4.000000 7.036861 7.000002
v 2.839943 1.422115 7.000001
v 4.000000 0.000000 7.000001
v 2.857143 3.158206 7.000001
v 2.830836 4.278892 7.000001
v 4.000000 7.186862 7.150002
v 4.000000 7.286861 7.000001
v 4.000000 7.286861 7.150002
v 3.999999 9.268973 -0.166545
v 4.000000 7.136861 7.000001
v 4.000000 0.000000 -0.166545
v -4.000001 7.136861 -2.000000
v -4.000000 7.136861 7.000002
v -4.000000 12.369878 2.500000
v -4.000000 7.186862 7.150002
v -4.000000 7.286861 7.150002
v -4.000000 7.286861 7.000002
v 4.000000 0.000000 7.000001
v 4.000000 0.000000 -0.166545
v 4.000000 7.136861 7.000001
v 4.000000 7.136861 7.000001
v 3.999999 9.268973 -0.166545
v 4.000000 12.369878 2.500000
v 1.811683 9.287364 6.443865
v 1.811683 7.627150 6.443865
v 1.811683 9.287364 4.897841
v 2.933272 9.287364 6.443865
v 2.933272 7.627150 6.443865
v 2.933272 9.287364 4.897841
v -3.010695 9.287364 6.443865
v -3.010695 7.627150 6.443865
v -3.010695 9.287364 4.897841
v -1.889106 9.287364 6.443865
v -1.889106 7.627150 6.443865
v -1.889106 9.287364 4.897841
v -4.000000 7.186862 -2.149999
v -4.000001 7.286861 -2.000000
v -4.000000 7.286861 -2.149999
v -0.578254 6.143544 7.000001
v 0.492802 6.145046 7.000001
v 4.000000 7.036861 7.000001
v -4.000000 7.036861 7.000002
v -2.158125 3.135730 7.000001
v -3.178128 3.135730 7.000001
v -3.178128 3.135730 6.820001
v -2.158125 3.135730 6.820001
v 1.758513 3.160662 7.000001
v 2.857143 3.158206 7.000001
v 1.740822 4.278139 7.000001
v 1.746228 1.422115 7.000001
v 2.839943 1.422115 7.000001
v 2.839943 1.422115 6.820001
v 1.746228 1.422115 6.820001
v 0.493588 1.400001 7.000001
v 1.746228 1.422115 7.000001
v 0.493588 3.140259 7.000001
v 0.475897 4.260509 7.000001
v 0.492802 6.145046 7.000001
v -3.205514 0.285928 7.000001
v -2.142266 0.291825 7.000001
v -2.142266 0.291825 6.820001
v -3.205514 0.285928 6.820001
v -0.583714 3.143994 7.000001
v 0.493588 3.140259 7.000001
v 0.475897 4.260509 7.000001
v -0.591904 4.266481 7.000001
v 2.830836 4.278892 7.000001
v 2.839989 6.164020 7.000001
v 2.839989 6.164020 6.820001
v 2.830836 4.278892 6.820001
v -2.142266 0.291825 7.000001
v -0.586171 1.397544 7.000001
v -0.583714 3.143994 7.000001
v -2.158125 3.135730 7.000001
v -2.158125 3.135730 7.000001
v -0.583714 3.143994 7.000001
v -0.591904 4.266481 7.000001
v -4.000000 7.036861 7.000002
v -4.000000 0.000000 7.000001
v 4.000000 0.000000 7.000001
v -2.142266 0.291825 7.000001
v -3.205514 0.285928 7.000001
v 0.475897 4.260509 7.000001
v 0.492802 6.145046 7.000001
v 0.492802 6.145046 6.820001
v 0.475897 4.260509 6.820001
v -4.000000 0.000000 7.000001
v -3.205514 0.285928 7.000001
v -3.178128 3.135730 7.000001
v -4.000000 7.036861 7.000002
v 1.746228 1.422115 6.820001
v 2.839943 1.422115 6.820001
v 2.857143 3.158206 6.820001
v 1.758513 3.160662 6.820001
v 1.740822 4.278139 6.820001
v 2.830836 4.278892 6.820001
v 2.839989 6.164020 6.820001
v 1.777722 6.157195 6.820001
v -0.586171 1.397544 6.820001
v 0.493588 1.400001 6.820001
v 0.493588 3.140259 6.820001
v -0.583714 3.143994 6.820001
v -0.591904 4.266481 6.820001
v 0.475897 4.260509 6.820001
v 0.492802 6.145046 6.820001
v -0.578254 6.143544 6.820001
v -3.205514 0.285928 6.820001
v -2.142266 0.291825 6.820001
v -2.158125 3.135730 6.820001
v -3.178128 3.135730 6.820001
v -0.586171 1.397544 7.000001
v 0.493588 1.400001 7.000001
v 0.493588 1.400001 6.820001
v -0.586171 1.397544 6.820001
v 2.857143 3.158206 7.000001
v 1.758513 3.160662 7.000001
v 1.758513 3.160662 6.820001
v 2.857143 3.158206 6.820001
v 0.493588 3.140259 7.000001
v -0.583714 3.143994 7.000001
v -0.583714 3.143994 6.820001
v 0.493588 3.140259 6.820001
v 1.740822 4.278139 7.000001
v 2.830836 4.278892 7.000001
v 2.830836 4.278892 6.820001
v 1.740822 4.278139 6.820001
v 1.777722 6.157195 7.000001
v 1.740822 4.278139 7.000001
v 1.740822 4.278139 6.820001
v 1.777722 6.157195 6.820001
v -0.591904 4.266481 7.000001
v 0.475897 4.260509 7.000001
v 0.475897 4.260509 6.820001
v -0.591904 4.266481 6.820001
v -0.578254 6.143544 7.000001
v -0.591904 4.266481 7.000001
v -0.591904 4.266481 6.820001
v -0.578254 6.143544 6.820001
v 2.839989 6.164020 7.000001
v 1.777722 6.157195 7.000001
v 1.777722 6.157195 6.820001
v 2.839989 6.164020 6.820001
v 0.492802 6.145046 7.000001
v -0.578254 6.143544 7.000001
v -0.578254 6.143544 6.820001
v 0.492802 6.145046 6.820001
v 1.821532 1.422115 7.013968
v 1.833817 3.160662 7.013968
v 1.758513 3.160662 7.000001
v 1.746228 1.422115 7.000001
v -3.178128 3.135730 7.000001
v -3.205514 0.285928 7.000001
v -3.205514 0.285928 6.820001
v -3.178128 3.135730 6.820001
v 1.833817 3.160662 7.013968
v 1.821532 1.422115 7.013968
v 1.854358 1.422115 6.836987
v 1.866643 3.160662 6.836987
v -2.142266 0.291825 7.000001
v -2.158125 3.135730 7.000001
v -2.158125 3.135730 6.820001
v -2.142266 0.291825 6.820001
v -3.185395 2.379482 7.000001
v -2.153922 2.381983 7.000001
v -2.154662 2.514647 7.000001
v -3.184144 2.509766 7.000001
v -2.153922 2.381983 7.000001
v -3.185395 2.379482 7.000001
v -3.185395 2.379482 6.820001
v -2.153922 2.381983 6.820001
v -3.184144 2.509766 7.000001
v -2.154662 2.514647 7.000001
v -2.154662 2.514647 6.820001
v -3.184144 2.509766 6.820001
v -1.143863 4.266481 7.040001
v -0.619608 4.266481 7.040001
v -0.619608 6.143544 7.040001
v -1.143863 6.143544 7.040001
v 0.524475 4.260509 7.040001
v 1.048730 4.260509 7.040001
v 1.048730 6.143544 7.040001
v 0.524475 6.143544 7.040001
v -0.619608 6.143544 7.040001
v -0.619608 6.143544 7.000001
v -1.143863 6.143544 7.000001
v -1.143863 6.143544 7.040001
v -0.619608 4.266481 7.040001
v -0.619608 4.266481 7.000001
v -0.619608 6.143544 7.000001
v -0.619608 6.143544 7.040001
v -1.143863 4.266481 7.040001
v -1.143863 4.266481 7.000001
v -0.619608 4.266481 7.000001
v -0.619608 4.266481 7.040001
v -1.143863 6.143544 7.040001
v -1.143863 6.143544 7.000001
v -1.143863 4.266481 7.000001
v -1.143863 4.266481 7.040001
v 1.048730 6.143544 7.040001
v 1.048730 6.143544 7.000001
v 0.524475 6.143544 7.000001
v 0.524475 6.143544 7.040001
v 1.048730 4.260509 7.040001
v 1.048730 4.260509 7.000001
v 1.048730 6.143544 7.000001
v 1.048730 6.143544 7.040001
v 0.524475 4.260509 7.040001
v 0.524475 4.260509 7.000001
v 1.048730 4.260509 7.000001
v 1.048730 4.260509 7.040001
v 0.524475 6.143544 7.040001
v 0.524475 6.143544 7.000001
v 0.524475 4.260509 7.000001
v 0.524475 4.260509 7.040001
v 1.233700 4.278139 7.040001
v 1.757955 4.278139 7.040001
v 1.757955 6.157195 7.040001
v 1.233700 6.157195 7.040001
v 1.757955 6.157195 7.040001
v 1.757955 6.157195 7.000001
v 1.233700 6.157195 7.000001
v 1.233700 6.157195 7.040001
v 1.757955 4.278139 7.040001
v 1.757955 4.278139 7.000001
v 1.757955 6.157195 7.000001
v 1.757955 6.157195 7.040001
v 1.233700 4.278139 7.040001
v 1.233700 4.278139 7.000001
v 1.757955 4.278139 7.000001
v 1.757955 4.278139 7.040001
v 1.233700 6.157195 7.040001
v 1.233700 6.157195 7.000001
v 1.233700 4.278139 7.000001
v 1.233700 4.278139 7.040001
v 2.877146 4.278892 7.040001
v 3.401401 4.278892 7.040001
v 3.401401 6.164020 7.040001
v 2.877146 6.164020 7.040001
v 3.401401 6.164020 7.040001
v 3.401401 6.164020 7.000001
v 2.877146 6.164020 7.000001
v 2.877146 6.164020 7.040001
v 3.401401 4.278892 7.040001
v 3.401401 4.278892 7.000001
v 3.401401 6.164020 7.000001
v 3.401401 6.164020 7.040001
v 2.877146 4.278892 7.040001
v 2.877146 4.278892 7.000001
v 3.401401 4.278892 7.000001
v 3.401401 4.278892 7.040001
v 2.877146 6.164020 7.040001
v 2.877146 6.164020 7.000001
v 2.877146 4.278892 7.000001
v 2.877146 4.278892 7.040001
v -4.000000 7.036861 7.000002
v 4.000000 7.036861 7.000001
v 4.000000 7.036861 7.100002
v -4.000000 7.036861 7.100002
v -4.000000 7.036861 7.100002
v 4.000000 7.036861 7.100002
v 4.000000 7.186862 7.150002
v -4.000000 7.186862 7.150002
v -4.000000 7.186862 7.150002
v 4.000000 7.186862 7.150002
v 4.000000 7.206861 7.200002
v -4.000000 7.206861 7.200002
v 4.000000 7.286861 7.200002
v -4.000000 7.286861 7.200002
v -4.000000 7.286861 7.200002
v 4.000000 7.286861 7.200002
v 4.000000 7.286861 7.000001
v -4.000000 7.286861 7.000002
v -4.000000 7.286861 7.000002
v -0.884745 7.286861 7.000001
v -0.884745 12.519876 2.500000
v -4.000000 12.519876 2.500000
v -0.884745 7.286861 7.000001
v 4.000000 7.286861 7.000001
v 4.000000 12.519876 2.500000
v -0.884745 12.519876 2.500000
v 4.000000 7.286861 7.150002
v 4.000000 7.286861 7.200002
v 4.000000 7.206861 7.200002
v 4.000000 7.186862 7.150002
v 4.000000 7.036861 7.100002
v 4.000000 7.036861 7.000001
v 4.000000 10.773245 3.872983
v 4.000000 10.923244 3.872983
v 4.000000 7.286861 7.000001
v 4.000000 7.136861 7.000001
v -4.000000 7.136861 7.000002
v -4.000001 7.136861 -2.000000
v -4.000000 0.000000 -2.000000
v -4.000000 0.000000 7.000001
v -4.000000 7.286861 7.150002
v -4.000000 7.186862 7.150002
v -4.000000 7.206861 7.200002
v -4.000000 7.286861 7.200002
v -4.000000 7.036861 7.100002
v -4.000000 7.036861 7.000002
v -4.000000 12.519876 2.500000
v -4.000000 12.369878 2.500000
v -4.000000 7.136861 7.000002
v -4.000000 7.286861 7.000002
v -4.000001 7.286861 -2.000000
v -4.000001 7.136861 -2.000000
v -4.000000 12.369878 2.500000
v -4.000000 12.519876 2.500000
v 3.999999 9.268973 -5.000001
v -0.000003 7.136861 -5.000001
v -0.000001 7.136861 -0.295533
v 3.999999 9.268973 -0.295533
v 4.000000 7.036861 -2.000000
v -4.000000 7.036861 -2.000000
v -4.000000 7.036861 -2.099999
v 4.000000 7.036861 -2.100001
v 4.000000 7.036861 -2.100001
v -4.000000 7.036861 -2.099999
v -4.000000 7.186862 -2.149999
v 4.000000 7.186862 -2.150002
v 4.000000 7.186862 -2.150002
v -4.000000 7.186862 -2.149999
v -4.000000 7.206861 -2.199999
v 4.000000 7.206861 -2.200001
v -4.000000 7.286861 -2.199999
v 4.000000 7.286861 -2.200001
v 4.000000 7.286861 -2.200001
v -4.000000 7.286861 -2.199999
v -4.000001 7.286861 -2.000000
v 3.999998 7.286861 -2.000000
v -4.000000 4.164493 -2.000000
v 0.000000 4.164493 -2.000000
v 0.000000 3.682464 -5.000001
v -4.000000 3.682464 -5.000001
v 4.000000 0.000000 -5.000001
v 3.999999 9.268973 -5.000001
v 3.999999 9.268973 -0.166545
v 4.000000 0.000000 -0.166545
v 3.999999 9.268973 -0.166545
v 3.999999 9.268973 -0.295533
v 4.000000 12.519876 2.500000
v 4.000000 12.369878 2.500000
v 3.194028 13.512387 3.872983
v 4.000000 13.512387 3.872983
v 4.000000 13.512387 2.500000
v 3.194028 13.512387 2.500000
v 4.000000 12.369878 2.500000
v 3.194028 12.369878 2.500000
v 3.194028 13.512387 2.500000
v 4.000000 13.512387 2.500000
v 3.194028 10.773245 3.872983
v 4.000000 10.773245 3.872983
v 4.000000 13.512387 3.872983
v 3.194028 13.512387 3.872983
v 3.194028 13.512387 3.872983
v 3.194028 13.512387 2.500000
v 3.194028 12.369878 2.500000
v 3.194028 10.773245 3.872983
v 4.000000 13.512387 3.872983
v 4.000000 10.773245 3.872983
v 4.000000 12.369878 2.500000
v 4.000000 13.512387 2.500000
v 1.981797 8.997972 6.693865
v 1.981797 7.817264 6.693865
v 1.981797 7.817264 6.543865
v 1.981797 8.997972 6.543865
v 1.981797 7.817264 6.693865
v 1.981797 8.997972 6.693865
v 1.791683 9.175959 6.693865
v 1.791683 7.627150 6.693865
v 2.763157 8.997972 6.693865
v 2.763157 7.817264 6.693865
v 2.953271 7.627150 6.693865
v 2.953271 9.175959 6.693865
v 1.981797 7.817264 6.543865
v 2.372477 7.817264 6.543865
v 2.372477 8.997972 6.543865
v 1.981797 8.997972 6.543865
v 2.763157 8.997972 6.693865
v 1.981797 8.997972 6.693865
v 1.981797 8.997972 6.543865
v 2.763157 8.997972 6.543865
v 2.763157 7.817264 6.693865
v 2.763157 8.997972 6.693865
v 2.763157 8.997972 6.543865
v 2.763157 7.817264 6.543865
v 1.981797 7.817264 6.693865
v 2.763157 7.817264 6.693865
v 2.763157 7.817264 6.543865
v 1.981797 7.817264 6.543865
v 2.953271 9.175959 6.693865
v 2.953271 8.997972 6.693865
v 3.090082 8.997972 6.693865
v 3.090082 9.175959 6.693865
v 1.654872 9.175959 6.693865
v 1.654872 8.997972 6.693865
v 1.791683 8.997972 6.693865
v 1.791683 9.175959 6.693865
v 2.953271 7.848153 6.693865
v 2.953271 7.627150 6.693865
v 3.040082 7.627150 6.693865
v 3.040082 7.805136 6.693865
v 1.704872 7.805136 6.693865
v 1.704872 7.627150 6.693865
v 1.791683 7.627150 6.693865
v 1.791683 7.848153 6.693865
v 1.524117 9.352186 6.743865
v 1.524117 9.352186 6.393865
v 1.536392 9.175959 6.393865
v 1.536392 9.175959 6.743865
v 1.586114 9.352186 6.743865
v 3.158841 9.352186 6.743865
v 2.896833 9.544086 6.743865
v 1.848121 9.544086 6.743865
v 1.848121 9.544086 6.743865
v 2.896833 9.544086 6.743865
v 2.516011 9.646565 6.743865
v 2.228944 9.646565 6.743865
v 1.536392 9.175959 6.743865
v 1.536392 9.175959 6.393865
v 3.208562 9.175959 6.393865
v 3.208562 9.175959 6.743865
v 1.524117 9.352186 6.743865
v 1.536392 9.175959 6.743865
v 3.208562 9.175959 6.743865
v 3.220837 9.352186 6.743865
v 2.953271 7.848153 6.693865
v 3.040082 7.805136 6.693865
v 3.040082 7.805136 6.443865
v 2.953271 7.848153 6.443865
v 2.953271 9.175959 6.693865
v 2.953271 7.627150 6.693865
v 2.953271 7.627150 6.443865
v 2.953271 9.175959 6.443865
v 1.654872 8.997972 6.693865
v 1.654872 9.175959 6.693865
v 1.654872 9.175959 6.443865
v 1.654872 8.997972 6.443865
v 1.704872 7.627150 6.693865
v 1.704872 7.805136 6.693865
v 1.704872 7.805136 6.443865
v 1.704872 7.627150 6.443865
v 1.791683 8.997972 6.693865
v 1.654872 8.997972 6.693865
v 1.654872 8.997972 6.443865
v 1.791683 8.997972 6.443865
v 3.090082 9.175959 6.693865
v 3.090082 8.997972 6.693865
v 3.090082 8.997972 6.443865
v 3.090082 9.175959 6.443865
v 1.704872 7.805136 6.693865
v 1.791683 7.848153 6.693865
v 1.791683 7.848153 6.443865
v 1.704872 7.805136 6.443865
v 3.040082 7.805136 6.693865
v 3.040082 7.627150 6.693865
v 3.040082 7.627150 6.443865
v 3.040082 7.805136 6.443865
v 1.791683 7.627150 6.693865
v 1.791683 9.175959 6.693865
v 1.791683 9.175959 6.443865
v 1.791683 7.627150 6.443865
v 3.090082 8.997972 6.693865
v 2.953271 8.997972 6.693865
v 2.953271 8.997972 6.443865
v 3.090082 8.997972 6.443865
v 1.981797 7.817264 6.443865
v 1.791683 7.627150 6.443865
v 1.791683 9.175959 6.443865
v 1.981797 8.997972 6.443865
v 2.763157 8.997972 6.443865
v 2.953271 9.175959 6.443865
v 2.953271 7.627150 6.443865
v 2.763157 7.817264 6.443865
v 1.981797 8.997972 6.443865
v 1.791683 9.175959 6.443865
v 2.953271 9.175959 6.443865
v 2.763157 8.997972 6.443865
v 2.953271 9.175959 6.443865
v 3.090082 9.175959 6.443865
v 3.090082 8.997972 6.443865
v 2.953271 8.997972 6.443865
v 1.654872 9.175959 6.443865
v 1.791683 9.175959 6.443865
v 1.791683 8.997972 6.443865
v 1.654872 8.997972 6.443865
v 2.896833 9.544086 6.743865
v 3.158841 9.352186 6.743865
v 3.158841 9.352186 6.393865
v 2.896833 9.544086 6.393865
v 3.208562 9.175959 6.743865
v 3.208562 9.175959 6.393865
v 3.220837 9.352186 6.393865
v 3.220837 9.352186 6.743865
v 2.228944 9.646565 6.743865
v 2.516011 9.646565 6.743865
v 2.516011 9.646565 6.393865
v 2.228944 9.646565 6.393865
v 3.220837 9.352186 6.743865
v 3.220837 9.352186 6.393865
v 1.524117 9.352186 6.393865
v 1.524117 9.352186 6.743865
v 1.848121 9.544086 6.743865
v 1.848121 9.544086 6.393865
v 1.586114 9.352186 6.743865
v 1.586114 9.352186 6.393865
v 1.586114 9.352186 6.393865
v 1.848121 9.544086 6.393865
v 2.896833 9.544086 6.393865
v 3.158841 9.352186 6.393865
v 1.848121 9.544086 6.393865
v 2.228944 9.646565 6.393865
v 2.516011 9.646565 6.393865
v 2.896833 9.544086 6.393865
v 1.524117 9.352186 6.393865
v 3.220837 9.352186 6.393865
v 3.208562 9.175959 6.393865
v 1.536392 9.175959 6.393865
v 3.061435 9.287364 6.443865
v 3.061435 9.287364 4.897841
v 2.372477 9.615260 4.897841
v 2.372477 9.615260 6.443865
v 2.372477 9.615260 6.443865
v 2.372477 9.615260 4.897841
v 1.683519 9.287364 4.897841
v 1.683519 9.287364 6.443865
v 3.061435 9.287364 6.443865
v 1.683519 9.287364 6.443865
v 1.683519 9.287364 4.897841
v 3.061435 9.287364 4.897841
v -2.840581 8.997972 6.693865
v -2.840581 7.817264 6.693865
v -2.840581 7.817264 6.543865
v -2.840581 8.997972 6.543865
v -2.840581 7.817264 6.693865
v -2.840581 8.997972 6.693865
v -3.030695 9.175959 6.693865
v -3.030695 7.627150 6.693865
v -2.059221 8.997972 6.693865
v -2.059221 7.817264 6.693865
v -1.869107 7.627150 6.693865
v -1.869107 9.175959 6.693865
v -2.840581 7.817264 6.543865
v -2.449901 7.817264 6.543865
v -2.449901 8.997972 6.543865
v -2.840581 8.997972 6.543865
v -2.059221 8.997972 6.693865
v -2.840581 8.997972 6.693865
v -2.840581 8.997972 6.543865
v -2.059221 8.997972 6.543865
v -2.059221 7.817264 6.693865
v -2.059221 8.997972 6.693865
v -2.059221 8.997972 6.543865
v -2.059221 7.817264 6.543865
v -2.840581 7.817264 6.693865
v -2.059221 7.817264 6.693865
v -2.059221 7.817264 6.543865
v -2.840581 7.817264 6.543865
v -1.869107 9.175959 6.693865
v -1.869107 8.997972 6.693865
v -1.732296 8.997972 6.693865
v -1.732296 9.175959 6.693865
v -3.167506 9.175959 6.693865
v -3.167506 8.997972 6.693865
v -3.030695 8.997972 6.693865
v -3.030695 9.175959 6.693865
v -1.869107 7.848153 6.693865
v -1.869107 7.627150 6.693865
v -1.782296 7.627150 6.693865
v -1.782296 7.805136 6.693865
v -3.117506 7.805136 6.693865
v -3.117506 7.627150 6.693865
v -3.030695 7.627150 6.693865
v -3.030695 7.848153 6.693865
v -3.298261 9.352186 6.743865
v -3.298261 9.352186 6.393865
v -3.285986 9.175959 6.393865
v -3.285986 9.175959 6.743865
v -3.236264 9.352186 6.743865
v -1.663537 9.352186 6.743865
v -1.925545 9.544086 6.743865
v -2.974257 9.544086 6.743865
v -2.974257 9.544086 6.743865
v -1.925545 9.544086 6.743865
v -2.306367 9.646565 6.743865
v -2.593434 9.646565 6.743865
v -3.285986 9.175959 6.743865
v -3.285986 9.175959 6.393865
v -1.613816 9.175959 6.443865
v -1.613816 9.175959 6.743865
v -3.298261 9.352186 6.743865
v -3.285986 9.175959 6.743865
v -1.613816 9.175959 6.743865
v -1.601541 9.352186 6.743865
v -1.869107 7.848153 6.693865
v -1.782296 7.805136 6.693865
v -1.782296 7.805136 6.443865
v -1.869107 7.848153 6.443865
v -1.869107 9.175959 6.693865
v -1.869107 7.627150 6.693865
v -1.869107 7.627150 6.443865
v -1.869107 9.175959 6.443865
v -3.167506 8.997972 6.693865
v -3.167506 9.175959 6.693865
v -3.167506 9.175959 6.443865
v -3.167506 8.997972 6.443865
v -3.117506 7.627150 6.693865
v -3.117506 7.805136 6.693865
v -3.117506 7.805136 6.443865
v -3.117506 7.627150 6.443865
v -3.030695 8.997972 6.693865
v -3.167506 8.997972 6.693865
v -3.167506 8.997972 6.443865
v -3.030695 8.997972 6.443865
v -1.732296 9.175959 6.693865
v -1.732296 8.997972 6.693865
v -1.732296 8.997972 6.443865
v -1.732296 9.175959 6.443865
v -3.117506 7.805136 6.693865
v -3.030695 7.848153 6.693865
v -3.030695 7.848153 6.443865
v -3.117506 7.805136 6.443865
v -1.782296 7.805136 6.693865
v -1.782296 7.627150 6.693865
v -1.782296 7.627150 6.443865
v -1.782296 7.805136 6.443865
v -3.030695 7.627150 6.693865
v -3.030695 9.175959 6.693865
v -3.030695 9.175959 6.443865
v -3.030695 7.627150 6.443865
v -1.732296 8.997972 6.693865
v -1.869107 8.997972 6.693865
v -1.869107 8.997972 6.443865
v -1.732296 8.997972 6.443865
v -2.840581 7.817264 6.443865
v -3.030695 7.627150 6.443865
v -3.030695 9.175959 6.443865
v -2.840581 8.997972 6.443865
v -2.059221 8.997972 6.443865
v -1.869107 9.175959 6.443865
v -1.869107 7.627150 6.443865
v -2.059221 7.817264 6.443865
v -2.840581 8.997972 6.443865
v -3.030695 9.175959 6.443865
v -1.869107 9.175959 6.443865
v -2.059221 8.997972 6.443865
v -1.869107 9.175959 6.443865
v -1.732296 9.175959 6.443865
v -1.732296 8.997972 6.443865
v -1.869107 8.997972 6.443865
v -3.167506 9.175959 6.443865
v -3.030695 9.175959 6.443865
v -3.030695 8.997972 6.443865
v -3.167506 8.997972 6.443865
v -1.925545 9.544086 6.743865
v -1.663537 9.352186 6.743865
v -1.663537 9.352186 6.393865
v -1.925545 9.544086 6.393865
v -1.613816 9.175959 6.743865
v -1.613816 9.175959 6.393865
v -1.601541 9.352186 6.393865
v -1.601541 9.352186 6.743865
v -2.593434 9.646565 6.743865
v -2.306367 9.646565 6.743865
v -2.306367 9.646565 6.393865
v -2.593434 9.646565 6.393865
v -1.601541 9.352186 6.743865
v -1.601541 9.352186 6.393865
v -3.298261 9.352186 6.393865
v -3.298261 9.352186 6.743865
v -2.974257 9.544086 6.743865
v -2.974257 9.544086 6.393865
v -3.236264 9.352186 6.743865
v -3.236264 9.352186 6.393865
v -3.236264 9.352186 6.393865
v -2.974257 9.544086 6.393865
v -1.925545 9.544086 6.393865
v -1.663537 9.352186 6.393865
v -2.974257 9.544086 6.393865
v -2.593434 9.646565 6.393865
v -2.306367 9.646565 6.393865
v -1.925545 9.544086 6.393865
v -3.298261 9.352186 6.393865
v -1.601541 9.352186 6.393865
v -1.613816 9.175959 6.393865
v -3.285986 9.175959 6.393865
v -1.760943 9.287364 6.443865
v -1.760943 9.287364 4.897841
v -2.449901 9.615260 4.897841
v -2.449901 9.615260 6.443865
v -2.449901 9.615260 6.443865
v -2.449901 9.615260 4.897841
v -3.138859 9.287364 4.897841
v -3.138859 9.287364 6.443865
v -1.760943 9.287364 6.443865
v -3.138859 9.287364 6.443865
v -3.138859 9.287364 4.897841
v -1.760943 9.287364 4.897841
v -0.000003 7.036861 -5.000001
v -0.000001 7.036861 -2.000000
v -0.050001 7.056861 -2.000000
v -0.050003 7.056861 -5.000001
v -0.050001 7.136861 -2.000000
v -0.050003 7.136861 -5.000001
v -0.050003 7.136861 -5.000001
v -0.050001 7.136861 -2.000000
v 0.149999 7.136861 -2.000000
v 0.149998 7.136861 -5.000001
v -0.000003 7.136861 -5.000001
v -0.000003 7.036861 -5.000001
v -0.050003 7.056861 -5.000001
v -0.050003 7.136861 -5.000001
v -0.000003 7.136861 -5.000001
v 0.000000 3.682464 -5.000001
v 0.000000 4.164493 -2.000000
v -0.000001 7.136861 -2.000000
v -0.000001 7.136861 -2.000000
v 0.000000 4.164493 -2.000000
v -4.000000 4.164493 -2.000000
v -4.000001 7.136861 -2.000000
v -0.484818 4.429545 -2.040001
v -1.444642 4.429545 -2.040001
v -1.444642 6.109602 -2.040001
v -0.484818 6.109602 -2.040001
v -1.444642 6.109602 -2.040001
v -1.444642 6.109602 -2.000000
v -0.484818 6.109602 -2.000000
v -0.484818 6.109602 -2.040001
v -1.444642 4.429545 -2.040001
v -1.444642 4.429545 -2.000000
v -1.444642 6.109602 -2.000000
v -1.444642 6.109602 -2.040001
v -0.484818 4.429545 -2.040001
v -0.484818 4.429545 -2.000000
v -1.444642 4.429545 -2.000000
v -1.444642 4.429545 -2.040001
v -0.484818 6.109602 -2.040001
v -0.484818 6.109602 -2.000000
v -0.484818 4.429545 -2.000000
v -0.484818 4.429545 -2.040001
v -2.239905 4.429545 -2.040001
v -3.199729 4.429545 -2.040001
v -3.199729 6.109602 -2.040001
v -2.239905 6.109602 -2.040001
v -3.199729 6.109602 -2.040001
v -3.199729 6.109602 -2.000000
v -2.239905 6.109602 -2.000000
v -2.239905 6.109602 -2.040001
v -3.199729 4.429545 -2.040001
v -3.199729 4.429545 -2.000000
v -3.199729 6.109602 -2.000000
v -3.199729 6.109602 -2.040001
v -2.239905 4.429545 -2.040001
v -2.239905 4.429545 -2.000000
v -3.199729 4.429545 -2.000000
v -3.199729 4.429545 -2.040001
v -2.239905 6.109602 -2.040001
v -2.239905 6.109602 -2.000000
v -2.239905 4.429545 -2.000000
v -2.239905 4.429545 -2.040001
v -4.000000 7.286861 -2.149999
v -4.000000 7.286861 -2.199999
v -4.000000 7.206861 -2.199999
v -4.000000 7.186862 -2.149999
v -4.000000 7.036861 -2.099999
v -4.000000 7.036861 -2.000000
v -4.000001 7.286861 -2.000000
v -4.000000 7.186862 -2.149999
v -0.800000 1.360747 -5.000001
v 0.000000 0.000000 -5.000001
v -4.000000 0.000000 -5.000001
v -3.200000 1.360747 -5.000001
v -0.800000 2.903178 -5.000001
v -0.800000 1.360747 -5.000001
v -0.800000 1.360747 -4.830001
v -0.800000 2.903178 -4.830001
v -2.400000 2.903178 -5.000001
v -1.600000 2.903178 -5.000001
v -1.600000 1.360747 -5.000001
v -2.400000 1.360747 -5.000001
v -0.800000 1.360747 -5.000001
v -3.200000 1.360747 -5.000001
v -3.200000 1.360747 -4.830001
v -0.800000 1.360747 -4.830001
v -1.600000 2.903178 -4.830001
v -0.800000 2.903178 -4.830001
v -0.800000 1.360747 -4.830001
v -1.600000 1.360747 -4.830001
v -3.200000 2.903178 -4.830001
v -2.400000 2.903178 -4.830001
v -2.400000 1.360747 -4.830001
v -3.200000 1.360747 -4.830001
v -1.600000 1.360747 -5.000001
v -1.600000 2.903178 -5.000001
v -1.600000 2.903178 -4.830001
v -1.600000 1.360747 -4.830001
v -2.400000 2.903178 -5.000001
v -2.400000 1.360747 -5.000001
v -2.400000 1.360747 -4.830001
v -2.400000 2.903178 -4.830001
v -3.200000 1.360747 -5.000001
v -3.200000 2.903178 -5.000001
v -3.200000 2.903178 -4.830001
v -3.200000 1.360747 -4.830001
v -1.600000 2.903178 -5.000001
v -0.800000 2.903178 -5.000001
v -0.800000 2.903178 -4.830001
v -1.600000 2.903178 -4.830001
v -3.200000 2.903178 -5.000001
v -3.200000 2.903178 -4.830001
v 3.331043 13.513389 3.090383
v 3.540596 13.513389 3.090383
v 3.540596 13.513389 2.733407
v 3.331043 13.513389 2.733407
v 3.653432 13.513389 3.090383
v 3.862985 13.513389 3.090383
v 3.862985 13.513389 2.733407
v 3.653432 13.513389 2.733407
v 3.331043 13.513389 3.639576
v 3.540596 13.513389 3.639576
v 3.540596 13.513389 3.282601
v 3.331043 13.513389 3.282601
v 3.653432 13.513389 3.639576
v 3.862985 13.513389 3.639576
v 3.862985 13.513389 3.282601
v 3.653432 13.513389 3.282601
v 3.469107 11.278385 -4.322976
v 3.999999 11.278385 -4.322976
v 3.999999 11.278385 -5.000001
v 3.469107 11.278385 -5.000001
v 3.999999 9.268973 -5.000001
v 3.469107 8.985992 -5.000001
v 3.469107 11.278385 -5.000001
v 3.999999 11.278385 -5.000001
v 3.469107 11.278385 -4.322976
v 3.469107 11.278385 -5.000001
v 3.469107 8.985992 -5.000001
v 3.469107 8.985992 -4.322976
v 3.999999 11.278385 -4.322976
v 3.999999 9.268973 -4.322976
v 3.999999 9.268973 -5.000001
v 3.999999 11.278385 -5.000001
v 3.469107 8.985992 -4.322976
v 3.999999 9.268973 -4.322976
v 3.999999 11.278385 -4.322976
v 3.469107 11.278385 -4.322976
v 3.601523 11.279387 -4.491841
v 3.867582 11.279387 -4.491841
v 3.867582 11.279387 -4.831135
v 3.601523 11.279387 -4.831135
v -4.000001 7.286861 -2.000000
v -4.000000 12.519876 2.500000
v -0.884745 12.519876 2.500000
v -0.884746 7.286861 -2.000000
v -0.884746 7.286861 -2.000000
v -0.884745 12.519876 2.500000
v 4.000000 12.519876 2.500000
v 3.999998 7.286861 -2.000000
v 3.999999 9.268973 -5.000001
v 4.000000 0.000000 -5.000001
v 0.000000 0.000000 -5.000001
v -0.000003 7.136861 -5.000001
v -1.001359 10.127982 4.657974
v 0.026805 10.127982 4.657974
v 0.026805 11.154098 3.775592
v -1.001359 11.154098 3.775592
v 0.026805 11.154098 3.775592
v 0.026805 11.078830 3.688063
v -1.001359 11.078830 3.688063
v -1.001359 11.154098 3.775592
v -1.001359 10.127982 4.657974
v -1.001359 10.052714 4.570446
v 0.026805 10.052714 4.570446
v 0.026805 10.127982 4.657974
v -1.001359 11.154098 3.775592
v -1.001359 11.078830 3.688063
v -1.001359 10.052714 4.570446
v -1.001359 10.127982 4.657974
v 0.026805 10.127982 4.657974
v 0.026805 10.052714 4.570446
v 0.026805 11.078830 3.688063
v 0.026805 11.154098 3.775592
v 1.031810 8.815330 -0.766801
v 0.258843 8.815330 -0.766801
v 0.258843 9.586756 -0.103432
v 1.031810 9.586756 -0.103432
v 0.258843 9.586756 -0.103432
v 0.258843 9.530169 -0.037629
v 1.031810 9.530169 -0.037629
v 1.031810 9.586756 -0.103432
v 1.031810 8.815330 -0.766801
v 1.031810 8.758743 -0.700998
v 0.258843 8.758743 -0.700998
v 0.258843 8.815330 -0.766801
v 1.031810 9.586756 -0.103432
v 1.031810 9.530169 -0.037629
v 1.031810 8.758743 -0.700998
v 1.031810 8.815330 -0.766801
v 0.258843 8.815330 -0.766801
v 0.258843 8.758743 -0.700998
v 0.258843 9.530169 -0.037629
v 0.258843 9.586756 -0.103432
v -0.040000 4.564747 -4.069685
v -0.040000 4.564747 -3.401242
v -0.040000 6.064762 -3.401243
v -0.040000 6.064762 -4.069685
v -0.040000 6.064762 -3.401243
v 0.000000 6.064762 -3.401243
v -0.000000 6.064762 -4.069685
v -0.040000 6.064762 -4.069685
v -0.040000 4.564747 -3.401242
v 0.000000 4.564747 -3.401242
v 0.000000 6.064762 -3.401243
v -0.040000 6.064762 -3.401243
v -0.040000 4.564747 -4.069685
v -0.000000 4.564747 -4.069685
v 0.000000 4.564747 -3.401242
v -0.040000 4.564747 -3.401242
v -0.040000 6.064762 -4.069685
v -0.000000 6.064762 -4.069685
v -0.000000 4.564747 -4.069685
v -0.040000 4.564747 -4.069685
v -4.000000 3.964493 -2.000000
v -4.000000 3.482464 -5.000001
v -4.000000 0.000000 -5.000001
v -4.000000 0.000000 -2.000000
v -0.800000 2.903178 -5.000001
v -3.200000 2.903178 -5.000001
v -4.000000 3.482464 -5.000001
v 0.000000 3.482464 -5.000001
v 0.000000 0.000000 -5.000001
v -0.800000 1.360747 -5.000001
v -3.200000 1.360747 -5.000001
v -4.000000 0.000000 -5.000001
v 0.000000 3.482464 -5.000001
v -4.000000 3.482464 -5.000001
v -4.000000 3.682464 -5.000001
v 0.000000 3.682464 -5.000001
v -4.000000 3.482464 -5.000001
v -4.000000 3.964493 -2.000000
v -4.000000 4.164493 -2.000000
v -4.000000 3.682464 -5.000001
v 1.120979 8.671235 -0.811384
v 0.169674 8.671235 -0.811384
v 0.169674 8.832260 -0.672915
v 1.120979 8.832260 -0.672915
v -1.038847 9.915695 4.741491
v 0.064293 9.915695 4.741491
v 0.064293 10.088230 4.593124
v -1.038847 10.088230 4.593124
v 3.194028 10.773384 4.003944
v 4.000000 10.773384 4.003944
v 4.000000 10.924278 3.874186
v 3.194028 10.924278 3.874186
v -0.507126 3.143994 7.000001
v -0.509583 1.397544 7.000001
v -0.509583 1.397544 6.820001
v -0.507126 3.143994 6.820001
v -0.509583 1.397544 7.000001
v -0.507126 3.143994 7.000001
v -0.583714 3.143994 7.000001
v -0.586171 1.397544 7.000001
v 1.833817 3.160662 7.013968
v 1.866643 3.160662 6.836987
v 1.791339 3.160662 6.823020
v 1.758513 3.160662 7.000001
v 2.780555 3.158206 7.000001
v 2.780555 3.158206 6.820001
v 2.763355 1.422115 6.820001
v 2.763355 1.422115 7.000001
v 2.763355 1.422115 7.000001
v 2.839943 1.422115 7.000001
v 2.857143 3.158206 7.000001
v 2.780555 3.158206 7.000001
v 0.424508 1.400001 7.033071
v 0.493588 1.400001 7.000001
v 0.493588 3.140259 7.000001
v 0.424508 3.140259 7.033072
v 0.424508 3.140259 7.033072
v 0.346786 3.140259 6.870716
v 0.346786 1.400001 6.870715
v 0.424508 1.400001 7.033071
v 0.346786 3.140259 6.870716
v 0.424508 3.140259 7.033072
v 0.493588 3.140259 7.000001
v 0.415867 3.140259 6.837645
v 2.372477 7.817264 6.543865
v 2.763157 7.817264 6.543865
v 2.763157 8.997972 6.543865
v 2.372477 8.997972 6.543865
v -2.449901 7.817264 6.543865
v -2.059221 7.817264 6.543865
v -2.059221 8.997972 6.543865
v -2.449901 8.997972 6.543865
vn -0.0000 -0.0000 1.0000
vn 1.0000 -0.0000 -0.0000
vn -1.0000 -0.0000 -0.0000
vn -0.0000 -1.0000 -0.0000
vn -0.0000 1.0000 -0.0000
vn -0.0055 1.0000 -0.0000
vn -1.0000 0.0049 -0.0000
vn -1.0000 0.0090 -0.0000
vn -0.0023 1.0000 -0.0000
vn -0.0022 -1.0000 -0.0000
vn -0.0035 -1.0000 -0.0000
vn -0.0007 1.0000 -0.0000
vn 0.9998 -0.0196 -0.0000
vn 0.0056 1.0000 -0.0000
vn 1.0000 -0.0073 -0.0000
vn 0.0064 -1.0000 -0.0000
vn 0.0014 -1.0000 -0.0000
vn -0.1824 0.0013 0.9832
vn 1.0000 -0.0096 -0.0000
vn 0.9832 -0.0069 0.1824
vn -1.0000 -0.0056 -0.0000
vn 0.0024 -1.0000 -0.0000
vn -0.0047 1.0000 -0.0000
vn -0.0000 -0.3162 0.9487
vn -0.0000 -0.9285 0.3714
vn -0.0000 -0.5606 0.8281
vn -0.0000 0.6520 0.7582
vn -0.4704 0.8825 -0.0000
vn -0.0000 -0.3162 -0.9487
vn -0.0000 -0.9285 -0.3714
vn -0.0000 -0.5606 -0.8281
vn -0.0000 -0.0000 -1.0000
vn -0.0000 0.9873 -0.1586
vn -0.9976 -0.0695 -0.0000
vn 0.4440 0.8960 -0.0000
vn -0.4440 0.8960 -0.0000
vn 0.4327 0.9015 -0.0000
vn 0.5909 0.8068 -0.0000
vn 0.9976 -0.0695 -0.0000
vn -0.1311 0.9914 -0.0000
vn 0.1311 0.9914 -0.0000
vn -0.4327 0.9015 -0.0000
vn -0.5909 0.8068 -0.0000
vn 0.4297 0.9030 -0.0000
vn -0.4297 0.9030 -0.0000
vn -0.3714 -0.9285 -0.0000
vn -0.8281 -0.5606 -0.0000
vn -0.0000 0.6520 -0.7582
vn -0.0000 0.7582 -0.6520
vn -0.0000 -0.7582 0.6520
vn -0.0000 0.7582 0.6520
vn -0.0000 -0.7582 -0.6520
vn 1.0000 -0.0014 -0.0000
vn -1.0000 0.0099 -0.0000
vn 0.4318 -0.0000 0.9020
vn -0.9020 -0.0000 0.4318
vt 0.561600 0.615935
vt 0.722215 0.615175
vt 1.000000 0.560196
vt 0.854999 0.614749
vt 0.999999 0.999999
vt 0.854992 0.911117
vt 0.718278 0.911117
vt 0.561699 0.912500
vt 0.426729 0.912653
vt 0.232217 0.981761
vt 0.000000 0.560196
vt 0.426012 0.733345
vt 0.427719 0.616028
vt 0.102734 0.804017
vt 0.230234 0.804017
vt 0.857143 0.802612
vt 0.853854 0.732569
vt 0.472764 0.549830
vt 0.491103 0.543718
vt 0.472764 0.543718
vt 0.298968 0.067968
vt 0.002752 0.113463
vt 0.298968 0.265747
vt 0.475101 0.113158
vt 0.092621 0.113158
vt 0.283861 0.001962
vt 0.002752 0.265747
vt 0.188751 0.001802
vt 0.674309 0.095047
vt 0.674309 0.180523
vt 0.833503 0.095047
vt 0.237317 0.801973
vt 0.112371 0.801973
vt 0.112371 0.795431
vt 0.237317 0.795431
vt 0.719814 0.802458
vt 0.717603 0.732616
vt 0.729228 0.741418
vt 0.844918 0.741418
vt 0.844918 0.732580
vt 0.729228 0.732580
vt 0.561699 0.803734
vt 0.559487 0.733718
vt 0.109016 0.801973
vt 0.239260 0.801973
vt 0.239260 0.795431
vt 0.109016 0.795431
vt 0.427036 0.803500
vt 0.563027 0.910127
vt 0.563027 0.804167
vt 0.579111 0.804167
vt 0.579111 0.910127
vt 0.000000 1.000000
vt 0.099311 0.982129
vt 0.427522 0.911792
vt 0.427522 0.803886
vt 0.409410 0.803886
vt 0.409410 0.911792
vt 0.114076 0.980438
vt 0.232217 0.980069
vt 0.230234 0.804986
vt 0.117499 0.804986
vt 0.442771 0.921758
vt 0.555347 0.921758
vt 0.555347 0.912374
vt 0.442771 0.912374
vt 0.846737 0.741418
vt 0.730527 0.741418
vt 0.730527 0.732580
vt 0.846737 0.732580
vt 0.443027 0.921758
vt 0.443027 0.912374
vt 0.728656 0.741418
vt 0.843954 0.741418
vt 0.843954 0.732580
vt 0.728656 0.732580
vt 0.410195 0.804551
vt 0.410195 0.910169
vt 0.426279 0.910169
vt 0.426279 0.804551
vt 0.442173 0.921758
vt 0.553503 0.921758
vt 0.553503 0.912374
vt 0.442173 0.912374
vt 0.563027 0.805318
vt 0.563027 0.910824
vt 0.579111 0.910824
vt 0.579111 0.805318
vt 0.844923 0.741418
vt 0.732559 0.741418
vt 0.732559 0.732580
vt 0.844923 0.732580
vt 0.555265 0.921758
vt 0.443596 0.921758
vt 0.443596 0.912374
vt 0.555265 0.912374
vt 0.513220 0.373755
vt 0.827746 0.373752
vt 0.827727 0.364833
vt 0.513200 0.364837
vt 0.083463 0.803660
vt 0.083463 0.981834
vt 0.101517 0.981834
vt 0.101517 0.803660
vt 0.827746 0.370334
vt 0.513220 0.370337
vt 0.513220 0.391298
vt 0.827747 0.391294
vt 0.232505 0.981465
vt 0.232505 0.803660
vt 0.250559 0.803660
vt 0.250559 0.981465
vt 0.101826 0.851282
vt 0.230760 0.851126
vt 0.230667 0.842834
vt 0.101982 0.843140
vt 0.237832 0.801973
vt 0.111480 0.801973
vt 0.111480 0.795431
vt 0.237832 0.795431
vt 0.111634 0.801973
vt 0.237741 0.801973
vt 0.237741 0.795431
vt 0.111634 0.795431
vt 0.357332 0.732088
vt 0.422407 0.732088
vt 0.422099 0.614514
vt 0.357025 0.614514
vt 0.567816 0.732669
vt 0.630177 0.733056
vt 0.632195 0.615870
vt 0.567508 0.614708
vt 0.659579 0.732088
vt 0.722211 0.732088
vt 0.717998 0.614026
vt 0.656341 0.613537
vt 0.856069 0.731709
vt 0.926270 0.730977
vt 0.928633 0.611921
vt 0.860458 0.613181
vt 0.000721 0.561103
vt 0.998774 0.561103
vt 0.998774 0.556585
vt 0.000721 0.556585
vt 0.998774 0.542587
vt 0.000721 0.542587
vt 0.016520 0.540582
vt 1.000437 0.540582
vt 1.000437 0.539044
vt 0.016520 0.539044
vt 1.000437 0.533719
vt 0.016520 0.533719
vt 1.000437 0.539868
vt 0.016520 0.539868
vt 0.788155 0.315323
vt 0.509003 0.315323
vt 0.509003 0.000352
vt 0.788155 0.000352
vt 0.509003 0.315323
vt 0.997139 0.315323
vt 0.997140 0.000352
vt 0.509003 0.000352
vt 0.508388 0.533138
vt 0.498994 0.533138
vt 0.498994 0.540654
vt 0.508388 0.542533
vt 0.478877 0.559000
vt 0.491103 0.559000
vt 0.841869 0.142018
vt 0.851449 0.137899
vt 0.517967 0.137902
vt 0.508387 0.142021
vt 0.475101 0.264809
vt 0.092621 0.264809
vt 0.997871 0.137897
vt 0.988291 0.142016
vt 0.516347 0.142030
vt 0.508387 0.137897
vt 0.989911 0.137897
vt 0.997871 0.142030
vt 0.551833 0.000978
vt 0.551833 0.212747
vt 0.991415 0.212747
vt 0.991415 0.000978
vt 0.439321 0.269317
vt 0.001942 0.269317
vt 0.001942 0.395317
vt 0.439321 0.395317
vt 0.498750 0.265747
vt 0.498750 0.067968
vt 0.704577 0.137897
vt 0.698734 0.142030
vt 0.663913 0.394911
vt 0.663913 0.422941
vt 0.759410 0.422941
vt 0.759410 0.394911
vt 0.002820 0.446325
vt 0.070202 0.446325
vt 0.070202 0.398566
vt 0.002820 0.398566
vt 0.184989 0.513068
vt 0.252371 0.513068
vt 0.252371 0.398566
vt 0.184989 0.398566
vt 0.367158 0.446325
vt 0.367158 0.398566
vt 0.799648 0.442171
vt 0.799648 0.517934
vt 0.811153 0.517934
vt 0.811153 0.442171
vt 0.816974 0.517703
vt 0.825513 0.440739
vt 0.800860 0.429496
vt 0.789542 0.530045
vt 0.930593 0.440739
vt 0.922786 0.517703
vt 0.948660 0.530045
vt 0.959977 0.429496
vt 0.920705 0.516848
vt 0.871827 0.517154
vt 0.879272 0.448308
vt 0.926807 0.448308
vt 0.928670 0.416279
vt 0.837045 0.416279
vt 0.837045 0.407484
vt 0.928670 0.407484
vt 0.957427 0.430347
vt 0.956812 0.443114
vt 0.976438 0.443114
vt 0.977053 0.430347
vt 0.784623 0.429715
vt 0.783460 0.442579
vt 0.803087 0.442579
vt 0.804249 0.429715
vt 0.953016 0.515425
vt 0.953016 0.530052
vt 0.964508 0.530052
vt 0.964508 0.518272
vt 0.774006 0.518385
vt 0.774006 0.529906
vt 0.785244 0.529906
vt 0.785244 0.515601
vt 0.772501 0.414646
vt 0.781614 0.414646
vt 0.781614 0.426323
vt 0.772501 0.426323
vt 0.776051 0.414723
vt 0.978552 0.414723
vt 0.944816 0.403017
vt 0.809786 0.403017
vt 0.895782 0.396765
vt 0.858820 0.396765
vt 0.000000 1.000000
vt 0.768069 0.414723
vt 0.771325 0.425740
vt 0.983278 0.425740
vt 0.986534 0.414723
vt 0.799648 0.515952
vt 0.799648 0.518713
vt 0.818823 0.518713
vt 0.818823 0.515952
vt 0.799648 0.430750
vt 0.799648 0.530133
vt 0.818823 0.530133
vt 0.818823 0.430750
vt 0.818823 0.442171
vt 0.925622 0.529169
vt 0.959456 0.529169
vt 0.959456 0.522041
vt 0.925622 0.522041
vt 0.854628 0.529169
vt 0.884535 0.529169
vt 0.884535 0.522041
vt 0.854628 0.522041
vt 0.931855 0.530176
vt 0.931855 0.521497
vt 0.806039 0.521497
vt 0.806039 0.530176
vt 0.813542 0.529169
vt 0.813542 0.522041
vt 0.779707 0.529169
vt 0.779707 0.522041
vt 0.734636 0.041136
vt 0.889393 0.041136
vt 0.889393 0.002947
vt 0.734636 0.002947
vt 0.887627 0.002947
vt 0.732869 0.002947
vt 0.732869 0.041136
vt 0.887627 0.041136
vt 0.823077 0.516848
vt 0.871955 0.517154
vt 0.877687 0.448308
vt 0.830152 0.448308
vt 0.179787 0.003099
vt 0.179787 0.127597
vt 0.396028 0.110224
vt 0.396028 0.003100
vt 0.001631 0.156521
vt 0.001631 0.264646
vt 0.270496 0.264646
vt 0.270496 0.156521
vt 0.113548 0.723409
vt 0.201962 0.723409
vt 0.201528 0.618271
vt 0.113114 0.618271
vt 0.204946 0.618271
vt 0.161850 0.722781
vt 0.156918 0.722781
vt 0.156918 0.619211
vt 0.161850 0.619211
vt 0.205380 0.723409
vt 0.202450 0.723409
vt 0.202016 0.618271
vt 0.424835 0.483545
vt 0.372695 0.527887
vt 0.633391 0.527887
vt 0.581252 0.483545
vt 0.749260 0.948682
vt 0.749260 0.973030
vt 0.529113 0.433282
vt 0.476974 0.433282
vt 0.476974 0.483545
vt 0.529113 0.483545
vt 0.844473 0.973030
vt 0.559003 0.806499
vt 0.427389 0.806499
vt 0.427389 0.913119
vt 0.559003 0.913119
vt 0.853448 0.804755
vt 0.721833 0.804755
vt 0.721833 0.911375
vt 0.853448 0.911375
vt 0.780998 0.973030
vt 0.780998 0.948682
vt 0.812735 0.948682
vt 0.812735 0.973030
vt 0.844473 0.948682
vt 0.489142 0.273174
vt 0.450569 0.273174
vt 0.450569 0.298278
vt 0.489142 0.298278
vt 0.489142 0.273174
vt 0.450569 0.273174
vt 0.450569 0.298278
vt 0.489142 0.298278
vt 0.489142 0.273174
vt 0.450569 0.273174
vt 0.450569 0.298278
vt 0.489142 0.298278
vt 0.489142 0.273174
vt 0.489142 0.298278
vt 0.674431 0.395288
vt 0.674431 0.423099
vt 0.745364 0.423099
vt 0.745364 0.395288
vt 0.047585 0.513730
vt 0.108221 0.529890
vt 0.108221 0.398978
vt 0.047585 0.398978
vt 0.185547 0.398978
vt 0.185547 0.529890
vt 0.246182 0.398978
vt 0.246183 0.513730
vt 0.323509 0.513730
vt 0.323509 0.398978
vt 0.487624 0.274294
vt 0.450852 0.274294
vt 0.450852 0.297741
vt 0.487624 0.297741
vt 0.007024 0.005750
vt 0.007024 0.266664
vt 0.232218 0.266664
vt 0.232218 0.065767
vt 0.644450 0.514446
vt 0.756878 0.514446
vt 0.756878 0.425826
vt 0.644450 0.425826
vt 0.757881 0.428756
vt 0.757881 0.426002
vt 0.642807 0.426002
vt 0.642807 0.428756
vt 0.648368 0.514177
vt 0.648368 0.516234
vt 0.758439 0.516234
vt 0.758439 0.514177
vt 0.762374 0.425668
vt 0.758009 0.425668
vt 0.758009 0.517130
vt 0.762374 0.517130
vt 0.757222 0.517546
vt 0.761696 0.517546
vt 0.761696 0.425414
vt 0.757222 0.425414
vt 0.891455 0.379435
vt 0.993767 0.379435
vt 0.993767 0.320528
vt 0.891455 0.320528
vt 0.996639 0.324917
vt 0.996639 0.323087
vt 0.897213 0.323087
vt 0.897213 0.324917
vt 0.889544 0.383255
vt 0.889544 0.384622
vt 0.999616 0.384622
vt 0.999616 0.383255
vt 0.998767 0.321034
vt 0.994795 0.321034
vt 0.994795 0.380609
vt 0.998767 0.380610
vt 0.994080 0.380880
vt 0.998151 0.380880
vt 0.998151 0.320869
vt 0.994080 0.320869
vt 0.615185 0.399263
vt 0.421033 0.414861
vt 0.421033 0.527549
vt 0.615185 0.527549
vt 0.424835 0.433282
vt 0.581252 0.433282
vt 0.633391 0.414405
vt 0.372695 0.414405
vt 0.508119 0.341287
vt 0.875763 0.341287
vt 0.875763 0.320885
vt 0.508119 0.320885
vt 0.518216 0.341343
vt 0.866961 0.341343
vt 0.870603 0.318773
vt 0.521858 0.318773
vt 0.883083 0.393846
vt 0.996602 0.393846
vt 0.996602 0.383940
vt 0.883083 0.383940
vt 0.641351 0.529067
vt 0.762907 0.529067
vt 0.762907 0.516186
vt 0.641351 0.516186
vt 0.920833 0.517459
vt 0.925222 0.448308
vt 0.872127 0.517154
vt 0.823250 0.517459
vt 0.830100 0.448308
vt 0.877635 0.448308
s 0
usemtl material
f 1/1/1 2/2/1 3/3/1
f 4/2/1 5/4/1 6/3/1
f 7/5/1 8/6/1 9/7/1
f 10/5/1 11/7/1 12/8/1
f 13/5/1 14/8/1 15/9/1
f 16/5/1 17/9/1 18/10/1
f 19/11/1 20/12/1 21/13/1
f 22/14/1 23/15/1 24/11/1
f 25/6/1 26/5/1 27/16/1
f 28/17/1 6/3/1 5/4/1
f 29/18/2 30/19/2 31/20/2
f 32/21/2 33/22/2 34/23/2
f 35/24/3 36/25/3 37/26/3
f 38/18/3 39/20/3 40/19/3
f 41/27/2 42/23/2 43/22/2
f 44/22/2 45/21/2 46/28/2
f 47/29/2 48/30/2 49/31/2
f 50/29/2 51/30/2 52/31/2
f 53/29/2 54/30/2 55/31/2
f 56/29/2 57/30/2 58/31/2
f 59/18/3 60/19/3 61/20/3
f 62/13/1 63/1/1 64/3/1
f 62/13/1 64/3/1 65/11/1
f 66/32/4 67/33/4 68/34/4
f 66/32/4 68/34/4 69/35/4
f 70/36/1 71/16/1 28/17/1
f 70/36/1 28/17/1 72/37/1
f 73/38/5 74/39/5 75/40/5
f 73/38/5 75/40/5 76/41/5
f 77/8/1 78/7/1 70/36/1
f 77/8/1 70/36/1 79/42/1
f 79/42/1 70/36/1 72/37/1
f 79/42/1 72/37/1 80/43/1
f 80/43/1 72/37/1 4/2/1
f 80/43/1 4/2/1 81/1/1
f 82/44/6 83/45/6 84/46/6
f 82/44/6 84/46/6 85/47/6
f 86/48/1 87/42/1 88/43/1
f 86/48/1 88/43/1 89/12/1
f 90/49/7 91/50/7 92/51/7
f 90/49/7 92/51/7 93/52/7
f 94/10/1 95/9/1 96/48/1
f 94/10/1 96/48/1 97/15/1
f 98/15/1 99/48/1 100/12/1
f 98/15/1 100/12/1 101/11/1
f 102/53/1 103/5/1 104/10/1
f 102/53/1 104/10/1 105/54/1
f 106/55/8 107/56/8 108/57/8
f 106/55/8 108/57/8 109/58/8
f 110/53/1 111/54/1 112/14/1
f 110/53/1 112/14/1 113/11/1
f 71/16/1 103/5/1 6/3/1
f 71/16/1 6/3/1 28/17/1
f 114/7/1 115/6/1 116/16/1
f 114/7/1 116/16/1 117/36/1
f 118/37/1 119/17/1 120/4/1
f 118/37/1 120/4/1 121/2/1
f 122/9/1 123/8/1 124/42/1
f 122/9/1 124/42/1 125/48/1
f 126/12/1 127/43/1 128/1/1
f 126/12/1 128/1/1 129/13/1
f 130/59/1 131/60/1 132/61/1
f 130/59/1 132/61/1 133/62/1
f 134/63/9 135/64/9 136/65/9
f 134/63/9 136/65/9 137/66/9
f 138/67/10 139/68/10 140/69/10
f 138/67/10 140/69/10 141/70/10
f 142/64/11 143/71/11 144/72/11
f 142/64/11 144/72/11 145/65/11
f 146/73/12 147/74/12 148/75/12
f 146/73/12 148/75/12 149/76/12
f 150/77/13 151/78/13 152/79/13
f 150/77/13 152/79/13 153/80/13
f 154/81/14 155/82/14 156/83/14
f 154/81/14 156/83/14 157/84/14
f 158/85/15 159/86/15 160/87/15
f 158/85/15 160/87/15 161/88/15
f 162/89/16 163/90/16 164/91/16
f 162/89/16 164/91/16 165/92/16
f 166/93/17 167/94/17 168/95/17
f 166/93/17 168/95/17 169/96/17
f 170/97/18 171/98/18 172/99/18
f 170/97/18 172/99/18 173/100/18
f 174/101/19 175/102/19 176/103/19
f 174/101/19 176/103/19 177/104/19
f 178/105/20 179/106/20 180/107/20
f 178/105/20 180/107/20 181/108/20
f 182/109/21 183/110/21 184/111/21
f 182/109/21 184/111/21 185/112/21
f 186/113/1 187/114/1 188/115/1
f 186/113/1 188/115/1 189/116/1
f 190/117/22 191/118/22 192/119/22
f 190/117/22 192/119/22 193/120/22
f 194/121/23 195/122/23 196/123/23
f 194/121/23 196/123/23 197/124/23
f 198/125/1 199/126/1 200/127/1
f 198/125/1 200/127/1 201/128/1
f 202/129/1 203/130/1 204/131/1
f 202/129/1 204/131/1 205/132/1
f 206/127/5 207/127/5 208/128/5
f 206/127/5 208/128/5 209/128/5
f 210/126/2 211/126/2 212/127/2
f 210/126/2 212/127/2 213/127/2
f 214/125/4 215/125/4 216/126/4
f 214/125/4 216/126/4 217/126/4
f 218/128/3 219/128/3 220/125/3
f 218/128/3 220/125/3 221/125/3
f 222/127/5 223/127/5 224/128/5
f 222/127/5 224/128/5 225/128/5
f 226/126/2 227/126/2 228/127/2
f 226/126/2 228/127/2 229/127/2
f 230/125/4 231/125/4 232/126/4
f 230/125/4 232/126/4 233/126/4
f 234/128/3 235/128/3 236/125/3
f 234/128/3 236/125/3 237/125/3
f 238/133/1 239/134/1 240/135/1
f 238/133/1 240/135/1 241/136/1
f 242/127/5 243/127/5 244/128/5
f 242/127/5 244/128/5 245/128/5
f 246/126/2 247/126/2 248/127/2
f 246/126/2 248/127/2 249/127/2
f 250/125/4 251/125/4 252/126/4
f 250/125/4 252/126/4 253/126/4
f 254/128/3 255/128/3 256/125/3
f 254/128/3 256/125/3 257/125/3
f 258/137/1 259/138/1 260/139/1
f 258/137/1 260/139/1 261/140/1
f 262/127/5 263/127/5 264/128/5
f 262/127/5 264/128/5 265/128/5
f 266/126/2 267/126/2 268/127/2
f 266/126/2 268/127/2 269/127/2
f 270/125/4 271/125/4 272/126/4
f 270/125/4 272/126/4 273/126/4
f 274/128/3 275/128/3 276/125/3
f 274/128/3 276/125/3 277/125/3
f 278/141/4 279/142/4 280/143/4
f 278/141/4 280/143/4 281/144/4
f 282/144/24 283/143/24 284/145/24
f 282/144/24 284/145/24 285/146/24
s 1
f 286/147/25 287/148/25 288/149/26
f 286/147/25 288/149/26 289/150/26
f 289/150/26 288/149/26 290/151/1
f 289/150/26 290/151/1 291/152/1
s 0
f 292/152/5 293/151/5 294/153/5
f 292/152/5 294/153/5 295/154/5
f 296/155/27 297/156/27 298/157/27
s 1
f 296/155/27 298/157/27 299/158/27
s 0
f 300/159/27 301/160/27 302/161/27
f 300/159/27 302/161/27 303/162/27
f 304/163/2 305/164/2 306/165/2
f 304/163/2 306/165/2 307/166/2
f 308/167/2 309/168/2 30/19/2
f 308/167/2 30/19/2 29/18/2
f 310/169/2 311/170/2 312/171/2
f 310/169/2 312/171/2 313/172/2
f 314/25/3 315/24/3 316/173/3
f 314/25/3 316/173/3 317/174/3
f 318/163/3 319/166/3 320/165/3
f 318/163/3 320/165/3 321/164/3
f 322/167/3 38/18/3 40/19/3
f 322/167/3 40/19/3 323/168/3
f 324/175/3 325/176/3 326/172/3
f 324/175/3 326/172/3 327/171/3
f 328/177/3 329/178/3 330/179/3
f 328/177/3 330/179/3 331/180/3
f 332/181/28 333/182/28 334/183/28
f 332/181/28 334/183/28 335/184/28
f 336/141/4 337/142/4 338/143/4
f 336/141/4 338/143/4 339/144/4
f 340/144/29 341/143/29 342/145/29
f 340/144/29 342/145/29 343/146/29
s 1
f 344/147/30 345/148/30 346/149/31
f 344/147/30 346/149/31 347/150/31
f 347/150/31 346/149/31 348/151/32
f 347/150/31 348/151/32 349/152/32
s 0
f 350/152/5 351/151/5 352/153/5
f 350/152/5 352/153/5 353/154/5
f 354/185/33 355/186/33 356/187/33
f 354/185/33 356/187/33 357/188/33
f 358/189/2 359/190/2 360/21/2
f 358/189/2 360/21/2 361/23/2
f 362/191/2 363/192/2 364/180/2
f 362/191/2 364/180/2 365/179/2
f 366/193/5 367/194/5 368/195/5
f 366/193/5 368/195/5 369/196/5
f 370/197/32 371/198/32 372/199/32
f 370/197/32 372/199/32 373/200/32
f 374/201/1 375/202/1 376/203/1
f 374/201/1 376/203/1 377/204/1
f 378/204/3 379/199/3 380/198/3
f 378/204/3 380/198/3 381/201/3
f 382/203/2 383/202/2 384/205/2
f 382/203/2 384/205/2 385/206/2
f 386/207/2 387/208/2 388/209/2
f 386/207/2 388/209/2 389/210/2
f 390/211/1 391/212/1 392/213/1
f 390/211/1 392/213/1 393/214/1
f 394/215/1 395/216/1 396/217/1
f 394/215/1 396/217/1 397/218/1
f 395/216/1 390/211/1 393/214/1
f 395/216/1 393/214/1 396/217/1
f 391/212/1 394/215/1 397/218/1
f 391/212/1 397/218/1 392/213/1
f 398/219/1 399/220/1 400/221/1
f 398/219/1 400/221/1 401/222/1
f 402/223/4 403/224/4 404/225/4
f 402/223/4 404/225/4 405/226/4
f 406/208/3 407/207/3 408/210/3
f 406/208/3 408/210/3 409/209/3
f 410/224/5 411/223/5 412/226/5
f 410/224/5 412/226/5 413/225/5
f 414/227/1 415/228/1 416/229/1
f 414/227/1 416/229/1 417/230/1
f 418/231/1 419/232/1 420/233/1
f 418/231/1 420/233/1 421/234/1
f 422/235/1 423/236/1 424/237/1
f 422/235/1 424/237/1 425/238/1
f 426/239/1 427/240/1 428/241/1
f 426/239/1 428/241/1 429/242/1
f 430/243/34 431/244/34 432/245/34
f 430/243/34 432/245/34 433/246/34
f 434/247/1 435/248/1 436/249/1
f 434/247/1 436/249/1 437/250/1
f 438/250/1 439/249/1 440/251/1
f 438/250/1 440/251/1 441/252/1
f 442/253/4 443/253/4 444/253/4
f 442/253/4 444/253/4 445/253/4
f 446/254/1 447/255/1 448/256/1
f 446/254/1 448/256/1 449/257/1
f 450/258/35 451/259/35 452/260/35
s 1
f 450/258/35 452/260/35 453/261/35
s 0
f 454/262/2 455/263/2 456/264/2
f 454/262/2 456/264/2 457/265/2
f 458/207/3 459/262/3 460/265/3
f 458/207/3 460/265/3 461/266/3
f 462/263/3 463/259/3 464/260/3
f 462/263/3 464/260/3 465/264/3
f 466/233/4 467/232/4 468/232/4
f 466/233/4 468/232/4 469/233/4
f 470/262/2 471/207/2 472/266/2
f 470/262/2 472/266/2 473/265/2
s 1
f 474/259/36 475/258/36 476/261/36
s 0
f 474/259/36 476/261/36 477/260/36
f 478/259/2 479/263/2 480/264/2
f 478/259/2 480/264/2 481/260/2
f 482/263/3 483/262/3 484/265/3
f 482/263/3 484/265/3 485/264/3
f 486/229/4 487/228/4 488/228/4
f 486/229/4 488/228/4 489/229/4
f 490/211/32 491/214/32 492/213/32
f 490/211/32 492/213/32 493/212/32
f 494/215/32 495/218/32 496/217/32
f 494/215/32 496/217/32 497/216/32
f 498/212/32 499/213/32 500/218/32
f 498/212/32 500/218/32 501/215/32
f 502/227/32 503/230/32 504/229/32
f 502/227/32 504/229/32 505/228/32
f 506/231/32 507/234/32 508/233/32
f 506/231/32 508/233/32 509/232/32
s 1
f 510/267/37 511/268/38 512/269/38
f 510/267/37 512/269/38 513/270/37
s 0
f 514/246/39 515/245/39 516/244/39
f 514/246/39 516/244/39 517/243/39
s 1
f 518/271/40 519/272/41 520/273/41
f 518/271/40 520/273/41 521/274/40
s 0
f 522/275/5 523/276/5 524/277/5
f 522/275/5 524/277/5 525/278/5
s 1
f 526/279/42 518/271/40 521/274/40
f 526/279/42 521/274/40 527/280/42
f 528/281/43 526/279/42 527/280/42
f 528/281/43 527/280/42 529/282/43
f 519/272/41 510/267/37 513/270/37
f 519/272/41 513/270/37 520/273/41
s 0
f 530/247/32 531/250/32 532/249/32
f 530/247/32 532/249/32 533/248/32
f 534/250/32 535/252/32 536/251/32
f 534/250/32 536/251/32 537/249/32
f 538/254/32 539/257/32 540/256/32
f 538/254/32 540/256/32 541/255/32
f 542/283/44 543/284/44 544/285/44
f 542/283/44 544/285/44 545/286/44
f 546/287/45 547/288/45 548/289/45
f 546/287/45 548/289/45 549/290/45
f 550/253/4 551/253/4 552/253/4
f 550/253/4 552/253/4 553/253/4
f 554/207/2 555/208/2 556/209/2
f 554/207/2 556/209/2 557/210/2
f 558/211/1 559/212/1 560/213/1
f 558/211/1 560/213/1 561/214/1
f 562/215/1 563/216/1 564/217/1
f 562/215/1 564/217/1 565/218/1
f 563/216/1 558/211/1 561/214/1
f 563/216/1 561/214/1 564/217/1
f 559/212/1 562/215/1 565/218/1
f 559/212/1 565/218/1 560/213/1
f 566/291/1 567/292/1 568/293/1
f 566/291/1 568/293/1 569/294/1
f 570/223/4 571/224/4 572/225/4
f 570/223/4 572/225/4 573/226/4
f 574/208/3 575/207/3 576/210/3
f 574/208/3 576/210/3 577/209/3
f 578/224/5 579/223/5 580/226/5
f 578/224/5 580/226/5 581/225/5
f 582/227/1 583/228/1 584/229/1
f 582/227/1 584/229/1 585/230/1
f 586/231/1 587/232/1 588/233/1
f 586/231/1 588/233/1 589/234/1
f 590/235/1 591/236/1 592/237/1
f 590/235/1 592/237/1 593/238/1
f 594/239/1 595/240/1 596/241/1
f 594/239/1 596/241/1 597/242/1
f 598/243/34 599/244/34 600/245/34
f 598/243/34 600/245/34 601/246/34
f 602/247/1 603/248/1 604/249/1
f 602/247/1 604/249/1 605/250/1
f 606/250/1 607/249/1 608/251/1
f 606/250/1 608/251/1 609/252/1
f 610/253/4 611/253/4 612/253/4
f 610/253/4 612/253/4 613/253/4
f 614/254/1 615/255/1 616/256/1
f 614/254/1 616/256/1 617/257/1
f 618/258/35 619/259/35 620/260/35
s 1
f 618/258/35 620/260/35 621/261/35
s 0
f 622/262/2 623/263/2 624/264/2
f 622/262/2 624/264/2 625/265/2
f 626/207/3 627/262/3 628/265/3
f 626/207/3 628/265/3 629/266/3
f 630/263/3 631/259/3 632/260/3
f 630/263/3 632/260/3 633/264/3
f 634/233/4 635/232/4 636/232/4
f 634/233/4 636/232/4 637/233/4
f 638/262/2 639/207/2 640/266/2
f 638/262/2 640/266/2 641/265/2
f 642/259/36 643/258/36 644/261/36
f 642/259/36 644/261/36 645/260/36
f 646/259/2 647/263/2 648/264/2
f 646/259/2 648/264/2 649/260/2
f 650/263/3 651/262/3 652/265/3
f 650/263/3 652/265/3 653/264/3
f 654/229/4 655/228/4 656/228/4
f 654/229/4 656/228/4 657/229/4
f 658/211/32 659/214/32 660/213/32
f 658/211/32 660/213/32 661/212/32
f 662/215/32 663/218/32 664/217/32
f 662/215/32 664/217/32 665/216/32
f 666/212/32 667/213/32 668/218/32
f 666/212/32 668/218/32 669/215/32
f 670/227/32 671/230/32 672/229/32
f 670/227/32 672/229/32 673/228/32
f 674/231/32 675/234/32 676/233/32
f 674/231/32 676/233/32 677/232/32
s 1
f 678/267/37 679/268/38 680/269/38
f 678/267/37 680/269/38 681/270/37
s 0
f 682/246/39 683/245/39 684/244/39
f 682/246/39 684/244/39 685/243/39
s 1
f 686/271/40 687/272/41 688/273/41
f 686/271/40 688/273/41 689/274/40
s 0
f 690/275/5 691/276/5 692/277/5
f 690/275/5 692/277/5 693/278/5
s 1
f 694/279/42 686/271/40 689/274/40
f 694/279/42 689/274/40 695/280/42
f 696/281/43 694/279/42 695/280/42
f 696/281/43 695/280/42 697/282/43
f 687/272/41 678/267/37 681/270/37
f 687/272/41 681/270/37 688/273/41
s 0
f 698/247/32 699/250/32 700/249/32
f 698/247/32 700/249/32 701/248/32
f 702/250/32 703/252/32 704/251/32
f 702/250/32 704/251/32 705/249/32
f 706/254/32 707/257/32 708/256/32
f 706/254/32 708/256/32 709/255/32
f 710/283/44 711/284/44 712/285/44
f 710/283/44 712/285/44 713/286/44
f 714/287/45 715/288/45 716/289/45
f 714/287/45 716/289/45 717/290/45
f 718/253/4 719/253/4 720/253/4
f 718/253/4 720/253/4 721/253/4
s 1
f 722/147/46 723/148/46 724/149/47
f 722/147/46 724/149/47 725/150/47
f 725/150/47 724/149/47 726/151/3
f 725/150/47 726/151/3 727/152/3
s 0
f 728/152/5 729/151/5 730/153/5
f 728/152/5 730/153/5 731/154/5
f 732/163/32 733/166/32 734/165/32
f 732/163/32 734/165/32 735/164/32
f 736/295/3 737/296/3 738/297/3
f 736/295/3 738/297/3 739/298/3
f 740/299/32 741/300/32 742/301/32
f 740/299/32 742/301/32 743/302/32
f 744/303/32 745/304/32 746/305/32
f 744/303/32 746/305/32 747/306/32
f 748/307/5 749/307/5 750/306/5
f 748/307/5 750/306/5 751/306/5
f 752/308/3 753/309/3 754/310/3
f 752/308/3 754/310/3 755/311/3
f 756/303/4 757/303/4 758/312/4
f 756/303/4 758/312/4 759/312/4
f 760/311/2 761/310/2 762/309/2
f 760/311/2 762/309/2 763/308/2
f 764/303/32 765/313/32 766/314/32
f 764/303/32 766/314/32 767/306/32
f 768/307/5 769/307/5 770/306/5
f 768/307/5 770/306/5 771/306/5
f 772/308/3 773/309/3 774/310/3
f 772/308/3 774/310/3 775/311/3
f 776/303/4 777/303/4 778/312/4
f 776/303/4 778/312/4 779/312/4
f 780/311/2 781/310/2 782/309/2
f 780/311/2 782/309/2 783/308/2
f 784/163/3 785/164/3 786/165/3
f 784/163/3 786/165/3 787/166/3
f 788/167/3 789/168/3 790/19/3
f 788/167/3 790/19/3 791/18/3
f 792/315/32 793/316/32 794/317/32
f 792/315/32 794/317/32 795/318/32
f 796/319/3 797/320/3 798/320/3
f 796/319/3 798/320/3 799/319/3
f 800/321/32 801/322/32 802/323/32
f 800/321/32 802/323/32 803/324/32
f 804/320/5 805/325/5 806/325/5
f 804/320/5 806/325/5 807/320/5
f 808/326/32 809/327/32 810/328/32
f 808/326/32 810/328/32 811/329/32
f 812/330/32 813/331/32 814/332/32
f 812/330/32 814/332/32 815/333/32
f 816/334/2 817/335/2 818/335/2
f 816/334/2 818/335/2 819/334/2
f 820/336/3 821/337/3 822/337/3
f 820/336/3 822/337/3 823/336/3
f 824/325/2 825/338/2 826/338/2
f 824/325/2 826/338/2 827/325/2
f 828/335/4 829/319/4 830/319/4
f 828/335/4 830/319/4 831/335/4
f 832/338/4 829/319/4 830/319/4
f 832/338/4 830/319/4 833/338/4
f 834/339/5 835/340/5 836/341/5
f 834/339/5 836/341/5 837/342/5
f 838/343/5 839/344/5 840/345/5
f 838/343/5 840/345/5 841/346/5
f 842/347/5 843/348/5 844/349/5
f 842/347/5 844/349/5 845/350/5
f 846/351/5 847/344/5 848/341/5
f 846/351/5 848/341/5 849/352/5
f 850/353/5 851/354/5 852/355/5
f 850/353/5 852/355/5 853/356/5
f 854/357/32 855/358/32 856/359/32
f 854/357/32 856/359/32 857/360/32
f 858/361/3 859/359/3 860/358/3
f 858/361/3 860/358/3 861/362/3
f 862/363/2 863/364/2 864/365/2
f 862/363/2 864/365/2 865/366/2
f 866/362/1 867/364/1 868/363/1
f 866/362/1 868/363/1 869/361/1
f 870/367/5 871/368/5 872/369/5
f 870/367/5 872/369/5 873/370/5
f 874/155/48 875/158/48 876/157/48
f 874/155/48 876/157/48 877/156/48
f 878/159/48 879/162/48 880/161/48
f 878/159/48 880/161/48 881/160/48
f 882/371/32 883/372/32 884/373/32
f 882/371/32 884/373/32 885/374/32
f 886/375/27 887/376/27 888/377/27
f 886/375/27 888/377/27 889/378/27
f 890/379/49 891/380/49 892/381/49
f 890/379/49 892/381/49 893/382/49
f 894/383/50 895/384/50 896/385/50
f 894/383/50 896/385/50 897/386/50
f 898/387/3 899/388/3 900/389/3
f 898/387/3 900/389/3 901/390/3
f 902/391/2 903/392/2 904/393/2
f 902/391/2 904/393/2 905/394/2
f 906/395/48 907/396/48 908/397/48
f 906/395/48 908/397/48 909/398/48
f 910/399/51 911/400/51 912/401/51
f 910/399/51 912/401/51 913/402/51
f 914/403/52 915/404/52 916/405/52
f 914/403/52 916/405/52 917/406/52
f 918/407/2 919/408/2 920/409/2
f 918/407/2 920/409/2 921/410/2
f 922/411/3 923/412/3 924/413/3
f 922/411/3 924/413/3 925/414/3
f 926/303/3 927/304/3 928/305/3
f 926/303/3 928/305/3 929/306/3
f 930/307/5 931/307/5 932/306/5
f 930/307/5 932/306/5 933/306/5
f 934/308/1 935/309/1 936/310/1
f 934/308/1 936/310/1 937/311/1
f 938/303/4 939/303/4 940/312/4
f 938/303/4 940/312/4 941/312/4
f 942/311/32 943/310/32 944/309/32
f 942/311/32 944/309/32 945/308/32
f 946/415/3 947/416/3 948/417/3
f 946/415/3 948/417/3 949/418/3
f 950/419/32 951/420/32 952/421/32
f 950/419/32 952/421/32 953/422/32
f 950/419/32 953/422/32 954/316/32
f 950/419/32 954/316/32 955/315/32
f 952/421/32 951/420/32 956/318/32
f 952/421/32 956/318/32 957/317/32
f 958/423/32 959/424/32 960/425/32
f 958/423/32 960/425/32 961/426/32
f 962/427/3 963/428/3 964/429/3
f 962/427/3 964/429/3 965/430/3
f 966/431/48 967/432/48 968/433/48
f 966/431/48 968/433/48 969/434/48
s 1
f 970/435/27 971/436/27 972/437/27
s 0
f 970/435/27 972/437/27 973/438/27
f 974/435/27 975/436/27 976/437/27
f 974/435/27 976/437/27 977/438/27
f 978/105/53 979/106/53 980/107/53
f 978/105/53 980/107/53 981/108/53
f 982/97/1 983/98/1 984/99/1
f 982/97/1 984/99/1 985/100/1
f 986/105/5 987/108/5 988/108/5
f 986/105/5 988/108/5 989/105/5
f 990/105/54 991/108/54 992/107/54
f 990/105/54 992/107/54 993/106/54
f 994/97/1 995/100/1 996/99/1
f 994/97/1 996/99/1 997/98/1
f 998/97/55 999/100/55 1000/99/55
f 998/97/55 1000/99/55 1001/98/55
f 1002/105/56 1003/108/56 1004/107/56
f 1002/105/56 1004/107/56 1005/106/56
f 1006/108/5 1007/105/5 1008/105/5
f 1006/108/5 1008/105/5 1009/108/5
f 1010/292/1 1011/439/1 1012/440/1
f 1010/292/1 1012/440/1 1013/293/1
f 1014/441/1 1015/442/1 1016/443/1
f 1014/441/1 1016/443/1 1017/444/1
