# Blender 5.0.1
# www.blender.org
mtllib old_city_house_speicher.mtl
o old_city_house_speicher
v -2.940719 8.666401 3.757416
v -3.599507 7.374887 3.757416
v -4.094271 7.374887 3.757416
v 3.915326 7.374887 3.757416
v 4.378557 7.374887 3.757416
v 1.908961 10.144472 3.757416
v -0.517334 11.557685 3.757417
v 0.580136 11.557685 3.757417
v -3.599507 -0.170259 3.757416
v 3.915326 -0.170259 3.757415
v 4.378556 7.374887 -3.757416
v 3.915325 7.374887 -3.757416
v 3.915325 -0.170259 -3.757417
v -3.599508 -0.170259 -3.757416
v -3.599508 7.374887 -3.757416
v -4.094271 7.374887 -3.757416
v -2.940719 8.666401 -3.757416
v 1.908961 10.144472 -3.757417
v -0.517336 11.557685 -3.757416
v 0.580135 11.557685 -3.757416
v 0.032099 12.056586 -3.247191
v 0.032099 12.056586 3.247191
vn -0.0000 -0.0000 1.0000
vn -0.0000 -0.3162 0.9487
vn 0.7631 -0.3420 0.5484
vn 0.5237 0.4795 0.7042
vn 0.5219 0.5206 0.6757
vn -0.0000 -1.0000 -0.0000
vn 1.0000 -0.0000 -0.0000
vn -1.0000 -0.0000 -0.0000
vn -0.0000 -0.0000 -1.0000
vn 0.7375 0.6753 -0.0000
vn 0.7079 0.7063 -0.0000
vn 0.7464 0.6655 -0.0000
vn 0.0008 1.0000 -0.0000
vn -0.7321 0.6812 -0.0000
vn -0.0000 0.7150 0.6991
vn -0.0000 0.7150 -0.6991
vn -0.7562 0.6543 -0.0000
vn -0.7458 0.6661 -0.0000
vt 0.149693 0.724974
vt 0.017549 0.620559
vt 0.074226 0.620559
vt 0.935080 0.620559
vt 0.988145 0.620559
vt 0.705243 0.844471
vt 0.427301 0.958724
vt 0.553021 0.958724
vt 0.072366 0.005876
vt 0.955186 0.005876
vt 0.954859 0.004816
vt 0.081268 0.616058
vt 0.070284 0.004816
vt 0.943875 0.616058
vt 0.070284 0.004816
vt 0.943874 0.616058
vt 4.381715 1.256945
vt 0.000000 1.918260
vt 0.000000 1.256945
vt 4.381715 1.918260
vt 4.381715 0.091803
vt 0.000000 1.356840
vt 0.000000 0.091803
vt 4.381715 1.356840
vt 0.000000 1.617918
vt 4.084215 1.870573
vt 0.297500 1.870573
vt 4.381715 1.617918
vt -0.297500 3.738616
vt -4.381715 3.485609
vt -0.000000 3.485609
vt -4.084215 3.738616
vt 2.483108 2.795261
vt 2.163561 3.038539
vt 1.843199 2.795261
vt -2.483108 0.963503
vt -1.843199 0.963503
vt -2.163561 1.206781
vt -0.000000 3.756486
vt -4.381715 2.470365
vt -0.000000 2.470365
vt -4.381715 3.756486
vt -0.000000 2.414357
vt -4.381715 1.824006
vt -0.000000 1.824006
vt -4.381715 2.414357
s 1
usemtl haus21k5rnk.png-0
f 1/1/1 3/2/1 2/3/1
f 2/3/1 4/4/2 1/1/1
f 4/4/2 5/5/3 1/1/1
f 5/5/3 6/6/4 1/1/1
f 6/6/4 7/7/1 1/1/1
f 6/6/4 8/8/5 7/7/1
f 9/9/1 10/10/1 4/4/2
f 4/4/2 2/3/1 9/9/1
f 11/5/6 4/4/2 12/4/6
f 4/4/2 11/5/6 5/5/3
f 13/11/7 4/12/7 10/13/7
f 4/12/7 13/11/7 12/14/7
f 13/10/6 9/9/6 14/9/6
f 9/9/6 13/10/6 10/10/6
f 2/12/8 14/11/8 9/15/8
f 14/11/8 2/12/8 15/16/8
f 15/3/6 3/2/6 16/2/6
f 3/2/6 15/3/6 2/3/6
f 17/1/9 15/3/9 16/2/9
f 15/3/9 17/1/9 12/4/9
f 12/4/9 17/1/9 11/5/9
f 11/5/9 17/1/9 18/6/9
f 18/6/9 17/1/9 19/7/9
f 18/6/9 19/7/9 20/8/9
f 14/9/9 12/4/9 13/10/9
f 12/4/9 14/9/9 15/3/9
usemtl dachpbuxl.png-1.001
f 18/17/10 8/18/5 6/19/4
f 8/18/5 18/17/10 20/20/11
f 11/21/12 6/22/4 5/23/3
f 6/22/4 11/21/12 18/24/10
f 8/25/5 21/26/13 22/27/13
f 21/26/13 8/25/5 20/28/11
f 22/29/13 19/30/14 7/31/14
f 19/30/14 22/29/13 21/32/13
f 8/33/15 22/34/15 7/35/15
f 20/36/16 19/37/16 21/38/16
f 7/39/14 17/40/17 1/41/17
f 17/40/17 7/39/14 19/42/14
f 1/43/17 16/44/18 3/45/18
f 16/44/18 1/43/17 17/46/17
