{
	"asset":{
		"generator":"Khronos glTF Blender I/O v4.4.56",
		"version":"2.0"
	},
	"scene":0,
	"scenes":[
		{
			"name":"Scene",
			"nodes":[
				0,
				1,
				2,
				3,
				4,
				5,
				6,
				7,
				8,
				9,
				10
			]
		}
	],
	"nodes":[
		{
			"name":"AxisCoupling"
		},
		{
			"name":"BottomFrontCenter"
		},
		{
			"mesh":0,
			"name":"BottomPlatform"
		},
		{
			"mesh":1,
			"name":"WheelFeathering"
		},
		{
			"mesh":2,
			"name":"SteamChangerFront"
		},
		{
			"mesh":3,
			"name":"SteamChamber"
		},
		{
			"mesh":4,
			"name":"CabinDecoration"
		},
		{
			"mesh":5,
			"name":"Cabin"
		},
		{
			"name":"CabinCenterAxis"
		},
		{
			"mesh":6,
			"name":"FrontBuffer"
		},
		{
			"mesh":7,
			"name":"FrontLights"
		}
	],
	"materials":[
		{
			"doubleSided":true,
			"name":"mat_bottom_red",
			"pbrMetallicRoughness":{
				"baseColorTexture":{
					"index":0
				},
				"metallicFactor":0,
				"roughnessFactor":0.7590909004211426
			}
		},
		{
			"doubleSided":true,
			"name":"mat_wheel",
			"pbrMetallicRoughness":{
				"baseColorTexture":{
					"index":1
				},
				"metallicFactor":0,
				"roughnessFactor":0.5
			}
		},
		{
			"doubleSided":true,
			"name":"mat_black_metal",
			"pbrMetallicRoughness":{
				"baseColorTexture":{
					"index":2
				},
				"metallicFactor":0,
				"roughnessFactor":0.8307086229324341
			}
		},
		{
			"doubleSided":true,
			"name":"mat_light",
			"pbrMetallicRoughness":{
				"baseColorFactor":[
					0.800000011920929,
					0.800000011920929,
					0.800000011920929,
					1
				],
				"metallicFactor":0,
				"roughnessFactor":0.5
			}
		}
	],
	"meshes":[
		{
			"name":"Cube.008",
			"primitives":[
				{
					"attributes":{
						"POSITION":0,
						"NORMAL":1,
						"TEXCOORD_0":2
					},
					"indices":3,
					"material":0
				},
				{
					"attributes":{
						"POSITION":4,
						"NORMAL":5,
						"TEXCOORD_0":6
					},
					"indices":7,
					"material":1
				}
			]
		},
		{
			"name":"Cube.009",
			"primitives":[
				{
					"attributes":{
						"POSITION":8,
						"NORMAL":9,
						"TEXCOORD_0":10
					},
					"indices":11,
					"material":1
				}
			]
		},
		{
			"name":"Cube.014",
			"primitives":[
				{
					"attributes":{
						"POSITION":12,
						"NORMAL":13,
						"TEXCOORD_0":14
					},
					"indices":15,
					"material":2
				}
			]
		},
		{
			"name":"Cylinder.007",
			"primitives":[
				{
					"attributes":{
						"POSITION":16,
						"NORMAL":17,
						"TEXCOORD_0":18
					},
					"indices":19,
					"material":2
				}
			]
		},
		{
			"name":"Cube.013",
			"primitives":[
				{
					"attributes":{
						"POSITION":20,
						"NORMAL":21,
						"TEXCOORD_0":22
					},
					"indices":23,
					"material":2
				}
			]
		},
		{
			"name":"path360",
			"primitives":[
				{
					"attributes":{
						"POSITION":24,
						"NORMAL":25,
						"TEXCOORD_0":26
					},
					"indices":27,
					"material":2
				}
			]
		},
		{
			"name":"Cube.001",
			"primitives":[
				{
					"attributes":{
						"POSITION":28,
						"NORMAL":29,
						"TEXCOORD_0":30
					},
					"indices":31,
					"material":2
				}
			]
		},
		{
			"name":"Cube.005",
			"primitives":[
				{
					"attributes":{
						"POSITION":32,
						"NORMAL":33,
						"TEXCOORD_0":34
					},
					"indices":35,
					"material":2
				},
				{
					"attributes":{
						"POSITION":36,
						"NORMAL":37,
						"TEXCOORD_0":38
					},
					"indices":39,
					"material":3
				}
			]
		}
	],
	"textures":[
		{
			"sampler":0,
			"source":0
		},
		{
			"sampler":0,
			"source":0
		},
		{
			"sampler":0,
			"source":1
		}
	],
	"images":[
		{
			"mimeType":"image/jpeg",
			"name":"mat_metal_red",
			"uri":"mat_metal_red.jpg"
		},
		{
			"mimeType":"image/jpeg",
			"name":"mat_metal_black",
			"uri":"mat_metal_black.jpg"
		}
	],
	"accessors":[
		{
			"bufferView":0,
			"componentType":5126,
			"count":990,
			"max":[
				1.3291772603988647,
				1.129789113998413,
				1.8665580749511719
			],
			"min":[
				-1.3291772603988647,
				0.23469510674476624,
				-6.983348369598389
			],
			"type":"VEC3"
		},
		{
			"bufferView":1,
			"componentType":5126,
			"count":990,
			"type":"VEC3"
		},
		{
			"bufferView":2,
			"componentType":5126,
			"count":990,
			"type":"VEC2"
		},
		{
			"bufferView":3,
			"componentType":5123,
			"count":1776,
			"type":"SCALAR"
		},
		{
			"bufferView":4,
			"componentType":5126,
			"count":21,
			"max":[
				1.3291772603988647,
				1.129789113998413,
				-1.115185022354126
			],
			"min":[
				-1.3291772603988647,
				1.129789113998413,
				-6.983348369598389
			],
			"type":"VEC3"
		},
		{
			"bufferView":5,
			"componentType":5126,
			"count":21,
			"type":"VEC3"
		},
		{
			"bufferView":6,
			"componentType":5126,
			"count":21,
			"type":"VEC2"
		},
		{
			"bufferView":7,
			"componentType":5123,
			"count":72,
			"type":"SCALAR"
		},
		{
			"bufferView":8,
			"componentType":5126,
			"count":3232,
			"max":[
				0.8493818640708923,
				1.0090497732162476,
				-0.40565988421440125
			],
			"min":[
				-0.8483917117118835,
				0.024337036535143852,
				-5.170375823974609
			],
			"type":"VEC3"
		},
		{
			"bufferView":9,
			"componentType":5126,
			"count":3232,
			"type":"VEC3"
		},
		{
			"bufferView":10,
			"componentType":5126,
			"count":3232,
			"type":"VEC2"
		},
		{
			"bufferView":11,
			"componentType":5123,
			"count":6912,
			"type":"SCALAR"
		},
		{
			"bufferView":12,
			"componentType":5126,
			"count":368,
			"max":[
				0.76971435546875,
				2.979451894760132,
				-6.456479072570801
			],
			"min":[
				-0.6348391771316528,
				1.709774136543274,
				-6.692024230957031
			],
			"type":"VEC3"
		},
		{
			"bufferView":13,
			"componentType":5126,
			"count":368,
			"type":"VEC3"
		},
		{
			"bufferView":14,
			"componentType":5126,
			"count":368,
			"type":"VEC2"
		},
		{
			"bufferView":15,
			"componentType":5123,
			"count":1092,
			"type":"SCALAR"
		},
		{
			"bufferView":16,
			"componentType":5126,
			"count":1566,
			"max":[
				0.9006025195121765,
				4.352277755737305,
				-0.7953252196311951
			],
			"min":[
				-0.9006025195121765,
				1.054312825202942,
				-6.666409969329834
			],
			"type":"VEC3"
		},
		{
			"bufferView":17,
			"componentType":5126,
			"count":1566,
			"type":"VEC3"
		},
		{
			"bufferView":18,
			"componentType":5126,
			"count":1566,
			"type":"VEC2"
		},
		{
			"bufferView":19,
			"componentType":5123,
			"count":4071,
			"type":"SCALAR"
		},
		{
			"bufferView":20,
			"componentType":5126,
			"count":1060,
			"max":[
				1.431132435798645,
				3.819204807281494,
				1.1645474433898926
			],
			"min":[
				-1.4295464754104614,
				1.1573015451431274,
				-1.3994241952896118
			],
			"type":"VEC3"
		},
		{
			"bufferView":21,
			"componentType":5126,
			"count":1060,
			"type":"VEC3"
		},
		{
			"bufferView":22,
			"componentType":5126,
			"count":1060,
			"type":"VEC2"
		},
		{
			"bufferView":23,
			"componentType":5123,
			"count":1860,
			"type":"SCALAR"
		},
		{
			"bufferView":24,
			"componentType":5126,
			"count":544,
			"max":[
				1.3201394081115723,
				4.237015247344971,
				2.789778232574463
			],
			"min":[
				-1.3185534477233887,
				1.0614309310913086,
				-1.130643606185913
			],
			"type":"VEC3"
		},
		{
			"bufferView":25,
			"componentType":5126,
			"count":544,
			"type":"VEC3"
		},
		{
			"bufferView":26,
			"componentType":5126,
			"count":544,
			"type":"VEC2"
		},
		{
			"bufferView":27,
			"componentType":5123,
			"count":1554,
			"type":"SCALAR"
		},
		{
			"bufferView":28,
			"componentType":5126,
			"count":176,
			"max":[
				0.2702397406101227,
				0.8402658700942993,
				-6.795661926269531
			],
			"min":[
				-0.27783679962158203,
				0.3972676992416382,
				-7.768350124359131
			],
			"type":"VEC3"
		},
		{
			"bufferView":29,
			"componentType":5126,
			"count":176,
			"type":"VEC3"
		},
		{
			"bufferView":30,
			"componentType":5126,
			"count":176,
			"type":"VEC2"
		},
		{
			"bufferView":31,
			"componentType":5123,
			"count":336,
			"type":"SCALAR"
		},
		{
			"bufferView":32,
			"componentType":5126,
			"count":1508,
			"max":[
				1.3728127479553223,
				2.205772638320923,
				-5.480554580688477
			],
			"min":[
				-1.3717035055160522,
				0.39278459548950195,
				-7.024507999420166
			],
			"type":"VEC3"
		},
		{
			"bufferView":33,
			"componentType":5126,
			"count":1508,
			"type":"VEC3"
		},
		{
			"bufferView":34,
			"componentType":5126,
			"count":1508,
			"type":"VEC2"
		},
		{
			"bufferView":35,
			"componentType":5123,
			"count":3732,
			"type":"SCALAR"
		},
		{
			"bufferView":36,
			"componentType":5126,
			"count":1672,
			"max":[
				1.129915475845337,
				2.1616525650024414,
				-6.711826324462891
			],
			"min":[
				-1.128806233406067,
				1.7867155075073242,
				-7.024507999420166
			],
			"type":"VEC3"
		},
		{
			"bufferView":37,
			"componentType":5126,
			"count":1672,
			"type":"VEC3"
		},
		{
			"bufferView":38,
			"componentType":5126,
			"count":1672,
			"type":"VEC2"
		},
		{
			"bufferView":39,
			"componentType":5123,
			"count":2580,
			"type":"SCALAR"
		}
	],
	"bufferViews":[
		{
			"buffer":0,
			"byteLength":11880,
			"byteOffset":0,
			"target":34962
		},
		{
			"buffer":0,
			"byteLength":11880,
			"byteOffset":11880,
			"target":34962
		},
		{
			"buffer":0,
			"byteLength":7920,
			"byteOffset":23760,
			"target":34962
		},
		{
			"buffer":0,
			"byteLength":3552,
			"byteOffset":31680,
			"target":34963
		},
		{
			"buffer":0,
			"byteLength":252,
			"byteOffset":35232,
			"target":34962
		},
		{
			"buffer":0,
			"byteLength":252,
			"byteOffset":35484,
			"target":34962
		},
		{
			"buffer":0,
			"byteLength":168,
			"byteOffset":35736,
			"target":34962
		},
		{
			"buffer":0,
			"byteLength":144,
			"byteOffset":35904,
			"target":34963
		},
		{
			"buffer":0,
			"byteLength":38784,
			"byteOffset":36048,
			"target":34962
		},
		{
			"buffer":0,
			"byteLength":38784,
			"byteOffset":74832,
			"target":34962
		},
		{
			"buffer":0,
			"byteLength":25856,
			"byteOffset":113616,
			"target":34962
		},
		{
			"buffer":0,
			"byteLength":13824,
			"byteOffset":139472,
			"target":34963
		},
		{
			"buffer":0,
			"byteLength":4416,
			"byteOffset":153296,
			"target":34962
		},
		{
			"buffer":0,
			"byteLength":4416,
			"byteOffset":157712,
			"target":34962
		},
		{
			"buffer":0,
			"byteLength":2944,
			"byteOffset":162128,
			"target":34962
		},
		{
			"buffer":0,
			"byteLength":2184,
			"byteOffset":165072,
			"target":34963
		},
		{
			"buffer":0,
			"byteLength":18792,
			"byteOffset":167256,
			"target":34962
		},
		{
			"buffer":0,
			"byteLength":18792,
			"byteOffset":186048,
			"target":34962
		},
		{
			"buffer":0,
			"byteLength":12528,
			"byteOffset":204840,
			"target":34962
		},
		{
			"buffer":0,
			"byteLength":8142,
			"byteOffset":217368,
			"target":34963
		},
		{
			"buffer":0,
			"byteLength":12720,
			"byteOffset":225512,
			"target":34962
		},
		{
			"buffer":0,
			"byteLength":12720,
			"byteOffset":238232,
			"target":34962
		},
		{
			"buffer":0,
			"byteLength":8480,
			"byteOffset":250952,
			"target":34962
		},
		{
			"buffer":0,
			"byteLength":3720,
			"byteOffset":259432,
			"target":34963
		},
		{
			"buffer":0,
			"byteLength":6528,
			"byteOffset":263152,
			"target":34962
		},
		{
			"buffer":0,
			"byteLength":6528,
			"byteOffset":269680,
			"target":34962
		},
		{
			"buffer":0,
			"byteLength":4352,
			"byteOffset":276208,
			"target":34962
		},
		{
			"buffer":0,
			"byteLength":3108,
			"byteOffset":280560,
			"target":34963
		},
		{
			"buffer":0,
			"byteLength":2112,
			"byteOffset":283668,
			"target":34962
		},
		{
			"buffer":0,
			"byteLength":2112,
			"byteOffset":285780,
			"target":34962
		},
		{
			"buffer":0,
			"byteLength":1408,
			"byteOffset":287892,
			"target":34962
		},
		{
			"buffer":0,
			"byteLength":672,
			"byteOffset":289300,
			"target":34963
		},
		{
			"buffer":0,
			"byteLength":18096,
			"byteOffset":289972,
			"target":34962
		},
		{
			"buffer":0,
			"byteLength":18096,
			"byteOffset":308068,
			"target":34962
		},
		{
			"buffer":0,
			"byteLength":12064,
			"byteOffset":326164,
			"target":34962
		},
		{
			"buffer":0,
			"byteLength":7464,
			"byteOffset":338228,
			"target":34963
		},
		{
			"buffer":0,
			"byteLength":20064,
			"byteOffset":345692,
			"target":34962
		},
		{
			"buffer":0,
			"byteLength":20064,
			"byteOffset":365756,
			"target":34962
		},
		{
			"buffer":0,
			"byteLength":13376,
			"byteOffset":385820,
			"target":34962
		},
		{
			"buffer":0,
			"byteLength":5160,
			"byteOffset":399196,
			"target":34963
		}
	],
	"samplers":[
		{
			"magFilter":9729,
			"minFilter":9987
		}
	],
	"buffers":[
		{
			"byteLength":404356,
			"uri":"mpsb_12.bin"
		}
	]
}
