# Blender 4.4.1
# www.blender.org
mtllib tree2.mtl
o tree2
v 1.638126 8.690887 -0.282173 0.0000 0.0000 0.0000
v 1.638126 8.690887 -0.282173 0.0000 0.0000 0.0000
v 1.638126 8.690887 -0.282173 0.0000 0.0000 0.0000
v 1.644550 8.688308 -0.289022 0.0000 0.0000 0.0000
v 1.644550 8.688308 -0.289022 0.0000 0.0000 0.0000
v 1.644550 8.688308 -0.289022 0.0000 0.0000 0.0000
v 1.653622 8.685724 -0.286577 0.0000 0.0000 0.0000
v 1.653622 8.685724 -0.286577 0.0000 0.0000 0.0000
v 1.653622 8.685724 -0.286577 0.0000 0.0000 0.0000
v 1.647543 8.688308 -0.278853 0.0000 0.0000 0.0000
v 1.647543 8.688308 -0.278853 0.0000 0.0000 0.0000
v 1.647543 8.688308 -0.278853 0.0000 0.0000 0.0000
v 1.647543 8.688308 -0.278853 0.0000 0.0000 0.0000
v 1.366366 7.581265 -0.209018 0.0000 0.0000 0.0000
v 1.366366 7.581265 -0.209018 0.0000 0.0000 0.0000
v 1.378124 7.576088 -0.221589 0.0000 0.0000 0.0000
v 1.378124 7.576088 -0.221589 0.0000 0.0000 0.0000
v 1.395265 7.573498 -0.217341 0.0000 0.0000 0.0000
v 1.395265 7.573498 -0.217341 0.0000 0.0000 0.0000
v 1.400646 7.576084 -0.200523 0.0000 0.0000 0.0000
v 1.400646 7.576084 -0.200523 0.0000 0.0000 0.0000
v 1.388884 7.581262 -0.187952 0.0000 0.0000 0.0000
v 1.388884 7.581262 -0.187952 0.0000 0.0000 0.0000
v 1.327613 7.069056 -0.047909 0.0000 0.0000 0.0000
v 1.327613 7.069056 -0.047909 0.0000 0.0000 0.0000
v 1.327613 7.069056 -0.047909 0.0000 0.0000 0.0000
v 1.335899 7.057957 -0.086246 0.0000 0.0000 0.0000
v 1.335899 7.057957 -0.086246 0.0000 0.0000 0.0000
v 1.358736 7.059067 -0.081559 0.0000 0.0000 0.0000
v 1.358736 7.059067 -0.081559 0.0000 0.0000 0.0000
v 1.350452 7.070166 -0.043224 0.0000 0.0000 0.0000
v 1.350452 7.070166 -0.043224 0.0000 0.0000 0.0000
v 1.350452 7.070166 -0.043224 0.0000 0.0000 0.0000
v 1.350452 7.070166 -0.043224 1.0000 1.0000 1.0000
v 1.353303 6.585380 0.039811 0.0000 0.0000 0.0000
v 1.353303 6.585380 0.039811 0.0000 0.0000 0.0000
v 1.344548 6.581929 0.012148 0.0000 0.0000 0.0000
v 1.344548 6.581929 0.012148 0.0000 0.0000 0.0000
v 1.363876 6.574142 -0.008608 0.0000 0.0000 0.0000
v 1.363876 6.574142 -0.008608 0.0000 0.0000 0.0000
v 1.400723 6.573257 0.025967 0.0000 0.0000 0.0000
v 1.400723 6.573257 0.025967 0.0000 0.0000 0.0000
v 1.400723 6.573257 0.025967 1.0000 1.0000 1.0000
v 1.400723 6.573257 0.025967 0.0000 0.0000 0.0000
v 1.381393 6.581043 0.046721 0.0000 0.0000 0.0000
v 1.381393 6.581043 0.046721 1.0000 1.0000 1.0000
v 1.104598 5.960699 0.119163 0.0000 0.0000 0.0000
v 1.104598 5.960699 0.119163 0.0000 0.0000 0.0000
v 1.094581 5.963174 0.082063 0.0000 0.0000 0.0000
v 1.094581 5.963174 0.082063 0.0000 0.0000 0.0000
v 1.120080 5.952883 0.054683 0.0000 0.0000 0.0000
v 1.120080 5.952883 0.054683 0.0000 0.0000 0.0000
v 1.155595 5.940119 0.064403 0.0000 0.0000 0.0000
v 1.155595 5.940119 0.064403 0.0000 0.0000 0.0000
v 1.141765 5.937644 0.109600 0.0000 0.0000 0.0000
v 1.141765 5.937644 0.109600 1.0000 1.0000 1.0000
v 1.141765 5.937644 0.109600 0.0000 0.0000 0.0000
v 0.667201 3.873350 -0.051004 0.0000 0.0000 0.0000
v 0.667201 3.873350 -0.051004 0.0000 0.0000 0.0000
v 0.718787 3.866264 -0.102064 0.0000 0.0000 0.0000
v 0.718787 3.866264 -0.102064 0.0000 0.0000 0.0000
v 0.785660 3.840809 -0.083747 0.0000 0.0000 0.0000
v 0.785660 3.840809 -0.083747 0.0000 0.0000 0.0000
v 0.775302 3.822444 0.014866 0.0000 0.0000 0.0000
v 0.775302 3.822444 0.014866 0.0000 0.0000 0.0000
v 0.749360 3.829530 0.036690 0.0000 0.0000 0.0000
v 0.749360 3.829530 0.036690 0.0000 0.0000 0.0000
v 0.749360 3.829530 0.036690 0.0000 0.0000 0.0000
v 0.472015 3.225906 -0.128400 0.0000 0.0000 0.0000
v 0.472015 3.225906 -0.128400 0.0000 0.0000 0.0000
v 0.453131 3.241089 -0.208458 0.0000 0.0000 0.0000
v 0.453131 3.241089 -0.208458 0.0000 0.0000 0.0000
v 0.453131 3.241089 -0.208458 0.0000 0.0000 0.0000
v 0.453131 3.241089 -0.208458 0.0000 0.0000 0.0000
v 0.589019 3.205487 -0.245717 0.0000 0.0000 0.0000
v 0.589019 3.205487 -0.245717 0.0000 0.0000 0.0000
v 0.607903 3.190303 -0.165659 0.0000 0.0000 0.0000
v 0.607903 3.190303 -0.165659 0.0000 0.0000 0.0000
v 0.549402 3.200513 -0.106999 0.0000 0.0000 0.0000
v 0.549402 3.200513 -0.106999 0.0000 0.0000 0.0000
v 0.237165 1.665979 -0.039374 0.0000 0.0000 0.0000
v 0.237165 1.665979 -0.039374 0.0000 0.0000 0.0000
v 0.210539 1.668301 -0.141664 0.0000 0.0000 0.0000
v 0.210539 1.668301 -0.141664 0.0000 0.0000 0.0000
v 0.285343 1.659051 -0.215928 0.0000 0.0000 0.0000
v 0.285343 1.659051 -0.215928 0.0000 0.0000 0.0000
v 0.386771 1.647480 -0.187900 0.0000 0.0000 0.0000
v 0.386771 1.647480 -0.187900 0.0000 0.0000 0.0000
v 0.413402 1.645158 -0.085606 0.0000 0.0000 0.0000
v 0.413402 1.645158 -0.085606 0.0000 0.0000 0.0000
v 0.413402 1.645158 -0.085606 0.0000 0.0000 0.0000
v 0.413402 1.645158 -0.085606 0.0000 0.0000 0.0000
v 0.201998 0.918410 -0.060015 0.0000 0.0000 0.0000
v 0.201998 0.918410 -0.060015 0.0000 0.0000 0.0000
v 0.207104 0.904928 -0.200642 0.0000 0.0000 0.0000
v 0.207104 0.904928 -0.200642 0.0000 0.0000 0.0000
v 0.207104 0.904928 -0.200642 0.0000 0.0000 0.0000
v 0.207104 0.904928 -0.200642 0.0000 0.0000 0.0000
v 0.362611 0.894441 -0.219735 0.0000 0.0000 0.0000
v 0.362611 0.894441 -0.219735 0.0000 0.0000 0.0000
v 0.391600 0.895939 -0.109757 0.0000 0.0000 0.0000
v 0.391600 0.895939 -0.109757 0.0000 0.0000 0.0000
v 0.311294 0.907923 -0.029895 0.0000 0.0000 0.0000
v 0.311294 0.907923 -0.029895 0.0000 0.0000 0.0000
v -0.027434 -0.150384 0.123531 0.0000 0.0000 0.0000
v -0.027434 -0.150384 0.123531 0.0000 0.0000 0.0000
v 0.025773 -0.150384 -0.079981 0.0000 0.0000 0.0000
v 0.025773 -0.150384 -0.079981 0.0000 0.0000 0.0000
v 0.143340 -0.150384 -0.047226 0.0000 0.0000 0.0000
v 0.143340 -0.150384 -0.047226 0.0000 0.0000 0.0000
v 0.143340 -0.150384 -0.047226 0.0000 0.0000 0.0000
v 0.143340 -0.150384 -0.047226 0.0000 0.0000 0.0000
v 0.175521 -0.150384 0.070907 0.0000 0.0000 0.0000
v 0.175521 -0.150384 0.070907 0.0000 0.0000 0.0000
v 0.090133 -0.150384 0.156286 0.0000 0.0000 0.0000
v 0.090133 -0.150384 0.156286 0.0000 0.0000 0.0000
v -0.827165 8.513393 0.193378 0.0000 0.0000 0.0000
v -0.827165 8.513393 0.193378 1.0000 1.0000 1.0000
v -0.827165 8.513393 0.193378 0.0000 0.0000 0.0000
v -0.823581 8.514207 0.207767 1.0000 1.0000 1.0000
v -0.823581 8.514207 0.207767 1.0000 1.0000 1.0000
v -0.823581 8.514207 0.207767 0.0000 0.0000 0.0000
v -0.823581 8.514207 0.207767 0.0000 0.0000 0.0000
v -0.835222 8.513103 0.209754 0.0000 0.0000 0.0000
v -0.835222 8.513103 0.209754 1.0000 1.0000 1.0000
v -0.835222 8.513103 0.209754 1.0000 1.0000 1.0000
v -0.837607 8.511889 0.196535 0.0000 0.0000 0.0000
v -0.837607 8.511889 0.196535 0.0000 0.0000 0.0000
v -0.837607 8.511889 0.196535 0.0000 0.0000 0.0000
v -0.837607 8.511889 0.196535 1.0000 1.0000 1.0000
v -0.743643 7.537463 0.098149 0.0000 0.0000 0.0000
v -0.743643 7.537463 0.098149 0.0000 0.0000 0.0000
v -0.736197 7.535534 0.118062 0.0000 0.0000 0.0000
v -0.736197 7.535534 0.118062 0.0000 0.0000 0.0000
v -0.750696 7.522550 0.132805 0.0000 0.0000 0.0000
v -0.750696 7.522550 0.132805 1.0000 1.0000 1.0000
v -0.750696 7.522550 0.132805 0.0000 0.0000 0.0000
v -0.764021 7.525988 0.116828 0.0000 0.0000 0.0000
v -0.764021 7.525988 0.116828 0.0000 0.0000 0.0000
v -0.761919 7.530432 0.106503 0.0000 0.0000 0.0000
v -0.761919 7.530432 0.106503 0.0000 0.0000 0.0000
v -0.603907 6.988117 -0.211224 0.0000 0.0000 0.0000
v -0.603907 6.988117 -0.211224 0.0000 0.0000 0.0000
v -0.603907 6.988117 -0.211224 0.0000 0.0000 0.0000
v -0.584989 6.983473 -0.195226 0.0000 0.0000 0.0000
v -0.584989 6.983473 -0.195226 0.0000 0.0000 0.0000
v -0.584989 6.983473 -0.195226 0.0000 0.0000 0.0000
v -0.613451 6.969670 -0.164658 0.0000 0.0000 0.0000
v -0.613451 6.969670 -0.164658 0.0000 0.0000 0.0000
v -0.613451 6.969670 -0.164658 0.0000 0.0000 0.0000
v -0.613451 6.969670 -0.164658 0.0000 0.0000 0.0000
v -0.632369 6.974314 -0.180656 0.0000 0.0000 0.0000
v -0.632369 6.974314 -0.180656 0.0000 0.0000 0.0000
v -0.632369 6.974314 -0.180656 0.0000 0.0000 0.0000
v -0.613829 6.983538 -0.205362 0.0000 0.0000 0.0000
v -0.613829 6.983538 -0.205362 0.0000 0.0000 0.0000
v -0.651914 6.534412 -0.251577 0.0000 0.0000 0.0000
v -0.651914 6.534412 -0.251577 0.0000 0.0000 0.0000
v -0.628769 6.536376 -0.212928 0.0000 0.0000 0.0000
v -0.628769 6.536376 -0.212928 0.0000 0.0000 0.0000
v -0.628769 6.536376 -0.212928 0.0000 0.0000 0.0000
v -0.628769 6.536376 -0.212928 0.0000 0.0000 0.0000
v -0.660037 6.535434 -0.193192 0.0000 0.0000 0.0000
v -0.660037 6.535434 -0.193192 0.0000 0.0000 0.0000
v -0.682768 6.533922 -0.213653 0.0000 0.0000 0.0000
v -0.682768 6.533922 -0.213653 0.0000 0.0000 0.0000
v -0.671809 6.533669 -0.245093 0.0000 0.0000 0.0000
v -0.483335 5.599654 -0.156529 0.0000 0.0000 0.0000
v -0.483335 5.599654 -0.156529 0.0000 0.0000 0.0000
v -0.483335 5.599654 -0.156529 0.0000 0.0000 0.0000
v -0.450998 5.615388 -0.111530 0.0000 0.0000 0.0000
v -0.450998 5.615388 -0.111530 0.0000 0.0000 0.0000
v -0.455100 5.619524 -0.094196 0.0000 0.0000 0.0000
v -0.455100 5.619524 -0.094196 0.0000 0.0000 0.0000
v -0.503343 5.619827 -0.072002 0.0000 0.0000 0.0000
v -0.503343 5.619827 -0.072002 0.0000 0.0000 0.0000
v -0.540182 5.606305 -0.121566 0.0000 0.0000 0.0000
v -0.540182 5.606305 -0.121566 0.0000 0.0000 0.0000
v -0.312370 4.351590 0.266435 0.0000 0.0000 0.0000
v -0.312370 4.351590 0.266435 0.0000 0.0000 0.0000
v -0.312370 4.351590 0.266435 0.0000 0.0000 0.0000
v -0.312370 4.351590 0.266435 0.0000 0.0000 0.0000
v -0.312370 4.351590 0.266435 0.0000 0.0000 0.0000
v -0.312370 4.351590 0.266435 0.0000 0.0000 0.0000
v -0.326934 4.366006 0.328135 1.0000 1.0000 1.0000
v -0.326934 4.366006 0.328135 0.0000 0.0000 0.0000
v -0.326934 4.366006 0.328135 0.0000 0.0000 0.0000
v -0.326934 4.366006 0.328135 0.0000 0.0000 0.0000
v -0.326934 4.366006 0.328135 0.0000 0.0000 0.0000
v -0.326934 4.366006 0.328135 0.0000 0.0000 0.0000
v -0.421330 4.339631 0.242871 0.0000 0.0000 0.0000
v -0.421330 4.339631 0.242871 0.0000 0.0000 0.0000
v -0.382076 3.601322 0.278155 0.0000 0.0000 0.0000
v -0.382076 3.601322 0.278155 0.0000 0.0000 0.0000
v -0.304594 3.602536 0.315630 0.0000 0.0000 0.0000
v -0.304594 3.602536 0.315630 0.0000 0.0000 0.0000
v -0.321149 3.600162 0.390554 0.0000 0.0000 0.0000
v -0.321149 3.600162 0.390554 0.0000 0.0000 0.0000
v -0.361801 3.596576 0.397729 0.0000 0.0000 0.0000
v -0.450881 3.595362 0.361774 0.0000 0.0000 0.0000
v -0.450881 3.595362 0.361774 0.0000 0.0000 0.0000
v -0.434328 3.597737 0.286847 0.0000 0.0000 0.0000
v -0.434328 3.597737 0.286847 0.0000 0.0000 0.0000
v -0.207454 2.455871 0.188414 0.0000 0.0000 0.0000
v -0.207454 2.455871 0.188414 0.0000 0.0000 0.0000
v -0.227209 2.442576 0.280254 0.0000 0.0000 0.0000
v -0.227209 2.442576 0.280254 0.0000 0.0000 0.0000
v -0.227209 2.442576 0.280254 0.0000 0.0000 0.0000
v -0.386587 2.427101 0.244244 0.0000 0.0000 0.0000
v -0.386587 2.427101 0.244244 0.0000 0.0000 0.0000
v -0.366834 2.440396 0.152405 0.0000 0.0000 0.0000
v -0.366834 2.440396 0.152405 0.0000 0.0000 0.0000
v -0.366834 2.440396 0.152405 0.0000 0.0000 0.0000
v -0.366834 2.440396 0.152405 0.0000 0.0000 0.0000
v -0.093890 0.975592 -0.006489 0.0000 0.0000 0.0000
v -0.093890 0.975592 -0.006489 0.0000 0.0000 0.0000
v -0.010640 0.977703 0.069879 0.0000 0.0000 0.0000
v -0.010640 0.977703 0.069879 0.0000 0.0000 0.0000
v -0.034357 0.963285 0.179620 0.0000 0.0000 0.0000
v -0.034357 0.963285 0.179620 0.0000 0.0000 0.0000
v -0.108619 0.946759 0.190744 0.0000 0.0000 0.0000
v -0.224570 0.944649 0.136626 0.0000 0.0000 0.0000
v -0.224570 0.944649 0.136626 0.0000 0.0000 0.0000
v -0.200853 0.959066 0.026883 0.0000 0.0000 0.0000
v -0.200853 0.959066 0.026883 0.0000 0.0000 0.0000
v 0.035648 -0.150384 -0.204781 0.0000 0.0000 0.0000
v 0.035648 -0.150384 -0.204781 0.0000 0.0000 0.0000
v 0.126119 -0.150384 -0.122354 0.0000 0.0000 0.0000
v 0.126119 -0.150384 -0.122354 0.0000 0.0000 0.0000
v -0.059613 -0.150384 0.005398 0.0000 0.0000 0.0000
v -0.059613 -0.150384 0.005398 0.0000 0.0000 0.0000
v -0.059613 -0.150384 0.005398 0.0000 0.0000 0.0000
v -0.059613 -0.150384 0.005398 0.0000 0.0000 0.0000
v -0.112317 -0.150384 -0.016290 0.0000 0.0000 0.0000
v -0.112317 -0.150384 -0.016290 0.0000 0.0000 0.0000
v -0.122498 -0.150384 -0.174985 0.0000 0.0000 0.0000
v -0.122498 -0.150384 -0.174985 0.0000 0.0000 0.0000
v 0.346520 8.803638 1.106152 0.0000 0.0000 0.0000
v 0.346520 8.803638 1.106152 0.0000 0.0000 0.0000
v 0.346520 8.803638 1.106152 0.0000 0.0000 0.0000
v 0.346520 8.803638 1.106152 1.0000 1.0000 1.0000
v 0.359664 8.801481 1.096052 0.0000 0.0000 0.0000
v 0.359664 8.801481 1.096052 1.0000 1.0000 1.0000
v 0.359664 8.801481 1.096052 1.0000 1.0000 1.0000
v 0.359664 8.801481 1.096052 0.0000 0.0000 0.0000
v 0.361462 8.799323 1.112531 1.0000 1.0000 1.0000
v 0.361462 8.799323 1.112531 1.0000 1.0000 1.0000
v 0.361462 8.799323 1.112531 0.0000 0.0000 0.0000
v 0.361462 8.799323 1.112531 0.0000 0.0000 0.0000
v 0.352102 8.801481 1.113769 0.0000 0.0000 0.0000
v 0.352102 8.801481 1.113769 1.0000 1.0000 1.0000
v 0.352102 8.801481 1.113769 1.0000 1.0000 1.0000
v 0.352102 8.801481 1.113769 1.0000 1.0000 1.0000
v 0.050665 7.270945 0.972004 0.0000 0.0000 0.0000
v 0.050665 7.270945 0.972004 0.0000 0.0000 0.0000
v 0.054825 7.274081 0.964777 0.0000 0.0000 0.0000
v 0.054825 7.274081 0.964777 0.0000 0.0000 0.0000
v 0.079637 7.266216 0.962580 0.0000 0.0000 0.0000
v 0.079637 7.266216 0.962580 0.0000 0.0000 0.0000
v 0.086218 7.261412 0.971841 0.0000 0.0000 0.0000
v 0.086218 7.261412 0.971841 0.0000 0.0000 0.0000
v 0.078498 7.256791 0.998091 1.0000 1.0000 1.0000
v 0.078498 7.256791 0.998091 0.0000 0.0000 0.0000
v 0.057443 7.262301 1.000994 0.0000 0.0000 0.0000
v 0.057443 7.262301 1.000994 1.0000 1.0000 1.0000
v -0.283977 6.166763 0.537557 0.0000 0.0000 0.0000
v -0.283977 6.166763 0.537557 0.0000 0.0000 0.0000
v -0.268147 6.174204 0.505470 0.0000 0.0000 0.0000
v -0.268147 6.174204 0.505470 0.0000 0.0000 0.0000
v -0.232467 6.167727 0.501303 0.0000 0.0000 0.0000
v -0.232467 6.167727 0.501303 0.0000 0.0000 0.0000
v -0.212616 6.153808 0.529218 0.0000 0.0000 0.0000
v -0.212616 6.153808 0.529218 0.0000 0.0000 0.0000
v -0.228447 6.146365 0.561305 1.0000 1.0000 1.0000
v -0.228447 6.146365 0.561305 0.0000 0.0000 0.0000
v -0.264126 6.152843 0.565473 0.0000 0.0000 0.0000
v -0.264126 6.152843 0.565473 1.0000 1.0000 1.0000
v -0.435887 4.354047 0.304572 0.0000 0.0000 0.0000
v -0.435887 4.354047 0.304572 0.0000 0.0000 0.0000
v -0.435887 4.354047 0.304572 0.0000 0.0000 0.0000
v -0.435887 4.354047 0.304572 0.0000 0.0000 0.0000
v -0.435887 4.354047 0.304572 0.0000 0.0000 0.0000
v -0.410861 4.365392 0.233464 0.0000 0.0000 0.0000
v -0.410861 4.365392 0.233464 0.0000 0.0000 0.0000
v -0.359569 4.338401 0.223803 0.0000 0.0000 0.0000
v -0.359569 4.338401 0.223803 0.0000 0.0000 0.0000
v -0.359569 4.338401 0.223803 0.0000 0.0000 0.0000
v -0.359569 4.338401 0.223803 0.0000 0.0000 0.0000
v -0.359569 4.338401 0.223803 0.0000 0.0000 0.0000
v -0.388692 4.367234 0.347202 0.0000 0.0000 0.0000
v -0.388692 4.367234 0.347202 0.0000 0.0000 0.0000
v -0.388692 4.367234 0.347202 0.0000 0.0000 0.0000
v -0.388692 4.367234 0.347202 1.0000 1.0000 1.0000
v -0.388692 4.367234 0.347202 0.0000 0.0000 0.0000
v -0.388692 4.367234 0.347202 0.0000 0.0000 0.0000
v -3.066132 5.025858 1.941825 1.0000 1.0000 1.0000
v -2.344940 2.849946 1.537221 1.0000 1.0000 1.0000
v -0.931675 6.386511 0.105312 1.0000 1.0000 1.0000
v -0.210485 4.210597 -0.299292 1.0000 1.0000 1.0000
v -2.479939 3.888161 1.989259 1.0000 1.0000 1.0000
v -2.479939 3.888161 1.989259 1.0000 1.0000 1.0000
v -0.468840 5.275506 0.015890 1.0000 1.0000 1.0000
v -0.468840 5.275506 0.015890 1.0000 1.0000 1.0000
v -1.176621 4.860059 1.200644 1.0000 1.0000 1.0000
v -1.176621 4.860059 1.200644 1.0000 1.0000 1.0000
v -2.046654 5.643517 1.198271 1.0000 1.0000 1.0000
v -1.268676 3.503077 0.747817 1.0000 1.0000 1.0000
v 0.407118 9.401114 -0.144222 1.0000 1.0000 1.0000
v -1.017005 9.883896 0.426593 1.0000 1.0000 1.0000
v -0.088508 7.681559 -0.259579 1.0000 1.0000 1.0000
v -1.512633 8.164340 0.311238 1.0000 1.0000 1.0000
v -0.189624 9.592827 0.373283 1.0000 1.0000 1.0000
v -0.189624 9.592827 0.373283 1.0000 1.0000 1.0000
v -0.787461 7.913716 0.146485 1.0000 1.0000 1.0000
v -1.229551 9.038516 0.447520 1.0000 1.0000 1.0000
v 0.185187 8.521363 -0.124305 1.0000 1.0000 1.0000
v -0.424532 8.735085 0.430461 1.0000 1.0000 1.0000
v -1.318751 7.372566 2.504714 1.0000 1.0000 1.0000
v -2.835870 5.182342 2.447407 1.0000 1.0000 1.0000
v 0.371793 5.929164 0.277811 1.0000 1.0000 1.0000
v -1.145324 3.738942 0.220505 1.0000 1.0000 1.0000
v -1.959633 6.045332 2.692780 1.0000 1.0000 1.0000
v -1.959633 6.045332 2.692780 1.0000 1.0000 1.0000
v -0.333908 4.728493 0.347188 1.0000 1.0000 1.0000
v -0.741289 5.291685 1.618469 1.0000 1.0000 1.0000
v -0.508570 6.676247 1.572312 1.0000 1.0000 1.0000
v -1.980652 4.447472 1.458716 1.0000 1.0000 1.0000
v -3.205980 3.143524 0.322088 1.0000 1.0000 1.0000
v -1.798069 1.328261 1.476371 1.0000 1.0000 1.0000
v -1.088860 4.680911 -0.396347 1.0000 1.0000 1.0000
v 0.319048 2.865648 0.757937 1.0000 1.0000 1.0000
v -2.478063 2.336268 1.161511 1.0000 1.0000 1.0000
v -0.373713 3.818233 0.299739 1.0000 1.0000 1.0000
v -1.424071 3.487942 0.837623 1.0000 1.0000 1.0000
v -2.263023 3.882737 0.068134 1.0000 1.0000 1.0000
v -0.800326 2.108485 1.205313 1.0000 1.0000 1.0000
v -0.232231 5.933959 3.774816 1.0000 1.0000 1.0000
v -0.550088 8.015701 -0.475438 1.0000 1.0000 1.0000
v 0.016031 2.640410 2.512647 1.0000 1.0000 1.0000
v -0.301826 4.722153 -1.737606 1.0000 1.0000 1.0000
v -0.904357 7.009793 1.531862 1.0000 1.0000 1.0000
v -0.375146 3.697620 0.333153 1.0000 1.0000 1.0000
v -1.141529 4.947187 1.204293 1.0000 1.0000 1.0000
v -0.274624 4.445365 3.215910 1.0000 1.0000 1.0000
v -0.589499 6.441388 -1.066929 1.0000 1.0000 1.0000
v -2.911030 3.443256 2.208438 1.0000 1.0000 1.0000
v -0.256760 2.135869 2.880989 1.0000 1.0000 1.0000
v -1.765935 4.937654 -0.071264 1.0000 1.0000 1.0000
v 0.888337 3.630267 0.601286 1.0000 1.0000 1.0000
v -1.448908 2.958953 2.704647 1.0000 1.0000 1.0000
v -0.377067 4.360266 0.337534 1.0000 1.0000 1.0000
v -0.993797 4.084733 1.472695 1.0000 1.0000 1.0000
v -2.383058 4.179095 1.227486 1.0000 1.0000 1.0000
v 0.301250 2.911961 1.841819 1.0000 1.0000 1.0000
v 0.859560 6.184531 -1.115611 1.0000 1.0000 1.0000
v -0.028824 7.389914 -0.017966 1.0000 1.0000 1.0000
v -0.064303 4.837775 -0.723202 1.0000 1.0000 1.0000
v -0.952684 6.043160 0.374444 1.0000 1.0000 1.0000
v 0.653827 6.687379 -0.345516 1.0000 1.0000 1.0000
v 0.653827 6.687379 -0.345516 1.0000 1.0000 1.0000
v -0.424982 5.428360 -0.044170 1.0000 1.0000 1.0000
v -0.424982 5.428360 -0.044170 1.0000 1.0000 1.0000
v -0.406550 6.713765 0.248734 1.0000 1.0000 1.0000
v 0.464642 5.481226 -0.839834 1.0000 1.0000 1.0000
v 0.274228 6.012334 -0.027582 1.0000 1.0000 1.0000
v 0.274228 6.012334 -0.027582 1.0000 1.0000 1.0000
v -2.508389 7.273551 1.821052 1.0000 1.0000 1.0000
v -1.676196 9.308397 0.342598 1.0000 1.0000 1.0000
v -0.943445 5.343728 0.654318 1.0000 1.0000 1.0000
v -0.111253 7.378571 -0.824135 1.0000 1.0000 1.0000
v -2.299608 8.290574 0.827242 1.0000 1.0000 1.0000
v -2.299608 8.290574 0.827242 1.0000 1.0000 1.0000
v -0.620930 6.361477 -0.200448 1.0000 1.0000 1.0000
v -1.678079 6.973422 0.131309 1.0000 1.0000 1.0000
v -1.878099 6.386579 1.234724 1.0000 1.0000 1.0000
v -1.006912 8.370867 -0.275424 1.0000 1.0000 1.0000
v -0.773810 8.318320 3.281725 1.0000 1.0000 1.0000
v -1.263982 9.774299 0.977124 1.0000 1.0000 1.0000
v 0.269594 5.972836 1.917457 1.0000 1.0000 1.0000
v -0.220576 7.428815 -0.387143 1.0000 1.0000 1.0000
v -1.284509 8.968651 2.043707 1.0000 1.0000 1.0000
v -0.095774 6.666056 0.725801 1.0000 1.0000 1.0000
v -0.854923 7.420249 1.465328 1.0000 1.0000 1.0000
v -0.381851 7.227108 2.666897 1.0000 1.0000 1.0000
v -0.846659 8.621346 0.326828 1.0000 1.0000 1.0000
v 1.642266 6.687242 0.841015 1.0000 1.0000 1.0000
v 0.599299 8.034528 1.069683 1.0000 1.0000 1.0000
v 0.338530 5.498422 0.294371 1.0000 1.0000 1.0000
v -0.704439 6.845708 0.523039 1.0000 1.0000 1.0000
v 1.105682 7.229033 1.265177 1.0000 1.0000 1.0000
v 1.105682 7.229033 1.265177 1.0000 1.0000 1.0000
v -0.218394 6.149371 0.555144 1.0000 1.0000 1.0000
v -0.218394 6.149371 0.555144 1.0000 1.0000 1.0000
v -0.043348 7.425652 0.904131 1.0000 1.0000 1.0000
v 0.973531 6.054193 0.666261 1.0000 1.0000 1.0000
v 0.426417 6.622329 1.132864 1.0000 1.0000 1.0000
v 0.426417 6.622329 1.132864 1.0000 1.0000 1.0000
v 1.560769 8.908850 1.305795 1.0000 1.0000 1.0000
v 0.547290 9.829204 1.244358 1.0000 1.0000 1.0000
v 0.787200 7.776468 0.989317 1.0000 1.0000 1.0000
v -0.226280 8.696820 0.927880 1.0000 1.0000 1.0000
v 1.039687 9.319612 1.484403 1.0000 1.0000 1.0000
v 1.039687 9.319612 1.484403 1.0000 1.0000 1.0000
v 0.246174 8.239531 1.051611 1.0000 1.0000 1.0000
v 0.161812 9.270994 1.156749 1.0000 1.0000 1.0000
v 1.159740 8.327979 1.212996 1.0000 1.0000 1.0000
v 0.623570 8.764138 1.415222 1.0000 1.0000 1.0000
v 0.128069 9.115340 2.699645 1.0000 1.0000 1.0000
v 0.120163 10.087397 1.092911 1.0000 1.0000 1.0000
v 0.257656 7.289640 1.847514 1.0000 1.0000 1.0000
v 0.249753 8.261695 0.240780 1.0000 1.0000 1.0000
v -0.061210 9.625243 1.839353 1.0000 1.0000 1.0000
v 0.169862 7.786712 1.017992 1.0000 1.0000 1.0000
v -0.136385 8.505986 1.494206 1.0000 1.0000 1.0000
v 0.129586 8.293411 2.316298 1.0000 1.0000 1.0000
v 0.123768 9.218026 0.687423 1.0000 1.0000 1.0000
v 2.707292 7.989814 2.044690 1.0000 1.0000 1.0000
v 1.137204 9.495253 0.767958 1.0000 1.0000 1.0000
v 2.266464 5.823853 0.617925 1.0000 1.0000 1.0000
v 0.696378 7.329291 -0.658806 1.0000 1.0000 1.0000
v 1.689309 8.718478 1.517716 1.0000 1.0000 1.0000
v 1.375647 6.566067 0.029635 1.0000 1.0000 1.0000
v 1.430242 7.308820 0.946953 1.0000 1.0000 1.0000
v 2.454270 6.995061 1.451607 1.0000 1.0000 1.0000
v 0.871501 8.443775 0.138909 1.0000 1.0000 1.0000
v 3.123409 7.123762 -1.229050 1.0000 1.0000 1.0000
v 2.266529 8.436598 0.800600 1.0000 1.0000 1.0000
v 1.506909 5.468403 -1.086064 1.0000 1.0000 1.0000
v 0.650029 6.781238 0.943589 1.0000 1.0000 1.0000
v 2.950285 7.509017 -0.031614 1.0000 1.0000 1.0000
v 2.950285 7.509017 -0.031614 1.0000 1.0000 1.0000
v 1.170470 6.038156 0.067047 1.0000 1.0000 1.0000
v 1.558892 7.557631 0.940148 1.0000 1.0000 1.0000
v 2.384913 6.210613 -1.085488 1.0000 1.0000 1.0000
v 2.236395 6.611626 0.172115 1.0000 1.0000 1.0000
v 2.228714 6.590953 3.528148 1.0000 1.0000 1.0000
v 1.811834 9.330811 1.515752 1.0000 1.0000 1.0000
v 1.433846 4.040447 1.015820 1.0000 1.0000 1.0000
v 1.016966 6.780305 -0.996574 1.0000 1.0000 1.0000
v 1.599132 8.087345 2.575384 1.0000 1.0000 1.0000
v 1.599132 8.087345 2.575384 1.0000 1.0000 1.0000
v 1.034777 5.468274 0.033293 1.0000 1.0000 1.0000
v 0.859241 6.443041 1.428985 1.0000 1.0000 1.0000
v 1.747407 5.457054 2.437721 1.0000 1.0000 1.0000
v 1.307091 8.130959 0.360957 1.0000 1.0000 1.0000
v 2.241809 7.415675 1.909930 1.0000 1.0000 1.0000
v 1.138923 4.152127 4.484896 1.0000 1.0000 1.0000
v 0.827001 4.595370 -1.451664 1.0000 1.0000 1.0000
v -0.275885 1.331825 1.123302 1.0000 1.0000 1.0000
v 2.098113 5.453582 3.258091 1.0000 1.0000 1.0000
v 2.098113 5.453582 3.258091 1.0000 1.0000 1.0000
v 0.459742 2.813346 -0.136086 1.0000 1.0000 1.0000
v 1.752937 3.965742 1.122281 1.0000 1.0000 1.0000
v 1.743003 6.082424 0.393616 1.0000 1.0000 1.0000
v 0.606461 2.744159 2.881162 1.0000 1.0000 1.0000
v 2.795310 3.456163 0.776468 1.0000 1.0000 1.0000
v 2.500902 1.423115 -0.584549 1.0000 1.0000 1.0000
v 0.578633 3.975054 0.658433 1.0000 1.0000 1.0000
v 0.284223 1.942007 -0.702585 0.0000 0.0000 0.0000
v 2.729762 2.721703 -0.171853 1.0000 1.0000 1.0000
v 2.729762 2.721703 -0.171853 1.0000 1.0000 1.0000
v 0.460295 3.030372 -0.180565 1.0000 1.0000 1.0000
v 1.451353 1.750662 -0.734708 1.0000 1.0000 1.0000
v 1.702124 3.795294 0.622409 1.0000 1.0000 1.0000
v 1.660867 3.042366 -0.381155 1.0000 1.0000 1.0000
v -1.535157 3.224324 -2.446228 0.0000 0.0000 0.0000
v -2.253994 1.352732 -1.052953 1.0000 1.0000 1.0000
v 0.084157 4.342937 -0.452368 1.0000 1.0000 1.0000
v -0.634682 2.471346 0.940909 1.0000 1.0000 1.0000
v -2.111795 2.394713 -1.627751 1.0000 1.0000 1.0000
v -0.373713 3.454712 0.299739 1.0000 1.0000 1.0000
v -1.292932 3.321374 -0.562832 1.0000 1.0000 1.0000
v -0.867608 3.777968 -1.528481 0.0000 0.0000 0.0000
v -1.545752 1.936573 -0.082938 1.0000 1.0000 1.0000
v 4.052659 4.850157 0.035811 1.0000 1.0000 1.0000
v 1.692649 6.545280 1.990577 1.0000 1.0000 1.0000
v 1.816096 2.821171 -1.308007 1.0000 1.0000 1.0000
v -0.543914 4.516293 0.646758 1.0000 1.0000 1.0000
v 3.001052 5.286661 1.325292 1.0000 1.0000 1.0000
v 3.001052 5.286661 1.325292 1.0000 1.0000 1.0000
v 0.629448 3.529265 -0.135814 1.0000 1.0000 1.0000
v 0.635298 5.443635 1.450490 1.0000 1.0000 1.0000
v 2.951306 3.706210 -0.529121 1.0000 1.0000 1.0000
v 1.885705 4.155648 0.847163 1.0000 1.0000 1.0000
v 2.908384 2.092675 0.703070 1.0000 1.0000 1.0000
v 2.754037 3.436223 -2.193837 1.0000 1.0000 1.0000
v 0.811436 3.980335 1.489709 1.0000 1.0000 1.0000
v 0.657089 5.323886 -1.407198 1.0000 1.0000 1.0000
v 3.135167 3.079137 -0.581941 1.0000 1.0000 1.0000
v 3.135167 3.079137 -0.581941 1.0000 1.0000 1.0000
v 0.867536 4.831325 0.035739 1.0000 1.0000 1.0000
v 1.833474 4.458035 -1.779452 1.0000 1.0000 1.0000
v 1.947747 3.153788 1.133643 1.0000 1.0000 1.0000
v 2.223694 4.182457 -0.202956 1.0000 1.0000 1.0000
v -3.049568 4.859082 -1.199475 1.0000 1.0000 1.0000
v -2.364645 4.189792 1.419249 1.0000 1.0000 1.0000
v -0.844301 6.141294 -1.523626 1.0000 1.0000 1.0000
v -0.159378 5.472004 1.095097 1.0000 1.0000 1.0000
v -2.769497 4.701374 0.259152 1.0000 1.0000 1.0000
v -0.529893 5.886527 -0.146082 1.0000 1.0000 1.0000
v -1.653885 5.641777 -0.098345 1.0000 1.0000 1.0000
v -2.086076 5.495475 -1.326089 1.0000 1.0000 1.0000
v -1.344506 4.860837 1.284648 1.0000 1.0000 1.0000
v 3.531629 7.507020 0.639447 1.0000 1.0000 1.0000
v 1.870816 8.297330 1.764040 1.0000 1.0000 1.0000
v 2.221786 6.244859 -0.611158 1.0000 1.0000 1.0000
v 0.560973 7.035172 0.513432 1.0000 1.0000 1.0000
v 2.667367 7.738276 1.374635 1.0000 1.0000 1.0000
v 1.375647 6.566067 0.029635 1.0000 1.0000 1.0000
v 2.088889 6.806038 0.682228 1.0000 1.0000 1.0000
v 2.950496 6.882374 0.119632 1.0000 1.0000 1.0000
v 1.255839 7.638618 1.212697 1.0000 1.0000 1.0000
v -0.767485 5.106136 -3.499038 1.0000 1.0000 1.0000
v -2.255918 3.085943 -1.720929 1.0000 1.0000 1.0000
v 0.343297 6.834378 -1.055498 1.0000 1.0000 1.0000
v -1.145139 4.814183 0.722610 1.0000 1.0000 1.0000
v -1.795967 4.234751 -2.565959 0.0000 0.0000 0.0000
v -0.529893 5.886527 -0.146082 1.0000 1.0000 1.0000
v -1.231000 5.547916 -1.353539 0.8902 0.8902 0.8902
v -0.340769 5.944826 -2.407254 1.0000 1.0000 1.0000
v -1.801991 3.970907 -0.565837 1.0000 1.0000 1.0000
v 3.174053 1.981487 0.644083 1.0000 1.0000 1.0000
v 2.338404 0.564410 -1.425495 1.0000 1.0000 1.0000
v 0.880419 3.229751 0.911294 1.0000 1.0000 1.0000
v 0.044770 1.812675 -1.158284 0.0000 0.0000 0.0000
v 2.851138 1.507310 -0.473873 1.0000 1.0000 1.0000
v 0.500799 2.619211 -0.172841 1.0000 1.0000 1.0000
v 1.459039 2.260126 -0.644950 1.0000 1.0000 1.0000
v 1.273423 1.218846 -1.340928 1.0000 1.0000 1.0000
v 2.069473 2.658580 0.732679 1.0000 1.0000 1.0000
v -2.437896 2.854148 2.076570 1.0000 1.0000 1.0000
v -0.484871 1.191785 2.244902 1.0000 1.0000 1.0000
v -1.385624 4.214032 0.220874 1.0000 1.0000 1.0000
v 0.567402 2.551668 0.389206 1.0000 1.0000 1.0000
v -1.419107 2.222808 2.304700 1.0000 1.0000 1.0000
v -0.378925 3.463843 0.371123 1.0000 1.0000 1.0000
v -0.511745 2.982828 1.340026 1.0000 1.0000 1.0000
v 0.042844 1.886456 1.410884 1.0000 1.0000 1.0000
v -1.891437 3.573233 1.210922 1.0000 1.0000 1.0000
v -3.306578 4.312381 -1.095933 1.0000 1.0000 1.0000
v -2.213389 2.223570 0.508665 1.0000 1.0000 1.0000
v -0.938511 6.151486 -0.863633 1.0000 1.0000 1.0000
v 0.154680 4.062672 0.740966 1.0000 1.0000 1.0000
v -2.902523 3.461942 -0.112994 1.0000 1.0000 1.0000
v -0.450208 5.182999 0.029477 1.0000 1.0000 1.0000
v -1.472245 4.447981 0.375272 1.0000 1.0000 1.0000
v -1.125983 3.140419 0.687934 1.0000 1.0000 1.0000
v -2.178466 5.261912 -0.911597 1.0000 1.0000 1.0000
v -1.246414 9.317047 -1.739226 1.0000 1.0000 1.0000
v -1.554746 9.674394 0.592990 1.0000 1.0000 1.0000
v -0.567121 6.764850 -1.347950 1.0000 1.0000 1.0000
v -0.875456 7.122196 0.984263 1.0000 1.0000 1.0000
v -1.189174 9.566895 -0.613947 1.0000 1.0000 1.0000
v -0.627397 6.977747 -0.187106 1.0000 1.0000 1.0000
v -0.652679 8.153029 -0.118958 1.0000 1.0000 1.0000
v -1.168753 8.488650 0.784081 1.0000 1.0000 1.0000
v -0.847649 8.087231 -1.541239 1.0000 1.0000 1.0000
v -0.755709 7.526056 0.127171 1.0000 1.0000 1.0000
v -0.755709 7.526056 0.127171 1.0000 1.0000 1.0000
v -0.596500 9.318801 1.099060 1.0000 1.0000 1.0000
v -0.596500 9.318801 1.099060 1.0000 1.0000 1.0000
v -0.838440 8.419163 0.727780 1.0000 1.0000 1.0000
v -0.838440 8.419163 0.727780 1.0000 1.0000 1.0000
v -0.068885 8.944504 1.377325 1.0000 1.0000 1.0000
v -0.173244 8.024641 1.139983 1.0000 1.0000 1.0000
v -0.609640 9.657335 0.646335 1.0000 1.0000 1.0000
v -0.948782 8.841704 0.055076 1.0000 1.0000 1.0000
v -0.803037 7.733762 -0.133582 1.0000 1.0000 1.0000
v -0.368625 7.161113 0.453655 1.0000 1.0000 1.0000
v -0.820836 8.486134 0.199154 1.0000 1.0000 1.0000
v -0.820836 8.486134 0.199154 1.0000 1.0000 1.0000
v -1.399567 9.571966 0.268019 1.0000 1.0000 1.0000
v -1.399567 9.571966 0.268019 1.0000 1.0000 1.0000
v -1.067129 9.085692 0.333488 1.0000 1.0000 1.0000
v -1.067129 9.085692 0.333488 1.0000 1.0000 1.0000
v -1.180626 9.680285 -0.065143 1.0000 1.0000 1.0000
v -0.810298 9.280426 -0.078886 1.0000 1.0000 1.0000
v -1.681458 9.386671 0.287001 1.0000 1.0000 1.0000
v -1.442849 8.781851 0.409736 1.0000 1.0000 1.0000
v -0.986691 8.379835 0.234690 1.0000 1.0000 1.0000
v -0.584351 8.615708 -0.048203 1.0000 1.0000 1.0000
v -2.995671 7.201358 -1.904231 1.0000 1.0000 1.0000
v -1.882590 9.303990 -0.316564 1.0000 1.0000 1.0000
v -1.315214 5.082978 -0.919584 0.9568 0.9568 0.9568
v -0.202133 7.185609 0.668082 1.0000 1.0000 1.0000
v -0.618242 6.247260 -0.194019 1.0000 1.0000 1.0000
v -2.189592 8.387381 -1.348131 1.0000 1.0000 1.0000
v -2.189592 8.387381 -1.348131 1.0000 1.0000 1.0000
v -1.316357 7.362669 -1.091089 1.0000 1.0000 1.0000
v -2.020215 6.100414 -1.464083 1.0000 1.0000 1.0000
v -0.910547 8.207149 0.121788 1.0000 1.0000 1.0000
v -2.680392 6.118351 2.309062 1.0000 1.0000 1.0000
v -1.097915 8.323884 1.866822 1.0000 1.0000 1.0000
v -1.240450 4.257294 0.306473 1.0000 1.0000 1.0000
v 0.342028 6.462826 -0.135770 1.0000 1.0000 1.0000
v -0.498578 5.495715 -0.039832 1.0000 1.0000 1.0000
v -2.084823 7.400353 1.835418 1.0000 1.0000 1.0000
v -2.084823 7.400353 1.835418 1.0000 1.0000 1.0000
v -1.590335 6.516059 0.776623 1.0000 1.0000 1.0000
v -1.982693 5.169222 1.156558 1.0000 1.0000 1.0000
v -0.402923 7.378328 0.718368 1.0000 1.0000 1.0000
v 1.366803 7.402800 -0.168664 1.0000 1.0000 1.0000
v 1.366803 7.402800 -0.168664 1.0000 1.0000 1.0000
v 2.002023 9.289961 0.377738 1.0000 1.0000 1.0000
v 2.002023 9.289961 0.377738 1.0000 1.0000 1.0000
v 1.634094 8.351884 0.296770 1.0000 1.0000 1.0000
v 1.634094 8.351884 0.296770 1.0000 1.0000 1.0000
v 2.606539 8.955027 0.268696 1.0000 1.0000 1.0000
v 2.430870 8.012919 0.202118 1.0000 1.0000 1.0000
v 1.680954 9.580764 0.023897 1.0000 1.0000 1.0000
v 1.092543 8.702201 -0.166328 1.0000 1.0000 1.0000
v 1.150717 7.582244 -0.347476 1.0000 1.0000 1.0000
v 1.894279 7.079561 -0.150817 1.0000 1.0000 1.0000
v 1.640673 8.686648 -0.280731 1.0000 1.0000 1.0000
v 1.640673 8.686648 -0.280731 1.0000 1.0000 1.0000
v 1.572667 9.686500 -0.303487 1.0000 1.0000 1.0000
v 1.572667 9.686500 -0.303487 1.0000 1.0000 1.0000
v 1.654551 9.216737 -0.215316 1.0000 1.0000 1.0000
v 1.654551 9.216737 -0.215316 1.0000 1.0000 1.0000
v 1.760879 9.647872 -0.563870 1.0000 1.0000 1.0000
v 1.896491 9.217152 -0.541318 1.0000 1.0000 1.0000
v 1.316483 9.671889 -0.287701 1.0000 1.0000 1.0000
v 1.295272 9.161421 -0.151221 1.0000 1.0000 1.0000
v 1.490764 8.681878 -0.252454 1.0000 1.0000 1.0000
v 1.847768 8.662581 -0.474313 1.0000 1.0000 1.0000
v 0.344067 8.741376 1.108976 1.0000 1.0000 1.0000
v 0.344067 8.741376 1.108976 1.0000 1.0000 1.0000
v 0.538402 9.900960 1.064189 1.0000 1.0000 1.0000
v 0.538402 9.900960 1.064189 1.0000 1.0000 1.0000
v 0.370027 9.368690 1.160903 1.0000 1.0000 1.0000
v 0.370027 9.368690 1.160903 1.0000 1.0000 1.0000
v 0.869323 9.779904 1.219113 1.0000 1.0000 1.0000
v 0.794690 9.273023 1.364035 1.0000 1.0000 1.0000
v 0.460916 9.912158 0.771738 1.0000 1.0000 1.0000
v 0.207227 9.353434 0.759188 1.0000 1.0000 1.0000
v 0.277757 8.756563 0.942435 1.0000 1.0000 1.0000
v 0.605847 8.650318 1.301830 1.0000 1.0000 1.0000
v -0.045649 6.829277 0.830117 1.0000 1.0000 1.0000
v -0.045649 6.829277 0.830117 1.0000 1.0000 1.0000
v 0.681108 9.222289 0.055070 1.0000 1.0000 1.0000
v 0.681108 9.222289 0.055070 1.0000 1.0000 1.0000
v 0.558530 8.032763 0.516791 1.0000 1.0000 1.0000
v 0.558530 8.032763 0.516791 1.0000 1.0000 1.0000
v 0.575828 8.797577 -0.716709 1.0000 1.0000 1.0000
v 0.481933 7.602941 -0.497775 1.0000 1.0000 1.0000
v 0.215379 9.591040 0.442588 1.0000 1.0000 1.0000
v -0.057597 8.476980 1.177694 1.0000 1.0000 1.0000
v -0.283930 7.056824 1.094149 1.0000 1.0000 1.0000
v 0.005636 6.419399 0.162834 1.0000 1.0000 1.0000
v 1.616383 7.896248 -2.185401 1.0000 1.0000 1.0000
v 1.270077 9.436311 -0.700261 1.0000 1.0000 1.0000
v 1.414643 6.161080 -0.845313 1.0000 1.0000 1.0000
v 1.068338 7.701142 0.639829 1.0000 1.0000 1.0000
v 1.330660 6.987901 -0.037194 1.0000 1.0000 1.0000
v 1.659272 8.707582 -1.379166 1.0000 1.0000 1.0000
v 1.698931 7.839355 -0.785460 1.0000 1.0000 1.0000
v 1.581371 6.972743 -1.455295 1.0000 1.0000 1.0000
v 1.235343 8.516200 0.027197 1.0000 1.0000 1.0000
v 1.253781 4.580301 4.313190 1.0000 1.0000 1.0000
v 0.318926 1.500674 2.349282 1.0000 1.0000 1.0000
v 0.024513 7.368829 1.527357 1.0000 1.0000 1.0000
v -0.910341 4.289203 -0.436551 1.0000 1.0000 1.0000
v 1.200941 3.101879 3.212946 1.0000 1.0000 1.0000
v 1.200941 3.101879 3.212946 1.0000 1.0000 1.0000
v -0.260650 5.839346 0.480766 1.0000 1.0000 1.0000
v 0.688724 4.418920 1.212011 1.0000 1.0000 1.0000
v -0.141866 2.818723 0.975269 1.0000 1.0000 1.0000
v 0.773391 5.946833 2.889894 1.0000 1.0000 1.0000
v -1.766444 5.242085 -2.227310 0.0000 0.0000 0.0000
v -0.029609 7.374461 -0.107845 1.0000 1.0000 1.0000
v -1.352887 2.718449 -0.608854 1.0000 1.0000 1.0000
v 0.383950 4.850823 1.510613 1.0000 1.0000 1.0000
v -0.654702 6.183021 -1.399725 1.0000 1.0000 1.0000
v -0.364553 3.740049 0.357859 1.0000 1.0000 1.0000
v 0.009007 4.851465 -0.357760 1.0000 1.0000 1.0000
v 0.256296 6.154696 0.603926 1.0000 1.0000 1.0000
v -1.472013 3.978040 -1.488185 1.0000 1.0000 1.0000
v -0.442305 5.423042 -0.023100 1.0000 1.0000 1.0000
v -0.442305 5.423042 -0.023100 1.0000 1.0000 1.0000
v -0.206905 7.200973 -0.893350 1.0000 1.0000 1.0000
v -0.206905 7.200973 -0.893350 1.0000 1.0000 1.0000
v -0.093551 6.395959 -0.384277 1.0000 1.0000 1.0000
v -0.093551 6.395959 -0.384277 1.0000 1.0000 1.0000
v -0.228208 6.650595 -1.506356 1.0000 1.0000 1.0000
v -0.086846 5.784513 -1.200544 1.0000 1.0000 1.0000
v -0.726404 7.467424 -0.627640 1.0000 1.0000 1.0000
v -0.771985 6.754790 0.097121 1.0000 1.0000 1.0000
v -0.715453 5.606095 0.164355 1.0000 1.0000 1.0000
v -0.315229 4.949902 -0.541556 1.0000 1.0000 1.0000
v 1.919811 7.636146 1.356099 1.0000 1.0000 1.0000
v 0.852898 9.115698 1.464169 1.0000 1.0000 1.0000
v 0.657256 6.503137 0.849798 1.0000 1.0000 1.0000
v -0.409655 7.982687 0.957867 1.0000 1.0000 1.0000
v 0.074926 7.269378 0.988306 1.0000 1.0000 1.0000
v 1.336669 8.353502 1.590947 1.0000 1.0000 1.0000
v 0.766909 7.736770 1.446156 1.0000 1.0000 1.0000
v 1.233525 7.014297 1.144013 1.0000 1.0000 1.0000
v 0.169106 8.496094 1.252982 1.0000 1.0000 1.0000
v 1.081979 5.731058 0.036175 1.0000 1.0000 1.0000
v 1.081979 5.731058 0.036175 1.0000 1.0000 1.0000
v 0.981615 7.827261 -2.109091 1.0000 1.0000 1.0000
v 0.981615 7.827261 -2.109091 1.0000 1.0000 1.0000
v 1.216953 6.611637 -1.267787 1.0000 1.0000 1.0000
v 1.216953 6.611637 -1.267787 1.0000 1.0000 1.0000
v -0.097405 7.453877 -2.131093 1.0000 1.0000 1.0000
v -0.147459 6.216192 -1.419140 1.0000 1.0000 1.0000
v 1.358973 8.558557 -1.607806 1.0000 1.0000 1.0000
v 1.886251 7.528999 -0.524131 1.0000 1.0000 1.0000
v 1.364148 6.146435 0.303002 1.0000 1.0000 1.0000
v 0.194175 5.258998 -0.117377 1.0000 1.0000 1.0000
v -1.079169 7.979888 -1.255471 1.0000 1.0000 1.0000
v 1.262069 9.839134 0.544285 1.0000 1.0000 1.0000
v 0.055094 5.462848 -0.726434 1.0000 1.0000 1.0000
v 2.396329 7.322095 1.073321 1.0000 1.0000 1.0000
v 0.218675 8.911000 -0.680413 1.0000 1.0000 1.0000
v 1.296528 6.403674 0.036690 1.0000 1.0000 1.0000
v 1.293016 7.651755 -0.401830 1.0000 1.0000 1.0000
v 1.858293 8.660013 0.707724 1.0000 1.0000 1.0000
v -0.462333 6.757157 -1.084114 1.0000 1.0000 1.0000
v 3.285685 4.890321 2.043235 1.0000 1.0000 1.0000
v 1.393383 7.277589 1.545928 1.0000 1.0000 1.0000
v 1.735336 2.760189 0.059525 1.0000 1.0000 1.0000
v -0.156968 5.147456 -0.437779 1.0000 1.0000 1.0000
v 2.208221 5.908120 2.056782 1.0000 1.0000 1.0000
v 0.719060 3.887795 -0.073326 1.0000 1.0000 1.0000
v 0.940140 4.801659 1.027738 1.0000 1.0000 1.0000
v 0.601990 6.230677 0.682964 1.0000 1.0000 1.0000
v 2.466469 3.805779 1.146881 1.0000 1.0000 1.0000
v 0.921722 4.897368 0.024424 1.0000 1.0000 1.0000
v 0.921722 4.897368 0.024424 1.0000 1.0000 1.0000
v 2.364071 7.224098 -1.586789 1.0000 1.0000 1.0000
v 2.364071 7.224098 -1.586789 1.0000 1.0000 1.0000
v 1.954188 6.131400 -0.579382 1.0000 1.0000 1.0000
v 1.954188 6.131400 -0.579382 1.0000 1.0000 1.0000
v 2.358343 6.376263 -2.279299 1.0000 1.0000 1.0000
v 2.045185 5.164402 -1.519166 1.0000 1.0000 1.0000
v 1.677190 7.761011 -1.580949 1.0000 1.0000 1.0000
v 1.005114 6.865335 -0.389341 1.0000 1.0000 1.0000
v 0.558850 5.246241 0.080510 1.0000 1.0000 1.0000
v 1.106053 4.133811 -0.480504 1.0000 1.0000 1.0000
v 0.364784 5.359938 -3.801746 1.0000 1.0000 1.0000
v 2.858084 7.356301 -1.380410 1.0000 1.0000 1.0000
v -0.604159 2.861470 -1.215957 0.0000 0.0000 0.0000
v 1.889142 4.857831 1.205378 1.0000 1.0000 1.0000
v 1.783365 6.077696 -2.746295 1.0000 1.0000 1.0000
v 0.734393 3.744093 -0.061797 1.0000 1.0000 1.0000
v 1.663180 4.617753 -1.028574 1.0000 1.0000 1.0000
v 2.471686 6.098866 -0.183292 1.0000 1.0000 1.0000
v -0.037403 4.057931 -2.560037 1.0000 1.0000 1.0000
v -0.454297 6.957830 -1.835701 1.0000 1.0000 1.0000
v 0.309371 7.435693 1.873442 1.0000 1.0000 1.0000
v -0.860615 4.485283 -1.506474 0.9411 0.9411 0.9411
v -0.096946 4.963147 2.202672 1.0000 1.0000 1.0000
v 0.242693 7.119367 -0.136163 1.0000 1.0000 1.0000
v -0.331881 4.691907 0.298970 1.0000 1.0000 1.0000
v 0.354106 5.647369 0.403655 1.0000 1.0000 1.0000
v 0.221175 6.242198 2.010139 1.0000 1.0000 1.0000
v -0.548023 5.720976 -1.693563 1.0000 1.0000 1.0000
v 0.844398 7.146531 -1.841311 1.0000 1.0000 1.0000
v 0.882921 7.146768 1.898275 1.0000 1.0000 1.0000
v 0.727709 4.746247 -1.839990 1.0000 1.0000 1.0000
v 0.766230 4.746484 1.899596 1.0000 1.0000 1.0000
v 1.203317 7.141813 -0.068504 1.0000 1.0000 1.0000
v 0.900845 4.744178 0.007106 1.0000 1.0000 1.0000
v 1.414882 5.711200 0.327441 1.0000 1.0000 1.0000
v 0.934124 6.006521 1.897804 1.0000 1.0000 1.0000
v 0.895145 5.964463 -1.841776 1.0000 1.0000 1.0000
v -3.291811 7.882329 -0.048629 1.0000 1.0000 1.0000
v 1.490867 6.210059 -3.985966 1.0000 1.0000 1.0000
v -2.523330 3.601710 2.286416 1.0000 1.0000 1.0000
v 2.259347 1.929441 -1.650920 1.0000 1.0000 1.0000
v -1.366060 6.800034 -2.244925 1.0000 1.0000 1.0000
v -0.315536 2.644742 0.192470 1.0000 1.0000 1.0000
v -0.681481 3.843652 -1.541034 0.0000 0.0000 0.0000
v 1.747190 4.089174 -2.980184 1.0000 1.0000 1.0000
v -3.023707 5.685570 0.996306 1.0000 1.0000 1.0000
v 2.265764 3.425628 -2.033643 1.0000 1.0000 1.0000
v 0.685018 1.639843 -2.244943 1.0000 1.0000 1.0000
v 1.409378 4.105250 -0.054926 1.0000 1.0000 1.0000
v -0.171367 2.319463 -0.266225 1.0000 1.0000 1.0000
v 1.395622 2.729288 -2.231431 1.0000 1.0000 1.0000
v 0.573965 3.291163 -0.203456 1.0000 1.0000 1.0000
v 0.621410 3.066647 -1.156958 0.2588 0.2588 0.2588
v 0.241417 2.009792 -1.336684 0.0000 0.0000 0.0000
v 1.806698 3.808115 -1.091377 1.0000 1.0000 1.0000
v -1.177256 2.078201 -2.161458 1.0000 1.0000 1.0000
v -2.219573 1.020207 -0.229675 1.0000 1.0000 1.0000
v 0.264675 3.543775 -0.764664 1.0000 1.0000 1.0000
v -0.777646 2.485780 1.167118 1.0000 1.0000 1.0000
v -0.371625 3.079931 0.261400 1.0000 1.0000 1.0000
v -1.895919 1.751083 -1.168210 1.0000 1.0000 1.0000
v -1.274915 2.601898 -0.589172 1.0000 1.0000 1.0000
v -0.464800 2.934793 -1.415381 0.0000 0.0000 0.0000
v -1.509852 1.873811 0.513666 1.0000 1.0000 1.0000
v 0.916765 4.610992 -0.067628 1.0000 1.0000 1.0000
v 0.512239 3.724011 -2.736543 1.0000 1.0000 1.0000
v 0.512239 3.724011 -2.736543 1.0000 1.0000 1.0000
v 0.762644 4.367941 -1.512414 1.0000 1.0000 1.0000
v 1.392436 3.148123 -2.599924 1.0000 1.0000 1.0000
v 1.872648 3.610837 -1.473680 1.0000 1.0000 1.0000
v -0.275894 3.664568 -2.652910 1.0000 1.0000 1.0000
v -0.383700 4.423456 -1.312518 1.0000 1.0000 1.0000
v 0.432540 4.623625 -0.033845 1.0000 1.0000 1.0000
v 1.772784 4.208741 0.008719 1.0000 1.0000 1.0000
v 1.296699 6.613667 -3.186876 1.0000 1.0000 1.0000
v 1.796235 4.323154 -2.115779 1.0000 1.0000 1.0000
v -0.768084 7.546744 -0.685659 1.0000 1.0000 1.0000
v -0.268548 5.256230 0.385439 1.0000 1.0000 1.0000
v -0.618242 6.247260 -0.194019 1.0000 1.0000 1.0000
v 1.298263 5.252772 -2.806964 1.0000 1.0000 1.0000
v 1.298263 5.252772 -2.806964 1.0000 1.0000 1.0000
v 0.167144 5.684631 -1.766580 1.0000 1.0000 1.0000
v 0.107197 7.054605 -1.905198 1.0000 1.0000 1.0000
v 0.610914 4.762353 -0.838916 1.0000 1.0000 1.0000
v -0.349199 3.490482 -2.875698 1.0000 1.0000 1.0000
v -1.278755 5.622185 -1.827541 0.2745 0.2745 0.2745
v -0.020729 1.994760 -0.239323 0.9607 0.9607 0.9607
v -0.950283 4.126463 0.808835 1.0000 1.0000 1.0000
v -0.543903 4.631266 -2.359938 1.0000 1.0000 1.0000
v -0.368591 3.106586 0.286927 1.0000 1.0000 1.0000
v -0.246988 4.073307 -0.666809 1.0000 1.0000 1.0000
v -1.045699 4.952703 -0.571206 1.0000 1.0000 1.0000
v -0.109283 2.795546 -1.573372 0.0000 0.0000 0.0000
vn -0.5846 0.1981 0.7868
vn -0.5335 0.2415 0.8106
vn -0.5326 0.2422 0.8110
vn -0.5847 0.1981 0.7867
vn -0.6990 0.1247 -0.7042
vn -0.8424 0.0453 -0.5370
vn -0.8335 0.0512 -0.5501
vn 0.2249 -0.1125 -0.9679
vn 0.2134 -0.1900 -0.9583
vn 0.2139 -0.1869 -0.9588
vn 0.9736 -0.2163 0.0732
vn 0.9874 -0.1417 0.0711
vn 0.9877 -0.1391 0.0709
vn 0.7037 -0.1067 0.7024
vn 0.7315 0.0062 0.6819
vn 0.7330 0.0141 0.6800
vn -0.3478 0.2268 0.9097
vn -0.3489 0.2273 0.9092
vn -0.9236 -0.0655 -0.3777
vn -0.9244 -0.0626 -0.3762
vn 0.3817 -0.1944 -0.9036
vn 0.3826 -0.1940 -0.9033
vn 0.9910 0.0282 0.1309
vn 0.9917 0.0319 0.1242
vn 0.7499 0.1274 0.6492
vn -0.0698 0.1252 0.9897
vn -0.0639 0.1235 0.9903
vn -0.9535 0.0040 0.3013
vn -0.9375 0.2056 0.2809
vn -0.9391 0.1963 0.2822
vn -0.8161 0.0565 -0.5752
vn -0.8258 0.0442 -0.5622
vn 0.5094 -0.1864 -0.8401
vn 0.5094 -0.1863 -0.8401
vn 0.7384 -0.0159 0.6741
vn 0.7311 -0.0036 0.6823
vn 0.7384 -0.0156 0.6742
vn 0.1292 0.0196 0.9914
vn 0.1544 -0.0081 0.9880
vn -0.8573 0.2572 0.4459
vn -0.8559 0.2539 0.4505
vn -0.6803 0.1894 -0.7080
vn -0.6803 0.1898 -0.7079
vn 0.3724 -0.1120 -0.9213
vn 0.3809 -0.1236 -0.9163
vn 0.9059 -0.3350 0.2589
vn 0.9492 -0.2490 0.1925
vn 0.9427 -0.2639 0.2040
vn 0.6834 -0.1855 0.7061
vn 0.6116 -0.2442 0.7525
vn -0.7965 0.1450 0.5870
vn -0.7976 0.1472 0.5849
vn -0.6560 0.2821 -0.7001
vn -0.6555 0.2833 -0.7000
vn 0.1162 0.1262 -0.9852
vn 0.1280 0.1184 -0.9847
vn 0.9759 -0.2176 0.0190
vn 0.9762 -0.2154 0.0260
vn 0.6129 -0.2611 0.7458
vn -0.3011 -0.1204 0.9460
vn -0.1027 -0.0500 0.9935
vn -0.0913 -0.0459 0.9948
vn -0.8948 0.1712 0.4123
vn -0.8972 0.1709 0.4072
vn -0.6234 0.3811 -0.6827
vn -0.0340 0.0990 -0.9945
vn -0.0335 0.1056 -0.9938
vn 0.9656 -0.1925 -0.1749
vn 0.9657 -0.1949 -0.1717
vn 0.6605 -0.2133 0.7199
vn 0.6642 -0.2015 0.7199
vn 0.0802 0.0207 0.9966
vn 0.0803 0.0207 0.9966
vn -0.9813 0.0894 0.1706
vn -0.9812 0.0895 0.1708
vn -0.6976 0.0773 -0.7123
vn -0.6987 0.0677 -0.7122
vn -0.6987 0.0680 -0.7122
vn -0.0021 -0.0011 -1.0000
vn -0.0031 -0.0014 -1.0000
vn 0.9644 -0.0767 -0.2529
vn 0.9644 -0.0770 -0.2531
vn 0.7026 -0.0517 0.7097
vn -0.0996 0.1206 0.9877
vn -0.0942 0.1172 0.9886
vn -0.9869 0.1349 0.0884
vn -0.9875 0.1308 0.0884
vn -0.6997 0.0582 -0.7120
vn 0.0394 -0.0660 -0.9970
vn 0.0400 -0.0728 -0.9965
vn 0.9585 -0.1312 -0.2531
vn 0.9588 -0.1287 -0.2533
vn 0.7012 -0.0433 0.7116
vn 0.7033 -0.0325 0.7101
vn 0.7032 -0.0333 0.7102
vn -0.2514 0.2172 0.9432
vn -0.9662 0.2419 0.0885
vn -0.9663 0.2419 0.0885
vn -0.7065 0.0406 -0.7066
vn 0.0438 -0.1463 -0.9883
vn 0.9386 -0.2376 -0.2501
vn 0.7051 -0.0230 0.7087
vn -0.3857 0.0558 -0.9209
vn -0.4595 0.1807 -0.8696
vn -0.4652 0.1910 -0.8644
vn 0.9471 0.1113 -0.3009
vn 0.8798 0.2777 -0.3859
vn 0.8629 0.3083 -0.4004
vn 0.7132 -0.0006 0.7009
vn 0.7438 -0.0899 0.6623
vn 0.7364 -0.0663 0.6733
vn 0.1736 -0.0615 0.9829
vn -0.8789 -0.1072 0.4648
vn -0.7989 -0.2915 0.5261
vn -0.7940 -0.3004 0.5286
vn -0.8790 -0.1072 0.4647
vn -0.9736 -0.0547 -0.2218
vn -0.9346 -0.0038 -0.3556
vn -0.9289 0.0020 -0.3703
vn -0.4746 0.2322 -0.8490
vn -0.4605 0.2120 -0.8620
vn 0.7527 0.4633 -0.4678
vn 0.7526 0.4633 -0.4678
vn 0.7511 -0.1244 0.6484
vn 0.7558 -0.1264 0.6425
vn -0.6782 -0.4696 0.5652
vn -0.8783 0.0973 -0.4681
vn -0.8786 0.0987 -0.4673
vn -0.3540 -0.0113 -0.9352
vn -0.6143 -0.0199 -0.7888
vn 0.7908 -0.0412 -0.6107
vn 0.8079 0.0266 -0.5888
vn 0.8080 0.0271 -0.5886
vn 0.7909 -0.0397 -0.6106
vn 0.5083 0.0415 0.8602
vn 0.5005 0.0441 0.8646
vn -0.6577 0.0199 0.7530
vn -0.7098 -0.0143 0.7042
vn -0.7088 -0.0135 0.7053
vn -0.8128 -0.0239 -0.5821
vn -0.7557 -0.2137 -0.6191
vn 0.7934 -0.0094 -0.6086
vn 0.7920 -0.0138 -0.6104
vn 0.9622 0.2054 0.1787
vn 0.9653 0.1848 0.1844
vn 0.9655 0.1833 0.1847
vn 0.3986 0.2624 0.8788
vn 0.3959 0.2653 0.8791
vn -0.7577 0.0504 0.6507
vn -0.7576 0.0547 0.6505
vn -0.7518 -0.2115 -0.6246
vn -0.2867 -0.3023 -0.9091
vn -0.2631 -0.1824 -0.9474
vn -0.2627 -0.1804 -0.9479
vn 0.7542 -0.1157 -0.6464
vn 0.9681 0.1631 0.1904
vn 0.3357 0.3289 0.8827
vn -0.7520 0.1508 0.6417
vn -0.9146 -0.1139 -0.3880
vn -0.9101 -0.1201 -0.3966
vn 0.1094 0.0254 -0.9937
vn -0.2024 0.0249 -0.9790
vn 0.5446 -0.0637 -0.8363
vn 0.4200 0.0288 -0.9071
vn 0.1095 0.0254 -0.9937
vn 0.9752 0.0249 0.2199
vn 0.9749 0.0418 0.2187
vn 0.9749 0.0417 0.2187
vn 0.2459 0.0763 0.9663
vn -0.0956 -0.0194 0.9952
vn 0.2145 0.0007 0.9767
vn -0.5033 0.0568 0.8622
vn -0.3906 -0.0319 0.9200
vn -0.0958 -0.0194 0.9952
vn -0.5035 0.0568 0.8622
vn -0.9756 -0.0144 -0.2189
vn -0.9757 -0.0146 -0.2187
vn 0.3411 0.1344 -0.9304
vn 0.3470 0.1342 -0.9282
vn 0.9715 0.0853 0.2213
vn 0.9716 0.0842 0.2212
vn -0.2750 -0.1048 0.9557
vn -0.2871 -0.1053 0.9521
vn -0.9740 -0.0606 -0.2183
vn -0.9739 -0.0617 -0.2184
vn -0.3041 0.0466 -0.9515
vn -0.2707 0.0995 -0.9575
vn -0.2711 0.0989 -0.9574
vn 0.5388 0.1786 -0.8233
vn 0.5399 0.1789 -0.8225
vn 0.9831 0.1210 0.1371
vn 0.9835 0.1214 0.1339
vn -0.0770 -0.1226 0.9895
vn 0.1933 -0.0994 0.9761
vn -0.3532 -0.1294 0.9266
vn -0.9869 -0.0839 -0.1375
vn -0.9868 -0.0840 -0.1384
vn -0.2380 0.1498 -0.9596
vn -0.2380 0.1497 -0.9597
vn 0.6594 0.2033 -0.7238
vn 0.9904 0.1305 0.0450
vn 0.2302 -0.1555 0.9606
vn -0.4024 -0.1684 0.8999
vn -0.4024 -0.1684 0.8998
vn -0.9955 -0.0773 -0.0544
vn -0.9228 0.1488 0.3554
vn -0.9074 0.1180 0.4033
vn -0.9072 0.1176 0.4040
vn -0.8841 0.2073 -0.4189
vn -0.8778 0.2869 -0.3836
vn -0.8736 0.3171 -0.3692
vn -0.2726 0.1363 -0.9524
vn -0.1327 0.2744 -0.9524
vn -0.1486 0.2594 -0.9543
vn -0.2727 0.1363 -0.9524
vn 0.9303 -0.1377 -0.3399
vn 0.8803 -0.0602 -0.4706
vn 0.8864 -0.0681 -0.4579
vn 0.9303 -0.1377 -0.3400
vn 0.9501 -0.1925 0.2455
vn 0.9233 -0.2763 0.2668
vn 0.9236 -0.2754 0.2666
vn 0.1111 -0.0938 0.9894
vn 0.0757 -0.2324 0.9697
vn 0.0730 -0.2421 0.9675
vn -0.8214 0.0316 0.5695
vn -0.8124 0.0252 0.5826
vn -0.9023 0.2630 -0.3417
vn -0.9044 0.2550 -0.3421
vn -0.0523 0.2711 -0.9611
vn -0.0503 0.2762 -0.9598
vn 0.7706 0.0347 -0.6364
vn 0.7752 0.0323 -0.6309
vn 0.9264 -0.2243 0.3025
vn 0.9249 -0.2311 0.3018
vn 0.1274 -0.2609 0.9569
vn 0.1321 -0.2548 0.9579
vn -0.7247 -0.0306 0.6884
vn -0.9301 0.1239 -0.3457
vn -0.0964 0.1556 -0.9831
vn 0.7240 0.0571 -0.6875
vn 0.7239 0.0571 -0.6875
vn 0.9448 -0.0957 0.3133
vn 0.2196 -0.1360 0.9661
vn 0.2359 0.9666 0.1005
vn 0.2360 0.9665 0.1008
vn -0.1277 0.9908 -0.0452
vn -0.1278 0.9908 -0.0452
vn -0.1276 0.9908 -0.0452
vn 0.2928 0.9523 -0.0862
vn 0.2929 0.9522 -0.0866
vn 0.2930 0.9522 -0.0859
vn 0.2929 0.9523 -0.0859
vn 0.3709 0.3039 0.8775
vn 0.5089 0.3597 0.7821
vn 0.4792 0.3480 0.8058
vn 0.8080 -0.1270 0.5754
vn 0.7483 -0.1827 0.6377
vn 0.7209 -0.2055 0.6619
vn 0.6080 0.3962 0.6880
vn 0.6502 -0.2583 0.7145
vn 0.6330 -0.1323 0.7627
vn 0.6332 -0.1326 0.7626
vn 0.3120 -0.1904 0.9308
vn 0.5485 -0.2654 0.7929
vn 0.2535 -0.3249 0.9111
vn 0.0408 -0.1028 0.9939
vn 0.0247 -0.2494 0.9681
vn 0.4603 -0.3790 0.8028
vn 0.0546 0.0312 0.9980
vn 0.0545 0.0315 0.9980
vn 0.6428 -0.1422 0.7527
vn 0.6429 -0.1421 0.7526
vn 0.6133 -0.4219 0.6677
vn 0.7117 -0.1927 0.6755
vn 0.6521 -0.4932 0.5758
vn 0.4095 -0.6168 0.6722
vn 0.4990 -0.6479 0.5755
vn 0.8000 -0.2664 0.5376
vn 0.3256 -0.5806 0.7462
vn -0.3280 0.5753 0.7493
vn -0.1364 0.4196 0.8974
vn -0.0480 0.5449 0.8371
vn -0.2124 0.6494 0.7302
vn 0.0742 0.5802 0.8111
vn 0.0885 0.3428 0.9352
vn 0.1911 0.4218 0.8863
vn -0.0593 0.7256 0.6855
vn 0.0132 0.2815 0.9595
vn -0.9415 -0.0100 0.3369
vn -0.9964 0.0631 0.0561
vn -0.9880 -0.1489 0.0410
vn -0.9504 -0.1912 0.2454
vn -0.9526 -0.2946 -0.0760
vn -0.9805 -0.0272 -0.1947
vn -0.9455 -0.2036 -0.2543
vn -0.9139 -0.3840 0.1315
vn -0.9834 0.1110 -0.1434
vn -0.0109 0.7676 0.6409
vn 0.2004 0.7046 0.6807
vn 0.2137 0.7925 0.5712
vn 0.0430 0.8290 0.5576
vn 0.2840 0.8235 0.4911
vn 0.3864 0.6828 0.6201
vn 0.4212 0.7408 0.5233
vn 0.1131 0.8926 0.4365
vn 0.3563 0.6320 0.6882
vn 0.8582 -0.3041 0.4136
vn 0.7474 -0.4174 0.5169
vn 0.7237 -0.4367 0.5344
vn 0.2991 -0.2161 0.9294
vn 0.3981 -0.0630 0.9152
vn 0.4080 -0.0462 0.9118
vn 0.5818 -0.5320 0.6152
vn 0.4883 0.1014 0.8668
vn -0.8809 -0.2771 -0.3836
vn -0.7041 -0.2426 -0.6674
vn -0.7938 -0.3769 -0.4774
vn -0.5937 -0.3098 -0.7427
vn -0.5898 -0.0124 -0.8075
vn -0.4923 -0.1267 -0.8611
vn -0.6631 -0.4825 -0.5723
vn -0.6499 0.0690 -0.7569
vn -0.8953 -0.3822 0.2289
vn -0.9568 -0.2901 -0.0191
vn -0.9004 -0.4327 -0.0457
vn -0.8612 -0.4843 0.1544
vn -0.8530 -0.5050 -0.1316
vn -0.9261 -0.2877 -0.2441
vn -0.8687 -0.3947 -0.2993
vn -0.7969 -0.6015 0.0564
vn -0.9570 -0.2082 -0.2020
vn 0.2303 -0.4619 0.8565
vn 0.2302 -0.4624 0.8563
vn 0.0703 -0.5292 0.8456
vn 0.0411 -0.5395 0.8410
vn -0.4933 -0.1658 0.8539
vn -0.3991 -0.0488 0.9156
vn -0.3875 -0.0352 0.9212
vn -0.1215 -0.5874 0.8001
vn -0.2867 0.0777 0.9549
vn -0.2867 0.0778 0.9549
vn 0.1495 -0.2440 0.9582
vn 0.1496 -0.2441 0.9581
vn -0.2078 -0.1733 0.9627
vn 0.0029 -0.3386 0.9409
vn -0.3026 -0.2831 0.9101
vn -0.4181 0.0084 0.9083
vn -0.4857 -0.1279 0.8647
vn -0.1201 -0.4098 0.9042
vn -0.3530 0.1238 0.9274
vn -0.3530 0.1235 0.9274
vn -0.9694 -0.0535 0.2397
vn -0.9991 0.0411 -0.0109
vn -0.9941 -0.1049 -0.0281
vn -0.9724 -0.1594 0.1701
vn -0.9759 -0.1917 -0.1040
vn -0.9728 0.0240 -0.2302
vn -0.9564 -0.0946 -0.2762
vn -0.9549 -0.2856 0.0818
vn -0.9748 0.1087 -0.1949
vn -0.5405 -0.2705 0.7966
vn -0.7401 -0.1595 0.6533
vn -0.7364 -0.3035 0.6047
vn -0.5823 -0.3711 0.7233
vn -0.7697 -0.3771 0.5151
vn -0.8685 -0.1503 0.4723
vn -0.8796 -0.2594 0.3987
vn -0.6197 -0.4855 0.6166
vn -0.8516 -0.0716 0.5193
vn 0.7738 -0.5667 0.2828
vn 0.7739 -0.5666 0.2829
vn 0.5679 -0.5684 0.5953
vn 0.6389 -0.6827 0.3546
vn 0.4228 -0.6694 0.6109
vn 0.4470 -0.4037 0.7982
vn 0.3236 -0.5322 0.7823
vn 0.4963 -0.7661 0.4083
vn 0.5428 -0.2815 0.7913
vn -0.8327 -0.0757 0.5486
vn -0.9704 -0.0081 0.2414
vn -0.8884 -0.1670 0.4276
vn -0.9902 -0.0814 0.1139
vn -0.9725 0.2261 0.0560
vn -0.9930 0.1077 -0.0495
vn -0.9241 -0.2677 0.2726
vn -0.9427 0.3071 0.1304
vn 0.9837 -0.1062 -0.1453
vn 0.9128 -0.3866 -0.1316
vn 0.9540 -0.1772 -0.2419
vn 0.8530 -0.4812 -0.2023
vn 0.8296 -0.5539 0.0710
vn 0.7911 -0.6094 -0.0524
vn 0.8786 -0.2825 -0.3851
vn 0.8503 -0.4935 0.1826
vn 0.3248 0.7438 -0.5841
vn 0.3251 0.7435 -0.5844
vn 0.1303 0.5503 -0.8247
vn 0.1503 0.7514 -0.6425
vn -0.0420 0.5558 -0.8303
vn 0.0903 0.2985 -0.9501
vn -0.0649 0.3538 -0.9331
vn -0.0158 0.7360 -0.6768
vn 0.2332 0.2394 -0.9425
vn -0.7443 0.6650 0.0615
vn -0.8341 0.4835 0.2655
vn -0.7383 0.5826 0.3398
vn -0.6834 0.7119 0.1618
vn -0.6744 0.5924 0.4408
vn -0.8041 0.3618 0.4718
vn -0.7215 0.4179 0.5521
vn -0.5848 0.7569 0.2918
vn -0.8565 0.3166 0.4077
vn 0.4371 -0.6905 0.5763
vn 0.4371 -0.6903 0.5766
vn 0.1218 -0.6815 0.7216
vn 0.2927 -0.7801 0.5530
vn -0.0021 -0.7555 0.6552
vn -0.0637 -0.5299 0.8457
vn -0.1563 -0.6299 0.7608
vn 0.1518 -0.8425 0.5169
vn 0.0192 -0.4303 0.9025
vn 0.7408 0.4564 0.4929
vn 0.6666 0.6923 0.2762
vn 0.6443 0.5690 0.5111
vn 0.5401 0.7822 0.3106
vn 0.6455 0.7631 0.0311
vn 0.5294 0.8414 0.1087
vn 0.5239 0.6763 0.5179
vn 0.7473 0.6626 -0.0493
vn -0.5737 0.8042 0.1555
vn -0.5101 0.7831 0.3557
vn -0.4077 0.8625 0.2997
vn -0.4762 0.8668 0.1482
vn -0.3033 0.8992 0.3154
vn -0.3684 0.7935 0.4843
vn -0.2677 0.8488 0.4560
vn -0.3367 0.9318 0.1353
vn -0.4443 0.7421 0.5019
vn 0.3701 -0.7265 0.5790
vn 0.1383 -0.6713 0.7282
vn 0.0839 -0.7864 0.6120
vn 0.2830 -0.8110 0.5120
vn -0.0261 -0.8336 0.5517
vn -0.1082 -0.6594 0.7440
vn -0.1824 -0.7376 0.6502
vn 0.1575 -0.8999 0.4066
vn -0.0506 -0.5913 0.8049
vn -0.7165 0.6363 -0.2858
vn -0.8591 0.5023 -0.0981
vn -0.7868 0.6170 -0.0160
vn -0.6859 0.7058 -0.1771
vn -0.7546 0.6485 0.1002
vn -0.8924 0.4355 0.1184
vn -0.8347 0.5074 0.2139
vn -0.6288 0.7769 -0.0326
vn -0.9246 0.3779 0.0471
vn 0.4569 0.7725 -0.4410
vn 0.4082 0.6758 -0.6137
vn 0.2559 0.7250 -0.6394
vn 0.3588 0.8191 -0.4476
vn 0.1662 0.7911 -0.5887
vn 0.2272 0.5885 -0.7759
vn 0.0632 0.6596 -0.7490
vn 0.2373 0.8616 -0.4486
vn 0.3315 0.5309 -0.7799
vn 0.2296 0.6596 0.7157
vn 0.3867 0.5419 0.7462
vn 0.4897 0.5935 0.6387
vn 0.2920 0.7086 0.6423
vn 0.4997 0.6702 0.5487
vn 0.6002 0.4443 0.6651
vn 0.6710 0.5247 0.5238
vn 0.3595 0.7544 0.5492
vn 0.5443 0.3848 0.7454
vn -0.5596 0.5136 0.6504
vn -0.4845 0.3625 0.7962
vn -0.3402 0.4240 0.8394
vn -0.4658 0.5677 0.6788
vn -0.2651 0.5157 0.8147
vn -0.2845 0.2450 0.9268
vn -0.1281 0.3424 0.9308
vn -0.3531 0.6201 0.7005
vn -0.3770 0.1801 0.9085
vn 0.9449 0.3000 -0.1307
vn 0.9355 0.3479 0.0621
vn 0.9651 0.2288 0.1275
vn 0.9707 0.2180 -0.1009
vn 0.9866 0.1274 0.1022
vn 0.9100 0.2864 0.2999
vn 0.9395 0.1341 0.3151
vn 0.9909 0.1181 -0.0644
vn 0.8770 0.3865 0.2853
vn -0.9874 -0.1410 0.0716
vn -0.9881 0.0196 0.1525
vn -0.9853 0.0449 0.1649
vn -0.6486 -0.2870 0.7049
vn -0.5701 -0.1610 0.8056
vn -0.6400 -0.2719 0.7186
vn -0.9532 0.1915 0.2341
vn -0.7010 -0.3917 0.5960
vn 0.2749 -0.1025 0.9560
vn 0.1306 0.0537 0.9900
vn 0.1523 0.0308 0.9879
vn 0.6742 0.3814 0.6324
vn 0.6096 0.5184 0.5997
vn 0.6796 0.3677 0.6348
vn 0.0117 0.1759 0.9843
vn 0.7271 0.2182 0.6509
vn 0.8358 0.2067 -0.5086
vn 0.7675 0.0748 -0.6367
vn 0.6711 0.1712 -0.7214
vn 0.7788 0.3198 -0.5396
vn 0.4285 0.0774 -0.9002
vn 0.5787 0.0002 -0.8155
vn 0.6735 -0.0551 -0.7371
vn 0.7063 0.4307 -0.5618
vn 0.7065 0.4303 -0.5620
vn -0.3900 0.3610 -0.8471
vn -0.5250 0.2127 -0.8241
vn -0.6175 0.2840 -0.7335
vn -0.4262 0.4546 -0.7821
vn -0.8233 0.1304 -0.5524
vn -0.7211 0.0914 -0.6868
vn -0.8236 0.1303 -0.5520
vn -0.6346 0.0620 -0.7703
vn -0.4581 0.5472 -0.7005
vn -0.6977 -0.1485 0.7009
vn -0.6583 0.0193 0.7525
vn -0.6513 0.0421 0.7576
vn -0.0200 -0.2377 0.9711
vn 0.0935 -0.1047 0.9901
vn -0.0072 -0.2231 0.9748
vn -0.5936 0.1960 0.7805
vn -0.5936 0.1960 0.7806
vn -0.1219 -0.3515 0.9282
vn 0.1915 -0.1262 0.9733
vn 0.1455 0.0618 0.9874
vn 0.1476 0.0539 0.9876
vn 0.7808 0.1101 0.6150
vn 0.7868 0.2589 0.5603
vn 0.7810 0.1113 0.6146
vn 0.0998 0.2281 0.9685
vn 0.7550 -0.0426 0.6544
vn 0.7549 -0.0426 0.6544
vn -0.9274 0.0063 0.3740
vn -0.9189 0.1953 0.3428
vn -0.9191 0.1936 0.3432
vn -0.9274 0.0063 0.3739
vn -0.4276 0.1454 0.8922
vn -0.3414 0.2879 0.8947
vn -0.4222 0.1550 0.8931
vn -0.8808 0.3641 0.3028
vn -0.4984 0.0065 0.8669
vn 0.6702 -0.1485 0.7272
vn 0.7236 0.0193 0.6899
vn 0.7290 0.0421 0.6832
vn 0.6703 -0.1485 0.7271
vn 0.9694 -0.2377 0.0616
vn 0.9932 -0.1047 -0.0510
vn 0.9736 -0.2231 0.0490
vn 0.7544 0.1960 0.6265
vn 0.9221 -0.3515 0.1616
vn 0.9221 -0.3515 0.1618
vn 0.9123 0.0396 0.4075
vn 0.9539 -0.0680 0.2922
vn 0.9809 0.0144 0.1941
vn 0.9227 0.1360 0.3607
vn 0.9816 0.1152 0.1522
vn 0.9901 -0.1178 0.0764
vn 0.9973 -0.0421 -0.0605
vn 0.9700 -0.1705 0.1733
vn 0.9224 0.2312 0.3095
vn 0.9748 0.1255 -0.1842
vn 0.9748 0.1256 -0.1842
vn 0.8767 -0.0077 -0.4809
vn 0.9404 0.1831 -0.2867
vn 0.8418 0.1116 -0.5281
vn 0.8018 -0.2130 -0.5583
vn 0.7186 -0.0848 -0.6903
vn 0.8877 0.2418 -0.3918
vn 0.8369 -0.2876 -0.4658
vn 0.6826 -0.2251 -0.6953
vn 0.8115 -0.0949 -0.5765
vn 0.8732 -0.2119 -0.4388
vn 0.7241 -0.3239 -0.6089
vn 0.8521 -0.3506 -0.3885
vn 0.9421 -0.0570 -0.3306
vn 0.9551 -0.2260 -0.1917
vn 0.7528 -0.4211 -0.5059
vn 0.9093 0.0548 -0.4126
vn 0.6024 0.0774 0.7945
vn 0.6346 0.2947 0.7145
vn 0.6363 0.3239 0.7001
vn 0.6025 0.0774 0.7944
vn 0.9949 -0.0485 0.0886
vn 0.9900 0.1045 -0.0951
vn 0.9985 -0.0179 0.0520
vn 0.6309 0.5062 0.5880
vn 0.9564 -0.1723 0.2358
vn -0.4070 -0.1626 0.8988
vn -0.3122 -0.2902 0.9046
vn -0.1990 -0.2335 0.9518
vn -0.3442 -0.0793 0.9355
vn -0.1400 -0.1403 0.9802
vn -0.1021 -0.3753 0.9213
vn 0.0461 -0.3194 0.9465
vn -0.2096 -0.4104 0.8875
vn -0.2775 0.0048 0.9607
vn 0.8646 -0.4539 -0.2154
vn 0.8756 -0.3164 -0.3651
vn 0.8735 -0.2883 -0.3922
vn 0.2997 -0.6455 -0.7025
vn 0.2195 -0.5100 -0.8317
vn 0.2931 -0.6345 -0.7152
vn 0.8460 -0.1510 -0.5113
vn 0.3632 -0.7476 -0.5561
vn 0.3459 0.0660 -0.9359
vn 0.4956 0.1850 -0.8486
vn 0.6232 0.0509 -0.7804
vn 0.4303 -0.0469 -0.9015
vn 0.6351 -0.1074 -0.7649
vn 0.7180 0.1801 -0.6724
vn 0.7985 -0.0199 -0.6017
vn 0.5071 -0.1610 -0.8467
vn 0.6412 0.3123 -0.7009
vn -0.3497 -0.4080 0.8434
vn -0.5129 -0.2355 0.8255
vn -0.6261 -0.3033 0.7183
vn -0.4265 -0.4659 0.7753
vn -0.6450 -0.4066 0.6470
vn -0.7199 -0.1082 0.6856
vn -0.8053 -0.2182 0.5513
vn -0.5045 -0.5224 0.6874
vn -0.6540 -0.0384 0.7555
vn 0.3240 0.1815 0.9285
vn 0.4138 0.3557 0.8380
vn 0.4212 0.3712 0.8275
vn 0.8922 -0.2371 0.3844
vn 0.9673 -0.1429 0.2094
vn 0.9060 -0.2237 0.3594
vn 0.4855 0.5162 0.7056
vn 0.7932 -0.3109 0.5236
vn 0.6366 -0.6166 -0.4631
vn 0.7651 -0.5322 -0.3625
vn 0.7593 -0.6097 -0.2272
vn 0.6246 -0.6822 -0.3800
vn 0.6973 -0.6953 -0.1739
vn 0.8587 -0.4903 -0.1495
vn 0.8041 -0.5942 -0.0175
vn 0.6022 -0.7476 -0.2800
vn 0.8800 -0.4139 -0.2329
vn 0.9185 -0.0909 -0.3848
vn 0.9747 -0.0476 -0.2184
vn 0.9629 -0.2417 -0.1197
vn 0.9046 -0.2424 -0.3507
vn 0.8979 -0.4126 -0.1532
vn 0.9839 -0.1739 0.0417
vn 0.9108 -0.4062 0.0738
vn 0.8630 -0.4046 -0.3026
vn 0.9998 0.0126 0.0152
vn 0.9748 0.0656 -0.2130
vn 0.9947 0.0951 -0.0382
vn 0.9929 -0.1125 0.0374
vn 0.9753 -0.0922 -0.2006
vn 0.9561 -0.2917 -0.0280
vn 0.9760 -0.0696 0.2062
vn 0.9303 -0.3124 0.1922
vn 0.9462 -0.2688 -0.1803
vn 0.9692 0.1311 0.2084
vn -0.7935 -0.3220 -0.5165
vn -0.6847 -0.3439 -0.6426
vn -0.6151 -0.5093 -0.6019
vn -0.7755 -0.4271 -0.4650
vn -0.6254 -0.6102 -0.4864
vn -0.4865 -0.5010 -0.7158
vn -0.4534 -0.6624 -0.5964
vn -0.7366 -0.5530 -0.3894
vn -0.4984 -0.3582 -0.7895
vn -0.4401 0.7262 -0.5281
vn -0.5748 0.5929 -0.5640
vn -0.6680 0.6035 -0.4354
vn -0.4967 0.7496 -0.4374
vn -0.6781 0.6587 -0.3260
vn -0.7571 0.4474 -0.4760
vn -0.8138 0.4890 -0.3141
vn -0.5551 0.7658 -0.3248
vn -0.7046 0.4102 -0.5791
vn -0.6810 0.6923 0.2386
vn -0.6160 0.7808 0.1042
vn -0.6922 0.7217 -0.0017
vn -0.7602 0.6187 0.1980
vn -0.7702 0.6362 -0.0456
vn -0.5827 0.7986 -0.1505
vn -0.6403 0.7160 -0.2782
vn -0.5251 0.8499 -0.0444
vn -0.8329 0.5321 0.1524
vn 0.2798 0.9354 -0.2160
vn 0.2524 0.8963 -0.3646
vn -0.0300 0.9419 -0.3346
vn 0.0173 0.9859 -0.1666
vn 0.5136 0.7705 -0.3774
vn 0.5143 0.7032 -0.4910
vn -0.0715 0.8767 -0.4756
vn 0.5029 0.8282 -0.2473
vn -0.7961 -0.5421 -0.2691
vn -0.8537 -0.3674 -0.3692
vn -0.7841 -0.3921 -0.4811
vn -0.7280 -0.6028 -0.3266
vn -0.7265 -0.1439 -0.6719
vn -0.8179 -0.1635 -0.5517
vn -0.8738 -0.1757 -0.4534
vn -0.6385 -0.6643 -0.3885
vn 0.9770 0.1906 -0.0955
vn 0.9151 0.4032 0.0038
vn 0.9143 0.3727 0.1585
vn 0.9866 0.1633 0.0040
vn 0.9341 0.2768 0.2254
vn 0.8018 0.5590 0.2113
vn 0.8052 0.4659 0.3669
vn 0.9847 0.1309 0.1154
vn 0.7865 0.6075 0.1115
vt 0.966382 8.503631
vt 0.966382 6.725045
vt 0.810921 6.725045
vt 0.810921 8.503631
vt 0.344539 8.503631
vt 0.344539 6.725048
vt 0.189079 6.725048
vt 0.189079 8.503631
vt 0.500000 8.503631
vt 0.500000 6.725048
vt 0.655461 8.503631
vt 0.655461 6.725048
vt 0.966382 4.946462
vt 0.810921 4.946462
vt 0.344539 4.946462
vt 0.189079 4.946462
vt 0.500000 4.946462
vt 0.655461 4.946462
vt 0.966382 3.167876
vt 0.810921 3.167876
vt 0.189079 3.167876
vt 0.033618 3.167878
vt 0.344539 3.167876
vt 0.500000 3.167876
vt 0.655461 3.167876
vt 0.966382 1.389293
vt 0.810921 1.389293
vt 0.189079 1.389293
vt 0.033618 1.389293
vt 0.344539 1.389293
vt 0.500000 1.389293
vt 0.655461 1.389293
vt 0.810921 -0.389293
vt 0.189079 -0.389293
vt 0.033618 -0.389292
vt 0.344539 -0.389293
vt 0.500000 -0.389293
vt 0.655461 -0.389293
vt 0.966382 -0.389294
vt 0.966382 -2.167878
vt 0.810921 -2.167878
vt 0.189079 -2.167876
vt 0.033618 -2.167876
vt 0.500000 -2.167877
vt 0.344539 -2.167877
vt 0.655461 -2.167877
vt 0.966382 -3.946462
vt 0.810921 -3.946462
vt 0.189079 -3.946462
vt 0.033618 -3.946462
vt 0.344539 -3.946462
vt 0.500000 -3.946462
vt 0.655461 -3.946462
vt 0.966382 -5.725047
vt 0.810921 -5.725047
vt 0.189079 -5.725045
vt 0.033618 -5.725045
vt 0.500000 -5.725046
vt 0.344539 -5.725046
vt 0.655461 -5.725046
vt 0.966382 -7.503632
vt 0.810921 -7.503630
vt 0.189079 -7.503630
vt 0.033618 -7.503630
vt 0.344539 -7.503630
vt 0.500000 -7.503630
vt 0.655461 -7.503630
vt 0.033618 6.725048
vt 0.033618 8.503633
vt 0.033618 4.946462
vt 0.000000 0.000000
vt 0.533479 0.000000
vt 0.447807 0.563622
vt 0.000000 0.448746
vt 0.515396 1.000000
vt 1.000000 0.474699
vt 1.000000 1.000000
vt 0.000000 1.000000
vt 1.000000 0.000000
vt 0.480173 0.000000
vt 0.499095 0.494221
vt 0.000000 0.504135
vt 0.518459 1.000000
vt 1.000000 0.484268
vt 0.475004 0.000000
vt 0.581436 0.594393
vt 0.000000 0.491831
vt 0.494355 1.000000
vt 1.000000 0.474417
vt 0.509433 1.000000
vt 0.557025 0.488493
vt 0.943530 0.531260
vt 0.672370 1.000000
vt 0.124045 0.440587
vt 0.259966 0.000000
vt 0.602475 0.000000
vt 0.860970 0.000000
vt 0.189556 1.000000
vt 0.532232 1.000000
vt 0.477364 0.470556
vt 1.000000 0.533264
vt 0.516556 0.000000
vt 0.000000 0.535225
s 1
usemtl trunk-01
f 2/1/1 15/2/2 22/3/3
f 2/1/1 22/3/3 10/4/4
f 4/5/5 16/6/6 14/7/7
f 4/5/5 14/7/7 1/8/5
f 7/9/8 18/10/9 17/6/10
f 7/9/8 17/6/10 5/5/8
f 13/11/11 21/12/12 19/10/13
f 13/11/11 19/10/13 9/9/11
f 12/4/14 23/3/15 20/12/16
f 15/2/2 26/13/17 31/14/18
f 15/2/2 31/14/18 22/3/3
f 16/6/6 27/15/19 25/16/20
f 16/6/6 25/16/20 14/7/7
f 18/10/9 29/17/21 28/15/22
f 18/10/9 28/15/22 17/6/10
f 21/12/12 33/18/23 30/17/24
f 21/12/12 30/17/24 19/10/13
f 23/3/15 32/18/25 20/12/16
f 26/13/17 36/19/26 45/20/27
f 26/13/17 45/20/27 31/14/18
f 24/16/28 37/21/29 35/22/30
f 27/15/19 39/23/31 38/21/32
f 27/15/19 38/21/32 25/16/20
f 29/17/21 41/24/33 40/23/34
f 29/17/21 40/23/34 28/15/22
f 33/18/23 42/24/35 30/17/24
f 34/14/23 46/20/36 43/25/37
f 36/19/26 48/26/38 55/27/39
f 36/19/26 55/27/39 45/20/27
f 37/21/29 49/28/40 47/29/41
f 37/21/29 47/29/41 35/22/30
f 39/23/31 51/30/42 50/28/43
f 39/23/31 50/28/43 38/21/32
f 41/24/33 53/31/44 52/30/45
f 41/24/33 52/30/45 40/23/34
f 44/25/46 57/32/47 54/31/48
f 46/20/36 56/32/49 43/25/37
f 48/26/38 68/33/50 55/27/39
f 49/28/40 58/34/51 66/35/52
f 49/28/40 66/35/52 47/29/41
f 51/30/42 60/36/53 59/34/54
f 51/30/42 59/34/54 50/28/43
f 53/31/44 62/37/55 61/36/56
f 53/31/44 61/36/56 52/30/45
f 57/32/47 65/38/57 63/37/58
f 57/32/47 63/37/58 54/31/48
f 55/27/39 68/33/50 64/38/59
f 67/39/60 70/40/61 79/41/62
f 58/34/51 71/42/63 69/43/64
f 58/34/51 69/43/64 66/35/52
f 60/36/53 73/42/65 59/34/54
f 62/37/55 75/44/66 74/45/67
f 62/37/55 74/45/67 61/36/56
f 65/38/57 78/46/68 76/44/69
f 65/38/57 76/44/69 63/37/58
f 68/33/50 80/41/70 77/46/71
f 68/33/50 77/46/71 64/38/59
f 70/40/61 82/47/72 89/48/73
f 70/40/61 89/48/73 79/41/62
f 71/42/63 83/49/74 81/50/75
f 71/42/63 81/50/75 69/43/64
f 72/45/76 85/51/77 84/49/78
f 75/44/66 87/52/79 86/51/80
f 75/44/66 86/51/80 74/45/67
f 78/46/68 92/53/81 88/52/82
f 78/46/68 88/52/82 76/44/69
f 80/41/70 91/53/83 77/46/71
f 82/47/72 94/54/84 103/55/85
f 82/47/72 103/55/85 89/48/73
f 83/49/74 95/56/86 93/57/87
f 83/49/74 93/57/87 81/50/75
f 85/51/77 97/56/88 84/49/78
f 87/52/79 99/58/89 98/59/90
f 87/52/79 98/59/90 86/51/80
f 92/53/81 102/60/91 100/58/92
f 92/53/81 100/58/92 88/52/82
f 90/48/93 104/55/94 101/60/95
f 94/54/84 106/61/96 115/62/96
f 94/54/84 115/62/96 103/55/85
f 95/56/86 230/63/97 105/64/98
f 95/56/86 105/64/98 93/57/87
f 96/59/99 107/65/99 231/63/99
f 99/58/89 109/66/100 108/65/100
f 99/58/89 108/65/100 98/59/90
f 102/60/91 114/67/101 111/66/101
f 102/60/91 111/66/101 100/58/92
f 104/55/94 116/62/102 113/67/102
f 104/55/94 113/67/102 101/60/95
f 117/1/103 131/2/104 141/3/105
f 117/1/103 141/3/105 129/4/103
f 123/8/106 134/7/107 132/68/108
f 123/8/106 132/68/108 119/69/106
f 122/5/109 137/6/110 133/7/111
f 126/9/112 136/6/112 121/5/112
f 128/11/113 139/12/114 135/10/115
f 128/11/113 135/10/115 124/9/116
f 127/4/117 140/3/118 138/12/119
f 131/2/104 142/13/120 156/14/121
f 131/2/104 156/14/121 141/3/105
f 134/7/107 145/16/122 143/70/123
f 134/7/107 143/70/123 132/68/108
f 137/6/110 150/15/124 146/16/125
f 137/6/110 146/16/125 133/7/111
f 139/12/114 153/18/126 148/17/126
f 139/12/114 148/17/126 135/10/115
f 140/3/118 155/14/127 152/18/128
f 140/3/118 152/18/128 138/12/119
f 142/13/120 157/19/129 167/20/130
f 142/13/120 167/20/130 156/14/121
f 147/16/131 161/21/132 158/22/133
f 147/16/131 158/22/133 144/70/134
f 150/15/124 159/21/135 146/16/125
f 151/17/124 164/24/136 160/23/135
f 154/18/137 166/25/138 163/24/139
f 154/18/137 163/24/139 149/17/137
f 155/14/127 167/20/130 165/25/140
f 155/14/127 165/25/140 152/18/128
f 157/19/129 168/27/141 167/20/130
f 161/21/132 171/28/142 170/29/143
f 161/21/132 170/29/143 158/22/133
f 162/23/144 174/30/145 172/28/146
f 164/24/136 176/31/147 173/30/148
f 164/24/136 173/30/148 160/23/135
f 166/25/138 177/32/149 175/31/150
f 166/25/138 175/31/150 163/24/139
f 167/20/130 168/27/141 178/32/151
f 167/20/130 178/32/151 165/25/140
f 169/26/152 285/39/153 192/33/154
f 171/28/142 181/34/155 289/35/155
f 171/28/142 289/35/155 170/29/143
f 174/30/145 189/36/156 183/34/156
f 174/30/145 183/34/156 172/28/146
f 176/31/147 295/37/157 187/36/157
f 176/31/147 187/36/157 173/30/148
f 177/32/149 280/38/158 290/37/158
f 177/32/149 290/37/158 175/31/150
f 168/27/141 191/33/159 279/38/160
f 168/27/141 279/38/160 178/32/151
f 285/39/153 194/40/161 203/41/162
f 285/39/153 203/41/162 192/33/154
f 179/34/163 195/42/164 193/43/165
f 179/34/163 193/43/165 287/35/163
f 190/36/166 198/45/167 196/42/168
f 190/36/166 196/42/168 184/34/166
f 294/37/169 199/44/170 197/45/171
f 294/37/169 197/45/171 186/36/169
f 282/38/172 201/46/173 199/44/174
f 282/38/172 199/44/174 292/37/175
f 191/33/159 202/41/176 200/46/177
f 191/33/159 200/46/177 279/38/160
f 194/40/161 214/48/178 203/41/162
f 195/42/164 204/49/179 213/50/178
f 195/42/164 213/50/178 193/43/165
f 198/45/167 208/51/180 205/49/181
f 198/45/167 205/49/181 196/42/168
f 199/44/170 206/51/182 197/45/171
f 201/46/173 210/53/183 207/52/182
f 201/46/173 207/52/182 199/44/174
f 202/41/176 211/48/184 209/53/185
f 202/41/176 209/53/185 200/46/177
f 212/47/186 215/54/187 225/55/188
f 204/49/179 217/56/189 216/57/190
f 204/49/179 216/57/190 213/50/178
f 208/51/180 220/59/191 218/56/192
f 208/51/180 218/56/192 205/49/181
f 207/52/182 221/58/193 219/59/194
f 210/53/183 223/60/195 221/58/193
f 210/53/183 221/58/193 207/52/182
f 211/48/184 224/55/196 222/60/197
f 211/48/184 222/60/197 209/53/185
f 215/54/187 226/61/198 237/62/199
f 215/54/187 237/62/199 225/55/188
f 217/56/189 228/63/200 227/64/200
f 217/56/189 227/64/200 216/57/190
f 220/59/191 112/65/201 229/63/201
f 220/59/191 229/63/201 218/56/192
f 221/58/193 233/66/202 110/65/202
f 221/58/193 110/65/202 219/59/194
f 223/60/195 235/67/203 232/66/204
f 223/60/195 232/66/204 221/58/193
f 224/55/196 236/62/205 234/67/205
f 224/55/196 234/67/205 222/60/197
f 238/1/206 254/19/207 264/20/208
f 238/1/206 264/20/208 250/4/206
f 239/8/209 256/21/210 255/22/211
f 242/5/212 258/23/213 257/21/214
f 242/5/212 257/21/214 240/8/215
f 248/9/216 260/24/217 259/23/218
f 248/9/216 259/23/218 245/5/219
f 249/11/220 263/25/221 261/24/222
f 251/4/223 265/20/224 262/25/225
f 251/4/223 262/25/225 246/11/223
f 254/19/207 267/40/226 276/41/227
f 254/19/207 276/41/227 264/20/208
f 256/21/210 268/42/228 266/43/229
f 256/21/210 266/43/229 255/22/211
f 258/23/213 270/45/230 269/42/231
f 258/23/213 269/42/231 257/21/214
f 260/24/217 272/44/232 271/45/233
f 260/24/217 271/45/233 259/23/218
f 263/25/221 275/46/234 273/44/235
f 263/25/221 273/44/235 261/24/222
f 265/20/224 277/41/236 274/46/237
f 265/20/224 274/46/237 262/25/225
f 267/40/226 281/61/238 291/62/238
f 267/40/226 291/62/238 276/41/227
f 268/42/228 283/63/239 278/64/239
f 268/42/228 278/64/239 266/43/229
f 270/45/230 286/65/240 284/63/240
f 270/45/230 284/63/240 269/42/231
f 272/44/232 180/66/241 288/65/242
f 272/44/232 288/65/242 271/45/233
f 275/46/234 188/67/243 182/66/243
f 275/46/234 182/66/243 273/44/235
f 277/41/236 293/62/244 185/67/244
f 277/41/236 185/67/244 274/46/237
f 252/4/245 247/11/245 243/5/245
f 253/4/246 244/5/246 241/8/246
f 130/11/247 125/9/248 120/5/247
f 130/11/247 120/5/247 118/69/249
f 8/9/250 6/5/251 3/1/252
f 8/9/250 3/1/252 11/11/253
usemtl branch-2-01
f 296/71/254 300/72/254 304/73/255
f 296/71/254 304/73/255 306/74/256
f 303/75/257 305/73/258 307/76/259
f 303/75/257 307/76/259 299/77/257
f 306/74/256 304/73/255 302/75/260
f 306/74/256 302/75/260 298/78/260
f 307/76/259 305/73/258 301/72/261
f 307/76/259 301/72/261 297/79/261
f 308/71/262 313/80/263 317/81/264
f 308/71/262 317/81/264 316/82/265
f 314/83/266 317/81/264 315/84/267
f 314/83/266 315/84/267 311/77/268
f 316/82/265 317/81/264 314/83/266
f 316/82/265 314/83/266 310/78/269
f 315/84/267 317/81/264 312/80/270
f 315/84/267 312/80/270 309/79/271
f 318/71/272 323/72/273 325/73/274
f 318/71/272 325/73/274 326/74/275
f 324/75/276 325/73/274 327/76/277
f 324/75/276 327/76/277 321/77/278
f 326/74/275 325/73/274 324/75/276
f 326/74/275 324/75/276 320/78/279
f 327/76/277 325/73/274 322/72/280
f 327/76/277 322/72/280 319/79/280
f 328/71/281 332/72/282 334/73/283
f 328/71/281 334/73/283 335/74/284
f 333/75/285 334/73/283 336/76/286
f 333/75/285 336/76/286 331/77/287
f 335/74/284 334/73/283 333/75/285
f 335/74/284 333/75/285 330/78/288
f 336/76/286 334/73/283 332/72/282
f 336/76/286 332/72/282 329/79/289
f 337/71/290 341/72/291 343/73/292
f 337/71/290 343/73/292 344/74/293
f 342/75/294 343/73/292 345/76/295
f 342/75/294 345/76/295 340/77/296
f 344/74/293 343/73/292 342/75/294
f 344/74/293 342/75/294 339/78/297
f 345/76/295 343/73/292 341/72/291
f 345/76/295 341/72/291 338/79/298
f 346/71/299 350/72/300 352/73/301
f 346/71/299 352/73/301 353/74/302
f 351/75/303 352/73/301 354/76/304
f 351/75/303 354/76/304 349/77/305
f 353/74/302 352/73/301 351/75/303
f 353/74/302 351/75/303 348/78/306
f 354/76/304 352/73/301 350/72/300
f 354/76/304 350/72/300 347/79/307
f 355/71/308 360/80/308 366/81/309
f 355/71/308 366/81/309 364/82/310
f 361/83/311 365/81/312 363/84/313
f 361/83/311 363/84/313 358/77/311
f 364/82/310 366/81/309 362/83/314
f 364/82/310 362/83/314 357/78/314
f 363/84/313 365/81/312 359/80/315
f 363/84/313 359/80/315 356/79/315
f 367/71/316 371/72/316 374/73/317
f 367/71/316 374/73/317 375/74/318
f 373/75/319 374/73/317 376/76/320
f 373/75/319 376/76/320 370/77/321
f 375/74/318 374/73/317 373/75/319
f 375/74/318 373/75/319 369/78/322
f 376/76/320 374/73/317 372/72/323
f 376/76/320 372/72/323 368/79/323
f 377/71/324 381/72/325 383/73/326
f 377/71/324 383/73/326 384/74/327
f 382/75/328 383/73/326 385/76/329
f 382/75/328 385/76/329 380/77/330
f 384/74/327 383/73/326 382/75/328
f 384/74/327 382/75/328 379/78/331
f 385/76/329 383/73/326 381/72/325
f 385/76/329 381/72/325 378/79/332
f 386/71/333 391/80/334 397/81/335
f 386/71/333 397/81/335 395/82/336
f 392/83/337 396/81/338 394/84/339
f 392/83/337 394/84/339 389/77/337
f 395/82/336 397/81/335 393/83/340
f 395/82/336 393/83/340 388/78/340
f 394/84/339 396/81/338 390/80/341
f 394/84/339 390/80/341 387/79/342
f 398/71/343 403/80/344 407/81/345
f 398/71/343 407/81/345 406/82/346
f 404/83/347 407/81/345 405/84/348
f 404/83/347 405/84/348 401/77/349
f 406/82/346 407/81/345 404/83/347
f 406/82/346 404/83/347 400/78/350
f 405/84/348 407/81/345 402/80/351
f 405/84/348 402/80/351 399/79/352
f 408/71/353 412/72/354 414/73/355
f 408/71/353 414/73/355 415/74/356
f 413/75/357 414/73/355 416/76/358
f 413/75/357 416/76/358 411/77/359
f 415/74/356 414/73/355 413/75/357
f 415/74/356 413/75/357 410/78/360
f 416/76/358 414/73/355 412/72/354
f 416/76/358 412/72/354 409/79/361
f 417/71/362 421/72/363 423/73/364
f 417/71/362 423/73/364 424/74/365
f 422/75/366 423/73/364 425/76/367
f 422/75/366 425/76/367 420/77/368
f 424/74/365 423/73/364 422/75/366
f 424/74/365 422/75/366 419/78/369
f 425/76/367 423/73/364 421/72/363
f 425/76/367 421/72/363 418/79/370
f 426/71/371 431/80/372 435/81/373
f 426/71/371 435/81/373 434/82/374
f 432/83/375 435/81/373 433/84/376
f 432/83/375 433/84/376 429/77/377
f 434/82/374 435/81/373 432/83/375
f 434/82/374 432/83/375 428/78/378
f 433/84/376 435/81/373 430/80/379
f 433/84/376 430/80/379 427/79/379
f 436/71/380 441/72/380 443/73/381
f 436/71/380 443/73/381 444/74/382
f 442/75/383 443/73/381 445/76/384
f 442/75/383 445/76/384 439/77/385
f 444/74/382 443/73/381 442/75/383
f 444/74/382 442/75/383 438/78/386
f 445/76/384 443/73/381 440/72/387
f 445/76/384 440/72/387 437/79/387
f 446/71/388 451/72/388 453/73/389
f 446/71/388 453/73/389 454/74/390
f 452/75/391 453/73/389 455/76/392
f 452/75/391 455/76/392 449/77/393
f 454/74/390 453/73/389 452/75/391
f 454/74/390 452/75/391 448/78/394
f 455/76/392 453/73/389 450/72/395
f 455/76/392 450/72/395 447/79/395
f 456/71/396 461/80/397 465/81/398
f 456/71/396 465/81/398 464/82/399
f 462/83/400 465/81/398 463/84/401
f 462/83/400 463/84/401 459/77/402
f 464/82/399 465/81/398 462/83/400
f 464/82/399 462/83/400 458/78/403
f 463/84/401 465/81/398 460/80/404
f 463/84/401 460/80/404 457/79/404
f 466/71/405 470/72/406 472/73/407
f 466/71/405 472/73/407 473/74/408
f 471/75/409 472/73/407 474/76/410
f 471/75/409 474/76/410 469/77/411
f 473/74/408 472/73/407 471/75/409
f 473/74/408 471/75/409 468/78/412
f 474/76/410 472/73/407 470/72/406
f 474/76/410 470/72/406 467/79/413
f 475/71/414 480/80/415 484/81/416
f 475/71/414 484/81/416 483/82/417
f 481/83/418 484/81/416 482/84/419
f 481/83/418 482/84/419 478/77/420
f 483/82/417 484/81/416 481/83/418
f 483/82/417 481/83/418 477/78/421
f 482/84/419 484/81/416 479/80/422
f 482/84/419 479/80/422 476/79/422
f 485/71/423 489/80/423 494/81/424
f 485/71/423 494/81/424 493/82/425
f 491/83/426 494/81/424 492/84/427
f 491/83/426 492/84/427 488/77/428
f 493/82/425 494/81/424 491/83/426
f 493/82/425 491/83/426 487/78/429
f 492/84/427 494/81/424 490/80/430
f 492/84/427 490/80/430 486/79/430
f 495/71/431 499/72/432 501/73/433
f 495/71/431 501/73/433 502/74/434
f 500/75/435 501/73/433 503/76/436
f 500/75/435 503/76/436 498/77/437
f 502/74/434 501/73/433 500/75/435
f 502/74/434 500/75/435 497/78/438
f 503/76/436 501/73/433 499/72/432
f 503/76/436 499/72/432 496/79/439
f 504/71/440 508/72/441 510/73/442
f 504/71/440 510/73/442 511/74/443
f 509/75/444 510/73/442 512/76/445
f 509/75/444 512/76/445 507/77/446
f 511/74/443 510/73/442 509/75/444
f 511/74/443 509/75/444 506/78/447
f 512/76/445 510/73/442 508/72/441
f 512/76/445 508/72/441 505/79/448
f 513/71/449 517/72/450 519/73/451
f 513/71/449 519/73/451 520/74/452
f 518/75/453 519/73/451 521/76/454
f 518/75/453 521/76/454 516/77/455
f 520/74/452 519/73/451 518/75/453
f 520/74/452 518/75/453 515/78/456
f 521/76/454 519/73/451 517/72/450
f 521/76/454 517/72/450 514/79/457
usemtl branch-2-02
f 522/71/458 526/85/459 528/86/460
f 522/71/458 528/86/460 530/87/461
f 527/88/462 528/86/460 529/89/463
f 527/88/462 529/89/463 525/77/464
f 530/87/461 528/86/460 527/88/462
f 530/87/461 527/88/462 524/78/465
f 529/89/463 528/86/460 526/85/459
f 529/89/463 526/85/459 523/79/466
f 531/71/467 535/85/468 537/86/469
f 531/71/467 537/86/469 539/87/470
f 536/88/471 537/86/469 538/89/472
f 536/88/471 538/89/472 534/77/473
f 539/87/470 537/86/469 536/88/471
f 539/87/470 536/88/471 533/78/474
f 538/89/472 537/86/469 535/85/468
f 538/89/472 535/85/468 532/79/475
f 540/71/476 544/85/477 546/86/478
f 540/71/476 546/86/478 548/87/479
f 545/88/480 546/86/478 547/89/481
f 545/88/480 547/89/481 543/77/482
f 548/87/479 546/86/478 545/88/480
f 548/87/479 545/88/480 542/78/483
f 547/89/481 546/86/478 544/85/477
f 547/89/481 544/85/477 541/79/484
f 549/71/485 553/85/486 555/86/487
f 549/71/485 555/86/487 557/87/488
f 554/88/489 555/86/487 556/89/490
f 554/88/489 556/89/490 552/77/491
f 557/87/488 555/86/487 554/88/489
f 557/87/488 554/88/489 551/78/492
f 556/89/490 555/86/487 553/85/486
f 556/89/490 553/85/486 550/79/493
f 558/90/494 562/91/495 567/92/496
f 558/90/494 567/92/496 568/93/494
f 565/94/497 564/95/498 561/96/498
f 565/94/497 561/96/498 563/91/499
f 566/97/500 567/92/496 562/91/495
f 566/97/500 562/91/495 560/96/500
f 569/98/501 565/94/497 563/91/499
f 569/98/501 563/91/499 559/90/501
f 570/90/502 574/91/503 579/92/504
f 570/90/502 579/92/504 580/93/502
f 577/94/505 576/95/506 573/96/506
f 577/94/505 573/96/506 575/91/507
f 578/97/508 579/92/504 574/91/503
f 578/97/508 574/91/503 572/96/508
f 581/98/509 577/94/505 575/91/507
f 581/98/509 575/91/507 571/90/509
f 585/77/510 586/99/511 589/100/512
f 585/77/510 589/100/512 591/101/513
f 587/102/514 589/100/512 590/103/515
f 587/102/514 590/103/515 582/71/514
f 590/103/515 589/100/512 586/99/511
f 590/103/515 586/99/511 584/78/516
f 591/101/513 589/100/512 588/102/517
f 591/101/513 588/102/517 583/79/518
f 595/77/519 596/99/520 599/100/521
f 595/77/519 599/100/521 601/101/522
f 597/102/523 599/100/521 600/103/524
f 597/102/523 600/103/524 592/71/525
f 600/103/524 599/100/521 596/99/520
f 600/103/524 596/99/520 594/78/526
f 601/101/522 599/100/521 598/102/527
f 601/101/522 598/102/527 593/79/527
f 602/90/528 606/91/529 611/92/530
f 602/90/528 611/92/530 612/93/528
f 609/94/531 608/95/532 605/96/532
f 609/94/531 605/96/532 607/91/533
f 610/97/534 611/92/530 606/91/529
f 610/97/534 606/91/529 604/96/535
f 613/98/536 609/94/531 607/91/533
f 613/98/536 607/91/533 603/90/536
f 614/90/537 618/91/538 623/92/539
f 614/90/537 623/92/539 624/93/537
f 621/94/540 620/95/541 617/96/541
f 621/94/540 617/96/541 619/91/542
f 622/97/543 623/92/539 618/91/538
f 622/97/543 618/91/538 616/96/543
f 625/98/544 621/94/540 619/91/542
f 625/98/544 619/91/542 615/90/545
f 626/90/546 630/91/547 635/92/548
f 626/90/546 635/92/548 636/93/549
f 633/94/550 632/95/551 629/96/551
f 633/94/550 629/96/551 631/91/552
f 634/97/553 635/92/548 630/91/547
f 634/97/553 630/91/547 628/96/553
f 637/98/554 633/94/550 631/91/552
f 637/98/554 631/91/552 627/90/554
f 638/90/555 642/91/556 647/92/557
f 638/90/555 647/92/557 648/93/558
f 645/94/559 644/95/560 641/96/560
f 645/94/559 641/96/560 643/91/561
f 646/97/562 647/92/557 642/91/556
f 646/97/562 642/91/556 640/96/562
f 649/98/563 645/94/559 643/91/561
f 649/98/563 643/91/561 639/90/564
f 653/77/565 654/99/566 656/100/567
f 653/77/565 656/100/567 658/101/568
f 655/102/569 656/100/567 657/103/570
f 655/102/569 657/103/570 650/71/571
f 657/103/570 656/100/567 654/99/566
f 657/103/570 654/99/566 652/78/572
f 658/101/568 656/100/567 655/102/569
f 658/101/568 655/102/569 651/79/573
f 659/71/574 664/85/575 666/86/576
f 659/71/574 666/86/576 668/87/577
f 665/88/578 666/86/576 667/89/579
f 665/88/578 667/89/579 662/77/580
f 668/87/577 666/86/576 665/88/578
f 668/87/577 665/88/578 661/78/581
f 667/89/579 666/86/576 663/85/582
f 667/89/579 663/85/582 660/79/582
f 669/71/583 673/85/584 675/86/585
f 669/71/583 675/86/585 677/87/586
f 674/88/587 675/86/585 676/89/588
f 674/88/587 676/89/588 672/77/589
f 677/87/586 675/86/585 674/88/587
f 677/87/586 674/88/587 671/78/590
f 676/89/588 675/86/585 673/85/584
f 676/89/588 673/85/584 670/79/591
f 678/90/592 682/91/593 687/92/594
f 678/90/592 687/92/594 688/93/595
f 685/94/596 684/95/597 681/96/597
f 685/94/596 681/96/597 683/91/598
f 686/97/599 687/92/594 682/91/593
f 686/97/599 682/91/593 680/96/599
f 689/98/600 685/94/596 683/91/598
f 689/98/600 683/91/598 679/90/600
f 693/77/601 694/99/602 696/100/603
f 693/77/601 696/100/603 698/101/604
f 695/102/605 696/100/603 697/103/606
f 695/102/605 697/103/606 690/71/607
f 697/103/606 696/100/603 694/99/602
f 697/103/606 694/99/602 692/78/608
f 698/101/604 696/100/603 695/102/605
f 698/101/604 695/102/605 691/79/609
f 700/90/610 704/91/611 708/92/612
f 700/90/610 708/92/612 709/93/610
f 706/94/613 705/95/614 701/96/614
f 706/94/613 701/96/614 703/91/615
f 707/97/616 708/92/612 704/91/611
f 707/97/616 704/91/611 702/96/616
f 710/98/617 706/94/613 703/91/615
f 710/98/617 703/91/615 699/90/617
f 711/71/618 715/85/619 717/86/620
f 711/71/618 717/86/620 719/87/621
f 716/88/622 717/86/620 718/89/623
f 716/88/622 718/89/623 714/77/624
f 719/87/621 717/86/620 716/88/622
f 719/87/621 716/88/622 713/78/625
f 718/89/623 717/86/620 715/85/619
f 718/89/623 715/85/619 712/79/626
f 720/71/627 724/85/628 726/86/629
f 720/71/627 726/86/629 728/87/630
f 725/88/631 726/86/629 727/89/632
f 725/88/631 727/89/632 723/77/633
f 728/87/630 726/86/629 725/88/631
f 728/87/630 725/88/631 722/78/634
f 727/89/632 726/86/629 724/85/628
f 727/89/632 724/85/628 721/79/635
f 729/90/636 733/91/637 738/92/638
f 729/90/636 738/92/638 739/93/636
f 736/94/639 735/95/640 732/96/640
f 736/94/639 732/96/640 734/91/641
f 737/97/642 738/92/638 733/91/637
f 737/97/642 733/91/637 731/96/642
f 740/98/643 736/94/639 734/91/641
f 740/98/643 734/91/641 730/90/643
f 741/71/644 745/85/645 747/86/646
f 741/71/644 747/86/646 749/87/647
f 746/88/648 747/86/646 748/89/649
f 746/88/648 748/89/649 744/77/650
f 749/87/647 747/86/646 746/88/648
f 749/87/647 746/88/648 743/78/651
f 748/89/649 747/86/646 745/85/645
f 748/89/649 745/85/645 742/79/652
f 750/71/653 754/85/654 756/86/655
f 750/71/653 756/86/655 758/87/656
f 755/88/657 756/86/655 757/89/658
f 755/88/657 757/89/658 753/77/659
f 758/87/656 756/86/655 755/88/657
f 758/87/656 755/88/657 752/78/660
f 757/89/658 756/86/655 754/85/654
f 757/89/658 754/85/654 751/79/661
f 759/71/662 763/85/663 765/86/664
f 759/71/662 765/86/664 767/87/665
f 764/88/666 765/86/664 766/89/667
f 764/88/666 766/89/667 762/77/668
f 767/87/665 765/86/664 764/88/666
f 767/87/665 764/88/666 761/78/669
f 766/89/667 765/86/664 763/85/663
f 766/89/667 763/85/663 760/79/670
f 768/71/671 772/85/672 774/86/673
f 768/71/671 774/86/673 776/87/674
f 773/88/675 774/86/673 775/89/676
f 773/88/675 775/89/676 771/77/677
f 776/87/674 774/86/673 773/88/675
f 776/87/674 773/88/675 770/78/678
f 775/89/676 774/86/673 772/85/672
f 775/89/676 772/85/672 769/79/679
f 777/71/680 781/85/681 783/86/682
f 777/71/680 783/86/682 785/87/683
f 782/88/684 783/86/682 784/89/685
f 782/88/684 784/89/685 780/77/686
f 785/87/683 783/86/682 782/88/684
f 785/87/683 782/88/684 779/78/687
f 784/89/685 783/86/682 781/85/681
f 784/89/685 781/85/681 778/79/688
f 789/77/689 790/99/690 792/100/691
f 789/77/689 792/100/691 794/101/692
f 791/102/693 792/100/691 793/103/694
f 791/102/693 793/103/694 786/71/695
f 793/103/694 792/100/691 790/99/690
f 793/103/694 790/99/690 788/78/696
f 794/101/692 792/100/691 791/102/693
f 794/101/692 791/102/693 787/79/697
f 795/90/698 798/91/699 802/92/700
f 795/90/698 802/92/700 803/93/701
f 800/94/702 799/95/703 797/96/703
f 800/94/702 797/96/703 798/91/699
f 801/97/704 802/92/700 798/91/699
f 801/97/704 798/91/699 796/96/704
f 804/98/705 800/94/702 798/91/699
f 804/98/705 798/91/699 795/90/698
f 808/77/706 809/99/707 812/100/708
f 808/77/706 812/100/708 814/101/709
f 810/102/710 812/100/708 813/103/711
f 810/102/710 813/103/711 805/71/710
f 813/103/711 812/100/708 809/99/707
f 813/103/711 809/99/707 807/78/712
f 814/101/709 812/100/708 811/102/713
f 814/101/709 811/102/713 806/79/713
f 815/71/714 819/85/715 821/86/716
f 815/71/714 821/86/716 823/87/717
f 820/88/718 821/86/716 822/89/719
f 820/88/718 822/89/719 818/77/720
f 823/87/717 821/86/716 820/88/718
f 823/87/717 820/88/718 817/78/721
f 822/89/719 821/86/716 819/85/715
f 822/89/719 819/85/715 816/79/722
