# Blender 4.4.1
# www.blender.org
mtllib rural_wood_fence_1.mtl
o rural_wood_fence_1
v 0.009644 0.584317 0.055982
v 0.009644 0.706080 0.055982
v 0.009644 0.584317 -0.065781
v 0.009644 0.706080 -0.065781
v 0.043685 0.584317 0.055982
v 0.043685 0.706080 0.055982
v 0.043685 0.584317 -0.065781
v 0.043685 0.706080 -0.065781
v 0.009644 0.584317 1.119830
v 0.009644 0.706080 1.119830
v 0.043685 0.706080 1.119830
v 0.043685 0.584317 1.119830
v 0.005253 0.645199 0.055982
v 0.005253 0.645199 -0.065781
v 0.039293 0.645199 -0.065781
v 0.039293 0.645199 0.055982
v 0.005253 0.645199 1.119830
v 0.039293 0.645199 1.119830
v 0.010865 0.773499 -0.069083
v 0.010865 -0.029180 -0.069083
v 0.010865 0.773499 0.050712
v 0.010865 -0.029180 0.050712
v -0.024795 0.773499 -0.069083
v -0.024795 -0.029180 -0.069083
v -0.024795 0.773499 0.050712
v -0.024795 -0.029180 0.050712
v -0.039324 -0.029180 -0.029151
v -0.039324 -0.029180 0.010780
v 0.010865 0.773499 -0.029151
v 0.010865 0.773499 0.010780
v -0.039324 0.773499 0.010780
v -0.039324 0.773499 -0.029151
v 0.010865 -0.029180 0.010780
v 0.010865 -0.029180 -0.029151
v 0.009644 0.184721 0.055982
v 0.009644 0.306484 0.055982
v 0.009644 0.184721 -0.065781
v 0.009644 0.306484 -0.065781
v 0.043685 0.184721 0.055982
v 0.043685 0.306484 0.055982
v 0.043685 0.184721 -0.065781
v 0.043685 0.306484 -0.065781
v 0.009644 0.184721 1.119830
v 0.009644 0.306484 1.119830
v 0.043685 0.306484 1.119830
v 0.043685 0.184721 1.119830
v 0.007462 0.245603 0.055982
v 0.007462 0.245603 -0.065781
v 0.041503 0.245603 -0.065781
v 0.041503 0.245603 0.055982
v 0.007462 0.245603 1.119830
v 0.041503 0.245603 1.119830
v -0.046434 0.642392 -0.016347
v 0.047897 0.642392 -0.016347
v -0.046434 0.633299 -0.011098
v 0.047897 0.633299 -0.011098
v -0.046434 0.633299 -0.000598
v 0.047897 0.633299 -0.000598
v -0.046434 0.642392 0.004652
v 0.047897 0.642392 0.004652
v -0.046434 0.651485 -0.000598
v 0.047897 0.651485 -0.000598
v -0.046434 0.651485 -0.011098
v 0.047897 0.651485 -0.011098
v -0.046434 0.239217 -0.019079
v 0.047897 0.239217 -0.019079
v -0.046434 0.230124 -0.013829
v 0.047897 0.230124 -0.013829
v -0.046434 0.230124 -0.003329
v 0.047897 0.230124 -0.003329
v -0.046434 0.239217 0.001921
v 0.047897 0.239217 0.001921
v -0.046434 0.248310 -0.003329
v 0.047897 0.248310 -0.003329
v -0.046434 0.248310 -0.013829
v 0.047897 0.248310 -0.013829
vn -0.9974 0.0719 -0.0000
vn -0.0000 -0.0000 -1.0000
vn 0.9974 -0.0719 -0.0000
vn -0.9974 -0.0719 -0.0000
vn -0.0000 -1.0000 -0.0000
vn -0.0000 1.0000 -0.0000
vn -0.0000 -0.0000 1.0000
vn 0.9974 0.0719 -0.0000
vn -0.9397 -0.0000 -0.3419
vn 1.0000 -0.0000 -0.0000
vn -0.9397 -0.0000 0.3419
vn -1.0000 -0.0000 -0.0000
vn -0.9994 0.0358 -0.0000
vn 0.9994 -0.0358 -0.0000
vn -0.9994 -0.0358 -0.0000
vn 0.9994 0.0358 -0.0000
vn -0.0000 -0.5000 -0.8660
vn -0.0000 -0.5000 0.8660
vn -0.0000 0.5000 0.8660
vn -0.0000 0.5000 -0.8660
vt 0.625000 0.000000
vt 0.500000 0.250000
vt 0.500000 0.000000
vt 0.944925 0.892743
vt 0.900656 0.801841
vt 0.951481 0.801841
vt 0.989202 0.185423
vt 0.889088 0.106529
vt 0.989202 0.106529
vt 0.007207 0.044317
vt 0.991378 0.104978
vt 0.007207 0.104978
vt 0.486547 0.720660
vt 0.427677 0.931239
vt 0.427677 0.720660
vt 0.452397 0.982282
vt 0.474156 0.904450
vt 0.474156 0.982282
vt 0.947747 0.839802
vt 0.905891 0.925749
vt 0.899692 0.839802
vt 0.469539 0.225726
vt 0.445294 0.983431
vt 0.445294 0.225726
vt 0.452397 0.904450
vt 0.474156 0.224434
vt 0.889088 0.185423
vt 0.014389 0.106529
vt 0.014389 0.027634
vt 0.889088 0.027634
vt 0.905891 0.753855
vt 0.953947 0.753855
vt 0.991378 0.165639
vt 0.007207 0.165639
vt 0.989202 0.027634
vt 0.944925 0.710939
vt 0.894099 0.710939
vt 0.375000 0.250000
vt 0.375000 0.000000
vt 0.625000 0.666667
vt 0.875000 0.750000
vt 0.625000 0.750000
vt 0.973066 0.124697
vt 0.015210 0.167251
vt 0.015210 0.124697
vt 0.906458 0.995141
vt 0.868268 0.227483
vt 0.906458 0.227483
vt 0.818980 0.839266
vt 0.741160 0.926408
vt 0.709453 0.839266
vt 0.900244 0.994726
vt 0.854228 0.226877
vt 0.900244 0.226877
vt 0.985516 0.143849
vt 0.010583 0.187161
vt 0.010583 0.143849
vt 0.992275 0.994726
vt 0.946259 0.226877
vt 0.992275 0.226877
vt 0.946259 0.994726
vt 0.741160 0.664981
vt 0.818980 0.752123
vt 0.709453 0.752123
vt 0.982837 0.995141
vt 0.944647 0.227483
vt 0.982837 0.227483
vt 0.944647 0.995141
vt 0.875000 0.500000
vt 0.625000 0.583333
vt 0.625000 0.500000
vt 0.875000 0.583333
vt 0.903064 0.762836
vt 0.952926 0.858122
vt 0.899649 0.858122
vt 0.989554 0.169482
vt 0.889367 0.106168
vt 0.989554 0.106168
vt 0.008519 0.036920
vt 0.983865 0.107523
vt 0.008519 0.107523
vt 0.490454 0.708941
vt 0.431583 0.919520
vt 0.431583 0.708941
vt 0.458116 0.989108
vt 0.480155 0.910276
vt 0.480155 0.989108
vt 0.950867 0.843598
vt 0.905891 0.929545
vt 0.902811 0.843598
vt 0.458116 0.910276
vt 0.480155 0.221513
vt 0.889367 0.169482
vt 0.014037 0.106168
vt 0.014037 0.042855
vt 0.889367 0.042855
vt 0.905891 0.757651
vt 0.953947 0.757651
vt 0.983865 0.178126
vt 0.008519 0.178126
vt 0.989554 0.042855
vt 0.903064 0.953407
vt 0.956341 0.953407
vt 0.214835 0.507829
vt 0.054696 0.561209
vt 0.054696 0.507829
vt 0.214835 0.561209
vt 0.054696 0.614589
vt 0.214835 0.614589
vt 0.054696 0.667969
vt 0.214835 0.667969
vt 0.054696 0.721349
vt 0.074511 0.897957
vt 0.105813 0.952173
vt 0.043210 0.952173
vt 0.214835 0.721349
vt 0.054696 0.774729
vt 0.214835 0.774729
vt 0.054696 0.828108
vt 0.053674 0.903522
vt 0.110505 0.936334
vt 0.053674 0.969146
vt 0.216636 0.510088
vt 0.060708 0.562064
vt 0.060708 0.510088
vt 0.216636 0.562064
vt 0.060708 0.614040
vt 0.216636 0.614040
vt 0.060708 0.666016
vt 0.216636 0.666016
vt 0.060708 0.717991
vt 0.072266 0.972466
vt 0.040293 0.917087
vt 0.104238 0.917087
vt 0.216636 0.717991
vt 0.060708 0.769967
vt 0.216636 0.769967
vt 0.060708 0.821943
vt 0.105001 0.956359
vt 0.071014 0.897493
vt 0.037028 0.956359
vt 0.625000 0.250000
vt 0.894099 0.892743
vt 0.991378 0.044317
vt 0.486547 0.931239
vt 0.953947 0.925749
vt 0.469539 0.983431
vt 0.452397 0.224434
vt 0.014389 0.185423
vt 0.875000 0.666667
vt 0.973066 0.167251
vt 0.868268 0.995141
vt 0.818980 0.926408
vt 0.854228 0.994726
vt 0.985516 0.187161
vt 0.818980 0.664981
vt 0.956341 0.762836
vt 0.983865 0.036920
vt 0.490454 0.919520
vt 0.953947 0.929545
vt 0.458116 0.221513
vt 0.014037 0.169482
vt 0.043210 0.916029
vt 0.105813 0.916029
vt 0.074511 0.970245
vt 0.214835 0.828108
vt 0.034730 0.936334
vt 0.091561 0.903522
vt 0.091561 0.969146
vt 0.104238 0.954006
vt 0.040293 0.954006
vt 0.072266 0.898628
vt 0.216636 0.821943
vt 0.071014 0.975981
vt 0.105001 0.917115
vt 0.037028 0.917115
s 0
usemtl Material.001
f 2/1/1 14/2/1 13/3/1
f 4/4/2 15/5/2 14/6/2
f 8/7/3 16/8/3 15/9/3
f 1/10/4 17/11/4 13/12/4
f 7/13/5 1/14/5 3/15/5
f 4/16/6 6/17/6 8/18/6
f 18/19/7 10/20/7 17/21/7
f 5/22/5 9/23/5 1/24/5
f 2/25/6 11/26/6 6/17/6
f 6/27/3 18/28/3 16/8/3
f 16/8/8 12/29/8 5/30/8
f 18/19/7 9/31/7 12/32/7
f 13/12/1 10/33/1 2/34/1
f 15/9/8 5/30/8 7/35/8
f 3/36/2 15/5/2 7/37/2
f 13/3/4 3/38/4 1/39/4
f 30/40/6 25/41/6 21/42/6
f 21/43/7 26/44/7 22/45/7
f 32/46/9 24/47/9 27/48/9
f 33/49/5 26/50/5 28/51/5
f 30/52/10 22/53/10 33/54/10
f 23/55/2 20/56/2 24/57/2
f 19/58/10 34/59/10 20/60/10
f 29/61/10 33/54/10 34/59/10
f 24/62/5 34/63/5 27/64/5
f 34/63/5 28/51/5 27/64/5
f 25/65/11 28/66/11 26/67/11
f 31/68/12 27/48/12 28/66/12
f 23/69/6 29/70/6 19/71/6
f 32/72/6 30/40/6 29/70/6
f 36/1/13 48/2/13 47/3/13
f 38/73/2 49/74/2 48/75/2
f 42/76/14 50/77/14 49/78/14
f 35/79/15 51/80/15 47/81/15
f 41/82/5 35/83/5 37/84/5
f 38/85/6 40/86/6 42/87/6
f 52/88/7 44/89/7 51/90/7
f 39/22/5 43/23/5 35/24/5
f 36/91/6 45/92/6 40/86/6
f 40/93/14 52/94/14 50/77/14
f 50/77/16 46/95/16 39/96/16
f 52/88/7 43/97/7 46/98/7
f 47/81/13 44/99/13 36/100/13
f 49/78/16 39/96/16 41/101/16
f 37/102/2 49/74/2 41/103/2
f 47/3/15 37/38/15 35/39/15
f 54/104/17 55/105/17 53/106/17
f 56/107/5 57/108/5 55/105/5
f 58/109/18 59/110/18 57/108/18
f 60/111/19 61/112/19 59/110/19
f 54/113/10 62/114/10 58/115/10
f 62/116/6 63/117/6 61/112/6
f 64/118/20 53/119/20 63/117/20
f 55/120/12 59/121/12 63/122/12
f 66/123/17 67/124/17 65/125/17
f 68/126/5 69/127/5 67/124/5
f 70/128/18 71/129/18 69/127/18
f 72/130/19 73/131/19 71/129/19
f 66/132/10 74/133/10 70/134/10
f 74/135/6 75/136/6 73/131/6
f 76/137/20 65/138/20 75/136/20
f 67/139/12 71/140/12 75/141/12
f 2/1/1 4/142/1 14/2/1
f 4/4/2 8/143/2 15/5/2
f 8/7/3 6/27/3 16/8/3
f 1/10/4 9/144/4 17/11/4
f 7/13/5 5/145/5 1/14/5
f 4/16/6 2/25/6 6/17/6
f 18/19/7 11/146/7 10/20/7
f 5/22/5 12/147/5 9/23/5
f 2/25/6 10/148/6 11/26/6
f 6/27/3 11/149/3 18/28/3
f 16/8/8 18/28/8 12/29/8
f 18/19/7 17/21/7 9/31/7
f 13/12/1 17/11/1 10/33/1
f 15/9/8 16/8/8 5/30/8
f 3/36/2 14/6/2 15/5/2
f 13/3/4 14/2/4 3/38/4
f 30/40/6 31/150/6 25/41/6
f 21/43/7 25/151/7 26/44/7
f 32/46/9 23/152/9 24/47/9
f 33/49/5 22/153/5 26/50/5
f 30/52/10 21/154/10 22/53/10
f 23/55/2 19/155/2 20/56/2
f 19/58/10 29/61/10 34/59/10
f 29/61/10 30/52/10 33/54/10
f 24/62/5 20/156/5 34/63/5
f 34/63/5 33/49/5 28/51/5
f 25/65/11 31/68/11 28/66/11
f 31/68/12 32/46/12 27/48/12
f 23/69/6 32/72/6 29/70/6
f 32/72/6 31/150/6 30/40/6
f 36/1/13 38/142/13 48/2/13
f 38/73/2 42/157/2 49/74/2
f 42/76/14 40/93/14 50/77/14
f 35/79/15 43/158/15 51/80/15
f 41/82/5 39/159/5 35/83/5
f 38/85/6 36/91/6 40/86/6
f 52/88/7 45/160/7 44/89/7
f 39/22/5 46/147/5 43/23/5
f 36/91/6 44/161/6 45/92/6
f 40/93/14 45/162/14 52/94/14
f 50/77/16 52/94/16 46/95/16
f 52/88/7 51/90/7 43/97/7
f 47/81/13 51/80/13 44/99/13
f 49/78/16 50/77/16 39/96/16
f 37/102/2 48/75/2 49/74/2
f 47/3/15 48/2/15 37/38/15
f 54/104/17 56/107/17 55/105/17
f 56/107/5 58/109/5 57/108/5
f 58/109/18 60/111/18 59/110/18
f 60/111/19 62/116/19 61/112/19
f 58/115/10 56/163/10 54/113/10
f 54/113/10 64/164/10 62/114/10
f 62/114/10 60/165/10 58/115/10
f 62/116/6 64/118/6 63/117/6
f 64/118/20 54/166/20 53/119/20
f 63/122/12 53/167/12 55/120/12
f 55/120/12 57/168/12 59/121/12
f 59/121/12 61/169/12 63/122/12
f 66/123/17 68/126/17 67/124/17
f 68/126/5 70/128/5 69/127/5
f 70/128/18 72/130/18 71/129/18
f 72/130/19 74/135/19 73/131/19
f 70/134/10 68/170/10 66/132/10
f 66/132/10 76/171/10 74/133/10
f 74/133/10 72/172/10 70/134/10
f 74/135/6 76/137/6 75/136/6
f 76/137/20 66/173/20 65/138/20
f 75/141/12 65/174/12 67/139/12
f 67/139/12 69/175/12 71/140/12
f 71/140/12 73/176/12 75/141/12
