# Blender 4.4.1
# www.blender.org
mtllib tree6_birch.mtl
o tree6
v 0.000000 -0.084301 -0.092058 0.0000 0.0000 0.0000
v -0.000000 4.932521 -0.242077 0.4980 0.4980 0.4980
v 0.083645 -0.084301 -0.057411 0.0000 0.0000 0.0000
v 0.019873 4.932521 -0.233845 0.4980 0.4980 0.4980
v 0.118291 -0.084301 0.026233 0.0000 0.0000 0.0000
v 0.028104 4.932521 -0.213973 0.4980 0.4980 0.4980
v 0.083645 -0.084301 0.109878 0.0000 0.0000 0.0000
v 0.019873 4.932521 -0.194100 0.4980 0.4980 0.4980
v -0.000000 -0.084301 0.144525 0.0000 0.0000 0.0000
v -0.000000 4.932521 -0.185868 0.4980 0.4980 0.4980
v -0.083645 -0.084301 0.109878 0.0000 0.0000 0.0000
v -0.019873 4.932521 -0.194100 0.4980 0.4980 0.4980
v -0.118291 -0.084301 0.026233 0.0000 0.0000 0.0000
v -0.028104 4.932521 -0.213973 0.4980 0.4980 0.4980
v -0.083645 -0.084301 -0.057411 0.0000 0.0000 0.0000
v -0.019873 4.932521 -0.233845 0.4980 0.4980 0.4980
v 0.039849 2.272062 -0.175326 0.0000 0.0000 0.0000
v 0.106558 2.272062 -0.147694 0.0000 0.0000 0.0000
v 0.134190 2.272062 -0.080984 0.0000 0.0000 0.0000
v 0.106558 2.272062 -0.014275 0.0000 0.0000 0.0000
v 0.039849 2.272062 0.013357 0.0000 0.0000 0.0000
v -0.026860 2.272062 -0.014275 0.0000 0.0000 0.0000
v -0.054492 2.272062 -0.080984 0.0000 0.0000 0.0000
v -0.026860 2.272062 -0.147694 0.0000 0.0000 0.0000
v 0.115288 1.093881 -0.184435 0.0000 0.0000 0.0000
v 0.146932 1.093881 -0.108039 0.0000 0.0000 0.0000
v 0.115288 1.093881 -0.031643 0.0000 0.0000 0.0000
v 0.038892 1.093881 0.000001 0.0000 0.0000 0.0000
v -0.037504 1.093881 -0.031643 0.0000 0.0000 0.0000
v -0.069148 1.093881 -0.108039 0.0000 0.0000 0.0000
v -0.037504 1.093881 -0.184435 0.0000 0.0000 0.0000
v 0.038892 1.093881 -0.216080 0.0000 0.0000 0.0000
v 0.005636 1.812410 -0.165955 0.0000 0.0000 0.0000
v 1.186169 4.026436 -0.877629 0.5059 0.5059 0.5059
v 0.058719 1.784756 -0.167112 0.0000 0.0000 0.0000
v 1.198781 4.019865 -0.877904 0.5216 0.5216 0.5216
v 0.101373 1.773301 -0.126698 0.0000 0.0000 0.0000
v 1.208915 4.017143 -0.868302 0.6000 0.6000 0.6000
v 0.108612 1.784756 -0.068386 0.0000 0.0000 0.0000
v 1.210634 4.019865 -0.854448 0.6980 0.6980 0.6980
v 0.076195 1.812410 -0.026335 0.0000 0.0000 0.0000
v 1.202933 4.026436 -0.844457 0.7020 0.7020 0.7020
v 0.023113 1.840065 -0.025178 0.0000 0.0000 0.0000
v 1.190321 4.033005 -0.844182 0.6157 0.6157 0.6157
v -0.019541 1.851519 -0.065592 0.0000 0.0000 0.0000
v 1.180187 4.035727 -0.853784 0.5333 0.5333 0.5333
v -0.026780 1.840065 -0.123904 0.0000 0.0000 0.0000
v 1.178467 4.033005 -0.867638 0.5059 0.5059 0.5059
v 0.705708 3.027484 -0.403478 0.7490 0.7490 0.7490
v 0.748043 3.005430 -0.404401 0.4980 0.4980 0.4980
v 0.782061 2.996294 -0.372170 0.4980 0.4980 0.4980
v 0.787835 3.005430 -0.325664 0.4980 0.4980 0.4980
v 0.761981 3.027484 -0.292127 0.5216 0.5216 0.5216
v 0.719646 3.049539 -0.291204 0.9098 0.9098 0.9098
v 0.685628 3.058675 -0.323436 0.9882 0.9882 0.9882
v 0.679855 3.049539 -0.369941 0.9804 0.9804 0.9804
v 0.426400 2.390723 -0.256990 0.0745 0.0745 0.0745
v 0.465358 2.380260 -0.220078 0.0745 0.0745 0.0745
v 0.471969 2.390723 -0.166820 0.0000 0.0000 0.0000
v 0.442362 2.415980 -0.128413 0.0000 0.0000 0.0000
v 0.393879 2.441238 -0.127355 0.0000 0.0000 0.0000
v 0.354922 2.451700 -0.164267 0.0000 0.0000 0.0000
v 0.348310 2.441238 -0.217526 0.0000 0.0000 0.0000
v 0.377917 2.415980 -0.255933 0.0000 0.0000 0.0000
v 0.033790 2.789442 -0.048471 0.5059 0.5059 0.5059
v -0.769256 4.221239 0.338542 0.4980 0.4980 0.4980
v -0.000458 2.771558 -0.050928 0.4980 0.4980 0.4980
v -0.777393 4.216990 0.337958 0.4980 0.4980 0.4980
v -0.025484 2.764150 -0.079523 0.4980 0.4980 0.4980
v -0.783339 4.215230 0.331164 0.4980 0.4980 0.4980
v -0.026627 2.771558 -0.117505 0.4980 0.4980 0.4980
v -0.783611 4.216990 0.322140 0.4980 0.4980 0.4980
v -0.003218 2.789442 -0.142625 0.4980 0.4980 0.4980
v -0.778049 4.221239 0.316172 0.4980 0.4980 0.4980
v 0.031030 2.807326 -0.140168 0.4980 0.4980 0.4980
v -0.769912 4.225487 0.316756 0.4980 0.4980 0.4980
v 0.056056 2.814734 -0.111573 0.5921 0.5921 0.5921
v -0.763966 4.227247 0.323550 0.4980 0.4980 0.4980
v 0.057199 2.807326 -0.073591 0.5843 0.5843 0.5843
v -0.763695 4.225487 0.332574 0.4980 0.4980 0.4980
v -0.431297 3.575223 0.062232 0.4980 0.4980 0.4980
v -0.458611 3.560961 0.060273 0.4980 0.4980 0.4980
v -0.478570 3.555053 0.037468 0.4980 0.4980 0.4980
v -0.479482 3.560961 0.007176 0.4980 0.4980 0.4980
v -0.460812 3.575223 -0.012858 0.4980 0.4980 0.4980
v -0.433498 3.589486 -0.010899 0.4980 0.4980 0.4980
v -0.413539 3.595394 0.011906 0.4980 0.4980 0.4980
v -0.412627 3.589486 0.042198 0.4980 0.4980 0.4980
v -0.242620 3.163433 -0.015238 0.4980 0.4980 0.4980
v -0.265477 3.156667 -0.041355 0.4980 0.4980 0.4980
v -0.266522 3.163433 -0.076046 0.4980 0.4980 0.4980
v -0.245141 3.179767 -0.098989 0.4980 0.4980 0.4980
v -0.213861 3.196101 -0.096745 0.4980 0.4980 0.4980
v -0.191004 3.202866 -0.070628 0.4980 0.4980 0.4980
v -0.189959 3.196101 -0.035937 0.4980 0.4980 0.4980
v -0.211340 3.179767 -0.012994 0.4980 0.4980 0.4980
v -0.026504 3.676543 -0.185512 0.7921 0.7921 0.7921
v 0.292518 4.472935 -0.827141 0.4980 0.4980 0.4980
v -0.006640 3.664601 -0.198612 0.9019 0.9019 0.9019
v 0.299882 4.468508 -0.831997 0.4980 0.4980 0.4980
v 0.020250 3.660894 -0.194038 0.9843 0.9843 0.9843
v 0.309851 4.467132 -0.830302 0.4980 0.4980 0.4980
v 0.038413 3.667594 -0.174469 1.0000 1.0000 1.0000
v 0.316584 4.469617 -0.823047 0.4980 0.4980 0.4980
v 0.037209 3.680776 -0.151369 1.0000 1.0000 1.0000
v 0.316138 4.474504 -0.814484 0.4980 0.4980 0.4980
v 0.017344 3.692719 -0.138269 0.9960 0.9960 0.9960
v 0.308773 4.478931 -0.809627 0.4980 0.4980 0.4980
v -0.009545 3.696426 -0.142843 0.9451 0.9451 0.9451
v 0.298805 4.480305 -0.811323 0.4980 0.4980 0.4980
v -0.027708 3.689726 -0.162412 0.8274 0.8274 0.8274
v 0.292072 4.477821 -0.818577 0.4980 0.4980 0.4980
v 0.176736 4.089195 -0.514064 0.4980 0.4980 0.4980
v 0.192579 4.079670 -0.524512 0.4980 0.4980 0.4980
v 0.214024 4.076714 -0.520863 0.4980 0.4980 0.4980
v 0.228509 4.082057 -0.505257 0.4980 0.4980 0.4980
v 0.227550 4.092571 -0.486834 0.4980 0.4980 0.4980
v 0.211707 4.102096 -0.476386 0.4980 0.4980 0.4980
v 0.190261 4.105052 -0.480034 0.4980 0.4980 0.4980
v 0.175776 4.099708 -0.495640 0.4980 0.4980 0.4980
v 0.109320 3.871126 -0.356552 0.4980 0.4980 0.4980
v 0.133879 3.867740 -0.352375 0.4980 0.4980 0.4980
v 0.150468 3.873860 -0.334502 0.4980 0.4980 0.4980
v 0.149369 3.885900 -0.313403 0.4980 0.4980 0.4980
v 0.131225 3.896807 -0.301439 0.4980 0.4980 0.4980
v 0.106666 3.900193 -0.305616 0.4980 0.4980 0.4980
v 0.090077 3.894074 -0.323489 0.4980 0.4980 0.4980
v 0.091176 3.882033 -0.344588 0.4980 0.4980 0.4980
v 0.651279 2.810818 -0.153081 0.4980 0.4980 0.4980
v -0.310124 2.810818 -0.153081 0.4980 0.4980 0.4980
v 0.651278 3.381269 -1.306636 0.4980 0.4980 0.4980
v -0.310124 3.381269 -1.306636 0.4980 0.4980 0.4980
v 0.651278 3.179561 -0.688558 0.7529 0.7529 0.7529
v -0.310124 3.179561 -0.688558 0.4980 0.4980 0.4980
v 0.170577 2.882417 -0.117674 1.0000 1.0000 1.0000
v 0.170577 3.452869 -1.271229 0.4980 0.4980 0.4980
v 0.170577 3.251160 -0.653151 0.4980 0.4980 0.4980
v -0.078147 2.373074 -0.576351 0.4980 0.4980 0.4980
v -0.078147 3.077668 0.077746 0.4980 0.4980 0.4980
v 0.165998 3.232722 -1.502365 0.9804 0.9804 0.9804
v 0.165998 3.937315 -0.848269 0.4980 0.4980 0.4980
v 0.135404 2.860346 -0.958546 0.4980 0.4980 0.4980
v 0.135404 3.564940 -0.304450 0.8470 0.8470 0.8470
v 0.000278 2.715061 -0.238196 0.4980 0.4980 0.4980
v 0.244423 3.574709 -1.164211 0.4980 0.4980 0.4980
v 0.213829 3.202333 -0.620392 0.4980 0.4980 0.4980
v 1.164033 3.896612 -0.164883 0.4980 0.4980 0.4980
v 1.167677 3.896612 -1.143968 0.4980 0.4980 0.4980
v 2.338804 4.477558 -0.160512 1.0000 1.0000 1.0000
v 2.342448 4.477558 -1.139596 1.0000 1.0000 1.0000
v 1.709359 4.272138 -0.162854 1.0000 1.0000 1.0000
v 1.713002 4.272138 -1.141938 1.0000 1.0000 1.0000
v 1.129797 3.969528 -0.654559 1.0000 1.0000 1.0000
v 2.304567 4.550475 -0.650188 1.0000 1.0000 1.0000
v 1.675122 4.345056 -0.652530 1.0000 1.0000 1.0000
v 1.597852 3.450813 -0.906120 1.0000 1.0000 1.0000
v 0.931725 4.168371 -0.908599 0.4980 0.4980 0.4980
v 2.539972 4.326277 -0.653976 1.0000 1.0000 1.0000
v 1.873845 5.043834 -0.656454 1.0000 1.0000 1.0000
v 1.986267 3.947051 -0.687193 1.0000 1.0000 1.0000
v 1.320141 4.664608 -0.689672 1.0000 1.0000 1.0000
v 1.253181 3.799093 -0.827534 1.0000 1.0000 1.0000
v 2.195301 4.674556 -0.575389 1.0000 1.0000 1.0000
v 1.641597 4.295330 -0.608607 1.0000 1.0000 1.0000
v 0.073365 4.869619 0.571120 0.4980 0.4980 0.4980
v 0.074634 4.873720 -0.582614 0.4980 0.4980 0.4980
v -0.171433 6.394440 0.576271 1.0000 1.0000 1.0000
v -0.170164 6.398542 -0.577463 1.0000 1.0000 1.0000
v -0.159431 5.614306 0.573511 0.9294 0.9294 0.9294
v -0.158162 5.618409 -0.580223 0.4980 0.4980 0.4980
v -0.020645 4.856475 -0.005905 0.4980 0.4980 0.4980
v -0.265442 6.381298 -0.000754 1.0000 1.0000 1.0000
v -0.253441 5.601164 -0.003514 0.9804 0.9804 0.9804
v 0.726316 5.202701 -0.302339 0.4980 0.4980 0.4980
v -0.313479 4.702762 -0.305261 0.4980 0.4980 0.4980
v 0.068938 6.568206 -0.005217 1.0000 1.0000 1.0000
v -0.970856 6.068266 -0.008138 1.0000 1.0000 1.0000
v 0.302979 5.812798 -0.044360 0.4980 0.4980 0.4980
v -0.736814 5.312857 -0.047281 1.0000 1.0000 1.0000
v 0.214195 4.936008 -0.209736 0.4980 0.4980 0.4980
v -0.443183 6.301512 0.087387 1.0000 1.0000 1.0000
v -0.209141 5.546104 0.048245 0.7294 0.7294 0.7294
v -1.393264 4.116285 0.512959 0.5530 0.5530 0.5530
v -0.453022 4.190198 0.305068 0.5647 0.5647 0.5647
v -1.444490 5.389015 0.733785 1.0000 1.0000 1.0000
v -0.504247 5.462929 0.525894 1.0000 1.0000 1.0000
v -1.439935 4.767416 0.533380 1.0000 1.0000 1.0000
v -0.499693 4.841330 0.325489 1.0000 1.0000 1.0000
v -0.941196 4.165900 0.331863 0.4980 0.4980 0.4980
v -0.992422 5.438632 0.552689 1.0000 1.0000 1.0000
v -0.987868 4.817033 0.352283 1.0000 1.0000 1.0000
v -0.556177 4.263768 0.947263 0.4980 0.4980 0.4980
v -0.753556 4.138845 0.010153 0.4980 0.4980 0.4980
v -0.924547 5.499864 0.860072 1.0000 1.0000 1.0000
v -1.121925 5.374939 -0.077037 1.0000 1.0000 1.0000
v -0.847693 4.842166 0.831050 1.0000 1.0000 1.0000
v -1.045071 4.717244 -0.106059 1.0000 1.0000 1.0000
v -0.730011 4.180227 0.497346 1.0000 1.0000 1.0000
v -1.098381 5.416323 0.410155 1.0000 1.0000 1.0000
v -1.021528 4.758625 0.381132 1.0000 1.0000 1.0000
v -0.560972 3.736791 -0.178172 0.4980 0.4980 0.4980
v 0.322748 3.736791 -0.178172 0.5176 0.5176 0.5176
v -0.560972 3.481130 -1.333127 0.4980 0.4980 0.4980
v 0.322748 3.481130 -1.333127 0.4980 0.4980 0.4980
v -0.560972 3.503516 -0.727635 0.4980 0.4980 0.4980
v 0.322748 3.503516 -0.727635 0.4980 0.4980 0.4980
v 0.020091 3.127357 -0.106203 0.4980 0.4980 0.4980
v 0.046434 4.002550 -0.225807 0.4980 0.4980 0.4980
v -0.269654 2.988691 -1.209659 0.4980 0.4980 0.4980
v -0.243311 3.863883 -1.329262 0.4980 0.4980 0.4980
v -0.077441 3.050502 -0.690075 0.4980 0.4980 0.4980
v -0.051098 3.925694 -0.809679 0.4980 0.4980 0.4980
v -0.219033 4.667611 -1.029150 0.4980 0.4980 0.4980
v 0.518987 4.319444 -0.689936 1.0000 1.0000 1.0000
v 0.341509 5.696343 -1.192822 1.0000 1.0000 1.0000
v 1.079528 5.348176 -0.853607 1.0000 1.0000 1.0000
v 0.089522 5.145585 -1.209875 0.5216 0.5216 0.5216
v 0.827542 4.797418 -0.870660 0.4980 0.4980 0.4980
v 0.465887 4.310509 -1.372057 0.5843 0.5843 0.5843
v 0.207702 4.499044 -0.548191 0.4980 0.4980 0.4980
v 0.719849 5.418342 -1.542366 1.0000 1.0000 1.0000
v 0.461663 5.606876 -0.718500 0.6039 0.6039 0.6039
v 0.648157 4.874363 -1.443970 0.4980 0.4980 0.4980
v 0.389972 5.062899 -0.620105 0.4980 0.4980 0.4980
v 0.451278 5.023026 -0.507269 0.4980 0.4980 0.4980
v -0.213869 4.741755 -0.108336 0.4980 0.4980 0.4980
v 0.721554 5.632536 0.373107 0.4980 0.4980 0.4980
v 0.056406 5.351265 0.772040 0.4980 0.4980 0.4980
v 0.640190 5.247981 -0.033686 0.4980 0.4980 0.4980
v -0.024957 4.966710 0.365247 0.4980 0.4980 0.4980
v 0.335017 4.435932 0.006849 0.7764 0.7764 0.7764
v -0.144056 5.015741 -0.332256 0.4980 0.4980 0.4980
v 0.754264 5.171975 0.665388 0.9804 0.9804 0.9804
v 0.275190 5.751784 0.326283 0.6550 0.6550 0.6550
v 0.516751 4.805613 0.382191 0.4980 0.4980 0.4980
v 0.037678 5.385421 0.043087 0.4980 0.4980 0.4980
v 0.138804 4.420675 0.434389 0.4980 0.4980 0.4980
v 0.017303 4.080406 -0.496006 0.4980 0.4980 0.4980
v -0.968246 5.158031 0.309289 1.0000 1.0000 1.0000
v -1.089747 4.817762 -0.621106 1.0000 1.0000 1.0000
v -0.477720 4.692815 0.415373 1.0000 1.0000 1.0000
v -0.599221 4.352546 -0.515022 0.4980 0.4980 0.4980
v -0.375393 3.710436 0.057280 0.4980 0.4980 0.4980
v 0.232003 4.411862 -0.310486 0.4980 0.4980 0.4980
v -1.308262 4.600867 0.204504 0.7216 0.7216 0.7216
v -0.700866 5.302292 -0.163263 1.0000 1.0000 1.0000
v -0.879475 4.157659 0.077717 0.4980 0.4980 0.4980
v -0.272080 4.859083 -0.290049 0.4980 0.4980 0.4980
v 0.055210 4.064388 0.099171 0.9921 0.9921 0.9921
v -0.881757 3.724119 0.149076 0.4980 0.4980 0.4980
v -0.154288 4.801744 1.193392 0.4980 0.4980 0.4980
v -1.091255 4.461475 1.243297 1.0000 1.0000 1.0000
v -0.010957 4.336528 0.712429 0.4980 0.4980 0.4980
v -0.947924 3.996259 0.762334 1.0000 1.0000 1.0000
v -0.360163 3.354149 0.582984 0.4980 0.4980 0.4980
v -0.680342 4.055574 -0.050789 0.4980 0.4980 0.4980
v -0.284800 4.244580 1.524386 0.4980 0.4980 0.4980
v -0.604979 4.946005 0.890614 0.7255 0.7255 0.7255
v -0.378383 3.801371 1.087150 0.4980 0.4980 0.4980
v -0.698562 4.502796 0.453379 1.0000 1.0000 1.0000
v -0.892080 3.848004 0.544751 0.5176 0.5176 0.5176
v -0.249430 3.507735 -0.138914 0.4980 0.4980 0.4980
v -1.496965 4.585361 -0.390837 1.0000 1.0000 1.0000
v -0.854314 4.245091 -1.074502 0.4980 0.4980 0.4980
v -1.268124 4.120144 0.055819 0.4980 0.4980 0.4980
v -0.625474 3.779875 -0.627846 0.4980 0.4980 0.4980
v -0.926286 3.137765 -0.091991 0.4980 0.4980 0.4980
v -0.256852 3.839190 0.144738 0.4980 0.4980 0.4980
v -1.631415 4.028195 -0.720251 1.0000 1.0000 1.0000
v -0.961981 4.729622 -0.483523 1.0000 1.0000 1.0000
v -1.261581 3.584987 -0.468943 0.9686 0.9686 0.9686
v -0.592148 4.286412 -0.232215 0.4980 0.4980 0.4980
v 1.659819 3.848004 -0.754857 1.0000 1.0000 1.0000
v 0.725072 3.507735 -0.673337 0.4980 0.4980 0.4980
v 1.487394 4.585361 0.345816 1.0000 1.0000 1.0000
v 0.552647 4.245091 0.427335 0.4980 0.4980 0.4980
v 1.614400 4.120144 -0.139714 1.0000 1.0000 1.0000
v 0.679653 3.779875 -0.058195 0.4980 0.4980 0.4980
v 1.261021 3.137765 -0.257292 0.4980 0.4980 0.4980
v 0.919621 3.839190 -0.879890 0.5490 0.5490 0.5490
v 1.368134 4.028195 0.681029 1.0000 1.0000 1.0000
v 1.026734 4.729622 0.058431 1.0000 1.0000 1.0000
v 1.259839 3.584987 0.247202 0.4980 0.4980 0.4980
v 0.918439 4.286412 -0.375395 0.5019 0.5019 0.5019
v 0.883341 4.007730 -0.148878 0.4980 0.4980 0.4980
v 1.264271 3.667460 -1.006368 0.9960 0.9960 0.9960
v 0.003510 4.745087 -0.832330 0.4980 0.4980 0.4980
v 0.384440 4.404817 -1.689820 0.7294 0.7294 0.7294
v 0.366972 4.279870 -0.486259 0.4980 0.4980 0.4980
v 0.747901 3.939601 -1.343750 0.4980 0.4980 0.4980
v 0.640851 3.297491 -0.738631 0.4980 0.4980 0.4980
v 1.350904 3.998916 -0.736168 1.0000 1.0000 1.0000
v -0.232150 4.187922 -1.098892 0.4980 0.4980 0.4980
v 0.477903 4.889348 -1.096429 0.4980 0.4980 0.4980
v 0.199913 3.744713 -0.983763 0.4980 0.4980 0.4980
v 0.909966 4.446138 -0.981300 0.4980 0.4980 0.4980
v 1.205340 3.794257 -0.212090 0.4980 0.4980 0.4980
v 1.189457 4.043669 -1.178383 0.4980 0.4980 0.4980
v 1.204822 5.087862 0.121813 1.0000 1.0000 1.0000
v 1.188939 5.337272 -0.844480 1.0000 1.0000 1.0000
v 1.081985 4.435533 -0.044541 1.0000 1.0000 1.0000
v 1.066101 4.684945 -1.010835 1.0000 1.0000 1.0000
v 0.505354 4.022446 -0.819543 0.4980 0.4980 0.4980
v 1.499076 3.955060 -0.884001 1.0000 1.0000 1.0000
v 0.626502 5.152143 -0.191935 0.4980 0.4980 0.4980
v 1.620225 5.084757 -0.256393 1.0000 1.0000 1.0000
v 0.564614 4.636752 -0.548178 0.9255 0.9255 0.9255
v 1.558335 4.569366 -0.612637 1.0000 1.0000 1.0000
v -0.435348 3.780301 -0.577683 0.4980 0.4980 0.4980
v 0.483195 4.120453 -0.385966 0.4980 0.4980 0.4980
v -0.750791 4.949794 -1.141318 0.4980 0.4980 0.4980
v 0.167753 5.289946 -0.949602 0.4980 0.4980 0.4980
v -0.553451 4.318319 -0.966414 0.4980 0.4980 0.4980
v 0.365093 4.658471 -0.774697 0.4980 0.4980 0.4980
v 0.367329 3.828239 -1.091940 0.4980 0.4980 0.4980
v 0.103869 4.107771 -0.170729 0.4980 0.4980 0.4980
v -0.265445 4.851424 -1.579253 1.0000 1.0000 1.0000
v -0.528906 5.130958 -0.658042 0.4980 0.4980 0.4980
v 0.091485 4.390535 -1.341453 0.4980 0.4980 0.4980
v -0.171975 4.670068 -0.420243 0.4980 0.4980 0.4980
v 0.257926 4.982199 -0.454611 0.4980 0.4980 0.4980
v -0.102797 4.131629 -0.076998 0.4980 0.4980 0.4980
v 0.029217 5.596109 0.709739 0.9294 0.9294 0.9294
v -0.331506 4.745540 1.087351 0.4980 0.4980 0.4980
v 0.257296 5.255980 0.161478 0.4980 0.4980 0.4980
v -0.103428 4.405412 0.539090 0.4980 0.4980 0.4980
v 0.640923 4.282276 0.069290 0.4980 0.4980 0.4980
v -0.267159 4.468143 -0.300875 0.4980 0.4980 0.4980
v 0.438370 5.164979 0.999125 1.0000 1.0000 1.0000
v -0.469711 5.350846 0.628961 0.9960 0.9960 0.9960
v 0.514352 4.695083 0.587067 0.4980 0.4980 0.4980
v -0.393729 4.880949 0.216903 1.0000 1.0000 1.0000
v -0.002738 4.271952 -0.552251 0.4980 0.4980 0.4980
v -0.037463 3.280455 0.055501 0.4980 0.4980 0.4980
v 0.674316 4.987579 0.653920 0.4980 0.4980 0.4980
v 0.639592 3.996082 1.261671 1.0000 1.0000 1.0000
v 0.462346 4.591095 -0.005022 0.9568 0.9568 0.9568
v 0.427622 3.599599 0.602731 0.7255 0.7255 0.7255
v 0.733123 3.456061 -0.376783 0.4980 0.4980 0.4980
v -0.352535 3.672724 -0.018954 0.4980 0.4980 0.4980
v 1.256143 4.485016 0.601496 1.0000 1.0000 1.0000
v 0.170486 4.701679 0.959326 0.4980 0.4980 0.4980
v 1.012137 3.937264 0.178385 0.4980 0.4980 0.4980
v -0.073519 4.153927 0.536215 0.4980 0.4980 0.4980
v -0.657339 4.731622 -0.433182 0.4980 0.4980 0.4980
v 0.274121 4.735250 -0.016566 0.4980 0.4980 0.4980
v -0.573321 6.080204 -0.632770 0.6432 0.6432 0.6432
v 0.358139 6.083831 -0.216154 0.4980 0.4980 0.4980
v -0.575415 5.390238 -0.622081 0.4980 0.4980 0.4980
v 0.356045 5.393866 -0.205465 0.4980 0.4980 0.4980
v -0.157390 4.719997 -0.301264 0.4980 0.4980 0.4980
v -0.073371 6.068580 -0.500853 0.4980 0.4980 0.4980
v -0.075464 5.378615 -0.490165 0.4980 0.4980 0.4980
v -0.187013 5.026206 0.408865 0.4980 0.4980 0.4980
v 0.189894 4.584051 -0.429967 0.4980 0.4980 0.4980
v -0.190214 6.233887 -0.229152 1.0000 1.0000 1.0000
v 0.186693 5.791729 -1.067984 1.0000 1.0000 1.0000
v -0.242902 5.565787 -0.026008 0.6667 0.6667 0.6667
v 0.134005 5.123631 -0.864839 0.4980 0.4980 0.4980
v -0.077340 4.790337 -0.038152 0.4980 0.4980 0.4980
v -0.080542 5.998017 -0.676170 0.4980 0.4980 0.4980
v -0.133230 5.329918 -0.473026 0.4980 0.4980 0.4980
v -0.387819 3.532712 0.614009 0.4980 0.4980 0.4980
v -0.390716 3.532712 -0.269706 0.4980 0.4980 0.4980
v -1.542768 3.277051 0.617794 0.5686 0.5686 0.5686
v -1.545665 3.277051 -0.265921 1.0000 1.0000 1.0000
v -0.937279 3.299437 0.615810 0.4980 0.4980 0.4980
v -0.940175 3.299437 -0.267905 0.4980 0.4980 0.4980
v -0.317755 2.923278 0.032713 0.4980 0.4980 0.4980
v -0.437445 3.798470 0.006762 0.4980 0.4980 0.4980
v -1.420255 2.784612 0.326073 1.0000 1.0000 1.0000
v -1.539945 3.659803 0.300122 1.0000 1.0000 1.0000
v -0.901305 2.846422 0.132158 0.6745 0.6745 0.6745
v -1.020994 3.721614 0.106208 0.4980 0.4980 0.4980
v 0.592196 3.773322 0.097464 0.4980 0.4980 0.4980
v -0.203136 3.773322 -0.287770 0.4980 0.4980 0.4980
v 0.088723 3.517661 1.136905 0.4980 0.4980 0.4980
v -0.706609 3.517661 0.751670 0.4980 0.4980 0.4980
v 0.352672 3.540048 0.591971 0.8902 0.8902 0.8902
v -0.442661 3.540048 0.206737 0.4980 0.4980 0.4980
v 0.100622 3.163889 -0.220606 0.4980 0.4980 0.4980
v 0.024776 4.039081 -0.124448 0.4980 0.4980 0.4980
v -0.119635 3.025222 0.898793 0.4980 0.4980 0.4980
v -0.195481 3.900414 0.994950 0.4980 0.4980 0.4980
v -0.066124 3.087033 0.347386 0.4980 0.4980 0.4980
v -0.141971 3.962225 0.443544 1.0000 1.0000 1.0000
v 1.155046 4.319843 -1.165710 0.4980 0.4980 0.4980
v 1.014683 3.556484 -0.538206 0.9490 0.9490 0.9490
v 2.434551 3.964343 -1.311971 1.0000 1.0000 1.0000
v 2.294188 3.200984 -0.684468 1.0000 1.0000 1.0000
v 1.758958 4.071230 -1.333062 1.0000 1.0000 1.0000
v 1.618595 3.307872 -0.705558 0.6941 0.6941 0.6941
v 0.956113 3.394847 -1.291636 0.4980 0.4980 0.4980
v 1.123233 3.977215 -0.498479 1.0000 1.0000 1.0000
v 2.229129 3.380658 -1.544646 1.0000 1.0000 1.0000
v 2.396250 3.963027 -0.751489 1.0000 1.0000 1.0000
v 1.620695 3.336676 -1.388954 1.0000 1.0000 1.0000
v 1.787815 3.919044 -0.595797 1.0000 1.0000 1.0000
v 0.544296 4.077262 -1.068543 0.4980 0.4980 0.4980
v 1.443472 3.889793 -0.678007 1.0000 1.0000 1.0000
v 1.106021 4.880736 -1.976177 1.0000 1.0000 1.0000
v 2.005197 4.693267 -1.585640 1.0000 1.0000 1.0000
v 0.836253 4.380293 -1.595284 0.7960 0.7960 0.7960
v 1.735429 4.192826 -1.204748 1.0000 1.0000 1.0000
v 1.238983 3.460220 -1.286993 0.4980 0.4980 0.4980
v 1.124317 4.177592 -0.602589 1.0000 1.0000 1.0000
v 1.457467 4.364253 -2.192406 1.0000 1.0000 1.0000
v 1.342801 5.081626 -1.508003 1.0000 1.0000 1.0000
v 1.412117 3.924267 -1.744386 0.4980 0.4980 0.4980
v 1.297451 4.641639 -1.059983 1.0000 1.0000 1.0000
v -0.543315 3.940598 0.097047 0.4980 0.4980 0.4980
v 0.262668 3.940598 -0.265376 0.4980 0.4980 0.4980
v -1.016908 4.196996 -0.956165 0.4980 0.4980 0.4980
v -0.210924 4.196996 -1.318587 0.4980 0.4980 0.4980
v -0.787975 3.961393 -0.447044 0.4980 0.4980 0.4980
v 0.018009 3.961393 -0.809467 0.4980 0.4980 0.4980
v -0.092242 3.357849 -0.316666 0.4980 0.4980 0.4980
v 0.039017 4.201590 -0.088996 0.4980 0.4980 0.4980
v -0.790674 3.698515 -1.163387 0.4980 0.4980 0.4980
v -0.659415 4.542254 -0.935717 0.4980 0.4980 0.4980
v -0.411534 3.534949 -0.788911 0.4980 0.4980 0.4980
v -0.280275 4.378689 -0.561241 0.4980 0.4980 0.4980
v -0.542591 4.689667 -0.281435 0.4980 0.4980 0.4980
v 0.223946 4.435304 -0.112907 0.8235 0.8235 0.8235
v -0.134669 5.513463 -0.893458 0.4980 0.4980 0.4980
v 0.631868 5.259099 -0.724929 0.4980 0.4980 0.4980
v -0.342085 5.038310 -0.667206 0.4980 0.4980 0.4980
v 0.424452 4.783945 -0.498677 0.4980 0.4980 0.4980
v -0.027925 4.228693 -0.662401 0.4980 0.4980 0.4980
v -0.014841 4.655909 0.043288 0.5019 0.5019 0.5019
v 0.104392 5.140082 -1.212912 0.5019 0.5019 0.5019
v 0.117476 5.567297 -0.507223 0.4980 0.4980 0.4980
v 0.090673 4.693531 -0.946007 0.4980 0.4980 0.4980
v 0.103757 5.120747 -0.240318 0.4980 0.4980 0.4980
v -0.317639 4.675344 -0.653329 0.4980 0.4980 0.4980
v 0.130718 4.405641 0.047737 0.5686 0.5686 0.5686
v 0.447065 5.548820 -0.806354 0.4980 0.4980 0.4980
v 0.895422 5.279117 -0.105288 0.8823 0.8823 0.8823
v 0.121923 5.045012 -0.792232 0.4980 0.4980 0.4980
v 0.570280 4.775308 -0.091165 0.4980 0.4980 0.4980
v 0.353861 4.186570 -0.553088 0.4980 0.4980 0.4980
v -0.165419 4.639550 -0.014187 0.4980 0.4980 0.4980
v 0.865812 5.152922 -0.866629 0.5686 0.5686 0.5686
v 0.346531 5.605902 -0.327728 0.4980 0.4980 0.4980
v 0.655414 4.679440 -0.676802 0.4980 0.4980 0.4980
v 0.136134 5.132421 -0.137902 0.4980 0.4980 0.4980
v -0.842720 3.299736 0.195093 0.4980 0.4980 0.4980
v 0.153830 2.916816 -0.153935 1.0000 1.0000 1.0000
v -0.961026 4.129514 -1.053053 0.4980 0.4980 0.4980
v 0.035523 3.746595 -1.402080 0.4980 0.4980 0.4980
v -0.964390 3.605987 -0.488292 0.4980 0.4980 0.4980
v 0.032160 3.223068 -0.837319 0.4980 0.4980 0.4980
v -0.546348 2.500474 -0.458431 0.4980 0.4980 0.4980
v -0.000821 3.289818 0.125430 0.4980 0.4980 0.4980
v -0.924277 3.502513 -1.451755 0.9294 0.9294 0.9294
v -0.378750 4.291857 -0.867893 0.4980 0.4980 0.4980
v -0.685459 3.003752 -1.008854 0.4980 0.4980 0.4980
v -0.139932 3.793096 -0.424994 0.4980 0.4980 0.4980
v 0.557359 4.231267 0.006977 0.4980 0.4980 0.4980
v -0.237974 3.967740 -0.274020 0.4980 0.4980 0.4980
v 0.053886 4.755836 0.940050 0.4980 0.4980 0.4980
v -0.741447 4.492307 0.659054 1.0000 1.0000 1.0000
v 0.317835 4.399392 0.527254 0.4980 0.4980 0.4980
v -0.477498 4.135864 0.246258 0.4980 0.4980 0.4980
v 0.065785 3.569155 0.191867 1.0000 1.0000 1.0000
v -0.010062 4.273313 -0.336688 0.4980 0.4980 0.4980
v -0.154472 4.233757 1.103231 0.4980 0.4980 0.4980
v -0.230319 4.937914 0.574677 0.4980 0.4980 0.4980
v -0.100962 3.901642 0.658744 0.4980 0.4980 0.4980
v -0.176808 4.605799 0.130190 0.5019 0.5019 0.5019
v 0.633815 2.960584 0.346624 0.4980 0.4980 0.4980
v -0.210181 2.619513 -0.345849 0.4980 0.4980 0.4980
v -0.390097 3.639508 1.260185 0.4980 0.4980 0.4980
v -1.234093 3.298436 0.567713 0.4980 0.4980 0.4980
v 0.113035 3.178179 0.874184 0.9333 0.9333 0.9333
v -0.730961 2.837108 0.181711 0.4980 0.4980 0.4980
v -0.045868 2.103644 0.354964 0.0000 0.0000 0.0000
v 0.094785 3.015002 -0.321661 0.5019 0.5019 0.5019
v -0.715567 2.963807 1.366930 1.0000 1.0000 1.0000
v -0.574913 3.875165 0.690304 0.4980 0.4980 0.4980
v -0.454550 2.533966 0.849617 0.4980 0.4980 0.4980
v -0.313897 3.445323 0.172991 0.4980 0.4980 0.4980
v 0.657886 3.251339 -0.531510 0.4980 0.4980 0.4980
v -0.273354 2.910267 0.038263 0.4980 0.4980 0.4980
v 1.184519 3.930263 0.735632 1.0000 1.0000 1.0000
v 0.253279 3.589190 1.305404 1.0000 1.0000 1.0000
v 0.985158 3.468933 0.133640 0.4980 0.4980 0.4980
v 0.053918 3.127862 0.703413 0.4980 0.4980 0.4980
v 0.442551 2.394398 0.113215 0.0000 0.0000 0.0000
v -0.150355 3.305756 -0.241846 0.4980 0.4980 0.4980
v 1.178456 3.254561 1.078106 1.0000 1.0000 1.0000
v 0.585550 4.165919 0.723045 0.4980 0.4980 0.4980
v 0.775555 2.824720 0.661677 0.5882 0.5882 0.5882
v 0.182649 3.736078 0.306616 1.0000 1.0000 1.0000
v 0.843456 2.457531 -0.340956 0.4980 0.4980 0.4980
v 0.090507 2.212342 -0.119598 0.0000 0.0000 0.0000
v 0.972057 2.945595 0.637086 0.5294 0.5294 0.5294
v 0.219108 2.700405 0.858444 1.0000 1.0000 1.0000
v 0.946245 2.613955 0.181944 0.4980 0.4980 0.4980
v 0.193296 2.368766 0.403303 0.2157 0.2157 0.2157
v 0.573424 1.841495 0.066301 0.3333 0.3333 0.3333
v 0.228264 2.496650 -0.291030 0.1608 0.1608 0.1608
v 0.903807 2.459847 0.873674 1.0000 1.0000 1.0000
v 0.558647 3.115003 0.516344 0.4980 0.4980 0.4980
v 0.702011 2.150844 0.509276 1.0000 1.0000 1.0000
v 0.356851 2.805999 0.151946 1.0000 1.0000 1.0000
v -0.092861 3.131896 -0.511930 0.4980 0.4980 0.4980
v 1.118478 2.892727 -0.200726 0.4980 0.4980 0.4980
v 0.432311 4.156950 -1.768348 0.4980 0.4980 0.4980
v 1.643650 3.917782 -1.457142 0.9372 0.9372 0.9372
v 0.169038 3.518497 -1.234243 0.4980 0.4980 0.4980
v 1.380377 3.279330 -0.923038 1.0000 1.0000 1.0000
v 0.738401 2.344688 -0.926828 0.4980 0.4980 0.4980
v 0.731560 3.259894 -0.041536 0.4980 0.4980 0.4980
v 0.831595 3.498032 -2.111429 0.4980 0.4980 0.4980
v 0.824754 4.413241 -1.226139 0.4980 0.4980 0.4980
v 0.864548 2.936709 -1.537879 1.0000 1.0000 1.0000
v 0.857709 3.851916 -0.652590 0.9921 0.9921 0.9921
v 1.662023 3.471975 -1.068557 1.0000 1.0000 1.0000
v 0.554917 3.534177 -0.442586 0.4980 0.4980 0.4980
v 2.503457 3.554614 0.411406 1.0000 1.0000 1.0000
v 1.396351 3.616817 1.037377 1.0000 1.0000 1.0000
v 2.076575 3.356281 -0.323877 0.4980 0.4980 0.4980
v 0.969470 3.418485 0.302095 0.4980 0.4980 0.4980
v 0.961440 2.639473 -0.521786 0.4980 0.4980 0.4980
v 0.900526 3.901756 -0.677743 1.0000 1.0000 1.0000
v 2.114867 2.844637 0.648549 1.0000 1.0000 1.0000
v 2.053955 4.106921 0.492594 1.0000 1.0000 1.0000
v 1.502317 2.747123 0.138251 1.0000 1.0000 1.0000
v 1.441404 4.009405 -0.017703 0.4980 0.4980 0.4980
v -0.052517 2.605453 0.296395 0.4980 0.4980 0.4980
v 0.533709 2.155323 -0.400181 0.4980 0.4980 0.4980
v -0.135230 3.712372 -0.488508 0.4980 0.4980 0.4980
v 0.450997 3.262241 -1.185084 0.4980 0.4980 0.4980
v -0.195572 3.107665 -0.148528 0.4980 0.4980 0.4980
v 0.390655 2.657536 -0.845103 0.4980 0.4980 0.4980
v -0.242789 2.103851 -0.513259 0.4980 0.4980 0.4980
v 0.603652 2.402099 -0.037778 0.4941 0.4941 0.4941
v -0.415937 3.332070 -0.967143 0.4980 0.4980 0.4980
v 0.430504 3.630319 -0.491662 0.4980 0.4980 0.4980
v -0.300640 2.724566 -0.799622 0.4980 0.4980 0.4980
v 0.545801 3.022814 -0.324142 1.0000 1.0000 1.0000
v -0.543315 4.113998 0.044368 0.4980 0.4980 0.4980
v 0.262668 4.227284 -0.299895 0.4980 0.4980 0.4980
v -1.016908 4.686761 -0.875924 0.4980 0.4980 0.4980
v -0.210924 4.800046 -1.220186 0.4980 0.4980 0.4980
v -0.787975 4.303823 -0.465960 0.4980 0.4980 0.4980
v 0.018009 4.417109 -0.810223 0.4980 0.4980 0.4980
v -0.092242 3.689768 -0.530770 0.4980 0.4980 0.4980
v 0.039017 4.420065 -0.050772 0.4980 0.4980 0.4980
v -0.790674 4.278031 -1.228578 0.4980 0.4980 0.4980
v -0.659415 5.008328 -0.748580 0.4980 0.4980 0.4980
v -0.411534 4.005609 -0.923994 0.4980 0.4980 0.4980
v -0.280275 4.735904 -0.443996 0.4980 0.4980 0.4980
v 0.145701 4.530390 -0.690728 0.4980 0.4980 0.4980
v -0.070660 4.249119 0.054092 0.4980 0.4980 0.4980
v 0.942562 5.139901 -0.229076 0.9960 0.9960 0.9960
v 0.726201 4.858630 0.515743 0.4980 0.4980 0.4980
v 0.606267 4.755346 -0.471988 0.4980 0.4980 0.4980
v 0.389906 4.474075 0.272832 0.4980 0.4980 0.4980
v 0.410093 3.943297 -0.234734 0.4980 0.4980 0.4980
v -0.171755 4.523106 -0.157554 0.4980 0.4980 0.4980
v 1.165312 4.679340 -0.037033 1.0000 1.0000 1.0000
v 0.583464 5.259149 0.040148 0.4980 0.4980 0.4980
v 0.798587 4.312977 -0.083139 0.4980 0.4980 0.4980
v 0.216740 4.892786 -0.005958 0.4980 0.4980 0.4980
v -0.011418 2.744423 0.526045 0.4980 0.4980 0.4980
v 0.057404 2.281138 -0.375136 0.4550 0.4550 0.4550
v -1.053360 3.486134 0.065171 0.4980 0.4980 0.4980
v -0.984537 3.022849 -0.836010 0.9764 0.9764 0.9764
v -0.608390 3.024342 0.336553 0.4980 0.4980 0.4980
v -0.539568 2.561058 -0.564629 0.4980 0.4980 0.4980
v -0.468513 1.984999 0.128946 0.8274 0.8274 0.8274
v 0.243549 2.637111 -0.186036 0.5686 0.5686 0.5686
v -1.390774 2.914524 -0.044059 1.0000 1.0000 1.0000
v -0.678712 3.566637 -0.359041 0.4980 0.4980 0.4980
v -0.955324 2.445320 -0.018550 1.0000 1.0000 1.0000
v -0.243264 3.097433 -0.333532 0.4980 0.4980 0.4980
v 0.418881 2.883037 -0.983277 0.4980 0.4980 0.4980
v 0.659420 2.685270 0.022535 0.4980 0.4980 0.4980
v 1.540324 3.730647 -1.084809 1.0000 1.0000 1.0000
v 1.780862 3.532880 -0.078996 0.4980 0.4980 0.4980
v 1.048133 3.202714 -1.070905 0.4980 0.4980 0.4980
v 1.288671 3.004949 -0.065093 0.4980 0.4980 0.4980
v 1.043389 2.232100 -0.535883 0.4980 0.4980 0.4980
v 0.393541 2.988878 -0.198817 1.0000 1.0000 1.0000
v 1.945417 3.185792 -0.925470 1.0000 1.0000 1.0000
v 1.295570 3.942572 -0.588404 1.0000 1.0000 1.0000
v 1.538849 2.721638 -0.679765 0.4980 0.4980 0.4980
v 0.889003 3.478415 -0.342699 0.4980 0.4980 0.4980
v 0.498432 2.775363 -0.890209 0.4980 0.4980 0.4980
v 0.447832 2.468101 0.115604 0.0275 0.0275 0.0275
v 1.793919 2.229662 -0.991741 1.0000 1.0000 1.0000
v 1.743318 1.922402 0.014072 1.0000 1.0000 1.0000
v 1.090409 2.391027 -0.977837 0.4980 0.4980 0.4980
v 1.039810 2.083766 0.027975 0.4980 0.4980 0.4980
v 0.248090 1.908728 -0.442815 0.0039 0.0039 0.0039
v 0.577325 2.850332 -0.105749 0.7412 0.7412 0.7412
v 1.525423 1.606063 -0.832402 1.0000 1.0000 1.0000
v 1.854660 2.547668 -0.495336 0.9921 0.9921 0.9921
v 0.920012 1.725294 -0.586697 1.0000 1.0000 1.0000
v 1.249249 2.666897 -0.249631 0.4980 0.4980 0.4980
v 0.944692 3.000541 -0.524695 0.4980 0.4980 0.4980
v 0.271076 2.325472 -0.078432 0.0000 0.0000 0.0000
v 1.832144 2.829964 0.556840 1.0000 1.0000 1.0000
v 1.158526 2.154895 1.003103 1.0000 1.0000 1.0000
v 1.442231 2.817487 -0.050589 0.6079 0.6079 0.6079
v 0.768615 2.142419 0.395674 0.5019 0.5019 0.5019
v 0.868480 1.996510 -0.525107 0.4980 0.4980 0.4980
v 0.331844 2.781702 -0.073309 0.8784 0.8784 0.8784
v 1.865962 2.151252 0.400120 1.0000 1.0000 1.0000
v 1.329327 2.936446 0.851921 1.0000 1.0000 1.0000
v 1.356109 2.032599 -0.008634 0.4980 0.4980 0.4980
v 0.819475 2.817791 0.443165 0.9019 0.9019 0.9019
v -0.417951 2.654016 0.220577 0.4980 0.4980 0.4980
v 0.221968 2.026239 -0.256808 0.0000 0.0000 0.0000
v -0.484769 3.432109 -0.892208 0.4980 0.4980 0.4980
v 0.155150 2.804332 -1.369593 0.7059 0.7059 0.7059
v -0.548190 2.972555 -0.372894 0.4980 0.4980 0.4980
v 0.091729 2.344779 -0.850279 0.4980 0.4980 0.4980
v -0.544481 1.903543 -0.382854 0.4980 0.4980 0.4980
v 0.262776 2.382400 0.005125 0.0000 0.0000 0.0000
v -0.725017 2.901603 -1.228902 0.7647 0.7647 0.7647
v 0.082241 3.380462 -0.840923 0.4980 0.4980 0.4980
v -0.602688 2.390410 -0.862655 0.5333 0.5333 0.5333
v 0.204569 2.869269 -0.474677 0.6118 0.6118 0.6118
v 0.744098 2.197502 -0.020002 0.4980 0.4980 0.4980
v -0.290551 1.873811 -0.074595 0.4157 0.4157 0.4157
v 0.475283 2.841831 1.254249 1.0000 1.0000 1.0000
v -0.559366 2.518138 1.199656 1.0000 1.0000 1.0000
v 0.642757 2.404009 0.676190 1.0000 1.0000 1.0000
v -0.391892 2.080318 0.621597 0.4980 0.4980 0.4980
v 0.229242 1.384229 0.368680 0.4980 0.4980 0.4980
v -0.043832 2.249147 -0.227644 0.0784 0.0784 0.0784
v 0.286536 2.200561 1.518914 1.0000 1.0000 1.0000
v 0.013463 3.065478 0.922589 0.4980 0.4980 0.4980
v 0.195079 1.792622 0.976666 0.9176 0.9176 0.9176
v -0.077994 2.657540 0.380341 0.4980 0.4980 0.4980
v -0.043139 2.197502 0.587004 0.4902 0.4902 0.4902
v 0.110997 1.873811 -0.437555 0.0000 0.0000 0.0000
v -1.285520 2.841831 0.196533 1.0000 1.0000 1.0000
v -1.131384 2.518138 -0.828025 1.0000 1.0000 1.0000
v -0.726310 2.404009 0.418984 1.0000 1.0000 1.0000
v -0.572174 2.080318 -0.605575 0.4980 0.4980 0.4980
v -0.380348 1.384229 0.037058 0.7568 0.7568 0.7568
v 0.239535 2.249147 -0.177223 0.0000 0.0000 0.0000
v -1.530745 2.200561 -0.016862 1.0000 1.0000 1.0000
v -0.910862 3.065478 -0.231142 0.4980 0.4980 0.4980
v -0.982204 1.792622 -0.055590 1.0000 1.0000 1.0000
v -0.362321 2.657540 -0.269871 0.4980 0.4980 0.4980
v -0.336002 2.216060 -0.265919 0.4980 0.4980 0.4980
v 0.410114 1.972893 -0.044270 0.0000 0.0000 0.0000
v 0.084209 2.700099 -1.149404 0.4980 0.4980 0.4980
v 0.830325 2.456931 -0.927755 0.4980 0.4980 0.4980
v -0.139671 2.371195 -0.756613 0.4980 0.4980 0.4980
v 0.606445 2.128027 -0.534964 0.4980 0.4980 0.4980
v 0.108335 1.605103 -0.459359 0.8235 0.8235 0.8235
v 0.203021 2.254856 0.024171 0.0000 0.0000 0.0000
v 0.268568 2.218357 -1.309554 0.4980 0.4980 0.4980
v 0.363254 2.868111 -0.826024 0.4980 0.4980 0.4980
v 0.240103 1.911901 -0.897429 0.4980 0.4980 0.4980
v 0.334789 2.561655 -0.413899 0.6197 0.6197 0.6197
v 0.628747 2.702964 -0.211815 0.4980 0.4980 0.4980
v -0.220560 2.428971 0.006873 0.4980 0.4980 0.4980
v 0.735311 3.248364 0.885368 0.4980 0.4980 0.4980
v -0.113996 2.974370 1.104057 0.4980 0.4980 0.4980
v 0.723730 2.877764 0.376072 0.5804 0.5804 0.5804
v -0.125576 2.603771 0.594761 0.4980 0.4980 0.4980
v 0.311733 2.014558 0.232790 0.0000 0.0000 0.0000
v -0.060212 2.746679 -0.179367 0.4980 0.4980 0.4980
v 0.650122 2.705552 1.147011 1.0000 1.0000 1.0000
v 0.278176 3.437673 0.734853 0.8392 0.8392 0.8392
v 0.438558 2.360248 0.732393 0.8941 0.8941 0.8941
v 0.066613 3.092368 0.320235 0.4980 0.4980 0.4980
v -0.920910 3.708207 0.586568 0.5176 0.5176 0.5176
v -0.557659 4.257977 0.159325 0.4980 0.4980 0.4980
v -1.505020 4.451468 1.046361 1.0000 1.0000 1.0000
v -1.141768 5.001236 0.619119 1.0000 1.0000 1.0000
v -1.265544 4.072228 0.761969 1.0000 1.0000 1.0000
v -0.902292 4.621996 0.334727 1.0000 1.0000 1.0000
v -0.784361 3.976568 0.326227 0.4980 0.4980 0.4980
v -1.368470 4.719829 0.786021 1.0000 1.0000 1.0000
v -1.128996 4.340590 0.501628 0.5137 0.5137 0.5137
v -0.402125 4.279753 0.667894 0.4980 0.4980 0.4980
v -0.797815 4.046247 0.030996 0.4980 0.4980 0.4980
v -1.247303 4.810232 0.998495 1.0000 1.0000 1.0000
v -1.642992 4.576725 0.361597 1.0000 1.0000 1.0000
v -0.887234 4.458421 0.805992 1.0000 1.0000 1.0000
v -1.282923 4.224915 0.169095 0.4980 0.4980 0.4980
v -0.620572 4.110116 0.381633 0.6706 0.6706 0.6706
v -1.465750 4.640595 0.712233 1.0000 1.0000 1.0000
v -1.105680 4.288784 0.519731 0.5530 0.5530 0.5530
v 1.154997 3.175230 -0.712472 0.4980 0.4980 0.4980
v 0.251663 2.532160 -0.086500 0.0000 0.0000 0.0000
v 1.760397 3.765425 0.767491 1.0000 1.0000 1.0000
v 0.857062 3.122355 1.393462 1.0000 1.0000 1.0000
v 1.550974 3.343873 0.032209 0.4980 0.4980 0.4980
v 0.647639 2.700804 0.658181 1.0000 1.0000 1.0000
v 1.128041 2.087503 -0.165701 0.4980 0.4980 0.4980
v 0.291892 3.035092 -0.321657 1.0000 1.0000 1.0000
v 1.900513 2.968283 1.004634 1.0000 1.0000 1.0000
v 1.064365 3.915874 0.848679 1.0000 1.0000 1.0000
v 1.483128 2.509462 0.494337 1.0000 1.0000 1.0000
v 0.646980 3.457050 0.338382 0.4980 0.4980 0.4980
v 0.679581 3.346348 -0.816578 0.4980 0.4980 0.4980
v 0.558260 2.542746 -0.080064 0.4980 0.4980 0.4980
v 0.738274 4.332688 0.269274 0.4980 0.4980 0.4980
v 0.616953 3.529085 1.005787 0.4980 0.4980 0.4980
v 0.843052 3.821012 -0.271750 0.4980 0.4980 0.4980
v 0.721730 3.017409 0.464764 0.4980 0.4980 0.4980
v 1.355398 2.786859 -0.241781 0.4980 0.4980 0.4980
v 0.263158 2.821277 -0.335458 0.7255 0.7255 0.7255
v 1.323052 3.987568 0.527461 1.0000 1.0000 1.0000
v 0.230811 4.021988 0.433785 0.5137 0.5137 0.5137
v 1.334853 3.371636 0.212618 0.4980 0.4980 0.4980
v 0.242614 3.406055 0.118943 1.0000 1.0000 1.0000
v 0.050628 2.122902 -0.160143 0.0000 0.0000 0.0000
v 0.004951 3.469141 1.060289 0.4980 0.4980 0.4980
v 0.087962 2.111579 -0.145354 0.0000 0.0000 0.0000
v 0.013821 3.466451 1.063802 0.4980 0.4980 0.4980
v 0.101309 2.084535 -0.116523 0.0000 0.0000 0.0000
v 0.016993 3.460026 1.070652 0.4980 0.4980 0.4980
v 0.082851 2.057613 -0.090537 0.0000 0.0000 0.0000
v 0.012607 3.453629 1.076826 0.4980 0.4980 0.4980
v 0.043399 2.046582 -0.082620 0.0000 0.0000 0.0000
v 0.003234 3.451009 1.078707 0.4980 0.4980 0.4980
v 0.006065 2.057906 -0.097408 0.0000 0.0000 0.0000
v -0.005636 3.453699 1.075193 0.4980 0.4980 0.4980
v -0.007282 2.084949 -0.126240 0.0000 0.0000 0.0000
v -0.008807 3.460124 1.068343 0.4980 0.4980 0.4980
v 0.011176 2.111872 -0.152225 0.0000 0.0000 0.0000
v -0.004422 3.466521 1.062170 0.4980 0.4980 0.4980
v 0.005129 2.778068 0.582329 0.4980 0.4980 0.4980
v 0.034904 2.769038 0.594124 0.4980 0.4980 0.4980
v 0.045549 2.747469 0.617118 0.4980 0.4980 0.4980
v 0.030827 2.725998 0.637842 0.4980 0.4980 0.4980
v -0.000636 2.717201 0.644156 0.4980 0.4980 0.4980
v -0.030411 2.726231 0.632362 0.4980 0.4980 0.4980
v -0.041056 2.747800 0.609368 0.4980 0.4980 0.4980
v -0.026335 2.769271 0.588643 0.4980 0.4980 0.4980
v 0.065834 2.422694 0.242796 0.1804 0.1804 0.1804
v 0.078025 2.397994 0.269129 0.0510 0.0510 0.0510
v 0.061166 2.373405 0.292862 0.0078 0.0078 0.0078
v 0.025133 2.363330 0.300093 0.0000 0.0000 0.0000
v -0.008966 2.373672 0.286586 0.0118 0.0118 0.0118
v -0.021156 2.398373 0.260254 0.1176 0.1176 0.1176
v -0.004297 2.422962 0.236520 0.3333 0.3333 0.3333
v 0.031735 2.433036 0.229289 0.3098 0.3098 0.3098
v -0.172285 3.023407 1.218663 0.4980 0.4980 0.4980
v 0.126197 3.558601 0.918499 0.4980 0.4980 0.4980
v 0.187844 3.272186 2.020345 1.0000 1.0000 1.0000
v 0.486325 3.807379 1.720181 1.0000 1.0000 1.0000
v -0.045666 3.184654 1.632075 1.0000 1.0000 1.0000
v 0.252815 3.719848 1.331910 1.0000 1.0000 1.0000
v -0.068864 3.322602 1.079358 0.4980 0.4980 0.4980
v 0.291265 3.571381 1.881040 1.0000 1.0000 1.0000
v 0.057754 3.483850 1.492770 1.0000 1.0000 1.0000
v 0.438767 3.235848 1.028145 0.5019 0.5019 0.5019
v -0.166533 3.547436 0.981798 0.4980 0.4980 0.4980
v 0.495331 3.476521 1.907437 1.0000 1.0000 1.0000
v -0.109969 3.788108 1.861089 1.0000 1.0000 1.0000
v 0.375414 3.330723 1.478872 1.0000 1.0000 1.0000
v -0.229885 3.642309 1.432524 0.4980 0.4980 0.4980
v 0.110182 3.343468 1.019826 0.9764 0.9764 0.9764
v 0.166745 3.584141 1.899118 1.0000 1.0000 1.0000
v 0.046829 3.438342 1.470552 1.0000 1.0000 1.0000
v 0.271575 3.324887 1.259931 1.0000 1.0000 1.0000
v -0.087461 3.133213 0.695821 0.4980 0.4980 0.4980
v -0.430140 3.042022 1.802658 1.0000 1.0000 1.0000
v -0.789174 2.850349 1.238547 1.0000 1.0000 1.0000
v -0.041656 3.106292 1.533565 1.0000 1.0000 1.0000
v -0.400691 2.914618 0.969454 0.4980 0.4980 0.4980
v 0.194648 2.745838 0.941654 1.0000 1.0000 1.0000
v -0.055139 3.389423 0.856387 0.4980 0.4980 0.4980
v -0.377548 2.617899 1.630537 1.0000 1.0000 1.0000
v -0.627335 3.261485 1.545271 0.4980 0.4980 0.4980
v -0.130138 2.663422 1.271038 1.0000 1.0000 1.0000
v -0.379925 3.307006 1.185771 0.4980 0.4980 0.4980
v -0.098233 3.004960 1.184372 0.4980 0.4980 0.4980
v 0.091115 3.640993 0.975863 0.4980 0.4980 0.4980
v -0.695250 3.381721 1.791487 0.4980 0.4980 0.4980
v -0.505902 4.017753 1.582978 0.4980 0.4980 0.4980
v -0.456001 3.190624 1.425833 0.8706 0.8706 0.8706
v -0.266652 3.826658 1.217323 0.4980 0.4980 0.4980
v -0.349576 3.435665 0.744104 0.4980 0.4980 0.4980
v 0.189783 3.441766 1.183332 1.0000 1.0000 1.0000
v -0.912310 3.581015 1.437314 0.4980 0.4980 0.4980
v -0.372952 3.587116 1.876543 0.4980 0.4980 0.4980
v -0.637684 3.552921 1.096263 0.4980 0.4980 0.4980
v -0.098326 3.559022 1.535491 0.7647 0.7647 0.7647
v -0.035635 3.753467 1.070648 0.4980 0.4980 0.4980
v -0.003107 3.080423 0.897962 0.4980 0.4980 0.4980
v 0.780959 3.679719 1.511899 1.0000 1.0000 1.0000
v 0.813486 3.006676 1.339214 1.0000 1.0000 1.0000
v 0.410541 3.737460 1.217079 1.0000 1.0000 1.0000
v 0.443069 3.064417 1.044394 0.9804 0.9804 0.9804
v 0.257994 3.422385 0.573976 0.9882 0.9882 0.9882
v -0.122365 3.240608 1.127284 0.5019 0.5019 0.5019
v 0.972950 3.554554 1.112219 0.5019 0.5019 0.5019
v 0.592592 3.372776 1.665528 1.0000 1.0000 1.0000
v 0.640152 3.450432 0.845896 0.4980 0.4980 0.4980
v 0.259794 3.268655 1.399204 1.0000 1.0000 1.0000
v -0.275767 3.595475 0.707708 0.4980 0.4980 0.4980
v 0.124726 3.300946 1.194252 1.0000 1.0000 1.0000
v -0.029309 4.438988 1.015458 0.4980 0.4980 0.4980
v 0.371184 4.144460 1.502001 1.0000 1.0000 1.0000
v -0.087112 4.014419 0.806026 0.4980 0.4980 0.4980
v 0.313381 3.719891 1.292570 1.0000 1.0000 1.0000
v 0.372166 3.448111 0.739065 0.4980 0.4980 0.4980
v -0.167045 3.384149 1.173836 0.4980 0.4980 0.4980
v 0.408791 4.333887 0.919053 0.4980 0.4980 0.4980
v -0.130420 4.269925 1.353825 0.4980 0.4980 0.4980
v 0.419052 3.898762 0.863513 1.0000 1.0000 1.0000
v -0.120158 3.834800 1.298283 0.4980 0.4980 0.4980
v 0.511782 3.333790 1.017646 0.4980 0.4980 0.4980
v -0.252100 3.018511 0.694182 0.4980 0.4980 0.4980
v 0.449985 2.560532 1.917277 1.0000 1.0000 1.0000
v -0.313896 2.245254 1.593813 1.0000 1.0000 1.0000
v 0.536547 2.876709 1.404678 1.0000 1.0000 1.0000
v -0.227335 2.561430 1.081215 1.0000 1.0000 1.0000
v 0.316758 2.674984 0.519465 1.0000 1.0000 1.0000
v -0.149852 3.305974 0.933796 0.4980 0.4980 0.4980
v 0.456943 2.123950 1.523776 1.0000 1.0000 1.0000
v -0.009667 2.754939 1.938109 1.0000 1.0000 1.0000
v 0.344408 2.360732 1.029181 1.0000 1.0000 1.0000
v -0.122203 2.991720 1.443514 1.0000 1.0000 1.0000
v 0.093560 3.032550 0.207101 0.4980 0.4980 0.4980
v -0.015865 2.397244 0.557666 0.4980 0.4980 0.4980
v 0.357108 3.454509 1.054050 0.5255 0.5255 0.5255
v 0.247682 2.819202 1.404615 1.0000 1.0000 1.0000
v 0.310464 3.218661 0.612080 0.4980 0.4980 0.4980
v 0.201038 2.583355 0.962646 1.0000 1.0000 1.0000
v 0.517834 2.506565 0.396305 0.9411 0.9411 0.9411
v -0.197283 2.649504 0.477915 0.4980 0.4980 0.4980
v 0.718947 3.131846 1.088610 0.5137 0.5137 0.5137
v 0.003829 3.274786 1.170222 1.0000 1.0000 1.0000
v 0.620197 2.796864 0.784816 0.9843 0.9843 0.9843
v -0.094920 2.939802 0.866428 0.4980 0.4980 0.4980
v 0.146157 2.935125 0.232675 0.5373 0.5373 0.5373
v -0.066054 2.252479 0.398341 0.0000 0.0000 0.0000
v 1.030009 2.754695 0.621365 1.0000 1.0000 1.0000
v 0.817797 2.072049 0.787032 1.0000 1.0000 1.0000
v 0.614240 2.816860 0.344944 0.9960 0.9960 0.9960
v 0.402029 2.134214 0.510610 0.1098 0.1098 0.1098
v 0.218151 2.315884 -0.089543 0.0000 0.0000 0.0000
v -0.081041 2.538731 0.542365 0.4980 0.4980 0.4980
v 1.087153 2.397987 0.296208 0.4980 0.4980 0.4980
v 0.787961 2.620834 0.928117 1.0000 1.0000 1.0000
v 0.666056 2.315227 0.122761 0.2902 0.2902 0.2902
v 0.366865 2.538074 0.754669 1.0000 1.0000 1.0000
v 0.170987 2.832680 0.651173 0.6510 0.6510 0.6510
v -0.040489 2.296879 0.196552 0.0000 0.0000 0.0000
v 0.349802 2.167736 1.351676 1.0000 1.0000 1.0000
v 0.138325 1.631935 0.897055 1.0000 1.0000 1.0000
v 0.344800 2.494379 0.969031 1.0000 1.0000 1.0000
v 0.133323 1.958578 0.514411 0.1020 0.1020 0.1020
v 0.517872 2.398819 0.222334 0.0000 0.0000 0.0000
v -0.186615 2.491327 0.405705 0.4980 0.4980 0.4980
v 0.674118 1.959967 1.055224 1.0000 1.0000 1.0000
v -0.030369 2.052474 1.238596 1.0000 1.0000 1.0000
v 0.589966 2.132104 0.633865 1.0000 1.0000 1.0000
v -0.114520 2.224611 0.817237 0.4980 0.4980 0.4980
v 0.265510 3.010849 0.764100 1.0000 1.0000 1.0000
v -0.126878 2.390650 0.265172 0.3451 0.3451 0.3451
v -0.108072 2.457029 1.746344 1.0000 1.0000 1.0000
v -0.500461 1.836830 1.247416 1.0000 1.0000 1.0000
v 0.172111 2.676699 1.252926 1.0000 1.0000 1.0000
v -0.220278 2.056499 0.753999 0.4980 0.4980 0.4980
v 0.503145 2.241698 0.495435 0.3137 0.3137 0.3137
v -0.228299 2.736632 0.408401 0.4980 0.4980 0.4980
v 0.195115 1.982762 1.577101 1.0000 1.0000 1.0000
v -0.536330 2.477696 1.490069 1.0000 1.0000 1.0000
v 0.318020 2.063335 1.036956 0.9215 0.9215 0.9215
v -0.413424 2.558268 0.949924 0.4980 0.4980 0.4980
vn 0.0019 0.0048 -1.0000
vn 0.5429 0.6301 -0.5552
vn 0.7124 0.0140 -0.7016
vn 0.7642 0.6449 -0.0094
vn 0.9996 0.0255 0.0088
vn 0.5366 0.6566 0.5301
vn 0.7033 0.0325 0.7101
vn -0.0028 0.6581 0.7529
vn 0.0019 0.0314 0.9995
vn -0.7016 0.0229 0.7122
vn -0.5443 0.6486 0.5321
vn -0.9999 0.0114 0.0089
vn -0.7735 0.6337 -0.0094
vn -0.7106 0.0038 -0.7036
vn -0.5502 0.6223 -0.5568
vn 0.5493 -0.6044 0.5770
vn -0.5646 -0.5874 0.5798
vn -0.5526 -0.6473 -0.5250
vn -0.6969 -0.0112 -0.7171
vn 0.0037 -0.0347 -0.9994
vn -0.9995 0.0256 -0.0168
vn -0.7126 0.0544 0.6995
vn 0.0041 0.0561 0.9984
vn 0.7172 0.0293 0.6962
vn 0.9998 -0.0082 -0.0164
vn 0.7005 -0.0337 -0.7128
vn -0.0062 -0.6691 -0.7431
vn 0.5355 -0.6652 -0.5203
vn 0.7697 -0.6381 0.0214
vn -0.0062 -0.5838 0.8119
vn -0.7896 -0.6133 0.0215
vn -0.4878 -0.0634 -0.8706
vn 0.4238 0.2151 -0.8799
vn 0.2122 -0.4147 -0.8849
vn 0.8643 0.1474 -0.4809
vn 0.7857 -0.4977 -0.3673
vn 0.9440 0.3213 0.0745
vn 0.8928 -0.2779 0.3547
vn 0.6410 0.6182 0.4550
vn 0.4980 0.1054 0.8608
vn -0.1643 0.4435 0.8811
vn 0.1375 0.8703 0.4730
vn -0.7346 0.5484 0.3996
vn -0.3058 0.9456 0.1107
vn -0.8803 0.3419 -0.3288
vn -0.4189 0.7886 -0.4501
vn 0.3532 -0.8434 0.4050
vn -0.4790 -0.2851 0.8302
vn -0.9598 -0.2272 -0.1646
vn -0.4147 0.0623 -0.9078
vn -0.8347 0.4143 -0.3627
vn -0.7542 0.5242 0.3956
vn -0.2276 0.3319 0.9154
vn 0.4301 -0.0446 0.9017
vn 0.8427 -0.3903 0.3708
vn 0.7745 -0.5077 -0.3774
vn 0.2553 -0.3219 -0.9117
vn -0.1043 -0.7975 -0.5942
vn -0.6310 -0.5025 -0.5910
vn 0.3021 -0.9367 -0.1767
vn 0.0325 -0.5764 0.8165
vn -0.8935 -0.1375 0.4275
vn 0.4045 -0.0634 0.9123
vn -0.5041 0.2151 0.8364
vn -0.2938 -0.4147 0.8613
vn -0.9054 0.1474 0.3982
vn -0.8166 -0.4977 0.2924
vn -0.9330 0.3213 -0.1622
vn -0.8558 -0.2779 -0.4364
vn -0.5958 0.6182 -0.5128
vn -0.4155 0.1054 -0.9035
vn 0.2458 0.4435 -0.8619
vn -0.0927 0.8703 -0.4837
vn 0.7686 0.5484 -0.3293
vn 0.3148 0.9456 -0.0817
vn 0.8458 0.3419 0.4095
vn 0.3751 0.7886 0.4872
vn -0.3139 -0.8434 -0.4361
vn 0.5543 -0.2851 -0.7819
vn 0.9403 -0.2272 0.2534
vn 0.3282 0.0623 0.9425
vn 0.7972 0.4143 0.4390
vn 0.7878 0.5242 -0.3235
vn 0.3120 0.3319 -0.8902
vn -0.3441 -0.0446 -0.9379
vn -0.8044 -0.3903 -0.4478
vn -0.8063 -0.5077 0.3035
vn -0.3393 -0.3219 0.8839
vn 0.0484 -0.7975 0.6013
vn 0.5731 -0.5025 0.6473
vn -0.3173 -0.9367 0.1478
vn 0.0438 -0.5764 -0.8160
vn 0.9295 -0.1375 -0.3423
vn -0.5634 0.4560 -0.6889
vn -0.3180 -0.5248 -0.7896
vn -0.8804 -0.0702 -0.4690
vn 0.4547 0.0761 -0.8874
vn 0.4034 -0.6442 -0.6499
vn 0.8387 0.2521 -0.4828
vn 0.9038 -0.3979 -0.1576
vn 0.8033 0.5954 0.0101
vn 0.8918 0.1006 0.4412
vn 0.3647 0.8904 0.2724
vn 0.3437 0.5477 0.7628
vn -0.3733 0.6791 0.6320
vn -0.1778 0.9669 0.1832
vn -0.8860 0.4419 0.1407
vn -0.5674 0.8010 -0.1912
vn 0.5014 -0.8392 0.2104
vn 0.0798 -0.1633 0.9833
vn -0.8840 -0.1687 0.4361
vn -0.8571 0.0125 -0.5151
vn -0.8543 0.5099 0.1009
vn -0.3625 0.6918 0.6245
vn 0.3363 0.4964 0.8003
vn 0.8666 0.0066 0.4989
vn 0.8725 -0.4775 -0.1032
vn 0.3931 -0.6746 -0.6248
vn -0.3101 -0.4935 -0.8126
vn -0.4029 -0.8503 -0.3387
vn -0.8557 -0.5106 -0.0843
vn 0.1416 -0.9708 -0.1936
vn 0.5014 -0.5056 0.7021
vn -0.4915 -0.0323 0.8703
vn -0.1623 0.9381 0.3061
vn -0.1623 0.8127 0.5596
vn 0.1623 0.8127 0.5596
vn 0.1623 0.9381 0.3061
vn 0.9866 0.1034 0.1263
vn 0.9234 -0.1184 0.3651
vn 0.9393 -0.3248 0.1107
vn 0.9841 -0.1672 -0.0591
vn -0.3055 0.9381 -0.1634
vn -0.5590 0.8127 -0.1644
vn -0.5602 0.8127 0.1602
vn -0.3067 0.9381 0.1611
vn -0.1299 0.1034 0.9861
vn -0.3685 -0.1184 0.9221
vn -0.1142 -0.3248 0.9389
vn 0.0555 -0.1672 0.9844
vn -0.9865 -0.0146 -0.1634
vn -0.9416 -0.2938 -0.1644
vn -0.9420 -0.2950 0.1602
vn -0.9868 -0.0158 0.1611
vn -0.1371 -0.0936 0.9861
vn 0.0042 -0.3870 0.9221
vn 0.2766 -0.2051 0.9389
vn 0.1761 0.0036 0.9844
vn -0.0673 0.3057 -0.9497
vn -0.0561 0.0273 -0.9981
vn -0.3721 0.0024 -0.9282
vn -0.3833 0.2809 -0.8799
vn -0.9913 -0.1184 0.0580
vn -0.8965 -0.4357 0.0803
vn -0.8503 -0.3495 0.3934
vn -0.9177 -0.1239 0.3776
vn -0.0000 0.9993 -0.0369
vn -0.0000 0.9205 -0.3908
vn -0.9381 0.0745 0.3382
vn -0.9861 0.0513 0.1580
vn -0.3600 0.1361 0.9230
vn -0.1881 0.4513 0.8724
vn -0.9474 0.0683 -0.3125
vn -0.9063 0.2495 -0.3411
vn -0.5739 0.6493 -0.4990
vn -0.4849 0.8490 -0.2099
vn 0.6718 0.1284 -0.7295
vn 0.7460 0.2571 -0.6144
vn 0.6866 0.6493 -0.3271
vn 0.3859 0.8490 -0.3609
vn 0.4009 0.1284 0.9071
vn 0.2657 0.2571 0.9291
vn -0.2736 0.6493 -0.7096
vn -0.3303 0.8490 -0.4124
vn 0.9351 0.1284 -0.3303
vn 0.9468 0.2571 -0.1938
vn 0.6882 0.6493 0.3237
vn 0.5237 0.8490 0.0698
vn -0.4475 0.1284 0.8850
vn -0.5503 0.2571 0.7944
vn -0.2974 0.6493 -0.7000
vn -0.3440 0.8490 -0.4010
vn 0.9234 0.1284 -0.3617
vn 0.9397 0.2571 -0.2257
vn 0.7565 0.6493 0.0784
vn 0.5174 0.8490 -0.1071
vn -0.1303 0.1284 0.9831
vn -0.2572 0.2571 0.9316
vn 0.9836 -0.1699 -0.0600
vn 0.9830 0.1811 0.0306
vn 0.0147 -0.5697 0.8217
vn 0.0317 -0.4064 0.9131
vn -0.2644 0.1798 0.9475
vn -0.3498 0.4970 0.7941
vn -0.7815 -0.6230 -0.0345
vn -0.8735 -0.4753 -0.1056
vn -0.8708 0.1635 -0.4637
vn -0.9324 0.3299 -0.1476
vn 0.3987 0.6402 -0.6566
vn 0.3701 0.7684 -0.5221
vn -0.9636 0.1635 0.2116
vn -0.8055 0.3299 0.4922
vn -0.1222 0.6402 -0.7584
vn -0.0568 0.7684 -0.6375
vn 0.5510 -0.0146 -0.8344
vn 0.5336 -0.2938 -0.7930
vn 0.2374 -0.2950 -0.9256
vn 0.2548 -0.0158 -0.9669
vn -0.8448 -0.0936 -0.5269
vn -0.8438 -0.3870 -0.3718
vn -0.9701 -0.2051 -0.1298
vn -0.9708 0.0036 -0.2400
vn -0.0369 0.9993 0.0001
vn -0.3908 0.9205 0.0013
vn 0.3413 0.0745 0.9370
vn 0.1612 0.0513 0.9856
vn -0.0161 0.9993 0.0333
vn -0.1704 0.9205 0.3517
vn 0.9917 0.0745 0.1046
vn 0.9563 0.0513 0.2877
vn 0.0746 0.6250 0.7770
vn 0.4217 0.5283 0.7370
vn -0.1998 0.8094 -0.5522
vn -0.0157 0.8075 -0.5896
vn -0.1816 0.6557 0.7329
vn -0.0291 0.8733 0.4863
vn -0.9907 -0.0324 -0.1321
vn -0.9596 0.0982 -0.2637
vn 0.1595 0.9213 0.3546
vn 0.0143 0.9994 0.0318
vn -0.7170 -0.0754 0.6930
vn -0.8318 -0.0203 0.5548
vn -0.0483 0.4465 0.8935
vn 0.0856 0.7166 0.6922
vn -0.9995 0.0307 -0.0000
vn -0.9770 0.1901 -0.0970
vn -0.6659 0.4465 0.5977
vn -0.4289 0.7166 0.5500
vn -0.7067 0.0307 -0.7068
vn -0.6223 0.1901 -0.7594
vn 0.4613 0.6493 0.6047
vn 0.4325 0.8490 0.3035
vn -0.8053 0.1284 0.5788
vn -0.8547 0.2571 0.4510
vn -0.0161 0.7517 -0.6593
vn -0.1704 0.9120 -0.3731
vn 0.9917 0.1259 0.0254
vn 0.9563 0.2342 0.1748
vn 0.2094 0.7517 -0.6254
vn -0.0331 0.9120 -0.4088
vn 0.9238 0.1259 0.3616
vn 0.8397 0.2342 0.4900
vn -0.5220 0.7517 -0.4032
vn -0.3970 0.9120 -0.1030
vn 0.6449 0.1259 -0.7538
vn 0.7386 0.2342 -0.6322
vn -0.3991 0.7517 -0.5251
vn -0.3566 0.9120 -0.2027
vn 0.8188 0.1259 -0.5601
vn 0.8776 0.2342 -0.4183
vn -0.0638 0.6557 0.7523
vn 0.0479 0.8733 0.4848
vn -0.9991 -0.0324 0.0257
vn -0.9892 0.0982 -0.1091
vn -0.0705 0.9726 -0.2214
vn 0.1084 0.9897 0.0934
vn 0.6447 -0.0630 -0.7618
vn 0.7761 -0.0403 -0.6294
vn 0.8120 0.2224 0.5397
vn 0.7895 0.5174 0.3301
vn -0.5207 0.1337 0.8432
vn -0.5462 0.3084 0.7788
vn 0.1595 0.7643 0.6249
vn 0.0143 0.9394 0.3426
vn -0.7170 -0.2883 0.6347
vn -0.8318 -0.1927 0.5206
vn -0.7601 0.6493 0.0244
vn -0.4982 0.8490 0.1759
vn -0.0036 0.1284 -0.9917
vn 0.1291 0.2571 -0.9577
vn 0.7662 0.5934 -0.2465
vn 0.4880 0.7908 -0.3693
vn 0.2016 0.2387 0.9499
vn 0.0701 0.3708 0.9261
vn -0.6950 0.6557 0.2951
vn -0.4062 0.8733 0.2689
vn -0.4896 -0.0324 -0.8713
vn -0.3658 0.0982 -0.9255
vn 0.2191 0.9300 0.2951
vn 0.5522 0.7892 0.2689
vn -0.2734 0.4075 -0.8713
vn -0.0984 0.3657 -0.9255
vn -0.5468 0.7672 0.3352
vn -0.3183 0.7230 0.6132
vn 0.3823 0.6431 -0.6635
vn 0.5198 0.6643 -0.5372
vn 0.7712 0.4271 0.4721
vn 0.7530 0.6343 0.1752
vn -0.5744 0.3815 0.7243
vn -0.6009 0.5235 0.6041
vn -0.2020 0.7517 -0.6278
vn -0.2690 0.9120 -0.3097
vn 0.9584 0.1259 -0.2563
vn 0.9667 0.2342 -0.1030
vn 0.6444 0.7517 -0.1405
vn 0.3342 0.9120 -0.2379
vn 0.1627 0.1259 0.9786
vn 0.0093 0.2342 0.9721
vn 0.0496 0.7517 0.6577
vn 0.1891 0.9120 0.3640
vn -0.9917 0.1259 0.0251
vn -0.9640 0.2342 -0.1259
vn -0.3811 0.7517 -0.5383
vn -0.3495 0.9120 -0.2147
vn 0.8373 0.1259 -0.5321
vn 0.8913 0.2342 -0.3883
vn -0.6782 0.1159 -0.7257
vn -0.5210 -0.0840 -0.8494
vn -0.6712 -0.3112 -0.6728
vn -0.8283 -0.1113 -0.5491
vn -0.5216 -0.7532 0.4009
vn -0.2546 -0.9205 0.2964
vn -0.1321 -0.8053 0.5780
vn -0.3218 -0.6863 0.6523
vn -0.6627 0.7154 -0.2214
vn -0.5336 0.8405 0.0934
vn 0.5428 0.3536 -0.7618
vn 0.6312 0.4533 -0.6294
vn -0.9840 -0.0140 -0.1774
vn -0.9691 0.2295 0.0908
vn 0.0903 0.4547 -0.8861
vn 0.0867 0.6132 -0.7852
vn 0.0654 0.6436 -0.7626
vn 0.5666 0.8235 0.0280
vn 0.7640 0.4368 -0.4749
vn 0.7446 0.4686 0.4754
vn 0.9937 -0.0207 0.1097
vn 0.4644 0.1409 0.8744
vn 0.6354 -0.4505 0.6272
vn -0.0804 0.0266 0.9964
vn -0.0770 -0.6098 0.7888
vn -0.7441 -0.4159 0.5229
vn -0.5859 0.1689 0.7926
vn -0.9992 0.0268 -0.0312
vn -0.7861 0.4998 0.3637
vn -0.6729 0.4700 -0.5712
vn -0.5366 0.8423 -0.0515
vn 0.5395 -0.8408 -0.0451
vn -0.5459 -0.8281 -0.1278
vn -0.4882 -0.0118 -0.8726
vn 0.0646 0.7506 -0.6575
vn -0.6655 0.5415 -0.5137
vn -0.9981 0.0149 -0.0603
vn -0.7428 -0.5121 0.4313
vn -0.0607 -0.7349 0.6754
vn 0.6544 -0.5330 0.5364
vn 0.9956 -0.0189 0.0917
vn 0.7554 0.5154 -0.4046
vn 0.6224 -0.0287 -0.7822
vn 0.0831 0.1518 -0.9849
vn 0.8073 -0.4425 -0.3905
vn -0.0149 -0.9980 0.0616
vn -0.7476 -0.4206 -0.5140
vn -0.6625 0.7101 0.2384
vn -0.7740 0.6331 -0.0098
vn -0.9160 0.3785 0.1329
vn -0.8045 0.4555 0.3811
vn -0.5782 -0.7093 0.4031
vn -0.5987 -0.7966 0.0835
vn -0.3111 -0.9379 0.1537
vn -0.2965 -0.8758 0.3809
vn -0.2648 0.9518 -0.1549
vn -0.5378 0.8412 0.0564
vn 0.7453 0.3633 0.5590
vn 0.6271 0.3365 0.7025
vn 0.8211 -0.0583 0.5678
vn 0.5883 0.0884 0.8038
vn -0.0336 -0.9979 0.0551
vn -0.1510 -0.9683 0.1989
vn -0.6282 -0.2217 0.7458
vn -0.3100 -0.2503 0.9172
vn -0.3474 0.9352 0.0685
vn -0.1987 0.9634 0.1799
vn -0.8086 -0.1681 0.5639
vn -0.7123 0.1604 0.6834
vn -0.6315 0.0835 -0.7709
vn -0.6238 0.2677 -0.7343
vn -0.4887 0.7770 0.3967
vn -0.5073 0.5407 0.6710
vn 0.8257 0.5584 0.0795
vn 0.8494 0.4686 0.2428
vn -0.9845 0.1753 0.0104
vn -0.8867 0.3309 0.3229
vn 0.0474 0.6633 -0.7468
vn 0.0875 0.7868 -0.6110
vn -0.4832 0.3454 0.8045
vn -0.1568 0.2787 0.9475
vn -0.0402 0.9362 -0.3492
vn 0.1312 0.9528 -0.2739
vn -0.9575 0.2130 0.1944
vn -0.8911 -0.0324 0.4527
vn 0.2077 0.9194 0.3341
vn 0.2391 0.8334 0.4982
vn -0.7697 0.6175 -0.1622
vn -0.8833 0.4482 0.1376
vn 0.5240 0.8169 0.2411
vn 0.4746 0.7749 0.4175
vn -0.0028 0.6208 -0.7840
vn -0.1135 0.4843 -0.8675
vn 0.0321 0.4843 0.8743
vn -0.1212 0.1528 -0.9808
vn 0.0041 -0.3870 0.9221
vn -0.5208 0.1337 0.8432
vn 0.0300 0.9808 -0.1925
vt 0.766802 0.505392
vt 0.700102 0.993176
vt 0.700102 0.505392
vt 0.633401 0.993176
vt 0.633401 0.505392
vt 0.566701 0.993176
vt 0.566701 0.505392
vt 0.500000 0.993176
vt 0.500000 0.505392
vt 0.433299 0.505392
vt 0.433299 0.993176
vt 0.366599 0.505392
vt 0.354810 0.348537
vt 0.568163 0.303340
vt 0.656536 0.412455
vt 0.366599 0.993176
vt 0.299898 0.505392
vt 0.299898 0.993176
vt 0.233198 0.505392
vt 0.656536 0.566934
vt 0.443184 0.612131
vt 0.354810 0.503016
vt 0.299898 0.261500
vt 0.233198 0.261500
vt 0.366599 0.261500
vt 0.433299 0.261500
vt 0.500000 0.261500
vt 0.566701 0.261500
vt 0.633401 0.261500
vt 0.700102 0.261500
vt 0.766802 0.261500
vt 0.766802 0.017608
vt 0.700102 0.017608
vt 0.633401 0.017608
vt 0.566701 0.017608
vt 0.500000 0.017608
vt 0.433299 0.017608
vt 0.366599 0.017608
vt 0.299898 0.017608
vt 0.233198 0.017608
vt 0.766802 0.993176
vt 0.500000 1.000000
vt 1.000000 0.500000
vt 0.500000 0.500000
vt 0.500000 0.000000
vt 1.000000 0.000000
vt 0.000000 0.500000
vt 0.000000 0.000000
vt 1.000000 1.000000
vt 0.000000 1.000000
vt 0.568163 0.457652
vt 0.443184 0.457652
vt 0.354811 0.412455
vt 0.443184 0.303340
vt 0.656536 0.348537
vt 0.233198 0.993176
vt 0.443184 0.457820
vt 0.568163 0.457820
vt 0.656536 0.503016
vt 0.568163 0.612131
vt 0.354810 0.566934
s 1
usemtl bark
f 17/1/1 4/2/2 18/3/3
f 18/3/3 6/4/4 19/5/5
f 19/5/5 8/6/6 20/7/7
f 20/7/7 10/8/8 21/9/9
f 10/8/8 22/10/10 21/9/9
f 12/11/11 23/12/12 22/10/10
f 14/13/13 10/14/8 6/15/4
f 14/16/13 24/17/14 23/12/12
f 16/18/15 17/19/1 24/17/14
f 7/20/16 11/21/17 15/22/18
f 31/23/19 17/19/1 32/24/20
f 30/25/21 24/17/14 31/23/19
f 29/26/22 23/12/12 30/25/21
f 28/27/23 22/10/10 29/26/22
f 20/7/7 28/27/23 27/28/24
f 19/5/5 27/28/24 26/29/25
f 18/3/3 26/29/25 25/30/26
f 17/1/1 25/30/26 32/31/20
f 1/32/27 25/30/26 3/33/28
f 3/33/28 26/29/25 5/34/29
f 5/34/29 27/28/24 7/35/16
f 7/35/16 28/27/23 9/36/30
f 28/27/23 11/37/17 9/36/30
f 29/26/22 13/38/31 11/37/17
f 30/25/21 15/39/18 13/38/31
f 31/23/19 1/40/27 15/39/18
f 17/1/1 2/41/408 4/2/2
f 18/3/3 4/2/2 6/4/4
f 19/5/5 6/4/4 8/6/6
f 20/7/7 8/6/6 10/8/8
f 10/8/8 12/11/11 22/10/10
f 12/11/11 14/16/13 23/12/12
f 6/15/4 4/51/2 2/52/408
f 2/52/408 16/53/15 14/13/13
f 14/13/13 12/54/11 10/14/8
f 10/14/8 8/55/6 6/15/4
f 6/15/4 2/52/408 14/13/13
f 14/16/13 16/18/15 24/17/14
f 16/18/15 2/56/408 17/19/1
f 15/22/18 1/57/27 3/58/28
f 3/58/28 5/59/29 7/20/16
f 7/20/16 9/60/30 11/21/17
f 11/21/17 13/61/31 15/22/18
f 15/22/18 3/58/28 7/20/16
f 31/23/19 24/17/14 17/19/1
f 30/25/21 23/12/12 24/17/14
f 29/26/22 22/10/10 23/12/12
f 28/27/23 21/9/9 22/10/10
f 20/7/7 21/9/9 28/27/23
f 19/5/5 20/7/7 27/28/24
f 18/3/3 19/5/5 26/29/25
f 17/1/1 18/3/3 25/30/26
f 1/32/27 32/31/20 25/30/26
f 3/33/28 25/30/26 26/29/25
f 5/34/29 26/29/25 27/28/24
f 7/35/16 27/28/24 28/27/23
f 28/27/23 29/26/22 11/37/17
f 29/26/22 30/25/21 13/38/31
f 30/25/21 31/23/19 15/39/18
f 31/23/19 32/24/20 1/40/27
usemtl branches
f 49/1/32 36/2/33 50/3/34
f 50/3/34 38/4/35 51/5/36
f 51/5/36 40/6/37 52/7/38
f 52/7/38 42/8/39 53/9/40
f 42/8/39 54/10/41 53/9/40
f 44/11/42 55/12/43 54/10/41
f 46/13/44 42/14/39 38/15/35
f 46/16/44 56/17/45 55/12/43
f 48/18/46 49/19/32 56/17/45
f 39/20/47 43/21/48 47/22/49
f 56/17/45 64/24/50 63/23/51
f 62/25/52 56/17/45 63/23/51
f 61/26/53 55/12/43 62/25/52
f 60/27/54 54/10/41 61/26/53
f 59/28/55 53/9/40 60/27/54
f 51/5/36 59/28/55 58/29/56
f 50/3/34 58/29/56 57/30/57
f 49/1/32 57/30/57 64/31/50
f 64/31/50 35/33/58 33/32/59
f 57/30/57 37/34/60 35/33/58
f 58/29/56 39/35/47 37/34/60
f 59/28/55 41/36/61 39/35/47
f 41/36/61 61/26/53 43/37/48
f 43/37/48 62/25/52 45/38/62
f 45/38/62 63/23/51 47/39/49
f 47/39/49 64/24/50 33/40/59
f 81/1/63 68/2/64 82/3/65
f 82/3/65 70/4/66 83/5/67
f 83/5/67 72/6/68 84/7/69
f 84/7/69 74/8/70 85/9/71
f 74/8/70 86/10/72 85/9/71
f 76/11/73 87/12/74 86/10/72
f 78/13/75 74/14/70 70/15/66
f 78/16/75 88/17/76 87/12/74
f 80/18/77 81/19/63 88/17/76
f 71/20/78 75/21/79 79/22/80
f 88/17/76 96/24/81 95/23/82
f 94/25/83 88/17/76 95/23/82
f 93/26/84 87/12/74 94/25/83
f 92/27/85 86/10/72 93/26/84
f 91/28/86 85/9/71 92/27/85
f 83/5/67 91/28/86 90/29/87
f 82/3/65 90/29/87 89/30/88
f 81/1/63 89/30/88 96/31/81
f 96/31/81 67/33/89 65/32/90
f 89/30/88 69/34/91 67/33/89
f 90/29/87 71/35/78 69/34/91
f 91/28/86 73/36/92 71/35/78
f 73/36/92 93/26/84 75/37/79
f 75/37/79 94/25/83 77/38/93
f 77/38/93 95/23/82 79/39/80
f 79/39/80 96/24/81 65/40/90
f 98/41/94 114/3/95 113/1/96
f 114/3/95 102/4/97 115/5/98
f 115/5/98 104/6/99 116/7/100
f 116/7/100 106/8/101 117/9/102
f 117/9/102 108/11/103 118/10/104
f 108/11/103 119/12/105 118/10/104
f 110/13/106 106/14/101 102/15/97
f 110/16/106 120/17/107 119/12/105
f 112/18/108 113/19/96 120/17/107
f 103/20/109 107/21/110 111/22/111
f 120/17/107 128/24/112 127/23/113
f 119/12/105 127/23/113 126/25/114
f 125/26/115 119/12/105 126/25/114
f 124/27/116 118/10/104 125/26/115
f 123/28/117 117/9/102 124/27/116
f 122/29/118 116/7/100 123/28/117
f 114/3/95 122/29/118 121/30/119
f 113/1/96 121/30/119 128/31/112
f 128/31/112 99/33/120 97/32/121
f 121/30/119 101/34/122 99/33/120
f 122/29/118 103/35/109 101/34/122
f 103/35/109 124/27/116 105/36/123
f 105/36/123 125/26/115 107/37/110
f 107/37/110 126/25/114 109/38/124
f 109/38/124 127/23/113 111/39/111
f 127/23/113 97/40/121 111/39/111
s 0
f 136/42/125 134/43/125 137/44/125
f 135/45/126 134/43/126 130/46/126
f 133/47/127 135/45/127 129/48/127
f 133/47/128 136/42/128 137/44/128
f 146/44/129 141/49/129 143/43/129
f 146/44/130 139/46/130 144/45/130
f 142/47/131 144/45/131 138/48/131
f 142/47/132 145/42/132 146/44/132
f 154/42/133 152/43/133 155/44/133
f 153/45/134 152/43/134 148/46/134
f 151/47/135 153/45/135 147/48/135
f 151/47/136 154/42/136 155/44/136
f 164/44/137 159/49/137 161/43/137
f 164/44/138 157/46/138 162/45/138
f 160/47/139 162/45/139 156/48/139
f 160/47/140 163/42/140 164/44/140
f 172/42/141 170/43/141 173/44/141
f 171/45/142 170/43/142 166/46/142
f 169/47/143 171/45/143 165/48/143
f 169/47/144 172/42/144 173/44/144
f 182/44/145 177/49/145 179/43/145
f 182/44/146 175/46/146 180/45/146
f 178/47/147 180/45/147 174/48/147
f 178/47/148 181/42/148 182/44/148
f 190/42/149 188/43/149 191/44/149
f 189/45/150 188/43/150 184/46/150
f 187/47/151 189/45/151 183/48/151
f 187/47/152 190/42/152 191/44/152
f 200/44/153 195/49/153 197/43/153
f 200/44/154 193/46/154 198/45/154
f 196/47/155 198/45/155 192/48/155
f 196/47/156 199/42/156 200/44/156
f 206/43/157 203/50/157 205/47/157
f 202/46/158 205/47/158 201/48/158
f 212/43/159 209/50/159 211/47/159
f 208/46/160 211/47/160 207/48/160
f 217/47/161 216/49/161 215/50/161
f 213/48/162 218/43/162 217/47/162
f 224/43/163 221/50/163 223/47/163
f 220/46/164 223/47/164 219/48/164
f 230/43/165 227/50/165 229/47/165
f 225/48/166 230/43/166 229/47/166
f 236/43/167 233/50/167 235/47/167
f 232/46/168 235/47/168 231/48/168
f 241/47/169 240/49/169 239/50/169
f 237/48/170 242/43/170 241/47/170
f 248/43/171 245/50/171 247/47/171
f 243/48/172 248/43/172 247/47/172
f 254/43/173 251/50/173 253/47/173
f 249/48/174 254/43/174 253/47/174
f 260/43/175 257/50/175 259/47/175
f 256/46/176 259/47/176 255/48/176
f 266/43/177 263/50/177 265/47/177
f 261/48/178 266/43/178 265/47/178
f 272/43/179 269/50/179 271/47/179
f 267/48/180 272/43/180 271/47/180
f 278/43/181 275/50/181 277/47/181
f 273/48/182 278/43/182 277/47/182
f 284/43/183 281/50/183 283/47/183
f 279/48/184 284/43/184 283/47/184
f 289/47/185 288/49/185 287/50/185
f 285/48/186 290/43/186 289/47/186
f 296/43/187 293/50/187 295/47/187
f 292/46/188 295/47/188 291/48/188
f 301/47/189 300/49/189 299/50/189
f 297/48/190 302/43/190 301/47/190
f 308/43/191 305/50/191 307/47/191
f 304/46/192 307/47/192 303/48/192
f 313/47/193 312/49/193 311/50/193
f 309/48/194 314/43/194 313/47/194
f 320/43/195 317/50/195 319/47/195
f 315/48/196 320/43/196 319/47/196
f 326/43/197 323/50/197 325/47/197
f 321/48/198 326/43/198 325/47/198
f 332/43/199 329/50/199 331/47/199
f 327/48/200 332/43/200 331/47/200
f 338/43/201 335/50/201 337/47/201
f 333/48/202 338/43/202 337/47/202
f 344/43/203 341/50/203 343/47/203
f 339/48/204 344/43/204 343/47/204
f 352/42/205 350/43/205 353/44/205
f 351/45/206 350/43/206 346/46/206
f 349/47/207 351/45/207 345/48/207
f 349/47/208 352/42/208 353/44/208
f 362/44/209 357/49/209 359/43/209
f 362/44/210 355/46/210 360/45/210
f 358/47/211 360/45/211 354/48/211
f 358/47/212 361/42/212 362/44/212
f 368/43/213 365/50/213 367/47/213
f 364/46/214 367/47/214 363/48/214
f 374/43/215 371/50/215 373/47/215
f 370/46/216 373/47/216 369/48/216
f 380/43/217 377/50/217 379/47/217
f 376/46/218 379/47/218 375/48/218
f 386/43/219 383/50/219 385/47/219
f 382/46/220 385/47/220 381/48/220
f 391/47/221 390/49/221 389/50/221
f 387/48/222 392/43/222 391/47/222
f 398/43/223 395/50/223 397/47/223
f 394/46/224 397/47/224 393/48/224
f 403/47/225 402/49/225 401/50/225
f 400/46/226 403/47/226 399/48/226
f 410/43/227 407/50/227 409/47/227
f 405/48/228 410/43/228 409/47/228
f 416/43/229 413/50/229 415/47/229
f 412/46/230 415/47/230 411/48/230
f 422/43/231 419/50/231 421/47/231
f 418/46/232 421/47/232 417/48/232
f 427/47/233 426/49/233 425/50/233
f 424/46/234 427/47/234 423/48/234
f 434/43/235 431/50/235 433/47/235
f 430/46/236 433/47/236 429/48/236
f 439/47/237 438/49/237 437/50/237
f 435/48/238 440/43/238 439/47/238
f 446/43/239 443/50/239 445/47/239
f 442/46/240 445/47/240 441/48/240
f 451/47/241 450/49/241 449/50/241
f 448/46/242 451/47/242 447/48/242
f 458/43/243 455/50/243 457/47/243
f 453/48/244 458/43/244 457/47/244
f 464/43/245 461/50/245 463/47/245
f 459/48/246 464/43/246 463/47/246
f 470/43/247 467/50/247 469/47/247
f 465/48/248 470/43/248 469/47/248
f 476/43/249 473/50/249 475/47/249
f 472/46/250 475/47/250 471/48/250
f 482/43/251 479/50/251 481/47/251
f 478/46/252 481/47/252 477/48/252
f 487/47/253 486/49/253 485/50/253
f 484/46/254 487/47/254 483/48/254
f 494/43/255 491/50/255 493/47/255
f 490/46/256 493/47/256 489/48/256
f 500/43/257 497/50/257 499/47/257
f 496/46/258 499/47/258 495/48/258
f 506/43/259 503/50/259 505/47/259
f 501/48/260 506/43/260 505/47/260
f 511/47/261 510/49/261 509/50/261
f 507/48/262 512/43/262 511/47/262
f 518/43/263 515/50/263 517/47/263
f 514/46/264 517/47/264 513/48/264
f 523/47/265 522/49/265 521/50/265
f 519/48/266 524/43/266 523/47/266
f 530/43/267 527/50/267 529/47/267
f 526/46/268 529/47/268 525/48/268
f 536/43/269 533/50/269 535/47/269
f 531/48/270 536/43/270 535/47/270
f 542/43/271 539/50/271 541/47/271
f 538/46/272 541/47/272 537/48/272
f 547/47/273 546/49/273 545/50/273
f 543/48/274 548/43/274 547/47/274
f 554/43/275 551/50/275 553/47/275
f 550/46/276 553/47/276 549/48/276
f 560/43/277 557/50/277 559/47/277
f 555/48/278 560/43/278 559/47/278
f 566/43/279 563/50/279 565/47/279
f 562/46/280 565/47/280 561/48/280
f 571/47/281 570/49/281 569/50/281
f 568/46/282 571/47/282 567/48/282
f 578/43/283 575/50/283 577/47/283
f 573/48/284 578/43/284 577/47/284
f 583/47/285 582/49/285 581/50/285
f 579/48/286 584/43/286 583/47/286
f 590/43/287 587/50/287 589/47/287
f 585/48/288 590/43/288 589/47/288
f 595/47/289 594/49/289 593/50/289
f 591/48/290 596/43/290 595/47/290
f 602/43/291 599/50/291 601/47/291
f 598/46/292 601/47/292 597/48/292
f 607/47/293 606/49/293 605/50/293
f 603/48/294 608/43/294 607/47/294
f 614/43/295 611/50/295 613/47/295
f 610/46/296 613/47/296 609/48/296
f 619/47/297 618/49/297 617/50/297
f 615/48/298 620/43/298 619/47/298
f 626/43/299 623/50/299 625/47/299
f 621/48/300 626/43/300 625/47/300
f 631/47/301 630/49/301 629/50/301
f 628/46/302 631/47/302 627/48/302
f 638/43/303 635/50/303 637/47/303
f 633/48/304 638/43/304 637/47/304
f 644/43/305 641/50/305 643/47/305
f 640/46/306 643/47/306 639/48/306
f 650/43/307 647/50/307 649/47/307
f 645/48/308 650/43/308 649/47/308
f 656/43/309 653/50/309 655/47/309
f 652/46/310 655/47/310 651/48/310
f 662/43/311 659/50/311 661/47/311
f 657/48/312 662/43/312 661/47/312
f 668/43/313 665/50/313 667/47/313
f 664/46/314 667/47/314 663/48/314
f 674/43/315 671/50/315 673/47/315
f 669/48/316 674/43/316 673/47/316
f 682/42/317 680/43/317 683/44/317
f 681/45/318 680/43/318 676/46/318
f 679/47/319 681/45/319 675/48/319
f 679/47/320 682/42/320 683/44/320
f 692/44/321 687/49/321 689/43/321
f 692/44/322 685/46/322 690/45/322
f 688/47/323 690/45/323 684/48/323
f 688/47/324 691/42/324 692/44/324
f 697/47/325 696/49/325 695/50/325
f 693/48/326 698/43/326 697/47/326
f 704/43/327 701/50/327 703/47/327
f 700/46/328 703/47/328 699/48/328
f 709/47/329 708/49/329 707/50/329
f 706/46/330 709/47/330 705/48/330
f 716/43/331 713/50/331 715/47/331
f 711/48/332 716/43/332 715/47/332
s 1
f 733/1/333 720/2/334 734/3/335
f 734/3/335 722/4/336 735/5/337
f 735/5/337 724/6/338 736/7/339
f 736/7/339 726/8/340 737/9/341
f 726/8/340 738/10/342 737/9/341
f 728/11/343 739/12/344 738/10/342
f 730/13/345 726/14/340 722/15/336
f 730/16/345 740/17/346 739/12/344
f 732/18/347 733/19/333 740/17/346
f 723/20/348 727/21/349 731/22/350
f 740/17/346 748/24/351 747/23/352
f 746/25/353 740/17/346 747/23/352
f 745/26/354 739/12/344 746/25/353
f 744/27/355 738/10/342 745/26/354
f 743/28/356 737/9/341 744/27/355
f 735/5/337 743/28/356 742/29/357
f 734/3/335 742/29/357 741/30/358
f 733/1/333 741/30/358 748/31/351
f 748/31/351 719/33/359 717/32/360
f 741/30/358 721/34/361 719/33/359
f 742/29/357 723/35/348 721/34/361
f 743/28/356 725/36/362 723/35/348
f 725/36/362 745/26/354 727/37/349
f 727/37/349 746/25/353 729/38/363
f 729/38/363 747/23/352 731/39/350
f 731/39/350 748/24/351 717/40/360
s 0
f 756/42/364 754/43/364 757/44/364
f 755/45/365 754/43/365 750/46/365
f 753/47/366 755/45/366 749/48/366
f 753/47/367 756/42/367 757/44/367
f 766/44/368 761/49/368 763/43/368
f 766/44/369 759/46/369 764/45/369
f 762/47/370 764/45/370 758/48/370
f 762/47/371 765/42/371 766/44/371
f 771/47/372 770/49/372 769/50/372
f 767/48/373 772/43/373 771/47/373
f 778/43/374 775/50/374 777/47/374
f 774/46/375 777/47/375 773/48/375
f 783/47/376 782/49/376 781/50/376
f 779/48/377 784/43/377 783/47/377
f 790/43/378 787/50/378 789/47/378
f 785/48/379 790/43/379 789/47/379
f 795/47/380 794/49/380 793/50/380
f 792/46/381 795/47/381 791/48/381
f 802/43/382 799/50/382 801/47/382
f 798/46/383 801/47/383 797/48/383
f 807/47/384 806/49/384 805/50/384
f 804/46/385 807/47/385 803/48/385
f 814/43/386 811/50/386 813/47/386
f 810/46/387 813/47/387 809/48/387
f 819/47/388 818/49/388 817/50/388
f 815/48/389 820/43/389 819/47/389
f 826/43/390 823/50/390 825/47/390
f 822/46/391 825/47/391 821/48/391
f 831/47/392 830/49/392 829/50/392
f 827/48/393 832/43/393 831/47/393
f 838/43/394 835/50/394 837/47/394
f 833/48/395 838/43/395 837/47/395
f 843/47/396 842/49/396 841/50/396
f 839/48/397 844/43/397 843/47/397
f 850/43/398 847/50/398 849/47/398
f 846/46/399 849/47/399 845/48/399
f 855/47/400 854/49/400 853/50/400
f 851/48/401 856/43/401 855/47/401
f 862/43/402 859/50/402 861/47/402
f 858/46/403 861/47/403 857/48/403
f 867/47/404 866/49/404 865/50/404
f 864/46/405 867/47/405 863/48/405
f 874/43/406 871/50/406 873/47/406
f 870/46/407 873/47/407 869/48/407
s 1
f 49/1/32 34/41/409 36/2/33
f 50/3/34 36/2/33 38/4/35
f 51/5/36 38/4/35 40/6/37
f 52/7/38 40/6/37 42/8/39
f 42/8/39 44/11/42 54/10/41
f 44/11/42 46/16/44 55/12/43
f 38/15/35 36/51/33 34/52/409
f 34/52/409 48/53/46 46/13/44
f 46/13/44 44/54/42 42/14/39
f 42/14/39 40/55/37 38/15/35
f 38/15/35 34/52/409 46/13/44
f 46/16/44 48/18/46 56/17/45
f 48/18/46 34/56/409 49/19/32
f 47/22/49 33/57/59 35/58/58
f 35/58/58 37/59/60 39/20/47
f 39/20/47 41/60/61 43/21/48
f 43/21/48 45/61/62 47/22/49
f 47/22/49 35/58/58 39/20/47
f 56/17/45 49/19/32 64/24/50
f 62/25/52 55/12/43 56/17/45
f 61/26/53 54/10/41 55/12/43
f 60/27/54 53/9/40 54/10/41
f 59/28/55 52/7/38 53/9/40
f 51/5/36 52/7/38 59/28/55
f 50/3/34 51/5/36 58/29/56
f 49/1/32 50/3/34 57/30/57
f 64/31/50 57/30/57 35/33/58
f 57/30/57 58/29/56 37/34/60
f 58/29/56 59/28/55 39/35/47
f 59/28/55 60/27/54 41/36/61
f 41/36/61 60/27/54 61/26/53
f 43/37/48 61/26/53 62/25/52
f 45/38/62 62/25/52 63/23/51
f 47/39/49 63/23/51 64/24/50
f 81/1/63 66/41/410 68/2/64
f 82/3/65 68/2/64 70/4/66
f 83/5/67 70/4/66 72/6/68
f 84/7/69 72/6/68 74/8/70
f 74/8/70 76/11/73 86/10/72
f 76/11/73 78/16/75 87/12/74
f 70/15/66 68/51/64 66/52/410
f 66/52/410 80/53/77 78/13/75
f 78/13/75 76/54/73 74/14/70
f 74/14/70 72/55/68 70/15/66
f 70/15/66 66/52/410 78/13/75
f 78/16/75 80/18/77 88/17/76
f 80/18/77 66/56/410 81/19/63
f 79/22/80 65/57/90 67/58/89
f 67/58/89 69/59/91 71/20/78
f 71/20/78 73/60/92 75/21/79
f 75/21/79 77/61/93 79/22/80
f 79/22/80 67/58/89 71/20/78
f 88/17/76 81/19/63 96/24/81
f 94/25/83 87/12/74 88/17/76
f 93/26/84 86/10/72 87/12/74
f 92/27/85 85/9/71 86/10/72
f 91/28/86 84/7/69 85/9/71
f 83/5/67 84/7/69 91/28/86
f 82/3/65 83/5/67 90/29/87
f 81/1/63 82/3/65 89/30/88
f 96/31/81 89/30/88 67/33/89
f 89/30/88 90/29/87 69/34/91
f 90/29/87 91/28/86 71/35/78
f 91/28/86 92/27/85 73/36/92
f 73/36/92 92/27/85 93/26/84
f 75/37/79 93/26/84 94/25/83
f 77/38/93 94/25/83 95/23/82
f 79/39/80 95/23/82 96/24/81
f 98/41/94 100/2/411 114/3/95
f 114/3/95 100/2/411 102/4/97
f 115/5/98 102/4/97 104/6/99
f 116/7/100 104/6/99 106/8/101
f 117/9/102 106/8/101 108/11/103
f 108/11/103 110/16/106 119/12/105
f 102/15/97 100/51/411 98/52/94
f 98/52/94 112/53/108 110/13/106
f 110/13/106 108/54/103 106/14/101
f 106/14/101 104/55/99 102/15/97
f 102/15/97 98/52/94 110/13/106
f 110/16/106 112/18/108 120/17/107
f 112/18/108 98/56/94 113/19/96
f 111/22/111 97/57/121 99/58/120
f 99/58/120 101/59/122 103/20/109
f 103/20/109 105/60/123 107/21/110
f 107/21/110 109/61/124 111/22/111
f 111/22/111 99/58/120 103/20/109
f 120/17/107 113/19/96 128/24/112
f 119/12/105 120/17/107 127/23/113
f 125/26/115 118/10/104 119/12/105
f 124/27/116 117/9/102 118/10/104
f 123/28/117 116/7/100 117/9/102
f 122/29/118 115/5/98 116/7/100
f 114/3/95 115/5/98 122/29/118
f 113/1/96 114/3/95 121/30/119
f 128/31/112 121/30/119 99/33/120
f 121/30/119 122/29/118 101/34/122
f 122/29/118 123/28/117 103/35/109
f 103/35/109 123/28/117 124/27/116
f 105/36/123 124/27/116 125/26/115
f 107/37/110 125/26/115 126/25/114
f 109/38/124 126/25/114 127/23/113
f 127/23/113 128/24/112 97/40/121
s 0
f 136/42/125 132/49/125 134/43/125
f 135/45/126 137/44/126 134/43/126
f 133/47/127 137/44/127 135/45/127
f 133/47/128 131/50/128 136/42/128
f 146/44/129 145/42/129 141/49/129
f 146/44/130 143/43/130 139/46/130
f 142/47/131 146/44/131 144/45/131
f 142/47/132 140/50/132 145/42/132
f 154/42/133 150/49/133 152/43/133
f 153/45/134 155/44/134 152/43/134
f 151/47/135 155/44/135 153/45/135
f 151/47/136 149/50/136 154/42/136
f 164/44/137 163/42/137 159/49/137
f 164/44/138 161/43/138 157/46/138
f 160/47/139 164/44/139 162/45/139
f 160/47/140 158/50/140 163/42/140
f 172/42/141 168/49/141 170/43/141
f 171/45/142 173/44/142 170/43/142
f 169/47/143 173/44/143 171/45/143
f 169/47/144 167/50/144 172/42/144
f 182/44/145 181/42/145 177/49/145
f 182/44/412 179/43/412 175/46/412
f 178/47/147 182/44/147 180/45/147
f 178/47/148 176/50/148 181/42/148
f 190/42/149 186/49/149 188/43/149
f 189/45/150 191/44/150 188/43/150
f 187/47/151 191/44/151 189/45/151
f 187/47/152 185/50/152 190/42/152
f 200/44/153 199/42/153 195/49/153
f 200/44/154 197/43/154 193/46/154
f 196/47/155 200/44/155 198/45/155
f 196/47/156 194/50/156 199/42/156
f 206/43/157 204/49/157 203/50/157
f 202/46/158 206/43/158 205/47/158
f 212/43/159 210/49/159 209/50/159
f 208/46/160 212/43/160 211/47/160
f 217/47/161 218/43/161 216/49/161
f 213/48/162 214/46/162 218/43/162
f 224/43/163 222/49/163 221/50/163
f 220/46/164 224/43/164 223/47/164
f 230/43/165 228/49/165 227/50/165
f 225/48/166 226/46/166 230/43/166
f 236/43/167 234/49/167 233/50/167
f 232/46/168 236/43/168 235/47/168
f 241/47/169 242/43/169 240/49/169
f 237/48/170 238/46/170 242/43/170
f 248/43/171 246/49/171 245/50/171
f 243/48/172 244/46/172 248/43/172
f 254/43/173 252/49/173 251/50/173
f 249/48/174 250/46/174 254/43/174
f 260/43/175 258/49/175 257/50/175
f 256/46/176 260/43/176 259/47/176
f 266/43/177 264/49/177 263/50/177
f 261/48/178 262/46/178 266/43/178
f 272/43/179 270/49/179 269/50/179
f 267/48/180 268/46/180 272/43/180
f 278/43/181 276/49/181 275/50/181
f 273/48/182 274/46/182 278/43/182
f 284/43/183 282/49/183 281/50/183
f 279/48/184 280/46/184 284/43/184
f 289/47/185 290/43/185 288/49/185
f 285/48/186 286/46/186 290/43/186
f 296/43/187 294/49/187 293/50/187
f 292/46/188 296/43/188 295/47/188
f 301/47/189 302/43/189 300/49/189
f 297/48/190 298/46/190 302/43/190
f 308/43/191 306/49/191 305/50/191
f 304/46/192 308/43/192 307/47/192
f 313/47/193 314/43/193 312/49/193
f 309/48/194 310/46/194 314/43/194
f 320/43/195 318/49/195 317/50/195
f 315/48/196 316/46/196 320/43/196
f 326/43/197 324/49/197 323/50/197
f 321/48/198 322/46/198 326/43/198
f 332/43/199 330/49/199 329/50/199
f 327/48/200 328/46/200 332/43/200
f 338/43/201 336/49/201 335/50/201
f 333/48/202 334/46/202 338/43/202
f 344/43/203 342/49/203 341/50/203
f 339/48/204 340/46/204 344/43/204
f 352/42/205 348/49/205 350/43/205
f 351/45/206 353/44/206 350/43/206
f 349/47/207 353/44/207 351/45/207
f 349/47/208 347/50/208 352/42/208
f 362/44/209 361/42/209 357/49/209
f 362/44/210 359/43/210 355/46/210
f 358/47/211 362/44/211 360/45/211
f 358/47/212 356/50/212 361/42/212
f 368/43/213 366/49/213 365/50/213
f 364/46/214 368/43/214 367/47/214
f 374/43/215 372/49/215 371/50/215
f 370/46/216 374/43/216 373/47/216
f 380/43/217 378/49/217 377/50/217
f 376/46/218 380/43/218 379/47/218
f 386/43/219 384/49/219 383/50/219
f 382/46/220 386/43/220 385/47/220
f 391/47/221 392/43/221 390/49/221
f 387/48/222 388/46/222 392/43/222
f 398/43/223 396/49/223 395/50/223
f 394/46/224 398/43/224 397/47/224
f 403/47/225 404/43/225 402/49/225
f 400/46/226 404/43/226 403/47/226
f 410/43/227 408/49/227 407/50/227
f 405/48/228 406/46/228 410/43/228
f 416/43/229 414/49/229 413/50/229
f 412/46/230 416/43/230 415/47/230
f 422/43/231 420/49/231 419/50/231
f 418/46/232 422/43/232 421/47/232
f 427/47/233 428/43/233 426/49/233
f 424/46/234 428/43/234 427/47/234
f 434/43/235 432/49/235 431/50/235
f 430/46/236 434/43/236 433/47/236
f 439/47/237 440/43/237 438/49/237
f 435/48/238 436/46/238 440/43/238
f 446/43/239 444/49/239 443/50/239
f 442/46/240 446/43/240 445/47/240
f 451/47/241 452/43/241 450/49/241
f 448/46/242 452/43/242 451/47/242
f 458/43/243 456/49/243 455/50/243
f 453/48/244 454/46/244 458/43/244
f 464/43/245 462/49/245 461/50/245
f 459/48/246 460/46/246 464/43/246
f 470/43/247 468/49/247 467/50/247
f 465/48/248 466/46/248 470/43/248
f 476/43/249 474/49/249 473/50/249
f 472/46/250 476/43/250 475/47/250
f 482/43/251 480/49/251 479/50/251
f 478/46/252 482/43/252 481/47/252
f 487/47/253 488/43/253 486/49/253
f 484/46/254 488/43/254 487/47/254
f 494/43/255 492/49/255 491/50/255
f 490/46/256 494/43/256 493/47/256
f 500/43/257 498/49/257 497/50/257
f 496/46/258 500/43/258 499/47/258
f 506/43/259 504/49/259 503/50/259
f 501/48/260 502/46/260 506/43/260
f 511/47/261 512/43/261 510/49/261
f 507/48/262 508/46/262 512/43/262
f 518/43/263 516/49/263 515/50/263
f 514/46/264 518/43/264 517/47/264
f 523/47/265 524/43/265 522/49/265
f 519/48/266 520/46/266 524/43/266
f 530/43/267 528/49/267 527/50/267
f 526/46/268 530/43/268 529/47/268
f 536/43/269 534/49/269 533/50/269
f 531/48/270 532/46/270 536/43/270
f 542/43/413 540/49/413 539/50/413
f 538/46/272 542/43/272 541/47/272
f 547/47/273 548/43/273 546/49/273
f 543/48/274 544/46/274 548/43/274
f 554/43/275 552/49/275 551/50/275
f 550/46/276 554/43/276 553/47/276
f 560/43/277 558/49/277 557/50/277
f 555/48/278 556/46/278 560/43/278
f 566/43/279 564/49/279 563/50/279
f 562/46/280 566/43/280 565/47/280
f 571/47/281 572/43/281 570/49/281
f 568/46/282 572/43/282 571/47/282
f 578/43/283 576/49/283 575/50/283
f 573/48/284 574/46/284 578/43/284
f 583/47/285 584/43/285 582/49/285
f 579/48/286 580/46/286 584/43/286
f 590/43/287 588/49/287 587/50/287
f 585/48/288 586/46/288 590/43/288
f 595/47/289 596/43/289 594/49/289
f 591/48/290 592/46/290 596/43/290
f 602/43/291 600/49/291 599/50/291
f 598/46/292 602/43/292 601/47/292
f 607/47/293 608/43/293 606/49/293
f 603/48/294 604/46/294 608/43/294
f 614/43/295 612/49/295 611/50/295
f 610/46/296 614/43/296 613/47/296
f 619/47/297 620/43/297 618/49/297
f 615/48/298 616/46/298 620/43/298
f 626/43/299 624/49/299 623/50/299
f 621/48/300 622/46/300 626/43/300
f 631/47/301 632/43/301 630/49/301
f 628/46/302 632/43/302 631/47/302
f 638/43/303 636/49/303 635/50/303
f 633/48/304 634/46/304 638/43/304
f 644/43/305 642/49/305 641/50/305
f 640/46/306 644/43/306 643/47/306
f 650/43/307 648/49/307 647/50/307
f 645/48/308 646/46/308 650/43/308
f 656/43/309 654/49/309 653/50/309
f 652/46/310 656/43/310 655/47/310
f 662/43/311 660/49/311 659/50/311
f 657/48/312 658/46/312 662/43/312
f 668/43/313 666/49/313 665/50/313
f 664/46/314 668/43/314 667/47/314
f 674/43/315 672/49/315 671/50/315
f 669/48/316 670/46/316 674/43/316
f 682/42/317 678/49/317 680/43/317
f 681/45/318 683/44/318 680/43/318
f 679/47/319 683/44/319 681/45/319
f 679/47/320 677/50/320 682/42/320
f 692/44/321 691/42/321 687/49/321
f 692/44/322 689/43/322 685/46/322
f 688/47/323 692/44/323 690/45/323
f 688/47/324 686/50/324 691/42/324
f 697/47/325 698/43/325 696/49/325
f 693/48/326 694/46/326 698/43/326
f 704/43/327 702/49/327 701/50/327
f 700/46/328 704/43/328 703/47/328
f 709/47/329 710/43/329 708/49/329
f 706/46/330 710/43/330 709/47/330
f 716/43/331 714/49/331 713/50/331
f 711/48/332 712/46/332 716/43/332
s 1
f 733/1/333 718/41/414 720/2/334
f 734/3/335 720/2/334 722/4/336
f 735/5/337 722/4/336 724/6/338
f 736/7/339 724/6/338 726/8/340
f 726/8/340 728/11/343 738/10/342
f 728/11/343 730/16/345 739/12/344
f 722/15/336 720/51/334 718/52/414
f 718/52/414 732/53/347 730/13/345
f 730/13/345 728/54/343 726/14/340
f 726/14/340 724/55/338 722/15/336
f 722/15/336 718/52/414 730/13/345
f 730/16/345 732/18/347 740/17/346
f 732/18/347 718/56/414 733/19/333
f 731/22/350 717/57/360 719/58/359
f 719/58/359 721/59/361 723/20/348
f 723/20/348 725/60/362 727/21/349
f 727/21/349 729/61/363 731/22/350
f 731/22/350 719/58/359 723/20/348
f 740/17/346 733/19/333 748/24/351
f 746/25/353 739/12/344 740/17/346
f 745/26/354 738/10/342 739/12/344
f 744/27/355 737/9/341 738/10/342
f 743/28/356 736/7/339 737/9/341
f 735/5/337 736/7/339 743/28/356
f 734/3/335 735/5/337 742/29/357
f 733/1/333 734/3/335 741/30/358
f 748/31/351 741/30/358 719/33/359
f 741/30/358 742/29/357 721/34/361
f 742/29/357 743/28/356 723/35/348
f 743/28/356 744/27/355 725/36/362
f 725/36/362 744/27/355 745/26/354
f 727/37/349 745/26/354 746/25/353
f 729/38/363 746/25/353 747/23/352
f 731/39/350 747/23/352 748/24/351
s 0
f 756/42/364 752/49/364 754/43/364
f 755/45/365 757/44/365 754/43/365
f 753/47/366 757/44/366 755/45/366
f 753/47/367 751/50/367 756/42/367
f 766/44/368 765/42/368 761/49/368
f 766/44/369 763/43/369 759/46/369
f 762/47/370 766/44/370 764/45/370
f 762/47/371 760/50/371 765/42/371
f 771/47/372 772/43/372 770/49/372
f 767/48/373 768/46/373 772/43/373
f 778/43/374 776/49/374 775/50/374
f 774/46/375 778/43/375 777/47/375
f 783/47/376 784/43/376 782/49/376
f 779/48/377 780/46/377 784/43/377
f 790/43/378 788/49/378 787/50/378
f 785/48/379 786/46/379 790/43/379
f 795/47/380 796/43/380 794/49/380
f 792/46/381 796/43/381 795/47/381
f 802/43/382 800/49/382 799/50/382
f 798/46/383 802/43/383 801/47/383
f 807/47/384 808/43/384 806/49/384
f 804/46/385 808/43/385 807/47/385
f 814/43/386 812/49/386 811/50/386
f 810/46/387 814/43/387 813/47/387
f 819/47/388 820/43/388 818/49/388
f 815/48/389 816/46/389 820/43/389
f 826/43/390 824/49/390 823/50/390
f 822/46/391 826/43/391 825/47/391
f 831/47/392 832/43/392 830/49/392
f 827/48/393 828/46/393 832/43/393
f 838/43/394 836/49/394 835/50/394
f 833/48/395 834/46/395 838/43/395
f 843/47/396 844/43/396 842/49/396
f 839/48/397 840/46/397 844/43/397
f 850/43/398 848/49/398 847/50/398
f 846/46/399 850/43/399 849/47/399
f 855/47/400 856/43/400 854/49/400
f 851/48/401 852/46/401 856/43/401
f 862/43/402 860/49/402 859/50/402
f 858/46/403 862/43/403 861/47/403
f 867/47/404 868/43/404 866/49/404
f 864/46/405 868/43/405 867/47/405
f 874/43/406 872/49/406 871/50/406
f 870/46/407 874/43/407 873/47/407
