# Blender 5.0.1
# www.blender.org
mtllib old_city_house_1.mtl
o 2_2.0_2_2.0_0
v -4.000000 2.048113 4.710209
v -4.000000 2.270089 4.771576
v -4.000000 2.048113 4.638125
v 4.000000 1.914366 4.719219
v 4.000000 1.914366 4.667241
v 4.000000 2.141387 4.771576
v -0.459585 8.187876 5.071577
v 0.459585 8.187876 5.071577
v 0.000000 8.673730 4.599662
v -2.191415 7.920811 4.829643
v -2.191415 8.123365 4.771576
v -2.191415 8.123365 4.931576
v -3.059585 8.187876 5.071577
v -2.140415 8.187876 5.071577
v -2.600000 8.673731 4.599662
v -0.139356 10.469911 2.001577
v 4.000000 7.773313 4.203304
v 4.000000 10.531645 2.001577
v 4.000000 2.914939 4.471578
v 4.000000 2.914939 4.771576
v -3.703038 2.818272 4.471578
v -3.703038 2.818272 4.771576
v -3.703038 2.273422 4.771576
v 3.597590 2.909261 4.771576
v 3.597590 2.909261 4.471578
v 3.597590 2.135710 4.771576
v 3.597590 1.908689 4.667241
v -4.000000 2.814939 4.771576
v -4.000000 2.814939 4.471578
v -3.703038 2.051447 4.710209
v -3.703038 2.051447 4.638127
v 3.597590 1.908689 4.719221
v 4.000000 7.066313 4.771576
v 4.000000 7.066313 4.821576
v 4.000000 6.890030 4.771576
v -2.244644 5.907755 4.771576
v -0.999298 5.938981 4.771576
v -3.703038 6.890030 4.771576
v -2.244644 3.831087 4.771576
v -3.703038 2.818402 4.771576
v -0.999298 3.859953 4.771576
v 1.817054 3.891653 4.771576
v -0.137786 3.859953 4.771576
v 3.597590 2.909261 4.771576
v 0.408585 7.920811 4.829643
v 0.408585 8.123365 4.771576
v 0.408585 8.123365 4.931576
v 0.408585 7.723533 4.771576
v 0.346905 7.920811 4.829643
v 0.346905 8.123365 4.931576
v 0.346905 8.123365 4.771576
v 0.346905 7.723533 4.771576
v -0.346905 7.920811 4.829643
v -0.346905 8.123365 4.771576
v -0.346905 8.123365 4.931576
v -0.346905 7.723533 4.771576
v -0.408585 7.920811 4.829643
v -0.408585 8.123365 4.931576
v -0.408585 8.123365 4.771576
v -0.408585 7.723533 4.771576
v -2.191415 7.723533 4.771576
v -2.253095 7.920811 4.829643
v -2.253095 8.123365 4.931576
v -2.253095 8.123365 4.771576
v -2.253095 7.723533 4.771576
v -2.946904 7.920811 4.829643
v -2.946904 8.123365 4.771576
v -2.946904 8.123365 4.931576
v -2.946904 7.723533 4.771576
v -3.008584 7.920811 4.829643
v -3.008584 8.123365 4.931576
v -3.008584 8.123365 4.771576
v -3.008584 7.723533 4.771576
v 3.008584 7.920811 4.829643
v 3.008584 8.123365 4.771576
v 3.008584 8.123365 4.931576
v 2.140415 8.187876 5.071577
v 3.059585 8.187876 5.071577
v 2.600000 8.673731 4.599662
v 3.008584 7.723533 4.771576
v 2.946904 7.920811 4.829643
v 2.946904 8.123365 4.931576
v 2.946904 8.123365 4.771576
v 2.946904 7.723533 4.771576
v 2.253095 7.920811 4.829643
v 2.253095 8.123365 4.771576
v 2.253095 8.123365 4.931576
v 2.253095 7.723533 4.771576
v 2.191415 7.920811 4.829643
v 2.191415 8.123365 4.931576
v 2.191415 8.123365 4.771576
v 2.191415 7.723533 4.771576
v -2.975468 3.831087 4.771576
v -2.975468 5.907755 4.771576
v 2.864111 3.891653 4.771576
v 3.597590 6.890030 4.771576
v 1.817054 5.964814 4.771576
v 2.864111 5.964814 4.771576
v -0.137786 5.938981 4.771576
v -4.000000 7.773312 4.203304
v -4.000000 10.531645 2.001577
v -4.000000 7.066313 4.771576
v -4.000000 6.890030 4.771576
v -4.000000 7.066313 4.821576
v -4.000000 6.475632 -4.928425
v -4.000000 7.066313 4.471578
v -4.000000 8.224979 0.232195
v -4.000000 8.324977 0.232195
v -4.000000 10.531644 2.001577
v -0.139356 10.469911 2.001577
v 4.000000 10.531644 2.001577
v 4.000000 8.324979 0.232195
v 3.999999 6.475633 -4.928425
v 4.000000 8.224979 0.232195
v 4.000000 7.066313 4.471578
v 4.000000 7.673313 4.203304
v 4.000000 8.224981 0.232195
v 4.000000 10.431644 2.001577
v 4.000000 7.066313 4.771576
v 4.000000 7.066313 4.471578
v -4.000000 6.475632 -4.928425
v -2.427373 4.383498 -4.928424
v -4.000000 -0.085060 -4.928424
v -2.427373 5.287420 -4.928424
v -4.000000 6.475632 -4.928425
v -1.742488 5.287420 -4.928425
v -4.000000 6.475632 -4.928425
v -0.471184 5.728241 -4.928425
v -1.742488 5.287420 -4.928425
v -2.517087 -0.085060 -4.928424
v -4.000000 -0.085060 -4.928424
v -2.517087 1.654487 -4.928425
v -2.427373 4.383498 -4.928424
v -2.517087 1.654487 -4.928425
v -4.000000 -0.085060 -4.928424
v -2.427373 4.383498 -4.928424
v -4.000000 6.475632 -4.928425
v -2.427373 5.287420 -4.928424
v 2.750089 0.662331 -4.928425
v 3.999999 -0.085060 -4.928425
v 1.904264 0.662331 -4.928425
v 3.999999 -0.085060 -4.928425
v 0.471185 0.662331 -4.928425
v 1.904264 0.662331 -4.928425
v -4.000000 7.673313 4.203304
v -4.000000 10.431644 2.001577
v -4.000000 8.224981 0.232195
v -4.000000 7.673313 4.203304
v -4.000000 7.066313 4.471578
v -4.000000 7.066313 4.771576
v -4.000000 7.066313 4.821576
v 4.000000 7.066313 4.821576
v 4.000000 7.066313 4.901576
v -4.000000 7.066313 4.901576
v 3.479122 9.314789 2.275465
v 4.001000 9.314789 2.275465
v 4.001000 11.363021 2.275465
v 3.479122 11.363021 2.275465
v 3.479122 9.314789 2.275465
v 3.479122 11.363021 2.275465
v 3.479122 11.363021 1.122333
v 3.479122 9.314790 1.122333
v 4.001000 9.314790 1.122333
v 3.479122 9.314790 1.122333
v 3.479122 11.363021 1.122333
v 4.001000 11.363021 1.122333
v 4.001000 9.314789 2.275465
v 4.001000 9.314790 1.122333
v 4.001000 11.363021 1.122333
v 4.001000 11.363021 2.275465
v -0.409585 7.166314 4.771576
v -0.409585 8.187875 4.771576
v -0.409585 8.187875 3.495106
v -0.409585 7.166314 4.661897
v 0.409585 7.166314 4.661897
v 0.409585 8.187875 3.495106
v 0.409585 8.187875 4.771576
v 0.409585 7.166314 4.771576
v 0.459585 8.187876 5.071577
v 0.459585 8.187876 3.695107
v 0.000000 8.673731 3.211177
v 0.000000 8.673730 4.599662
v -0.459585 8.187876 3.695107
v -0.459585 8.187876 5.071577
v 0.000000 8.673730 4.599662
v 0.000000 8.673731 3.211177
v 0.409585 7.166314 4.771576
v 0.409585 8.187875 4.771576
v -0.409585 8.187875 4.771576
v -0.409585 7.166314 4.771576
v -2.191415 7.723533 4.771576
v -2.191415 7.920811 4.829643
v -2.253095 7.920811 4.829643
v -2.253095 7.723533 4.771576
v -2.191415 8.123365 4.931576
v -2.253095 8.123365 4.931576
v -3.009585 8.123365 4.961576
v -3.039585 8.187875 5.021576
v -3.039585 8.187875 3.846336
v -3.009585 8.123365 3.846336
v -2.160415 8.187875 5.021576
v -2.190415 8.123365 4.961576
v -2.190415 8.123365 3.846336
v -2.160415 8.187875 3.846336
v 0.409585 8.123365 4.961576
v 0.439585 8.187875 5.021576
v -0.439585 8.187875 5.021576
v -0.409585 8.123365 4.961576
v -2.190415 8.123365 4.961576
v -3.009585 8.123365 4.961576
v -3.009585 8.123365 3.846336
v -2.190415 8.123365 3.846336
v -3.059585 8.187876 5.071577
v -3.059585 8.187876 3.695107
v -2.140415 8.187876 3.695107
v -2.140415 8.187876 5.071577
v -2.190415 8.123365 4.961576
v -2.160415 8.187875 5.021576
v -3.039585 8.187875 5.021576
v -3.009585 8.123365 4.961576
v -2.190415 7.166314 4.771576
v -2.190415 8.187875 4.771576
v -3.009585 8.187875 4.771576
v -3.009585 7.166314 4.771576
v -3.059585 8.187876 3.695107
v -3.059585 8.187876 5.071577
v -2.600000 8.673731 4.599662
v -2.600000 8.673731 3.211177
v -2.140415 8.187876 5.071577
v -2.140415 8.187876 3.695107
v -2.600000 8.673731 3.211177
v -2.600000 8.673731 4.599662
v -0.459585 8.187876 5.071577
v -0.459585 8.187876 3.695107
v 0.459585 8.187876 3.695107
v 0.459585 8.187876 5.071577
v -2.190415 7.166314 4.661897
v -2.190415 8.187875 3.495106
v -2.190415 8.187875 4.771576
v -2.190415 7.166314 4.771576
v -3.009585 7.166314 4.771576
v -3.009585 8.187875 4.771576
v -3.009585 8.187875 3.495106
v -3.009585 7.166314 4.661897
v -4.000000 0.114939 4.471577
v -4.000000 0.114939 4.721577
v 4.000000 0.114939 4.721577
v 4.000000 0.114939 4.471577
v -4.000000 0.114939 4.721577
v -4.000000 -0.085061 4.721577
v 4.000000 -0.085061 4.721577
v 4.000000 0.114939 4.721577
v 0.000000 8.324979 0.232196
v 4.000000 8.324979 0.232196
v 3.999999 6.575632 -4.928424
v 0.000000 6.575632 -4.928424
v -3.703038 2.818272 4.471578
v -1.471604 2.848272 4.471578
v -1.471604 2.848272 4.771576
v -3.703038 2.818272 4.771576
v -1.471604 2.848272 4.471578
v 1.298959 2.881606 4.471578
v 1.298959 2.881606 4.771576
v -1.471604 2.848272 4.771576
v 1.298959 0.114939 4.471577
v 1.298959 2.881606 4.471578
v -1.471604 2.848272 4.471578
v -1.471604 0.114939 4.471577
v 1.298959 2.881606 4.471578
v 3.597590 2.909261 4.471578
v 3.597590 2.909261 4.771576
v 1.298959 2.881606 4.771576
v 4.000000 2.141387 4.771576
v 3.597590 2.135710 4.771576
v 3.597590 1.908689 4.719221
v 4.000000 1.914366 4.719219
v 4.000000 2.914939 4.771576
v 3.597590 2.909261 4.771576
v 3.597590 2.135710 4.771576
v 4.000000 2.141387 4.771576
v 3.597590 1.673260 4.471578
v 3.597590 1.673260 4.555024
v 1.752716 0.929969 4.471577
v 2.797308 0.929969 4.471577
v 2.797308 0.929969 4.283619
v 1.752716 0.929969 4.283619
v -3.703038 2.818272 4.771576
v -4.000000 2.814939 4.771576
v -4.000000 2.270089 4.771576
v -3.703038 2.273422 4.771576
v -3.703038 2.273422 4.771576
v -4.000000 2.270089 4.771576
v -4.000000 2.048113 4.710209
v -3.703038 2.051447 4.710209
v -3.703038 2.051447 4.638127
v -4.000000 2.048113 4.638125
v -4.000000 1.775688 4.541037
v -3.703038 1.779022 4.541037
v -4.000000 2.048113 4.638125
v -3.703038 2.051447 4.638127
v -3.703038 1.779022 4.471578
v -3.703038 1.779022 4.541037
v -4.000000 1.775688 4.471578
v -4.000000 1.775688 4.541037
v -4.000000 1.775688 4.471578
v -3.703038 1.779022 4.471578
v -3.703038 1.779022 4.541037
v -4.000000 1.775688 4.541037
v -2.806944 2.081106 4.471578
v -3.557444 2.081106 4.471578
v -3.557444 2.081106 4.368654
v -2.806944 2.081106 4.368654
v 4.000000 1.914366 4.667241
v 3.597590 1.908689 4.667241
v 3.597590 1.673260 4.555024
v 4.000000 1.678938 4.555024
v 4.000000 1.678938 4.555024
v 4.000000 1.678938 4.471578
v 3.597590 1.673260 4.471578
v 4.000000 1.678938 4.471578
v -2.806944 0.308050 4.471577
v -3.557444 0.308050 4.471577
v -4.000000 0.114939 4.471577
v -2.806944 2.081106 4.471578
v -3.557444 2.081106 4.471578
v -4.000000 2.814939 4.471578
v -3.557444 2.081106 4.471578
v -4.000000 2.814939 4.471578
v 2.797308 2.738754 4.471578
v 2.797308 0.929969 4.471577
v 4.000000 0.114939 4.471577
v 4.000000 2.914939 4.471578
v 1.752716 0.929969 4.471577
v 1.752716 2.738754 4.471578
v 2.797308 0.929969 4.471577
v 4.000000 0.114939 4.471577
v 1.752716 2.738754 4.471578
v 2.797308 2.738754 4.471578
v 1.298959 2.881606 4.471578
v 0.999877 2.626752 4.792271
v 0.999877 2.971053 4.792271
v 0.999877 2.971053 4.456168
v 0.999877 2.626752 4.456168
v 1.311565 2.626752 4.456168
v 1.311565 2.971053 4.456168
v 1.311565 2.971053 4.792271
v 1.311565 2.626752 4.792271
v 1.311565 2.626752 4.792271
v 1.311565 2.971053 4.792271
v 0.999877 2.971053 4.792271
v 0.999877 2.626752 4.792271
v 0.999877 2.626752 4.456168
v 1.311565 2.626752 4.456168
v 1.311565 2.626752 4.792271
v 0.999877 2.626752 4.792271
v -1.410236 2.626752 4.792271
v -1.410236 2.941749 4.792271
v -1.410236 2.941749 4.456168
v -1.410236 2.626752 4.456168
v -1.069406 2.626752 4.456168
v -1.069406 2.941749 4.456168
v -1.069406 2.941749 4.792271
v -1.069406 2.626752 4.792271
v -1.069406 2.626752 4.792271
v -1.069406 2.941749 4.792271
v -1.410236 2.941749 4.792271
v -1.410236 2.626752 4.792271
v -1.410236 2.626752 4.456168
v -1.069406 2.626752 4.456168
v -1.069406 2.626752 4.792271
v -1.410236 2.626752 4.792271
v 0.999877 2.971053 4.792271
v 1.311565 2.971053 4.792271
v 1.311565 2.971053 4.456168
v 0.999877 2.971053 4.456168
v -1.410236 2.941749 4.792271
v -1.069406 2.941749 4.792271
v -1.069406 2.941749 4.456168
v -1.410236 2.941749 4.456168
v -1.399074 2.350682 4.617275
v -1.399074 2.632301 4.738000
v -1.399074 2.632301 4.455972
v -1.399074 2.350682 4.455972
v -1.079127 2.350682 4.455972
v -1.079127 2.632301 4.455972
v -1.079127 2.632301 4.738000
v -1.079127 2.350682 4.617275
v -1.079127 2.350682 4.617275
v -1.079127 2.632301 4.738000
v -1.399074 2.632301 4.738000
v -1.399074 2.350682 4.617275
v -1.399074 2.350682 4.455972
v -1.079127 2.350682 4.455972
v -1.079127 2.350682 4.617275
v -1.399074 2.350682 4.617275
v 1.010102 2.350682 4.617275
v 1.010102 2.632301 4.738000
v 1.010102 2.632301 4.455972
v 1.010102 2.350682 4.455972
v 1.302693 2.350682 4.455972
v 1.302693 2.632301 4.455972
v 1.302693 2.632301 4.738000
v 1.302693 2.350682 4.617275
v 1.302693 2.350682 4.617275
v 1.302693 2.632301 4.738000
v 1.010102 2.632301 4.738000
v 1.010102 2.350682 4.617275
v 1.010102 2.350682 4.455972
v 1.302693 2.350682 4.455972
v 1.302693 2.350682 4.617275
v 1.010102 2.350682 4.617275
v -3.557444 0.308050 4.368653
v -2.806944 0.308050 4.368653
v -2.806944 2.081106 4.368654
v -3.557444 2.081106 4.368654
v -3.557444 0.308050 4.471577
v -2.806944 0.308050 4.471577
v -2.806944 0.308050 4.368653
v -3.557444 0.308050 4.368653
v -3.557444 2.081106 4.471578
v -3.557444 0.308050 4.471577
v -3.557444 0.308050 4.368653
v -3.557444 2.081106 4.368654
v -2.806944 0.308050 4.471577
v -2.806944 2.081106 4.471578
v -2.806944 2.081106 4.368654
v -2.806944 0.308050 4.368653
v 2.797308 0.929969 4.283619
v 2.797308 2.738754 4.283620
v 1.752716 2.738754 4.283620
v 1.752716 0.929969 4.283619
v 1.752716 2.738754 4.471578
v 1.752716 0.929969 4.471577
v 1.752716 0.929969 4.283619
v 1.752716 2.738754 4.283620
v 2.797308 0.929969 4.471577
v 2.797308 2.738754 4.471578
v 2.797308 2.738754 4.283620
v 2.797308 0.929969 4.283619
v 2.797308 2.738754 4.471578
v 1.752716 2.738754 4.471578
v 1.752716 2.738754 4.283620
v 2.797308 2.738754 4.283620
v 3.597590 1.908689 4.667241
v 4.000000 1.914366 4.667241
v 4.000000 6.890030 4.771576
v 3.597590 6.890030 4.771576
v -2.975468 5.907755 4.771576
v -2.975468 3.831087 4.771576
v -2.975468 3.831087 4.671576
v -2.975468 5.907755 4.671576
v 2.864111 3.891653 4.771576
v 2.864111 5.964814 4.771576
v 2.864111 5.964814 4.671576
v 2.864111 3.891653 4.671576
v -4.000000 2.814939 4.771576
v -3.703038 2.818402 4.771576
v -3.703038 6.890030 4.771576
v -4.000000 6.890030 4.771576
v -0.137786 5.938981 4.771576
v -0.999298 5.938981 4.771576
v -0.999298 5.938981 4.671576
v -0.137786 5.938981 4.671576
v -2.975468 3.831087 4.671576
v -2.244644 3.831087 4.671576
v -2.244644 5.907755 4.671576
v -2.975468 5.907755 4.671576
v -0.999298 3.859953 4.671576
v -0.137786 3.859953 4.671576
v -0.137786 5.938981 4.671576
v -0.999298 5.938981 4.671576
v 1.817054 3.891653 4.671576
v 2.864111 3.891653 4.671576
v 2.864111 5.964814 4.671576
v 1.817054 5.964814 4.671576
v -0.999298 3.859953 4.771576
v -0.137786 3.859953 4.771576
v -0.137786 3.859953 4.671576
v -0.999298 3.859953 4.671576
v 2.864111 5.964814 4.771576
v 1.817054 5.964814 4.771576
v 1.817054 5.964814 4.671576
v 2.864111 5.964814 4.671576
v -2.244644 3.831087 4.771576
v -2.244644 5.907755 4.771576
v -2.244644 5.907755 4.671576
v -2.244644 3.831087 4.671576
v -0.999298 5.938981 4.771576
v -0.999298 3.859953 4.771576
v -0.999298 3.859953 4.671576
v -0.999298 5.938981 4.671576
v 1.817054 3.891653 4.771576
v 2.864111 3.891653 4.771576
v 2.864111 3.891653 4.671576
v 1.817054 3.891653 4.671576
v -2.244644 5.907755 4.771576
v -2.975468 5.907755 4.771576
v -2.975468 5.907755 4.671576
v -2.244644 5.907755 4.671576
v -0.137786 3.859953 4.771576
v -0.137786 5.938981 4.771576
v -0.137786 5.938981 4.671576
v -0.137786 3.859953 4.671576
v 1.817054 5.964814 4.771576
v 1.817054 3.891653 4.771576
v 1.817054 3.891653 4.671576
v 1.817054 5.964814 4.671576
v -2.975468 3.831087 4.771576
v -2.244644 3.831087 4.771576
v -2.244644 3.831087 4.671576
v -2.975468 3.831087 4.671576
v 0.409585 8.123365 4.961576
v -0.409585 8.123365 4.961576
v -0.409585 8.123365 3.846336
v 0.409585 8.123365 3.846336
v 0.439585 8.187875 5.021576
v 0.409585 8.123365 4.961576
v 0.409585 8.123365 3.846336
v 0.439585 8.187875 3.846336
v -0.409585 8.123365 4.961576
v -0.439585 8.187875 5.021576
v -0.439585 8.187875 3.846336
v -0.409585 8.123365 3.846336
v 0.408585 7.920811 4.829643
v 0.408585 8.123365 4.931576
v 0.346905 8.123365 4.931576
v 0.346905 7.920811 4.829643
v 0.408585 7.723533 4.771576
v 0.346905 7.723533 4.771576
v -0.346905 7.920811 4.829643
v -0.346905 8.123365 4.931576
v -0.408585 8.123365 4.931576
v -0.408585 7.920811 4.829643
v -0.346905 7.723533 4.771576
v -0.408585 7.723533 4.771576
v -2.946904 7.920811 4.829643
v -2.946904 8.123365 4.931576
v -3.008584 8.123365 4.931576
v -3.008584 7.920811 4.829643
v -2.946904 7.723533 4.771576
v -3.008584 7.723533 4.771576
v 3.008584 7.723533 4.771576
v 3.008584 7.920811 4.829643
v 2.946904 7.920811 4.829643
v 2.946904 7.723533 4.771576
v 3.008584 8.123365 4.931576
v 2.946904 8.123365 4.931576
v 2.190415 8.123365 4.961576
v 2.160415 8.187875 5.021576
v 2.160415 8.187875 3.846336
v 2.190415 8.123365 3.846336
v 3.039585 8.187875 5.021576
v 3.009585 8.123365 4.961576
v 3.009585 8.123365 3.846336
v 3.039585 8.187875 3.846336
v 3.009585 8.123365 4.961576
v 2.190415 8.123365 4.961576
v 2.190415 8.123365 3.846336
v 3.009585 8.123365 3.846336
v 2.140415 8.187876 5.071577
v 2.140415 8.187876 3.695107
v 3.059585 8.187876 3.695107
v 3.059585 8.187876 5.071577
v 3.009585 8.123365 4.961576
v 3.039585 8.187875 5.021576
v 2.160415 8.187875 5.021576
v 2.190415 8.123365 4.961576
v 3.009585 7.166314 4.771576
v 3.009585 8.187875 4.771576
v 2.190415 8.187875 4.771576
v 2.190415 7.166314 4.771576
v 2.140415 8.187876 3.695107
v 2.140415 8.187876 5.071577
v 2.600000 8.673731 4.599662
v 2.600000 8.673731 3.211177
v 3.059585 8.187876 5.071577
v 3.059585 8.187876 3.695107
v 2.600000 8.673731 3.211177
v 2.600000 8.673731 4.599662
v 3.009585 7.166314 4.661897
v 3.009585 8.187875 3.495106
v 3.009585 8.187875 4.771576
v 3.009585 7.166314 4.771576
v 2.190415 7.166314 4.771576
v 2.190415 8.187875 4.771576
v 2.190415 8.187875 3.495106
v 2.190415 7.166314 4.661897
v 2.253095 7.920811 4.829643
v 2.253095 8.123365 4.931576
v 2.191415 8.123365 4.931576
v 2.191415 7.920811 4.829643
v 2.253095 7.723533 4.771576
v 2.191415 7.723533 4.771576
v -3.703038 6.890030 4.771576
v -2.975468 5.907755 4.771576
v -4.000000 6.890030 4.771576
v 4.000000 6.890030 4.771576
v 4.000000 7.066313 4.821576
v -4.000000 7.066313 4.821576
v -4.000000 7.166314 4.771576
v 4.000000 7.166314 4.771576
v 4.000000 7.773313 4.203304
v -4.000000 7.773312 4.203304
v -4.000000 7.066313 4.901576
v 4.000000 7.066313 4.901576
v 4.000000 7.166313 4.921576
v -4.000000 7.166313 4.921576
v -4.000000 7.166313 4.921576
v 4.000000 7.166313 4.921576
v 4.000000 7.166314 4.771576
v -4.000000 7.166314 4.771576
v 4.000000 2.914939 4.471578
v 4.000000 7.066313 4.471578
v 4.000000 7.066313 4.771576
v 4.000000 2.914939 4.771576
v -4.000000 7.066313 4.471578
v -4.000000 2.814939 4.471578
v -4.000000 7.066313 4.771576
v 4.000000 7.166313 4.921576
v 4.000000 7.066313 4.901576
v 4.000000 7.066313 4.771576
v 4.000000 7.166314 4.771576
v -4.000000 7.166313 4.921576
v -4.000000 7.166314 4.771576
v -4.000000 7.066313 4.771576
v -4.000000 7.066313 4.901576
v 4.000000 7.773313 4.203304
v 4.000000 7.166314 4.771576
v 4.000000 7.066313 4.771576
v 4.000000 7.673313 4.203304
v 4.000000 10.531644 2.001577
v 4.000000 7.773312 4.203304
v 4.000000 7.673312 4.203304
v 4.000000 10.431643 2.001577
v 4.000000 0.114939 4.721577
v 4.000000 -0.085061 4.721577
v 4.000000 -0.085061 4.471577
v 4.000000 0.114939 4.471577
v -4.000000 0.114939 4.721577
v -4.000000 0.114939 4.471577
v -4.000000 -0.085061 4.471577
v -4.000000 -0.085061 4.721577
v -4.000000 8.324980 0.232195
v 0.000000 8.324979 0.232196
v 0.000000 6.575632 -4.928424
v -4.000000 6.575632 -4.928424
v -4.000000 -0.085061 4.471577
v -4.000000 -0.085060 -4.928424
v -4.000000 8.324978 0.232195
v -4.000000 8.224979 0.232195
v -4.000000 10.431643 2.001577
v -4.000000 10.531642 2.001577
v -4.000000 10.531644 2.001577
v -4.000000 10.431643 2.001577
v -4.000000 7.673312 4.203304
v -4.000000 7.773312 4.203304
v -4.000000 8.324980 0.232195
v -4.000000 6.575632 -4.928424
v -4.000000 6.475632 -4.928425
v -4.000000 8.224979 0.232195
v -4.000000 7.773312 4.203304
v -4.000000 7.673312 4.203304
v -4.000000 7.066312 4.771576
v -4.000000 7.166312 4.771576
v 3.999999 6.575632 -4.928424
v 3.999999 6.475633 -4.928425
v 3.999999 6.495633 -5.028425
v 3.999999 6.575634 -5.048424
v 4.000000 -0.085061 4.471577
v 3.999999 -0.085060 -4.928425
v 3.999999 6.475633 -4.928425
v 4.000000 7.066313 4.471578
v 4.000000 8.324978 0.232195
v 4.000000 10.531642 2.001577
v 4.000000 10.431643 2.001577
v 4.000000 8.224979 0.232195
v 4.000000 8.224979 0.232195
v 3.999999 6.575632 -4.928424
v 4.000000 8.324979 0.232196
v 4.000000 8.224978 0.232196
v 3.999999 6.475633 -4.928425
v -1.742488 5.287420 -4.928425
v -1.742488 4.383498 -4.928424
v -1.742488 4.383498 -4.778424
v -1.742488 5.287420 -4.778425
v -1.742488 4.383498 -4.928424
v -2.427373 4.383498 -4.928424
v -2.427373 4.383498 -4.778424
v -1.742488 4.383498 -4.778424
v 1.555496 8.128515 -0.554997
v 2.444503 8.128515 -0.554997
v 2.444503 7.783453 -1.572939
v 1.555496 7.783453 -1.572939
v 1.555496 8.128515 -0.554997
v 1.555496 8.052179 -0.529121
v 2.444503 8.052179 -0.529121
v 2.444503 8.128515 -0.554997
v 2.444503 8.128515 -0.554997
v 2.444503 8.052179 -0.529121
v 2.444503 7.707118 -1.547063
v 2.444503 7.783453 -1.572939
v 1.555496 7.783453 -1.572939
v 1.555496 7.707118 -1.547063
v 1.555496 8.052179 -0.529121
v 1.555496 8.128515 -0.554997
v 2.444503 7.783453 -1.572939
v 2.444503 7.707118 -1.547063
v 1.555496 7.707118 -1.547063
v 1.555496 7.783453 -1.572939
v -0.845954 8.128515 -0.554997
v 0.043053 8.128515 -0.554997
v 0.043053 7.783453 -1.572939
v -0.845954 7.783453 -1.572939
v -0.845954 8.128515 -0.554997
v -0.845954 8.052179 -0.529121
v 0.043053 8.052179 -0.529121
v 0.043053 8.128515 -0.554997
v 0.043053 8.128515 -0.554997
v 0.043053 8.052179 -0.529121
v 0.043053 7.707118 -1.547063
v 0.043053 7.783453 -1.572939
v -0.845954 7.783453 -1.572939
v -0.845954 7.707118 -1.547063
v -0.845954 8.052179 -0.529121
v -0.845954 8.128515 -0.554997
v 0.043053 7.783453 -1.572939
v 0.043053 7.707118 -1.547063
v -0.845954 7.707118 -1.547063
v -0.845954 7.783453 -1.572939
v -2.427373 4.383498 -4.778424
v -2.427373 5.287420 -4.778424
v -1.742488 5.287420 -4.778425
v -1.742488 4.383498 -4.778424
v 1.904264 3.942677 -4.778424
v 1.904264 5.728241 -4.778425
v 2.750089 5.728241 -4.778425
v 2.750089 3.942677 -4.778424
v -0.471184 3.942677 -4.778424
v -0.471184 5.728241 -4.778425
v 0.471185 5.728241 -4.778425
v 0.471185 3.942677 -4.778424
v -0.471184 2.447896 -4.928425
v 2.750089 2.447896 -4.928425
v 2.750089 2.447896 -4.778426
v -0.471184 2.447896 -4.778426
v -2.427373 4.383498 -4.928424
v -2.427373 5.287420 -4.928424
v -2.427373 5.287420 -4.778424
v -2.427373 4.383498 -4.778424
v 2.750089 0.662331 -4.928425
v -0.471184 0.662331 -4.928425
v -0.471184 0.662331 -4.778425
v 2.750089 0.662331 -4.778425
v -2.427373 5.287420 -4.928424
v -1.742488 5.287420 -4.928425
v -1.742488 5.287420 -4.778425
v -2.427373 5.287420 -4.778424
v -1.742488 4.383498 -4.928424
v -1.742488 5.287420 -4.928425
v -0.471184 5.728241 -4.928425
v -0.471184 3.942677 -4.928424
v 1.904264 5.728241 -4.928425
v 1.904264 3.942677 -4.928424
v 0.471185 3.942677 -4.928424
v 0.471185 5.728241 -4.928425
v -0.471184 2.447896 -4.928425
v -0.471184 3.942677 -4.928424
v 2.750089 3.942677 -4.928424
v 2.750089 2.447896 -4.928425
v -1.742488 4.383498 -4.928424
v -0.471184 3.942677 -4.928424
v -0.471184 2.447896 -4.928425
v -1.742488 1.654487 -4.928425
v -1.742488 -0.085060 -4.928424
v -1.742488 1.654487 -4.928425
v -0.471184 2.447896 -4.928425
v -0.471184 0.662331 -4.928425
v 1.904264 2.447896 -4.928425
v 1.904264 0.662331 -4.928425
v 0.471185 0.662331 -4.928425
v 0.471185 2.447896 -4.928425
v -1.742488 4.383498 -4.928424
v -1.742488 1.654487 -4.928425
v -2.517087 1.654487 -4.928425
v -2.427373 4.383498 -4.928424
v 0.471185 0.662331 -4.928425
v 3.999999 -0.085060 -4.928425
v -1.742488 -0.085060 -4.928424
v -0.471184 0.662331 -4.928425
v -0.471184 0.662331 -4.928425
v -0.471184 5.728241 -4.928425
v -0.471184 5.728241 -4.778425
v -0.471184 0.662331 -4.778425
v 1.904264 0.662331 -4.778425
v 1.904264 2.447896 -4.778426
v 2.750089 2.447896 -4.778426
v 2.750089 0.662331 -4.778425
v -0.471184 0.662331 -4.778425
v -0.471184 2.447896 -4.778426
v 0.471185 2.447896 -4.778426
v 0.471185 0.662331 -4.778425
v 1.904264 0.662331 -4.928425
v 1.904264 5.728241 -4.928425
v 1.904264 5.728241 -4.778425
v 1.904264 0.662331 -4.778425
v -0.471184 5.728241 -4.928425
v 2.750089 5.728241 -4.928425
v 2.750089 5.728241 -4.778425
v -0.471184 5.728241 -4.778425
v 2.750089 5.728241 -4.928425
v 2.750089 0.662331 -4.928425
v 2.750089 0.662331 -4.778425
v 2.750089 5.728241 -4.778425
v 2.750089 3.942677 -4.928424
v -0.471184 3.942677 -4.928424
v -0.471184 3.942677 -4.778424
v 2.750089 3.942677 -4.778424
v 0.471185 5.728241 -4.928425
v 0.471185 0.662331 -4.928425
v 0.471185 0.662331 -4.778425
v 0.471185 5.728241 -4.778425
v -1.742488 1.654487 -4.928425
v -1.742488 -0.085060 -4.928424
v -1.742488 -0.085060 -4.778424
v -1.742488 1.654487 -4.778425
v -1.742488 1.654487 -4.778425
v -1.742488 -0.085060 -4.778424
v -2.517087 -0.085060 -4.778424
v -2.517087 1.654487 -4.778425
v -2.517087 1.654487 -4.928425
v -1.742488 1.654487 -4.928425
v -1.742488 1.654487 -4.778425
v -2.517087 1.654487 -4.778425
v -2.517087 -0.085060 -4.928424
v -2.517087 1.654487 -4.928425
v -2.517087 1.654487 -4.778425
v -2.517087 -0.085060 -4.778424
v 2.750089 0.662331 -4.928425
v 2.750089 5.728241 -4.928425
v 3.999999 6.475633 -4.928425
v 3.999999 -0.085060 -4.928425
v 2.750089 5.728241 -4.928425
v -0.471184 5.728241 -4.928425
v -4.000000 6.475632 -4.928425
v 3.999999 6.475633 -4.928425
v -4.000000 6.475632 -4.928425
v -4.000000 6.575632 -4.928424
v -4.000000 6.575632 -5.048424
v -4.000000 6.495632 -5.028425
v -4.000000 6.575632 -5.048424
v 3.999999 6.575634 -5.048424
v 3.999999 6.495633 -5.028425
v -4.000000 6.495632 -5.028425
v 3.999999 6.475633 -4.928425
v -4.000000 6.475632 -4.928425
v -4.000000 6.575632 -4.928424
v 3.999999 6.575632 -4.928424
v 3.999999 6.575634 -5.048424
v -4.000000 6.575632 -5.048424
v 1.465418 9.654209 1.226781
v 2.215743 9.654209 1.226781
v 2.215743 8.874983 0.599375
v 1.465418 8.874983 0.599375
v 1.465418 9.654209 1.226781
v 1.465418 9.607161 1.285215
v 2.215743 9.607161 1.285215
v 2.215743 9.654209 1.226781
v 2.215743 9.654209 1.226781
v 2.215743 9.607161 1.285215
v 2.215743 8.827932 0.657810
v 2.215743 8.874983 0.599375
v 1.465418 8.874983 0.599375
v 1.465418 8.827932 0.657810
v 1.465418 9.607161 1.285215
v 1.465418 9.654209 1.226781
v 2.215743 8.874983 0.599375
v 2.215743 8.827932 0.657810
v 1.465418 8.827932 0.657810
v 1.465418 8.874983 0.599375
v -0.625041 9.654209 1.226781
v 0.125284 9.654209 1.226781
v 0.125284 8.874983 0.599375
v -0.625041 8.874983 0.599375
v -0.625041 9.654209 1.226781
v -0.625041 9.607161 1.285215
v 0.125284 9.607161 1.285215
v 0.125284 9.654209 1.226781
v 0.125284 9.654209 1.226781
v 0.125284 9.607161 1.285215
v 0.125284 8.827932 0.657810
v 0.125284 8.874983 0.599375
v -0.625041 8.874983 0.599375
v -0.625041 8.827932 0.657810
v -0.625041 9.607161 1.285215
v -0.625041 9.654209 1.226781
v 0.125284 8.874983 0.599375
v 0.125284 8.827932 0.657810
v -0.625041 8.827932 0.657810
v -0.625041 8.874983 0.599375
v -2.922102 9.654209 1.226781
v -2.171777 9.654209 1.226781
v -2.171777 8.874983 0.599375
v -2.922102 8.874983 0.599375
v -2.922102 9.654209 1.226781
v -2.922102 9.607161 1.285215
v -2.171777 9.607161 1.285215
v -2.171777 9.654209 1.226781
v -2.171777 9.654209 1.226781
v -2.171777 9.607161 1.285215
v -2.171777 8.827932 0.657810
v -2.171777 8.874983 0.599375
v -2.922102 8.874983 0.599375
v -2.922102 8.827932 0.657810
v -2.922102 9.607161 1.285215
v -2.922102 9.654209 1.226781
v -2.171777 8.874983 0.599375
v -2.171777 8.827932 0.657810
v -2.922102 8.827932 0.657810
v -2.922102 8.874983 0.599375
v -4.000000 8.324019 0.230875
v -4.000000 8.399734 0.291484
v 4.000000 8.399736 0.291484
v 4.000000 8.324021 0.230875
v 4.051000 11.413021 2.325465
v 4.051000 11.413021 1.072333
v 3.429122 11.413021 1.072333
v 3.429122 11.413021 2.325465
v 4.051000 11.363021 2.325465
v 3.429122 11.363021 2.325465
v 3.429122 11.363021 1.072333
v 4.051000 11.363021 1.072333
v 3.429122 11.413021 1.072333
v 3.429122 11.363021 1.072333
v 3.429122 11.363021 2.325465
v 3.429122 11.413021 2.325465
v 4.051000 11.413021 2.325465
v 4.051000 11.363021 2.325465
v 4.051000 11.363021 1.072333
v 4.051000 11.413021 1.072333
v 4.051000 11.413021 1.072333
v 4.051000 11.363021 1.072333
v 3.429122 11.363021 1.072333
v 3.429122 11.413021 1.072333
v 3.429122 11.413021 2.325465
v 3.429122 11.363021 2.325465
v 4.051000 11.363021 2.325465
v 4.051000 11.413021 2.325465
v 3.885833 11.414021 2.119253
v 3.885833 11.414021 1.939053
v 3.594289 11.414021 1.939053
v 3.594289 11.414021 2.119253
v 3.885833 11.414021 1.441377
v 3.885833 11.414021 1.261176
v 3.594289 11.414021 1.261176
v 3.594289 11.414021 1.441377
v 3.885833 11.414021 1.773519
v 3.885833 11.414021 1.593318
v 3.594289 11.414021 1.593318
v 3.594289 11.414021 1.773519
vn -1.0000 -0.0000 -0.0000
vn 1.0000 -0.0000 -0.0000
vn -0.0000 0.6967 0.7173
vn 0.0003 0.6285 0.7778
vn -0.0052 0.6277 0.7785
vn -0.0093 0.6238 0.7815
vn -0.0000 -0.0000 1.0000
vn 0.0053 0.6279 0.7783
vn 0.0100 0.6238 0.7815
vn 0.0060 0.6299 -0.7767
vn 0.0100 0.6255 -0.7801
vn 0.0002 0.6321 -0.7749
vn -0.0093 0.6255 -0.7801
vn -0.0058 0.6296 -0.7769
vn -0.0000 -0.0000 -1.0000
vn -0.0000 -0.7977 0.6030
vn -0.0000 -1.0000 -0.0000
vn 0.7265 0.6872 -0.0000
vn -0.7265 0.6872 -0.0000
vn -0.0000 -0.2824 0.9593
vn -0.0000 -0.3674 0.9301
vn -0.0000 -0.4495 0.8933
vn -0.9067 -0.4217 -0.0000
vn 0.9067 -0.4217 -0.0000
vn -0.0000 -0.6811 0.7322
vn -0.0000 1.0000 -0.0000
vn -0.0000 0.9471 -0.3210
vn 0.0134 -0.9999 -0.0000
vn 0.0120 -0.9999 -0.0000
vn 0.0016 -0.1121 0.9937
vn 0.0016 -0.1141 0.9935
vn 0.0111 -0.7846 0.6199
vn 0.0110 -0.7803 0.6253
vn 0.0015 -0.1354 0.9908
vn 0.0015 -0.1335 0.9910
vn 0.0089 -0.7973 0.6035
vn 0.0089 -0.7941 0.6077
vn 0.0038 -0.3357 0.9420
vn 0.0092 -0.8186 0.5743
vn 0.0092 -0.8158 0.5782
vn 0.0112 -0.9999 -0.0000
vn 0.0091 -0.8158 0.5783
vn 0.0092 -0.8185 0.5744
vn 0.0061 -0.4303 0.9027
vn 0.0120 -0.8469 0.5315
vn 0.0119 -0.8442 0.5359
vn 0.0141 -0.9999 -0.0000
vn -0.0000 -0.3940 0.9191
vn -0.0000 -0.3674 0.9300
vn -0.0000 -0.2729 0.9621
vn -0.0000 -0.7978 0.6029
vn -0.0000 0.6834 0.7300
vn -0.0000 -0.1961 0.9806
vn -0.0000 0.3210 0.9471
vn -0.0000 -0.3210 -0.9471
vn -0.0000 -0.2425 -0.9701
vn -0.0000 -0.7237 -0.6901
vn -0.0000 -0.9806 -0.1961
vn -0.0000 0.6271 -0.7789
vn -0.0000 0.7789 0.6271
vn -0.0000 -0.7789 -0.6272
vn -0.0000 0.6249 -0.7807
vt 0.021484 0.882812
vt 0.013672 0.868164
vt 0.027344 0.882812
vt 0.966797 0.888672
vt 0.972656 0.888672
vt 0.958984 0.875000
vt 0.449469 0.045569
vt 0.577461 0.045569
vt 0.513465 0.000330
vt 0.974092 0.328237
vt 0.969617 0.318742
vt 0.956693 0.322362
vt 0.694400 0.045569
vt 0.822392 0.045569
vt 0.758396 0.000330
vt 0.482539 0.001846
vt 0.999946 0.227652
vt 0.999946 0.000000
vt 0.998047 0.826172
vt 0.958984 0.826172
vt 0.050781 0.832031
vt 0.011719 0.832031
vt 0.011719 0.868164
vt 0.996094 0.826172
vt 0.957031 0.826172
vt 0.996094 0.875000
vt 0.982422 0.889648
vt 0.013672 0.832031
vt 0.044922 0.832031
vt 0.017578 0.882812
vt 0.029297 0.882812
vt 0.988281 0.889648
vt 0.645803 0.566843
vt 0.652665 0.566843
vt 0.645803 0.578939
vt 0.226562 0.638672
vt 0.384766 0.636719
vt 0.044595 0.578979
vt 0.226562 0.769531
vt 0.044595 0.832031
vt 0.384766 0.767578
vt 0.736328 0.765625
vt 0.492188 0.767578
vt 0.958293 0.827148
vt 0.987709 0.334891
vt 0.058820 0.045569
vt 0.186812 0.045569
vt 0.122816 0.000330
vt 0.134766 0.769531
vt 0.134766 0.638672
vt 0.869141 0.765625
vt 0.958293 0.578979
vt 0.736328 0.634766
vt 0.869141 0.634766
vt 0.492188 0.636719
vt 0.000054 0.227651
vt 0.000054 0.000000
vt 0.054391 0.396218
vt 0.486733 0.382634
vt 0.291747 0.355989
vt 0.999952 0.182124
vt 0.999952 0.000000
vt 0.520911 0.000000
vt 0.000048 0.000000
vt 0.000048 0.182123
vt 0.471954 0.390862
vt 0.230240 0.349893
vt 0.031674 0.377028
vt 0.044240 0.362813
vt 0.147365 0.298215
vt 0.017623 0.377028
vt 0.007653 0.341214
vt 0.102528 0.404323
vt 0.007653 0.539115
vt 0.102528 0.377056
vt 0.143847 0.377056
vt 0.220544 0.363759
vt 0.097116 0.539115
vt 0.097116 0.486642
vt 0.414880 0.516570
vt 0.490287 0.539115
vt 0.363853 0.516570
vt 0.277396 0.516570
vt 0.474394 0.368676
vt 0.375097 0.304205
vt 0.291747 0.354364
vt 0.000000 0.578125
vt 1.000000 0.578125
vt 1.000000 0.567383
vt 0.000000 0.567383
vt 0.289063 0.352310
vt 0.258533 0.352310
vt 0.258532 0.412221
vt 0.289063 0.412221
vt 0.356521 0.412221
vt 0.356521 0.352310
vt 0.387051 0.352310
vt 0.387051 0.412221
vt 0.191074 0.352310
vt 0.191074 0.412221
vt 0.571154 0.192331
vt 0.571154 0.121145
vt 0.405408 0.121145
vt 0.558404 0.192331
vt 0.748236 0.192331
vt 0.901232 0.121145
vt 0.735487 0.121145
vt 0.735487 0.192331
vt 0.568542 0.045569
vt 0.740670 0.045569
vt 0.802460 0.000330
vt 0.628125 0.000330
vt 0.218928 0.045569
vt 0.388849 0.045569
vt 0.329266 0.001433
vt 0.157139 0.001433
vt 0.999382 0.386169
vt 0.999382 0.300590
vt 0.848410 0.300590
vt 0.848410 0.386169
vt 0.858988 0.338208
vt 0.858988 0.322625
vt 0.849641 0.322625
vt 0.849641 0.338208
vt 0.858988 0.305443
vt 0.849641 0.305443
vt 0.963918 0.304092
vt 0.998678 0.295362
vt 0.853845 0.295362
vt 0.853845 0.304092
vt 0.888605 0.304092
vt 0.998677 0.304092
vt 0.987724 0.303286
vt 0.998637 0.295274
vt 0.849643 0.295274
vt 0.860556 0.303286
vt 0.989550 0.303709
vt 0.941241 0.303709
vt 0.941241 0.310273
vt 0.989550 0.310273
vt 0.351857 0.711780
vt 0.351857 0.730582
vt 0.376968 0.730582
vt 0.376968 0.711780
vt 0.612678 0.045569
vt 0.782599 0.045569
vt 0.723016 0.001433
vt 0.550888 0.001433
vt 0.714261 0.045569
vt 0.886389 0.045569
vt 0.948178 0.000330
vt 0.773844 0.000330
vt 0.999987 0.565190
vt 0.999987 0.555163
vt 0.000012 0.555163
vt 0.000012 0.565189
vt 0.999989 0.565190
vt 0.999989 0.557169
vt 0.000011 0.557169
vt 0.000011 0.565189
vt 0.999333 0.391962
vt 0.583134 0.391962
vt 0.583134 0.545042
vt 0.999333 0.545042
vt 0.066406 0.827148
vt 0.332031 0.827148
vt 0.332031 0.819336
vt 0.066406 0.819336
vt 0.105469 0.826172
vt 0.304688 0.826172
vt 0.304688 0.820312
vt 0.105469 0.820312
vt 0.666016 0.998047
vt 0.666016 0.825195
vt 0.333347 0.829139
vt 0.333984 0.998047
vt 1.000000 0.876953
vt 0.957031 0.876953
vt 0.957031 0.887695
vt 1.000000 0.887695
vt 0.998047 0.875000
vt 0.957031 0.904297
vt 0.966797 0.904297
vt 0.722656 0.953125
vt 0.843750 0.953125
vt 0.843750 0.947266
vt 0.722656 0.947266
vt 0.007812 0.832031
vt 0.007812 0.868164
vt 0.044922 0.868164
vt 0.044224 0.863529
vt 0.016880 0.863529
vt 0.016880 0.875248
vt 0.044224 0.875248
vt 0.044224 0.878177
vt 0.016880 0.878177
vt 0.016880 0.892826
vt 0.044224 0.892826
vt 0.050781 0.900391
vt 0.042969 0.900391
vt 0.044922 0.900391
vt 0.037109 0.900391
vt 0.019531 0.894531
vt 0.046875 0.894531
vt 0.046875 0.890625
vt 0.019531 0.890625
vt 0.171875 0.876953
vt 0.085938 0.876953
vt 0.085938 0.879883
vt 0.171875 0.879883
vt 1.000000 0.890625
vt 0.957031 0.890625
vt 0.957031 0.903320
vt 1.000000 0.903320
vt 0.986328 0.904297
vt 0.998047 0.904297
vt 0.957031 0.907227
vt 1.000000 0.907227
vt 0.172703 0.987890
vt 0.082416 0.987890
vt 0.021484 0.998047
vt 0.172703 0.877083
vt 0.082416 0.877083
vt 0.021526 0.831222
vt 0.853516 0.835938
vt 0.847656 0.947266
vt 0.994629 0.998047
vt 0.994587 0.824973
vt 0.721241 0.949023
vt 0.721241 0.835983
vt 0.846908 0.835984
vt 0.314453 0.818359
vt 0.314453 0.825195
vt 0.333984 0.825195
vt 0.333984 0.818359
vt 0.671875 0.841797
vt 0.671875 0.822266
vt 0.632812 0.822266
vt 0.632812 0.841797
vt 0.615234 0.825195
vt 0.615234 0.820312
vt 0.603516 0.820312
vt 0.603516 0.825195
vt 0.373047 0.842773
vt 0.373047 0.825195
vt 0.337891 0.825195
vt 0.337891 0.842773
vt 0.365234 0.859375
vt 0.376953 0.845703
vt 0.351562 0.844727
vt 0.349609 0.858398
vt 0.378906 0.859375
vt 0.378906 0.844727
vt 0.347656 0.844727
vt 0.361328 0.859375
vt 0.375000 0.859375
vt 0.375000 0.844727
vt 0.347656 0.859375
vt 0.636719 0.857422
vt 0.667969 0.857422
vt 0.667969 0.849609
vt 0.636719 0.849609
vt 0.367188 0.858398
vt 0.349609 0.845703
vt 0.351562 0.859375
vt 0.082031 0.986328
vt 0.173828 0.986328
vt 0.173828 0.875000
vt 0.082031 0.875000
vt 0.089844 0.994141
vt 0.171875 0.994141
vt 0.171875 0.987305
vt 0.089844 0.987305
vt 0.072266 0.875000
vt 0.072266 0.986328
vt 0.080078 0.986328
vt 0.080078 0.875000
vt 0.080078 0.987305
vt 0.080078 0.875977
vt 0.072266 0.875977
vt 0.072266 0.987305
vt 0.849609 0.951172
vt 0.849609 0.836914
vt 0.724609 0.836914
vt 0.724609 0.951172
vt 0.695312 0.835938
vt 0.695312 0.949219
vt 0.720703 0.949219
vt 0.720703 0.835938
vt 0.855469 0.952148
vt 0.855469 0.833984
vt 0.849609 0.833984
vt 0.849609 0.952148
vt 0.849609 0.835938
vt 0.724609 0.835938
vt 0.724609 0.837891
vt 0.849609 0.837891
vt 0.998047 0.578979
vt 0.958984 0.578979
vt 0.486328 0.647461
vt 0.486328 0.754883
vt 0.496094 0.754883
vt 0.496094 0.647461
vt 0.015416 0.832031
vt 0.044922 0.579956
vt 0.017369 0.579956
vt 0.484375 0.636719
vt 0.386719 0.636719
vt 0.386719 0.643555
vt 0.484375 0.643555
vt 0.134766 0.766602
vt 0.224609 0.766602
vt 0.224609 0.639648
vt 0.134766 0.639648
vt 0.382812 0.765625
vt 0.488281 0.765625
vt 0.488281 0.638672
vt 0.382812 0.638672
vt 0.738281 0.763672
vt 0.867188 0.763672
vt 0.867188 0.637695
vt 0.738281 0.637695
vt 0.394531 0.768555
vt 0.476562 0.768555
vt 0.476562 0.765625
vt 0.394531 0.765625
vt 0.484375 0.639648
vt 0.386719 0.639648
vt 0.738281 0.767578
vt 0.851562 0.767578
vt 0.851562 0.764648
vt 0.738281 0.764648
vt 0.758396 0.045569
vt 0.928317 0.045569
vt 0.868735 0.001433
vt 0.696607 0.001433
vt 0.174793 0.045569
vt 0.346920 0.045569
vt 0.408710 0.000330
vt 0.234375 0.000330
vt 0.000010 0.578373
vt 0.999991 0.578372
vt 0.999991 0.566662
vt 0.000009 0.566662
vt 0.000054 0.290793
vt 0.999946 0.290793
vt 0.518420 0.554170
vt 0.518431 0.317950
vt 0.510185 0.317933
vt 0.510174 0.554153
vt 0.501305 0.317933
vt 0.501294 0.554153
vt 0.970703 0.826172
vt 0.970703 0.568359
vt 0.998047 0.568359
vt 0.035156 0.569336
vt 0.035156 0.832031
vt 0.013672 0.569336
vt 0.749214 0.439004
vt 0.720016 0.441924
vt 0.720016 0.460903
vt 0.749214 0.460903
vt 0.798237 0.237671
vt 0.208793 0.067333
vt 0.201763 0.058352
vt 0.791206 0.228690
vt 0.970921 0.555496
vt 0.970921 0.565366
vt 0.995596 0.565366
vt 0.995596 0.555496
vt 0.918278 0.391962
vt 0.502080 0.391962
vt 0.502080 0.545042
vt 0.918278 0.545042
vt 0.486733 0.547094
vt 0.054391 0.547094
vt 0.255277 0.182068
vt 0.247494 0.191266
vt 0.744723 0.057150
vt 0.752506 0.047952
vt 0.503738 0.331204
vt 0.503739 0.549550
vt 0.508560 0.550837
vt 0.508560 0.332491
vt 0.583135 0.391962
vt 0.031674 0.544507
vt 0.471954 0.544507
vt 0.508559 0.549550
vt 0.508559 0.331204
vt 0.503738 0.332490
vt 0.503738 0.550837
vt 0.421208 0.496724
vt 0.421208 0.523828
vt 0.494977 0.555515
vt 0.418065 0.555515
vt 0.418065 0.563937
vt 0.494977 0.563937
vt 0.599848 0.296395
vt 0.720855 0.296395
vt 0.720855 0.384514
vt 0.599848 0.384514
vt 0.601583 0.298189
vt 0.601583 0.304026
vt 0.715859 0.304026
vt 0.715859 0.298189
vt 0.611785 0.297416
vt 0.601448 0.297416
vt 0.601448 0.385012
vt 0.611785 0.385012
vt 0.601448 0.385012
vt 0.601448 0.297416
vt 0.721384 0.385245
vt 0.721384 0.383688
vt 0.601809 0.383688
vt 0.601809 0.385245
vt 0.599848 0.384514
vt 0.720855 0.384514
vt 0.863791 0.735360
vt 0.863732 0.671998
vt 0.733865 0.672014
vt 0.733924 0.735377
vt 0.225782 0.766935
vt 0.225782 0.674683
vt 0.132437 0.674682
vt 0.132437 0.766935
vt 0.488560 0.765714
vt 0.488560 0.673462
vt 0.381394 0.673462
vt 0.381394 0.765714
vt 0.421208 0.496724
vt 0.421208 0.496724
vt 0.421208 0.523828
vt 0.421208 0.496724
vt 0.552422 0.555201
vt 0.197997 0.555201
vt 0.197997 0.563453
vt 0.552422 0.563453
vt 0.143847 0.404323
vt 0.220544 0.417620
vt 0.363853 0.363759
vt 0.363853 0.417620
vt 0.277396 0.417620
vt 0.277396 0.363759
vt 0.220544 0.462710
vt 0.414880 0.417620
vt 0.414880 0.462710
vt 0.143847 0.486642
vt 0.143847 0.539115
vt 0.220544 0.516570
vt 0.363853 0.462710
vt 0.277396 0.462710
vt 0.402053 0.555201
vt 0.047628 0.555201
vt 0.047628 0.563453
vt 0.402053 0.563453
vt 0.352457 0.451849
vt 0.352457 0.479321
vt 0.079269 0.876664
vt 0.079269 0.994128
vt 0.175114 0.994128
vt 0.175114 0.876664
vt 0.394087 0.451849
vt 0.394088 0.479321
vt 0.414880 0.363759
vt 0.490287 0.341214
vt 0.502080 0.391962
vt 0.508876 0.321440
vt 0.508882 0.553238
vt 0.516526 0.553256
vt 0.516520 0.321457
vt 0.524171 0.553265
vt 0.524165 0.321467
vt 0.501231 0.321431
vt 0.501237 0.553229
vt 0.845740 0.296395
vt 0.724732 0.296395
vt 0.724732 0.384514
vt 0.845740 0.384514
vt 0.726467 0.298189
vt 0.726467 0.304026
vt 0.840743 0.304026
vt 0.840743 0.298189
vt 0.736670 0.297416
vt 0.726332 0.297416
vt 0.726332 0.385012
vt 0.736670 0.385012
vt 0.726332 0.385012
vt 0.726332 0.297416
vt 0.846269 0.385245
vt 0.846269 0.383688
vt 0.726694 0.383688
vt 0.726694 0.385245
vt 0.845740 0.384514
vt 0.724733 0.384514
vt 0.602967 0.296548
vt 0.602983 0.306507
vt 0.714474 0.306507
vt 0.714458 0.296548
vt 0.531747 0.317885
vt 0.531747 0.385515
vt 0.592963 0.385515
vt 0.592963 0.317885
vt 0.549392 0.296964
vt 0.549392 0.312440
vt 0.585776 0.312440
vt 0.585776 0.296964
s 0
usemtl mat_old_house_1
f 1/1/1 2/2/1 3/3/1
f 4/4/2 5/5/2 6/6/2
f 7/7/3 8/8/3 9/9/3
f 10/10/2 11/11/2 12/12/2
f 13/13/3 14/14/3 15/15/3
s 1
f 16/16/4 17/17/5 18/18/6
s 0
f 19/19/2 20/20/2 6/6/2
f 21/21/2 22/22/2 23/23/2
f 24/24/1 25/25/1 26/26/1
f 27/27/1 26/26/1 25/25/1
f 28/28/1 29/29/1 2/2/1
f 29/29/1 3/3/1 2/2/1
f 30/30/2 31/31/2 23/23/2
f 31/31/2 21/21/2 23/23/2
f 32/32/1 26/26/1 27/27/1
f 6/6/2 5/5/2 19/19/2
f 33/33/2 34/34/2 35/35/2
f 36/36/7 37/37/7 38/38/7
f 39/39/7 40/40/7 41/41/7
f 42/42/7 43/43/7 44/44/7
f 45/10/2 46/11/2 47/12/2
f 45/10/2 48/45/2 46/11/2
f 49/10/1 50/12/1 51/11/1
f 49/10/1 51/11/1 52/45/1
f 53/10/2 54/11/2 55/12/2
f 53/10/2 56/45/2 54/11/2
f 57/10/1 58/12/1 59/11/1
f 57/10/1 59/11/1 60/45/1
f 10/10/2 61/45/2 11/11/2
f 62/10/1 63/12/1 64/11/1
f 62/10/1 64/11/1 65/45/1
f 66/10/2 67/11/2 68/12/2
f 66/10/2 69/45/2 67/11/2
f 70/10/1 71/12/1 72/11/1
f 70/10/1 72/11/1 73/45/1
f 74/10/2 75/11/2 76/12/2
f 77/46/3 78/47/3 79/48/3
f 74/10/2 80/45/2 75/11/2
f 81/10/1 82/12/1 83/11/1
f 81/10/1 83/11/1 84/45/1
f 85/10/2 86/11/2 87/12/2
f 85/10/2 88/45/2 86/11/2
f 89/10/1 90/12/1 91/11/1
f 89/10/1 91/11/1 92/45/1
f 40/40/7 39/39/7 93/49/7
f 38/38/7 94/50/7 36/36/7
f 44/44/7 95/51/7 42/42/7
f 96/52/7 97/53/7 98/54/7
f 97/53/7 96/52/7 99/55/7
s 1
f 17/17/5 16/16/4 100/56/8
f 100/56/8 16/16/4 101/57/9
s 0
f 102/33/1 103/35/1 104/34/1
f 105/58/1 106/59/1 107/60/1
s 1
f 108/61/10 109/62/11 110/63/12
f 110/63/12 111/64/13 112/65/14
f 112/65/14 108/61/10 110/63/12
s 0
f 113/66/2 114/67/2 115/68/2
f 116/69/2 117/67/2 118/70/2
f 116/69/2 119/71/2 120/68/2
f 121/72/15 122/73/15 123/74/15
f 124/75/15 125/72/15 126/76/15
f 127/72/15 128/77/15 129/76/15
f 130/78/15 131/74/15 132/79/15
f 133/73/15 134/79/15 135/74/15
f 136/73/15 137/72/15 138/75/15
f 139/80/15 140/81/15 141/82/15
f 142/81/15 143/83/15 144/82/15
f 145/84/1 146/85/1 147/86/1
f 148/69/1 149/68/1 150/71/1
s 1
f 151/87/16 152/88/16 153/89/17
f 151/87/16 153/89/17 154/90/17
s 0
f 155/91/7 156/92/7 157/93/7
f 155/91/7 157/93/7 158/94/7
f 159/91/1 160/94/1 161/95/1
f 159/91/1 161/95/1 162/96/1
f 163/97/15 164/96/15 165/95/15
f 163/97/15 165/95/15 166/98/15
f 167/92/2 168/99/2 169/100/2
f 167/92/2 169/100/2 170/93/2
f 171/101/1 172/102/1 173/103/1
f 171/101/1 173/103/1 174/104/1
f 175/105/2 176/106/2 177/107/2
f 175/105/2 177/107/2 178/108/2
f 179/109/18 180/110/18 181/111/18
f 179/109/18 181/111/18 182/112/18
f 183/113/19 184/114/19 185/115/19
s 1
f 183/113/19 185/115/19 186/116/19
s 0
f 187/117/7 188/118/7 189/119/7
f 187/117/7 189/119/7 190/120/7
s 1
f 191/121/20 192/122/21 193/123/21
f 191/121/20 193/123/21 194/124/20
f 192/122/21 195/125/22 196/126/22
f 192/122/21 196/126/22 193/123/21
s 0
f 197/127/23 198/128/23 199/129/23
f 197/127/23 199/129/23 200/130/23
f 201/129/24 202/131/24 203/132/24
f 201/129/24 203/132/24 204/128/24
f 205/133/25 206/134/25 207/135/25
f 205/133/25 207/135/25 208/136/25
f 209/137/17 210/138/17 211/139/17
f 209/137/17 211/139/17 212/140/17
f 213/141/17 214/142/17 215/143/17
f 213/141/17 215/143/17 216/144/17
f 217/133/25 218/134/25 219/135/25
f 217/133/25 219/135/25 220/136/25
f 221/117/7 222/118/7 223/119/7
f 221/117/7 223/119/7 224/120/7
f 225/145/19 226/146/19 227/147/19
f 225/145/19 227/147/19 228/148/19
f 229/149/18 230/150/18 231/151/18
f 229/149/18 231/151/18 232/152/18
f 233/141/17 234/142/17 235/143/17
f 233/141/17 235/143/17 236/144/17
f 237/105/2 238/106/2 239/107/2
f 237/105/2 239/107/2 240/108/2
f 241/101/1 242/102/1 243/103/1
f 241/101/1 243/103/1 244/104/1
f 245/153/26 246/154/26 247/155/26
f 245/153/26 247/155/26 248/156/26
f 249/157/7 250/158/7 251/159/7
f 249/157/7 251/159/7 252/160/7
f 253/161/27 254/162/27 255/163/27
f 253/161/27 255/163/27 256/164/27
f 257/165/28 258/166/28 259/167/28
f 257/165/28 259/167/28 260/168/28
f 261/169/29 262/170/29 263/171/29
f 261/169/29 263/171/29 264/172/29
f 265/173/7 266/174/7 267/175/7
f 265/173/7 267/175/7 268/176/7
f 269/165/29 270/166/29 271/167/29
f 269/165/29 271/167/29 272/168/29
s 1
f 273/177/30 274/178/31 275/179/32
f 273/177/30 275/179/32 276/180/33
f 277/19/7 278/20/7 279/6/31
f 277/19/7 279/6/31 280/181/30
s 0
f 27/27/1 25/25/1 281/182/1
f 27/27/1 281/182/1 282/183/1
f 283/184/26 284/185/26 285/186/26
f 283/184/26 285/186/26 286/187/26
s 1
f 287/29/7 288/188/7 289/189/34
f 287/29/7 289/189/34 290/190/35
f 291/191/35 292/192/34 293/193/36
f 291/191/35 293/193/36 294/194/37
f 295/195/38 296/196/38 297/197/39
f 295/195/38 297/197/39 298/198/40
f 294/194/37 293/193/36 299/196/41
f 294/194/37 299/196/41 300/195/41
s 0
f 301/199/2 21/21/2 31/31/2
f 301/199/2 31/31/2 302/200/2
f 303/201/1 304/202/1 3/3/1
f 303/201/1 3/3/1 29/29/1
s 1
f 305/203/41 306/204/41 307/205/42
f 305/203/41 307/205/42 308/206/43
s 0
f 309/207/17 310/208/17 311/209/17
f 309/207/17 311/209/17 312/210/17
s 1
f 313/211/44 314/212/44 315/213/45
f 313/211/44 315/213/45 316/214/46
s 0
f 5/5/2 317/215/2 318/216/2
f 5/5/2 318/216/2 19/19/2
s 1
f 319/217/47 320/218/47 316/214/46
f 319/217/47 316/214/46 315/213/45
s 0
f 321/219/7 322/220/7 323/221/7
f 321/219/7 323/221/7 268/176/7
f 324/222/7 321/219/7 268/176/7
f 324/222/7 268/176/7 267/175/7
f 322/220/7 325/223/7 326/224/7
f 322/220/7 326/224/7 323/221/7
f 327/223/7 324/222/7 267/175/7
f 327/223/7 267/175/7 328/224/7
f 329/225/7 330/226/7 331/227/7
f 329/225/7 331/227/7 332/228/7
f 333/229/7 334/230/7 266/174/7
f 333/229/7 266/174/7 265/173/7
f 335/226/7 333/229/7 265/173/7
f 335/226/7 265/173/7 336/227/7
f 337/230/7 338/231/7 332/228/7
f 337/230/7 332/228/7 339/174/7
f 340/232/1 341/233/1 342/234/1
f 340/232/1 342/234/1 343/235/1
f 344/234/2 345/235/2 346/232/2
f 344/234/2 346/232/2 347/233/2
f 348/236/7 349/237/7 350/238/7
f 348/236/7 350/238/7 351/239/7
f 352/240/17 353/241/17 354/242/17
f 352/240/17 354/242/17 355/243/17
f 356/232/1 357/233/1 358/234/1
f 356/232/1 358/234/1 359/235/1
f 360/234/2 361/235/2 362/232/2
f 360/234/2 362/232/2 363/233/2
f 364/244/7 365/245/7 366/246/7
f 364/244/7 366/246/7 367/247/7
f 368/240/17 369/241/17 370/242/17
f 368/240/17 370/242/17 371/243/17
f 372/232/26 373/233/26 374/234/26
f 372/232/26 374/234/26 375/235/26
f 376/232/26 377/233/26 378/234/26
f 376/232/26 378/234/26 379/235/26
f 380/248/1 381/249/1 382/250/1
f 380/248/1 382/250/1 383/251/1
f 384/252/2 385/253/2 386/254/2
f 384/252/2 386/254/2 387/255/2
f 388/256/48 389/257/48 390/254/48
f 388/256/48 390/254/48 391/258/48
f 392/259/17 393/260/17 394/261/17
f 392/259/17 394/261/17 395/262/17
f 396/263/1 397/257/1 398/264/1
f 396/263/1 398/264/1 399/265/1
f 400/252/2 401/253/2 402/254/2
f 400/252/2 402/254/2 403/255/2
f 404/256/48 405/257/48 406/254/48
f 404/256/48 406/254/48 407/258/48
f 408/259/17 409/260/17 410/261/17
f 408/259/17 410/261/17 411/262/17
f 412/266/7 413/267/7 414/268/7
f 412/266/7 414/268/7 415/269/7
f 416/270/26 417/271/26 418/272/26
f 416/270/26 418/272/26 419/273/26
f 420/274/2 421/275/2 422/276/2
f 420/274/2 422/276/2 423/277/2
f 424/278/1 425/279/1 426/280/1
f 424/278/1 426/280/1 427/281/1
f 428/282/7 429/283/7 430/284/7
f 428/282/7 430/284/7 431/285/7
f 432/286/2 433/287/2 434/288/2
f 432/286/2 434/288/2 435/289/2
f 436/290/1 437/291/1 438/292/1
f 436/290/1 438/292/1 439/293/1
f 440/294/17 441/295/17 442/296/17
f 440/294/17 442/296/17 443/297/17
s 1
f 275/179/32 444/212/47 445/211/47
f 275/179/32 445/211/47 276/180/33
s 0
f 278/20/7 277/19/7 446/298/7
f 278/20/7 446/298/7 447/299/7
f 448/300/2 449/301/2 450/302/2
f 448/300/2 450/302/2 451/303/2
f 452/302/1 453/303/1 454/300/1
f 452/302/1 454/300/1 455/301/1
f 456/304/7 457/29/7 458/305/7
f 456/304/7 458/305/7 459/306/7
f 460/307/17 461/308/17 462/309/17
f 460/307/17 462/309/17 463/310/17
f 37/37/7 36/36/7 39/39/7
f 37/37/7 39/39/7 41/41/7
f 97/53/7 99/55/7 43/43/7
f 97/53/7 43/43/7 42/42/7
f 464/311/7 465/312/7 466/313/7
f 464/311/7 466/313/7 467/314/7
f 468/315/7 469/316/7 470/317/7
f 468/315/7 470/317/7 471/318/7
f 472/319/7 473/320/7 474/321/7
f 472/319/7 474/321/7 475/322/7
f 476/323/26 477/324/26 478/325/26
f 476/323/26 478/325/26 479/326/26
f 480/327/17 481/328/17 482/309/17
f 480/327/17 482/309/17 483/310/17
f 484/302/1 485/303/1 486/300/1
f 484/302/1 486/300/1 487/301/1
f 488/300/2 489/301/2 490/302/2
f 488/300/2 490/302/2 491/303/2
f 492/329/26 493/330/26 494/331/26
f 492/329/26 494/331/26 495/332/26
f 496/307/17 497/308/17 498/309/17
f 496/307/17 498/309/17 499/310/17
f 500/302/1 501/303/1 502/300/1
f 500/302/1 502/300/1 503/301/1
f 504/300/2 505/301/2 506/302/2
f 504/300/2 506/302/2 507/303/2
f 508/323/26 509/324/26 510/325/26
f 508/323/26 510/325/26 511/326/26
f 512/137/17 513/138/17 514/139/17
f 512/137/17 514/139/17 515/140/17
f 516/129/24 517/131/24 518/132/24
f 516/129/24 518/132/24 519/128/24
f 520/127/23 521/128/23 522/129/23
f 520/127/23 522/129/23 523/130/23
s 1
f 524/122/21 525/125/22 526/126/22
f 524/122/21 526/126/22 527/123/21
f 528/121/20 524/122/21 527/123/21
f 528/121/20 527/123/21 529/124/20
f 530/122/21 531/125/22 532/126/22
f 530/122/21 532/126/22 533/123/21
f 534/121/20 530/122/21 533/123/21
f 534/121/20 533/123/21 535/124/20
f 536/122/21 537/125/22 538/126/22
f 536/122/21 538/126/22 539/123/21
f 540/121/20 536/122/21 539/123/21
f 540/121/20 539/123/21 541/124/20
f 542/121/20 543/122/21 544/123/21
f 542/121/20 544/123/21 545/124/20
f 543/122/21 546/125/22 547/126/22
f 543/122/21 547/126/22 544/123/21
s 0
f 548/127/23 549/128/23 550/129/23
f 548/127/23 550/129/23 551/130/23
f 552/129/24 553/131/24 554/132/24
f 552/129/24 554/132/24 555/128/24
f 556/137/17 557/138/17 558/139/17
f 556/137/17 558/139/17 559/140/17
f 560/141/17 561/142/17 562/143/17
f 560/141/17 562/143/17 563/144/17
f 564/133/25 565/134/25 566/135/25
f 564/133/25 566/135/25 567/136/25
f 568/117/7 569/118/7 570/119/7
f 568/117/7 570/119/7 571/120/7
f 572/333/19 573/334/19 574/335/19
f 572/333/19 574/335/19 575/336/19
f 576/337/18 577/338/18 578/339/18
f 576/337/18 578/339/18 579/340/18
f 580/105/2 581/106/2 582/107/2
f 580/105/2 582/107/2 583/108/2
f 584/101/1 585/102/1 586/103/1
f 584/101/1 586/103/1 587/104/1
s 1
f 588/122/21 589/125/22 590/126/22
f 588/122/21 590/126/22 591/123/49
f 592/121/20 588/122/21 591/123/49
f 592/121/20 591/123/49 593/124/20
s 0
f 594/38/7 40/40/7 93/49/7
f 594/38/7 93/49/7 595/50/7
f 40/40/7 44/44/7 43/43/7
f 40/40/7 43/43/7 41/41/7
f 96/52/7 38/38/7 37/37/7
f 96/52/7 37/37/7 99/55/7
f 44/44/7 96/52/7 98/54/7
f 44/44/7 98/54/7 95/51/7
s 1
f 596/341/50 597/342/50 598/343/51
f 596/341/50 598/343/51 599/344/51
s 0
f 600/345/52 601/346/52 602/17/52
f 600/345/52 602/17/52 603/56/52
f 604/347/53 605/348/53 606/349/53
f 604/347/53 606/349/53 607/350/53
f 608/350/26 609/349/26 610/351/26
f 608/350/26 610/351/26 611/352/26
f 612/353/2 613/354/2 614/355/2
f 612/353/2 614/355/2 615/19/2
f 616/356/1 617/357/1 28/28/1
f 616/356/1 28/28/1 618/358/1
f 619/359/2 620/360/2 621/361/2
f 619/359/2 621/361/2 622/362/2
f 623/359/1 624/362/1 625/361/1
f 623/359/1 625/361/1 626/360/1
f 627/17/2 628/346/2 629/346/2
f 627/17/2 629/346/2 630/17/2
f 631/363/2 632/364/2 633/365/2
f 631/363/2 633/365/2 634/366/2
f 635/367/2 636/368/2 637/369/2
f 635/367/2 637/369/2 638/370/2
f 639/367/1 640/370/1 641/369/1
f 639/367/1 641/369/1 642/368/1
f 643/371/27 644/372/27 645/373/27
f 643/371/27 645/373/27 646/374/27
f 647/375/1 106/59/1 105/58/1
f 647/375/1 105/58/1 648/376/1
f 649/377/1 650/378/1 651/379/1
f 649/377/1 651/379/1 652/380/1
f 653/363/1 654/366/1 655/365/1
f 653/363/1 655/365/1 656/364/1
f 657/381/1 658/382/1 659/383/1
f 657/381/1 659/383/1 660/384/1
f 661/17/1 662/17/1 663/346/1
f 661/17/1 663/346/1 664/346/1
f 665/385/2 666/385/2 667/385/2
f 665/385/2 667/385/2 668/385/2
f 669/386/2 670/387/2 671/66/2
f 669/386/2 671/66/2 672/68/2
f 673/377/2 674/380/2 675/379/2
f 673/377/2 675/379/2 676/378/2
f 677/67/2 117/67/2 116/69/2
f 677/67/2 116/69/2 120/68/2
f 678/388/2 679/389/2 680/390/2
f 678/388/2 680/390/2 681/391/2
f 682/392/1 683/393/1 684/393/1
f 682/392/1 684/393/1 685/392/1
f 686/394/26 687/395/26 688/396/26
f 686/394/26 688/396/26 689/397/26
f 690/398/27 691/399/27 692/400/27
f 690/398/27 692/400/27 693/401/27
f 694/402/54 695/403/54 696/404/54
f 694/402/54 696/404/54 697/405/54
f 698/406/2 699/407/2 700/408/2
f 698/406/2 700/408/2 701/409/2
f 702/410/1 703/409/1 704/406/1
f 702/410/1 704/406/1 705/411/1
f 706/412/55 707/413/55 708/414/55
f 706/412/55 708/414/55 709/415/55
f 710/399/27 711/398/27 712/416/27
f 710/399/27 712/416/27 713/417/27
f 714/402/54 715/403/54 716/404/54
f 714/402/54 716/404/54 717/405/54
f 718/406/2 719/407/2 720/408/2
f 718/406/2 720/408/2 721/409/2
f 722/410/1 723/409/1 724/406/1
f 722/410/1 724/406/1 725/411/1
f 726/412/55 727/413/55 728/414/55
f 726/412/55 728/414/55 729/415/55
f 730/418/15 731/419/15 732/420/15
f 730/418/15 732/420/15 733/421/15
f 734/422/15 735/423/15 736/424/15
f 734/422/15 736/424/15 737/425/15
f 738/426/15 739/427/15 740/428/15
f 738/426/15 740/428/15 741/429/15
f 742/430/17 743/431/17 744/431/17
f 742/430/17 744/431/17 745/430/17
f 746/432/2 747/433/2 748/433/2
f 746/432/2 748/433/2 749/432/2
f 750/434/26 751/435/26 752/436/26
f 750/434/26 752/436/26 753/437/26
f 754/433/17 755/392/17 756/392/17
f 754/433/17 756/392/17 757/433/17
f 758/438/15 759/76/15 760/77/15
f 758/438/15 760/77/15 761/439/15
f 762/440/15 763/441/15 764/442/15
f 762/440/15 764/442/15 765/443/15
f 766/444/15 767/439/15 768/445/15
f 766/444/15 768/445/15 769/446/15
f 770/438/15 771/439/15 772/444/15
f 770/438/15 772/444/15 773/447/15
f 774/448/15 775/447/15 776/444/15
f 774/448/15 776/444/15 777/449/15
f 778/450/15 779/82/15 780/83/15
f 778/450/15 780/83/15 781/451/15
f 782/438/15 783/447/15 784/79/15
f 782/438/15 784/79/15 785/73/15
f 786/83/15 787/81/15 788/448/15
f 786/83/15 788/448/15 789/449/15
f 790/432/2 791/430/2 792/430/2
f 790/432/2 792/430/2 793/432/2
f 794/422/15 795/423/15 796/424/15
f 794/422/15 796/424/15 797/425/15
f 798/426/15 799/427/15 800/428/15
f 798/426/15 800/428/15 801/429/15
f 802/432/2 803/430/2 804/430/2
f 802/432/2 804/430/2 805/432/2
f 806/430/17 807/431/17 808/431/17
f 806/430/17 808/431/17 809/430/17
f 810/431/1 811/393/1 812/393/1
f 810/431/1 812/393/1 813/431/1
f 814/452/26 815/453/26 816/454/26
f 814/452/26 816/454/26 817/455/26
f 818/431/1 819/393/1 820/393/1
f 818/431/1 820/393/1 821/431/1
f 822/456/1 823/457/1 824/457/1
f 822/456/1 824/457/1 825/456/1
f 826/458/15 827/459/15 828/460/15
f 826/458/15 828/460/15 829/461/15
f 830/462/17 831/456/17 832/456/17
f 830/462/17 832/456/17 833/462/17
f 834/463/2 835/462/2 836/462/2
f 834/463/2 836/462/2 837/463/2
f 838/80/15 839/464/15 840/465/15
f 838/80/15 840/465/15 841/81/15
f 842/464/15 843/77/15 844/72/15
f 842/464/15 844/72/15 845/465/15
f 846/466/1 847/466/1 848/466/1
f 846/466/1 848/466/1 849/466/1
s 1
f 850/467/56 851/468/56 852/469/57
f 850/467/56 852/469/57 853/470/57
f 854/471/58 855/472/58 853/470/57
f 854/471/58 853/470/57 852/469/57
s 0
f 856/473/26 857/474/26 858/468/26
f 856/473/26 858/468/26 859/467/26
f 860/475/59 861/476/59 862/477/59
s 1
f 860/475/59 862/477/59 863/478/59
s 0
f 864/479/60 865/480/60 866/481/60
f 864/479/60 866/481/60 867/482/60
f 868/483/2 869/484/2 870/485/2
f 868/483/2 870/485/2 871/486/2
f 872/487/1 873/486/1 874/483/1
f 872/487/1 874/483/1 875/488/1
f 876/489/61 877/490/61 878/491/61
f 876/489/61 878/491/61 879/492/61
f 880/476/59 881/475/59 882/493/59
f 880/476/59 882/493/59 883/494/59
f 884/479/60 885/480/60 886/481/60
f 884/479/60 886/481/60 887/482/60
f 888/483/2 889/484/2 890/485/2
f 888/483/2 890/485/2 891/486/2
f 892/487/1 893/486/1 894/483/1
f 892/487/1 894/483/1 895/488/1
f 896/489/61 897/490/61 898/491/61
f 896/489/61 898/491/61 899/492/61
f 900/475/59 901/476/59 902/477/59
f 900/475/59 902/477/59 903/478/59
f 904/479/60 905/480/60 906/481/60
f 904/479/60 906/481/60 907/482/60
f 908/483/2 909/484/2 910/485/2
f 908/483/2 910/485/2 911/486/2
f 912/487/1 913/486/1 914/483/1
f 912/487/1 914/483/1 915/488/1
f 916/489/61 917/490/61 918/491/61
f 916/489/61 918/491/61 919/492/61
f 920/495/62 921/496/62 922/497/62
f 920/495/62 922/497/62 923/498/62
f 924/499/26 925/500/26 926/501/26
f 924/499/26 926/501/26 927/502/26
f 928/499/17 929/502/17 930/501/17
f 928/499/17 930/501/17 931/500/17
f 932/501/1 933/501/1 934/502/1
f 932/501/1 934/502/1 935/502/1
f 936/499/2 937/499/2 938/500/2
f 936/499/2 938/500/2 939/500/2
f 940/500/15 941/500/15 942/501/15
f 940/500/15 942/501/15 943/501/15
f 944/502/7 945/502/7 946/499/7
f 944/502/7 946/499/7 947/499/7
f 948/503/26 949/504/26 950/505/26
f 948/503/26 950/505/26 951/506/26
f 952/503/26 953/504/26 954/505/26
f 952/503/26 954/505/26 955/506/26
f 956/503/26 957/504/26 958/505/26
f 956/503/26 958/505/26 959/506/26
f 107/60/1 106/59/1 145/84/1
f 107/60/1 145/84/1 147/86/1
