{
	"asset":{
		"generator":"Khronos glTF Blender I/O v4.4.56",
		"version":"2.0"
	},
	"scene":0,
	"scenes":[
		{
			"name":"Scene",
			"nodes":[
				1
			]
		}
	],
	"nodes":[
		{
			"mesh":0,
			"name":"Windmill_wind.001",
			"rotation":[
				-0.2960941195487976,
				-0.7148345708847046,
				-0.24243523180484772,
				0.5852904915809631
			],
			"scale":[
				0.15392336249351501,
				0.15392336249351501,
				0.15392336249351501
			],
			"translation":[
				0.07317399978637695,
				9.387551307678223,
				0.5424652099609375
			]
		},
		{
			"children":[
				0
			],
			"mesh":1,
			"name":"Windmill",
			"rotation":[
				0,
				-1,
				0,
				4.371138828673793e-08
			],
			"translation":[
				0,
				-0.18733416497707367,
				-1.7522659301757812
			]
		}
	],
	"materials":[
		{
			"doubleSided":true,
			"name":"tx_4k_Windmill",
			"normalTexture":{
				"index":0
			},
			"pbrMetallicRoughness":{
				"baseColorTexture":{
					"index":1
				},
				"metallicRoughnessTexture":{
					"index":2
				}
			}
		}
	],
	"meshes":[
		{
			"name":"Cube.001",
			"primitives":[
				{
					"attributes":{
						"POSITION":0,
						"NORMAL":1,
						"TEXCOORD_0":2
					},
					"indices":3,
					"material":0
				}
			]
		},
		{
			"name":"Plane.098",
			"primitives":[
				{
					"attributes":{
						"POSITION":4,
						"NORMAL":5,
						"TEXCOORD_0":6
					},
					"indices":7,
					"material":0
				}
			]
		}
	],
	"textures":[
		{
			"sampler":0,
			"source":0
		},
		{
			"sampler":0,
			"source":1
		},
		{
			"sampler":0,
			"source":2
		}
	],
	"images":[
		{
			"mimeType":"image/png",
			"name":"tex_windmill2_n",
			"uri":"tex_windmill2_n.png"
		},
		{
			"mimeType":"image/png",
			"name":"tex_windmill2_d",
			"uri":"tex_windmill2_d.png"
		},
		{
			"mimeType":"image/png",
			"name":"tex_windmill2_m-tex_windmill2_r",
			"uri":"tex_windmill2_m-tex_windmill2_r.png"
		}
	],
	"accessors":[
		{
			"bufferView":0,
			"componentType":5126,
			"count":6484,
			"max":[
				12.208221435546875,
				57.60621643066406,
				56.64295959472656
			],
			"min":[
				-12.208221435546875,
				-57.60621643066406,
				-56.64295959472656
			],
			"type":"VEC3"
		},
		{
			"bufferView":1,
			"componentType":5126,
			"count":6484,
			"type":"VEC3"
		},
		{
			"bufferView":2,
			"componentType":5126,
			"count":6484,
			"type":"VEC2"
		},
		{
			"bufferView":3,
			"componentType":5123,
			"count":9840,
			"type":"SCALAR"
		},
		{
			"bufferView":4,
			"componentType":5126,
			"count":3264,
			"max":[
				2.3109068870544434,
				11.46596908569336,
				0.15490341186523438
			],
			"min":[
				-2.9540655612945557,
				2.384185791015625e-05,
				-6.249685764312744
			],
			"type":"VEC3"
		},
		{
			"bufferView":5,
			"componentType":5126,
			"count":3264,
			"type":"VEC3"
		},
		{
			"bufferView":6,
			"componentType":5126,
			"count":3264,
			"type":"VEC2"
		},
		{
			"bufferView":7,
			"componentType":5123,
			"count":5046,
			"type":"SCALAR"
		}
	],
	"bufferViews":[
		{
			"buffer":0,
			"byteLength":77808,
			"byteOffset":0,
			"target":34962
		},
		{
			"buffer":0,
			"byteLength":77808,
			"byteOffset":77808,
			"target":34962
		},
		{
			"buffer":0,
			"byteLength":51872,
			"byteOffset":155616,
			"target":34962
		},
		{
			"buffer":0,
			"byteLength":19680,
			"byteOffset":207488,
			"target":34963
		},
		{
			"buffer":0,
			"byteLength":39168,
			"byteOffset":227168,
			"target":34962
		},
		{
			"buffer":0,
			"byteLength":39168,
			"byteOffset":266336,
			"target":34962
		},
		{
			"buffer":0,
			"byteLength":26112,
			"byteOffset":305504,
			"target":34962
		},
		{
			"buffer":0,
			"byteLength":10092,
			"byteOffset":331616,
			"target":34963
		}
	],
	"samplers":[
		{
			"magFilter":9729,
			"minFilter":9987
		}
	],
	"buffers":[
		{
			"byteLength":341708,
			"uri":"windmill2.bin"
		}
	]
}
