# Blender 4.4.1
# www.blender.org
mtllib concrete_wall_1.mtl
o concrete_wall_1
v -0.109029 1.666422 3.641520
v -0.109029 -0.043215 3.641520
v -0.109029 -0.043215 0.020864
v -0.109029 -0.043215 3.179889
v -0.109029 1.666422 3.179889
v -0.109029 1.666422 0.020864
v -0.109029 1.478135 3.641520
v -0.109029 1.478135 3.179889
v -0.109029 1.478135 0.020864
v -0.330321 -0.043215 3.179889
v -0.330321 -0.043215 3.641520
v -0.330321 1.174308 3.179889
v -0.330321 1.174308 3.641520
v -0.109029 -0.043215 1.600377
v -0.109029 1.666422 1.600376
v -0.109029 1.478135 1.600376
v 0.000000 1.666422 3.641520
v 0.000000 -0.043215 3.641520
v 0.000000 -0.043215 0.020864
v 0.000000 -0.043215 3.179889
v 0.000000 1.666422 0.020864
v 0.000000 1.666422 3.179889
v 0.000000 1.478135 0.020864
v 0.000000 1.478135 3.641520
v 0.000000 1.666422 1.600376
v 0.000000 -0.043215 1.600376
v 0.109029 1.666422 3.641520
v 0.109029 -0.043215 3.641520
v 0.109029 -0.043215 0.020864
v 0.109029 -0.043215 3.179889
v 0.109029 1.666422 3.179889
v 0.109029 1.666422 0.020864
v 0.109029 1.478135 3.641520
v 0.109029 1.478135 3.179889
v 0.109029 1.478135 0.020864
v 0.330321 -0.043215 3.179889
v 0.330321 -0.043215 3.641520
v 0.330321 1.174308 3.179889
v 0.330321 1.174308 3.641520
v 0.109029 -0.043215 1.600377
v 0.109029 1.666422 1.600376
v 0.109029 1.478135 1.600376
vn -0.0000 1.0000 -0.0000
vn -0.0000 -0.0000 1.0000
vn -1.0000 -0.0000 -0.0000
vn -0.0000 -0.0000 -1.0000
vn -0.0000 -1.0000 -0.0000
vn -0.8083 0.5887 -0.0000
vn 1.0000 -0.0000 -0.0000
vn 0.8083 0.5887 -0.0000
vt 0.268781 0.797764
vt 0.268781 0.829996
vt 0.180813 0.832266
vt 0.180813 0.800035
vt 0.546883 0.757279
vt 0.546883 0.825976
vt 0.521242 0.825976
vt 0.521242 0.757279
vt 0.079573 0.770523
vt 0.071277 0.830177
vt 0.191286 0.830177
vt 0.189954 0.770523
vt 0.338331 0.766253
vt 0.338996 0.825146
vt 0.644663 0.827722
vt 0.644663 0.764585
vt 0.569770 0.792089
vt 0.569770 0.824321
vt 0.336487 0.215890
vt 0.644663 0.215890
vt 0.472113 0.195769
vt 0.498042 0.195769
vt 0.498042 0.766060
vt 0.472113 0.766060
vt 0.546883 0.202210
vt 0.521242 0.202210
vt 0.940429 0.178771
vt 0.939544 0.607460
vt 0.820676 0.607460
vt 0.816031 0.178771
vt 0.125000 0.666667
vt 0.125000 0.750000
vt 0.469197 0.646427
vt 0.469197 0.202210
vt 0.912295 0.761514
vt 0.801914 0.761514
vt 0.564518 0.747179
vt 0.564518 0.187672
vt 0.512058 0.187672
vt 0.512058 0.635441
vt 0.186267 0.214089
vt 0.496287 0.763850
vt 0.494443 0.214089
vt 0.870760 0.792089
vt 0.870760 0.824321
vt 0.496952 0.825171
vt 0.125000 0.583333
vt 0.250000 0.583333
vt 0.250000 0.625000
vt 0.125000 0.625000
vt 0.498042 0.824716
vt 0.472113 0.824716
vt 0.250000 0.666667
vt 0.250000 0.750000
s 0
usemtl Material
f 22/1/1 5/2/1 1/3/1 17/4/1
f 24/5/2 17/6/2 1/7/2 7/8/2
f 7/9/3 1/10/3 5/11/3 8/12/3
f 16/13/3 15/14/3 6/15/3 9/16/3
f 25/17/1 15/18/1 5/2/1 22/1/1
f 14/19/3 16/13/3 9/16/3 3/20/3
f 19/21/4 3/22/4 9/23/4 23/24/4
f 18/25/2 24/5/2 7/8/2 2/26/2
f 11/27/3 13/28/3 12/29/3 10/30/3
f 4/31/5 2/32/5 11/32/5 10/31/5
f 2/26/2 7/8/2 13/33/2 11/34/2
f 7/35/6 8/36/6 12/29/6 13/28/6
f 8/37/4 4/38/4 10/39/4 12/40/4
f 4/41/3 8/12/3 16/42/3 14/43/3
f 21/44/1 6/45/1 15/18/1 25/17/1
f 8/12/3 5/11/3 15/46/3 16/42/3
f 3/47/5 19/48/5 26/49/5 14/50/5
f 6/51/4 21/52/4 23/24/4 9/23/4
f 14/50/5 26/49/5 20/53/5 4/31/5
f 4/31/5 20/53/5 18/54/5 2/32/5
f 22/1/1 17/4/1 27/3/1 31/2/1
f 24/5/2 33/8/2 27/7/2 17/6/2
f 33/9/7 34/12/7 31/11/7 27/10/7
f 42/13/7 35/16/7 32/15/7 41/14/7
f 25/17/1 22/1/1 31/2/1 41/18/1
f 40/19/7 29/20/7 35/16/7 42/13/7
f 19/21/4 23/24/4 35/23/4 29/22/4
f 18/25/2 28/26/2 33/8/2 24/5/2
f 37/27/7 36/30/7 38/29/7 39/28/7
f 30/31/5 36/31/5 37/32/5 28/32/5
f 28/26/2 37/34/2 39/33/2 33/8/2
f 33/35/8 39/28/8 38/29/8 34/36/8
f 34/37/4 38/40/4 36/39/4 30/38/4
f 30/41/7 40/43/7 42/42/7 34/12/7
f 21/44/1 25/17/1 41/18/1 32/45/1
f 34/12/7 42/42/7 41/46/7 31/11/7
f 29/47/5 40/50/5 26/49/5 19/48/5
f 32/51/4 35/23/4 23/24/4 21/52/4
f 40/50/5 30/31/5 20/53/5 26/49/5
f 30/31/5 28/32/5 18/54/5 20/53/5
