{
	"asset":{
		"generator":"Khronos glTF Blender I/O v4.4.56",
		"version":"2.0"
	},
	"scene":0,
	"scenes":[
		{
			"name":"Scene",
			"nodes":[
				0,
				1,
				2,
				3
			]
		}
	],
	"nodes":[
		{
			"mesh":0,
			"name":"Bottom",
			"scale":[
				0.8700646162033081,
				0.8700646162033081,
				0.8700646162033081
			],
			"translation":[
				-0.0025955140590667725,
				-0.3586903214454651,
				2.0457632541656494
			]
		},
		{
			"mesh":1,
			"name":"SteamChamber",
			"scale":[
				0.8700646162033081,
				0.8700646162033081,
				0.8700646162033081
			],
			"translation":[
				-0.0025955140590667725,
				-0.3586903214454651,
				2.0457632541656494
			]
		},
		{
			"mesh":2,
			"name":"Cabin",
			"scale":[
				0.8700646162033081,
				0.8700646162033081,
				0.8700646162033081
			],
			"translation":[
				-0.0025955140590667725,
				-0.3586903214454651,
				2.0457632541656494
			]
		},
		{
			"mesh":3,
			"name":"Deco",
			"scale":[
				-0.029910651966929436,
				-0.01895100064575672,
				-0.01895100064575672
			],
			"translation":[
				0.893523097038269,
				0.8204851746559143,
				1.813011646270752
			]
		}
	],
	"materials":[
		{
			"doubleSided":true,
			"name":"mat_bottom_red",
			"pbrMetallicRoughness":{
				"baseColorTexture":{
					"index":0
				},
				"metallicFactor":0,
				"roughnessFactor":0.7590909004211426
			}
		},
		{
			"doubleSided":true,
			"name":"mat_wheel",
			"pbrMetallicRoughness":{
				"baseColorTexture":{
					"index":1
				},
				"metallicFactor":0,
				"roughnessFactor":0.5
			}
		},
		{
			"doubleSided":true,
			"name":"mat_black_metal",
			"pbrMetallicRoughness":{
				"baseColorTexture":{
					"index":2
				},
				"metallicFactor":0,
				"roughnessFactor":0.4988904595375061
			}
		},
		{
			"doubleSided":true,
			"name":"mat_light",
			"pbrMetallicRoughness":{
				"baseColorFactor":[
					0.800000011920929,
					0.800000011920929,
					0.800000011920929,
					1
				],
				"metallicFactor":0,
				"roughnessFactor":0.5
			}
		}
	],
	"meshes":[
		{
			"name":"Cube.008",
			"primitives":[
				{
					"attributes":{
						"POSITION":0,
						"NORMAL":1,
						"TEXCOORD_0":2
					},
					"indices":3,
					"material":0
				},
				{
					"attributes":{
						"POSITION":4,
						"NORMAL":5,
						"TEXCOORD_0":6
					},
					"indices":7,
					"material":1
				}
			]
		},
		{
			"name":"Cylinder.007",
			"primitives":[
				{
					"attributes":{
						"POSITION":8,
						"NORMAL":9,
						"TEXCOORD_0":10
					},
					"indices":11,
					"material":2
				}
			]
		},
		{
			"name":"path360",
			"primitives":[
				{
					"attributes":{
						"POSITION":12,
						"NORMAL":13,
						"TEXCOORD_0":14
					},
					"indices":15,
					"material":2
				}
			]
		},
		{
			"name":"Cube.004",
			"primitives":[
				{
					"attributes":{
						"POSITION":16,
						"NORMAL":17,
						"TEXCOORD_0":18
					},
					"indices":19,
					"material":2
				},
				{
					"attributes":{
						"POSITION":20,
						"NORMAL":21,
						"TEXCOORD_0":22
					},
					"indices":23,
					"material":3
				}
			]
		}
	],
	"textures":[
		{
			"sampler":0,
			"source":0
		},
		{
			"sampler":0,
			"source":0
		},
		{
			"sampler":0,
			"source":1
		}
	],
	"images":[
		{
			"mimeType":"image/jpeg",
			"name":"mat_metal_red",
			"uri":"mat_metal_red.jpg"
		},
		{
			"mimeType":"image/jpeg",
			"name":"mat_metal_black",
			"uri":"mat_metal_black.jpg"
		}
	],
	"accessors":[
		{
			"bufferView":0,
			"componentType":5126,
			"count":990,
			"max":[
				1.0242867469787598,
				1.259448766708374,
				0.5127103328704834
			],
			"min":[
				-1.0202887058258057,
				0.571020245552063,
				-6.2938690185546875
			],
			"type":"VEC3"
		},
		{
			"bufferView":1,
			"componentType":5126,
			"count":990,
			"type":"VEC3"
		},
		{
			"bufferView":2,
			"componentType":5126,
			"count":990,
			"type":"VEC2"
		},
		{
			"bufferView":3,
			"componentType":5123,
			"count":1776,
			"type":"SCALAR"
		},
		{
			"bufferView":4,
			"componentType":5126,
			"count":3253,
			"max":[
				1.0242867469787598,
				1.259448766708374,
				-1.2348825931549072
			],
			"min":[
				-1.0202887058258057,
				0.4092310667037964,
				-6.2938690185546875
			],
			"type":"VEC3"
		},
		{
			"bufferView":5,
			"componentType":5126,
			"count":3253,
			"type":"VEC3"
		},
		{
			"bufferView":6,
			"componentType":5126,
			"count":3253,
			"type":"VEC2"
		},
		{
			"bufferView":7,
			"componentType":5123,
			"count":6984,
			"type":"SCALAR"
		},
		{
			"bufferView":8,
			"componentType":5126,
			"count":1954,
			"max":[
				0.6946642994880676,
				3.7379074096679688,
				-1.5345792770385742
			],
			"min":[
				-0.6906661987304688,
				1.2013988494873047,
				-6.0698089599609375
			],
			"type":"VEC3"
		},
		{
			"bufferView":9,
			"componentType":5126,
			"count":1954,
			"type":"VEC3"
		},
		{
			"bufferView":10,
			"componentType":5126,
			"count":1954,
			"type":"VEC2"
		},
		{
			"bufferView":11,
			"componentType":5123,
			"count":5214,
			"type":"SCALAR"
		},
		{
			"bufferView":12,
			"componentType":5126,
			"count":547,
			"max":[
				1.0173356533050537,
				3.649257183074951,
				1.222771406173706
			],
			"min":[
				-1.012117862701416,
				1.2068735361099243,
				-1.7924771308898926
			],
			"type":"VEC3"
		},
		{
			"bufferView":13,
			"componentType":5126,
			"count":547,
			"type":"VEC3"
		},
		{
			"bufferView":14,
			"componentType":5126,
			"count":547,
			"type":"VEC2"
		},
		{
			"bufferView":15,
			"componentType":5123,
			"count":1554,
			"type":"SCALAR"
		},
		{
			"bufferView":16,
			"componentType":5126,
			"count":6629,
			"max":[
				61.88432312011719,
				30.42377471923828,
				304.39697265625
			],
			"min":[
				-2.1164093017578125,
				-90.56642150878906,
				-29.269229888916016
			],
			"type":"VEC3"
		},
		{
			"bufferView":17,
			"componentType":5126,
			"count":6629,
			"type":"VEC3"
		},
		{
			"bufferView":18,
			"componentType":5126,
			"count":6629,
			"type":"VEC2"
		},
		{
			"bufferView":19,
			"componentType":5123,
			"count":17520,
			"type":"SCALAR"
		},
		{
			"bufferView":20,
			"componentType":5126,
			"count":716,
			"max":[
				55.15599060058594,
				-18.79726791381836,
				278.13116455078125
			],
			"min":[
				4.622583389282227,
				-32.03666305541992,
				267.090087890625
			],
			"type":"VEC3"
		},
		{
			"bufferView":21,
			"componentType":5126,
			"count":716,
			"type":"VEC3"
		},
		{
			"bufferView":22,
			"componentType":5126,
			"count":716,
			"type":"VEC2"
		},
		{
			"bufferView":23,
			"componentType":5123,
			"count":2580,
			"type":"SCALAR"
		}
	],
	"bufferViews":[
		{
			"buffer":0,
			"byteLength":11880,
			"byteOffset":0,
			"target":34962
		},
		{
			"buffer":0,
			"byteLength":11880,
			"byteOffset":11880,
			"target":34962
		},
		{
			"buffer":0,
			"byteLength":7920,
			"byteOffset":23760,
			"target":34962
		},
		{
			"buffer":0,
			"byteLength":3552,
			"byteOffset":31680,
			"target":34963
		},
		{
			"buffer":0,
			"byteLength":39036,
			"byteOffset":35232,
			"target":34962
		},
		{
			"buffer":0,
			"byteLength":39036,
			"byteOffset":74268,
			"target":34962
		},
		{
			"buffer":0,
			"byteLength":26024,
			"byteOffset":113304,
			"target":34962
		},
		{
			"buffer":0,
			"byteLength":13968,
			"byteOffset":139328,
			"target":34963
		},
		{
			"buffer":0,
			"byteLength":23448,
			"byteOffset":153296,
			"target":34962
		},
		{
			"buffer":0,
			"byteLength":23448,
			"byteOffset":176744,
			"target":34962
		},
		{
			"buffer":0,
			"byteLength":15632,
			"byteOffset":200192,
			"target":34962
		},
		{
			"buffer":0,
			"byteLength":10428,
			"byteOffset":215824,
			"target":34963
		},
		{
			"buffer":0,
			"byteLength":6564,
			"byteOffset":226252,
			"target":34962
		},
		{
			"buffer":0,
			"byteLength":6564,
			"byteOffset":232816,
			"target":34962
		},
		{
			"buffer":0,
			"byteLength":4376,
			"byteOffset":239380,
			"target":34962
		},
		{
			"buffer":0,
			"byteLength":3108,
			"byteOffset":243756,
			"target":34963
		},
		{
			"buffer":0,
			"byteLength":79548,
			"byteOffset":246864,
			"target":34962
		},
		{
			"buffer":0,
			"byteLength":79548,
			"byteOffset":326412,
			"target":34962
		},
		{
			"buffer":0,
			"byteLength":53032,
			"byteOffset":405960,
			"target":34962
		},
		{
			"buffer":0,
			"byteLength":35040,
			"byteOffset":458992,
			"target":34963
		},
		{
			"buffer":0,
			"byteLength":8592,
			"byteOffset":494032,
			"target":34962
		},
		{
			"buffer":0,
			"byteLength":8592,
			"byteOffset":502624,
			"target":34962
		},
		{
			"buffer":0,
			"byteLength":5728,
			"byteOffset":511216,
			"target":34962
		},
		{
			"buffer":0,
			"byteLength":5160,
			"byteOffset":516944,
			"target":34963
		}
	],
	"samplers":[
		{
			"magFilter":9729,
			"minFilter":9987
		}
	],
	"buffers":[
		{
			"byteLength":522104,
			"uri":"mpsb_12.bin"
		}
	]
}
