# Blender 4.0.2
# www.blender.org
mtllib platform_1.mtl
o platform_1
v 1.321685 0.346313 -5.712373
v 1.321685 2.715798 -5.712373
v 1.321685 0.346313 -8.668632
v 1.321685 2.715798 -8.668632
v 6.104228 0.346313 -5.712373
v 6.104228 0.346313 -8.668632
v 6.104228 2.715798 -8.668632
v 1.419686 0.425112 -8.570317
v 1.419686 0.425112 -5.810686
v 1.419686 2.717692 -5.810686
v 1.419686 2.717692 -8.570317
v 6.006226 0.425112 -8.570317
v 6.006226 2.717692 -8.570317
v 6.006226 0.425112 -5.810686
v 3.796435 0.346313 -8.668632
v 3.796435 2.715798 -8.668632
v 3.796435 0.346313 -5.712373
v 3.796435 2.715798 -5.712373
v 3.793014 0.425112 -8.570317
v 3.793014 2.717692 -8.570317
v 3.793014 0.425112 -5.810686
v 3.793014 2.717692 -5.810686
v 1.321685 0.346313 -7.190502
v 1.321685 3.824146 -7.190502
v 6.104228 0.346313 -7.190502
v 6.104228 3.824146 -7.190502
v 1.419686 0.425112 -7.190502
v 1.419686 3.826040 -7.190502
v 6.006226 0.425112 -7.190502
v 6.006226 3.826040 -7.190502
v 3.793014 0.425112 -7.190502
v 1.154642 2.544915 -5.589592
v 1.154642 2.728935 -5.589592
v 1.154642 2.544915 -8.791411
v 1.154642 2.728935 -8.791411
v 6.271271 2.544915 -5.589592
v 6.271271 2.728935 -5.589592
v 6.271271 2.544915 -8.791411
v 6.271271 2.728935 -8.791411
v 1.154642 3.717988 -7.190502
v 1.154642 3.902007 -7.190502
v 6.271271 3.717988 -7.190502
v 6.271271 3.902007 -7.190502
v 6.111581 0.346261 -5.817883
v 6.111581 2.847255 -5.817883
v 6.111581 0.346261 -5.705176
v 6.111581 2.758454 -5.705176
v 5.998873 0.346261 -5.817883
v 5.998873 2.847255 -5.817883
v 5.998873 0.346261 -5.705176
v 5.998873 2.758454 -5.705176
v 2.559060 0.346313 -8.668632
v 2.559060 2.715798 -8.668632
v 2.606350 2.717692 -8.570317
v 4.950332 2.715798 -8.668632
v 4.899620 2.717692 -8.570317
v 4.950332 0.346313 -8.668632
v 2.559060 2.715798 -5.712373
v 2.606350 2.717692 -5.810686
v 2.559060 0.346313 -5.712373
v 8.267162 -1.268235 -9.582121
v 8.267162 -1.268235 -3.411241
v -8.267162 -1.268235 -9.582121
v -8.267162 -1.268235 -3.411241
v 8.267162 0.351274 -9.582121
v -8.267162 0.351274 -3.411241
v 8.267162 0.351274 -3.411241
v -8.267162 0.351274 -9.582121
v 7.662358 -1.268235 -9.582121
v -7.662358 -1.268235 -9.582121
v 7.802768 0.474372 -3.837510
v -7.783808 0.474372 -3.837510
v -7.662358 -1.268235 -3.411241
v 7.662358 -1.268235 -3.411241
v -7.783808 0.474372 -9.324039
v 7.802768 0.474372 -9.324039
v -7.662358 0.351274 -9.582121
v 7.662358 0.351274 -9.582121
v 7.662358 0.351274 -3.411241
v -7.662358 0.351274 -3.411241
v 0.060984 -1.268235 -9.582121
v -2.280199 -1.268235 -9.582121
v 0.071506 0.474372 -3.837510
v -2.309681 0.474372 -3.837510
v -2.280199 -1.268235 -3.411241
v 0.060984 -1.268235 -3.411241
v -2.309681 0.474372 -9.324039
v 0.071506 0.474372 -9.324039
v -2.280199 0.351274 -9.582121
v 0.060984 0.351274 -9.582121
v 0.060984 0.351274 -3.411241
v -2.280199 0.351274 -3.411241
v -0.307360 -1.268235 -12.464707
v -1.911855 -1.268235 -12.464707
v -2.182173 -0.164094 -10.381153
v -0.037043 -0.164094 -10.381153
v -3.567523 0.227340 -6.433012
v -3.567523 2.931818 -6.433012
v -3.567523 0.227340 -6.560350
v -3.567523 2.931818 -6.560350
v -3.440185 0.227340 -6.433012
v -3.440185 2.931818 -6.433012
v -3.440185 0.227340 -6.560350
v -3.440185 2.931818 -6.560350
v -5.830114 0.227339 -6.433012
v -5.830114 2.931818 -6.433012
v -5.830114 0.227339 -6.560350
v -5.830114 2.931818 -6.560350
v -5.702776 0.227339 -6.433012
v -5.702776 2.931818 -6.433012
v -5.702776 0.227339 -6.560350
v -5.702776 2.931818 -6.560350
v -5.830114 2.807868 -6.433012
v -5.830114 2.807868 -6.560350
v -5.702776 2.807868 -6.560350
v -5.702776 2.807868 -6.433012
v -3.567523 2.807868 -6.433012
v -3.567523 2.807868 -6.560350
v -3.440185 2.807868 -6.560350
v -3.440185 2.807868 -6.433012
v -3.504057 2.869740 -6.517929
v -3.504057 2.340186 -6.517929
v -3.504057 2.869740 -6.475433
v -3.504057 2.340186 -6.475433
v -5.766242 2.869740 -6.517929
v -5.766242 2.340186 -6.517929
v -5.766242 2.869740 -6.475433
v -5.766242 2.340186 -6.475433
vn -1.0000 -0.0000 -0.0000
vn -0.0000 -0.0000 -1.0000
vn -0.0000 -0.0000 1.0000
vn -0.0000 0.9998 -0.0193
vn -0.6266 -0.7793 -0.0000
vn -0.0000 -1.0000 -0.0000
vn -0.0000 -0.7803 -0.6254
vn 0.0151 0.7795 -0.6262
vn -0.0000 -0.7803 0.6254
vn -0.0151 0.7795 0.6262
vn 0.6266 -0.7793 -0.0000
vn -0.0000 0.9998 0.0193
vn 0.5058 0.6902 -0.5175
vn 1.0000 -0.0000 -0.0000
vn 0.9994 -0.0000 -0.0348
vn -0.0000 -0.8066 -0.5911
vn -0.0000 0.8066 0.5911
vn -0.0000 0.8066 -0.5911
vn -0.0000 -0.8066 0.5911
vn -0.0000 0.7855 0.6189
vn -0.0000 0.9607 0.2774
vn -0.2468 0.9691 -0.0000
vn -0.0000 0.9026 -0.4305
vn -0.0000 1.0000 -0.0000
vn 0.2562 0.9666 -0.0000
vn -0.0000 0.8836 -0.4682
vn -0.0000 0.8560 -0.5170
vn 0.9947 0.0500 0.0898
vn -0.8858 0.4318 -0.1699
vn 0.9926 -0.0000 -0.1218
vn -0.9919 -0.0037 -0.1268
vn -0.5058 0.6902 -0.5175
vn 0.5058 0.6902 0.5175
vn -0.0151 0.7795 -0.6262
vn 0.9919 -0.0037 -0.1268
vn -0.9926 -0.0000 -0.1218
vt 0.662470 0.823800
vt 0.723734 0.701405
vt 0.723734 0.823755
vt 0.494144 0.869296
vt 0.523710 0.991835
vt 0.494144 0.991835
vt 0.919197 0.806736
vt 0.950902 0.929275
vt 0.919197 0.929275
vt 0.601205 0.871914
vt 0.605281 0.842721
vt 0.605281 0.873126
vt 0.269653 0.627962
vt 0.212431 0.623795
vt 0.269620 0.623754
vt 0.844731 0.509451
vt 0.902638 0.453471
vt 0.901426 0.510653
vt 0.796849 0.352256
vt 0.792774 0.381450
vt 0.792774 0.320640
vt 0.663463 0.962714
vt 0.605281 0.960239
vt 0.663465 0.960203
vt 0.899904 0.421672
vt 0.872850 0.417596
vt 0.929558 0.417596
vt 0.663463 0.840174
vt 0.719654 0.842722
vt 0.663465 0.842685
vt 0.662475 0.627879
vt 0.605287 0.623639
vt 0.662482 0.623649
vt 0.723726 0.903620
vt 0.719654 0.873127
vt 0.723726 0.871916
vt 0.931737 0.572579
vt 0.900214 0.567835
vt 0.961010 0.569123
vt 0.902637 0.449395
vt 0.845943 0.452269
vt 0.843519 0.448142
vt 0.963434 0.454760
vt 0.962222 0.511941
vt 0.601205 0.903619
vt 0.605281 0.931885
vt 0.601205 0.933184
vt 0.432874 0.869296
vt 0.464579 0.991835
vt 0.432874 0.991835
vt 0.719676 0.623659
vt 0.723744 0.627890
vt 0.601205 0.840210
vt 0.843519 0.566633
vt 0.326810 0.623712
vt 0.330918 0.627917
vt 0.740074 0.505328
vt 0.801344 0.627618
vt 0.740074 0.627607
vt 0.601205 0.701495
vt 0.601205 0.823845
vt 0.959963 0.299034
vt 0.990368 0.299034
vt 0.872850 0.299034
vt 0.901204 0.299034
vt 0.326810 0.505333
vt 0.269620 0.448144
vt 0.347247 0.448242
vt 0.349758 0.624026
vt 0.347247 0.628101
vt 0.949899 0.644220
vt 0.919494 0.644220
vt 0.889089 0.762782
vt 0.719676 0.505349
vt 0.662482 0.448142
vt 0.605287 0.505328
vt 0.370163 0.760115
vt 0.366088 0.878332
vt 0.366088 0.760022
vt 0.410672 0.786613
vt 0.461694 0.720259
vt 0.471196 0.720259
vt 0.817673 0.579242
vt 0.827190 0.448142
vt 0.827190 0.579242
vt 0.168798 0.786600
vt 0.117745 0.852959
vt 0.108248 0.852959
vt 0.824809 0.775320
vt 0.834325 0.644220
vt 0.834325 0.775320
vt 0.740064 0.873095
vt 0.871164 0.806736
vt 0.871164 0.873095
vt 0.208389 0.879359
vt 0.339528 0.814065
vt 0.339489 0.879359
vt 0.208427 0.946764
vt 0.339526 0.946764
vt 0.740064 0.939454
vt 0.871164 0.939454
vt 0.117769 0.720241
vt 0.108272 0.720241
vt 0.461791 0.852966
vt 0.471293 0.852966
vt 0.870339 0.282704
vt 0.875011 0.158221
vt 0.875011 0.282704
vt 0.850655 0.648812
vt 0.853543 0.773560
vt 0.850655 0.773560
vt 0.870339 0.012753
vt 0.875011 0.137305
vt 0.870339 0.137309
vt 0.869872 0.644220
vt 0.872760 0.773560
vt 0.869872 0.773560
vt 0.831844 0.400290
vt 0.828956 0.404962
vt 0.828956 0.400290
vt 0.853543 0.644220
vt 0.853543 0.648812
vt 0.401170 0.869296
vt 0.401170 0.991835
vt 0.605281 0.903531
vt 0.601205 0.962750
vt 0.464579 0.869296
vt 0.723726 0.840211
vt 0.887493 0.806736
vt 0.887493 0.929275
vt 0.384840 0.023664
vt 0.367285 0.020548
vt 0.384840 0.008168
vt 0.656959 0.431812
vt 0.401170 0.416316
vt 0.656959 0.416316
vt 0.129090 0.008165
vt 0.129090 0.416316
vt 0.139897 0.419909
vt 0.129090 0.431812
vt 0.501122 0.463638
vt 0.584876 0.448142
vt 0.584876 0.463638
vt 0.484792 0.448142
vt 0.401170 0.703930
vt 0.401216 0.448142
vt 0.108435 0.703911
vt 0.191873 0.448144
vt 0.192059 0.703911
vt 0.008165 0.463641
vt 0.091919 0.448144
vt 0.091919 0.463641
vt 0.008165 0.871792
vt 0.091919 0.856295
vt 0.091919 0.871792
vt 0.008165 0.601544
vt 0.091919 0.601544
vt 0.208389 0.797736
vt 0.292143 0.782239
vt 0.292143 0.797736
vt 0.501122 0.658403
vt 0.584876 0.658403
vt 0.139897 0.020545
vt 0.129090 0.023661
vt 0.139897 0.221817
vt 0.129090 0.221551
vt 0.656959 0.023661
vt 0.401170 0.008165
vt 0.656959 0.008165
vt 0.401170 0.221551
vt 0.656959 0.221551
vt 0.384840 0.431815
vt 0.367285 0.419912
vt 0.384840 0.416318
vt 0.367285 0.160808
vt 0.384840 0.161567
vt 0.139897 0.160805
vt 0.367285 0.221819
vt 0.384840 0.221554
vt 0.656959 0.161565
vt 0.401170 0.023661
vt 0.401170 0.161565
vt 0.129090 0.161564
vt 0.095511 0.219056
vt 0.008165 0.171054
vt 0.095511 0.164093
vt 0.208389 0.782239
vt 0.292143 0.644336
vt 0.776445 0.212113
vt 0.008165 0.856295
vt 0.091919 0.661531
vt 0.008165 0.661531
vt 0.909009 0.166061
vt 0.910362 0.153721
vt 0.910362 0.208405
vt 0.892680 0.166077
vt 0.891340 0.208413
vt 0.891340 0.153722
vt 0.569452 0.722856
vt 0.503920 0.717222
vt 0.501122 0.674732
vt 0.740064 0.692307
vt 0.805676 0.686710
vt 0.808479 0.790406
vt 0.850747 0.008165
vt 0.854010 0.014575
vt 0.850747 0.014575
vt 0.366088 0.604125
vt 0.371366 0.610523
vt 0.366088 0.610522
vt 0.792774 0.164358
vt 0.796037 0.170768
vt 0.792774 0.170768
vt 0.817673 0.600849
vt 0.820936 0.595571
vt 0.820936 0.600849
vt 0.813179 0.378525
vt 0.818456 0.381787
vt 0.813179 0.381787
vt 0.366088 0.448148
vt 0.371366 0.454545
vt 0.366088 0.454548
vt 0.792774 0.008165
vt 0.796037 0.014575
vt 0.792774 0.014575
vt 0.850747 0.164358
vt 0.854010 0.170768
vt 0.850747 0.170768
vt 0.817673 0.622457
vt 0.820936 0.617179
vt 0.820936 0.622457
vt 0.813179 0.320552
vt 0.818456 0.323815
vt 0.813179 0.323815
vt 0.854010 0.304222
vt 0.850747 0.304222
vt 0.344480 0.644431
vt 0.349758 0.777602
vt 0.344480 0.777601
vt 0.796037 0.148029
vt 0.792774 0.148029
vt 0.371366 0.587792
vt 0.366088 0.587796
vt 0.796037 0.304222
vt 0.792774 0.304222
vt 0.371366 0.743693
vt 0.366088 0.743692
vt 0.854010 0.148029
vt 0.850747 0.148029
vt 0.308472 0.644340
vt 0.313750 0.777584
vt 0.308472 0.777587
vt 0.896618 0.137167
vt 0.891340 0.082456
vt 0.896618 0.082456
vt 0.796037 0.164358
vt 0.796037 0.008165
vt 0.818456 0.378525
vt 0.794536 0.427634
vt 0.792774 0.400291
vt 0.794536 0.400290
vt 0.891340 0.066127
vt 0.918726 0.008165
vt 0.891340 0.008165
vt 0.812626 0.427618
vt 0.810865 0.400290
vt 0.812626 0.400290
vt 0.542066 0.895201
vt 0.569452 0.837238
vt 0.542066 0.837238
vt 0.834786 0.320552
vt 0.836547 0.378514
vt 0.834786 0.378514
vt 0.891340 0.224742
vt 0.893102 0.282704
vt 0.893102 0.224742
vt 0.662470 0.644220
vt 0.523710 0.869296
vt 0.950902 0.806736
vt 0.208389 0.628007
vt 0.796849 0.320552
vt 0.796849 0.383961
vt 0.929470 0.421672
vt 0.870339 0.421672
vt 0.601205 0.627868
vt 0.719654 0.903532
vt 0.963434 0.573251
vt 0.900040 0.571907
vt 0.801344 0.448142
vt 0.990368 0.417596
vt 0.929558 0.299034
vt 0.349758 0.448144
vt 0.949899 0.762782
vt 0.889089 0.644220
vt 0.370163 0.882394
vt 0.401170 0.786613
vt 0.817673 0.448142
vt 0.178294 0.786600
vt 0.824809 0.644220
vt 0.740064 0.806736
vt 0.208428 0.814065
vt 0.870339 0.153638
vt 0.875011 0.008165
vt 0.872760 0.644220
vt 0.831844 0.404962
vt 0.850655 0.644220
vt 0.401170 0.431812
vt 0.501122 0.448142
vt 0.484746 0.703930
vt 0.108248 0.448144
vt 0.008165 0.448144
vt 0.008165 0.212165
vt 0.208389 0.644336
vt 0.776445 0.171002
vt 0.501122 0.820909
vt 0.808479 0.644220
vt 0.854010 0.008165
vt 0.371366 0.604126
vt 0.817673 0.595571
vt 0.371366 0.448144
vt 0.854010 0.164358
vt 0.817673 0.617179
vt 0.818456 0.320552
vt 0.349758 0.644431
vt 0.313750 0.644336
vt 0.891340 0.137167
vt 0.792774 0.427635
vt 0.918726 0.066127
vt 0.810865 0.427618
vt 0.569452 0.895201
vt 0.836547 0.320552
vt 0.891340 0.282704
s 0
usemtl Material
f 23/1/1 4/2/1 3/3/1
f 55/4/2 6/5/2 57/6/2
f 58/7/3 1/8/3 60/9/3
f 53/10/4 11/11/4 54/12/4
f 25/13/5 14/14/5 29/15/5
f 29/16/6 21/17/6 31/18/6
f 60/19/7 9/20/7 21/21/7
f 26/22/8 13/23/8 30/24/8
f 57/25/9 12/26/9 19/27/9
f 24/28/10 10/29/10 28/30/10
f 23/31/11 8/32/11 27/33/11
f 18/34/12 59/35/12 58/36/12
f 52/37/9 19/38/9 8/39/9
f 17/40/7 14/41/7 5/42/7
f 31/18/6 9/43/6 27/44/6
f 16/45/4 56/46/4 55/47/4
f 53/48/2 15/49/2 52/50/2
f 19/38/6 27/44/6 8/39/6
f 23/31/11 9/51/11 1/52/11
f 24/28/13 11/11/13 4/53/13
f 12/54/6 31/18/6 19/38/6
f 25/13/5 12/55/5 6/56/5
f 7/57/14 25/58/14 6/59/14
f 2/60/1 23/1/1 1/61/1
f 19/27/3 54/62/3 11/63/3
f 13/64/3 56/65/3 19/27/3
f 13/66/1 29/15/1 30/67/1
f 26/68/3 29/69/3 25/70/3
f 10/71/2 59/72/2 21/73/2
f 10/74/14 27/33/14 28/75/14
f 11/76/14 27/33/14 8/32/14
f 18/77/15 21/78/15 22/79/15
f 40/80/1 35/81/1 34/82/1
f 35/83/2 38/84/2 34/85/2
f 42/86/14 37/87/14 36/88/14
f 37/89/3 32/90/3 36/91/3
f 42/92/16 32/93/16 40/94/16
f 41/95/17 37/96/17 43/97/17
f 35/98/18 43/97/18 39/99/18
f 38/100/19 40/94/19 34/101/19
f 39/102/14 42/86/14 38/103/14
f 33/104/1 40/80/1 32/105/1
f 44/106/14 47/107/14 46/108/14
f 47/109/3 50/110/3 46/111/3
f 51/112/1 48/113/1 50/114/1
f 49/115/2 44/116/2 48/117/2
f 50/118/6 44/119/6 46/120/6
f 47/109/20 49/121/20 51/122/20
f 4/123/2 52/50/2 3/124/2
f 16/45/4 54/12/4 20/125/4
f 55/47/4 13/23/4 7/126/4
f 16/127/2 57/6/2 15/49/2
f 58/36/12 10/29/12 2/128/12
f 18/129/3 60/9/3 17/130/3
f 80/131/21 72/132/21 66/133/21
f 61/134/6 74/135/6 69/136/6
f 72/132/22 68/137/22 66/133/22
f 78/138/23 76/139/23 65/140/23
f 78/141/2 61/142/2 69/143/2
f 65/144/14 62/145/14 61/146/14
f 66/147/1 63/148/1 64/149/1
f 80/150/3 64/151/3 73/152/3
f 67/153/3 74/154/3 62/155/3
f 92/156/3 73/152/3 85/157/3
f 68/158/2 70/159/2 63/160/2
f 90/161/2 69/143/2 81/162/2
f 68/137/23 75/163/23 77/164/23
f 88/165/23 78/138/23 90/166/23
f 70/167/6 64/168/6 63/169/6
f 69/136/6 86/170/6 81/171/6
f 67/172/21 71/173/21 79/174/21
f 84/175/21 80/131/21 92/176/21
f 75/163/24 84/175/24 87/177/24
f 71/173/25 65/140/25 76/139/25
f 88/165/24 71/173/24 76/139/24
f 87/177/24 83/178/24 88/165/24
f 79/174/21 83/178/21 91/179/21
f 83/178/21 92/176/21 91/179/21
f 82/180/6 73/181/6 70/167/6
f 81/171/6 85/182/6 82/180/6
f 77/164/23 87/177/23 89/183/23
f 96/184/26 94/185/26 95/186/26
f 77/187/2 82/188/2 70/159/2
f 82/180/6 93/189/6 81/171/6
f 79/190/3 86/191/3 74/154/3
f 91/192/3 85/157/3 86/191/3
f 88/165/27 95/186/27 87/177/27
f 89/193/28 87/194/28 95/195/28
f 90/196/29 96/197/29 88/198/29
f 81/199/30 96/200/30 90/201/30
f 82/202/31 95/203/31 94/204/31
f 100/205/2 119/206/2 118/207/2
f 104/208/14 120/209/14 119/210/14
f 102/211/3 117/212/3 120/213/3
f 103/214/6 97/215/6 99/216/6
f 100/217/24 102/218/24 104/219/24
f 106/220/1 114/221/1 113/222/1
f 108/223/2 115/224/2 114/225/2
f 110/226/3 113/227/3 116/228/3
f 111/229/6 105/230/6 107/231/6
f 108/232/24 110/233/24 112/234/24
f 116/228/3 105/235/3 109/236/3
f 115/237/14 109/238/14 111/239/14
f 114/225/2 111/240/2 107/241/2
f 113/222/1 107/242/1 105/243/1
f 120/213/3 97/244/3 101/245/3
f 119/210/14 101/246/14 103/247/14
f 118/207/2 103/248/2 99/249/2
f 117/250/1 99/251/1 97/252/1
f 118/253/6 116/254/6 115/255/6
f 98/256/3 116/228/3 117/212/3
f 112/257/2 118/207/2 115/224/2
f 100/217/24 110/233/24 98/258/24
f 122/259/1 123/260/1 121/261/1
f 127/262/3 124/263/3 123/264/3
f 128/265/14 125/266/14 127/267/14
f 121/268/2 126/269/2 125/270/2
f 127/271/6 121/272/6 123/273/6
f 126/274/6 124/275/6 128/276/6
f 23/1/1 24/277/1 4/2/1
f 55/4/2 7/278/2 6/5/2
f 58/7/3 2/279/3 1/8/3
f 53/10/4 4/53/4 11/11/4
f 25/13/5 5/280/5 14/14/5
f 29/16/6 14/41/6 21/17/6
f 21/21/7 17/281/7 60/19/7
f 60/19/7 1/282/7 9/20/7
f 26/22/32 7/126/32 13/23/32
f 19/27/9 15/283/9 57/25/9
f 57/25/9 6/284/9 12/26/9
f 24/28/33 2/128/33 10/29/33
f 23/31/11 3/285/11 8/32/11
f 18/34/12 22/286/12 59/35/12
f 8/39/9 3/287/9 52/37/9
f 52/37/9 15/288/9 19/38/9
f 17/40/7 21/17/7 14/41/7
f 31/18/6 21/17/6 9/43/6
f 16/45/4 20/125/4 56/46/4
f 53/48/2 16/127/2 15/49/2
f 19/38/6 31/18/6 27/44/6
f 23/31/11 27/33/11 9/51/11
f 24/28/34 28/30/34 11/11/34
f 12/54/6 29/16/6 31/18/6
f 25/13/5 29/15/5 12/55/5
f 7/57/14 26/289/14 25/58/14
f 2/60/1 24/277/1 23/1/1
f 11/63/3 8/290/3 19/27/3
f 19/27/3 20/291/3 54/62/3
f 19/27/3 12/26/3 13/64/3
f 56/65/3 20/291/3 19/27/3
f 13/66/1 12/55/1 29/15/1
f 26/68/3 30/292/3 29/69/3
f 21/73/2 9/293/2 10/71/2
f 59/72/2 22/294/2 21/73/2
f 10/74/14 9/51/14 27/33/14
f 11/76/14 28/75/14 27/33/14
f 18/77/15 17/295/15 21/78/15
f 40/80/1 41/296/1 35/81/1
f 35/83/2 39/297/2 38/84/2
f 42/86/14 43/298/14 37/87/14
f 37/89/3 33/299/3 32/90/3
f 42/92/16 36/300/16 32/93/16
f 41/95/17 33/301/17 37/96/17
f 35/98/18 41/95/18 43/97/18
f 38/100/19 42/92/19 40/94/19
f 39/102/14 43/298/14 42/86/14
f 33/104/1 41/296/1 40/80/1
f 44/106/14 45/302/14 47/107/14
f 47/109/3 51/122/3 50/110/3
f 51/112/1 49/303/1 48/113/1
f 49/115/2 45/304/2 44/116/2
f 50/118/6 48/305/6 44/119/6
f 47/109/20 45/306/20 49/121/20
f 4/123/2 53/48/2 52/50/2
f 16/45/4 53/10/4 54/12/4
f 55/47/4 56/46/4 13/23/4
f 16/127/2 55/4/2 57/6/2
f 58/36/12 59/35/12 10/29/12
f 18/129/3 58/7/3 60/9/3
f 61/134/6 62/307/6 74/135/6
f 72/132/22 75/163/22 68/137/22
f 78/141/2 65/308/2 61/142/2
f 65/144/14 67/309/14 62/145/14
f 66/147/1 68/310/1 63/148/1
f 80/150/3 66/311/3 64/151/3
f 67/153/3 79/190/3 74/154/3
f 92/156/3 80/150/3 73/152/3
f 68/158/2 77/187/2 70/159/2
f 90/161/2 78/141/2 69/143/2
f 88/165/23 76/139/23 78/138/23
f 70/167/6 73/181/6 64/168/6
f 69/136/6 74/135/6 86/170/6
f 84/175/21 72/132/21 80/131/21
f 75/163/24 72/132/24 84/175/24
f 71/173/25 67/172/25 65/140/25
f 88/165/24 83/178/24 71/173/24
f 87/177/24 84/175/24 83/178/24
f 79/174/21 71/173/21 83/178/21
f 83/178/21 84/175/21 92/176/21
f 82/180/6 85/182/6 73/181/6
f 81/171/6 86/170/6 85/182/6
f 77/164/23 75/163/23 87/177/23
f 96/184/26 93/312/26 94/185/26
f 77/187/2 89/313/2 82/188/2
f 82/180/6 94/314/6 93/189/6
f 79/190/3 91/192/3 86/191/3
f 91/192/3 92/156/3 85/157/3
f 88/165/27 96/184/27 95/186/27
f 81/199/35 93/315/35 96/200/35
f 82/202/36 89/316/36 95/203/36
f 100/205/2 104/317/2 119/206/2
f 104/208/14 102/318/14 120/209/14
f 102/211/3 98/256/3 117/212/3
f 103/214/6 101/319/6 97/215/6
f 100/217/24 98/258/24 102/218/24
f 106/220/1 108/320/1 114/221/1
f 108/223/2 112/257/2 115/224/2
f 110/226/3 106/321/3 113/227/3
f 111/229/6 109/322/6 105/230/6
f 108/232/24 106/323/24 110/233/24
f 116/228/3 113/227/3 105/235/3
f 115/237/14 116/324/14 109/238/14
f 114/225/2 115/224/2 111/240/2
f 113/222/1 114/221/1 107/242/1
f 120/213/3 117/212/3 97/244/3
f 119/210/14 120/209/14 101/246/14
f 118/207/2 119/206/2 103/248/2
f 117/250/1 118/325/1 99/251/1
f 118/253/6 117/326/6 116/254/6
f 98/256/3 110/226/3 116/228/3
f 112/257/2 100/205/2 118/207/2
f 100/217/24 112/234/24 110/233/24
f 122/259/1 124/327/1 123/260/1
f 127/262/3 128/328/3 124/263/3
f 128/265/14 126/329/14 125/266/14
f 121/268/2 122/330/2 126/269/2
f 127/271/6 125/331/6 121/272/6
f 126/274/6 122/332/6 124/275/6
