# Blender 4.4.1
# www.blender.org
mtllib village_well.mtl
o well_body
v 0.633606 2.034761 1.048510
v 0.633606 2.034761 -1.133628
v 0.739146 1.955411 -1.129998
v 0.739146 1.955411 1.052298
v 0.758190 1.980742 1.052298
v 0.652849 2.060092 1.048510
v 0.758190 1.980742 -1.129998
v 0.652849 2.060092 -1.133628
v 0.382189 2.225392 1.032518
v 0.316292 2.275741 -1.110135
v 0.421832 2.196391 -1.103537
v 0.487731 2.146045 1.032518
v 0.506773 2.171374 1.032518
v 0.401636 2.250723 1.032518
v 0.440876 2.221722 -1.103537
v 0.335736 2.301069 -1.110135
v 0.076283 2.457456 1.053701
v 0.076283 2.457456 -1.133344
v 0.181823 2.378106 -1.133344
v 0.181823 2.378106 1.057801
v 0.200409 2.403435 1.057801
v 0.095505 2.482785 1.053701
v 0.200409 2.403435 -1.133344
v 0.095505 2.482785 -1.133344
v -0.086111 2.448529 1.046677
v -0.191651 2.369180 1.043943
v -0.191651 2.369180 -1.136124
v -0.086111 2.448529 -1.136124
v -0.105365 2.473861 1.046677
v -0.210237 2.394511 1.043943
v -0.210237 2.394511 -1.136124
v -0.105365 2.473861 -1.136124
v -0.313045 2.276258 1.042167
v -0.418585 2.196908 1.047096
v -0.418585 2.196908 -1.124707
v -0.313045 2.276258 -1.124318
v -0.332997 2.301589 1.042167
v -0.437710 2.222240 1.047096
v -0.437710 2.222240 -1.124707
v -0.332997 2.301589 -1.124318
v -0.650880 2.020514 1.035231
v -0.756419 1.941164 1.039019
v -0.756419 1.941163 -1.081912
v -0.650880 2.020514 -1.076478
v -0.670877 2.045845 1.035231
v -0.775633 1.966495 1.039019
v -0.775633 1.966495 -1.081912
v -0.670877 2.045845 -1.076478
v 0.747576 1.949843 -0.820999
v -0.766763 1.934807 -0.820999
v -0.647070 2.024466 -0.820999
v 0.632704 2.036864 -0.820999
v 0.747576 1.949843 -0.794589
v 0.632704 2.036864 -0.794589
v -0.647070 2.024466 -0.794589
v -0.766763 1.934807 -0.794589
v 0.683442 1.917890 -0.794517
v 0.001009 2.436928 -0.794611
v 0.001054 2.515502 -0.794611
v 0.724772 1.968477 -0.794517
v 0.683442 1.917890 -0.768110
v 0.724772 1.968477 -0.768110
v 0.001054 2.515502 -0.768201
v 0.001009 2.436928 -0.768201
v -0.751096 1.946774 -0.794705
v -0.711805 1.896278 -0.794705
v -0.751096 1.946774 -0.768295
v -0.711805 1.896278 -0.768295
v 0.747576 1.949843 0.681046
v -0.766763 1.934807 0.681046
v -0.647070 2.024466 0.681046
v 0.632704 2.036864 0.681046
v 0.747576 1.949843 0.707453
v 0.632704 2.036864 0.707453
v -0.647070 2.024466 0.707453
v -0.766763 1.934807 0.707453
v -0.708164 1.979011 0.654604
v 0.001191 2.515350 0.654510
v 0.001191 2.436823 0.654510
v -0.667169 1.928515 0.654604
v -0.708164 1.979011 0.681011
v -0.667169 1.928515 0.681011
v 0.001191 2.436823 0.680917
v 0.001191 2.515350 0.680917
v 0.667925 1.929462 0.654416
v 0.709253 1.980052 0.654416
v 0.667925 1.929462 0.680826
v 0.709253 1.980052 0.680826
v -0.855147 1.906125 1.070884
v -0.855147 1.906125 -1.147428
v 0.001036 2.554359 -1.147428
v 0.001036 2.554359 1.070884
v -0.855147 1.944791 1.070884
v 0.001036 2.593025 1.070884
v 0.001036 2.593025 -1.147428
v -0.855147 1.944791 -1.147428
v 0.855772 1.906010 1.070884
v 0.855772 1.906009 -1.147428
v 0.855772 1.944676 -1.147428
v 0.855772 1.944676 1.070884
v 0.012557 2.583648 1.053701
v 0.118097 2.504298 1.057801
v 0.136682 2.529629 1.057801
v 0.031779 2.608979 1.053701
v 0.118097 2.504298 -1.133344
v 0.136682 2.529629 -1.133344
v 0.012557 2.583648 -1.133344
v 0.031779 2.608979 -1.133344
v -0.010571 2.583422 1.046677
v -0.029825 2.608754 1.046677
v -0.134697 2.529403 1.043943
v -0.116111 2.504072 1.043943
v -0.134697 2.529403 -1.136124
v -0.116111 2.504072 -1.136124
v -0.029825 2.608754 -1.136124
v -0.010571 2.583422 -1.136124
v 0.707397 0.855522 -0.047960
v 0.653520 0.855522 -0.318803
v 0.653520 0.894529 -0.318803
v 0.707397 0.894529 -0.047960
v 0.500100 0.855522 -0.548412
v 0.500100 0.894529 -0.548412
v 0.270491 0.855522 -0.701832
v 0.270491 0.894529 -0.701832
v -0.000351 0.855522 -0.755706
v -0.000351 0.894529 -0.755706
v -0.271194 0.855522 -0.701832
v -0.271194 0.894529 -0.701832
v -0.500803 0.855522 -0.548412
v -0.500803 0.894529 -0.548412
v -0.654226 0.855522 -0.318803
v -0.654226 0.894529 -0.318803
v -0.708099 0.855522 -0.047960
v -0.708099 0.894529 -0.047960
v -0.654226 0.855522 0.222882
v -0.654226 0.894529 0.222882
v -0.500803 0.855522 0.452494
v -0.500803 0.894529 0.452494
v -0.271194 0.855522 0.605914
v -0.271194 0.894529 0.605914
v -0.000351 0.855522 0.659788
v -0.000351 0.894529 0.659788
v 0.270491 0.855522 0.605914
v 0.270491 0.894529 0.605914
v 0.500100 0.855522 0.452494
v 0.500100 0.894529 0.452494
v 0.653523 0.855522 0.222882
v 0.653523 0.894529 0.222882
v -0.287864 0.915055 0.159003
v -0.219204 0.915055 0.159003
v -0.219204 0.915055 -0.263531
v -0.287864 0.915055 -0.263531
v -0.287864 0.893928 0.159003
v -0.219204 0.893928 0.159003
v -0.219204 0.893928 -0.263531
v -0.287864 0.893928 -0.263531
v 0.274350 0.935881 -0.017934
v 0.274350 0.935881 -0.086594
v -0.274610 0.935881 -0.086594
v -0.274610 0.935881 -0.017934
v 0.274350 0.914752 -0.017934
v 0.274350 0.914752 -0.086594
v -0.274610 0.914752 -0.086594
v -0.274610 0.914752 -0.017934
v 0.224455 0.915055 0.159003
v 0.293115 0.915055 0.159003
v 0.293115 0.915055 -0.263531
v 0.224455 0.915055 -0.263531
v 0.224455 0.893928 0.159003
v 0.293115 0.893928 0.159003
v 0.293115 0.893928 -0.263531
v 0.224455 0.893928 -0.263531
v 0.739905 -0.000000 -0.050764
v 0.683619 -0.000000 -0.333735
v 0.683619 0.855635 -0.333735
v 0.739905 0.855635 -0.050764
v 0.523331 -0.000000 -0.573625
v 0.523331 0.855635 -0.573625
v 0.283440 -0.000000 -0.733914
v 0.283440 0.855635 -0.733914
v 0.000470 -0.000000 -0.790200
v 0.000470 0.855635 -0.790200
v -0.282501 -0.000000 -0.733914
v -0.282501 0.855635 -0.733914
v -0.522391 -0.000000 -0.573625
v -0.522391 0.855635 -0.573625
v -0.682682 -0.000000 -0.333735
v -0.682682 0.855635 -0.333735
v -0.738969 -0.000000 -0.050764
v -0.738969 0.855635 -0.050764
v -0.682682 0.000000 0.232206
v -0.682682 0.855635 0.232206
v -0.522391 0.000000 0.472097
v -0.522391 0.855635 0.472097
v -0.282501 0.000000 0.632388
v -0.282501 0.855635 0.632388
v 0.000470 0.000000 0.688674
v 0.000470 0.855635 0.688674
v 0.283440 0.000000 0.632388
v 0.283440 0.855635 0.632388
v 0.523331 0.000000 0.472097
v 0.523331 0.855635 0.472097
v 0.683619 0.000000 0.232206
v 0.683619 0.855635 0.232206
v 0.623917 0.855635 -0.309005
v 0.675282 0.855635 -0.050764
v 0.477635 0.855635 -0.527929
v 0.258710 0.855635 -0.674212
v 0.000470 0.855635 -0.725580
v -0.257771 0.855635 -0.674212
v -0.476698 0.855635 -0.527929
v -0.622978 0.855635 -0.309005
v -0.674346 0.855635 -0.050764
v -0.622978 0.855635 0.207476
v -0.476698 0.855635 0.426403
v -0.257771 0.855635 0.572683
v 0.000470 0.855635 0.624051
v 0.258710 0.855635 0.572683
v 0.477635 0.855635 0.426403
v 0.623917 0.855635 0.207476
v 0.623917 -0.000000 -0.309005
v 0.675282 -0.000000 -0.050764
v 0.477635 -0.000000 -0.527929
v 0.258710 -0.000000 -0.674212
v 0.000470 -0.000000 -0.725580
v -0.257771 -0.000000 -0.674212
v -0.476698 -0.000000 -0.527929
v -0.622978 -0.000000 -0.309005
v -0.674346 -0.000000 -0.050764
v -0.622978 0.000000 0.207476
v -0.476698 0.000000 0.426404
v -0.257771 0.000000 0.572683
v 0.000470 0.000000 0.624051
v 0.258710 0.000000 0.572683
v 0.477635 0.000000 0.426404
v 0.623917 0.000000 0.207476
v 0.105719 -0.000000 -0.924921
v 0.074781 -0.000000 -0.999616
v 0.074781 2.499846 -0.999616
v 0.105719 2.476265 -0.924921
v 0.000086 -0.000000 -1.030554
v 0.001036 2.555634 -1.030555
v -0.074609 -0.000000 -0.999616
v -0.074609 2.498430 -0.999616
v -0.105548 -0.000000 -0.924921
v -0.105548 2.475031 -0.924921
v -0.074609 -0.000000 -0.850226
v -0.074609 2.498430 -0.850226
v 0.000086 -0.000000 -0.819287
v 0.001036 2.555634 -0.819287
v 0.074781 -0.000000 -0.850226
v 0.074781 2.499846 -0.850226
v 0.105719 0.000000 0.812810
v 0.074781 0.000000 0.738115
v 0.074781 2.499492 0.738115
v 0.105719 2.475916 0.812810
v 0.000086 0.000000 0.707177
v 0.001036 2.555314 0.707176
v -0.074609 0.000000 0.738115
v -0.074609 2.498081 0.738115
v -0.105548 0.000000 0.812810
v -0.105548 2.474650 0.812810
v -0.074609 0.000000 0.887505
v -0.074609 2.498081 0.887505
v 0.000086 0.000000 0.918444
v 0.001036 2.555314 0.918444
v 0.074781 0.000000 0.887505
v 0.074781 2.499492 0.887505
vn -0.8157 -0.1093 0.5680
vn -0.8022 -0.1157 -0.5857
vn 0.1193 -0.8139 -0.5686
vn 0.1094 -0.8026 0.5863
vn 0.5569 -0.4186 0.7174
vn -0.5704 0.4333 0.6978
vn 0.5727 -0.4306 -0.6975
vn -0.5545 0.4213 -0.7177
vn -0.8008 -0.1197 0.5868
vn -0.8058 -0.1073 -0.5823
vn 0.1123 -0.8127 -0.5718
vn 0.1253 -0.8142 0.5669
vn 0.5758 -0.4329 0.6936
vn -0.5485 0.4211 0.7224
vn 0.5679 -0.4272 -0.7036
vn -0.5560 0.4271 -0.7131
vn -0.8163 -0.1093 0.5672
vn -0.8088 -0.1127 -0.5771
vn 0.1193 -0.8082 -0.5767
vn 0.1137 -0.8019 0.5865
vn 0.5585 -0.4096 0.7213
vn -0.5718 0.4337 0.6964
vn 0.5675 -0.4164 -0.7104
vn -0.5630 0.4272 -0.7075
vn 0.8039 -0.1148 0.5836
vn -0.1227 -0.8121 0.5704
vn -0.1193 -0.8082 -0.5767
vn 0.8089 -0.1124 -0.5771
vn 0.5566 0.4232 0.7149
vn -0.5733 -0.4208 0.7030
vn -0.5674 -0.4163 -0.7104
vn 0.5626 0.4276 -0.7076
vn 0.8193 -0.1014 0.5644
vn -0.1068 -0.8010 0.5890
vn -0.1132 -0.8079 -0.5784
vn 0.8112 -0.1052 -0.5753
vn 0.5627 0.4432 0.6978
vn -0.5535 -0.4176 0.7206
vn -0.5632 -0.4252 -0.7085
vn 0.5530 0.4356 -0.7102
vn 0.8174 -0.1019 0.5671
vn -0.1077 -0.8027 0.5866
vn -0.1054 -0.8001 -0.5905
vn 0.8203 -0.1005 -0.5631
vn 0.5597 0.4416 0.7013
vn -0.5555 -0.4211 0.7170
vn -0.5519 -0.4183 -0.7214
vn 0.5632 0.4443 -0.6967
vn 0.0092 -0.9222 -0.3865
vn 0.0092 -0.9275 -0.3738
vn -0.0051 0.5307 -0.8475
vn -0.0052 0.5345 -0.8451
vn 0.0092 -0.9222 0.3865
vn -0.0052 0.5345 0.8451
vn -0.0051 0.5307 0.8475
vn 0.0092 -0.9275 0.3738
vn 0.0958 -0.8096 -0.5792
vn -0.0002 -0.4908 -0.8712
vn 0.0001 -0.0000 -1.0000
vn 0.5543 -0.4528 -0.6984
vn 0.0957 -0.8095 0.5792
vn 0.5542 -0.4528 0.6985
vn -0.0001 -0.0000 1.0000
vn -0.0004 -0.4908 0.8712
vn -0.5605 -0.4362 -0.7040
vn -0.1060 -0.8091 -0.5780
vn -0.5606 -0.4361 0.7039
vn -0.1061 -0.8091 0.5780
vn -0.5551 -0.4506 -0.6992
vn -0.0001 -0.0000 -1.0000
vn -0.0002 -0.4905 -0.8714
vn -0.0971 -0.8095 -0.5790
vn -0.5550 -0.4506 0.6992
vn -0.0970 -0.8095 0.5791
vn 0.0001 -0.4905 0.8714
vn 0.0001 -0.0000 1.0000
vn 0.0957 -0.8095 -0.5792
vn 0.5542 -0.4527 -0.6985
vn 0.0957 -0.8096 0.5792
vn 0.5543 -0.4527 0.6985
vn -0.3716 -0.7474 0.5507
vn -0.3716 -0.7474 -0.5507
vn -0.0002 -0.4913 -0.8710
vn -0.0002 -0.4913 0.8710
vn -0.7031 0.3495 0.6193
vn 0.0004 0.8051 0.5931
vn 0.0004 0.8051 -0.5931
vn -0.7031 0.3495 -0.6193
vn 0.3713 -0.7476 0.5507
vn 0.3713 -0.7476 -0.5507
vn 0.7032 0.3492 -0.6194
vn 0.7032 0.3492 0.6194
vn -0.5727 0.4347 0.6950
vn 0.5635 -0.4132 0.7153
vn 0.7998 0.1218 0.5879
vn -0.1171 0.8149 0.5676
vn 0.5722 -0.4199 -0.7045
vn 0.8074 0.1180 -0.5781
vn -0.5641 0.4280 -0.7061
vn -0.1115 0.8088 -0.5774
vn 0.5580 0.4243 0.7132
vn 0.1074 0.8047 0.5839
vn -0.8124 0.1155 0.5716
vn -0.5780 -0.4242 0.6971
vn -0.8074 0.1179 -0.5781
vn -0.5722 -0.4199 -0.7045
vn 0.1111 0.8088 -0.5775
vn 0.5639 0.4286 -0.7059
vn 1.0000 -0.0000 -0.0000
vn 0.9239 -0.0000 -0.3827
vn 0.6894 0.6657 -0.2856
vn 0.7462 0.6657 -0.0000
vn 0.7071 -0.0000 -0.7071
vn 0.5276 0.6657 -0.5276
vn 0.3827 -0.0000 -0.9239
vn 0.2856 0.6657 -0.6894
vn -0.0000 -0.0000 -1.0000
vn -0.0000 0.6657 -0.7462
vn -0.3827 -0.0000 -0.9239
vn -0.2856 0.6657 -0.6894
vn -0.7071 -0.0000 -0.7071
vn -0.5276 0.6657 -0.5276
vn -0.9239 -0.0000 -0.3827
vn -0.6894 0.6657 -0.2856
vn -1.0000 -0.0000 -0.0000
vn -0.7462 0.6657 -0.0000
vn -0.9239 -0.0000 0.3827
vn -0.6894 0.6657 0.2856
vn -0.7071 -0.0000 0.7071
vn -0.5276 0.6657 0.5276
vn -0.3827 -0.0000 0.9239
vn -0.2856 0.6657 0.6894
vn -0.0000 -0.0000 1.0000
vn -0.0000 0.6657 0.7462
vn 0.3827 -0.0000 0.9239
vn 0.2856 0.6657 0.6894
vn 0.7071 -0.0000 0.7071
vn 0.5276 0.6657 0.5276
vn 0.9239 -0.0000 0.3827
vn 0.6894 0.6657 0.2856
vn -0.5774 0.5774 0.5774
vn 0.5774 0.5774 0.5774
vn 0.5774 0.5774 -0.5774
vn -0.5774 0.5774 -0.5774
vn -0.6071 0.7538 0.2515
vn -0.6571 0.7538 -0.0000
vn -0.4647 0.7538 0.4647
vn -0.2515 0.7538 0.6071
vn -0.0000 0.7538 0.6571
vn 0.2515 0.7538 0.6071
vn 0.4647 0.7538 0.4647
vn 0.6071 0.7538 0.2515
vn 0.6571 0.7538 -0.0000
vn 0.6071 0.7538 -0.2515
vn 0.4647 0.7538 -0.4647
vn 0.2515 0.7538 -0.6071
vn -0.0000 0.7538 -0.6571
vn -0.2515 0.7538 -0.6071
vn -0.4647 0.7538 -0.4647
vn -0.6071 0.7538 -0.2515
vn 0.6304 -0.0000 -0.7763
vn 0.0049 -0.0000 -1.0000
vn -0.7070 -0.0000 -0.7072
vn -0.6260 -0.0000 -0.7798
vn -0.7070 -0.0000 0.7072
vn -0.6260 -0.0000 0.7799
vn 0.0049 -0.0000 1.0000
vn 0.6304 -0.0000 0.7763
vn -0.6259 -0.0000 -0.7799
vn -0.6259 -0.0000 0.7799
vt 0.690900 0.995700
vt 0.690900 0.565100
vt 0.736400 0.565800
vt 0.736400 0.996400
vt 0.517300 0.704900
vt 0.517300 0.641400
vt 0.529000 0.641400
vt 0.529100 0.704800
vt 0.565000 0.997700
vt 0.565000 0.563400
vt 0.577900 0.563400
vt 0.577900 0.997700
vt 0.529500 0.704900
vt 0.529500 0.641400
vt 0.541300 0.641500
vt 0.541300 0.704900
vt 0.670900 0.998100
vt 0.670900 0.565300
vt 0.683500 0.565300
vt 0.683500 0.998100
vt 0.563200 0.996000
vt 0.563200 0.562600
vt 0.605100 0.562600
vt 0.605100 0.996000
vt 0.521100 0.769500
vt 0.521100 0.709600
vt 0.536200 0.709600
vt 0.536200 0.769500
vt 0.675000 0.996600
vt 0.675200 0.565600
vt 0.686700 0.565600
vt 0.686400 0.996600
vt 0.551500 0.709300
vt 0.551500 0.769300
vt 0.536400 0.769300
vt 0.536400 0.709300
vt 0.595500 0.564000
vt 0.595800 0.997000
vt 0.583100 0.997000
vt 0.582900 0.564000
vt 0.458400 0.568300
vt 0.458400 0.998900
vt 0.412600 0.998900
vt 0.412600 0.567500
vt 0.453800 0.733600
vt 0.453800 0.804400
vt 0.438200 0.804400
vt 0.438200 0.733600
vt 0.491200 0.565400
vt 0.491200 0.998300
vt 0.477100 0.998300
vt 0.477100 0.565400
vt 0.421900 0.804400
vt 0.421900 0.733600
vt 0.437500 0.733600
vt 0.437500 0.804400
vt 0.506300 0.565100
vt 0.506300 0.997100
vt 0.492100 0.997100
vt 0.492100 0.565100
vt 0.406300 0.998000
vt 0.353500 0.997400
vt 0.353500 0.566400
vt 0.406300 0.566400
vt 0.361900 0.846300
vt 0.379000 0.846300
vt 0.379000 0.938000
vt 0.361900 0.938000
vt 0.394400 0.997000
vt 0.373400 0.997000
vt 0.373400 0.569000
vt 0.394400 0.569000
vt 0.383300 0.832900
vt 0.361900 0.832900
vt 0.361900 0.721900
vt 0.383300 0.721900
vt 0.373100 0.997600
vt 0.351800 0.997600
vt 0.351800 0.569000
vt 0.373100 0.569000
vt 0.348400 0.993300
vt 0.280700 0.994300
vt 0.280700 0.563900
vt 0.348400 0.564000
vt 0.250900 0.726700
vt 0.274100 0.726700
vt 0.274100 0.829300
vt 0.250900 0.829300
vt 0.319900 0.995100
vt 0.301000 0.995100
vt 0.301000 0.563100
vt 0.319900 0.563100
vt 0.273200 0.729500
vt 0.248200 0.729500
vt 0.248200 0.611300
vt 0.273200 0.611300
vt 0.339600 0.994000
vt 0.320300 0.994000
vt 0.320300 0.563100
vt 0.339600 0.563100
vt 0.782200 0.996400
vt 0.745100 0.996400
vt 0.745100 0.562500
vt 0.782200 0.562500
vt 0.706400 0.689700
vt 0.725100 0.689700
vt 0.725100 0.759900
vt 0.706400 0.759900
vt 0.762300 0.567800
vt 0.774100 0.567800
vt 0.774100 0.998400
vt 0.762300 0.998400
vt 0.712700 0.856100
vt 0.696600 0.856100
vt 0.696600 0.790100
vt 0.712700 0.790100
vt 0.749600 0.570100
vt 0.761600 0.570100
vt 0.761600 0.998800
vt 0.749600 0.998800
vt 0.825100 0.888000
vt 0.821600 0.564300
vt 0.842300 0.589900
vt 0.845200 0.863500
vt 0.801000 0.563700
vt 0.829000 0.588100
vt 0.825000 0.860000
vt 0.796200 0.885400
vt 0.829600 0.888600
vt 0.829600 0.565400
vt 0.842700 0.565400
vt 0.842700 0.888600
vt 0.844800 0.563300
vt 0.844800 0.889400
vt 0.836100 0.889400
vt 0.836100 0.563300
vt 0.254500 0.878700
vt 0.255600 0.587200
vt 0.276900 0.571100
vt 0.276600 0.879500
vt 0.380900 0.883900
vt 0.355300 0.884700
vt 0.355100 0.574600
vt 0.379600 0.590700
vt 0.290600 0.619300
vt 0.290600 0.570400
vt 0.303700 0.570400
vt 0.303700 0.619300
vt 0.378100 0.581200
vt 0.378100 0.883800
vt 0.366200 0.883800
vt 0.366200 0.581200
vt 0.339700 0.636200
vt 0.342000 0.952800
vt 0.323000 0.935900
vt 0.320400 0.635500
vt 0.307300 0.637500
vt 0.326400 0.637800
vt 0.325400 0.940500
vt 0.306600 0.956500
vt 0.303800 0.619300
vt 0.303800 0.573100
vt 0.316900 0.573100
vt 0.316900 0.619300
vt 0.330500 0.931400
vt 0.330500 0.640100
vt 0.338400 0.640100
vt 0.338400 0.931400
vt 0.420100 0.884800
vt 0.416500 0.579700
vt 0.437900 0.603800
vt 0.440900 0.861700
vt 0.455300 0.951700
vt 0.430800 0.928700
vt 0.434300 0.673100
vt 0.459500 0.649200
vt 0.424200 0.877700
vt 0.424200 0.565600
vt 0.438700 0.565600
vt 0.438700 0.877700
vt 0.446900 0.579500
vt 0.446900 0.873800
vt 0.429500 0.873800
vt 0.429500 0.579500
vt 0.467600 0.976800
vt 0.468100 0.681400
vt 0.491400 0.697200
vt 0.491700 0.976100
vt 0.503500 0.976700
vt 0.478500 0.975900
vt 0.478900 0.685500
vt 0.503000 0.669100
vt 0.478700 0.901100
vt 0.478700 0.965900
vt 0.463000 0.965900
vt 0.463000 0.901100
vt 0.816500 0.861500
vt 0.816400 0.592500
vt 0.838300 0.592500
vt 0.838400 0.861500
vt 0.825200 0.569300
vt 0.823000 0.867700
vt 0.801900 0.884500
vt 0.803300 0.568300
vt 0.811500 0.573400
vt 0.833600 0.574300
vt 0.829000 0.883100
vt 0.808100 0.864900
vt 0.494500 0.902600
vt 0.494500 0.965900
vt 0.478800 0.965900
vt 0.478800 0.902600
vt 0.829000 0.569300
vt 0.829100 0.875500
vt 0.808600 0.875500
vt 0.808500 0.569300
vt 0.239400 0.563300
vt 0.917000 0.563300
vt 0.917000 0.997200
vt 0.239400 0.997200
vt 0.915400 0.566100
vt 0.915400 0.996500
vt 0.241700 0.996500
vt 0.241700 0.566100
vt 0.586700 0.994300
vt 0.572400 0.576200
vt 0.591600 0.568300
vt 0.605900 0.986400
vt 0.916300 0.812600
vt 0.239900 0.812600
vt 0.239900 0.795600
vt 0.916300 0.795600
vt 0.279800 0.575900
vt 0.269100 0.992200
vt 0.249200 0.983000
vt 0.259800 0.566700
vt 0.241800 0.653600
vt 0.915400 0.653600
vt 0.915400 0.671900
vt 0.241800 0.671900
vt 0.918200 0.997100
vt 0.238600 0.997100
vt 0.238600 0.563800
vt 0.918200 0.563800
vt 0.886200 0.580900
vt 0.906800 0.574800
vt 0.895100 0.986300
vt 0.874400 0.992300
vt 0.916300 0.995800
vt 0.239900 0.995800
vt 0.239900 0.564000
vt 0.916300 0.564000
vt 0.243900 0.567600
vt 0.270300 0.573000
vt 0.269700 0.992000
vt 0.243300 0.986600
vt 0.501600 0.863600
vt 0.501600 0.931400
vt 0.489600 0.931300
vt 0.489500 0.863600
vt 0.433300 0.564000
vt 0.433300 0.995700
vt 0.415400 0.995700
vt 0.415400 0.564000
vt 0.476900 0.931400
vt 0.476900 0.863600
vt 0.489000 0.863600
vt 0.488900 0.931300
vt 0.457200 0.563600
vt 0.457200 0.994500
vt 0.439100 0.994500
vt 0.439100 0.563600
vt 0.350700 0.996900
vt 0.350700 0.563500
vt 0.409100 0.563500
vt 0.409100 0.996100
vt 0.702500 0.776600
vt 0.720800 0.776600
vt 0.720800 0.838600
vt 0.702500 0.838600
vt 0.788900 0.996800
vt 0.771900 0.996800
vt 0.771900 0.564900
vt 0.788900 0.564900
vt 0.693600 0.712000
vt 0.674500 0.712000
vt 0.674500 0.644100
vt 0.693600 0.644100
vt 0.764900 0.997400
vt 0.747500 0.997400
vt 0.747500 0.564900
vt 0.764900 0.564900
vt 0.791400 0.994600
vt 0.791400 0.564200
vt 0.841900 0.564200
vt 0.841900 0.994100
vt 0.673500 0.780900
vt 0.673500 0.727200
vt 0.691900 0.727200
vt 0.691900 0.780900
vt 0.673500 0.673500
vt 0.691900 0.673500
vt 0.673500 0.619800
vt 0.691900 0.619800
vt 0.673500 0.566100
vt 0.691900 0.566100
vt 0.673500 0.995700
vt 0.673500 0.942000
vt 0.691900 0.942000
vt 0.691900 0.995700
vt 0.673500 0.888300
vt 0.691900 0.888300
vt 0.673500 0.834600
vt 0.691900 0.834600
vt 0.783400 0.922600
vt 0.713000 0.936600
vt 0.642600 0.922600
vt 0.582900 0.882800
vt 0.543000 0.823100
vt 0.529000 0.752700
vt 0.543000 0.682300
vt 0.582900 0.622600
vt 0.642600 0.582700
vt 0.713000 0.568700
vt 0.783400 0.582700
vt 0.843100 0.622600
vt 0.882900 0.682300
vt 0.896900 0.752700
vt 0.882900 0.823100
vt 0.843100 0.882800
vt 0.746000 0.687900
vt 0.780900 0.687900
vt 0.780900 0.943700
vt 0.746000 0.943700
vt 0.791300 0.675400
vt 0.851000 0.675400
vt 0.851000 0.693100
vt 0.791300 0.693100
vt 0.826700 0.993500
vt 0.826700 0.724700
vt 0.853200 0.724700
vt 0.853200 0.993500
vt 0.791300 0.693700
vt 0.851000 0.693700
vt 0.851000 0.711400
vt 0.791300 0.711400
vt 0.798100 0.993500
vt 0.798100 0.724700
vt 0.824600 0.724700
vt 0.824600 0.993500
vt 0.475600 0.756400
vt 0.510800 0.756400
vt 0.510800 0.993800
vt 0.475600 0.993800
vt 0.368900 0.986400
vt 0.368900 0.917000
vt 0.385900 0.917000
vt 0.385900 0.986400
vt 0.401300 0.634700
vt 0.401300 0.908600
vt 0.378800 0.908600
vt 0.378800 0.634700
vt 0.386400 0.986400
vt 0.386400 0.917000
vt 0.403300 0.917000
vt 0.403300 0.986400
vt 0.462800 0.716100
vt 0.462800 0.990000
vt 0.440300 0.990000
vt 0.440300 0.716100
vt 0.617800 0.730400
vt 0.652000 0.730400
vt 0.652000 0.946000
vt 0.617800 0.946000
vt 0.701900 0.846200
vt 0.701900 0.788700
vt 0.720200 0.788700
vt 0.720200 0.846200
vt 0.664600 0.995300
vt 0.664600 0.782900
vt 0.686400 0.782900
vt 0.686400 0.995300
vt 0.703200 0.770600
vt 0.703200 0.713200
vt 0.721500 0.713200
vt 0.721500 0.770600
vt 0.663200 0.780600
vt 0.663200 0.568200
vt 0.684900 0.568200
vt 0.684900 0.780600
vt 0.749400 0.003600
vt 0.811800 0.003600
vt 0.811800 0.386700
vt 0.749400 0.386700
vt 0.874200 0.003600
vt 0.874200 0.386700
vt 0.936500 0.003600
vt 0.936500 0.386700
vt 0.998900 0.003600
vt 0.998900 0.386700
vt 0.001100 0.003600
vt 0.063500 0.003600
vt 0.063500 0.386700
vt 0.001100 0.386700
vt 0.125800 0.003600
vt 0.125800 0.386700
vt 0.188200 0.003600
vt 0.188200 0.386700
vt 0.250600 0.003600
vt 0.250600 0.386700
vt 0.312900 0.003600
vt 0.312900 0.386700
vt 0.375300 0.003600
vt 0.375300 0.386700
vt 0.437600 0.003600
vt 0.437600 0.386700
vt 0.500000 0.003600
vt 0.500000 0.386700
vt 0.562400 0.003600
vt 0.562400 0.386700
vt 0.624700 0.003600
vt 0.624700 0.386700
vt 0.687100 0.003600
vt 0.687100 0.386700
vt 0.747100 0.103300
vt 0.809200 0.103300
vt 0.809200 0.141500
vt 0.747100 0.141500
vt 0.871200 0.103300
vt 0.871200 0.141500
vt 0.933200 0.103300
vt 0.933200 0.141500
vt 0.998000 0.103300
vt 0.998000 0.141500
vt 0.004000 0.103300
vt 0.065100 0.103300
vt 0.065100 0.141500
vt 0.004000 0.141500
vt 0.127100 0.103300
vt 0.127100 0.141500
vt 0.189100 0.103300
vt 0.189100 0.141500
vt 0.251100 0.103300
vt 0.251100 0.141500
vt 0.313100 0.103300
vt 0.313100 0.141500
vt 0.375100 0.103300
vt 0.375100 0.141500
vt 0.437100 0.103300
vt 0.437100 0.141500
vt 0.499100 0.103300
vt 0.499100 0.141500
vt 0.561100 0.103300
vt 0.561100 0.141500
vt 0.623100 0.103300
vt 0.623100 0.141500
vt 0.685100 0.103300
vt 0.685100 0.141500
vt 0.998400 0.518600
vt 0.998400 0.560100
vt 0.151500 0.560100
vt 0.151500 0.518600
vt 0.998400 0.394300
vt 0.998400 0.435800
vt 0.151500 0.435800
vt 0.151500 0.394300
vt 0.998400 0.477200
vt 0.151500 0.477200
vt 0.152600 0.434700
vt 0.152600 0.393100
vt 0.998800 0.393100
vt 0.998800 0.434700
vt 0.152600 0.559300
vt 0.152600 0.517800
vt 0.998800 0.517800
vt 0.998800 0.559300
vt 0.152600 0.476200
vt 0.998800 0.476200
s 1
usemtl mat_village_well
f 1/1/1 2/2/2 3/3/3 4/4/4
f 1/5/1 4/6/4 5/7/5 6/8/6
f 4/9/4 3/10/3 7/11/7 5/12/5
f 3/13/3 2/14/2 8/15/8 7/16/7
f 2/17/2 1/18/1 6/19/6 8/20/8
f 9/21/9 10/22/10 11/23/11 12/24/12
f 9/25/9 12/26/12 13/27/13 14/28/14
f 12/29/12 11/30/11 15/31/15 13/32/13
f 11/33/11 10/34/10 16/35/16 15/36/15
f 10/37/10 9/38/9 14/39/14 16/40/16
f 17/41/17 18/42/18 19/43/19 20/44/20
f 17/45/17 20/46/20 21/47/21 22/48/22
f 20/49/20 19/50/19 23/51/23 21/52/21
f 19/53/19 18/54/18 24/55/24 23/56/23
f 18/57/18 17/58/17 22/59/22 24/60/24
f 25/61/25 26/62/26 27/63/27 28/64/28
f 25/65/25 29/66/29 30/67/30 26/68/26
f 26/69/26 30/70/30 31/71/31 27/72/27
f 27/73/27 31/74/31 32/75/32 28/76/28
f 28/77/28 32/78/32 29/79/29 25/80/25
f 33/81/33 34/82/34 35/83/35 36/84/36
f 33/85/33 37/86/37 38/87/38 34/88/34
f 34/89/34 38/90/38 39/91/39 35/92/35
f 35/93/35 39/94/39 40/95/40 36/96/36
f 36/97/36 40/98/40 37/99/37 33/100/33
f 41/101/41 42/102/42 43/103/43 44/104/44
f 41/105/41 45/106/45 46/107/46 42/108/42
f 42/109/42 46/110/46 47/111/47 43/112/43
f 43/113/43 47/114/47 48/115/48 44/116/44
f 44/117/44 48/118/48 45/119/45 41/120/41
f 49/121/49 50/122/50 51/123/51 52/124/52
f 53/125/53 54/126/54 55/127/55 56/128/56
f 52/129/52 51/130/51 55/131/55 54/132/54
f 50/133/50 49/134/49 53/135/53 56/136/56
f 57/137/57 58/138/58 59/139/59 60/140/60
f 61/141/61 62/142/62 63/143/63 64/144/64
f 57/145/57 60/146/60 62/147/62 61/148/61
f 58/149/58 57/150/57 61/151/61 64/152/64
f 65/153/65 59/154/59 58/155/58 66/156/66
f 67/157/67 68/158/68 64/159/64 63/160/63
f 65/161/65 66/162/66 68/163/68 67/164/67
f 66/165/66 58/166/58 64/167/64 68/168/68
f 69/169/49 70/170/50 71/171/51 72/172/52
f 73/173/53 74/174/54 75/175/55 76/176/56
f 72/177/52 71/178/51 75/179/55 74/180/54
f 70/181/50 69/182/49 73/183/53 76/184/56
f 77/185/69 78/186/70 79/187/71 80/188/72
f 81/189/73 82/190/74 83/191/75 84/192/76
f 77/193/69 80/194/72 82/195/74 81/196/73
f 80/197/72 79/198/71 83/199/75 82/200/74
f 85/201/77 79/202/71 78/203/70 86/204/78
f 87/205/79 88/206/80 84/207/76 83/208/75
f 85/209/77 86/210/78 88/211/80 87/212/79
f 79/213/71 85/214/77 87/215/79 83/216/75
f 89/217/81 90/218/82 91/219/83 92/220/84
f 93/221/85 94/222/86 95/223/87 96/224/88
f 89/225/81 92/226/84 94/227/86 93/228/85
f 97/229/89 98/230/90 99/231/91 100/232/92
f 91/233/83 90/234/82 96/235/88 95/236/87
f 90/237/82 89/238/81 93/239/85 96/240/88
f 92/241/84 91/242/83 98/243/90 97/244/89
f 91/245/83 95/246/87 99/247/91 98/248/90
f 95/249/87 94/250/86 100/251/92 99/252/91
f 94/253/86 92/254/84 97/255/89 100/256/92
f 101/257/93 102/258/94 103/259/95 104/260/96
f 102/261/94 105/262/97 106/263/98 103/264/95
f 105/265/97 107/266/99 108/267/100 106/268/98
f 107/269/99 101/270/93 104/271/96 108/272/100
f 103/273/95 106/274/98 108/275/100 104/276/96
f 109/277/101 110/278/102 111/279/103 112/280/104
f 112/281/104 111/282/103 113/283/105 114/284/106
f 114/285/106 113/286/105 115/287/107 116/288/108
f 116/289/108 115/290/107 110/291/102 109/292/101
f 110/293/102 115/294/107 113/295/105 111/296/103
f 117/297/109 118/298/110 119/299/111 120/300/112
f 118/298/110 121/301/113 122/302/114 119/299/111
f 121/301/113 123/303/115 124/304/116 122/302/114
f 123/303/115 125/305/117 126/306/118 124/304/116
f 125/307/117 127/308/119 128/309/120 126/310/118
f 127/308/119 129/311/121 130/312/122 128/309/120
f 129/311/121 131/313/123 132/314/124 130/312/122
f 131/313/123 133/297/125 134/300/126 132/314/124
f 133/297/125 135/298/127 136/299/128 134/300/126
f 135/298/127 137/301/129 138/302/130 136/299/128
f 137/301/129 139/303/131 140/304/132 138/302/130
f 139/303/131 141/305/133 142/306/134 140/304/132
f 141/307/133 143/308/135 144/309/136 142/310/134
f 143/308/135 145/311/137 146/312/138 144/309/136
f 145/311/137 147/313/139 148/314/140 146/312/138
f 147/313/139 117/297/109 120/300/112 148/314/140
f 148/315/140 120/316/112 119/317/111 122/318/114 124/319/116 126/320/118 128/321/120 130/322/122 132/323/124 134/324/126 136/325/128 138/326/130 140/327/132 142/328/134 144/329/136 146/330/138
f 149/331/141 150/332/142 151/333/143 152/334/144
f 153/335/129 154/336/137 150/337/142 149/338/141
f 154/339/137 155/340/113 151/341/143 150/342/142
f 155/343/113 156/344/121 152/345/144 151/346/143
f 156/347/121 153/348/129 149/349/141 152/350/144
f 157/351/142 158/352/143 159/353/144 160/354/141
f 161/355/137 162/356/113 158/357/143 157/358/142
f 162/359/113 163/360/121 159/361/144 158/362/143
f 163/363/121 164/364/129 160/365/141 159/366/144
f 164/367/129 161/368/137 157/369/142 160/370/141
f 165/371/141 166/372/142 167/373/143 168/374/144
f 169/375/129 170/376/137 166/377/142 165/378/141
f 170/379/137 171/380/113 167/381/143 166/382/142
f 171/383/113 172/384/121 168/385/144 167/386/143
f 172/387/121 169/388/129 165/389/141 168/390/144
f 173/391/109 174/392/110 175/393/111 176/394/112
f 174/392/110 177/395/113 178/396/114 175/393/111
f 177/395/113 179/397/115 180/398/116 178/396/114
f 179/397/115 181/399/117 182/400/118 180/398/116
f 181/401/117 183/402/119 184/403/120 182/404/118
f 183/402/119 185/405/121 186/406/122 184/403/120
f 185/405/121 187/407/123 188/408/124 186/406/122
f 187/407/123 189/409/125 190/410/126 188/408/124
f 189/409/125 191/411/127 192/412/128 190/410/126
f 191/411/127 193/413/129 194/414/130 192/412/128
f 193/413/129 195/415/131 196/416/132 194/414/130
f 195/415/131 197/417/133 198/418/134 196/416/132
f 197/417/133 199/419/135 200/420/136 198/418/134
f 199/419/135 201/421/137 202/422/138 200/420/136
f 201/421/137 203/423/139 204/424/140 202/422/138
f 203/423/139 173/391/109 176/394/112 204/424/140
f 176/425/112 175/426/111 205/427/145 206/428/146
f 175/426/111 178/429/114 207/430/147 205/427/145
f 178/429/114 180/431/116 208/432/148 207/430/147
f 180/431/116 182/433/118 209/434/149 208/432/148
f 182/435/118 184/436/120 210/437/150 209/438/149
f 184/436/120 186/439/122 211/440/151 210/437/150
f 186/439/122 188/441/124 212/442/152 211/440/151
f 188/441/124 190/443/126 213/444/153 212/442/152
f 190/443/126 192/445/128 214/446/154 213/444/153
f 192/445/128 194/447/130 215/448/155 214/446/154
f 194/447/130 196/449/132 216/450/156 215/448/155
f 196/449/132 198/451/134 217/452/157 216/450/156
f 198/451/134 200/453/136 218/454/158 217/452/157
f 200/453/136 202/455/138 219/456/159 218/454/158
f 202/455/138 204/457/140 220/458/160 219/456/159
f 204/457/140 176/425/112 206/428/146 220/458/160
f 206/404/146 205/403/145 221/402/127 222/401/125
f 205/403/145 207/406/147 223/405/129 221/402/127
f 207/406/147 208/408/148 224/407/131 223/405/129
f 208/408/148 209/410/149 225/409/133 224/407/131
f 209/410/149 210/412/150 226/411/135 225/409/133
f 210/412/150 211/414/151 227/413/137 226/411/135
f 211/414/151 212/416/152 228/415/139 227/413/137
f 212/416/152 213/418/153 229/417/109 228/415/139
f 213/418/153 214/420/154 230/419/110 229/417/109
f 214/420/154 215/422/155 231/421/113 230/419/110
f 215/422/155 216/424/156 232/423/115 231/421/113
f 216/424/156 217/394/157 233/391/117 232/423/115
f 217/394/157 218/393/158 234/392/119 233/391/117
f 218/393/158 219/396/159 235/395/121 234/392/119
f 219/396/159 220/398/160 236/397/123 235/395/121
f 220/398/160 206/400/146 222/399/125 236/397/123
f 237/459/109 238/460/113 239/461/161 240/462/109
f 238/463/113 241/464/70 242/465/162 239/466/161
f 241/464/70 243/467/163 244/468/164 242/465/162
f 243/467/163 245/459/125 246/462/125 244/468/164
f 245/459/125 247/460/165 248/461/166 246/462/125
f 247/463/165 249/464/63 250/465/167 248/466/166
f 249/464/63 251/467/137 252/468/168 250/465/167
f 251/467/137 237/459/109 240/462/109 252/468/168
f 253/469/109 254/470/113 255/471/161 256/472/109
f 254/473/113 257/474/70 258/475/162 255/476/161
f 257/474/70 259/477/121 260/478/169 258/475/162
f 259/477/121 261/469/125 262/472/125 260/478/169
f 261/469/125 263/470/129 264/471/170 262/472/125
f 263/473/129 265/474/63 266/475/167 264/476/170
f 265/474/63 267/477/137 268/478/168 266/475/167
f 267/477/137 253/469/109 256/472/109 268/478/168
o well_lever
v 0.093460 1.644952 0.657874
v 0.000091 1.683626 0.657874
v -0.093278 1.644952 0.657874
v -0.131952 1.551585 0.657874
v -0.093278 1.458216 0.657874
v 0.000091 1.419542 0.657874
v 0.093460 1.458216 0.657874
v 0.132135 1.551585 0.657874
v 0.093460 1.458216 -0.768182
v 0.132135 1.551585 -0.768182
v 0.000091 1.419542 -0.768182
v -0.093278 1.458216 -0.768182
v -0.131952 1.551585 -0.768182
v -0.093278 1.644952 -0.768182
v 0.000091 1.683626 -0.768182
v 0.093460 1.644952 -0.768182
v 0.010872 1.570893 0.913898
v -0.005160 1.573005 0.916195
v -0.005232 1.572881 1.024992
v 0.010791 1.570756 1.025483
v -0.017990 1.563160 0.910837
v -0.018036 1.563080 1.023812
v -0.020099 1.547129 0.909976
v -0.020123 1.547089 1.022631
v -0.010255 1.534301 0.914070
v -0.010271 1.534277 1.022140
v 0.005774 1.532189 0.916005
v 0.005753 1.532149 1.022631
v 0.018605 1.542034 0.910743
v 0.018556 1.541953 1.023812
v 0.020714 1.558065 0.909823
v 0.020644 1.557945 1.024992
v -0.018178 1.550459 1.062180
v -0.003941 1.545240 1.067796
v -0.026673 1.548119 1.048622
v -0.024451 1.539590 1.035065
v -0.012814 1.529871 1.029449
v 0.001422 1.524653 1.035065
v 0.009919 1.526992 1.048622
v 0.007698 1.535519 1.062180
v -0.132803 1.351923 1.103720
v -0.118566 1.346704 1.109335
v -0.141297 1.349583 1.090162
v -0.139076 1.341056 1.076604
v -0.127439 1.331335 1.070989
v -0.113203 1.326117 1.076604
v -0.104705 1.328456 1.090162
v -0.106927 1.336983 1.103720
v -0.148010 1.340670 1.286946
v -0.160337 1.331698 1.286946
v -0.161944 1.316538 1.286946
v -0.151893 1.304070 1.286946
v -0.136068 1.301599 1.286946
v -0.123745 1.310571 1.286946
v -0.122137 1.325730 1.286946
v -0.132188 1.338199 1.286946
v -0.134388 1.349175 1.107103
v -0.148322 1.325043 1.096322
v -0.146715 1.340203 1.101713
v -0.122446 1.310104 1.096322
v -0.138268 1.312578 1.094090
v -0.108513 1.334239 1.107103
v -0.110120 1.319076 1.101713
v 0.018398 1.562143 0.657598
v 0.000102 1.572707 0.657598
v 0.000086 1.572707 0.707184
v 0.018398 1.562143 0.714904
v -0.018197 1.562143 0.657598
v -0.018197 1.562143 0.714904
v -0.018197 1.541017 0.657598
v -0.018197 1.541017 0.714904
v 0.000102 1.530453 0.657598
v 0.000086 1.530453 0.707184
v 0.018398 1.541017 0.657598
v 0.018398 1.541017 0.714904
v 0.018374 1.562143 -0.826942
v 0.000078 1.572707 -0.819408
v 0.000078 1.572707 -0.768177
v 0.018374 1.562143 -0.768177
v -0.018218 1.562143 -0.826958
v -0.018218 1.562143 -0.768177
v -0.018218 1.541017 -0.826948
v -0.018218 1.541017 -0.768177
v 0.000078 1.530453 -0.819408
v 0.000078 1.530453 -0.768177
v 0.018374 1.541017 -0.826899
v 0.018374 1.541017 -0.768177
vn 0.5490 0.5490 0.6303
vn -0.0000 0.7764 0.6303
vn -0.5490 0.5490 0.6303
vn -0.7764 -0.0000 0.6303
vn -0.5490 -0.5490 0.6303
vn -0.0000 -0.7764 0.6303
vn 0.5490 -0.5490 0.6303
vn 0.7764 -0.0000 0.6303
vn 0.5490 -0.5490 -0.6303
vn 0.7764 -0.0000 -0.6303
vn -0.0000 -0.7764 -0.6303
vn -0.5490 -0.5490 -0.6303
vn -0.7764 -0.0000 -0.6303
vn -0.5490 0.5490 -0.6303
vn -0.0000 0.7764 -0.6303
vn 0.5490 0.5490 -0.6303
vn 0.5425 0.8400 0.0015
vn -0.2785 0.9604 0.0009
vn -0.2216 0.9481 0.2279
vn 0.4792 0.8298 0.2860
vn -0.8916 0.4529 -0.0000
vn -0.8284 0.5585 0.0418
vn -0.9729 -0.2311 -0.0003
vn -0.9600 -0.1868 -0.2085
vn -0.5396 -0.8419 -0.0003
vn -0.4742 -0.8214 -0.3169
vn 0.2806 -0.9598 -0.0003
vn 0.3183 -0.9248 -0.2085
vn 0.8916 -0.4529 0.0001
vn 0.8979 -0.4381 0.0417
vn 0.9727 0.2319 0.0008
vn 0.9321 0.2816 0.2279
vn -0.3677 0.6848 0.6291
vn 0.2654 0.4598 0.8474
vn -0.8290 0.5544 0.0733
vn -0.8334 0.0647 -0.5489
vn -0.2764 -0.4787 -0.8333
vn 0.4727 -0.6894 -0.5489
vn 0.8946 -0.4407 0.0733
vn 0.7769 0.0240 0.6292
vn -0.4872 0.6502 0.5829
vn -0.1217 -0.2610 0.9576
vn -0.8844 0.4620 -0.0656
vn -0.7584 0.0267 -0.6513
vn -0.2371 -0.4106 -0.8805
vn 0.4023 -0.6434 -0.6513
vn 0.8423 -0.5350 -0.0657
vn 0.8068 -0.0968 0.5829
vn -0.1958 0.7428 0.6402
vn -0.6937 0.3827 0.6102
vn -0.7664 -0.2302 0.5997
vn -0.4036 -0.6851 0.6064
vn 0.1697 -0.7662 0.6197
vn 0.6571 -0.3971 0.6408
vn 0.7200 0.2074 0.6622
vn 0.3675 0.6515 0.6637
vn 0.8991 -0.4378 -0.0000
vn 0.8990 0.4380 -0.0000
vn 0.8660 0.5000 -0.0000
vn 0.8660 -0.5000 -0.0000
vn -0.9153 -0.2547 -0.3119
vn -0.8959 0.4407 -0.0567
vn -0.3403 0.9053 0.2542
vn 0.2395 -0.9271 -0.2882
vn -0.4547 -0.7965 -0.3985
vn 0.9486 0.1399 0.2839
vn 0.8228 -0.5680 -0.0175
vn 0.6781 0.2172 -0.7021
vn 0.8660 0.5001 -0.0000
vn -0.0001 1.0000 -0.0000
vn -0.0003 1.0000 -0.0000
vn 0.8998 0.4362 -0.0000
vn -0.8661 0.4999 -0.0000
vn -0.8999 0.4360 -0.0000
vn -0.8661 -0.4999 -0.0000
vn -0.8999 -0.4360 -0.0000
vn -0.0001 -1.0000 -0.0000
vn -0.0003 -1.0000 -0.0000
vn 0.8660 -0.5001 -0.0000
vn 0.8998 -0.4362 -0.0000
vn -0.0000 1.0000 -0.0000
vn -0.8991 0.4376 -0.0000
vn -0.8660 0.5000 -0.0000
vn -0.8992 -0.4376 -0.0000
vn -0.8660 -0.5000 -0.0000
vn -0.0000 -1.0000 -0.0000
vt 0.010200 0.508900
vt 0.009700 0.450100
vt 0.046700 0.408300
vt 0.099400 0.407700
vt 0.137000 0.448900
vt 0.137500 0.507700
vt 0.100500 0.549600
vt 0.047800 0.550100
vt 0.117600 0.563200
vt 0.175200 0.563200
vt 0.175200 0.997200
vt 0.117600 0.997200
vt 0.232700 0.563200
vt 0.232700 0.997200
vt 0.002600 0.563200
vt 0.060100 0.563200
vt 0.060100 0.997200
vt 0.002600 0.997200
vt 0.943400 0.998400
vt 0.925200 0.998400
vt 0.925200 0.863600
vt 0.943400 0.863600
vt 0.997800 0.998400
vt 0.979700 0.998400
vt 0.979700 0.863600
vt 0.997800 0.863600
vt 0.961500 0.998400
vt 0.961500 0.863600
vt 0.943400 0.816000
vt 0.961500 0.816000
vt 0.979700 0.816000
vt 0.997800 0.816000
vt 0.925200 0.816000
vt 0.997800 0.563200
vt 0.979700 0.563200
vt 0.961500 0.563200
vt 0.943400 0.563200
vt 0.925200 0.563200
vt 0.974500 0.764700
vt 0.951200 0.765400
vt 0.934900 0.749700
vt 0.935300 0.726800
vt 0.952100 0.710100
vt 0.975500 0.709300
vt 0.991700 0.725000
vt 0.991300 0.748000
vt 0.973400 0.889800
vt 0.984900 0.889800
vt 0.984900 0.996300
vt 0.973400 0.996300
vt 0.944400 0.981200
vt 0.962500 0.981200
vt 0.962500 0.998400
vt 0.944400 0.998400
vt 0.980500 0.981200
vt 0.980500 0.998400
vt 0.926400 0.981200
vt 0.926400 0.998400
vt 0.998500 0.981200
vt 0.962500 0.617500
vt 0.980500 0.617500
vt 0.944400 0.617500
vt 0.926400 0.617500
vt 0.998500 0.617500
vt 0.985700 0.908200
vt 0.996900 0.908200
vt 0.996900 0.994100
vt 0.985700 0.994100
vt 0.929400 0.908200
vt 0.940700 0.908200
vt 0.940700 0.994100
vt 0.929400 0.994100
vt 0.951900 0.908200
vt 0.951900 0.994100
vt 0.963200 0.908200
vt 0.963200 0.994100
vt 0.974400 0.908200
vt 0.974400 0.994100
vt 0.996500 0.889800
vt 0.996500 0.996300
vt 0.927300 0.889800
vt 0.938800 0.889800
vt 0.938800 0.996300
vt 0.927300 0.996300
vt 0.950400 0.889800
vt 0.950400 0.996300
vt 0.961900 0.889800
vt 0.961900 0.996300
vt 0.998600 0.981200
s 1
usemtl mat_village_well
f 269/479/171 270/480/172 271/481/173 272/482/174 273/483/175 274/484/176 275/485/177 276/486/178
f 276/487/178 275/488/177 277/489/179 278/490/180
f 275/488/177 274/491/176 279/492/181 277/489/179
f 274/493/176 273/494/175 280/495/182 279/496/181
f 273/494/175 272/487/174 281/490/183 280/495/182
f 272/487/174 271/488/173 282/489/184 281/490/183
f 271/488/173 270/491/172 283/492/185 282/489/184
f 270/493/172 269/494/171 284/495/186 283/496/185
f 269/494/171 276/487/178 278/490/180 284/495/186
f 284/483/186 278/484/180 277/485/179 279/486/181 280/479/182 281/480/183 282/481/184 283/482/185
f 285/497/187 286/498/188 287/499/189 288/500/190
f 286/501/188 289/502/191 290/503/192 287/504/189
f 289/502/191 291/505/193 292/506/194 290/503/192
f 291/505/193 293/497/195 294/500/196 292/506/194
f 293/497/195 295/498/197 296/499/198 294/500/196
f 295/501/197 297/502/199 298/503/200 296/504/198
f 297/502/199 299/505/201 300/506/202 298/503/200
f 299/505/201 285/497/187 288/500/190 300/506/202
f 288/507/190 287/508/189 301/506/203 302/500/204
f 287/504/189 290/503/192 303/509/205 301/510/203
f 290/503/192 292/506/194 304/508/206 303/509/205
f 292/506/194 294/500/196 305/507/207 304/508/206
f 294/500/196 296/499/198 306/511/208 305/507/207
f 296/508/198 298/509/200 307/503/209 306/506/208
f 298/509/200 300/510/202 308/504/210 307/503/209
f 300/511/202 288/507/190 302/500/204 308/499/210
f 302/509/204 301/510/203 309/512/211 310/513/212
f 301/510/203 303/509/205 311/513/213 309/512/211
f 303/509/205 304/508/206 312/514/214 311/513/213
f 304/508/206 305/507/207 313/515/215 312/514/214
f 305/507/207 306/511/208 314/516/216 313/515/215
f 306/511/208 307/507/209 315/515/217 314/516/216
f 307/507/209 308/508/210 316/514/218 315/515/217
f 308/508/210 302/509/204 310/513/212 316/514/218
f 317/517/219 318/518/220 319/519/221 320/520/222 321/521/223 322/522/224 323/523/225 324/524/226
f 354/525/227 344/526/228 347/527/229 355/528/230
f 326/529/231 327/530/232 311/531/213 312/532/214
f 311/531/213 327/530/232 325/533/233 309/534/211
f 328/529/234 329/535/235 313/536/215 314/532/216
f 330/534/236 331/531/237 315/530/217 316/533/218
f 309/534/211 325/533/233 310/537/238
f 313/536/215 329/535/235 326/529/231 312/532/214
f 315/530/217 331/531/237 328/532/234 314/529/216
f 325/533/233 327/530/232 318/538/220 317/539/219
f 327/530/232 326/529/231 319/540/221 318/538/220
f 326/529/231 329/535/235 320/541/222 319/540/221
f 329/540/235 328/541/234 321/535/223 320/529/222
f 328/529/234 331/530/237 322/538/224 321/540/223
f 331/530/237 330/533/236 323/539/225 322/538/224
f 330/533/236 310/537/238 324/542/226 323/539/225
f 310/537/238 325/533/233 317/539/219 324/542/226
f 332/543/239 333/544/240 334/545/241 335/546/242
f 333/547/240 336/548/243 337/549/244 334/550/241
f 336/548/243 338/551/245 339/552/246 337/549/244
f 338/551/245 340/553/247 341/554/248 339/552/246
f 340/553/247 342/555/249 343/556/250 341/554/248
f 342/555/249 332/543/239 335/546/242 343/556/250
f 344/526/228 345/557/240 346/558/251 347/527/229
f 345/559/240 348/560/252 349/561/253 346/562/251
f 348/560/252 350/563/254 351/564/255 349/561/253
f 350/563/254 352/565/248 353/566/256 351/564/255
f 352/565/248 354/525/227 355/528/230 353/566/256
f 316/533/218 310/567/212 330/534/236
