# Blender 4.4.1
# www.blender.org
mtllib castle_wall.mtl
o castle_wall
v 0.234371 0.470099 1.249992
v 0.234380 0.470092 -0.937494
v -0.234371 0.470091 -1.249999
v -0.234372 0.470099 1.249995
v 0.234371 0.470099 1.249992
v 0.312505 0.470092 -0.936409
v 0.312507 0.470091 -1.249993
v 0.234371 0.626348 1.249992
v 0.234381 0.626341 -0.937494
v 0.234380 0.470092 -0.937494
v 0.234371 0.470099 1.249992
v 0.312496 0.626348 1.249993
v 0.312505 0.626341 -0.937476
v 0.234381 0.626341 -0.937494
v 0.234371 0.626348 1.249992
v 0.312496 0.470099 1.249993
v 0.312505 0.470092 -0.936409
v 0.312505 0.626341 -0.937476
v 0.312496 0.626348 1.249993
v 0.312496 0.002692 1.249996
v 0.312507 0.002693 -1.249991
v 0.312507 0.470091 -1.249993
v -0.234372 0.470099 1.249995
v -0.234372 0.626346 0.624996
v -0.234372 0.626347 0.781246
v -0.234372 0.626348 1.249995
v -0.312496 0.470091 -1.249999
v -0.312499 0.626343 -0.625002
v -0.312497 0.626341 -1.093751
v -0.312496 0.626341 -1.250000
v -0.234372 0.782593 -0.000003
v -0.234371 0.782592 -0.468752
v -0.312499 0.782592 -0.468753
v -0.312501 0.782593 -0.000005
v -0.312505 0.782596 0.781244
v -0.312506 0.782598 1.249992
v -0.234372 0.782597 1.249994
v -0.234372 0.782596 0.781246
v -0.312505 0.626347 0.781244
v -0.234372 0.626347 0.781246
v -0.234372 0.626346 0.624996
v -0.312504 0.626346 0.624994
v -0.312502 0.782594 0.156246
v -0.312504 0.782595 0.624994
v -0.234372 0.782595 0.624995
v -0.234372 0.782594 0.156247
v -0.312502 0.626345 0.156246
v -0.234372 0.626345 0.156247
v -0.234372 0.626344 -0.000002
v -0.312502 0.626344 -0.000004
v -0.234372 0.626341 -1.249999
v -0.312496 0.626341 -1.250000
v -0.312497 0.626341 -1.093751
v -0.234372 0.626341 -1.093750
v -0.234371 0.782592 -0.625001
v -0.234371 0.782590 -1.093751
v -0.312497 0.782590 -1.093751
v -0.312499 0.782592 -0.625002
v -0.234372 0.626342 -0.625001
v -0.312499 0.626343 -0.625002
v -0.312499 0.626343 -0.468753
v -0.234372 0.626343 -0.468751
v -0.234372 0.626344 -0.000002
v -0.234372 0.626343 -0.468751
v -0.234371 0.782592 -0.468752
v -0.234372 0.782593 -0.000003
v -0.234372 0.626343 -0.468751
v -0.312499 0.626343 -0.468753
v -0.312499 0.782592 -0.468753
v -0.234371 0.782592 -0.468752
v -0.312499 0.626343 -0.468753
v -0.312502 0.626344 -0.000004
v -0.312501 0.782593 -0.000005
v -0.312499 0.782592 -0.468753
v -0.312502 0.626344 -0.000004
v -0.234372 0.626344 -0.000002
v -0.234372 0.782593 -0.000003
v -0.312501 0.782593 -0.000005
v -0.312505 0.626347 0.781244
v -0.312507 0.626348 1.249993
v -0.312506 0.782598 1.249992
v -0.312505 0.782596 0.781244
v -0.312507 0.626348 1.249993
v -0.234372 0.626348 1.249995
v -0.234372 0.782597 1.249994
v -0.312506 0.782598 1.249992
v -0.234372 0.782596 0.781246
v -0.234372 0.782597 1.249994
v -0.234372 0.626347 0.781246
v -0.312505 0.626347 0.781244
v -0.312505 0.782596 0.781244
v -0.234372 0.782596 0.781246
v -0.234372 0.626345 0.156247
v -0.234372 0.782594 0.156247
v -0.234372 0.782595 0.624995
v -0.234372 0.626345 0.156247
v -0.312502 0.626345 0.156246
v -0.312502 0.782594 0.156246
v -0.234372 0.782594 0.156247
v -0.312502 0.626345 0.156246
v -0.312504 0.626346 0.624994
v -0.312504 0.782595 0.624994
v -0.312502 0.782594 0.156246
v -0.312504 0.626346 0.624994
v -0.234372 0.626346 0.624996
v -0.234372 0.782595 0.624995
v -0.312504 0.782595 0.624994
v -0.234372 0.626342 -0.625001
v -0.234372 0.626341 -1.093750
v -0.234371 0.782590 -1.093751
v -0.234371 0.782592 -0.625001
v -0.234372 0.626341 -1.093750
v -0.312497 0.626341 -1.093751
v -0.312497 0.782590 -1.093751
v -0.234371 0.782590 -1.093751
v -0.312499 0.782592 -0.625002
v -0.312497 0.782590 -1.093751
v -0.312499 0.626343 -0.625002
v -0.234372 0.626342 -0.625001
v -0.234371 0.782592 -0.625001
v -0.312499 0.782592 -0.625002
v 0.234381 0.626341 -0.937494
v 0.312505 0.626341 -0.937476
v 0.312505 0.470092 -0.936409
v 0.234380 0.470092 -0.937494
v -0.234371 0.470091 -1.249999
v -0.234372 0.626341 -1.249999
v -0.312507 0.470099 1.249994
v -0.312496 0.002693 -1.249998
v -0.312506 0.002693 1.249997
v -0.312506 0.002693 1.249997
v -0.312496 0.002693 -1.249998
v -0.312496 -0.782598 -1.249994
v -0.312507 -0.782590 1.250000
v 0.312496 -0.782590 1.249999
v 0.312507 -0.782598 -1.249988
v 0.312507 0.002693 -1.249991
v 0.312496 0.002692 1.249996
vn -0.0000 1.0000 -0.0000
vn -1.0000 -0.0000 -0.0000
vn 1.0000 -0.0000 -0.0000
vn -0.0000 -0.0000 -1.0000
vn -0.0000 -0.0000 1.0000
vn 0.0002 -0.0068 -1.0000
vn 0.0139 -0.0000 -0.9999
vn 0.9956 0.0937 -0.0000
vt 0.125000 2.500000
vt 0.125000 -1.000000
vt 0.875000 -1.500000
vt 0.875000 2.500000
vt 0.000000 -0.998300
vt 0.000000 -1.500000
vt 2.500000 1.502200
vt -1.000000 1.502200
vt -1.000000 1.252200
vt 2.500000 1.252200
vt 0.000000 2.500000
vt 0.000000 -1.000000
vt -1.500000 1.252200
vt 1.998300 1.252200
vt 2.000000 1.502200
vt -1.500000 1.502200
vt -1.500000 0.506100
vt 2.500000 0.506100
vt 2.500000 1.252100
vt -0.500000 1.502200
vt -0.750000 1.502200
vt -1.500000 1.252100
vt -1.250000 1.502100
vt -1.500000 1.502100
vt 0.875000 0.500000
vt 0.875000 -0.250000
vt 1.000000 -0.250000
vt 1.000000 0.500000
vt 1.000000 1.750000
vt 1.000000 2.500000
vt 0.875000 1.750000
vt 0.875000 1.500000
vt 1.000000 1.500000
vt 1.000000 0.750000
vt 0.875000 0.750000
vt 1.000000 -1.500000
vt 1.000000 -1.250000
vt 0.875000 -1.250000
vt 0.875000 -0.500000
vt 1.000000 -0.500000
vt 0.500000 1.502200
vt 1.250000 1.502200
vt 1.250000 1.752200
vt 0.500000 1.752200
vt 0.875000 1.502200
vt 1.000000 1.502200
vt 1.000000 1.752200
vt 0.875000 1.752200
vt -0.250000 1.502200
vt -0.250000 1.752200
vt 0.000000 1.502200
vt 0.125000 1.502200
vt 0.125000 1.752200
vt 0.000000 1.752200
vt 1.750000 1.502200
vt 2.500000 1.752200
vt 1.750000 1.752200
vt -0.750000 1.752200
vt -1.500000 1.752200
vt 0.250000 1.502200
vt 0.250000 1.752200
vt -0.500000 1.752200
vt 0.750000 1.502200
vt 1.500000 1.502200
vt 1.500000 1.752200
vt 0.750000 1.752200
vt 2.250000 1.502100
vt 2.250000 1.752100
vt 0.875000 1.502100
vt 1.000000 1.502100
vt 1.000000 1.752100
vt 0.875000 1.752100
vt -1.250000 1.752100
vt 0.000000 1.252200
vt 0.125000 1.252200
vt 2.500000 1.502100
vt 2.500000 1.002600
vt -1.500000 1.002600
vt -1.500000 0.092100
vt 2.500000 0.092100
vt 0.834356 0.988203
vt 0.119847 0.985868
vt 0.119848 0.090086
vt 0.834355 0.086831
vt 0.844997 0.902865
vt 0.748805 0.902865
vt 0.748804 0.710479
vt 0.844997 0.134987
vt 0.075450 0.134987
vt 0.075450 0.710479
vt 0.145598 0.742119
vt 0.145598 0.962885
vt 0.035201 0.962885
vt 0.035201 0.742119
vt 0.035202 0.081717
vt 0.918273 0.962885
vt 0.807889 0.962885
vt 0.807889 0.742119
vt 0.918273 0.081716
vt 0.150423 1.005343
vt 0.150421 0.083876
vt 0.883812 0.083876
vt 0.883812 1.005342
s 0
usemtl mat_0-poorlords_battlements_floor.jpg
f 1/1/1 2/2/1 3/3/1
f 3/3/1 4/4/1 5/1/1
f 2/2/1 6/5/1 7/6/1
f 7/6/1 3/3/1 2/2/1
usemtl mat_1-poorlords_bricks.jpg
f 8/7/2 9/8/2 10/9/2
f 10/9/2 11/10/2 8/7/2
f 12/11/1 13/12/1 14/2/1
f 14/2/1 15/1/1 12/11/1
f 16/13/3 17/14/3 18/15/3
f 18/15/3 19/16/3 16/13/3
f 20/17/3 21/18/3 22/19/3
f 20/17/3 22/19/3 17/14/3
f 16/13/3 20/17/3 17/14/3
f 23/13/3 24/20/3 25/21/3
f 25/21/3 26/16/3 23/13/3
f 27/22/2 28/20/2 29/23/2
f 29/23/2 30/24/2 27/22/2
f 31/25/1 32/26/1 33/27/1
f 33/27/1 34/28/1 31/25/1
f 35/29/1 36/30/1 37/4/1
f 37/4/1 38/31/1 35/29/1
f 39/29/1 40/31/1 41/32/1
f 41/32/1 42/33/1 39/29/1
f 43/34/1 44/33/1 45/32/1
f 45/32/1 46/35/1 43/34/1
f 47/34/1 48/35/1 49/25/1
f 49/25/1 50/28/1 47/34/1
f 51/3/1 52/36/1 53/37/1
f 53/37/1 54/38/1 51/3/1
f 55/39/1 56/38/1 57/37/1
f 57/37/1 58/40/1 55/39/1
f 59/39/1 60/40/1 61/27/1
f 61/27/1 62/26/1 59/39/1
f 63/41/3 64/42/3 65/43/3
f 65/43/3 66/44/3 63/41/3
f 67/45/4 68/46/4 69/47/4
f 69/47/4 70/48/4 67/45/4
f 71/49/2 72/41/2 73/44/2
f 73/44/2 74/50/2 71/49/2
f 75/51/5 76/52/5 77/53/5
f 77/53/5 78/54/5 75/51/5
f 79/55/2 80/7/2 81/56/2
f 81/56/2 82/57/2 79/55/2
f 83/51/5 84/52/5 85/53/5
f 85/53/5 86/54/5 83/51/5
f 26/16/3 25/21/3 87/58/3
f 87/58/3 88/59/3 26/16/3
f 89/45/4 90/46/4 91/47/4
f 91/47/4 92/48/4 89/45/4
f 24/20/3 93/60/3 94/61/3
f 94/61/3 95/62/3 24/20/3
f 96/45/4 97/46/4 98/47/4
f 98/47/4 99/48/4 96/45/4
f 100/63/2 101/64/2 102/65/2
f 102/65/2 103/66/2 100/63/2
f 104/51/5 105/52/5 106/53/5
f 106/53/5 107/54/5 104/51/5
f 108/64/3 109/67/3 110/68/3
f 110/68/3 111/65/3 108/64/3
f 112/69/4 113/70/4 114/71/4
f 114/71/4 115/72/4 112/69/4
f 29/23/2 28/20/2 116/62/2
f 116/62/2 117/73/2 29/23/2
f 118/51/5 119/52/5 120/53/5
f 120/53/5 121/54/5 118/51/5
f 122/52/6 123/51/6 124/74/6
f 124/74/7 125/75/7 122/52/7
f 109/67/3 108/64/3 126/19/3
f 126/19/3 127/76/3 109/67/3
f 108/64/8 64/42/8 63/41/8
f 63/41/3 126/19/3 108/64/3
f 23/13/3 126/19/3 63/41/3
f 63/41/3 93/60/3 23/13/3
f 23/13/3 93/60/3 24/20/3
f 27/22/2 72/41/2 71/49/2
f 71/49/2 28/20/2 27/22/2
f 128/10/2 100/63/2 72/41/2
f 72/41/2 27/22/2 128/10/2
f 128/10/2 79/55/2 101/64/2
f 101/64/2 100/63/2 128/10/2
f 128/10/2 80/7/2 79/55/2
f 128/10/2 27/22/2 129/17/2
f 129/17/2 130/18/2 128/10/2
f 52/85/4 51/86/4 126/87/4 132/88/4
f 21/89/4 132/88/4 126/87/4 22/90/4
f 23/91/5 26/92/5 80/93/5 128/94/5
f 130/95/5 131/95/5 23/91/5 128/94/5
f 12/96/5 15/97/5 11/98/5 138/99/5
f 5/98/5 4/91/5 131/95/5 138/99/5
usemtl mat_2-wall_bottom_moss.jpg
f 131/77/2 132/78/2 133/79/2
f 134/80/2 131/77/2 133/79/2
f 132/81/4 137/82/4 136/83/4 133/84/4
f 131/100/5 134/101/5 135/102/5 138/103/5
usemtl mat_3-wall_bottom_mud.jpg
f 135/79/3 136/80/3 137/77/3
f 137/77/3 138/78/3 135/79/3
