<?xml version="1.0" encoding="UTF-8" standalone="no"?>
<svg
   width="16"
   height="16"
   version="1.1"
   id="svg1"
   xmlns="http://www.w3.org/2000/svg"
   xmlns:svg="http://www.w3.org/2000/svg">
  <defs
     id="defs1" />
  <path
     id="path1"
     style="fill:#8eef97;fill-opacity:1"
     d="M 3,1 C 1.8954305,1 1,1.8954305 1,3 v 10 c 0,1.104569 0.8954305,2 2,2 h 10 c 1.104569,0 2,-0.895431 2,-2 V 3 C 15,1.8954305 14.104569,1 13,1 Z M 2.4882812,7.0127101 H 5.319651 V 9.3138387 H 2.4882812 Z m 4.098152,0 H 9.2375545 V 9.3138387 H 6.5864332 Z m 3.9234488,0 h 3.014874 V 9.3138387 H 10.509882 Z M 2.4882812,10.667048 H 5.319651 v 2.318319 H 2.4882812 Z m 4.098152,0 h 2.6511213 v 2.318319 H 6.5864332 Z m 3.9234488,0 h 3.014874 v 2.318319 H 10.509882 Z M 2.4510562,2.1920671 H 13.640542 V 4.799489 H 2.4510562 Z" />
</svg>
