# Blender 4.0.2
# www.blender.org
mtllib village_house_2.mtl
o village_house_2
v -3.984151 5.075500 -2.755602
v 3.984150 5.075500 -2.755604
v 3.984150 7.312716 0.000000
v -3.984150 7.312716 0.000001
v -3.984151 5.075500 -2.755602
v -3.984150 7.312716 0.000001
v -3.984150 5.075499 2.755605
v -3.984150 5.075499 2.755605
v -3.984150 7.312716 0.000001
v 3.984150 7.312716 0.000000
v 3.984151 5.075499 2.755604
v -3.984033 2.847334 2.505084
v -3.984033 2.847335 -2.505082
v -3.984033 5.084527 -2.505082
v -3.984033 5.084526 2.505084
v -4.250000 2.510998 6.500001
v -4.250000 2.510998 -6.500000
v -4.250000 2.707158 -6.500000
v -4.250000 2.707156 6.500001
v 0.000001 7.337198 6.500001
v -4.250000 2.707156 6.500001
v -4.250000 2.707158 -6.500000
v -0.000001 7.337200 -6.500000
v 4.086187 0.000001 -6.262720
v 4.086188 -0.000001 6.262719
v 4.086188 2.835861 6.262720
v 4.086187 2.835863 -6.262720
v 0.000001 7.310269 6.262721
v 4.086188 2.835861 6.262720
v 4.086188 -0.000001 6.262719
v -4.086187 -0.000001 6.262720
v -4.086187 2.835861 6.262721
v 3.984151 5.075499 2.755604
v 3.984150 7.312716 0.000000
v 3.984150 5.075500 -2.755604
v -4.250000 2.510998 6.500001
v 0.000001 7.141040 6.500000
v -0.000001 7.141042 -6.500000
v -4.250000 2.510998 -6.500000
v -0.153245 7.179372 1.152351
v 0.153245 7.179372 1.152351
v 0.153245 8.000000 1.152351
v -0.153245 8.000000 1.152351
v 3.984033 2.847335 -2.505083
v 3.984033 2.847334 2.505083
v 3.984033 5.084526 2.505083
v 3.984033 5.084527 -2.505082
v 0.153244 7.179372 -2.054180
v 0.153245 7.179372 -1.152350
v 0.153245 8.000000 -1.152350
v 0.153244 8.000000 -2.054181
v 0.153244 8.000000 -2.054181
v 0.153245 8.000000 -1.152350
v -0.153245 8.000000 -1.152350
v -0.153245 8.000000 -2.054181
v 0.153245 7.179372 1.152351
v 0.153245 7.179371 2.054182
v 0.153245 8.000000 2.054181
v 0.153245 8.000000 1.152351
v -0.153244 7.179371 2.054182
v -0.153245 7.179372 1.152351
v -0.153245 8.000000 1.152351
v -0.153244 8.000000 2.054182
v -3.984150 5.075499 2.755605
v 3.984151 5.075499 2.755604
v 3.984150 5.075500 -2.755604
v -3.984151 5.075500 -2.755602
v 0.153245 7.179372 -1.152350
v -0.153245 7.179372 -1.152350
v -0.153245 8.000000 -1.152350
v 0.153245 8.000000 -1.152350
v -0.153245 7.179372 -2.054180
v 0.153244 7.179372 -2.054180
v 0.153244 8.000000 -2.054181
v -0.153245 8.000000 -2.054181
v -0.153245 7.179372 -1.152350
v -0.153245 7.179372 -2.054180
v -0.153245 8.000000 -2.054181
v -0.153245 8.000000 -1.152350
v 0.153245 8.000000 1.152351
v 0.153245 8.000000 2.054181
v -0.153244 8.000000 2.054182
v -0.153245 8.000000 1.152351
v 0.000001 7.141040 6.500000
v 4.250000 2.510998 6.500000
v 4.250000 2.510998 -6.500000
v -0.000001 7.141042 -6.500000
v 4.086187 2.835863 -6.262720
v -0.000001 7.310270 -6.262720
v -4.086188 2.835863 -6.262719
v -4.086188 0.000001 -6.262719
v 4.086187 0.000001 -6.262720
v 4.250000 2.510998 -6.500000
v 4.250000 2.707158 -6.500000
v -0.000001 7.337200 -6.500000
v -4.250000 2.707158 -6.500000
v -4.250000 2.510998 -6.500000
v -0.000001 7.141042 -6.500000
v 3.984033 2.847334 2.505083
v -3.984033 2.847334 2.505084
v -3.984033 5.084526 2.505084
v 3.984033 5.084526 2.505083
v -4.250000 2.510998 6.500001
v -4.250000 2.707156 6.500001
v 0.000001 7.337198 6.500001
v 4.250000 2.707156 6.500000
v 4.250000 2.510998 6.500000
v 0.000001 7.141040 6.500000
v -4.086187 -0.000001 6.262720
v -4.086188 0.000001 -6.262719
v -4.086188 2.835863 -6.262719
v -4.086187 2.835861 6.262721
v 4.250000 2.510998 -6.500000
v 4.250000 2.510998 6.500000
v 4.250000 2.707156 6.500000
v 4.250000 2.707158 -6.500000
v -3.984033 2.847335 -2.505082
v 3.984033 2.847335 -2.505083
v 3.984033 5.084527 -2.505082
v -3.984033 5.084527 -2.505082
v 0.153245 7.179371 2.054182
v -0.153244 7.179371 2.054182
v -0.153244 8.000000 2.054182
v 0.153245 8.000000 2.054181
v 4.250000 2.707156 6.500000
v 0.000001 7.337198 6.500001
v -0.000001 7.337200 -6.500000
v 4.250000 2.707158 -6.500000
vn -0.0000 0.7764 -0.6303
vn -0.0000 0.7763 -0.6303
vn -1.0000 -0.0000 -0.0000
vn -0.0000 0.7763 0.6303
vn -0.7367 0.6762 -0.0000
vn 1.0000 -0.0000 -0.0000
vn -0.0000 -0.0000 1.0000
vn 0.7367 -0.6762 -0.0000
vn -0.0000 -0.0000 -1.0000
vn -0.0000 1.0000 -0.0000
vn -0.0000 -1.0000 -0.0000
vn -0.7367 -0.6762 -0.0000
vn 0.7367 0.6762 -0.0000
vt 0.438404 0.349126
vt 0.000000 0.449132
vt 0.000000 0.349126
vt 0.438404 0.449132
vt 0.742280 1.000000
vt 1.000000 0.732675
vt 0.971820 0.963726
vt 0.438404 0.549226
vt 0.000000 0.449221
vt 0.438404 0.449221
vt 0.000000 0.549226
vt 1.000000 0.346219
vt 0.744179 0.487523
vt 0.744179 0.346219
vt 1.000000 0.487523
vt 0.462969 1.000000
vt 0.453460 0.349443
vt 0.462969 0.349443
vt 0.453460 1.000000
vt 0.219202 1.000000
vt 0.438404 0.549114
vt 0.438404 1.000000
vt 0.219202 0.549114
vt 1.000000 0.000000
vt 0.000000 0.343893
vt 0.000000 0.000001
vt 1.000000 0.343892
vt 0.732972 0.956280
vt 1.000000 0.488884
vt 1.000000 0.670200
vt 0.465944 0.488884
vt 0.465944 0.670200
vt 0.500611 0.850027
vt 0.521308 0.807454
vt 0.521308 0.850027
vt 0.500611 0.807454
vt 0.464560 0.854086
vt 0.492285 0.789062
vt 0.492285 0.854086
vt 0.464560 0.789062
vt 1.000000 0.346218
vt 0.744179 0.346218
vt 0.518894 1.000000
vt 0.463843 0.927481
vt 0.518894 0.927481
vt 0.463843 1.000000
vt 0.511299 0.830217
vt 0.510620 0.827264
vt 0.511299 0.827264
vt 0.510620 0.830217
vt 0.463959 0.854947
vt 0.519009 0.927466
vt 0.463959 0.927466
vt 0.519009 0.854947
vt 0.574059 0.927466
vt 0.574059 0.854947
vt 0.519788 0.819716
vt 0.502131 0.837764
vt 0.502131 0.819716
vt 0.519788 0.837764
vt 0.629393 0.992505
vt 0.657117 0.927481
vt 0.657117 0.992505
vt 0.629393 0.927481
vt 0.601668 0.992505
vt 0.601668 0.927481
vt 0.573944 1.000000
vt 0.573944 0.927481
vt 0.466172 0.683650
vt 0.732972 0.978617
vt 0.466172 0.695639
vt 0.999772 0.695639
vt 0.732972 0.966628
vt 0.999772 0.683650
vt 0.466135 0.487644
vt 0.744112 0.346253
vt 0.744112 0.487644
vt 0.466135 0.346253
vt 0.466172 0.705033
vt 0.732972 1.000000
vt 0.466172 0.717022
vt 0.999772 0.717022
vt 0.732972 0.988011
vt 0.999772 0.705033
vt 0.000000 0.343892
vt 0.000000 0.000000
vt 0.450885 1.000000
vt 0.441375 0.349443
vt 0.450884 0.349443
vt 0.441375 1.000000
vt 0.573944 0.992505
vt 0.000000 1.000000
vt 0.000000 0.549114
s 1
usemtl dom21.dds-0
f 1/1/1 3/2/1 2/3/2
f 3/2/1 1/1/1 4/4/1
f 5/5/3 7/6/3 6/7/3
f 8/8/4 10/9/4 9/10/4
f 10/9/4 8/8/4 11/11/4
f 12/12/3 14/13/3 13/14/3
f 14/13/3 12/12/3 15/15/3
f 16/16/3 18/17/3 17/18/3
f 18/17/3 16/16/3 19/19/3
f 20/20/5 22/21/5 21/22/5
f 22/21/5 20/20/5 23/23/5
f 24/24/6 26/25/6 25/26/6
f 26/25/6 24/24/6 27/27/6
f 28/28/7 30/29/7 29/30/7
f 31/31/7 28/28/7 32/32/7
f 30/29/7 28/28/7 31/31/7
f 33/5/6 35/6/6 34/7/6
f 36/33/8 38/34/8 37/35/8
f 38/34/8 36/33/8 39/36/8
f 40/37/9 42/38/9 41/39/9
f 42/38/9 40/37/9 43/40/9
f 44/41/6 46/13/6 45/42/6
f 46/13/6 44/41/6 47/15/6
f 48/43/6 50/44/6 49/45/6
f 50/44/6 48/43/6 51/46/6
f 52/47/10 54/48/10 53/49/10
f 54/48/10 52/47/10 55/50/10
f 56/51/6 58/52/6 57/53/6
f 58/52/6 56/51/6 59/54/6
f 60/55/3 62/54/3 61/56/3
f 62/54/3 60/55/3 63/52/3
f 64/57/11 66/58/11 65/59/11
f 66/58/11 64/57/11 67/60/11
f 68/61/7 70/62/7 69/63/7
f 70/62/7 68/61/7 71/64/7
f 72/65/9 74/64/9 73/61/9
f 74/64/9 72/65/9 75/66/9
f 76/67/3 78/45/3 77/68/3
f 78/45/3 76/67/3 79/43/3
f 80/47/10 82/48/10 81/49/10
f 82/48/10 80/47/10 83/50/10
f 84/33/12 86/34/12 85/35/12
f 86/34/12 84/33/12 87/36/12
f 88/32/9 90/30/9 89/28/9
f 91/29/9 88/32/9 92/31/9
f 90/30/9 88/32/9 91/29/9
f 93/69/9 95/70/9 94/71/9
f 96/72/9 98/73/9 97/74/9
f 98/73/9 95/70/9 93/69/9
f 96/72/9 95/70/9 98/73/9
f 99/75/7 101/76/7 100/77/7
f 101/76/7 99/75/7 102/78/7
f 103/79/7 105/80/7 104/81/7
f 106/82/7 108/83/7 107/84/7
f 108/83/7 105/80/7 103/79/7
f 106/82/7 105/80/7 108/83/7
f 109/24/3 111/85/3 110/86/3
f 111/85/3 109/24/3 112/27/3
f 113/87/6 115/88/6 114/89/6
f 115/88/6 113/87/6 116/90/6
f 117/75/9 119/76/9 118/77/9
f 119/76/9 117/75/9 120/78/9
f 121/91/7 123/66/7 122/65/7
f 123/66/7 121/91/7 124/68/7
f 125/92/13 127/23/13 126/20/13
f 127/23/13 125/92/13 128/93/13
