# Blender 4.4.1
# www.blender.org
mtllib city_house_3.mtl
o houseF_mesh
v 4.192755 0.000014 5.999988
v -3.807014 0.000003 5.999989
v -3.807015 3.500009 5.999989
v 4.192754 3.500010 5.999988
v -4.007020 3.500009 6.199982
v 4.392749 3.500010 6.199981
v -4.421271 5.702704 6.699991
v 4.807000 5.702706 6.699991
v -4.348168 5.634471 6.699991
v 4.733897 5.634473 6.699991
v -4.007020 5.999994 6.199981
v 4.392748 5.999996 6.199981
v 0.119760 10.618212 4.452467
v 0.265965 10.618212 4.452467
v 0.265965 10.568215 4.502473
v 1.845481 8.729280 6.199979
v 2.316934 8.370698 6.699991
v -1.931207 8.370698 6.699992
v 2.312136 8.229281 6.699991
v -1.459756 8.729280 6.199981
v -1.926409 8.229280 6.699992
v 0.192863 10.649981 4.420707
v 0.119760 10.568215 4.502473
v 4.192755 0.000003 -5.999988
v -3.807015 0.000002 -5.999986
v -3.807017 3.500005 -5.999988
v 4.192752 3.500008 -5.999989
v -4.007020 3.500005 -6.199980
v 4.392738 3.500008 -6.199990
v -4.421273 5.702703 -6.699992
v 4.806998 5.702703 -6.699993
v -4.348170 5.634470 -6.699992
v 4.733895 5.634470 -6.699993
v -4.007022 5.999992 -6.199989
v 4.392737 5.999993 -6.199990
v 0.119759 10.618211 -4.452479
v 0.265955 10.618211 -4.452479
v 0.265955 10.568213 -4.502476
v 1.845470 8.729280 -6.199992
v 2.316931 8.370696 -6.699992
v -1.931199 8.370695 -6.699992
v 2.312125 8.229278 -6.699992
v -1.459756 8.729280 -6.199992
v -1.926411 8.229278 -6.699992
v 0.192861 10.649980 -4.420710
v 0.119759 10.568213 -4.502476
v 4.092752 1.750005 -3.250001
v -3.707031 1.750005 -2.749999
v -3.707031 1.750005 2.974989
v -1.932072 5.300007 6.099988
v 4.292755 5.300009 2.874995
v 4.292755 5.300007 0.225002
v -3.907018 5.300006 3.325000
v -3.907019 5.299996 -3.324998
v 4.292756 4.199995 2.874996
v 4.292755 4.199995 0.225002
v -1.932072 4.199996 6.099988
v -3.907019 4.199995 -3.324998
v -3.907018 4.199996 3.325000
v -3.807015 0.000003 1.499999
v -3.807015 0.000003 -1.499998
v -3.807015 0.583338 -1.200000
v -3.807015 0.583338 1.200002
v -3.807015 0.583338 0.899996
v -3.807015 0.583338 -0.899994
v -3.807015 0.291675 -1.499998
v -3.807015 0.291675 1.200002
v -3.807015 0.291675 -1.200000
v -3.807015 0.291675 1.499999
v -4.806990 0.000003 1.499999
v -4.806990 0.000003 -1.499997
v -4.806999 0.291675 -1.499997
v -4.806990 0.291675 1.499999
v -4.556998 0.291675 -1.200001
v -4.556998 0.291675 1.200002
v -4.556998 0.583338 -1.200001
v -4.556998 0.583338 1.200002
v -4.307007 0.583338 -0.899994
v -4.307006 0.583338 0.899996
v -4.307007 0.875008 -0.899994
v -4.307006 0.875010 0.899996
v -3.807015 0.875008 -0.899994
v -3.807015 0.875010 0.899996
v -3.507027 0.875008 -0.699999
v -3.507027 0.875010 0.700001
v -3.507027 2.875002 0.700001
v -3.507028 2.875002 -0.699999
v -3.807015 2.875002 0.700001
v -3.807015 2.875002 -0.699999
v -3.807015 0.875008 -0.699999
v -3.807015 0.875010 0.700001
v -3.707031 2.849999 -2.749999
v 4.092752 2.850000 -3.250001
v -3.707031 2.850000 2.974989
v -3.707033 2.849998 -4.749995
v -3.707032 1.750005 -4.749995
v 4.292756 4.199996 4.874990
v 4.292756 5.300009 4.874990
v -3.707031 1.750005 1.974997
v -3.707031 2.850000 1.974997
v 4.092752 1.750006 -1.249998
v 4.092752 2.850000 -1.249998
v 4.292755 4.199995 -1.774992
v 4.292754 5.300007 -1.774993
v -3.907018 5.300006 -1.325006
v -3.907018 4.199995 -1.324996
v -3.907018 4.199995 1.324998
v -3.907018 5.300006 1.324998
v -3.907019 5.299996 -5.649994
v -3.907019 4.199994 -5.649994
v 4.092751 1.750005 -5.499996
v 4.092751 2.849999 -5.499996
v 4.292755 4.199995 -5.649996
v 4.292754 5.300005 -5.649996
v -3.907018 4.199996 5.649994
v -3.907018 5.300007 5.649994
v 4.292755 5.300005 -3.649992
v 4.292755 4.199995 -3.649990
v 4.092751 2.850000 -3.500002
v 4.092752 1.750005 -3.499992
v -3.907019 4.199995 -3.649989
v -3.907019 5.299996 -3.649989
v -3.907018 5.300006 3.649991
v -3.907018 4.199996 3.649991
v -3.707032 2.849999 -2.450003
v -3.707031 1.750005 -2.449993
v -3.707032 1.750005 -1.450001
v -3.707032 2.849999 -1.450001
v -2.807051 1.750005 -5.899986
v -2.807051 2.849998 -5.899986
v -2.907045 5.299996 -6.099988
v -2.907044 4.199994 -6.099988
v 3.192778 1.750005 -5.899986
v 3.192778 2.849999 -5.899986
v 3.292781 4.199995 -6.099988
v 3.292780 5.300005 -6.099988
v 1.192838 2.849998 -5.899986
v 1.292831 4.199994 -6.099988
v 1.292830 5.300005 -6.099988
v 1.192838 1.750005 -5.899986
v -1.107097 2.300013 5.699992
v -0.907104 4.199994 -6.099988
v -0.907105 5.299997 -6.099988
v -0.807102 2.849998 -5.899986
v -0.807102 1.750005 -5.899986
v -2.507061 2.300013 5.699992
v -2.932045 4.199996 6.099989
v -2.932046 5.300007 6.099988
v -2.807049 0.000013 6.499989
v -0.807109 0.000013 6.499989
v -2.807049 0.300010 6.499989
v -0.807109 0.300010 6.499989
v -1.107097 0.300010 5.699992
v -2.507061 0.300010 5.699992
v -2.807049 0.300010 5.999989
v -2.807049 0.000013 5.999989
v -0.807100 0.000013 5.999989
v -0.807100 0.300010 5.999989
v -1.107097 0.300010 5.999989
v -1.107097 2.300013 5.999989
v -2.507061 2.300013 5.999989
v -2.507061 0.300010 5.999989
v -0.307119 5.932317 6.299984
v -0.307119 7.432311 6.299984
v 0.692847 5.932317 6.299983
v 0.692847 7.432311 6.299983
v -3.707031 2.250006 5.249987
v -3.707031 2.250006 4.499995
v 4.092752 2.250007 3.749992
v 4.092752 2.250007 2.999992
v 4.092752 2.250007 5.249985
v 4.092752 2.250007 4.499994
v 3.067785 2.250007 5.899987
v 1.067844 2.250007 5.899987
v 2.317810 2.250007 5.899987
v 0.317861 2.250007 5.899986
v 1.067844 1.250005 5.899987
v 0.317861 1.250005 5.899986
v 3.067785 1.250005 5.899987
v 2.317810 1.250005 5.899987
v 4.092753 1.250005 5.249985
v 4.092753 1.250006 3.749992
v 4.092753 1.250005 4.499994
v 4.092753 1.250006 2.999992
v -3.707022 1.250005 5.249987
v -3.707031 1.250005 4.499995
v 0.692847 7.432310 6.199979
v -0.307119 7.432310 6.199981
v -0.307119 5.932317 6.199981
v 0.692847 5.932317 6.199981
v -2.932045 4.199996 6.199981
v -1.932072 4.199996 6.199981
v -1.932072 5.300007 6.199981
v -2.932046 5.300007 6.199981
v 1.067844 1.250005 5.999988
v 1.067844 2.250007 5.999987
v 0.317861 2.250007 5.999987
v 0.317861 1.250005 5.999987
v 2.317810 2.250007 5.999989
v 2.317810 1.250005 5.999989
v 3.067785 1.250005 5.999989
v 3.067785 2.250007 5.999989
v 4.192755 1.250006 4.499994
v 4.192754 2.250007 4.499994
v 4.192754 2.250007 5.249985
v 4.192755 1.250005 5.249985
v 4.192754 2.250007 3.749992
v 4.192755 1.250006 3.749992
v 4.192755 1.250006 2.999992
v 4.192754 2.250007 2.999992
v 4.192754 1.750006 -1.249998
v 4.192754 1.750005 -3.250001
v 4.192754 2.850000 -3.250001
v 4.192752 2.850000 -1.249998
v 4.192754 1.750005 -3.500001
v 4.192752 1.750005 -5.499996
v 4.192752 2.849999 -5.499996
v 4.192753 2.850000 -3.500001
v 4.392747 4.199995 2.874996
v 4.392738 5.300009 2.874995
v 4.392748 5.300009 4.874990
v 4.392748 4.199996 4.874990
v 4.392737 5.300007 -1.774993
v 4.392738 5.300008 0.225002
v 4.392738 4.199995 0.225002
v 4.392738 4.199995 -1.774992
v 4.392738 4.199995 -3.649991
v 4.392737 4.199995 -5.649996
v 4.392737 5.300005 -5.649996
v 4.392738 5.300005 -3.649992
v 1.192838 1.750005 -5.999988
v 1.192838 2.849998 -5.999988
v 3.192778 2.849999 -5.999988
v 3.192778 1.750005 -5.999988
v 1.292830 5.300005 -6.199990
v 3.292779 5.300005 -6.199990
v 3.292781 4.199995 -6.199990
v 1.292831 4.199994 -6.199990
v -0.907104 4.199994 -6.199990
v -2.907044 4.199994 -6.199989
v -2.907045 5.299996 -6.199989
v -0.907105 5.299997 -6.199990
v -2.807051 1.750005 -5.999988
v -2.807051 2.849998 -5.999988
v -0.807102 2.849998 -5.999988
v -0.807102 1.750005 -5.999988
v -3.807015 1.750005 2.974989
v -3.807015 2.850000 2.974989
v -3.807015 2.850000 1.974997
v -3.807015 1.750005 1.974997
v -3.807015 1.750005 -2.449993
v -3.807016 1.750005 -1.450001
v -3.807017 2.849999 -1.450001
v -3.807017 2.849999 -2.450003
v -3.807015 2.849999 -2.749999
v -3.807017 2.849998 -4.749995
v -3.807017 1.750005 -4.749995
v -3.807015 1.750005 -2.749999
v -4.007020 5.300007 5.649994
v -4.007020 5.300006 3.649991
v -4.007020 4.199996 3.649991
v -4.007020 4.199996 5.649994
v -4.007020 5.300006 3.325000
v -4.007020 5.300006 1.324998
v -4.007020 4.199995 1.324998
v -4.007020 4.199996 3.325000
v -4.007020 5.300006 -1.325005
v -4.007020 5.299996 -3.324998
v -4.007020 4.199995 -3.324998
v -4.007020 4.199995 -1.325005
v -4.007021 4.199994 -5.649994
v -4.007020 4.199995 -3.649989
v -4.007020 5.299996 -3.649989
v -4.007022 5.299996 -5.649994
v -3.807015 1.250005 5.249986
v -3.807015 2.250006 5.249986
v -3.807015 2.250006 4.499995
v -3.807015 1.250005 4.499995
v -0.507115 9.896550 3.249999
v -1.107100 9.253691 3.249999
v -1.107100 9.253691 2.749990
v -0.507115 9.896550 2.749990
v -0.657113 10.499982 2.899988
v -0.957101 10.499982 2.899988
v -0.957101 10.499982 3.099992
v -0.657113 10.499982 3.099991
v -1.107101 10.999991 3.249999
v -0.507116 10.999991 3.249999
v -0.507116 10.999991 2.749990
v -1.107101 10.999991 2.749990
v -0.957102 10.999991 3.099992
v -0.657114 10.999991 3.099991
v -0.657114 10.999991 2.899988
v -0.957102 10.999991 2.899988
v 4.292757 0.000013 -0.499996
v 4.292758 0.000013 1.499998
v 4.292755 2.500007 -0.499996
v 4.292756 2.500007 1.499998
v 4.192754 2.500007 1.499998
v 4.192755 0.000013 1.499998
v 4.192755 0.000013 -0.499996
v 4.192754 2.500007 -0.499996
vn -0.0000 1.0000 -0.0000
vn -0.0000 -1.0000 -0.0000
vn -0.0000 -0.0000 -1.0000
vn -0.0000 -0.0000 1.0000
vn 0.0001 -0.0000 -1.0000
vn 1.0000 -0.0000 -0.0000
vn -1.0000 -0.0000 -0.0000
vn -0.0001 -0.0000 -1.0000
vn -0.0000 0.7071 -0.7071
vn -0.0000 0.7070 0.7072
vn -0.0000 0.7072 0.7070
vn -0.0000 0.7071 0.7071
vn -0.3986 0.9171 -0.0000
vn 0.3986 0.9171 -0.0000
vn 0.7311 0.6823 -0.0000
vn -0.7311 0.6823 -0.0000
vn -0.0000 -0.7071 0.7071
vn -0.0000 -0.7071 -0.7071
vn -0.7311 -0.6823 -0.0000
vn 0.7311 -0.6823 -0.0000
vn 0.6823 -0.7310 -0.0000
vn -0.6823 -0.7310 -0.0000
vt 0.685457 0.204925
vt 0.685457 0.201796
vt 0.756615 0.201794
vt 0.756615 0.204922
vt 0.669881 0.141184
vt 0.644272 0.140995
vt 0.643240 0.136708
vt 0.669677 0.136896
vt 0.672280 0.155344
vt 0.636286 0.155346
vt 0.636285 0.152217
vt 0.672280 0.152216
vt 0.645532 0.204925
vt 0.574372 0.204923
vt 0.574372 0.201795
vt 0.645532 0.201796
vt 0.549136 0.143736
vt 0.574747 0.143925
vt 0.574455 0.147697
vt 0.548845 0.147507
vt 0.548966 0.139449
vt 0.574571 0.140491
vt 0.574775 0.143922
vt 0.549169 0.143736
vt 0.986025 0.813721
vt 0.986025 0.884116
vt 0.971651 0.884116
vt 0.971651 0.813721
vt 0.633322 0.112317
vt 0.564481 0.112211
vt 0.564256 0.107923
vt 0.633097 0.108030
vt 0.756755 0.209501
vt 0.756756 0.212629
vt 0.685595 0.212644
vt 0.685595 0.209516
vt 0.608853 0.136455
vt 0.583245 0.136266
vt 0.583537 0.133349
vt 0.609972 0.133538
vt 0.752892 0.225855
vt 0.752892 0.228983
vt 0.681735 0.228984
vt 0.681735 0.225856
vt 0.716323 0.216734
vt 0.755412 0.216733
vt 0.755412 0.220715
vt 0.716323 0.220716
vt 0.525598 0.173387
vt 0.596755 0.173389
vt 0.596755 0.176517
vt 0.525598 0.176515
vt 0.535276 0.204922
vt 0.535276 0.201794
vt 0.635850 0.176519
vt 0.635850 0.173390
vt 0.707011 0.173389
vt 0.707011 0.176518
vt 0.640916 0.242572
vt 0.640916 0.246556
vt 0.569757 0.246556
vt 0.569757 0.242572
vt 0.752003 0.246557
vt 0.680012 0.246555
vt 0.680012 0.242572
vt 0.752003 0.242574
vt 0.711780 0.233550
vt 0.750881 0.233551
vt 0.750881 0.237535
vt 0.711780 0.237533
vt 0.574511 0.212636
vt 0.535414 0.212629
vt 0.535415 0.209501
vt 0.574512 0.209507
vt 0.606077 0.216736
vt 0.645173 0.216737
vt 0.645173 0.220719
vt 0.606077 0.220719
vt 0.670025 0.133979
vt 0.644417 0.133791
vt 0.643385 0.129504
vt 0.669821 0.129692
vt 0.571480 0.228983
vt 0.532381 0.228985
vt 0.532381 0.225856
vt 0.571480 0.225855
vt 0.645672 0.212643
vt 0.645672 0.209515
vt 0.640611 0.233543
vt 0.640610 0.237525
vt 0.574224 0.197223
vt 0.574224 0.193241
vt 0.645377 0.193246
vt 0.645377 0.197229
vt 0.671856 0.256016
vt 0.631933 0.256013
vt 0.631933 0.252030
vt 0.671856 0.252033
vt 0.642638 0.228985
vt 0.642638 0.225856
vt 0.534900 0.220719
vt 0.534900 0.216736
vt 0.560766 0.252029
vt 0.560766 0.256013
vt 0.743003 0.252040
vt 0.743003 0.256023
vt 0.521663 0.256013
vt 0.521663 0.252029
vt 0.603718 0.185841
vt 0.642814 0.185843
vt 0.642814 0.188972
vt 0.603718 0.188969
vt 0.532556 0.185831
vt 0.532555 0.188959
vt 0.713971 0.185835
vt 0.713971 0.188963
vt 0.598588 0.165353
vt 0.563341 0.165102
vt 0.563137 0.161669
vt 0.597556 0.161920
vt 0.632828 0.162172
vt 0.597579 0.161919
vt 0.598700 0.158148
vt 0.633120 0.159255
vt 0.525671 0.108175
vt 0.525896 0.112463
vt 0.525580 0.121551
vt 0.525854 0.117780
vt 0.564424 0.117528
vt 0.563321 0.120444
vt 0.739082 0.121777
vt 0.670227 0.121666
vt 0.670501 0.117895
vt 0.739357 0.118005
vt 0.633451 0.121895
vt 0.702293 0.122018
vt 0.702017 0.124935
vt 0.633176 0.124812
vt 0.594601 0.125066
vt 0.594874 0.122149
vt 0.632852 0.100851
vt 0.563186 0.100747
vt 0.562960 0.096460
vt 0.631799 0.096564
vt 0.526033 0.122067
vt 0.525759 0.124984
vt 0.740369 0.122293
vt 0.739265 0.125210
vt 0.522101 0.155344
vt 0.522101 0.152216
vt 0.562024 0.152218
vt 0.562023 0.155346
vt 0.633249 0.117629
vt 0.632975 0.120546
vt 0.955775 0.884115
vt 0.955775 0.813721
vt 0.971583 0.813721
vt 0.971583 0.884115
vt 0.597188 0.152218
vt 0.597188 0.155347
vt 0.955775 0.986067
vt 0.971583 0.986067
vt 0.324469 0.691285
vt 0.302309 0.691285
vt 0.302309 0.666807
vt 0.324469 0.648528
vt 0.340361 0.648528
vt 0.340361 0.653424
vt 0.324469 0.653424
vt 0.359602 0.653424
vt 0.359602 0.691285
vt 0.334090 0.691285
vt 0.302309 0.658319
vt 0.302309 0.653424
vt 0.300220 0.666806
vt 0.300220 0.658319
vt 0.324469 0.690951
vt 0.334090 0.690951
vt 0.955775 0.713247
vt 0.971583 0.713247
vt 0.684473 0.193244
vt 0.684473 0.197228
vt 0.560332 0.160584
vt 0.560624 0.157667
vt 0.583560 0.133348
vt 0.549143 0.132245
vt 0.548939 0.128812
vt 0.583355 0.129061
vt 0.609995 0.133538
vt 0.608964 0.129251
vt 0.526093 0.164620
vt 0.525889 0.160333
vt 0.636335 0.165323
vt 0.636131 0.161890
vt 0.670576 0.162141
vt 0.670867 0.159224
vt 0.746109 0.173387
vt 0.746109 0.176516
vt 0.635602 0.145220
vt 0.670018 0.145470
vt 0.669726 0.148387
vt 0.635310 0.148137
vt 0.635428 0.140930
vt 0.669854 0.141182
vt 0.670058 0.145470
vt 0.635632 0.145217
vt 0.609997 0.144178
vt 0.608878 0.147950
vt 0.669874 0.096830
vt 0.670100 0.101117
vt 0.524384 0.096712
vt 0.525438 0.100999
vt 0.608989 0.140741
vt 0.610020 0.144173
vt 0.670343 0.108295
vt 0.670568 0.112582
vt 0.643267 0.136708
vt 0.644388 0.133791
vt 0.548818 0.136017
vt 0.549110 0.132245
vt 0.669700 0.136896
vt 0.669992 0.133980
vt 0.609022 0.140743
vt 0.608819 0.136456
vt 0.601517 0.237524
vt 0.530369 0.237535
vt 0.530369 0.233553
vt 0.601517 0.233541
vt 0.583415 0.140554
vt 0.583212 0.136267
vt 0.738944 0.101223
vt 0.738718 0.096936
vt 0.739402 0.112687
vt 0.739177 0.108401
vt 0.526206 0.157416
vt 0.525914 0.160333
vt 0.756476 0.193233
vt 0.756477 0.197217
vt 0.971651 0.986067
vt 0.986026 0.986067
vt 0.986026 0.713247
vt 0.971651 0.713247
vt 0.670755 0.166428
vt 0.670551 0.162140
vt 0.548999 0.139449
vt 0.548795 0.136016
vt 0.535136 0.197215
vt 0.535137 0.193233
vt 0.753068 0.185831
vt 0.753068 0.188959
vt 0.530662 0.246557
vt 0.530662 0.242574
vt 0.439027 0.856214
vt 0.475022 0.856214
vt 0.475022 0.867308
vt 0.612839 0.900880
vt 0.657002 0.900881
vt 0.657001 0.936438
vt 0.612838 0.936438
vt 0.546180 0.867312
vt 0.546180 0.856219
vt 0.724488 0.856221
vt 0.683996 0.900881
vt 0.585844 0.900880
vt 0.535217 0.867312
vt 0.535216 0.938428
vt 0.585844 0.936437
vt 0.485158 0.867308
vt 0.485157 0.938427
vt 0.439027 0.981097
vt 0.724487 0.981099
vt 0.683996 0.936438
vt 0.278705 0.866266
vt 0.278705 0.856216
vt 0.011230 0.856220
vt 0.171551 0.856219
vt 0.171551 0.866269
vt 0.011231 0.981103
vt 0.055397 0.957776
vt 0.127386 0.957775
vt 0.331302 0.918230
vt 0.385862 0.900877
vt 0.385863 0.936435
vt 0.331302 0.957772
vt 0.295306 0.918230
vt 0.295307 0.957773
vt 0.249745 0.958342
vt 0.182515 0.877174
vt 0.192651 0.877174
vt 0.192651 0.887226
vt 0.257605 0.887224
vt 0.257605 0.877172
vt 0.267741 0.877172
vt 0.267741 0.866266
vt 0.182515 0.866269
vt 0.412031 0.936435
vt 0.137522 0.957775
vt 0.127385 0.918233
vt 0.137521 0.918233
vt 0.249744 0.887224
vt 0.412031 0.900877
vt 0.173517 0.957774
vt 0.055396 0.918234
vt 0.173517 0.918233
vt 0.200512 0.887226
vt 0.200513 0.958343
vt 0.352244 0.806868
vt 0.423403 0.806869
vt 0.441399 0.830195
vt 0.066784 0.749974
vt 0.093779 0.749975
vt 0.093779 0.785533
vt 0.066784 0.785532
vt 0.120773 0.785533
vt 0.120774 0.749975
vt 0.173935 0.794637
vt 0.173937 0.705315
vt 0.013623 0.705313
vt 0.040618 0.749974
vt 0.352244 0.768183
vt 0.343246 0.806868
vt 0.343246 0.768183
vt 0.272087 0.806868
vt 0.013622 0.830192
vt 0.423403 0.768183
vt 0.040617 0.785532
vt 0.245093 0.794637
vt 0.272087 0.768183
vt 0.245093 0.705316
vt 0.441399 0.705317
vt 0.548549 0.768184
vt 0.619706 0.768184
vt 0.619706 0.806869
vt 0.548548 0.806869
vt 0.477392 0.768183
vt 0.726857 0.705317
vt 0.690863 0.768184
vt 0.477392 0.806869
vt 0.726857 0.830196
vt 0.690863 0.806869
vt 0.908753 0.398934
vt 0.889619 0.424252
vt 0.818460 0.424253
vt 0.585593 0.424256
vt 0.679815 0.424254
vt 0.679815 0.463795
vt 0.585593 0.463796
vt 0.751801 0.424254
vt 0.818461 0.463793
vt 0.751802 0.463794
vt 0.466908 0.398940
vt 0.514434 0.424257
vt 0.466910 0.488261
vt 0.514434 0.463797
vt 0.908753 0.488254
vt 0.889620 0.463792
vt 0.102356 0.424260
vt 0.031194 0.424259
vt 0.011231 0.398940
vt 0.185051 0.424260
vt 0.279277 0.424261
vt 0.279277 0.463803
vt 0.185050 0.463803
vt 0.350440 0.424261
vt 0.361972 0.424261
vt 0.361972 0.463804
vt 0.350440 0.463803
vt 0.113888 0.424260
vt 0.113888 0.463802
vt 0.102355 0.463802
vt 0.453097 0.398943
vt 0.433962 0.424262
vt 0.453098 0.488267
vt 0.011230 0.488265
vt 0.031194 0.463802
vt 0.433962 0.463804
vt 0.097899 0.532725
vt 0.023377 0.507408
vt 0.322906 0.507405
vt 0.061905 0.532725
vt 0.097899 0.572266
vt 0.191554 0.594335
vt 0.155561 0.594336
vt 0.322908 0.596726
vt 0.191555 0.648099
vt 0.232679 0.693828
vt 0.114442 0.693830
vt 0.155562 0.648100
vt 0.023378 0.596732
vt 0.061905 0.572267
vt 0.446111 0.532715
vt 0.524300 0.532715
vt 0.524300 0.571401
vt 0.446111 0.572256
vt 0.374954 0.532716
vt 0.335860 0.507399
vt 0.635380 0.507399
vt 0.544322 0.693815
vt 0.426917 0.693815
vt 0.335860 0.596719
vt 0.635380 0.596718
vt 0.596285 0.532715
vt 0.596285 0.571401
vt 0.374954 0.572256
vt 0.249815 0.284867
vt 0.249379 0.285026
vt 0.245244 0.285185
vt 0.251951 0.280151
vt 0.247379 0.280470
vt 0.175804 0.167323
vt 0.322091 0.166937
vt 0.251607 0.285145
vt 0.249771 0.287357
vt 0.247036 0.284853
vt 0.247175 0.282495
vt 0.251746 0.282788
vt 0.174125 0.167333
vt 0.320409 0.166879
vt 0.335793 0.114853
vt 0.336516 0.117520
vt 0.019688 0.117521
vt 0.020410 0.114854
vt 0.019688 0.112187
vt 0.336516 0.112186
vt 0.017722 0.110195
vt 0.338480 0.110195
vt 0.338481 0.119511
vt 0.017723 0.119511
vt 0.011220 0.138730
vt 0.489066 0.138732
vt 0.489065 0.268720
vt 0.011220 0.268718
vt 0.410928 0.376382
vt 0.089356 0.376381
vt 0.411187 0.376767
vt 0.489324 0.266646
vt 0.152660 0.313401
vt 0.489324 0.138117
vt 0.011478 0.138117
vt 0.011478 0.266646
vt 0.152660 0.343601
vt 0.089615 0.376767
vt 0.134663 0.343601
vt 0.134663 0.313401
vt 0.791690 0.160464
vt 0.791690 0.074714
vt 0.948821 0.074714
vt 0.948821 0.160464
vt 0.791689 0.160464
vt 0.791689 0.074714
vt 0.948822 0.074714
vt 0.948822 0.160464
vt 0.791689 0.160466
vt 0.791689 0.074715
vt 0.948822 0.074715
vt 0.948822 0.160466
vt 0.791688 0.160464
vt 0.791688 0.074714
vt 0.791688 0.160465
vt 0.948822 0.160465
vt 0.791689 0.074713
vt 0.948821 0.160465
vt 0.791690 0.160465
vt 0.791691 0.160464
vt 0.791691 0.074714
vt 0.797726 0.253784
vt 0.797726 0.174743
vt 0.855927 0.174743
vt 0.855927 0.253784
vt 0.797725 0.253784
vt 0.797725 0.174743
vt 0.855926 0.174743
vt 0.855926 0.253784
vt 0.855926 0.253785
vt 0.797727 0.253785
vt 0.797727 0.174743
vt 0.855927 0.253785
vt 0.948603 0.254781
vt 0.869623 0.254781
vt 0.869623 0.169031
vt 0.948603 0.169031
vt 0.948602 0.169031
vt 0.948602 0.254781
vt 0.948603 0.254780
vt 0.869623 0.254780
vt 0.672047 0.325007
vt 0.656095 0.298981
vt 0.802382 0.299148
vt 0.786334 0.324998
vt 0.802543 0.299148
vt 0.656256 0.298981
vt 0.672304 0.273132
vt 0.786591 0.273124
vt 0.825655 0.278032
vt 0.953656 0.278737
vt 0.931088 0.297082
vt 0.807658 0.297553
vt 0.941932 0.339042
vt 0.959101 0.356394
vt 0.482083 0.356391
vt 0.499252 0.339040
vt 0.523185 0.294538
vt 0.505188 0.276332
vt 0.631461 0.276332
vt 0.656125 0.294538
vt 0.930974 0.297082
vt 0.951834 0.314106
vt 0.823833 0.313400
vt 0.807544 0.297553
vt 0.478393 0.369719
vt 0.956237 0.369719
vt 0.938240 0.387071
vt 0.496390 0.387071
vt 0.516829 0.302269
vt 0.643102 0.302269
vt 0.625106 0.320475
vt 0.492165 0.320475
vt 0.750048 0.015879
vt 0.757081 0.022989
vt 0.315234 0.022989
vt 0.322267 0.015878
vt 0.296536 0.018522
vt 0.303480 0.026075
vt 0.013423 0.025726
vt 0.013377 0.025726
vt 0.303434 0.026076
vt 0.295573 0.032940
vt 0.020027 0.018421
vt 0.318465 0.034182
vt 0.311432 0.027070
vt 0.754110 0.027070
vt 0.746249 0.034182
vt 0.019892 0.032838
vt 0.017391 0.088831
vt 0.016238 0.084442
vt 0.139433 0.084208
vt 0.139674 0.080355
vt 0.016479 0.081443
vt 0.016155 0.077054
vt 0.143493 0.088729
vt 0.148971 0.077743
vt 0.295519 0.077855
vt 0.295420 0.082672
vt 0.148872 0.082778
vt 0.142257 0.076952
vt 0.016261 0.084442
vt 0.016457 0.081443
vt 0.139651 0.080355
vt 0.139539 0.091597
vt 0.016338 0.091830
vt 0.016535 0.088831
vt 0.142363 0.084340
vt 0.296638 0.089095
vt 0.150089 0.088985
vt 0.148840 0.082778
vt 0.295388 0.082670
vt 0.143470 0.088730
vt 0.013506 0.048358
vt 0.491352 0.048361
vt 0.491352 0.051489
vt 0.013506 0.051487
vt 0.491533 0.065743
vt 0.013678 0.065743
vt 0.013678 0.062615
vt 0.491533 0.062615
vt 0.814472 0.870867
vt 0.814472 0.972819
vt 0.744652 0.972819
vt 0.744652 0.870867
vt 0.920346 0.713419
vt 0.926148 0.713291
vt 0.926305 0.792261
vt 0.920503 0.792389
vt 0.871374 0.708824
vt 0.920290 0.708912
vt 0.871430 0.713331
vt 0.871587 0.792301
vt 0.867219 0.792430
vt 0.866233 0.713460
vt 0.920558 0.796896
vt 0.872248 0.796808
vt 0.885437 0.870867
vt 0.885437 0.972819
vt 0.815618 0.972819
vt 0.815618 0.870867
vt 0.855686 0.708710
vt 0.860827 0.708710
vt 0.860827 0.833407
vt 0.855686 0.833407
vt 0.754856 0.833407
vt 0.754856 0.708710
vt 0.749108 0.833407
vt 0.749108 0.708710
vt 0.855686 0.839264
vt 0.754856 0.839264
vt 0.681541 0.676982
vt 0.788695 0.676982
vt 0.788695 0.687032
vt 0.681542 0.687032
vt 0.645549 0.687034
vt 0.645549 0.676984
vt 0.692505 0.657827
vt 0.777732 0.657827
vt 0.777732 0.667878
vt 0.692505 0.667878
vt 0.672542 0.655837
vt 0.672542 0.666742
vt 0.645548 0.666744
vt 0.645547 0.655839
vt 0.702641 0.638674
vt 0.766768 0.638674
vt 0.766768 0.648724
vt 0.702641 0.648724
vt 0.663542 0.634693
vt 0.663543 0.645597
vt 0.645547 0.645598
vt 0.645546 0.634694
vt 0.823860 0.676982
vt 0.823859 0.687032
vt 0.797694 0.666741
vt 0.797694 0.655837
vt 0.823860 0.655837
vt 0.823860 0.666742
vt 0.805864 0.645596
vt 0.805864 0.634692
vt 0.823861 0.634693
vt 0.823860 0.645597
vt 0.709674 0.610227
vt 0.759735 0.610227
vt 0.759735 0.620468
vt 0.709674 0.620468
vt 0.766768 0.620468
vt 0.702641 0.620468
vt 0.737989 0.587013
vt 0.728889 0.586888
vt 0.728829 0.569188
vt 0.737925 0.569119
vt 0.657946 0.569256
vt 0.658005 0.586952
vt 0.648885 0.586889
vt 0.648826 0.569188
vt 0.657892 0.558094
vt 0.728776 0.558025
vt 0.717429 0.586939
vt 0.669450 0.586963
vt 0.717592 0.599334
vt 0.669422 0.599155
vt 0.946900 0.541149
vt 0.946900 0.608534
vt 0.910273 0.608534
vt 0.910273 0.502821
vt 0.959945 0.673477
vt 0.941735 0.673477
vt 0.941735 0.644378
vt 0.959945 0.644378
vt 0.929526 0.673477
vt 0.929526 0.644378
vt 0.959945 0.624741
vt 0.972154 0.624741
vt 0.972154 0.644378
vt 0.972154 0.673477
vt 0.989536 0.673477
vt 0.989536 0.644378
vt 0.977319 0.608534
vt 0.977319 0.541149
vt 0.879853 0.608534
vt 0.843226 0.608534
vt 0.843226 0.541149
vt 0.879853 0.502821
vt 0.879853 0.644819
vt 0.889890 0.636495
vt 0.902099 0.636495
vt 0.910273 0.644819
vt 0.902099 0.616857
vt 0.889890 0.616857
s 1
usemtl NoName,1
f 56/1/1 225/2/1 226/3/1
f 103/4/1 56/1/1 226/3/1
f 169/5/2 170/6/2 210/7/2
f 207/8/2 169/5/2 210/7/2
f 57/9/1 147/10/1 191/11/1
f 192/12/1 57/9/1 191/11/1
f 52/13/2 104/14/2 223/15/2
f 224/16/2 52/13/2 223/15/2
f 179/17/1 180/18/1 200/19/1
f 201/20/1 179/17/1 200/19/1
f 177/21/1 178/22/1 198/23/1
f 195/24/1 177/21/1 198/23/1
f 87/25/2 86/26/2 88/27/2
f 89/28/2 87/25/2 88/27/2
f 144/29/2 130/30/2 244/31/2
f 245/32/2 144/29/2 244/31/2
f 228/33/1 113/34/1 118/35/1
f 227/36/1 228/33/1 118/35/1
f 171/37/2 172/38/2 204/39/2
f 205/40/2 171/37/2 204/39/2
f 262/41/1 115/42/1 124/43/1
f 261/44/1 262/41/1 124/43/1
f 56/1/3 52/13/3 224/16/3
f 225/2/3 56/1/3 224/16/3
f 51/45/4 55/46/4 219/47/4
f 220/48/4 51/45/4 219/47/4
f 47/49/1 101/50/1 211/51/1
f 212/52/1 47/49/1 211/51/1
f 104/14/4 103/53/4 226/54/4
f 223/15/4 104/14/4 226/54/4
f 214/55/2 102/56/2 93/57/2
f 213/58/2 214/55/2 93/57/2
f 274/59/2 109/60/2 122/61/2
f 273/62/2 274/59/2 122/61/2
f 121/63/1 110/64/1 271/65/1
f 272/66/1 121/63/1 271/65/1
f 110/64/4 109/60/4 274/59/4
f 271/65/4 110/64/4 274/59/4
f 112/67/4 111/68/4 216/69/4
f 217/70/4 112/67/4 216/69/4
f 114/71/4 113/72/4 228/73/4
f 229/74/4 114/71/4 228/73/4
f 97/75/3 98/76/3 221/77/3
f 222/78/3 97/75/3 221/77/3
f 185/79/1 186/80/1 278/81/1
f 275/82/1 185/79/1 278/81/1
f 116/83/3 115/84/3 262/85/3
f 259/86/3 116/83/3 262/85/3
f 117/87/2 114/71/2 229/74/2
f 230/88/2 117/87/2 229/74/2
f 118/35/3 117/87/3 230/88/3
f 227/36/3 118/35/3 230/88/3
f 119/89/2 112/67/2 217/70/2
f 218/90/2 119/89/2 217/70/2
f 92/91/2 255/92/2 256/93/2
f 95/94/2 92/91/2 256/93/2
f 58/95/4 54/96/4 268/97/4
f 269/98/4 58/95/4 268/97/4
f 123/99/2 116/83/2 259/86/2
f 260/100/2 123/99/2 259/86/2
f 124/43/4 123/99/4 260/100/4
f 261/44/4 124/43/4 260/100/4
f 222/78/1 219/101/1 55/102/1
f 97/75/1 222/78/1 55/102/1
f 51/45/2 220/48/2 221/77/2
f 98/76/2 51/45/2 221/77/2
f 267/103/2 268/97/2 54/96/2
f 105/104/2 267/103/2 54/96/2
f 58/95/1 269/98/1 270/105/1
f 106/106/1 58/95/1 270/105/1
f 105/104/5 106/107/5 270/108/5
f 267/103/3 105/104/3 270/108/3
f 107/109/4 108/110/4 264/111/4
f 265/112/4 107/109/4 264/111/4
f 59/113/1 107/109/1 265/112/1
f 266/114/1 59/113/1 265/112/1
f 264/111/2 108/110/2 53/115/2
f 263/116/2 264/111/2 53/115/2
f 100/117/2 94/118/2 248/119/2
f 249/120/2 100/117/2 248/119/2
f 253/121/2 254/122/2 125/123/2
f 128/124/2 253/121/2 125/123/2
f 243/125/6 244/31/6 130/30/6
f 129/126/6 243/125/6 130/30/6
f 132/127/6 240/128/6 241/129/6
f 131/130/6 132/127/6 241/129/6
f 132/131/1 142/132/1 239/133/1
f 240/134/1 132/131/1 239/133/1
f 136/135/2 139/136/2 235/137/2
f 236/138/2 136/135/2 235/137/2
f 236/138/7 237/139/7 135/140/7
f 136/135/7 236/138/7 135/140/7
f 134/141/2 137/142/2 232/143/2
f 233/144/2 134/141/2 232/143/2
f 138/145/1 135/140/1 237/139/1
f 238/146/1 138/145/1 237/139/1
f 138/147/6 238/148/6 235/137/6
f 139/136/6 138/147/6 235/137/6
f 57/149/7 192/150/7 193/151/7
f 50/152/7 57/149/7 193/151/7
f 242/153/7 239/133/7 142/132/7
f 143/154/7 242/153/7 142/132/7
f 143/154/2 131/130/2 241/129/2
f 242/153/2 143/154/2 241/129/2
f 146/155/2 141/156/2 160/157/2
f 161/158/2 146/155/2 160/157/2
f 194/159/6 191/11/6 147/10/6
f 148/160/6 194/159/6 147/10/6
f 194/159/2 148/160/2 50/152/2
f 193/151/2 194/159/2 50/152/2
f 154/161/6 146/155/6 161/158/6
f 162/162/6 154/161/6 161/158/6
f 300/163/2 1/164/2 157/165/2
f 70/166/2 71/167/2 61/168/2
f 60/169/2 70/166/2 61/168/2
f 61/168/2 25/170/2 24/171/2
f 61/168/2 24/171/2 301/172/2
f 156/173/2 2/174/2 60/169/2
f 60/169/2 61/168/2 301/172/2
f 150/175/2 149/176/2 156/173/2
f 157/165/2 150/175/2 156/173/2
f 157/165/2 156/173/2 60/169/2
f 157/165/2 60/169/2 301/172/2
f 300/163/2 157/165/2 301/172/2
f 296/177/2 300/163/2 301/172/2
f 295/178/2 296/177/2 301/172/2
f 141/156/7 153/179/7 159/180/7
f 160/157/7 141/156/7 159/180/7
f 256/93/4 257/181/4 96/182/4
f 95/94/4 256/93/4 96/182/4
f 125/123/4 254/122/4 251/183/4
f 126/184/4 125/123/4 251/183/4
f 167/185/3 185/186/3 275/187/3
f 276/188/3 167/185/3 275/187/3
f 186/80/4 168/189/4 277/190/4
f 278/81/4 186/80/4 277/190/4
f 168/189/2 167/185/2 276/188/2
f 277/190/2 168/189/2 276/188/2
f 94/118/3 49/191/3 247/192/3
f 248/119/3 94/118/3 247/192/3
f 99/193/4 100/117/4 249/120/4
f 250/194/4 99/193/4 249/120/4
f 252/195/3 253/121/3 128/124/3
f 127/196/3 252/195/3 128/124/3
f 102/56/3 214/55/3 211/51/3
f 101/50/3 102/56/3 211/51/3
f 93/57/4 47/197/4 212/198/4
f 213/58/4 93/57/4 212/198/4
f 173/199/7 179/200/7 201/201/7
f 202/202/7 173/199/7 201/201/7
f 174/203/7 177/204/7 195/205/7
f 196/206/7 174/203/7 195/205/7
f 175/207/2 173/199/2 202/202/2
f 199/208/2 175/207/2 202/202/2
f 134/141/7 233/144/7 234/209/7
f 133/210/7 134/141/7 234/209/7
f 231/211/6 232/143/6 137/142/6
f 140/212/6 231/211/6 137/142/6
f 176/213/2 174/203/2 196/206/2
f 197/214/2 176/213/2 196/206/2
f 144/29/7 245/32/7 246/215/7
f 145/216/7 144/29/7 246/215/7
f 181/217/3 171/37/3 205/40/3
f 206/218/3 181/217/3 205/40/3
f 172/38/4 183/219/4 203/220/4
f 204/39/4 172/38/4 203/220/4
f 183/221/1 181/217/1 206/218/1
f 203/222/1 183/221/1 206/218/1
f 170/6/4 184/223/4 209/224/4
f 210/7/4 170/6/4 209/224/4
f 215/225/1 216/226/1 111/227/1
f 120/228/1 215/225/1 111/227/1
f 184/223/1 182/229/1 208/230/1
f 209/224/1 184/223/1 208/230/1
f 140/231/1 133/210/1 234/209/1
f 231/232/1 140/231/1 234/209/1
f 129/233/1 145/216/1 246/215/1
f 243/234/1 129/233/1 246/215/1
f 127/235/1 126/184/1 251/183/1
f 252/236/1 127/235/1 251/183/1
f 257/181/1 258/237/1 48/238/1
f 96/182/1 257/181/1 48/238/1
f 91/239/3 88/27/3 86/26/3
f 85/240/3 91/239/3 86/26/3
f 84/241/4 87/25/4 89/28/4
f 90/242/4 84/241/4 89/28/4
f 49/243/1 99/193/1 250/194/1
f 247/244/1 49/243/1 250/194/1
f 178/22/6 176/213/6 197/214/6
f 198/23/6 178/22/6 197/214/6
f 180/18/6 175/207/6 199/208/6
f 200/19/6 180/18/6 199/208/6
f 182/229/3 169/245/3 207/246/3
f 208/230/3 182/229/3 207/246/3
f 215/225/8 120/228/8 119/89/8
f 218/90/3 215/225/3 119/89/3
f 255/92/3 92/91/3 48/247/3
f 258/248/3 255/92/3 48/247/3
f 53/115/3 59/249/3 266/250/3
f 263/116/3 53/115/3 266/250/3
f 122/61/3 121/251/3 272/252/3
f 273/62/3 122/61/3 272/252/3
f 2/253/4 156/254/4 155/255/4
f 195/256/4 200/257/4 199/258/4
f 196/259/4 195/256/4 199/258/4
f 158/260/4 157/261/4 1/262/4
f 1/262/4 201/263/4 200/257/4
f 158/260/4 1/262/4 200/257/4
f 158/260/4 200/257/4 195/256/4
f 158/260/4 195/256/4 198/264/4
f 159/265/4 158/260/4 198/264/4
f 160/266/4 159/265/4 198/264/4
f 160/266/4 198/264/4 197/267/4
f 155/255/4 162/268/4 161/269/4
f 2/253/4 155/255/4 161/269/4
f 3/270/4 2/253/4 161/269/4
f 3/270/4 161/269/4 160/266/4
f 3/270/4 160/266/4 197/267/4
f 4/271/4 3/270/4 197/267/4
f 4/271/4 197/267/4 196/259/4
f 4/271/4 196/259/4 199/258/4
f 4/271/4 199/258/4 202/272/4
f 201/263/4 1/262/4 4/271/4
f 202/272/4 201/263/4 4/271/4
f 69/273/7 60/274/7 2/253/7
f 25/275/7 61/276/7 66/277/7
f 26/278/7 256/279/7 255/280/7
f 247/281/7 278/282/7 277/283/7
f 248/284/7 247/281/7 277/283/7
f 250/285/7 249/286/7 88/287/7
f 278/282/7 247/281/7 250/285/7
f 62/288/7 65/289/7 82/290/7
f 83/291/7 64/292/7 63/293/7
f 63/293/7 67/294/7 69/273/7
f 63/293/7 69/273/7 2/253/7
f 66/277/7 68/295/7 62/288/7
f 25/275/7 66/277/7 62/288/7
f 248/284/7 277/283/7 276/296/7
f 25/275/7 62/288/7 82/290/7
f 254/297/7 255/280/7 258/298/7
f 251/299/7 254/297/7 258/298/7
f 250/285/7 88/287/7 91/300/7
f 250/285/7 91/300/7 83/291/7
f 278/282/7 250/285/7 83/291/7
f 278/282/7 83/291/7 63/293/7
f 275/301/7 278/282/7 63/293/7
f 275/301/7 63/293/7 2/253/7
f 26/278/7 255/280/7 254/297/7
f 26/278/7 254/297/7 253/302/7
f 257/303/7 256/279/7 26/278/7
f 257/303/7 26/278/7 25/275/7
f 257/303/7 25/275/7 82/290/7
f 258/298/7 257/303/7 82/290/7
f 251/299/7 258/298/7 82/290/7
f 252/304/7 251/299/7 82/290/7
f 252/304/7 82/290/7 90/305/7
f 252/304/7 90/305/7 89/306/7
f 253/302/7 252/304/7 89/306/7
f 26/278/7 253/302/7 89/306/7
f 3/270/7 26/278/7 89/306/7
f 3/270/7 89/306/7 88/287/7
f 3/270/7 88/287/7 249/286/7
f 3/270/7 249/286/7 248/284/7
f 3/270/7 248/284/7 276/296/7
f 275/301/7 2/253/7 3/270/7
f 276/296/7 275/301/7 3/270/7
f 218/307/6 217/308/6 27/309/6
f 203/310/6 208/311/6 207/312/6
f 204/313/6 203/310/6 207/312/6
f 210/314/6 209/315/6 299/316/6
f 207/312/6 210/314/6 299/316/6
f 204/313/6 207/312/6 299/316/6
f 300/317/6 299/316/6 209/315/6
f 300/317/6 209/315/6 208/311/6
f 1/318/6 300/317/6 208/311/6
f 1/318/6 208/311/6 203/310/6
f 1/318/6 203/310/6 206/319/6
f 215/320/6 218/307/6 213/321/6
f 215/320/6 213/321/6 212/322/6
f 213/321/6 218/307/6 27/309/6
f 214/323/6 213/321/6 27/309/6
f 214/323/6 27/309/6 4/324/6
f 4/324/6 1/318/6 206/319/6
f 27/309/6 217/308/6 216/325/6
f 4/324/6 206/319/6 205/326/6
f 4/324/6 205/326/6 204/313/6
f 4/324/6 204/313/6 299/316/6
f 214/323/6 4/324/6 299/316/6
f 214/323/6 299/316/6 302/327/6
f 211/328/6 214/323/6 302/327/6
f 211/328/6 302/327/6 301/329/6
f 212/322/6 211/328/6 301/329/6
f 212/322/6 301/329/6 24/330/6
f 215/320/6 212/322/6 24/330/6
f 216/325/6 215/320/6 24/330/6
f 27/309/6 216/325/6 24/330/6
f 231/331/3 246/332/3 245/333/3
f 232/334/3 231/331/3 245/333/3
f 231/331/3 234/335/3 24/330/3
f 231/331/3 24/330/3 25/336/3
f 246/332/3 231/331/3 25/336/3
f 243/337/3 246/332/3 25/336/3
f 27/309/3 24/330/3 234/335/3
f 27/309/3 234/335/3 233/338/3
f 27/309/3 233/338/3 232/334/3
f 26/339/3 27/309/3 232/334/3
f 26/339/3 232/334/3 245/333/3
f 26/339/3 245/333/3 244/340/3
f 26/339/3 244/340/3 243/337/3
f 25/336/3 26/339/3 243/337/3
f 29/341/6 228/342/6 227/343/6
f 219/344/6 225/345/6 224/346/6
f 220/347/6 219/344/6 224/346/6
f 226/348/6 227/343/6 230/349/6
f 223/350/6 226/348/6 230/349/6
f 29/341/6 227/343/6 226/348/6
f 29/341/6 226/348/6 225/345/6
f 6/351/6 29/341/6 225/345/6
f 6/351/6 225/345/6 219/344/6
f 6/351/6 219/344/6 222/352/6
f 12/353/6 6/351/6 222/352/6
f 12/353/6 222/352/6 221/354/6
f 12/353/6 221/354/6 220/347/6
f 12/353/6 220/347/6 224/346/6
f 35/355/6 12/353/6 224/346/6
f 35/355/6 224/346/6 223/350/6
f 35/355/6 223/350/6 230/349/6
f 35/355/6 230/349/6 229/356/6
f 228/342/6 29/341/6 35/355/6
f 229/356/6 228/342/6 35/355/6
f 272/357/7 271/358/7 28/359/7
f 270/360/7 265/361/7 264/362/7
f 267/363/7 270/360/7 264/362/7
f 266/364/7 261/365/7 260/366/7
f 263/367/7 266/364/7 260/366/7
f 272/357/7 269/368/7 268/369/7
f 273/370/7 272/357/7 268/369/7
f 269/368/7 272/357/7 28/359/7
f 270/360/7 269/368/7 28/359/7
f 270/360/7 28/359/7 5/371/7
f 265/361/7 270/360/7 5/371/7
f 266/364/7 265/361/7 5/371/7
f 261/365/7 266/364/7 5/371/7
f 262/372/7 261/365/7 5/371/7
f 262/372/7 5/371/7 11/373/7
f 34/374/7 28/359/7 271/358/7
f 34/374/7 271/358/7 274/375/7
f 34/374/7 274/375/7 273/370/7
f 34/374/7 273/370/7 268/369/7
f 34/374/7 268/369/7 267/363/7
f 11/373/7 34/374/7 267/363/7
f 11/373/7 267/363/7 264/362/7
f 11/373/7 264/362/7 263/367/7
f 11/373/7 263/367/7 260/366/7
f 11/373/7 260/366/7 259/376/7
f 262/372/7 11/373/7 259/376/7
f 192/377/4 5/378/4 6/379/4
f 5/378/4 192/377/4 191/380/4
f 193/381/4 190/382/4 189/383/4
f 190/382/4 193/381/4 192/377/4
f 190/382/4 192/377/4 6/379/4
f 190/382/4 6/379/4 12/384/4
f 187/385/4 190/382/4 12/384/4
f 187/385/4 12/384/4 16/386/4
f 187/385/4 16/386/4 20/387/4
f 188/388/4 187/385/4 20/387/4
f 188/388/4 20/387/4 11/389/4
f 189/383/4 188/388/4 11/389/4
f 193/381/4 189/383/4 11/389/4
f 194/390/4 193/381/4 11/389/4
f 11/389/4 5/378/4 191/380/4
f 194/390/4 11/389/4 191/380/4
f 238/391/3 239/392/3 242/393/3
f 235/394/3 238/391/3 242/393/3
f 238/391/3 237/395/3 29/396/3
f 238/391/3 29/396/3 28/397/3
f 43/398/3 39/399/3 35/400/3
f 34/401/3 43/398/3 35/400/3
f 239/392/3 238/391/3 28/397/3
f 240/402/3 239/392/3 28/397/3
f 241/403/3 240/402/3 28/397/3
f 241/403/3 28/397/3 34/401/3
f 242/393/3 241/403/3 34/401/3
f 242/393/3 34/401/3 35/400/3
f 235/394/3 242/393/3 35/400/3
f 236/404/3 235/394/3 35/400/3
f 236/404/3 35/400/3 29/396/3
f 237/395/3 236/404/3 29/396/3
f 36/405/9 45/406/9 37/407/9
f 46/408/9 36/405/9 37/407/9
f 46/408/9 37/407/9 38/409/9
f 40/410/9 41/411/9 46/408/9
f 38/409/9 40/410/9 46/408/9
f 14/412/10 22/413/10 13/414/10
f 14/412/11 13/414/11 23/415/11
f 15/416/11 14/412/11 23/415/11
f 18/417/12 17/418/12 15/416/12
f 23/415/12 18/417/12 15/416/12
f 45/419/13 36/420/13 13/421/13
f 22/422/13 45/419/13 13/421/13
f 14/423/14 37/424/14 45/419/14
f 22/422/14 14/423/14 45/419/14
f 14/423/6 15/425/6 38/426/6
f 37/424/6 14/423/6 38/426/6
f 46/427/7 23/428/7 13/421/7
f 36/420/7 46/427/7 13/421/7
f 8/429/15 31/430/15 40/431/15
f 17/432/15 8/429/15 40/431/15
f 17/432/15 40/431/15 38/433/15
f 15/434/15 17/432/15 38/433/15
f 46/435/16 41/436/16 281/437/16
f 30/438/16 7/439/16 18/440/16
f 41/436/16 30/438/16 18/440/16
f 281/437/16 41/436/16 18/440/16
f 46/435/16 281/437/16 282/441/16
f 23/442/16 46/435/16 282/441/16
f 23/442/16 282/441/16 279/443/16
f 18/440/16 23/442/16 279/443/16
f 18/440/16 279/443/16 280/444/16
f 281/437/16 18/440/16 280/444/16
f 129/445/3 130/446/3 144/447/3
f 145/448/3 129/445/3 144/447/3
f 47/449/6 93/450/6 102/451/6
f 101/452/6 47/449/6 102/451/6
f 103/453/6 104/454/6 52/455/6
f 56/456/6 103/453/6 52/455/6
f 109/451/7 110/452/7 121/457/7
f 122/458/7 109/451/7 121/457/7
f 113/459/6 114/458/6 117/451/6
f 118/460/6 113/459/6 117/451/6
f 115/449/7 116/450/7 123/451/7
f 124/452/7 115/449/7 123/451/7
f 97/452/6 55/449/6 51/450/6
f 98/451/6 97/452/6 51/450/6
f 105/461/7 54/451/7 58/452/7
f 106/449/7 105/461/7 58/452/7
f 107/452/7 59/449/7 53/450/7
f 108/451/7 107/452/7 53/450/7
f 136/447/3 135/462/3 138/463/3
f 139/446/3 136/447/3 138/463/3
f 140/464/3 137/446/3 134/447/3
f 133/448/3 140/464/3 134/447/3
f 132/464/3 131/465/3 143/447/3
f 142/448/3 132/464/3 143/447/3
f 119/447/6 120/452/6 111/449/6
f 112/450/6 119/447/6 111/449/6
f 92/450/7 95/451/7 96/452/7
f 48/449/7 92/450/7 96/452/7
f 184/466/6 170/467/6 169/468/6
f 182/469/6 184/466/6 169/468/6
f 183/470/6 172/471/6 171/472/6
f 181/473/6 183/470/6 171/472/6
f 176/472/4 178/474/4 177/475/4
f 174/476/4 176/472/4 177/475/4
f 175/468/4 180/477/4 179/475/4
f 173/476/4 175/468/4 179/475/4
f 168/472/7 186/473/7 185/466/7
f 167/467/7 168/472/7 185/466/7
f 99/478/7 49/479/7 94/480/7
f 100/481/7 99/478/7 94/480/7
f 57/479/4 50/480/4 148/482/4
f 147/483/4 57/479/4 148/482/4
f 128/480/7 125/481/7 126/484/7
f 127/485/7 128/480/7 126/484/7
f 43/486/17 44/487/17 42/488/17
f 39/489/17 43/486/17 42/488/17
f 19/490/18 21/491/18 20/492/18
f 16/493/18 19/490/18 20/492/18
f 35/494/19 39/495/19 42/496/19
f 35/494/19 42/496/19 33/497/19
f 35/498/19 33/499/19 10/500/19
f 12/501/19 35/498/19 10/500/19
f 12/502/19 10/503/19 19/504/19
f 16/505/19 12/502/19 19/504/19
f 44/506/20 43/507/20 34/508/20
f 32/509/20 44/506/20 34/508/20
f 9/510/20 32/511/20 34/512/20
f 9/510/20 34/512/20 11/513/20
f 21/514/20 9/515/20 11/516/20
f 20/517/20 21/514/20 11/516/20
f 27/518/2 29/519/2 6/520/2
f 4/521/2 27/518/2 6/520/2
f 4/522/2 6/523/2 5/524/2
f 28/525/2 29/526/2 27/527/2
f 3/528/2 4/522/2 5/524/2
f 3/529/2 5/530/2 28/531/2
f 26/532/2 3/529/2 28/531/2
f 27/527/2 26/533/2 28/525/2
f 31/534/3 33/535/3 42/536/3
f 44/537/3 32/538/3 30/539/3
f 40/540/3 31/534/3 42/536/3
f 41/541/3 40/542/3 42/543/3
f 41/541/3 42/543/3 44/544/3
f 30/539/3 41/545/3 44/537/3
f 7/546/4 9/547/4 21/548/4
f 19/549/4 10/550/4 8/551/4
f 18/552/4 7/546/4 21/548/4
f 17/553/4 18/554/4 21/555/4
f 17/553/4 21/555/4 19/556/4
f 8/551/4 17/557/4 19/549/4
f 10/558/21 33/559/21 31/560/21
f 8/561/21 10/558/21 31/560/21
f 32/562/22 9/563/22 7/564/22
f 30/565/22 32/562/22 7/564/22
f 85/566/7 86/567/7 87/568/7
f 84/569/7 85/566/7 87/568/7
f 164/570/7 188/571/7 189/572/7
f 163/573/7 164/570/7 189/572/7
f 187/574/1 188/575/1 164/570/1
f 166/576/1 187/574/1 164/570/1
f 163/573/4 165/577/4 166/576/4
f 164/570/4 163/573/4 166/576/4
f 190/578/6 187/579/6 166/576/6
f 165/577/6 190/578/6 166/576/6
f 189/580/2 190/581/2 165/577/2
f 163/573/2 189/580/2 165/577/2
f 153/582/4 141/583/4 146/584/4
f 154/585/4 153/582/4 146/584/4
f 295/586/3 301/587/3 302/588/3
f 297/589/3 295/586/3 302/588/3
f 297/589/6 298/590/6 296/591/6
f 295/586/6 297/589/6 296/591/6
f 298/590/4 299/592/4 300/593/4
f 296/591/4 298/590/4 300/593/4
f 302/594/1 299/595/1 298/590/1
f 297/589/1 302/594/1 298/590/1
f 73/596/7 72/597/7 71/598/7
f 70/599/7 73/596/7 71/598/7
f 60/600/4 69/601/4 73/596/4
f 70/599/4 60/600/4 73/596/4
f 77/602/7 76/603/7 74/604/7
f 75/605/7 77/602/7 74/604/7
f 77/606/4 75/607/4 67/608/4
f 63/609/4 77/606/4 67/608/4
f 81/610/7 80/611/7 78/612/7
f 79/613/7 81/610/7 78/612/7
f 81/614/4 79/615/4 64/616/4
f 83/617/4 81/614/4 64/616/4
f 71/598/3 72/597/3 66/618/3
f 61/619/3 71/598/3 66/618/3
f 74/620/3 76/621/3 62/622/3
f 68/623/3 74/620/3 62/622/3
f 78/624/3 80/625/3 82/626/3
f 65/627/3 78/624/3 82/626/3
f 63/609/1 64/616/1 79/615/1
f 78/624/1 65/627/1 62/622/1
f 77/606/1 63/609/1 79/615/1
f 78/624/1 62/622/1 76/621/1
f 76/603/1 77/602/1 79/613/1
f 78/612/1 76/603/1 79/613/1
f 69/601/1 67/608/1 75/607/1
f 74/620/1 68/623/1 66/618/1
f 73/596/1 69/601/1 75/607/1
f 74/620/1 66/618/1 72/597/1
f 72/597/1 73/596/1 75/605/1
f 74/604/1 72/597/1 75/605/1
f 85/628/1 84/629/1 90/630/1
f 91/631/1 85/628/1 90/630/1
f 90/630/1 82/632/1 80/611/1
f 90/630/1 80/611/1 81/610/1
f 91/631/1 90/630/1 81/610/1
f 83/633/1 91/631/1 81/610/1
f 157/634/6 158/635/6 152/636/6
f 150/637/6 157/634/6 152/636/6
f 151/638/7 155/639/7 156/640/7
f 149/641/7 151/638/7 156/640/7
f 152/636/4 151/638/4 149/642/4
f 150/643/4 152/636/4 149/642/4
f 152/636/1 158/635/1 159/644/1
f 162/645/1 155/639/1 151/638/1
f 151/638/1 152/636/1 159/644/1
f 153/646/1 154/647/1 162/645/1
f 159/644/1 153/646/1 162/645/1
f 151/638/1 159/644/1 162/645/1
f 279/648/4 288/649/4 287/650/4
f 280/651/4 279/648/4 287/650/4
f 293/652/4 294/653/4 284/654/4
f 283/655/4 293/652/4 284/654/4
f 294/653/6 291/656/6 285/657/6
f 284/654/6 294/653/6 285/657/6
f 284/658/1 285/659/1 286/660/1
f 283/655/1 284/658/1 286/660/1
f 292/661/7 293/652/7 283/655/7
f 286/660/7 292/661/7 283/655/7
f 291/662/3 292/661/3 286/660/3
f 285/663/3 291/662/3 286/660/3
f 289/664/6 288/649/6 279/648/6
f 282/665/6 289/664/6 279/648/6
f 290/666/3 289/667/3 282/668/3
f 281/669/3 290/666/3 282/668/3
f 287/650/7 290/666/7 281/669/7
f 280/651/7 287/650/7 281/669/7
f 289/670/1 293/671/1 292/672/1
f 288/673/1 289/670/1 292/672/1
f 287/650/1 288/673/1 292/672/1
f 293/671/1 289/670/1 290/666/1
f 287/650/1 292/672/1 291/674/1
f 290/666/1 287/650/1 291/674/1
f 290/666/1 291/674/1 294/675/1
f 293/671/1 290/666/1 294/675/1
