# Blender 4.4.1
# www.blender.org
mtllib rural_road.mtl
o rural_road
v 3.641452 0.010577 -7.072990
v 4.958039 -2.995221 -7.072990
v 3.641452 0.010578 7.072990
v 4.958039 -2.995220 7.072990
v -3.641452 0.010577 -7.072990
v -4.949514 -2.995221 -7.072990
v -3.641452 0.010578 7.072990
v -4.949514 -2.995220 7.072990
v -4.967010 -2.995221 -5.304742
v -4.949514 -2.995221 -3.536495
v -5.031487 -2.995221 -1.768247
v -4.949514 -2.995221 0.000000
v -5.031487 -2.995221 1.768248
v -4.967010 -2.995221 3.536495
v -5.031487 -2.995220 5.304742
v 3.581195 0.010577 -5.304742
v 3.628591 0.010577 -3.536495
v 3.628591 0.010578 -1.768248
v 3.581195 0.010578 -0.000000
v 3.641452 0.010578 1.768248
v 3.568334 0.010578 3.536495
v 3.641452 0.010578 5.304742
v -3.701710 0.010578 5.304742
v -3.654314 0.010578 3.536495
v -3.701710 0.010578 1.768248
v -3.641452 0.010578 -0.000000
v -3.701710 0.010578 -1.768248
v -3.641452 0.010577 -3.536495
v -3.654314 0.010577 -5.304742
v 4.958039 -2.995220 5.304742
v 4.858570 -2.995221 3.536495
v 4.958039 -2.995221 1.768248
v 4.876066 -2.995221 0.000000
v 4.940543 -2.995221 -1.768247
v 4.940543 -2.995221 -3.536495
v 4.876066 -2.995221 -5.304742
v 4.191472 -2.995221 -7.072990
v -4.182945 -2.995221 -7.072990
v 3.077958 0.179891 7.072990
v -3.077958 0.179891 7.072990
v -4.182945 -2.995220 7.072990
v 4.191472 -2.995220 7.072990
v -3.077958 0.179890 -7.072990
v 3.077958 0.179890 -7.072990
v 4.191472 -2.995221 -5.304742
v -4.182945 -2.995221 -5.304742
v 4.191472 -2.995221 -3.536495
v -4.182945 -2.995221 -3.536495
v 4.191472 -2.995221 -1.768247
v -4.182945 -2.995221 -1.768247
v 4.191472 -2.995221 0.000000
v -4.182945 -2.995221 0.000000
v 4.191472 -2.995221 1.768248
v -4.182945 -2.995221 1.768248
v 4.191472 -2.995221 3.536495
v -4.182945 -2.995221 3.536495
v 4.191472 -2.995220 5.304742
v -4.182945 -2.995220 5.304742
v -3.077958 0.179890 -5.304742
v 3.077958 0.179890 -5.304742
v -3.077958 0.179890 -3.536495
v 3.077958 0.179890 -3.536495
v -3.077958 0.179890 -1.768248
v 3.077958 0.179890 -1.768248
v -3.077958 0.179890 -0.000000
v 3.077958 0.179890 -0.000000
v -3.077958 0.179890 1.768248
v 3.077958 0.179890 1.768248
v -3.077958 0.179890 3.536495
v 3.077958 0.179890 3.536495
v -3.077958 0.179891 5.304742
v 3.077958 0.179891 5.304742
vn -0.2878 0.9577 -0.0000
vn -0.0000 -0.0000 1.0000
vn -0.9165 0.4000 -0.0087
vn -0.9168 0.3992 -0.0071
vn -0.9164 0.4002 -0.0091
vn -0.0000 -1.0000 -0.0000
vn 0.9160 0.4012 -0.0000
vn -0.0000 -0.0000 -1.0000
vn 0.9156 0.4000 0.0407
vn 0.9176 0.3962 0.0330
vn 0.9152 0.4009 0.0424
vn 0.9178 0.3962 -0.0260
vn 0.9163 0.3991 -0.0321
vn 0.9160 0.3998 -0.0334
vn 0.9165 0.4000 -0.0000
vn 0.9163 0.3991 0.0321
vn 0.9178 0.3962 0.0260
vn 0.9160 0.3998 0.0334
vn 0.9175 0.3963 -0.0330
vn 0.9156 0.4000 -0.0407
vn 0.9152 0.4009 -0.0424
vn 0.9148 0.4007 0.0515
vn 0.9148 0.4007 -0.0515
vn -0.9161 0.3996 0.0329
vn -0.9141 0.4033 0.0407
vn -0.9137 0.4042 0.0424
vn -0.9143 0.4038 -0.0320
vn -0.9158 0.4008 -0.0259
vn -0.9140 0.4044 -0.0333
vn -0.9158 0.4008 0.0259
vn -0.9143 0.4038 0.0320
vn -0.9140 0.4044 0.0333
vn -0.9141 0.4033 -0.0407
vn -0.9161 0.3996 -0.0329
vn -0.9137 0.4042 -0.0424
vn -0.9168 0.3992 0.0071
vn -0.9165 0.4000 0.0088
vn -0.9164 0.4002 0.0091
vn -0.2832 0.9591 -0.0017
vn -0.2868 0.9580 -0.0000
vn -0.2840 0.9588 0.0014
vn -0.2819 0.9595 -0.0000
vn 0.2877 0.9576 -0.0119
vn 0.2878 0.9577 0.0004
vn 0.2878 0.9577 -0.0059
vn -0.0000 1.0000 -0.0000
vn 0.2877 0.9576 0.0119
vn 0.2877 0.9577 -0.0098
vn 0.2939 0.9558 0.0075
vn 0.2939 0.9558 0.0079
vn 0.2939 0.9558 -0.0000
vn 0.2939 0.9558 0.0003
vn 0.2939 0.9558 -0.0039
vn 0.2939 0.9558 -0.0079
vn 0.2877 0.9577 0.0098
vn 0.2878 0.9577 -0.0000
vn -0.2620 0.9650 0.0089
vn -0.9169 0.3990 -0.0067
vn 0.9180 0.3954 0.0313
vn 0.9181 0.3955 -0.0246
vn 0.9181 0.3955 0.0246
vn 0.9180 0.3954 -0.0313
vn 0.9183 0.3942 0.0380
vn 0.9183 0.3942 -0.0380
vn -0.9165 0.3988 0.0312
vn -0.9161 0.4001 -0.0246
vn -0.9161 0.4001 0.0246
vn -0.9165 0.3988 -0.0312
vn -0.9169 0.3990 0.0067
vn -0.2620 0.9650 -0.0089
vn -0.2620 0.9651 0.0070
vn -0.2620 0.9651 -0.0070
vn 0.3264 0.9452 -0.0000
vn 0.3189 0.9478 -0.0000
vt 0.142981 0.315343
vt 0.107000 0.220203
vt 0.142981 0.220203
vt 0.961543 0.067832
vt 0.786226 0.034965
vt 0.961543 0.034965
vt 0.107717 0.176784
vt 0.024495 0.035318
vt 0.107717 0.035318
vt 0.956816 0.376325
vt 0.943442 0.418294
vt 0.943442 0.376325
vt 0.108639 0.175553
vt 0.025725 0.034610
vt 0.108639 0.034610
vt 0.960930 0.068097
vt 0.786168 0.035335
vt 0.960930 0.035335
vt 0.689039 0.175553
vt 0.606125 0.034610
vt 0.689039 0.034610
vt 0.523210 0.175553
vt 0.523210 0.034610
vt 0.440296 0.034610
vt 0.440296 0.175553
vt 0.357382 0.034610
vt 0.274468 0.175553
vt 0.274468 0.034610
vt 0.191554 0.034610
vt 0.943442 0.082542
vt 0.955386 0.124511
vt 0.943442 0.124511
vt 0.943442 0.166480
vt 0.956511 0.166480
vt 0.943442 0.208449
vt 0.955386 0.250418
vt 0.943442 0.250418
vt 0.943442 0.292387
vt 0.955081 0.334356
vt 0.943442 0.334356
vt 0.690268 0.035318
vt 0.607047 0.176784
vt 0.607047 0.035318
vt 0.523825 0.035318
vt 0.440603 0.176784
vt 0.440603 0.035318
vt 0.357382 0.035318
vt 0.274160 0.176784
vt 0.274160 0.035318
vt 0.190939 0.035318
vt 0.107000 0.981322
vt 0.142981 0.886182
vt 0.142981 0.981322
vt 0.107000 0.791043
vt 0.142981 0.791043
vt 0.142981 0.695903
vt 0.107000 0.600763
vt 0.142981 0.600763
vt 0.142981 0.505623
vt 0.106179 0.410483
vt 0.142981 0.410483
vt 0.567362 0.410483
vt 0.536050 0.315343
vt 0.572030 0.315343
vt 0.536050 0.410483
vt 0.536050 0.505623
vt 0.572030 0.505623
vt 0.568183 0.600763
vt 0.536050 0.600763
vt 0.536050 0.695903
vt 0.571209 0.695903
vt 0.536050 0.791043
vt 0.571209 0.791043
vt 0.568183 0.886182
vt 0.536050 0.886182
vt 0.536050 0.981322
vt 0.572030 0.981322
vt 0.783653 0.334356
vt 0.797332 0.376325
vt 0.782528 0.376325
vt 0.797332 0.334356
vt 0.797332 0.292387
vt 0.782528 0.292387
vt 0.783958 0.250418
vt 0.797332 0.250418
vt 0.797332 0.208449
vt 0.782528 0.208449
vt 0.783958 0.166480
vt 0.797332 0.166480
vt 0.797332 0.124511
vt 0.783653 0.124511
vt 0.783958 0.082542
vt 0.797332 0.082542
vt 0.786168 0.458774
vt 0.960930 0.426012
vt 0.960930 0.458774
vt 0.776324 0.068097
vt 0.783958 0.418294
vt 0.797332 0.418294
vt 0.786226 0.459748
vt 0.961543 0.426882
vt 0.961543 0.459748
vt 0.776351 0.426882
vt 0.572030 0.220203
vt 0.536050 0.220203
vt 0.103153 0.315343
vt 0.776351 0.067832
vt 0.024495 0.176784
vt 0.956816 0.418294
vt 0.025725 0.175553
vt 0.606125 0.175553
vt 0.357382 0.175553
vt 0.191554 0.175553
vt 0.956816 0.082542
vt 0.956511 0.208449
vt 0.956816 0.292387
vt 0.690268 0.176784
vt 0.523825 0.176784
vt 0.357382 0.176784
vt 0.190939 0.176784
vt 0.106179 0.886182
vt 0.103153 0.695903
vt 0.103153 0.505623
vt 0.776324 0.426012
s 1
usemtl mat_rural_road
f 71/1/1 7/2/1 40/3/1
f 41/4/2 7/5/2 8/6/2
f 29/7/3 6/8/4 9/9/5
f 30/10/6 42/11/6 57/12/6
f 22/13/7 4/14/7 30/15/7
f 37/16/8 1/17/8 2/18/8
f 1/19/9 36/20/10 2/21/11
f 36/20/12 17/22/13 35/23/14
f 17/22/15 34/24/15 35/23/15
f 18/25/16 33/26/17 34/24/18
f 33/26/19 20/27/20 32/28/21
f 20/27/22 31/29/22 32/28/22
f 31/29/23 22/13/23 30/15/23
f 37/30/6 36/31/6 45/32/6
f 36/31/6 47/33/6 45/32/6
f 35/34/6 49/35/6 47/33/6
f 49/35/6 33/36/6 51/37/6
f 33/36/6 53/38/6 51/37/6
f 53/38/6 31/39/6 55/40/6
f 31/39/6 57/12/6 55/40/6
f 8/41/24 23/42/25 15/43/26
f 23/42/27 14/44/28 15/43/29
f 14/44/30 25/45/31 13/46/32
f 25/45/33 12/47/34 13/46/35
f 12/47/24 27/48/25 11/49/26
f 27/48/33 10/50/34 11/49/35
f 10/50/36 29/7/37 9/9/38
f 5/51/39 59/52/40 43/53/1
f 59/52/40 28/54/41 61/55/1
f 28/54/41 63/56/1 61/55/1
f 63/56/1 26/57/1 65/58/1
f 26/57/1 67/59/1 65/58/1
f 67/59/42 24/60/42 69/61/42
f 24/60/42 71/1/42 69/61/42
f 21/62/43 72/63/44 22/64/45
f 69/61/46 72/63/46 70/65/46
f 68/66/47 21/62/47 20/67/47
f 67/59/46 70/65/46 68/66/46
f 19/68/48 68/66/48 20/67/48
f 65/58/46 68/66/46 66/69/46
f 64/70/49 19/68/50 18/71/51
f 63/56/46 66/69/46 64/70/46
f 62/72/52 18/71/51 17/73/53
f 61/55/46 64/70/46 62/72/46
f 16/74/54 62/72/52 17/73/53
f 59/52/46 62/72/46 60/75/46
f 44/76/55 16/74/55 1/77/55
f 43/53/46 60/75/46 44/76/46
f 14/78/6 58/79/6 15/80/6
f 55/40/6 58/79/6 56/81/6
f 54/82/6 14/78/6 13/83/6
f 53/38/6 56/81/6 54/82/6
f 12/84/6 54/82/6 13/83/6
f 51/37/6 54/82/6 52/85/6
f 50/86/6 12/84/6 11/87/6
f 49/35/6 52/85/6 50/86/6
f 10/88/6 50/86/6 11/87/6
f 47/33/6 50/86/6 48/89/6
f 46/90/6 10/88/6 9/91/6
f 45/32/6 48/89/6 46/90/6
f 6/92/6 46/90/6 9/91/6
f 37/30/6 46/90/6 38/93/6
f 5/94/8 38/95/8 6/96/8
f 38/95/8 44/97/8 37/16/8
f 58/79/6 8/98/6 15/80/6
f 57/12/6 41/99/6 58/79/6
f 3/100/2 42/101/2 4/102/2
f 39/103/2 41/4/2 42/101/2
f 72/63/44 3/104/56 22/64/45
f 71/1/46 39/105/46 72/63/46
f 71/1/57 23/106/57 7/2/57
f 41/4/2 40/107/2 7/5/2
f 29/7/3 5/108/58 6/8/4
f 30/10/6 4/109/6 42/11/6
f 22/13/7 3/110/7 4/14/7
f 37/16/8 44/97/8 1/17/8
f 1/19/9 16/111/59 36/20/10
f 36/20/12 16/111/60 17/22/13
f 17/22/15 18/25/15 34/24/15
f 18/25/16 19/112/61 33/26/17
f 33/26/19 19/112/62 20/27/20
f 20/27/63 21/113/63 31/29/63
f 31/29/64 21/113/64 22/13/64
f 37/30/6 2/114/6 36/31/6
f 36/31/6 35/34/6 47/33/6
f 35/34/6 34/115/6 49/35/6
f 49/35/6 34/115/6 33/36/6
f 33/36/6 32/116/6 53/38/6
f 53/38/6 32/116/6 31/39/6
f 31/39/6 30/10/6 57/12/6
f 8/41/24 7/117/65 23/42/25
f 23/42/27 24/118/66 14/44/28
f 14/44/30 24/118/67 25/45/31
f 25/45/33 26/119/68 12/47/34
f 12/47/24 26/119/65 27/48/25
f 27/48/33 28/120/68 10/50/34
f 10/50/36 28/120/69 29/7/37
f 5/51/39 29/121/42 59/52/40
f 59/52/40 29/121/42 28/54/41
f 28/54/70 27/122/70 63/56/70
f 63/56/57 27/122/57 26/57/57
f 26/57/70 25/123/70 67/59/70
f 67/59/71 25/123/71 24/60/71
f 24/60/72 23/106/72 71/1/72
f 21/62/73 70/65/73 72/63/73
f 69/61/46 71/1/46 72/63/46
f 68/66/73 70/65/73 21/62/73
f 67/59/46 69/61/46 70/65/46
f 19/68/74 66/69/74 68/66/74
f 65/58/46 67/59/46 68/66/46
f 64/70/74 66/69/74 19/68/74
f 63/56/46 65/58/46 66/69/46
f 62/72/52 64/70/49 18/71/51
f 61/55/46 63/56/46 64/70/46
f 16/74/74 60/75/74 62/72/74
f 59/52/46 61/55/46 62/72/46
f 44/76/74 60/75/74 16/74/74
f 43/53/46 59/52/46 60/75/46
f 14/78/6 56/81/6 58/79/6
f 55/40/6 57/12/6 58/79/6
f 54/82/6 56/81/6 14/78/6
f 53/38/6 55/40/6 56/81/6
f 12/84/6 52/85/6 54/82/6
f 51/37/6 53/38/6 54/82/6
f 50/86/6 52/85/6 12/84/6
f 49/35/6 51/37/6 52/85/6
f 10/88/6 48/89/6 50/86/6
f 47/33/6 49/35/6 50/86/6
f 46/90/6 48/89/6 10/88/6
f 45/32/6 47/33/6 48/89/6
f 6/92/6 38/93/6 46/90/6
f 37/30/6 45/32/6 46/90/6
f 5/94/8 43/124/8 38/95/8
f 38/95/8 43/124/8 44/97/8
f 58/79/6 41/99/6 8/98/6
f 57/12/6 42/11/6 41/99/6
f 3/100/2 39/103/2 42/101/2
f 39/103/2 40/107/2 41/4/2
f 72/63/44 39/105/56 3/104/56
f 71/1/46 40/3/46 39/105/46
