# Blender 4.4.1
# www.blender.org
mtllib bunker.mtl
o bunker
v -1.978256 -0.046267 -2.693612
v -1.718322 -0.046267 2.866429
v -2.089500 -0.046267 2.626440
v -2.324986 -0.046267 -2.410673
v 2.618962 -0.046267 -1.566865
v 1.082028 -0.046267 -2.836682
v 1.324478 -0.046267 2.724177
v 2.755030 -0.046267 1.343653
v 1.042551 -0.046267 2.325725
v 2.412709 -0.046268 1.233396
v 2.315609 -0.046268 -1.407753
v 0.802849 -0.046267 -2.339946
v -1.795977 -0.046267 2.458119
v -1.994351 -0.046267 -2.252573
v -2.229726 -0.046267 -0.373040
v -1.916027 -0.046267 -0.390123
v -2.183343 -0.046267 0.619118
v -1.873845 -0.046267 0.602122
v 1.082028 1.814824 -2.836682
v -1.978256 1.814824 -2.693612
v -2.089500 1.814824 2.626440
v -1.718323 1.814824 2.866429
v -2.324987 1.814824 -2.410673
v -1.795978 1.814824 2.458119
v 1.042551 1.814825 2.325725
v 2.755029 1.814824 1.343653
v 2.618962 1.814824 -1.566865
v 2.412708 1.814824 1.233396
v 1.324477 1.814824 2.724177
v -2.183343 1.814824 0.619118
v 2.315609 1.814823 -1.407753
v 0.802849 1.814825 -2.339946
v -1.994351 1.814824 -2.252573
v -1.873845 1.814824 0.602123
v -2.229727 1.814824 -0.373040
v -1.916027 1.814824 -0.390123
v 0.700765 2.073126 -2.345860
v -2.113168 2.073126 -2.201551
v -1.926142 2.073126 2.412074
v -1.895291 2.073126 2.415998
v -2.139914 2.073126 -2.203435
v -1.668328 1.899236 2.180064
v 0.813255 1.899236 2.064305
v 2.198661 2.073126 1.121769
v 2.085627 2.073126 -1.296053
v 1.992923 1.899235 1.026501
v 0.902173 2.073126 2.273650
v -2.037008 2.073126 0.572416
v 1.912261 1.899235 -1.167552
v 0.650172 1.899236 -2.082758
v -1.844422 1.899236 -2.002186
v -1.747957 1.899236 0.510503
v -2.081505 2.073126 -0.379382
v -1.784620 1.899236 -0.348453
v 2.755029 1.355473 1.343653
v 2.618962 1.342566 -1.566865
v 2.618962 0.968313 -1.566865
v 2.755029 0.982382 1.343653
v 2.315609 1.255325 -1.407753
v 2.412709 1.262416 1.233396
v 2.315609 1.014136 -1.407753
v 2.412709 1.025701 1.233396
v 2.389524 1.020465 0.482045
v 2.703083 0.975708 0.232502
v 2.340750 1.018034 -0.679867
v 2.669203 0.973504 -0.492192
v 2.389860 1.259102 0.481045
v 2.703009 1.348975 0.230924
v 2.340575 1.257770 -0.679201
v 2.669113 1.347958 -0.494115
v 1.324478 1.330493 2.724177
v -1.718322 1.339041 2.866429
v 1.324478 0.943091 2.724177
v -1.718322 0.979843 2.866429
v -1.978256 1.217224 -2.693612
v 1.082028 1.240328 -2.836682
v -1.978256 0.847901 -2.693612
v 1.082028 0.898095 -2.836682
v 0.072826 1.231954 -2.789501
v 0.073140 0.879908 -2.789516
v 0.241054 0.957349 2.774827
v 0.240641 1.333811 2.774846
v 1.042551 1.012903 2.325725
v 1.042551 1.290221 2.325725
v 0.459526 1.282899 2.352860
v 0.466048 1.012306 2.352556
v 0.807352 0.954151 -2.340157
v 0.807351 1.213771 -2.340157
v 0.341227 1.205676 -2.334274
v 0.343343 0.947394 -2.334341
v 2.584393 1.814824 1.738884
v 2.593913 -0.046267 1.727967
v 2.110173 2.073126 1.200387
v 2.462768 1.814824 -1.903230
v 2.432130 -0.046267 -1.933345
v 1.967504 2.073126 -1.385597
v 1.488334 1.814824 -2.768791
v 0.793687 2.073126 -2.275420
v 1.480681 -0.046267 -2.774749
v 1.743883 1.814824 2.606552
v 1.013787 2.073126 2.174486
v 1.761490 -0.046267 2.592371
v -1.873845 1.636550 0.602123
v -2.183343 1.640441 0.619118
v -2.229727 1.621979 -0.373040
v -1.916027 1.622860 -0.390123
vn -0.9993 0.0010 0.0367
vn 0.9989 -0.0000 -0.0467
vn -0.6234 -0.0000 -0.7819
vn -0.0000 -1.0000 -0.0000
vn -0.2006 -0.9796 0.0074
vn -0.1262 -0.9737 0.1895
vn -0.1364 -0.9771 -0.1632
vn 0.9991 -0.0000 -0.0419
vn -0.0548 -0.0000 -0.9985
vn -0.0466 -0.0000 -0.9989
vn 0.2796 -0.0023 0.9601
vn -0.9989 -0.0000 0.0467
vn 0.0317 -0.0000 0.9995
vn -0.6322 -0.0000 -0.7748
vn 0.0467 -0.0000 0.9989
vn 0.0544 -0.0000 0.9985
vn -0.5430 -0.0000 0.8398
vn -0.0467 -0.0000 -0.9989
vn 0.8987 -0.0038 -0.4386
vn -0.5253 -0.0000 0.8509
vn 0.9991 -0.0000 -0.0420
vn -0.8457 0.5325 0.0337
vn 0.4276 0.9038 -0.0200
vn 0.1441 0.9245 0.3530
vn 0.5299 -0.8477 -0.0237
vn 0.0100 -0.9488 0.3156
vn -0.0138 -0.9550 -0.2963
vn -0.3965 0.7518 -0.5269
vn -0.8466 0.5303 0.0451
vn -0.3513 0.7358 0.5790
vn 0.0237 0.8740 0.4854
vn 0.3122 0.9285 -0.2011
vn 0.5302 -0.8476 -0.0208
vn -0.0232 0.8799 -0.4747
vn -0.0000 1.0000 -0.0000
vn 0.5453 -0.8379 -0.0232
vn -0.8662 0.4980 0.0405
vn -0.9993 -0.0020 0.0367
vn 0.3066 -0.0000 -0.9518
vn 0.1307 0.9914 -0.0116
vn 0.4645 -0.0000 0.8856
vn 0.2677 -0.9635 -0.0057
vn 0.6233 0.0030 0.7820
vn 0.1420 0.9898 -0.0109
vn -0.9991 0.0004 0.0422
vn 0.2706 -0.9627 -0.0071
vn 0.4936 -0.0016 -0.8697
vn -0.8163 -0.0000 0.5776
vn 0.0075 -0.9939 0.1099
vn 0.0151 0.9887 0.1493
vn -0.0214 0.9914 -0.1288
vn 0.8851 0.0093 0.4654
vn -0.8750 -0.0000 -0.4841
vn 0.0092 -0.9984 -0.0554
vn 0.8606 0.0035 -0.5093
vn 0.9991 -0.0000 -0.0425
vn 0.3308 0.9262 0.1809
vn 0.9201 0.0012 0.3916
vn 0.2017 0.9478 -0.2469
vn 0.6633 0.0004 -0.7484
vn 0.1030 0.9226 -0.3717
vn 0.1592 0.0013 -0.9872
vn 0.2200 0.9477 0.2314
vn 0.7193 0.0006 0.6947
vn -0.0039 -0.9999 0.0164
vt 0.604244 0.058873
vt 0.919866 0.056889
vt 0.922200 0.240630
vt 0.841923 0.240237
vt 0.684662 0.240809
vt 0.606554 0.240631
vt 0.116914 0.232048
vt 1.004233 0.240059
vt 1.002141 0.652024
vt 0.688619 0.651302
vt 0.440010 0.649952
vt 0.114793 0.649726
vt 0.798086 0.072375
vt 0.943625 0.073426
vt 0.942971 0.234357
vt 0.942799 0.276492
vt 0.942475 0.356201
vt 0.796937 0.355149
vt 0.797278 0.271216
vt 0.797424 0.235250
vt 0.574683 0.008924
vt 0.840670 0.008907
vt 0.874993 0.015695
vt 0.954097 0.090352
vt 0.968815 0.121975
vt 0.968815 0.367809
vt 0.953283 0.399565
vt 0.877586 0.469142
vt 0.839151 0.478531
vt 0.574683 0.478548
vt 0.543465 0.456861
vt 0.543465 0.287314
vt 0.570375 0.287100
vt 0.569603 0.443830
vt 0.816316 0.443840
vt 0.939574 0.357170
vt 0.941861 0.134191
vt 0.814444 0.049673
vt 0.571499 0.046031
vt 0.570740 0.203307
vt 0.543465 0.203512
vt 0.543465 0.031405
vt 0.919178 0.004374
vt 0.986536 0.187326
vt 0.951645 0.191314
vt 0.895689 0.039332
vt 0.788955 0.005408
vt 0.783902 0.030448
vt 0.627387 0.117263
vt 0.739657 0.037537
vt 0.756920 0.058357
vt 0.659933 0.134499
vt 0.878730 0.309842
vt 0.733773 0.307579
vt 0.735953 0.058484
vt 0.736184 0.032096
vt 0.881141 0.034358
vt 0.150844 0.295179
vt 0.210220 0.296594
vt 0.205035 0.683470
vt 0.145671 0.681163
vt 0.729762 0.027018
vt 0.962881 0.028737
vt 0.961445 0.374935
vt 0.728326 0.373216
vt 0.728731 0.275630
vt 0.776615 0.274621
vt 0.776288 0.224282
vt 0.728945 0.224044
vt 0.568537 0.311841
vt 0.636048 0.311802
vt 0.632151 0.875668
vt 0.568372 0.875711
vt 0.568415 0.728969
vt 0.568450 0.611595
vt 0.464472 0.096911
vt 0.744656 0.098429
vt 0.742528 0.796832
vt 0.462343 0.795314
vt 0.462543 0.729874
vt 0.820029 0.032683
vt 0.990808 0.032779
vt 0.998125 0.182457
vt 0.965363 0.181431
vt 0.965182 0.220072
vt 0.998073 0.221299
vt 0.990436 0.311217
vt 0.819657 0.311121
vt 0.681769 0.076828
vt 0.752673 0.077840
vt 0.749221 0.754328
vt 0.678318 0.753316
vt 0.679426 0.536094
vt 0.680111 0.401850
vt 0.183838 0.320475
vt 0.565437 0.319744
vt 0.565349 0.612360
vt 0.429475 0.616837
vt 0.183747 0.623961
vt 0.277717 0.265009
vt 0.334182 0.264912
vt 0.334182 0.647816
vt 0.277717 0.647711
vt 0.115566 0.157768
vt 0.188182 0.158609
vt 0.186157 0.469487
vt 0.185448 0.578312
vt 0.184509 0.722458
vt 0.111893 0.721617
vt 0.208256 0.061946
vt 0.678664 0.069665
vt 0.675936 0.397433
vt 0.360510 0.403991
vt 0.205374 0.408113
vt 0.258004 0.070809
vt 0.341976 0.070964
vt 0.333394 0.812409
vt 0.257286 0.812268
vt 0.257468 0.624120
vt 0.257612 0.475018
vt 0.702645 0.028734
vt 0.883023 0.031363
vt 0.881065 0.197379
vt 0.880620 0.235139
vt 0.879587 0.322734
vt 0.699210 0.320105
vt 0.709467 0.226138
vt 0.709946 0.185492
vt 0.896386 0.401241
vt 0.736758 0.406405
vt 0.731248 0.104101
vt 0.890876 0.098937
vt 0.891444 0.130118
vt 0.041570 0.094620
vt 0.325985 0.096161
vt 0.324077 0.722196
vt 0.323856 0.794564
vt 0.039441 0.793023
vt 0.002987 0.803296
vt 0.170626 0.802300
vt 0.184023 0.859354
vt 0.036438 0.860231
vt 0.574758 0.704041
vt 0.688153 0.911727
vt 0.636214 0.935398
vt 0.542015 0.762869
vt 0.539721 0.851150
vt 0.596981 0.864067
vt 0.496092 0.926000
vt 0.480418 0.913575
vt 0.711509 0.460920
vt 0.663481 0.332783
vt 0.670512 0.320730
vt 0.714405 0.435571
vt 0.589557 0.135728
vt 0.606136 0.146857
vt 0.965142 0.036520
vt 0.954049 0.057467
vt 0.064667 0.985830
vt 0.012598 0.938463
vt 0.032249 0.900142
vt 0.036102 0.899579
vt 0.398933 0.869528
vt 0.578905 0.868458
vt 0.577358 0.930732
vt 0.409913 0.931727
vt 0.080387 0.885745
vt 0.128858 0.851609
vt 0.102608 0.912465
vt 0.098477 0.913181
vt 0.314031 0.893129
vt 0.274445 0.935565
vt 0.207849 0.807365
vt 0.230989 0.802261
vt 0.637765 0.264303
vt 0.648240 0.261456
vt 0.508052 0.985210
vt 0.443882 0.901277
vt 0.955620 0.004483
vt 0.956492 0.155141
vt 0.956542 0.232635
vt 0.955639 0.381793
vt 0.724146 0.379616
vt 0.610753 0.292422
vt 0.611829 0.094525
vt 0.725195 0.005523
vt 0.418293 0.939473
vt 0.252974 0.938923
vt 0.251412 0.939105
vt 0.249752 0.833865
vt 0.249707 0.778911
vt 0.251078 0.672627
vt 0.252875 0.672316
vt 0.417223 0.672798
vt 0.424041 0.678203
vt 0.491011 0.731294
vt 0.496416 0.735579
vt 0.496530 0.875175
vt 0.489856 0.880660
vt 0.423542 0.935158
vt 0.252253 0.801815
vt 0.262329 0.858889
vt 0.114025 0.801218
vt 0.439782 0.801521
vt 0.688507 0.803353
vt 1.001370 0.803988
vt 1.000396 0.995746
vt 0.113078 0.987735
vt 0.607079 0.281972
vt 0.685246 0.281900
vt 0.842359 0.281141
vt 0.922716 0.281204
vt 0.923919 0.375889
vt 0.608297 0.377873
vt 0.652883 0.701957
vt 0.634959 0.831639
vt 0.554397 0.828124
vt 0.525906 0.696416
vt 0.065924 0.580997
vt 0.241369 0.587719
vt 0.195818 0.684534
vt 0.084390 0.683857
vt 0.812248 0.505684
vt 0.812248 0.584994
vt 0.740392 0.566547
vt 0.740392 0.515436
vt 0.849089 0.906666
vt 0.773001 0.878831
vt 0.775778 0.730061
vt 0.849089 0.672247
vt 0.577187 0.957418
vt 0.458706 0.957418
vt 0.487638 0.828388
vt 0.563386 0.828305
vt 0.699598 0.619346
vt 0.670971 0.533509
vt 0.816430 0.544619
vt 0.792457 0.624140
vt 0.643723 0.606959
vt 0.559129 0.867395
vt 0.276219 0.885452
vt 0.202068 0.646361
vt 0.759313 0.688138
vt 0.748716 0.758366
vt 0.691609 0.758213
vt 0.670114 0.688622
vt 0.183715 0.730198
vt 0.429390 0.728181
vt 0.565315 0.726939
vt 0.565272 0.870187
vt 0.183673 0.870917
vt 0.204330 0.533563
vt 0.359484 0.533039
vt 0.674809 0.532812
vt 0.672985 0.751870
vt 0.202577 0.744151
vt 0.583019 0.646389
vt 0.518228 0.630258
vt 0.521820 0.560119
vt 0.588036 0.548407
vt 0.318480 0.746947
vt 0.259428 0.713771
vt 0.259459 0.632423
vt 0.318480 0.595737
vt 0.590393 0.574840
vt 0.562479 0.658480
vt 0.499909 0.660848
vt 0.472550 0.579260
vt 0.275238 0.427387
vt 0.149755 0.433010
vt 0.181381 0.323784
vt 0.248852 0.317099
vt 0.232336 0.704263
vt 0.248331 0.577613
vt 0.326023 0.579063
vt 0.340424 0.704451
vt 0.204557 0.477071
vt 0.123016 0.477071
vt 0.136372 0.377246
vt 0.198229 0.377246
vt 0.228929 0.496062
vt 0.101615 0.501767
vt 0.121584 0.389431
vt 0.190416 0.390022
vt 0.197311 0.504450
vt 0.099363 0.504450
vt 0.106700 0.362476
vt 0.178560 0.362335
vt 0.859988 0.217883
vt 0.820884 0.217884
vt 0.820884 0.028257
vt 0.857199 0.028255
vt 0.321616 0.809516
vt 0.335176 0.735232
vt 0.363932 0.749513
vt 0.331189 0.808342
vt 0.797948 0.871834
vt 0.800501 0.307969
vt 0.863687 0.308160
vt 0.863596 0.619818
vt 0.863562 0.732856
vt 0.863522 0.872029
vt 0.307284 0.745901
vt 0.370749 0.868074
vt 0.183849 0.928001
vt 0.088150 0.794241
vt 0.308591 0.775205
vt 0.317173 0.033760
vt 0.542898 0.034142
vt 0.540524 0.775598
vt 0.117435 0.907268
vt 0.070802 0.798067
vt 0.544663 0.772263
vt 0.551293 0.030861
vt 0.607428 0.031782
vt 0.604296 0.407991
vt 0.603161 0.544327
vt 0.601256 0.773191
vt 0.203010 0.824069
vt 0.239140 0.738178
vt 0.834605 0.312103
vt 0.832052 0.875968
vt 0.657413 0.706339
vt 0.618267 0.706629
vt 0.618794 0.586356
vt 0.657413 0.586048
s 0
usemtl mat_bunker
f 11/1/1 10/2/1 62/3/1 63/4/1 65/5/1 61/6/1
f 8/7/2 5/8/2 57/9/2 66/10/2 64/11/2 58/12/2
f 10/13/3 9/14/3 83/15/3 84/16/3 25/17/3 28/18/3 60/19/3 62/20/3
f 1/21/4 6/22/4 99/23/4 95/24/4 5/25/4 8/26/4 92/27/4 102/28/4 7/29/4 2/30/4 3/31/4 17/32/4 18/33/4 13/34/4 9/35/4 10/36/4 11/37/4 12/38/4 14/39/4 16/40/4 15/41/4 4/42/4
f 31/43/5 28/44/5 46/45/5 49/46/5
f 32/47/6 31/43/6 49/46/6 50/48/6
f 28/49/7 25/50/7 43/51/7 46/52/7
f 13/53/8 18/54/8 103/55/8 34/56/8 24/57/8
f 18/58/9 17/59/9 104/60/9 103/61/9
f 9/62/10 13/63/10 24/64/10 25/65/10 84/66/10 85/67/10 86/68/10 83/69/10
f 7/70/11 102/71/11 100/72/11 29/73/11 71/74/11 73/75/11
f 17/76/12 3/77/12 21/78/12 30/79/12 104/80/12
f 14/81/13 12/82/13 87/83/13 90/84/13 89/85/13 88/86/13 32/87/13 33/88/13
f 1/89/14 4/90/14 23/91/14 20/92/14 75/93/14 77/94/14
f 2/95/15 7/96/15 73/97/15 81/98/15 74/99/15
f 15/100/16 16/101/16 106/102/16 105/103/16
f 3/104/17 2/105/17 74/106/17 72/107/17 22/108/17 21/109/17
f 6/110/18 1/111/18 77/112/18 80/113/18 78/114/18
f 5/115/19 95/116/19 94/117/19 27/118/19 56/119/19 57/120/19
f 12/121/20 11/122/20 61/123/20 59/124/20 31/125/20 32/126/20 88/127/20 87/128/20
f 16/129/21 14/130/21 33/131/21 36/132/21 106/133/21
f 4/134/12 15/135/12 105/136/12 35/137/12 23/138/12
f 23/139/22 35/140/22 53/141/22 41/142/22
f 26/143/23 27/144/23 45/145/23 44/146/23
f 29/147/24 100/148/24 101/149/24 47/150/24
f 24/151/25 34/152/25 52/153/25 42/154/25
f 33/155/26 32/47/26 50/48/26 51/156/26
f 25/50/27 24/157/27 42/158/27 43/51/27
f 20/159/28 23/160/28 41/161/28 38/162/28
f 30/163/29 21/164/29 39/165/29 48/166/29
f 21/167/30 22/168/30 40/169/30 39/170/30
f 22/168/31 29/147/31 47/150/31 40/169/31
f 27/171/32 94/172/32 96/173/32 45/174/32
f 36/175/33 33/155/33 51/156/33 54/176/33
f 19/177/34 20/159/34 38/162/34 37/178/34
f 42/179/4 52/180/4 54/181/4 51/182/4 50/183/4 49/184/4 46/185/4 43/186/4
f 37/187/35 38/188/35 41/189/35 53/190/35 48/191/35 39/192/35 40/193/35 47/194/35 101/195/35 93/196/35 44/197/35 45/198/35 96/199/35 98/200/35
f 52/153/36 34/152/36 36/175/36 54/176/36
f 35/140/37 30/201/37 48/202/37 53/141/37
f 55/203/2 68/204/2 70/205/2 56/206/2 27/207/2 26/208/2
f 59/209/38 69/210/38 67/211/38 60/212/38 28/213/38 31/214/38
f 58/215/39 62/216/39 60/217/39 55/218/39
f 58/219/40 64/220/40 63/221/40 62/222/40
f 57/223/41 56/224/41 59/225/41 61/226/41
f 55/227/42 60/228/42 67/229/42 68/230/42
f 64/231/43 68/232/43 67/233/43 63/234/43
f 65/235/44 66/236/44 57/237/44 61/238/44
f 63/4/45 67/211/45 69/210/45 65/5/45
f 70/239/46 69/240/46 59/241/46 56/242/46
f 66/243/47 65/244/47 69/245/47 70/246/47
f 66/10/2 70/205/2 68/204/2 64/11/2
f 72/247/15 82/248/15 71/249/15 29/250/15 22/251/15
f 74/99/15 81/98/15 82/248/15 72/247/15
f 76/252/18 79/253/18 75/254/18 20/255/18 19/256/18
f 79/253/18 80/113/18 77/112/18 75/254/18
f 71/257/48 84/258/48 83/259/48 73/260/48
f 82/261/49 85/262/49 84/263/49 71/264/49
f 73/265/50 83/266/50 86/267/50 81/268/50
f 78/269/51 80/270/51 90/271/51 87/272/51
f 81/273/52 86/274/52 85/275/52 82/276/52
f 76/277/53 78/278/53 87/279/53 88/280/53
f 79/281/54 76/282/54 88/283/54 89/284/54
f 80/285/55 79/286/55 89/287/55 90/288/55
f 106/289/56 36/290/56 34/291/56 103/292/56
f 93/293/57 91/294/57 26/295/57 44/296/57
f 91/297/58 92/298/58 8/299/58 58/300/58 55/301/58 26/302/58
f 96/303/59 94/304/59 97/305/59 98/306/59
f 94/307/60 95/308/60 99/309/60 97/310/60
f 98/306/61 97/305/61 19/311/61 37/312/61
f 97/313/62 99/314/62 6/315/62 78/316/62 76/317/62 19/318/62
f 101/319/63 100/320/63 91/294/63 93/293/63
f 100/72/64 102/71/64 92/321/64 91/322/64
f 104/80/12 30/79/12 35/137/12 105/136/12
f 105/323/65 106/324/65 103/325/65 104/326/65
