# Blender 4.4.1
# www.blender.org
mtllib ru_three_stories_1.mtl
o ru_three_stories_1
v 5.284344 -0.076027 -5.801471
v 5.284344 -0.076027 -5.007915
v 2.883598 -0.076027 -5.801471
v 2.883598 -0.076027 -5.007915
v 2.883598 0.194770 -5.007915
v 5.284344 0.194770 -5.007915
v 2.883598 0.194770 -5.801471
v 5.284344 0.194770 -5.801471
v 2.883598 -0.076027 -5.007915
v 2.883598 0.194770 -5.007915
v 2.883598 -0.076027 -5.801471
v 2.883598 0.194770 -5.801471
v 5.284344 -0.076027 -5.007915
v 5.284344 0.194770 -5.007915
v 2.883598 -0.076027 -5.007915
v 2.883598 0.194770 -5.007915
v 5.284344 -0.076027 -5.801471
v 5.284344 0.194770 -5.801471
v 5.284344 -0.076027 -5.007915
v 5.284344 0.194770 -5.007915
v 2.883598 -0.076027 -5.801471
v 2.883598 0.194770 -5.801471
v 5.284344 -0.076027 -5.801471
v 5.284344 0.194770 -5.801471
v -8.786180 8.481049 -5.002247
v -8.786180 -0.076027 -5.002247
v -8.786180 8.481049 5.450042
v -8.786180 -0.076027 5.450042
v -8.786180 8.481049 5.450042
v -8.786180 -0.076027 5.450042
v 8.786180 8.481049 5.450042
v 8.786180 -0.076027 5.450042
v 8.786180 8.481049 5.450042
v 8.786180 -0.076027 5.450042
v 8.786180 8.481049 -5.002247
v 8.786180 -0.076027 -5.002247
v 8.786180 8.481049 -5.002247
v 8.786180 -0.076027 -5.002247
v -8.786180 8.481049 -5.002247
v -8.786180 -0.076027 -5.002247
v -9.237447 8.818038 5.801471
v -9.237447 8.818038 -5.353684
v 9.237447 8.818038 5.801471
v 9.237447 8.818038 -5.353684
v 3.542450 12.242071 0.008498
v -3.542450 12.242071 0.008498
v 3.542450 12.242071 0.433620
v -3.542450 12.242071 0.433620
v -3.542450 12.242071 0.008498
v -9.237447 8.818038 -5.353684
v -3.542450 12.242071 0.433620
v -9.237447 8.818038 5.801471
v -3.542450 12.242071 0.433620
v -9.237447 8.818038 5.801471
v 3.542450 12.242071 0.433620
v 9.237447 8.818038 5.801471
v 3.542450 12.242071 0.433620
v 9.237447 8.818038 5.801471
v 3.542450 12.242071 0.008498
v 9.237447 8.818038 -5.353684
v 3.542450 12.242071 0.008498
v 9.237447 8.818038 -5.353684
v -3.542450 12.242071 0.008498
v -9.237447 8.818038 -5.353684
v -8.966686 8.481049 5.552068
v -8.966686 8.481049 -5.104280
v 8.966686 8.481049 5.552068
v 8.966686 8.481049 -5.104280
v 8.966686 8.818038 -5.104280
v -8.966686 8.818038 -5.104280
v 8.966686 8.818038 5.552068
v -8.966686 8.818038 5.552068
v -8.966686 8.818038 -5.104280
v -8.966686 8.481049 -5.104280
v -8.966686 8.818038 5.552068
v -8.966686 8.481049 5.552068
v -8.966686 8.818038 5.552068
v -8.966686 8.481049 5.552068
v 8.966686 8.818038 5.552068
v 8.966686 8.481049 5.552068
v 8.966686 8.818038 5.552068
v 8.966686 8.481049 5.552068
v 8.966686 8.818038 -5.104280
v 8.966686 8.481049 -5.104280
v 8.966686 8.818038 -5.104280
v 8.966686 8.481049 -5.104280
v -8.966686 8.818038 -5.104280
v -8.966686 8.481049 -5.104280
v -3.082159 11.959243 -3.749562
v -3.082159 9.654485 -3.749561
v -3.082159 11.959243 -1.828017
v -3.082159 9.654485 -1.828017
v -3.082159 11.959243 -1.828017
v -3.082159 9.654485 -1.828017
v -2.639915 11.959243 -1.828017
v -2.639915 9.654485 -1.828017
v -2.639915 11.959243 -1.828017
v -2.639915 9.654485 -1.828017
v -2.639915 11.959243 -3.749562
v -2.639915 9.654485 -3.749561
v -2.639915 11.959243 -3.749562
v -2.639915 9.654485 -3.749561
v -3.082159 11.959243 -3.749562
v -3.082159 9.654485 -3.749561
v 2.766268 11.959243 -3.749562
v 2.766268 9.654485 -3.749561
v 2.766268 11.959243 -1.828017
v 2.766268 9.654485 -1.828017
v 2.766268 11.959243 -1.828017
v 2.766268 9.654485 -1.828017
v 3.217536 11.959243 -1.828017
v 3.217536 9.654485 -1.828017
v 3.217536 11.959243 -1.828017
v 3.217536 9.654485 -1.828017
v 3.217536 11.959243 -3.749562
v 3.217536 9.654485 -3.749561
v 3.217536 11.959243 -3.749562
v 3.217536 9.654485 -3.749561
v 2.766268 11.959243 -3.749562
v 2.766268 9.654485 -3.749561
v 7.901697 2.788364 -5.631428
v 7.901697 2.788364 -4.996579
v 5.500951 2.788364 -5.631428
v 5.500951 2.788364 -4.996579
v 5.500951 3.775256 -4.996580
v 7.901697 3.775256 -4.996580
v 5.500951 3.775256 -5.631428
v 7.901697 3.775256 -5.631428
v 5.500951 2.788364 -4.996579
v 5.500951 3.775256 -4.996580
v 5.500951 2.788364 -5.631428
v 5.500951 3.775256 -5.631428
v 7.901697 2.788364 -4.996579
v 7.901697 3.775256 -4.996580
v 5.500951 2.788364 -4.996579
v 5.500951 3.775256 -4.996580
v 7.901697 2.788364 -5.631428
v 7.901697 3.775256 -5.631428
v 7.901697 2.788364 -4.996579
v 7.901697 3.775256 -4.996580
v 5.500951 2.788364 -5.631428
v 5.500951 3.775256 -5.631428
v 7.901697 2.788364 -5.631428
v 7.901697 3.775256 -5.631428
v 7.847544 3.775256 -5.597420
v 7.847544 3.775256 -4.990911
v 5.546082 3.775256 -5.597420
v 5.546082 3.775256 -4.990911
v 5.546082 5.014892 -4.990911
v 7.847544 5.014892 -4.990911
v 5.546082 5.014892 -5.597420
v 7.847544 5.014892 -5.597420
v 5.546082 3.775256 -4.990911
v 5.546082 5.014892 -4.990911
v 5.546082 3.775256 -5.597420
v 5.546082 5.014892 -5.597420
v 7.847544 3.775256 -4.990911
v 7.847544 5.014892 -4.990911
v 5.546082 3.775256 -4.990911
v 5.546082 5.014892 -4.990911
v 7.847544 3.775256 -5.597420
v 7.847544 5.014892 -5.597420
v 7.847544 3.775256 -4.990911
v 7.847544 5.014892 -4.990911
v 5.546082 3.775256 -5.597420
v 5.546082 5.014892 -5.597420
v 7.847544 3.775256 -5.597420
v 7.847544 5.014892 -5.597420
v 7.919743 5.014892 -5.654101
v 7.919743 5.014892 -4.996580
v 5.473875 5.014892 -5.654101
v 5.473875 5.014892 -4.996580
v 5.473875 5.093122 -4.996580
v 7.919743 5.093122 -4.996580
v 5.473875 5.032946 -5.654101
v 7.919743 5.032946 -5.654101
v 5.473875 5.014892 -4.996580
v 5.473875 5.093122 -4.996580
v 5.473875 5.014892 -5.654101
v 5.473875 5.032946 -5.654101
v 7.919743 5.014892 -4.996580
v 7.919743 5.093122 -4.996580
v 5.473875 5.014892 -4.996580
v 5.473875 5.093122 -4.996580
v 7.919743 5.014892 -5.654101
v 7.919743 5.032946 -5.654101
v 7.919743 5.014892 -4.996580
v 7.919743 5.093122 -4.996580
v 5.473875 5.014892 -5.654101
v 5.473875 5.032946 -5.654101
v 7.919743 5.014892 -5.654101
v 7.919743 5.032946 -5.654101
v 7.919743 7.921407 -5.654101
v 7.919743 7.921407 -4.996580
v 5.473875 7.921407 -5.654101
v 5.473875 7.921407 -4.996580
v 5.473875 7.999637 -4.996580
v 7.919743 7.999637 -4.996580
v 5.473875 7.939460 -5.654101
v 7.919743 7.939460 -5.654101
v 5.473875 7.921407 -4.996580
v 5.473875 7.999637 -4.996580
v 5.473875 7.921407 -5.654101
v 5.473875 7.939460 -5.654101
v 7.919743 7.921407 -4.996580
v 7.919743 7.999637 -4.996580
v 5.473875 7.921407 -4.996580
v 5.473875 7.999637 -4.996580
v 7.919743 7.921407 -5.654101
v 7.919743 7.939460 -5.654101
v 7.919743 7.921407 -4.996580
v 7.919743 7.999637 -4.996580
v 5.473875 7.921407 -5.654101
v 5.473875 7.939460 -5.654101
v 7.919743 7.921407 -5.654101
v 7.919743 7.939460 -5.654101
v 7.847544 6.609563 -5.597420
v 7.847544 6.609563 -4.990911
v 5.546082 6.609563 -5.597420
v 5.546082 6.609563 -4.990911
v 5.546082 7.921407 -4.990911
v 7.847544 7.921407 -4.990911
v 5.546082 7.921407 -5.597420
v 7.847544 7.921407 -5.597420
v 5.546082 6.609563 -4.990911
v 5.546082 7.921407 -4.990911
v 5.546082 6.609563 -5.597420
v 5.546082 7.921407 -5.597420
v 7.847544 6.609563 -4.990911
v 7.847544 7.921407 -4.990911
v 5.546082 6.609563 -4.990911
v 5.546082 7.921407 -4.990911
v 7.847544 6.609563 -5.597420
v 7.847544 7.921407 -5.597420
v 7.847544 6.609563 -4.990911
v 7.847544 7.921407 -4.990911
v 5.546082 6.609563 -5.597420
v 5.546082 7.921407 -5.597420
v 7.847544 6.609563 -5.597420
v 7.847544 7.921407 -5.597420
v 7.901697 5.406035 -5.631428
v 7.901697 5.406035 -4.996580
v 5.500951 5.406035 -5.631428
v 5.500951 5.406035 -4.996580
v 5.500951 6.609563 -4.996580
v 7.901697 6.609563 -4.996580
v 5.500951 6.609563 -5.631428
v 7.901697 6.609563 -5.631428
v 5.500951 5.406035 -4.996580
v 5.500951 6.609563 -4.996580
v 5.500951 5.406035 -5.631428
v 5.500951 6.609563 -5.631428
v 7.901697 5.406035 -4.996580
v 7.901697 6.609563 -4.996580
v 5.500951 5.406035 -4.996580
v 5.500951 6.609563 -4.996580
v 7.901697 5.406035 -5.631428
v 7.901697 6.609563 -5.631428
v 7.901697 5.406035 -4.996580
v 7.901697 6.609563 -4.996580
v 5.500951 5.406035 -5.631428
v 5.500951 6.609563 -5.631428
v 7.901697 5.406035 -5.631428
v 7.901697 6.609563 -5.631428
v -0.203069 7.969553 -5.654101
v -0.203069 7.969553 -4.996580
v -3.488297 7.969553 -5.654101
v -3.488297 7.969553 -4.996580
v -3.488297 8.047783 -4.996580
v -0.203069 8.047783 -4.996580
v -3.488297 7.987606 -5.654101
v -0.203069 7.987606 -5.654101
v -3.488297 7.969553 -4.996580
v -3.488297 8.047783 -4.996580
v -3.488297 7.969553 -5.654101
v -3.488297 7.987606 -5.654101
v -0.203069 7.969553 -4.996580
v -0.203069 8.047783 -4.996580
v -3.488297 7.969553 -4.996580
v -3.488297 8.047783 -4.996580
v -0.203069 7.969553 -5.654101
v -0.203069 7.987606 -5.654101
v -0.203069 7.969553 -4.996580
v -0.203069 8.047783 -4.996580
v -3.488297 7.969553 -5.654101
v -3.488297 7.987606 -5.654101
v -0.203069 7.969553 -5.654101
v -0.203069 7.987606 -5.654101
v -0.302345 6.609563 -5.597420
v -0.302345 6.609563 -4.990911
v -3.398043 6.609563 -5.597420
v -3.398043 6.609563 -4.990911
v -3.398043 7.969553 -4.990911
v -0.302345 7.969553 -4.990911
v -3.398043 7.969553 -5.597420
v -0.302345 7.969553 -5.597420
v -3.398043 6.609563 -4.990911
v -3.398043 7.969553 -4.990911
v -3.398043 6.609563 -5.597420
v -3.398043 7.969553 -5.597420
v -0.302345 6.609563 -4.990911
v -0.302345 7.969553 -4.990911
v -3.398043 6.609563 -4.990911
v -3.398043 7.969553 -4.990911
v -0.302345 6.609563 -5.597420
v -0.302345 7.969553 -5.597420
v -0.302345 6.609563 -4.990911
v -0.302345 7.969553 -4.990911
v -3.398043 6.609563 -5.597420
v -3.398043 7.969553 -5.597420
v -0.302345 6.609563 -5.597420
v -0.302345 7.969553 -5.597420
v -0.239169 5.406035 -5.631428
v -0.239169 5.406035 -4.996580
v -3.461220 5.406035 -5.631428
v -3.461220 5.406035 -4.996580
v -3.461220 6.609563 -4.996580
v -0.239169 6.609563 -4.996580
v -3.461220 6.609563 -5.631428
v -0.239169 6.609563 -5.631428
v -3.461220 5.406035 -4.996580
v -3.461220 6.609563 -4.996580
v -3.461220 5.406035 -5.631428
v -3.461220 6.609563 -5.631428
v -0.239169 5.406035 -4.996580
v -0.239169 6.609563 -4.996580
v -3.461220 5.406035 -4.996580
v -3.461220 6.609563 -4.996580
v -0.239169 5.406035 -5.631428
v -0.239169 6.609563 -5.631428
v -0.239169 5.406035 -4.996580
v -0.239169 6.609563 -4.996580
v -3.461220 5.406035 -5.631428
v -3.461220 6.609563 -5.631428
v -0.239169 5.406035 -5.631428
v -0.239169 6.609563 -5.631428
v 8.894486 -0.076027 -5.115616
v 8.894486 2.613858 -5.115616
v 8.894486 -0.076027 5.404697
v 8.894486 2.613859 5.404697
v 3.055082 -0.076027 -5.115616
v 3.055082 2.613858 -5.115616
v 8.894486 -0.076027 -5.115616
v 8.894486 2.613858 -5.115616
v 8.768126 2.613859 5.404697
v 8.768126 -0.076027 5.404697
v 8.894486 2.613859 5.404697
v 8.894486 -0.076027 5.404697
v 3.055082 2.613858 -5.002247
v 3.055082 2.613858 -5.115616
v 3.055082 -0.076027 -5.002247
v 3.055082 -0.076027 -5.115616
v 3.055082 2.613858 -5.002247
v 3.055082 -0.076027 -5.002247
v 8.768126 2.613858 -5.002247
v 8.768126 -0.076027 -5.002247
v 8.768126 -0.076027 -5.002247
v 8.768126 -0.076027 5.404697
v 8.768126 2.613858 -5.002247
v 8.768126 2.613859 5.404697
v 5.329467 2.716157 -5.104280
v 5.329467 2.716157 -5.007915
v 2.576738 2.716157 -5.104280
v 2.576738 2.716157 -5.007915
v 2.576738 3.323937 -5.007915
v 5.329467 3.323937 -5.007915
v 2.576738 3.323937 -5.104280
v 5.329467 3.323937 -5.104280
v 2.576738 2.716157 -5.007915
v 2.576738 3.323937 -5.007915
v 2.576738 2.716157 -5.104280
v 2.576738 3.323937 -5.104280
v 5.329467 2.716157 -5.007915
v 5.329467 3.323937 -5.007915
v 2.576738 2.716157 -5.007915
v 2.576738 3.323937 -5.007915
v 5.329467 2.716157 -5.104280
v 5.329467 3.323937 -5.104280
v 5.329467 2.716157 -5.007915
v 5.329467 3.323937 -5.007915
v 2.576738 2.716157 -5.104280
v 2.576738 3.323937 -5.104280
v 5.329467 2.716157 -5.104280
v 5.329467 3.323937 -5.104280
v 8.786180 2.619874 -1.816680
v 8.858378 2.619874 -1.816680
v 8.786180 2.619874 0.830402
v 8.858378 2.619874 0.830402
v 8.858378 3.149423 0.830402
v 8.858378 3.149423 -1.816680
v 8.786180 3.149423 0.830402
v 8.786180 3.149423 -1.816680
v 8.858378 2.619874 0.830402
v 8.858378 3.149423 0.830402
v 8.786180 2.619874 0.830402
v 8.786180 3.149423 0.830402
v 8.858378 2.619874 -1.816680
v 8.858378 3.149423 -1.816680
v 8.858378 2.619874 0.830402
v 8.858378 3.149423 0.830402
v 8.786180 2.619874 -1.816680
v 8.786180 3.149423 -1.816680
v 8.858378 2.619874 -1.816680
v 8.858378 3.149423 -1.816680
v 8.786180 2.619874 0.830402
v 8.786180 3.149423 0.830402
v 8.786180 2.619874 -1.816680
v 8.786180 3.149423 -1.816680
v 3.055082 -0.076027 -5.002247
v 3.055082 -0.076027 -5.115616
v 8.768126 -0.076027 -5.002247
v 8.894486 -0.076027 -5.115616
v 8.894486 -0.076027 5.404697
v 8.768126 -0.076027 5.404697
v 3.055082 2.613858 -5.115616
v 3.055082 2.613858 -5.002247
v 8.894486 2.613858 -5.115616
v 8.768126 2.613858 -5.002247
v 8.894486 2.613859 5.404697
v 8.768126 2.613859 5.404697
vn -0.0000 -1.0000 -0.0000
vn -0.0000 1.0000 -0.0000
vn -1.0000 -0.0000 -0.0000
vn -0.0000 -0.0000 1.0000
vn 1.0000 -0.0000 -0.0000
vn -0.0000 -0.0000 -1.0000
vn -0.5153 0.8570 -0.0000
vn -0.0000 0.8431 0.5378
vn 0.5153 0.8570 -0.0000
vn -0.0000 0.8428 -0.5382
vn -0.0000 0.9958 -0.0911
vt 0.206664 0.001049
vt 0.206664 0.017513
vt 0.168872 0.001049
vt 0.168872 0.017513
vt 0.204836 0.000684
vt 0.204836 0.015684
vt 0.159729 0.000684
vt 0.159729 0.015684
vt 0.220318 0.000562
vt 0.220318 0.015562
vt 0.157169 0.000562
vt 0.157169 0.015562
vt 0.702834 0.659357
vt 0.702834 0.001171
vt 0.999438 0.659357
vt 0.999438 0.001171
vt 0.002954 0.660089
vt 0.002954 0.000684
vt 0.700518 0.660089
vt 0.700518 0.000684
vt 0.005270 0.667528
vt 0.997975 0.667528
vt 0.997975 0.667650
vt 0.005270 0.667650
vt 0.482666 0.998145
vt 0.520458 0.998145
vt 0.692472 0.998267
vt 0.998829 0.667284
vt 0.311628 0.998267
vt 0.005270 0.667284
vt 0.390015 0.998999
vt 0.108893 0.668138
vt 0.412325 0.998999
vt 0.693325 0.668138
vt 0.311384 0.998267
vt 0.005149 0.667406
vt 0.692350 0.998267
vt 0.998585 0.667406
vt 0.998097 0.002025
vt 0.998097 0.652284
vt 0.002223 0.002025
vt 0.002223 0.652284
vt 0.702956 0.653138
vt 0.702956 0.666065
vt 0.998341 0.653138
vt 0.998341 0.666065
vt 0.004173 0.650698
vt 0.004173 0.666552
vt 0.700396 0.650698
vt 0.700396 0.666552
vt 0.832545 0.625088
vt 0.832545 0.546672
vt 0.877773 0.625088
vt 0.877773 0.546672
vt 0.832545 0.624844
vt 0.847784 0.624844
vt 0.847784 0.546672
vt 0.114745 0.287641
vt 0.050986 0.287641
vt 0.114745 0.234469
vt 0.050986 0.234469
vt 0.080854 0.219225
vt 0.080854 0.294227
vt 0.041965 0.219225
vt 0.041965 0.294227
vt 0.121815 0.219225
vt 0.121815 0.295081
vt 0.041965 0.295081
vt 0.109015 0.285446
vt 0.050743 0.285446
vt 0.109015 0.230811
vt 0.050743 0.230811
vt 0.081586 0.295324
vt 0.081586 0.393985
vt 0.040136 0.295324
vt 0.040136 0.393985
vt 0.122547 0.295324
vt 0.122547 0.394961
vt 0.040136 0.394961
vt 0.406595 0.673016
vt 0.406595 0.797775
vt 0.109381 0.673016
vt 0.109381 0.797775
vt 0.108893 0.672650
vt 0.406351 0.672650
vt 0.108893 0.796068
vt 0.406351 0.796068
vt 0.047085 0.465084
vt 0.047085 0.510329
vt 0.119987 0.465084
vt 0.119987 0.474231
vt 0.855464 0.916436
vt 0.785610 0.916436
vt 0.855464 0.823751
vt 0.785610 0.823751
vt 0.120109 0.464962
vt 0.120109 0.474109
vt 0.047207 0.464962
vt 0.047207 0.510329
vt 0.108893 0.827044
vt 0.406351 0.827044
vt 0.083048 0.522769
vt 0.083048 0.614234
vt 0.040990 0.522769
vt 0.040990 0.614234
vt 0.123766 0.522647
vt 0.123766 0.615088
vt 0.041599 0.522647
vt 0.041599 0.615088
vt 0.120109 0.463621
vt 0.120109 0.510085
vt 0.043794 0.463621
vt 0.043794 0.510085
vt 0.080976 0.450572
vt 0.080976 0.522891
vt 0.042331 0.450572
vt 0.042331 0.522891
vt 0.121572 0.450572
vt 0.121572 0.523500
vt 0.042331 0.523500
vt 0.452067 0.514842
vt 0.393794 0.514842
vt 0.452067 0.460084
vt 0.393794 0.460084
vt 0.427441 0.527159
vt 0.427441 0.621064
vt 0.371851 0.527159
vt 0.371851 0.621064
vt 0.478765 0.527281
vt 0.478765 0.621186
vt 0.371973 0.527281
vt 0.371973 0.621186
vt 0.480837 0.451791
vt 0.480837 0.515086
vt 0.369778 0.451791
vt 0.369778 0.515086
vt 0.408667 0.449230
vt 0.408667 0.525939
vt 0.370144 0.449230
vt 0.370144 0.525939
vt 0.484007 0.449474
vt 0.484007 0.525818
vt 0.368194 0.449474
vt 0.368194 0.525818
vt 0.999073 0.000562
vt 0.999073 0.202761
vt 0.704297 0.000562
vt 0.704297 0.202761
vt 0.229095 0.000318
vt 0.229095 0.201786
vt 0.000882 0.000318
vt 0.000882 0.201786
vt 0.704175 0.203249
vt 0.704175 0.000074
vt 0.715878 0.203249
vt 0.715878 0.000074
vt 0.224341 0.202030
vt 0.229217 0.202030
vt 0.224341 0.000440
vt 0.229217 0.000440
vt 0.760497 0.958144
vt 0.760497 0.716676
vt 0.013438 0.958144
vt 0.013438 0.716676
vt 0.776223 0.716676
vt 0.021850 0.716676
vt 0.776223 0.958144
vt 0.021850 0.958144
vt 0.177772 0.105076
vt 0.177772 0.108003
vt 0.119012 0.105076
vt 0.119012 0.108003
vt 0.122913 0.104466
vt 0.148514 0.104466
vt 0.122913 0.110808
vt 0.148514 0.110808
vt 0.907641 0.209713
vt 0.907641 0.243616
vt 0.835349 0.209713
vt 0.835349 0.243616
vt 0.520336 0.709724
vt 0.525944 0.709724
vt 0.520336 0.837410
vt 0.525944 0.840093
vt 0.026605 0.840093
vt 0.026605 0.837410
vt 0.706491 0.182639
vt 0.709661 0.182639
vt 0.706491 0.004098
vt 0.709661 0.007879
vt 0.997854 0.004098
vt 0.997854 0.007879
s 0
usemtl mat_main
f 1/1/1 2/2/1 3/3/1
f 2/2/1 4/4/1 3/3/1
f 5/3/2 6/1/2 7/4/2
f 6/1/2 8/2/2 7/4/2
f 9/5/3 10/6/3 11/7/3
f 10/6/3 12/8/3 11/7/3
f 13/9/4 14/10/4 15/11/4
f 14/10/4 16/12/4 15/11/4
f 17/5/5 18/6/5 19/7/5
f 18/6/5 20/8/5 19/7/5
f 21/9/6 22/10/6 23/11/6
f 22/10/6 24/12/6 23/11/6
f 25/13/3 26/14/3 27/15/3
f 26/14/3 28/16/3 27/15/3
f 29/17/4 30/18/4 31/19/4
f 30/18/4 32/20/4 31/19/4
f 33/13/5 34/14/5 35/15/5
f 34/14/5 36/16/5 35/15/5
f 37/17/6 38/18/6 39/19/6
f 38/18/6 40/20/6 39/19/6
f 41/21/1 42/22/1 43/23/1
f 42/22/1 44/24/1 43/23/1
f 45/25/2 46/26/2 47/26/2
f 46/26/2 48/25/2 47/26/2
f 49/26/7 50/22/7 51/25/7
f 50/22/7 52/21/7 51/25/7
f 53/27/8 54/28/8 55/29/8
f 54/28/8 56/30/8 55/29/8
f 57/31/9 58/32/9 59/33/9
f 58/32/9 60/34/9 59/33/9
f 61/35/10 62/36/10 63/37/10
f 62/36/10 64/38/10 63/37/10
f 65/39/1 66/40/1 67/41/1
f 66/40/1 68/42/1 67/41/1
f 69/41/2 70/39/2 71/42/2
f 70/39/2 72/40/2 71/42/2
f 73/43/3 74/44/3 75/45/3
f 74/44/3 76/46/3 75/45/3
f 77/47/4 78/48/4 79/49/4
f 78/48/4 80/50/4 79/49/4
f 81/43/5 82/44/5 83/45/5
f 82/44/5 84/46/5 83/45/5
f 85/47/6 86/48/6 87/49/6
f 86/48/6 88/50/6 87/49/6
f 89/51/3 90/52/3 91/53/3
f 90/52/3 92/54/3 91/53/3
f 93/55/4 94/52/4 95/56/4
f 94/52/4 96/57/4 95/56/4
f 97/51/5 98/52/5 99/53/5
f 98/52/5 100/54/5 99/53/5
f 101/55/6 102/52/6 103/56/6
f 102/52/6 104/57/6 103/56/6
f 105/51/3 106/52/3 107/53/3
f 106/52/3 108/54/3 107/53/3
f 109/55/4 110/52/4 111/56/4
f 110/52/4 112/57/4 111/56/4
f 113/51/5 114/52/5 115/53/5
f 114/52/5 116/54/5 115/53/5
f 117/55/6 118/52/6 119/56/6
f 118/52/6 120/57/6 119/56/6
f 121/58/1 122/59/1 123/60/1
f 122/59/1 124/61/1 123/60/1
f 125/60/2 126/58/2 127/61/2
f 126/58/2 128/59/2 127/61/2
f 129/62/3 130/63/3 131/64/3
f 130/63/3 132/65/3 131/64/3
f 133/66/4 134/67/4 135/64/4
f 134/67/4 136/68/4 135/64/4
f 137/62/5 138/63/5 139/64/5
f 138/63/5 140/65/5 139/64/5
f 141/66/6 142/67/6 143/64/6
f 142/67/6 144/68/6 143/64/6
f 145/69/1 146/70/1 147/71/1
f 146/70/1 148/72/1 147/71/1
f 149/71/2 150/69/2 151/72/2
f 150/69/2 152/70/2 151/72/2
f 153/73/3 154/74/3 155/75/3
f 154/74/3 156/76/3 155/75/3
f 157/77/4 158/78/4 159/75/4
f 158/78/4 160/79/4 159/75/4
f 161/73/5 162/74/5 163/75/5
f 162/74/5 164/76/5 163/75/5
f 165/77/6 166/78/6 167/75/6
f 166/78/6 168/79/6 167/75/6
f 169/80/1 170/81/1 171/82/1
f 170/81/1 172/83/1 171/82/1
f 173/84/11 174/85/11 175/86/11
f 174/85/11 176/87/11 175/86/11
f 177/88/3 178/89/3 179/90/3
f 178/89/3 180/91/3 179/90/3
f 181/92/4 182/93/4 183/94/4
f 182/93/4 184/95/4 183/94/4
f 185/96/5 186/97/5 187/98/5
f 186/97/5 188/99/5 187/98/5
f 189/100/6 190/86/6 191/101/6
f 190/86/6 192/87/6 191/101/6
f 193/80/1 194/81/1 195/82/1
f 194/81/1 196/83/1 195/82/1
f 197/84/11 198/85/11 199/86/11
f 198/85/11 200/87/11 199/86/11
f 201/88/3 202/89/3 203/90/3
f 202/89/3 204/91/3 203/90/3
f 205/92/4 206/93/4 207/94/4
f 206/93/4 208/95/4 207/94/4
f 209/96/5 210/97/5 211/98/5
f 210/97/5 212/99/5 211/98/5
f 213/100/6 214/86/6 215/101/6
f 214/86/6 216/87/6 215/101/6
f 217/69/1 218/70/1 219/71/1
f 218/70/1 220/72/1 219/71/1
f 221/71/2 222/69/2 223/72/2
f 222/69/2 224/70/2 223/72/2
f 225/102/3 226/103/3 227/104/3
f 226/103/3 228/105/3 227/104/3
f 229/106/4 230/107/4 231/108/4
f 230/107/4 232/109/4 231/108/4
f 233/102/5 234/103/5 235/104/5
f 234/103/5 236/105/5 235/104/5
f 237/106/6 238/107/6 239/108/6
f 238/107/6 240/109/6 239/108/6
f 241/110/1 242/111/1 243/112/1
f 242/111/1 244/113/1 243/112/1
f 245/112/2 246/110/2 247/113/2
f 246/110/2 248/111/2 247/113/2
f 249/114/3 250/115/3 251/116/3
f 250/115/3 252/117/3 251/116/3
f 253/118/4 254/119/4 255/116/4
f 254/119/4 256/120/4 255/116/4
f 257/114/5 258/115/5 259/116/5
f 258/115/5 260/117/5 259/116/5
f 261/118/6 262/119/6 263/116/6
f 262/119/6 264/120/6 263/116/6
f 265/80/1 266/81/1 267/82/1
f 266/81/1 268/83/1 267/82/1
f 269/84/11 270/85/11 271/86/11
f 270/85/11 272/87/11 271/86/11
f 273/88/3 274/89/3 275/90/3
f 274/89/3 276/91/3 275/90/3
f 277/92/4 278/93/4 279/94/4
f 278/93/4 280/95/4 279/94/4
f 281/96/5 282/97/5 283/98/5
f 282/97/5 284/99/5 283/98/5
f 285/100/6 286/86/6 287/101/6
f 286/86/6 288/87/6 287/101/6
f 289/121/1 290/122/1 291/123/1
f 290/122/1 292/124/1 291/123/1
f 293/123/2 294/121/2 295/124/2
f 294/121/2 296/122/2 295/124/2
f 297/125/3 298/126/3 299/127/3
f 298/126/3 300/128/3 299/127/3
f 301/129/4 302/130/4 303/131/4
f 302/130/4 304/132/4 303/131/4
f 305/125/5 306/126/5 307/127/5
f 306/126/5 308/128/5 307/127/5
f 309/129/6 310/130/6 311/131/6
f 310/130/6 312/132/6 311/131/6
f 313/133/1 314/134/1 315/135/1
f 314/134/1 316/136/1 315/135/1
f 317/135/2 318/133/2 319/136/2
f 318/133/2 320/134/2 319/136/2
f 321/137/3 322/138/3 323/139/3
f 322/138/3 324/140/3 323/139/3
f 325/141/4 326/142/4 327/143/4
f 326/142/4 328/144/4 327/143/4
f 329/137/5 330/138/5 331/139/5
f 330/138/5 332/140/5 331/139/5
f 333/141/6 334/142/6 335/143/6
f 334/142/6 336/144/6 335/143/6
f 337/145/5 338/146/5 339/147/5
f 338/146/5 340/148/5 339/147/5
f 341/149/6 342/150/6 343/151/6
f 342/150/6 344/152/6 343/151/6
f 345/153/4 346/154/4 347/155/4
f 346/154/4 348/156/4 347/155/4
f 349/157/3 350/158/3 351/159/3
f 350/158/3 352/160/3 351/159/3
f 353/161/4 354/162/4 355/163/4
f 354/162/4 356/164/4 355/163/4
f 357/165/3 358/166/3 359/167/3
f 358/166/3 360/168/3 359/167/3
f 361/169/1 362/170/1 363/171/1
f 362/170/1 364/172/1 363/171/1
f 365/171/2 366/169/2 367/172/2
f 366/169/2 368/170/2 367/172/2
f 369/173/3 370/174/3 371/175/3
f 370/174/3 372/176/3 371/175/3
f 373/177/4 374/178/4 375/179/4
f 374/178/4 376/180/4 375/179/4
f 377/173/5 378/174/5 379/175/5
f 378/174/5 380/176/5 379/175/5
f 381/177/6 382/178/6 383/179/6
f 382/178/6 384/180/6 383/179/6
f 385/169/1 386/170/1 387/171/1
f 386/170/1 388/172/1 387/171/1
f 389/171/2 390/169/2 391/172/2
f 390/169/2 392/170/2 391/172/2
f 393/173/4 394/174/4 395/175/4
f 394/174/4 396/176/4 395/175/4
f 397/177/5 398/178/5 399/179/5
f 398/178/5 400/180/5 399/179/5
f 401/173/6 402/174/6 403/175/6
f 402/174/6 404/176/6 403/175/6
f 405/177/3 406/178/3 407/179/3
f 406/178/3 408/180/3 407/179/3
f 409/181/1 410/182/1 411/183/1
f 410/182/1 412/184/1 411/183/1
f 412/184/1 413/185/1 411/183/1
f 411/183/1 413/185/1 414/186/1
f 415/187/2 416/188/2 417/189/2
f 416/188/2 418/190/2 417/189/2
f 417/189/2 418/190/2 419/191/2
f 418/190/2 420/192/2 419/191/2
