# Blender 5.0.1
# www.blender.org
mtllib ru_village_hut_5.mtl
o ru_village_hut_5
v 2.964252 0.033583 3.798150
v -2.941259 0.033583 3.798150
v -2.941259 3.075580 3.783092
v 2.964252 3.075580 3.783091
v 2.964252 3.075580 3.783091
v -2.941259 3.075580 3.783092
v -2.941259 3.693015 3.963804
v 2.964252 3.693015 3.963803
v 2.964252 3.693015 3.963803
v -2.941259 3.693015 3.963804
v -2.941259 4.009262 4.731833
v 2.964252 4.009262 4.731832
v 2.964252 4.009262 4.731832
v -2.941259 4.009262 4.731833
v -2.941259 4.114679 -3.731545
v 2.964252 4.114679 -3.731545
v 2.964252 4.114679 -3.731545
v -2.941259 4.114679 -3.731545
v -2.941259 3.346651 -5.749503
v 2.964251 3.346651 -5.749503
v 2.964251 3.346651 -5.749503
v -2.941259 3.346651 -5.749503
v -2.941260 2.909929 -5.764563
v 2.964251 2.909929 -5.764564
v 2.964251 2.909929 -5.764564
v -2.941260 2.909929 -5.764563
v -2.941260 2.940047 -5.282661
v 2.964251 2.940047 -5.282662
v 2.964251 2.940047 -5.282662
v -2.941260 2.940047 -5.282661
v -2.941260 -0.011593 -5.282662
v 2.964251 -0.011593 -5.282663
v 2.964251 -0.011593 -5.282663
v -2.941260 -0.011593 -5.282662
v -2.941259 0.033583 3.798150
v 2.964252 0.033583 3.798150
v 2.964251 3.346651 -5.749503
v 2.964251 2.909929 -5.764564
v 2.964251 2.940047 -5.282662
v 2.964252 4.114679 -3.731545
v 2.964252 3.693015 3.963803
v 2.964252 4.009262 4.731832
v 2.964252 3.075580 3.783091
v 2.964252 0.033583 3.798150
v 2.964251 -0.011593 -5.282663
v -2.941259 0.033583 3.798150
v -2.941260 -0.011593 -5.282662
v -2.941260 2.940047 -5.282661
v -2.941259 4.114679 -3.731545
v -2.941259 4.009262 4.731833
v -2.941259 3.693015 3.963804
v -2.941259 3.075580 3.783092
v -2.941259 3.346651 -5.749503
v -2.941260 2.940047 -5.282661
v -2.941260 2.909929 -5.764563
v 2.535863 4.575305 1.756712
v -2.535059 4.575304 1.756713
v -2.535059 6.301877 1.701374
v 2.535863 6.301877 1.701373
v 2.535863 6.301877 1.701373
v -2.535059 6.301877 1.701374
v -2.535059 6.324012 2.498253
v 2.535863 6.324012 2.498253
v 2.535863 6.324012 2.498253
v -2.535059 6.324012 2.498253
v -2.535059 7.353316 0.428580
v 2.535862 7.353316 0.428580
v 2.535862 7.353316 0.428580
v -2.535059 7.353316 0.428580
v -2.535061 6.202267 -1.508279
v 2.535862 6.202267 -1.508279
v 2.535862 6.202267 -1.508279
v -2.535061 6.202267 -1.508279
v -2.535060 6.191199 -1.043433
v 2.535862 6.191199 -1.043434
v 2.535862 6.202267 -1.508279
v 2.535862 6.191199 -1.043434
v -2.535060 6.191199 -1.043433
v -2.535060 4.586373 -0.999162
v 2.535862 4.586373 -0.999162
v 2.535862 4.586373 -0.999162
v -2.535060 4.586373 -0.999162
v -2.535059 4.575304 1.756713
v 2.535863 4.575305 1.756712
v 2.535862 7.353316 0.428580
v 2.535862 6.202267 -1.508279
v 2.535862 6.191199 -1.043434
v 2.535863 6.301877 1.701373
v 2.535863 6.324012 2.498253
v 2.535862 7.353316 0.428580
v 2.535862 7.353316 0.428580
v 2.535862 4.586373 -0.999162
v 2.535863 4.575305 1.756712
v -2.535059 6.301877 1.701374
v -2.535059 4.575304 1.756713
v -2.535060 4.586373 -0.999162
v -2.535059 7.353316 0.428580
v -2.535059 6.324012 2.498253
v -2.535060 6.191199 -1.043433
v -2.535061 6.202267 -1.508279
v -2.535059 7.353316 0.428580
v -2.535059 7.353316 0.428580
v 2.947031 4.058799 -3.684204
v -2.923862 4.058799 -3.684203
v -2.923862 4.050655 4.710796
v 2.947032 4.050654 4.710795
v 2.947032 4.050654 4.710795
v -2.923862 4.050655 4.710796
v -2.923862 4.180936 4.792221
v 2.947032 4.180936 4.792221
v 2.947032 4.180936 4.792221
v -2.923862 4.180936 4.792221
v -1.027242 6.624028 0.248863
v 0.960008 6.624029 0.248863
v 0.960008 6.624029 0.248863
v -1.027242 6.624028 0.248863
v -2.923862 4.246078 -3.684203
v 2.947031 4.246078 -3.684204
v 2.947031 4.246078 -3.684204
v -2.923862 4.246078 -3.684203
v -2.923862 4.058799 -3.684203
v -2.923862 4.058799 -3.684203
v 2.947031 4.058799 -3.684204
v 0.960008 6.624029 0.248863
v 2.947031 4.246078 -3.684204
v 2.947031 4.058799 -3.684204
v 0.960008 6.624029 0.248863
v 2.947032 4.050654 4.710795
v 2.947032 4.180936 4.792221
v 0.960008 6.624029 0.248863
v -1.027242 6.624028 0.248863
v -2.923862 4.180936 4.792221
v -2.923862 4.050655 4.710796
v -2.923862 4.058799 -3.684203
v -2.923862 4.246078 -3.684203
v -1.027242 6.624028 0.248863
v -1.027242 6.624028 0.248863
vn -0.0000 0.0050 1.0000
vn -0.0000 -0.2809 0.9597
vn -0.0000 0.9247 -0.3807
vn -0.0000 0.9999 0.0125
vn -0.0000 0.9346 -0.3557
vn -0.0000 0.0345 -0.9994
vn -0.0000 0.9981 -0.0624
vn -0.0000 -0.0000 -1.0000
vn -0.0000 1.0000 -0.0050
vn 1.0000 -0.0000 -0.0000
vn -1.0000 -0.0000 -0.0000
vn -0.0000 0.0320 0.9995
vn -0.0000 0.9996 -0.0278
vn -0.0000 0.8954 0.4453
vn -0.0000 0.8597 -0.5109
vn -0.0000 -0.9997 -0.0238
vn -0.0000 0.9997 0.0238
vn -0.0000 -0.0276 -0.9996
vn -0.0000 1.0000 0.0040
vn -0.0000 1.0000 0.0010
vn -0.0000 -0.5300 0.8480
vn -0.0000 -0.8807 -0.4736
vn -0.0000 0.8557 -0.5174
vn 0.9090 -0.0709 0.4107
vn 0.6662 -0.0729 0.7422
vn 0.9073 0.0732 0.4141
vn 0.8499 0.5269 0.0069
vn 0.5582 0.8270 0.0672
vn 0.4759 0.8765 -0.0720
vn 0.9292 0.2504 -0.2718
vn 0.8259 0.2404 -0.5100
vn 0.9552 0.1622 -0.2474
vn -0.9590 0.1555 -0.2370
vn -0.8390 0.2320 -0.4922
vn -0.9349 0.2407 -0.2608
vn -0.6896 -0.0703 0.7208
vn -0.9158 -0.0691 0.3956
vn -0.9146 0.0708 0.3982
vn -0.5073 0.8590 -0.0695
vn -0.5845 0.8088 0.0649
vn -0.8606 0.5093 0.0067
vt 0.900705 0.007503
vt 0.261345 0.491214
vt 0.261345 0.007503
vt 0.900705 0.491214
vt 0.261345 0.589393
vt 0.900705 0.589393
vt 0.261345 0.639680
vt 0.900705 0.639680
vt 0.990677 0.627208
vt 0.193059 0.643466
vt 0.875148 0.539730
vt 0.085937 0.000270
vt 0.085937 0.539730
vt 0.875148 0.000270
vt 0.843019 0.659670
vt 0.313548 0.573926
vt 0.313548 0.659670
vt 0.843019 0.573926
vt 0.313548 0.579840
vt 0.843019 0.579840
vt 0.313548 0.000330
vt 0.843019 0.000330
vt 0.046877 0.007098
vt 0.902683 0.014065
vt 0.002880 0.525018
vt 0.046877 0.462310
vt 0.001461 0.457665
vt 0.918295 0.578435
vt 0.901264 0.483212
vt 0.658337 0.688750
vt 0.654928 0.864704
vt 0.704021 0.866960
vt 0.808171 0.102978
vt 0.118861 0.969515
vt 0.118861 0.102979
vt 0.808171 0.969515
vt 0.118861 0.000485
vt 0.808171 0.000484
vt 0.457194 0.854553
vt 0.485831 0.853425
vt 0.488558 0.689878
vt 0.488559 0.689878
vt 0.576516 0.971855
vt 0.005713 0.447903
vt 0.989906 0.446506
vt 0.000500 0.000694
vt 0.999500 0.070995
vt 0.999500 0.000695
vt 0.000500 0.070995
vt 0.676768 1.389305
vt 0.338615 1.389306
vt 0.661385 1.389306
vt 0.000499 0.102073
vt 0.323232 1.389306
vt 0.999500 0.102072
vt 0.000499 0.000695
vt 0.999500 0.000694
vt 0.466809 0.888004
vt 0.005713 0.480033
vt 0.999452 0.468857
s 1
usemtl mat_body
f 1/1/1 3/2/1 2/3/1
f 3/2/1 1/1/1 4/4/1
f 5/4/2 7/5/2 6/2/2
f 7/5/2 5/4/2 8/6/2
f 9/6/3 10/5/3 11/7/3
f 11/7/3 12/8/3 9/6/3
f 13/9/4 15/10/4 14/9/4
f 15/10/4 13/9/4 16/10/4
f 21/15/6 23/16/6 22/17/6
f 23/16/6 21/15/6 24/18/6
f 25/18/7 26/16/7 27/19/7
f 27/19/7 28/20/7 25/18/7
f 29/20/8 31/21/8 30/19/8
f 31/21/8 29/20/8 32/22/8
f 33/23/9 34/23/9 35/24/9
f 35/24/9 36/24/9 33/23/9
f 37/25/10 39/26/10 38/27/10
f 40/10/10 39/26/10 37/25/10
f 41/28/10 40/10/10 42/9/10
f 43/29/10 40/10/10 41/28/10
f 44/24/10 40/10/10 43/29/10
f 44/24/10 39/26/10 40/10/10
f 45/23/10 39/26/10 44/24/10
f 46/24/11 48/26/11 47/23/11
f 49/10/11 51/28/11 50/9/11
f 49/10/11 52/29/11 51/28/11
f 49/10/11 46/24/11 52/29/11
f 49/10/11 48/26/11 46/24/11
f 53/25/11 54/26/11 49/10/11
f 55/27/11 54/26/11 53/25/11
f 56/30/12 58/31/12 57/30/12
f 58/31/12 56/30/12 59/31/12
f 60/31/13 61/31/13 62/32/13
f 62/32/13 63/32/13 60/31/13
f 72/39/16 74/40/16 73/39/16
f 74/40/17 75/40/17 76/39/17
f 77/40/18 79/41/18 78/40/18
f 79/41/18 77/40/18 80/42/18
f 81/42/19 82/41/19 83/30/19
f 83/30/19 84/30/19 81/42/19
f 85/43/10 87/40/10 86/39/10
f 88/31/10 90/43/10 89/32/10
f 88/31/10 87/40/10 91/43/10
f 88/31/10 92/42/10 87/40/10
f 93/30/10 92/42/10 88/31/10
f 94/31/11 96/41/11 95/30/11
f 97/43/11 94/31/11 98/32/11
f 99/40/11 101/43/11 100/39/11
f 99/40/11 94/31/11 102/43/11
f 99/40/11 96/41/11 94/31/11
usemtl mat_roof
f 17/11/5 19/12/5 18/13/5
f 19/12/5 17/11/5 20/14/5
f 64/33/14 66/34/14 65/35/14
f 66/34/14 64/33/14 67/36/14
f 68/36/15 70/37/15 69/34/15
f 70/37/15 68/36/15 71/38/15
f 103/44/20 104/44/20 105/45/20
f 105/45/20 106/45/20 103/44/20
f 107/46/21 109/47/21 108/48/21
f 109/47/21 107/46/21 110/49/21
f 111/49/22 112/47/22 113/50/22
f 113/50/22 114/51/22 111/49/22
f 115/52/23 117/53/23 116/54/23
f 117/53/23 115/52/23 118/55/23
f 119/55/8 121/56/8 120/53/8
f 122/56/8 119/55/8 123/57/8
f 124/58/24 126/44/25 125/59/26
f 127/58/27 128/45/28 126/44/29
f 129/60/30 128/45/31 130/58/32
f 131/58/33 133/45/34 132/60/35
f 134/44/36 136/58/37 135/59/38
f 134/44/39 133/45/40 137/58/41
