# Blender 4.0.2
# www.blender.org
mtllib village_house_3.mtl
o village_house_3
v -0.281152 6.869897 3.365505
v 0.281153 6.869897 3.365505
v 0.281153 8.000000 3.365505
v -0.281152 8.000000 3.365505
v 0.281152 6.869897 -4.338742
v 0.281152 6.869897 -3.306149
v 0.281152 8.000001 -3.306150
v 0.281152 8.000001 -4.338742
v 4.250000 2.847944 6.500000
v 0.000001 7.526735 6.500000
v -0.000001 7.526737 -6.500000
v 4.250000 2.847944 -6.500000
v 4.250000 2.847944 6.500000
v 4.250000 2.644518 6.500000
v 0.000001 7.323310 6.500000
v -4.250000 2.644518 6.500001
v -4.250000 2.847944 6.500001
v 0.000001 7.526735 6.500000
v -0.281153 6.869897 -3.306149
v -0.281153 6.869897 -4.338742
v -0.281153 8.000001 -4.338742
v -0.281153 8.000001 -3.306150
v -0.281152 6.869896 4.398098
v -0.281152 6.869897 3.365505
v -0.281152 8.000000 3.365505
v -0.281152 8.000000 4.398098
v 0.281153 6.869897 3.365505
v 0.281153 6.869896 4.398098
v 0.281153 8.000000 4.398098
v 0.281153 8.000000 3.365505
v 0.281153 6.869896 4.398098
v -0.281152 6.869896 4.398098
v -0.281152 8.000000 4.398098
v 0.281153 8.000000 4.398098
v -0.281153 6.869897 -4.338742
v 0.281152 6.869897 -4.338742
v 0.281152 8.000001 -4.338742
v -0.281153 8.000001 -4.338742
v -0.281153 8.000001 -4.338742
v 0.281152 8.000001 -4.338742
v 0.281152 8.000001 -3.306150
v -0.281153 8.000001 -3.306150
v -4.047618 -0.000001 6.250000
v -4.047619 0.000001 -6.250000
v -4.047619 2.881598 -6.249999
v -4.047618 2.881598 6.250001
v -4.047618 2.881598 6.250001
v 0.000001 7.356966 6.250000
v 4.047619 2.881598 6.250000
v 4.047619 -0.000001 6.250000
v -4.047618 -0.000001 6.250000
v 0.281152 6.869897 -3.306149
v -0.281153 6.869897 -3.306149
v -0.281153 8.000001 -3.306150
v 0.281152 8.000001 -3.306150
v 0.000001 7.323310 6.500000
v -0.000001 7.323311 -6.500000
v -4.250000 2.644520 -6.499999
v -4.250000 2.644518 6.500001
v 0.281153 8.000000 4.398098
v -0.281152 8.000000 4.398098
v -0.281152 8.000000 3.365505
v 0.281153 8.000000 3.365505
v -0.000001 7.323311 -6.500000
v 0.000001 7.323310 6.500000
v 4.250000 2.644518 6.500000
v 4.250000 2.644520 -6.500000
v -4.250000 2.847944 -6.499999
v -4.250000 2.644520 -6.499999
v -0.000001 7.323311 -6.500000
v 4.250000 2.644520 -6.500000
v 4.250000 2.847944 -6.500000
v -0.000001 7.526737 -6.500000
v 4.250000 2.644518 6.500000
v 4.250000 2.847944 6.500000
v 4.250000 2.847944 -6.500000
v 4.250000 2.644520 -6.500000
v 4.047618 0.000001 -6.250000
v 4.047619 -0.000001 6.250000
v 4.047619 2.881598 6.250000
v 4.047618 2.881598 -6.250000
v -4.250000 2.644520 -6.499999
v -4.250000 2.847944 -6.499999
v -4.250000 2.847944 6.500001
v -4.250000 2.644518 6.500001
v -0.000001 7.356966 -6.250000
v -4.047619 2.881598 -6.249999
v -4.047619 0.000001 -6.250000
v 4.047618 0.000001 -6.250000
v 4.047618 2.881598 -6.250000
v -4.250000 2.847944 -6.499999
v -0.000001 7.526737 -6.500000
v 0.000001 7.526735 6.500000
v -4.250000 2.847944 6.500001
vn -0.0000 -0.0000 -1.0000
vn 1.0000 -0.0000 -0.0000
vn 0.7402 0.6724 -0.0000
vn -0.0000 -0.0000 1.0000
vn -1.0000 -0.0000 -0.0000
vn -0.0000 1.0000 -0.0000
vn 0.7402 -0.6724 -0.0000
vn -0.7402 -0.6724 -0.0000
vn -0.7402 0.6724 -0.0000
vt 0.437676 1.000000
vt 0.495286 0.880346
vt 0.495286 1.000000
vt 0.437676 0.880346
vt 1.000000 0.844251
vt 0.905478 0.903737
vt 0.905478 0.844251
vt 1.000000 0.903737
vt 0.207613 0.336851
vt 0.000000 1.000000
vt 0.000000 0.336851
vt 0.207613 1.000000
vt 1.000000 0.608621
vt 0.718391 0.953120
vt 1.000000 0.592962
vt 0.436781 0.592962
vt 0.718391 0.968779
vt 0.436781 0.608621
vt 0.940515 1.000000
vt 0.881029 0.905478
vt 0.940515 0.905478
vt 0.881029 1.000000
vt 1.000000 1.000000
vt 1.000000 0.905478
vt 0.821543 0.905478
vt 0.821543 1.000000
vt 0.557154 0.879628
vt 0.437500 0.822018
vt 0.557154 0.822018
vt 0.437500 0.879628
vt 0.552895 1.000000
vt 0.610505 0.880346
vt 0.610505 1.000000
vt 0.552895 0.880346
vt 0.959506 0.796465
vt 0.973379 0.756750
vt 0.973379 0.796465
vt 0.959506 0.756750
vt 1.000000 0.000000
vt 0.000000 0.332945
vt 0.000000 0.000000
vt 1.000000 0.332945
vt 0.436781 0.570140
vt 1.000000 0.570140
vt 0.718390 0.933944
vt 1.000000 0.335894
vt 0.436781 0.335894
vt 0.960105 0.747832
vt 0.986652 0.805384
vt 0.960105 0.805384
vt 0.986652 0.747832
vt 0.987252 0.756750
vt 0.987252 0.796465
vt 1.000000 0.639842
vt 0.718391 0.984341
vt 1.000000 0.624184
vt 0.436781 0.624184
vt 0.718391 1.000000
vt 0.436781 0.639843
vt 0.417796 1.000000
vt 0.425371 0.336851
vt 0.425371 1.000000
vt 0.417796 0.336851
vt 0.000000 0.000001
vt 0.432946 0.336851
vt 0.432946 1.000000
vt 0.207643 0.336851
vt 0.415256 1.000000
vt 0.415256 0.336851
vt 0.207643 1.000000
s 1
usemtl dom11.dds-0
f 1/1/1 3/2/1 2/3/1
f 3/2/1 1/1/1 4/4/1
f 5/5/2 7/6/2 6/7/2
f 7/6/2 5/5/2 8/8/2
f 9/9/3 11/10/3 10/11/3
f 11/10/3 9/9/3 12/12/3
f 13/13/4 15/14/4 14/15/4
f 16/16/4 18/17/4 17/18/4
f 18/17/4 15/14/4 13/13/4
f 16/16/4 15/14/4 18/17/4
f 19/19/5 21/20/5 20/21/5
f 21/20/5 19/19/5 22/22/5
f 23/23/5 25/21/5 24/24/5
f 25/21/5 23/23/5 26/19/5
f 27/22/2 29/25/2 28/20/2
f 29/25/2 27/22/2 30/26/2
f 31/27/4 33/28/4 32/29/4
f 33/28/4 31/27/4 34/30/4
f 35/31/1 37/32/1 36/33/1
f 37/32/1 35/31/1 38/34/1
f 39/35/6 41/36/6 40/37/6
f 41/36/6 39/35/6 42/38/6
f 43/39/5 45/40/5 44/41/5
f 45/40/5 43/39/5 46/42/5
f 47/43/4 49/44/4 48/45/4
f 50/46/4 47/43/4 51/47/4
f 49/44/4 47/43/4 50/46/4
f 52/3/4 54/34/4 53/31/4
f 54/34/4 52/3/4 55/2/4
f 56/48/7 58/49/7 57/50/7
f 58/49/7 56/48/7 59/51/7
f 60/52/6 62/37/6 61/36/6
f 62/37/6 60/52/6 63/53/6
f 64/48/8 66/49/8 65/50/8
f 66/49/8 64/48/8 67/51/8
f 68/54/1 70/55/1 69/56/1
f 71/57/1 73/58/1 72/59/1
f 73/58/1 70/55/1 68/54/1
f 71/57/1 70/55/1 73/58/1
f 74/60/2 76/61/2 75/62/2
f 76/61/2 74/60/2 77/63/2
f 78/39/2 80/40/2 79/64/2
f 80/40/2 78/39/2 81/42/2
f 82/65/5 84/62/5 83/61/5
f 84/62/5 82/65/5 85/66/5
f 86/45/1 88/46/1 87/44/1
f 89/47/1 86/45/1 90/43/1
f 88/46/1 86/45/1 89/47/1
f 91/67/9 93/68/9 92/69/9
f 93/68/9 91/67/9 94/70/9
