# Blender 5.0.1
# www.blender.org
mtllib ddr_ew_65.mtl
o Main
v 4.305583 2.400028 2.907640
v 4.305583 2.937555 2.907640
v 4.305583 2.400028 1.675801
v 4.305583 2.937555 1.675801
v -4.264791 2.017064 -2.624799
v -4.264791 2.017064 -1.631905
v -4.264791 3.009958 -1.631905
v -4.264791 3.009958 -2.624799
v -4.264791 2.017064 2.624799
v -4.264791 2.017064 1.631905
v -4.264791 3.009958 1.631905
v -4.264791 3.009958 2.624799
v 1.671216 2.017060 -4.382732
v 1.671216 3.009954 -4.382732
v 2.664110 2.017060 -4.382732
v 2.664110 3.009954 -4.382732
v -1.671213 2.017060 -4.382732
v -1.671216 3.009954 -4.382732
v -2.664107 2.017060 -4.382732
v -2.664110 3.009954 -4.382732
v 1.671216 2.017060 4.204401
v 1.671216 3.009954 4.204401
v 2.664110 2.017060 4.204401
v 2.664110 3.009954 4.204401
v -1.671216 2.017060 4.204401
v -1.671216 3.009954 4.204401
v -2.664110 2.017060 4.204401
v -2.664110 3.009954 4.204401
v -4.362710 0.698743 4.264580
v 4.220203 0.707627 0.485452
v -4.362710 3.804582 4.264580
v 4.220203 2.963852 0.485452
v -4.362710 0.698743 -4.460844
v 4.220203 0.707627 -0.707417
v 4.220203 2.963852 -0.707417
v -4.362712 3.804582 -4.460844
v 4.362710 0.698742 4.264580
v 4.362710 3.804581 4.264580
v 4.362710 0.698742 -4.460844
v 4.362710 3.804581 -4.460844
v -4.362712 -0.030094 -4.460844
v -4.362712 -0.030094 4.264580
v 4.362712 -0.030094 -4.460844
v 4.362712 -0.030094 4.264580
v 4.362710 2.963851 0.485452
v 4.362710 2.963851 -0.707417
v 4.362710 0.707626 0.485452
v 4.362710 0.707626 -0.707417
v -1.671213 2.017060 -4.460844
v -1.671216 3.009954 -4.460844
v -2.664110 3.009954 -4.460844
v -2.664107 2.017060 -4.460844
v 2.664110 2.017060 -4.460844
v 1.671216 3.009954 -4.460844
v 1.671216 2.017060 -4.460844
v 2.664110 3.009954 -4.460844
v 1.671216 3.009954 4.264580
v 2.664109 2.017060 4.264580
v 2.664109 3.009954 4.264580
v -1.671216 2.017060 4.264580
v -1.671216 3.009954 4.264580
v -2.664110 3.009954 4.264580
v -2.664110 2.017060 4.264580
v 1.671216 2.017060 4.264580
v -4.362712 3.009958 -1.631905
v -4.362712 3.009958 -2.624799
v -4.362710 2.017064 -2.624799
v -4.362710 2.017064 -1.631905
v -4.362710 2.017064 1.631905
v -4.362710 2.017064 2.624799
v -4.362712 3.009958 1.631905
v -4.362710 3.009958 2.624799
v 4.280164 6.080513 1.567745
v 4.280164 7.073407 1.567745
v 4.280164 6.080513 0.574851
v 4.280164 7.073407 0.574851
v 4.280164 6.080513 -1.567745
v 4.280164 7.073408 -1.567745
v 4.280164 6.080513 -0.574851
v 4.280164 7.073408 -0.574851
v -4.280165 6.080513 1.567745
v -4.280165 7.073408 1.567745
v -4.280165 6.080513 0.574851
v -4.280165 7.073408 0.574851
v -4.280165 6.080514 -1.567745
v -4.280165 7.073408 -1.567745
v -4.280165 6.080514 -0.574851
v -4.280165 7.073408 -0.574851
v 4.440557 3.796660 4.342425
v 4.440557 3.796659 -4.538689
v 4.440557 4.322366 -3.984948
v 4.440557 4.322366 3.788684
v -4.440556 10.020516 -0.098132
v 4.440556 9.836446 -0.098132
v 4.440557 3.796661 -4.341053
v 4.440557 3.796661 4.144790
v 4.440557 4.306561 -3.811958
v 4.440557 4.306561 3.615695
v 4.440556 9.575226 -0.098132
v 0.000000 3.796659 -4.538689
v 0.000000 3.796659 4.342425
v 0.000000 4.322366 -3.984948
v 0.000000 4.322366 3.788684
v 0.000000 9.836446 -0.098132
v 4.362710 3.804582 -4.341054
v 4.362710 3.804582 4.144790
v 4.362709 4.306561 -3.811958
v 4.362709 4.306561 3.615695
v 4.362709 9.575226 -0.098132
v -4.440557 3.796660 4.342425
v -4.440557 3.796659 -4.538689
v -4.440557 4.322366 -3.984948
v -4.440557 4.322366 3.788684
v 4.440556 10.020516 -0.098132
v -4.440556 9.836446 -0.098132
v -4.440557 3.796661 -4.341053
v -4.440557 3.796661 4.144790
v -4.440557 4.306561 -3.811958
v -4.440557 4.306561 3.615695
v -4.440556 9.575226 -0.098132
v -4.362710 3.804582 -4.341054
v -4.362710 3.804582 4.144790
v -4.362710 4.306561 -3.811958
v -4.362710 4.306561 3.615695
v -4.362709 9.575226 -0.098132
v 4.362709 7.073407 0.574851
v 4.362709 7.073408 -0.574851
v 4.362709 6.970414 -0.574851
v 4.362709 7.073408 -1.567745
v 4.362709 6.080513 -1.567745
v 4.362709 6.080513 1.567745
v 4.362709 6.080513 0.574851
v 4.362709 6.970414 0.574851
v 4.362709 7.073407 1.567745
v 4.362709 6.080513 -0.574851
v -4.362709 7.073408 0.574851
v -4.362710 6.080513 0.574851
v -4.362709 7.073408 1.567745
v -4.362710 6.080513 1.567745
v -4.362709 7.073408 -0.574851
v -4.362709 7.073408 -1.567745
v -4.362710 6.080514 -0.574851
v -4.362710 6.183507 -1.567745
v -4.362710 6.080514 -1.567745
v 4.180867 -0.030094 -0.723140
v 4.180867 1.021340 -0.723140
v 4.180867 -0.030094 -0.894498
v 4.180867 1.021340 -0.894498
v 5.807406 -0.030094 -0.723140
v 5.807406 1.021340 -0.723140
v 5.807406 -0.030094 -0.894498
v 5.807406 1.021340 -0.894498
v 5.806523 -0.030094 0.939890
v 5.806523 0.149477 0.939890
v 5.669396 0.333965 0.802762
v 5.411297 0.691529 0.544663
v 5.542802 0.509837 0.676168
v 5.411297 0.509837 0.544663
v 5.542802 0.333965 0.676168
v 5.669396 0.149477 0.802762
v 5.411297 0.691529 -0.723140
v 5.411297 0.509837 -0.723140
v 5.542802 0.509837 -0.723140
v 5.542802 0.333965 -0.723140
v 5.669396 0.333965 -0.723140
v 5.669396 0.149477 -0.723140
v 5.806523 0.149477 -0.723140
v 5.806523 -0.030094 -0.723140
v 4.187246 0.691529 0.544663
v 4.187246 0.509837 0.544663
v 4.187246 0.691529 -0.723140
v 4.187246 0.509837 0.676168
v 4.187246 0.333965 0.676168
v 4.187246 0.333965 0.802762
v 4.187246 0.149477 0.802762
v 4.187246 0.149477 0.939890
v 4.187246 -0.030094 0.939890
v 4.187246 -0.030094 -0.723140
v 1.044615 8.337545 -0.295290
v 1.044615 10.295067 -0.295290
v 1.044615 8.337545 -1.007692
v 1.044615 10.295067 -1.007692
v 1.757017 8.337545 -0.295290
v 1.757017 10.295067 -0.295290
v 1.757017 8.337545 -1.007692
v 1.757017 10.295067 -1.007692
v 1.014581 10.295067 -0.265257
v 1.014581 10.295067 -1.037726
v 1.787051 10.295067 -1.037726
v 1.787051 10.295067 -0.265257
v 1.014581 10.379374 -0.265257
v 1.014581 10.379374 -1.037726
v 1.787051 10.379374 -1.037726
v 1.787051 10.379374 -0.265257
v 1.130398 10.379374 -0.381074
v 1.130398 10.379374 -0.921909
v 1.671233 10.379374 -0.921909
v 1.671233 10.379374 -0.381074
v 1.130398 9.532173 -0.381074
v 1.130398 9.532173 -0.921909
v 1.671233 9.532173 -0.921909
v 1.671233 9.532173 -0.381074
v 1.661580 2.008118 4.428204
v 1.661580 2.091304 4.428204
v 1.661580 2.008118 4.345017
v 1.661580 2.091304 4.345017
v 2.673745 2.008118 4.428204
v 2.673745 2.091304 4.428204
v 2.673745 2.008118 4.345017
v 2.673745 2.091304 4.345017
v 1.661580 2.091304 4.193629
v 1.661580 2.008118 4.193629
v 2.673745 2.008118 4.193629
v 2.673745 2.091304 4.193629
v -2.673742 2.008118 -4.380195
v -2.673742 2.091304 -4.380195
v -2.673742 2.008118 -4.463381
v -2.673742 2.091304 -4.463381
v -1.661577 2.008118 -4.380195
v -1.661577 2.091304 -4.380195
v -1.661577 2.008118 -4.463381
v -1.661577 2.091304 -4.463381
v -2.673742 2.091304 -4.614770
v -2.673742 2.008118 -4.614770
v -1.661577 2.008118 -4.614770
v -1.661577 2.091304 -4.614770
v 1.661580 2.008118 -4.380195
v 1.661580 2.091304 -4.380195
v 1.661580 2.008118 -4.463381
v 1.661580 2.091304 -4.463381
v 2.673745 2.008118 -4.380195
v 2.673745 2.091304 -4.380195
v 2.673745 2.008118 -4.463381
v 2.673745 2.091304 -4.463381
v 1.661580 2.091304 -4.614770
v 1.661580 2.008118 -4.614770
v 2.673745 2.008118 -4.614770
v 2.673745 2.091304 -4.614770
v -2.673742 2.008118 4.428204
v -2.673742 2.091304 4.428204
v -2.673742 2.008118 4.345017
v -2.673742 2.091304 4.345017
v -1.661577 2.008118 4.428204
v -1.661577 2.091304 4.428204
v -1.661577 2.008118 4.345017
v -1.661577 2.091304 4.345017
v -2.673742 2.091304 4.193629
v -2.673742 2.008118 4.193629
v -1.661577 2.008118 4.193629
v -1.661577 2.091304 4.193629
v -4.258349 2.008118 -1.622268
v -4.258349 2.091304 -1.622268
v -4.341535 2.008118 -1.622268
v -4.341535 2.091304 -1.622268
v -4.258349 2.008118 -2.634432
v -4.258349 2.091304 -2.634432
v -4.341535 2.008118 -2.634432
v -4.341535 2.091304 -2.634432
v -4.492924 2.091304 -1.622268
v -4.492924 2.008118 -1.622268
v -4.492924 2.008118 -2.634432
v -4.492924 2.091304 -2.634432
v -4.258349 2.008118 2.627075
v -4.258349 2.091304 2.627075
v -4.341535 2.008118 2.627075
v -4.341535 2.091304 2.627075
v -4.258349 2.008118 1.614911
v -4.258349 2.091304 1.614911
v -4.341535 2.008118 1.614911
v -4.341535 2.091304 1.614911
v -4.492924 2.091304 2.627075
v -4.492924 2.008118 2.627075
v -4.492924 2.008118 1.614911
v -4.492924 2.091304 1.614911
v -4.362712 -0.197960 -4.460844
v 4.362712 -0.197960 -4.460844
v -4.362712 -0.197960 4.264580
v 4.362712 -0.197960 4.264580
v 4.180867 -0.197959 -0.894498
v 4.180867 -0.197959 -0.723140
v 5.807406 -0.197959 -0.894498
v 5.807406 -0.197959 -0.723140
v 5.806523 -0.197959 0.939890
v 5.806523 -0.197959 -0.723140
v 4.187246 -0.197959 0.939890
v 4.187246 -0.197959 -0.723140
v 4.362710 2.400028 1.675801
v 4.362710 2.937555 1.675801
v 4.362710 2.937555 2.907640
v 4.362710 2.400028 2.907640
vn 1.0000 -0.0000 -0.0000
vn -0.0000 -0.0000 1.0000
vn -0.0000 1.0000 -0.0000
vn -1.0000 -0.0000 -0.0000
vn -0.0000 -0.0000 -1.0000
vn -0.0000 -1.0000 -0.0000
vn -0.0000 0.7252 -0.6885
vn -0.0000 0.5761 -0.8174
vn -0.0731 -0.7181 -0.6921
vn -0.0000 -0.5761 -0.8174
vn -0.0000 0.5761 0.8174
vn -0.0000 0.7252 0.6885
vn -0.0000 -0.5761 0.8174
vn -0.0731 -0.7181 0.6921
vn 0.0731 -0.7181 -0.6921
vn -0.0000 -0.7255 0.6883
vn -0.0000 -0.7254 -0.6883
vn -0.0000 -0.5761 -0.8173
vn -0.0000 -0.5761 0.8173
vn -0.0000 -0.7254 0.6883
vn -0.0000 -0.7255 -0.6883
vn 0.0731 -0.7181 0.6921
vt 0.865875 0.150279
vt 0.740080 0.209259
vt 0.740080 0.150279
vt 0.867209 0.150090
vt 0.860831 0.210111
vt 0.860831 0.150090
vt 0.738311 0.209915
vt 0.867975 0.203902
vt 0.867975 0.209915
vt 0.575117 0.500748
vt 0.701428 0.383637
vt 0.575117 0.383637
vt 0.574675 0.383637
vt 0.700986 0.500748
vt 0.700986 0.383637
vt 0.643084 0.388889
vt 0.634609 0.496620
vt 0.634609 0.388889
vt 0.702414 0.383044
vt 0.575786 0.500786
vt 0.575786 0.383044
vt 0.625000 0.000000
vt 0.375000 0.019668
vt 0.375000 0.000000
vt 0.700882 0.383044
vt 0.574254 0.500786
vt 0.574253 0.383044
vt 0.575786 0.383044
vt 0.702415 0.500787
vt 0.702415 0.383044
vt 0.635285 0.389693
vt 0.641848 0.497984
vt 0.641848 0.389693
vt 0.125000 0.500000
vt 0.375000 0.515152
vt 0.375000 0.500000
vt 0.635382 0.391238
vt 0.641687 0.495267
vt 0.641687 0.391238
vt 0.574254 0.500787
vt 0.700882 0.383044
vt 0.574254 0.383044
vt 0.125000 0.515152
vt 0.641688 0.391353
vt 0.635382 0.495382
vt 0.641688 0.495382
vt 0.034805 0.363133
vt 0.189045 0.440369
vt 0.380260 0.440369
vt 0.547123 0.361640
vt 0.387728 0.439712
vt 0.189785 0.439712
vt 0.545999 0.545558
vt 0.034805 0.545558
vt 0.262249 0.474788
vt 0.375713 0.638768
vt 0.375713 0.610495
vt 0.030391 0.361640
vt 0.189785 0.439713
vt 0.446529 0.439713
vt 0.543568 0.194653
vt 0.038113 0.152433
vt 0.038113 0.194653
vt 0.625000 0.500000
vt 0.875000 0.750000
vt 0.625000 0.750000
vt 0.495599 0.130276
vt 0.336622 0.109960
vt 0.336622 0.130276
vt 0.546152 0.181540
vt 0.034705 0.138818
vt 0.034705 0.181540
vt 0.546152 0.138818
vt 0.038113 0.194653
vt 0.543568 0.152433
vt 0.543568 0.194653
vt 0.733714 0.230821
vt 0.867523 0.501018
vt 0.867523 0.230821
vt 0.294275 0.103495
vt 0.543909 0.119957
vt 0.543909 0.103495
vt 0.125000 0.750000
vt 0.161105 0.500000
vt 0.303756 0.111493
vt 0.443211 0.094833
vt 0.443211 0.111493
vt 0.643084 0.496620
vt 0.634733 0.391238
vt 0.642918 0.495266
vt 0.642918 0.391238
vt 0.387729 0.498513
vt 0.189785 0.498513
vt 0.547123 0.546041
vt 0.634609 0.496620
vt 0.643084 0.496620
vt 0.375000 0.750000
vt 0.125000 0.730332
vt 0.375000 0.730332
vt 0.189785 0.498513
vt 0.387729 0.498513
vt 0.030391 0.546041
vt 0.634733 0.391353
vt 0.642918 0.495382
vt 0.642918 0.391353
vt 0.635285 0.497984
vt 0.375000 0.730332
vt 0.125000 0.730332
vt 0.380260 0.498540
vt 0.189045 0.498540
vt 0.375000 0.250000
vt 0.375000 0.000000
vt 0.634063 0.497860
vt 0.644794 0.389051
vt 0.644794 0.497860
vt 0.643856 0.497014
vt 0.633160 0.388558
vt 0.633160 0.497014
vt 0.644794 0.389051
vt 0.634063 0.497860
vt 0.644794 0.497860
vt 0.643399 0.496198
vt 0.632703 0.387742
vt 0.632703 0.496198
vt 0.644794 0.389052
vt 0.702624 0.383560
vt 0.573144 0.501906
vt 0.573144 0.383560
vt 0.633786 0.390596
vt 0.633786 0.486101
vt 0.644839 0.497154
vt 0.633610 0.390066
vt 0.644684 0.496824
vt 0.633610 0.496824
vt 0.702694 0.501906
vt 0.573215 0.383560
vt 0.702694 0.383560
vt 0.633786 0.390596
vt 0.633610 0.389927
vt 0.644684 0.496684
vt 0.633610 0.496684
vt 0.702624 0.383560
vt 0.573144 0.383560
vt 0.633803 0.497154
vt 0.644857 0.390596
vt 0.633803 0.390596
vt 0.633607 0.496824
vt 0.644681 0.390067
vt 0.644681 0.496824
vt 0.633803 0.497154
vt 0.644681 0.496684
vt 0.633607 0.389927
vt 0.644681 0.389927
vt 0.776324 0.913451
vt 0.972803 0.955859
vt 0.776324 0.955859
vt 0.596665 0.059436
vt 0.600803 0.332754
vt 0.594437 0.341636
vt 0.972803 0.538759
vt 0.972803 0.913451
vt 0.593042 0.057636
vt 0.603208 0.085481
vt 0.603208 0.057636
vt 0.593042 0.064719
vt 0.603208 0.341997
vt 0.603208 0.064719
vt 0.600757 0.161105
vt 0.594407 0.189830
vt 0.594464 0.154455
vt 0.601529 0.186786
vt 0.595803 0.157931
vt 0.602240 0.151418
vt 0.594118 0.331840
vt 0.602205 0.058294
vt 0.600362 0.340823
vt 0.974348 0.956682
vt 0.776838 0.540569
vt 0.974348 0.540569
vt 0.974348 0.571798
vt 0.776838 0.530010
vt 0.974348 0.530010
vt 0.290402 0.893961
vt 0.250974 0.747388
vt 0.318331 0.747388
vt 0.507983 0.585287
vt 0.041823 0.555414
vt 0.538981 0.555414
vt 0.602479 0.342226
vt 0.594018 0.091122
vt 0.593998 0.342226
vt 0.602502 0.062712
vt 0.593998 0.062498
vt 0.579845 0.955859
vt 0.602931 0.063114
vt 0.579845 0.538759
vt 0.776324 0.538759
vt 0.593880 0.087313
vt 0.602585 0.059407
vt 0.593880 0.059407
vt 0.593880 0.344390
vt 0.602585 0.066506
vt 0.593880 0.066506
vt 0.595374 0.191972
vt 0.579328 0.956682
vt 0.579328 0.540569
vt 0.579328 0.571798
vt 0.579328 0.530010
vt 0.318331 0.747388
vt 0.192803 0.747388
vt 0.594005 0.056233
vt 0.603396 0.343734
vt 0.594005 0.343734
vt 0.594005 0.164652
vt 0.603396 0.193524
vt 0.603396 0.164652
vt 0.644684 0.390066
vt 0.644839 0.390596
vt 0.633786 0.497154
vt 0.376502 0.689218
vt 0.250974 0.689217
vt 0.633607 0.390067
vt 0.633607 0.496824
vt 0.644856 0.497154
vt 0.644684 0.496684
vt 0.644684 0.389927
vt 0.072821 0.585287
vt 0.192803 0.689217
vt 0.318331 0.689217
vt 0.644856 0.497154
vt 0.644857 0.401649
vt 0.633607 0.389927
vt 0.633607 0.496684
vt 0.095968 0.258701
vt 0.269857 0.120140
vt 0.095968 0.120140
vt 0.529244 0.175781
vt 0.133835 0.228059
vt 0.133835 0.175781
vt 0.269857 0.258701
vt 0.070706 0.175781
vt 0.033020 0.175781
vt 0.529244 0.123504
vt 0.106734 0.226001
vt 0.293911 0.259067
vt 0.106734 0.259067
vt 0.227510 0.215237
vt 0.096650 0.191294
vt 0.227510 0.191294
vt 0.459872 0.130751
vt 0.330613 0.264631
vt 0.330613 0.130751
vt 0.087319 0.193993
vt 0.293911 0.226001
vt 0.087319 0.226001
vt 0.241569 0.168116
vt 0.096650 0.168116
vt 0.330613 0.116864
vt 0.473759 0.116864
vt 0.473759 0.264631
vt 0.459872 0.264631
vt 0.068628 0.160418
vt 0.293911 0.193993
vt 0.068628 0.193993
vt 0.255103 0.143804
vt 0.096650 0.168116
vt 0.096650 0.143804
vt 0.330613 0.103496
vt 0.487127 0.103496
vt 0.487127 0.264631
vt 0.048383 0.127737
vt 0.293911 0.160418
vt 0.048383 0.160418
vt 0.269763 0.120140
vt 0.096650 0.120140
vt 0.330613 0.089015
vt 0.501608 0.089015
vt 0.501608 0.264631
vt 0.469707 0.174335
vt 0.482136 0.152008
vt 0.386848 0.174335
vt 0.524229 0.217608
vt 0.374420 0.152008
vt 0.515608 0.598724
vt 0.456311 0.435791
vt 0.515608 0.435791
vt 0.397015 0.598724
vt 0.337719 0.435791
vt 0.397015 0.435791
vt 0.456311 0.598724
vt 0.456311 0.435791
vt 0.337719 0.598724
vt 0.278423 0.435791
vt 0.387016 0.376495
vt 0.327720 0.435792
vt 0.327720 0.376495
vt 0.536855 0.221458
vt 0.423918 0.226027
vt 0.428486 0.221458
vt 0.423918 0.238851
vt 0.541424 0.226027
vt 0.541424 0.238851
vt 0.536855 0.113089
vt 0.541424 0.226027
vt 0.428486 0.113089
vt 0.423918 0.108521
vt 0.541424 0.108521
vt 0.306412 0.226027
vt 0.406300 0.208409
vt 0.423918 0.226027
vt 0.306412 0.251676
vt 0.423918 0.238851
vt 0.423918 0.251676
vt 0.306412 0.238851
vt 0.541424 0.251676
vt 0.282704 0.435791
vt 0.327720 0.365276
vt 0.327720 0.435791
vt 0.423918 0.108521
vt 0.324029 0.126138
vt 0.306412 0.108521
vt 0.406300 0.126138
vt 0.324029 0.208409
vt 0.790170 0.417299
vt 0.812424 0.439553
vt 0.790170 0.439553
vt 0.237688 0.435791
vt 0.282704 0.365276
vt 0.282704 0.435791
vt 0.233407 0.598724
vt 0.278423 0.528208
vt 0.278423 0.598724
vt 0.233407 0.528208
vt 0.278423 0.457692
vt 0.662115 0.197393
vt 0.682518 0.217796
vt 0.682518 0.197393
vt 0.662115 0.217795
vt 0.682518 0.254925
vt 0.662115 0.346935
vt 0.682518 0.098693
vt 0.682518 0.346935
vt 0.677335 0.346935
vt 0.697737 0.098693
vt 0.677335 0.098693
vt 0.697737 0.346935
vt 0.662115 0.098693
vt 0.662115 0.254925
vt 0.640206 0.346935
vt 0.640206 0.098693
vt 0.662059 0.196409
vt 0.682631 0.216981
vt 0.682631 0.196409
vt 0.662059 0.216981
vt 0.682631 0.254419
vt 0.662059 0.347193
vt 0.682631 0.096888
vt 0.682631 0.347193
vt 0.677404 0.347193
vt 0.697976 0.096888
vt 0.677405 0.096888
vt 0.697976 0.347193
vt 0.662059 0.096888
vt 0.662059 0.254419
vt 0.639967 0.347193
vt 0.639967 0.096888
vt 0.662028 0.196295
vt 0.682692 0.216958
vt 0.682692 0.196295
vt 0.662028 0.216958
vt 0.682692 0.254564
vt 0.662028 0.347752
vt 0.682692 0.096329
vt 0.682692 0.347752
vt 0.677442 0.347752
vt 0.698106 0.096329
vt 0.677442 0.096329
vt 0.698106 0.347752
vt 0.662028 0.096329
vt 0.662028 0.254564
vt 0.639837 0.347752
vt 0.639837 0.096329
vt 0.661276 0.197930
vt 0.681870 0.218524
vt 0.681870 0.197930
vt 0.661276 0.218524
vt 0.681870 0.256001
vt 0.661276 0.348875
vt 0.681870 0.098303
vt 0.681870 0.348875
vt 0.676638 0.348875
vt 0.697232 0.098303
vt 0.676638 0.098303
vt 0.697232 0.348875
vt 0.661276 0.098303
vt 0.661276 0.256001
vt 0.639160 0.348875
vt 0.639160 0.098303
vt 0.706354 0.247330
vt 0.717037 0.236648
vt 0.717037 0.247330
vt 0.706354 0.236648
vt 0.717037 0.217206
vt 0.706354 0.258013
vt 0.717037 0.258013
vt 0.695671 0.347188
vt 0.706354 0.217206
vt 0.706354 0.347188
vt 0.635423 0.347188
vt 0.624740 0.217206
vt 0.635423 0.217206
vt 0.674306 0.217206
vt 0.684988 0.347188
vt 0.674306 0.347188
vt 0.684988 0.347188
vt 0.695671 0.217206
vt 0.695671 0.347188
vt 0.706354 0.277454
vt 0.654864 0.347188
vt 0.654864 0.217206
vt 0.707420 0.252133
vt 0.717204 0.242349
vt 0.717204 0.252133
vt 0.707420 0.242349
vt 0.717204 0.224543
vt 0.707420 0.261917
vt 0.717204 0.261917
vt 0.687851 0.343590
vt 0.697635 0.224543
vt 0.697635 0.343590
vt 0.642456 0.343590
vt 0.632672 0.224543
vt 0.642456 0.224543
vt 0.678067 0.224543
vt 0.678067 0.343590
vt 0.707420 0.224543
vt 0.707420 0.343590
vt 0.707420 0.279722
vt 0.660262 0.343590
vt 0.660262 0.224543
vt 0.495599 0.095187
vt 0.336622 0.258459
vt 0.495599 0.258459
vt 0.095968 0.098018
vt 0.038113 0.152433
vt 0.543568 0.142708
vt 0.543568 0.152433
vt 0.038113 0.142708
vt 0.524229 0.130276
vt 0.360957 0.109960
vt 0.360957 0.130276
vt 0.269763 0.098018
vt 0.034705 0.128979
vt 0.293911 0.097187
vt 0.293911 0.127737
vt 0.546152 0.128979
vt 0.375000 1.000000
vt 0.593160 0.059099
vt 0.602252 0.345763
vt 0.593160 0.345763
vt 0.593119 0.059099
vt 0.602211 0.345763
vt 0.593119 0.345763
vt 0.115762 0.462613
vt 0.262249 0.363654
vt 0.867209 0.210112
vt 0.867975 0.203902
vt 0.738311 0.203902
vt 0.865875 0.209259
vt 0.867209 0.210111
vt 0.738311 0.203902
vt 0.701428 0.500748
vt 0.574675 0.500748
vt 0.702414 0.500786
vt 0.625000 0.019668
vt 0.700882 0.500786
vt 0.575786 0.500787
vt 0.635382 0.495267
vt 0.700882 0.500787
vt 0.635382 0.391353
vt 0.130874 0.498540
vt 0.130874 0.440369
vt 0.438431 0.440369
vt 0.545999 0.363133
vt 0.547123 0.546041
vt 0.446529 0.498513
vt 0.446529 0.439712
vt 0.130984 0.439712
vt 0.030391 0.361640
vt 0.320060 0.363654
vt 0.115297 0.494183
vt 0.188545 0.492709
vt 0.320060 0.474788
vt 0.030391 0.546041
vt 0.130984 0.498513
vt 0.130984 0.439713
vt 0.547123 0.361640
vt 0.387729 0.439713
vt 0.875000 0.500000
vt 0.495599 0.109960
vt 0.733714 0.501018
vt 0.294275 0.119957
vt 0.161105 0.750000
vt 0.303756 0.094833
vt 0.634733 0.495266
vt 0.446529 0.498513
vt 0.634609 0.388889
vt 0.130984 0.498513
vt 0.634733 0.495382
vt 0.438431 0.498540
vt 0.634063 0.389051
vt 0.643856 0.388558
vt 0.634063 0.389051
vt 0.643399 0.387742
vt 0.634063 0.389052
vt 0.702624 0.501906
vt 0.573215 0.501906
vt 0.644839 0.390596
vt 0.633607 0.390067
vt 0.633607 0.496684
vt 0.593042 0.085481
vt 0.593042 0.341997
vt 0.600448 0.195148
vt 0.595878 0.061886
vt 0.776838 0.956682
vt 0.776838 0.571798
vt 0.376502 0.747388
vt 0.250974 0.741354
vt 0.318331 0.741354
vt 0.602500 0.091123
vt 0.579845 0.913451
vt 0.602585 0.087313
vt 0.602586 0.344390
vt 0.376502 0.695252
vt 0.318331 0.689218
vt 0.250974 0.747388
vt 0.603396 0.056233
vt 0.594005 0.193524
vt 0.633610 0.496684
vt 0.376502 0.689217
vt 0.625000 0.250000
vt 0.529244 0.228059
vt 0.070706 0.228059
vt 0.033020 0.123504
vt 0.096650 0.215237
vt 0.241569 0.191294
vt 0.255103 0.168116
vt 0.269763 0.143804
vt 0.336622 0.217608
vt 0.456796 0.217608
vt 0.456796 0.195619
vt 0.469707 0.195619
vt 0.495599 0.152008
vt 0.482136 0.174335
vt 0.386848 0.195619
vt 0.399759 0.195619
vt 0.399759 0.217608
vt 0.360957 0.152008
vt 0.374420 0.174335
vt 0.456311 0.598724
vt 0.387016 0.435792
vt 0.306412 0.226027
vt 0.282704 0.365276
vt 0.812424 0.417299
vt 0.237688 0.365276
vt 0.233407 0.457692
vt 0.706354 0.217206
vt 0.624740 0.347188
vt 0.684988 0.217206
vt 0.717037 0.277454
vt 0.654864 0.217206
vt 0.654864 0.347188
vt 0.687851 0.224543
vt 0.632672 0.343590
vt 0.717204 0.279722
vt 0.660262 0.224543
vt 0.660262 0.343590
vt 0.336622 0.095187
vt 0.269857 0.098018
vt 0.038113 0.142708
vt 0.543568 0.142708
vt 0.524229 0.109960
vt 0.096650 0.098018
vt 0.048383 0.097187
vt 0.602252 0.059099
vt 0.602211 0.059099
vt 0.189745 0.460909
vt 0.860831 0.210112
s 0
usemtl Material.001
f 3/1/1 2/2/1 1/3/1
f 287/4/2 4/5/2 3/6/2
f 1/7/3 287/8/3 3/9/3
f 7/10/4 5/11/4 6/12/4
f 9/13/4 11/14/4 10/15/4
f 55/16/1 14/17/1 13/18/1
f 13/19/5 16/20/5 15/21/5
f 18/22/4 49/23/4 17/24/4
f 19/25/5 18/26/5 17/27/5
f 23/28/2 22/29/2 21/30/2
f 58/31/4 24/32/4 23/33/4
f 21/34/3 58/35/3 23/36/3
f 59/37/6 22/38/6 24/39/6
f 26/40/2 27/41/2 25/42/2
f 28/32/1 63/31/1 27/33/1
f 27/36/3 60/43/3 25/34/3
f 26/44/6 62/45/6 28/46/6
f 29/47/4 69/48/4 68/49/4
f 33/50/5 49/51/5 55/52/5
f 40/53/1 38/54/1 45/55/1
f 47/56/1 39/36/1 48/57/1
f 37/58/2 64/59/2 63/60/2
f 39/61/5 41/62/5 33/63/5
f 40/64/3 31/65/3 38/66/3
f 168/67/5 286/68/5 178/69/5
f 33/70/4 42/71/4 29/72/4
f 37/72/1 43/73/1 39/70/1
f 29/74/2 44/75/2 37/76/2
f 34/77/1 32/78/1 30/79/1
f 46/80/2 34/81/2 48/82/2
f 30/81/5 45/80/5 47/82/5
f 30/83/3 48/84/3 34/34/3
f 35/85/6 45/86/6 32/87/6
f 15/18/4 56/88/4 53/16/4
f 16/89/6 54/90/6 56/91/6
f 61/92/2 57/93/2 31/94/2
f 20/95/1 52/16/1 51/96/1
f 19/97/3 49/98/3 52/99/3
f 54/100/5 50/101/5 40/102/5
f 18/103/6 51/104/6 50/105/6
f 26/32/4 60/31/4 61/106/4
f 21/33/1 57/106/1 64/31/1
f 13/83/3 53/107/3 55/108/3
f 65/109/4 71/110/4 36/53/4
f 9/111/3 69/112/3 70/111/3
f 7/113/5 68/114/5 65/115/5
f 8/116/6 65/117/6 66/118/6
f 69/119/2 11/120/2 71/121/2
f 6/24/3 67/111/3 68/112/3
f 11/122/6 72/123/6 71/124/6
f 12/120/5 70/125/5 72/121/5
f 67/114/2 8/113/2 66/115/2
f 75/126/1 74/127/1 73/128/1
f 132/129/2 133/130/2 76/131/2
f 73/132/3 132/133/3 75/134/3
f 78/135/1 79/136/1 77/137/1
f 80/131/5 128/130/5 135/138/5
f 79/139/3 130/140/3 77/141/3
f 82/127/4 83/142/4 81/143/4
f 84/144/2 137/145/2 83/146/2
f 137/147/3 81/148/3 83/149/3
f 87/136/4 86/135/4 85/137/4
f 142/145/5 88/150/5 87/146/5
f 85/151/3 142/152/3 87/153/3
f 102/154/7 90/155/7 100/156/7
f 92/157/1 99/158/1 94/159/1
f 102/154/8 94/160/8 91/161/8
f 106/162/9 98/163/9 96/164/9
f 108/165/10 99/166/10 98/167/10
f 96/168/1 92/169/1 89/170/1
f 91/171/1 95/172/1 90/173/1
f 99/174/1 91/175/1 94/176/1
f 94/177/11 103/178/11 92/179/11
f 92/180/12 101/181/12 89/182/12
f 109/183/1 126/184/1 127/185/1
f 107/186/1 106/187/1 105/188/1
f 109/189/13 97/190/13 99/191/13
f 97/190/14 105/192/14 95/193/14
f 111/194/7 102/154/7 100/156/7
f 113/157/4 120/158/4 119/195/4
f 102/154/8 115/196/8 104/197/8
f 119/198/15 122/199/15 117/200/15
f 120/201/10 124/202/10 119/203/10
f 113/169/4 117/168/4 110/170/4
f 112/171/4 116/172/4 118/204/4
f 112/175/4 120/174/4 115/176/4
f 103/178/11 115/205/11 113/206/11
f 101/181/12 113/207/12 110/208/12
f 140/209/4 138/210/4 125/183/4
f 122/187/4 123/186/4 121/188/4
f 118/211/13 125/212/13 120/213/13
f 118/214/16 121/215/16 123/216/16
f 74/132/6 126/133/6 134/217/6
f 73/218/5 134/219/5 131/129/5
f 144/220/4 123/186/4 137/221/4
f 84/149/6 138/222/6 136/223/6
f 78/131/2 130/138/2 129/219/2
f 138/224/5 81/146/5 139/145/5
f 80/139/6 129/225/6 127/226/6
f 108/227/1 132/221/1 131/228/1
f 132/221/1 107/186/1 135/229/1
f 85/146/2 141/230/2 143/231/2
f 86/151/6 140/232/6 141/233/6
f 146/22/4 147/111/4 145/24/4
f 148/234/5 151/235/5 147/236/5
f 152/237/1 149/238/1 151/239/1
f 150/240/2 145/236/2 149/235/2
f 149/238/1 281/241/1 151/239/1
f 148/242/3 150/243/3 152/237/3
f 158/244/1 161/245/1 156/246/1
f 156/247/2 170/248/2 158/249/2
f 156/250/3 171/251/3 169/252/3
f 159/253/1 163/254/1 157/255/1
f 159/256/2 172/248/2 173/257/2
f 158/250/3 172/258/3 157/259/3
f 158/250/3 163/260/3 162/261/3
f 160/262/1 165/263/1 155/264/1
f 160/265/2 174/266/2 175/267/2
f 159/259/3 174/268/3 155/269/3
f 159/259/3 165/270/3 164/260/3
f 153/271/1 167/272/1 154/273/1
f 153/274/2 176/267/2 177/275/2
f 147/111/4 280/24/4 145/24/4
f 160/269/3 176/276/3 154/277/3
f 160/269/3 167/278/3 166/270/3
f 164/279/5 166/280/5 178/69/5
f 173/281/4 171/282/4 175/283/4
f 180/284/4 181/285/4 179/286/4
f 182/287/5 185/288/5 181/289/5
f 186/290/1 183/289/1 185/291/1
f 184/292/2 179/293/2 183/288/2
f 185/294/6 179/295/6 181/296/6
f 180/297/6 188/298/6 182/299/6
f 188/300/5 193/301/5 189/302/5
f 184/303/6 187/304/6 180/297/6
f 186/305/6 188/298/6 189/306/6
f 186/305/6 190/307/6 184/303/6
f 193/308/3 198/309/3 194/310/3
f 189/311/1 194/312/1 190/313/1
f 187/314/4 192/310/4 188/300/4
f 190/313/2 191/302/2 187/315/2
f 198/316/5 199/317/5 195/318/5
f 191/319/3 196/320/3 192/321/3
f 191/319/3 198/309/3 195/322/3
f 192/321/3 197/323/3 193/308/3
f 200/324/3 202/325/3 201/326/3
f 196/327/2 201/328/2 197/329/2
f 197/330/4 202/331/4 198/332/4
f 195/333/1 200/334/1 196/331/1
f 204/335/4 205/336/4 203/337/4
f 206/338/4 212/339/4 205/336/4
f 210/338/1 207/337/1 209/336/1
f 208/340/2 203/341/2 207/342/2
f 209/343/6 203/344/6 205/345/6
f 206/345/3 208/346/3 210/343/3
f 211/347/5 213/342/5 212/341/5
f 209/336/1 214/348/1 210/338/1
f 205/345/6 213/349/6 209/343/6
f 210/343/3 211/350/3 206/345/3
f 216/351/4 217/352/4 215/353/4
f 218/354/4 224/355/4 217/352/4
f 222/354/1 219/353/1 221/352/1
f 220/356/2 215/357/2 219/358/2
f 221/359/6 215/360/6 217/361/6
f 218/361/3 220/362/3 222/359/3
f 223/363/5 225/358/5 224/357/5
f 221/352/1 226/364/1 222/354/1
f 217/361/6 225/365/6 221/359/6
f 222/359/3 223/366/3 218/361/3
f 228/367/4 229/368/4 227/369/4
f 230/370/4 236/371/4 229/368/4
f 234/370/1 231/369/1 233/368/1
f 232/372/2 227/373/2 231/374/2
f 233/375/6 227/376/6 229/377/6
f 230/377/3 232/378/3 234/375/3
f 235/379/5 237/374/5 236/373/5
f 233/368/1 238/380/1 234/370/1
f 229/377/6 237/381/6 233/375/6
f 234/375/3 235/382/3 230/377/3
f 240/383/4 241/384/4 239/385/4
f 242/386/4 248/387/4 241/384/4
f 246/386/1 243/385/1 245/384/1
f 244/388/2 239/389/2 243/390/2
f 245/391/6 239/392/6 241/393/6
f 242/393/3 244/394/3 246/391/3
f 247/395/5 249/390/5 248/389/5
f 245/384/1 250/396/1 246/386/1
f 241/393/6 249/397/6 245/391/6
f 246/391/3 247/398/3 242/393/3
f 252/399/2 253/400/2 251/401/2
f 254/402/2 260/403/2 253/400/2
f 258/404/5 255/401/5 257/405/5
f 256/406/1 251/407/1 255/408/1
f 257/409/6 251/410/6 253/411/6
f 254/412/3 256/413/3 258/414/3
f 259/415/4 261/416/4 260/417/4
f 257/405/5 262/418/5 258/404/5
f 253/411/6 261/419/6 257/409/6
f 258/414/3 259/420/3 254/412/3
f 264/421/2 265/422/2 263/423/2
f 266/424/2 272/425/2 265/422/2
f 270/426/5 267/423/5 269/427/5
f 268/428/1 263/429/1 267/430/1
f 269/431/6 263/432/6 265/433/6
f 266/434/3 268/428/3 270/435/3
f 271/430/4 273/436/4 272/437/4
f 269/427/5 274/438/5 270/426/5
f 265/433/6 273/439/6 269/431/6
f 270/435/3 271/440/3 266/434/3
f 276/36/6 277/83/6 275/34/6
f 281/36/6 280/83/6 279/34/6
f 283/441/6 286/442/6 284/443/6
f 151/235/5 279/444/5 147/236/5
f 42/445/2 278/446/2 44/75/2
f 43/447/5 275/448/5 41/62/5
f 178/449/4 285/450/4 177/451/4
f 177/275/2 283/452/2 153/274/2
f 41/73/4 277/453/4 42/71/4
f 153/271/1 284/454/1 168/455/1
f 44/71/1 276/456/1 43/73/1
f 145/457/2 282/97/2 149/97/2
f 110/458/6 96/459/6 89/460/6
f 116/461/6 90/462/6 95/463/6
f 290/464/1 37/47/1 47/465/1
f 1/6/5 289/466/5 290/4/5
f 2/7/6 288/467/6 289/468/6
f 3/1/1 4/469/1 2/2/1
f 287/4/2 288/470/2 4/5/2
f 1/7/3 290/471/3 287/8/3
f 7/10/4 8/472/4 5/11/4
f 9/13/4 12/473/4 11/14/4
f 55/16/1 54/88/1 14/17/1
f 13/19/5 14/474/5 16/20/5
f 18/22/4 50/475/4 49/23/4
f 19/25/5 20/476/5 18/26/5
f 23/28/2 24/477/2 22/29/2
f 58/31/4 59/106/4 24/32/4
f 21/34/3 64/43/3 58/35/3
f 59/37/6 57/478/6 22/38/6
f 26/40/2 28/479/2 27/41/2
f 28/32/1 62/106/1 63/31/1
f 27/36/3 63/35/3 60/43/3
f 26/44/6 61/480/6 62/45/6
f 29/47/4 31/54/4 72/481/4
f 29/47/4 72/481/4 70/482/4
f 67/483/4 33/484/4 29/47/4
f 68/49/4 67/483/4 29/47/4
f 29/47/4 70/482/4 69/48/4
f 33/50/5 36/485/5 51/486/5
f 33/50/5 51/486/5 52/487/5
f 53/488/5 39/489/5 33/50/5
f 55/52/5 53/488/5 33/50/5
f 33/50/5 52/487/5 49/51/5
f 48/490/1 39/484/1 40/53/1
f 38/54/1 290/464/1 289/491/1
f 289/491/1 288/492/1 45/55/1
f 46/493/1 48/490/1 40/53/1
f 38/54/1 289/491/1 45/55/1
f 45/55/1 46/493/1 40/53/1
f 47/56/1 37/97/1 39/36/1
f 37/58/2 38/494/2 59/495/2
f 37/58/2 59/495/2 58/496/2
f 63/60/2 29/497/2 37/58/2
f 64/59/2 60/498/2 63/60/2
f 37/58/2 58/496/2 64/59/2
f 39/61/5 43/447/5 41/62/5
f 40/64/3 36/499/3 31/65/3
f 168/67/5 284/500/5 286/68/5
f 33/70/4 41/73/4 42/71/4
f 37/72/1 44/71/1 43/73/1
f 29/74/2 42/445/2 44/75/2
f 34/77/1 35/501/1 32/78/1
f 46/80/2 35/502/2 34/81/2
f 30/81/5 32/502/5 45/80/5
f 30/83/3 47/503/3 48/84/3
f 35/85/6 46/504/6 45/86/6
f 15/18/4 16/17/4 56/88/4
f 16/89/6 14/505/6 54/90/6
f 31/94/2 29/497/2 63/60/2
f 31/94/2 63/60/2 62/506/2
f 59/495/2 38/494/2 31/94/2
f 60/498/2 64/59/2 57/93/2
f 57/93/2 59/495/2 31/94/2
f 31/94/2 62/506/2 61/92/2
f 61/92/2 60/498/2 57/93/2
f 20/95/1 19/507/1 52/16/1
f 19/97/3 17/83/3 49/98/3
f 40/102/5 39/489/5 53/488/5
f 40/102/5 53/488/5 56/508/5
f 51/486/5 36/485/5 40/102/5
f 55/52/5 49/51/5 50/101/5
f 50/101/5 51/486/5 40/102/5
f 40/102/5 56/508/5 54/100/5
f 54/100/5 55/52/5 50/101/5
f 18/103/6 20/509/6 51/104/6
f 26/32/4 25/33/4 60/31/4
f 21/33/1 22/32/1 57/106/1
f 13/83/3 15/97/3 53/107/3
f 36/53/4 33/484/4 67/483/4
f 36/53/4 67/483/4 66/510/4
f 72/481/4 31/54/4 36/53/4
f 68/49/4 69/48/4 71/110/4
f 71/110/4 72/481/4 36/53/4
f 36/53/4 66/510/4 65/109/4
f 65/109/4 68/49/4 71/110/4
f 9/111/3 10/24/3 69/112/3
f 7/113/5 6/511/5 68/114/5
f 8/116/6 7/512/6 65/117/6
f 69/119/2 10/513/2 11/120/2
f 6/24/3 5/111/3 67/111/3
f 11/122/6 12/514/6 72/123/6
f 12/120/5 9/515/5 70/125/5
f 67/114/2 5/511/2 8/113/2
f 75/126/1 76/516/1 74/127/1
f 76/131/2 75/218/2 132/129/2
f 133/130/2 126/219/2 76/131/2
f 73/132/3 131/217/3 132/133/3
f 78/135/1 80/517/1 79/136/1
f 135/138/5 79/518/5 80/131/5
f 80/131/5 127/219/5 128/130/5
f 79/139/3 135/226/3 130/140/3
f 82/127/4 84/516/4 83/142/4
f 84/144/2 136/224/2 137/145/2
f 137/147/3 139/519/3 81/148/3
f 87/136/4 88/517/4 86/135/4
f 142/145/5 140/230/5 88/150/5
f 85/151/3 144/520/3 142/152/3
f 102/154/7 91/161/7 90/155/7
f 92/157/1 98/195/1 99/158/1
f 102/154/8 104/197/8 94/160/8
f 106/162/17 108/521/17 98/163/17
f 108/165/18 109/522/18 99/166/18
f 96/168/1 98/523/1 92/169/1
f 91/171/1 97/204/1 95/172/1
f 99/174/1 97/524/1 91/175/1
f 94/177/11 104/525/11 103/178/11
f 92/180/12 103/526/12 101/181/12
f 129/527/1 107/186/1 109/183/1
f 109/183/1 108/227/1 134/210/1
f 126/184/1 133/528/1 128/529/1
f 109/183/1 134/210/1 126/184/1
f 127/185/1 129/527/1 109/183/1
f 126/184/1 128/529/1 127/185/1
f 107/186/1 108/227/1 106/187/1
f 109/189/19 107/530/19 97/190/19
f 97/190/20 107/530/20 105/192/20
f 111/194/7 112/531/7 102/154/7
f 113/157/4 115/159/4 120/158/4
f 102/154/8 112/531/8 115/196/8
f 119/198/21 124/532/21 122/199/21
f 120/201/10 125/533/10 124/202/10
f 113/169/4 119/523/4 117/168/4
f 112/171/4 111/173/4 116/172/4
f 112/175/4 118/524/4 120/174/4
f 103/178/11 104/525/11 115/205/11
f 101/181/12 103/526/12 113/207/12
f 123/186/4 143/534/4 141/527/4
f 140/209/4 142/535/4 137/221/4
f 125/183/4 123/186/4 141/527/4
f 140/209/4 137/221/4 136/536/4
f 125/183/4 141/527/4 140/209/4
f 138/210/4 139/228/4 124/227/4
f 140/209/4 136/536/4 138/210/4
f 138/210/4 124/227/4 125/183/4
f 122/187/4 124/227/4 123/186/4
f 118/211/13 123/537/13 125/212/13
f 118/214/22 116/538/22 121/215/22
f 74/132/6 76/134/6 126/133/6
f 73/218/5 74/131/5 134/219/5
f 144/220/4 143/534/4 123/186/4
f 123/186/4 124/227/4 139/228/4
f 137/221/1 142/535/1 144/220/1
f 123/186/4 139/228/4 137/221/4
f 84/149/6 82/148/6 138/222/6
f 78/131/2 77/518/2 130/138/2
f 138/224/5 82/144/5 81/146/5
f 80/139/6 78/539/6 129/225/6
f 108/227/1 107/186/1 132/221/1
f 131/228/1 134/210/1 108/227/1
f 107/186/1 129/527/1 130/540/1
f 135/229/1 128/529/1 133/528/1
f 107/186/1 130/540/1 135/229/1
f 135/229/1 133/528/1 132/221/1
f 143/231/2 144/145/2 85/146/2
f 85/146/2 86/150/2 141/230/2
f 86/151/6 88/153/6 140/232/6
f 146/22/4 148/541/4 147/111/4
f 148/234/5 152/240/5 151/235/5
f 152/237/1 150/542/1 149/238/1
f 150/240/2 146/234/2 145/236/2
f 149/238/1 282/543/1 281/241/1
f 148/242/3 146/544/3 150/243/3
f 158/244/1 162/254/1 161/245/1
f 156/247/2 169/545/2 170/248/2
f 156/250/3 161/261/3 171/251/3
f 159/253/1 164/263/1 163/254/1
f 159/256/2 157/546/2 172/248/2
f 158/250/3 170/252/3 172/258/3
f 158/250/3 157/259/3 163/260/3
f 160/262/1 166/272/1 165/263/1
f 160/265/2 155/547/2 174/266/2
f 159/259/3 173/258/3 174/268/3
f 159/259/3 155/269/3 165/270/3
f 153/271/1 168/455/1 167/272/1
f 153/274/2 154/548/2 176/267/2
f 147/111/4 279/111/4 280/24/4
f 160/269/3 175/268/3 176/276/3
f 160/269/3 154/277/3 167/278/3
f 178/69/5 171/549/5 161/550/5
f 162/551/5 163/552/5 164/279/5
f 178/69/5 161/550/5 162/551/5
f 167/553/5 168/67/5 178/69/5
f 164/279/5 165/554/5 166/280/5
f 166/280/5 167/553/5 178/69/5
f 178/69/5 162/551/5 164/279/5
f 173/281/4 172/555/4 170/556/4
f 170/556/4 169/557/4 171/282/4
f 171/282/4 178/449/4 177/451/4
f 177/451/4 176/558/4 175/283/4
f 175/283/4 174/559/4 173/281/4
f 173/281/4 170/556/4 171/282/4
f 171/282/4 177/451/4 175/283/4
f 180/284/4 182/560/4 181/285/4
f 182/287/5 186/292/5 185/288/5
f 186/290/1 184/287/1 183/289/1
f 184/292/2 180/332/2 179/293/2
f 185/294/6 183/561/6 179/295/6
f 180/297/6 187/304/6 188/298/6
f 188/300/5 192/310/5 193/301/5
f 184/303/6 190/307/6 187/304/6
f 186/305/6 182/299/6 188/298/6
f 186/305/6 189/306/6 190/307/6
f 193/308/3 197/323/3 198/309/3
f 189/311/1 193/314/1 194/312/1
f 187/314/4 191/562/4 192/310/4
f 190/313/2 194/312/2 191/302/2
f 198/316/5 202/563/5 199/317/5
f 191/319/3 195/322/3 196/320/3
f 191/319/3 194/310/3 198/309/3
f 192/321/3 196/320/3 197/323/3
f 200/324/3 199/564/3 202/325/3
f 196/327/2 200/565/2 201/328/2
f 197/330/4 201/333/4 202/331/4
f 195/333/1 199/566/1 200/334/1
f 204/335/4 206/338/4 205/336/4
f 206/338/4 211/348/4 212/339/4
f 210/338/1 208/335/1 207/337/1
f 208/340/2 204/347/2 203/341/2
f 209/343/6 207/346/6 203/344/6
f 206/345/3 204/344/3 208/346/3
f 211/347/5 214/340/5 213/342/5
f 209/336/1 213/339/1 214/348/1
f 205/345/6 212/350/6 213/349/6
f 210/343/3 214/349/3 211/350/3
f 216/351/4 218/354/4 217/352/4
f 218/354/4 223/364/4 224/355/4
f 222/354/1 220/351/1 219/353/1
f 220/356/2 216/363/2 215/357/2
f 221/359/6 219/362/6 215/360/6
f 218/361/3 216/360/3 220/362/3
f 223/363/5 226/356/5 225/358/5
f 221/352/1 225/355/1 226/364/1
f 217/361/6 224/366/6 225/365/6
f 222/359/3 226/365/3 223/366/3
f 228/367/4 230/370/4 229/368/4
f 230/370/4 235/380/4 236/371/4
f 234/370/1 232/367/1 231/369/1
f 232/372/2 228/379/2 227/373/2
f 233/375/6 231/378/6 227/376/6
f 230/377/3 228/376/3 232/378/3
f 235/379/5 238/372/5 237/374/5
f 233/368/1 237/371/1 238/380/1
f 229/377/6 236/382/6 237/381/6
f 234/375/3 238/381/3 235/382/3
f 240/383/4 242/386/4 241/384/4
f 242/386/4 247/396/4 248/387/4
f 246/386/1 244/383/1 243/385/1
f 244/388/2 240/395/2 239/389/2
f 245/391/6 243/394/6 239/392/6
f 242/393/3 240/392/3 244/394/3
f 247/395/5 250/388/5 249/390/5
f 245/384/1 249/387/1 250/396/1
f 241/393/6 248/398/6 249/397/6
f 246/391/3 250/397/3 247/398/3
f 252/399/2 254/402/2 253/400/2
f 254/402/2 259/567/2 260/403/2
f 258/404/5 256/399/5 255/401/5
f 256/406/1 252/416/1 251/407/1
f 257/409/6 255/568/6 251/410/6
f 254/412/3 252/569/3 256/413/3
f 259/415/4 262/569/4 261/416/4
f 257/405/5 261/570/5 262/418/5
f 253/411/6 260/571/6 261/419/6
f 258/414/3 262/572/3 259/420/3
f 264/421/2 266/424/2 265/422/2
f 266/424/2 271/436/2 272/425/2
f 270/426/5 268/421/5 267/423/5
f 268/428/1 264/573/1 263/429/1
f 269/431/6 267/574/6 263/432/6
f 266/434/3 264/573/3 268/428/3
f 271/430/4 274/429/4 273/436/4
f 269/427/5 273/575/5 274/438/5
f 265/433/6 272/576/6 273/439/6
f 270/435/3 274/577/3 271/440/3
f 276/36/6 278/97/6 277/83/6
f 281/36/6 282/97/6 280/83/6
f 283/441/6 285/578/6 286/442/6
f 151/235/5 281/579/5 279/444/5
f 42/445/2 277/580/2 278/446/2
f 43/447/5 276/581/5 275/448/5
f 178/449/4 286/582/4 285/450/4
f 177/275/2 285/583/2 283/452/2
f 41/73/4 275/456/4 277/453/4
f 153/271/1 283/584/1 284/454/1
f 44/71/1 278/453/1 276/456/1
f 145/457/2 280/457/2 282/97/2
f 110/458/6 117/585/6 96/459/6
f 116/461/6 111/586/6 90/462/6
f 47/465/1 45/55/1 288/492/1
f 47/465/1 288/492/1 287/587/1
f 290/464/1 38/54/1 37/47/1
f 47/465/1 287/587/1 290/464/1
f 1/6/5 2/588/5 289/466/5
f 2/7/6 4/9/6 288/467/6
