# Blender 5.0.1
# www.blender.org
mtllib city_house_2.mtl
o houseD_mesh
v -2.924765 -0.104820 3.645247
v -2.924772 -0.104829 -3.645245
v -2.924765 0.249504 3.645247
v -2.924772 0.249504 -3.645245
v -0.108170 10.688434 4.145574
v -0.108178 10.688430 -4.145577
v 0.000004 10.525148 -4.145577
v 0.000006 10.525148 4.145574
v -3.346481 6.659428 4.145575
v -3.454650 6.751845 4.145575
v -3.454650 6.751842 -4.145576
v -3.346481 6.659425 -4.145576
v 0.000006 10.737749 4.145574
v 0.000004 10.737749 -4.145577
v -0.108178 10.617564 -4.145577
v -0.108170 10.617564 4.145574
v 0.000006 10.525148 -3.788197
v 0.000006 10.525148 3.788192
v -1.091252 0.249504 4.002626
v -1.091252 -0.104820 4.002626
v -3.067436 3.438492 -3.788194
v -2.853426 3.438492 -3.573771
v -2.853426 0.249504 -3.573760
v -2.853426 0.249504 3.573780
v -2.853426 3.438493 3.573780
v -3.067436 3.438493 3.788203
v -1.784952 5.422760 3.859678
v -1.784952 6.344031 3.859678
v -2.426980 6.344031 3.859685
v -2.426980 5.422760 3.859678
v -0.321296 6.344016 3.859676
v -0.321296 5.422753 3.859676
v -3.138768 5.422769 3.162781
v -3.138768 6.344031 3.162780
v -3.138768 6.344030 2.519511
v -3.138768 5.422767 2.519511
v -3.138769 5.422759 1.268687
v -3.138769 6.344023 1.268687
v -3.138769 6.344023 0.625407
v -3.138769 5.422759 0.625407
v -3.138768 5.422759 -0.625408
v -3.138768 6.344030 -0.625408
v -3.138769 6.344030 -1.268697
v -3.138768 5.422759 -1.268695
v -3.138769 5.422759 -2.519503
v -3.138769 6.344023 -2.519503
v -3.138769 6.344021 -3.162781
v -3.138769 5.422758 -3.162781
v -2.924765 1.968017 -2.358678
v -2.924765 2.889281 -2.358678
v -2.924772 2.889281 -3.001966
v -2.924765 1.968017 -3.001966
v -2.924765 1.968025 -0.571800
v -2.924765 2.889282 -0.571800
v -2.924772 2.889282 -1.215078
v -2.924772 1.968025 -1.215077
v -2.924765 1.968018 1.215080
v -2.924765 2.889282 1.215080
v -2.924765 2.889282 0.571800
v -2.924772 1.968018 0.571800
v -2.924765 1.968019 3.001966
v -2.924765 2.889283 3.001966
v -2.924772 2.889283 2.358696
v -2.924772 1.968019 2.358696
v -1.638021 1.968019 3.645246
v -1.638021 2.889283 3.645246
v -2.280049 2.889283 3.645246
v -2.280049 1.968019 3.645246
v -0.636624 3.013301 3.573780
v -0.636624 0.320372 3.573780
v -1.091252 -0.104820 3.645246
v -1.091252 0.249504 3.645246
v -2.924765 3.009745 -3.466554
v -2.924772 1.847544 -3.466554
v -2.924765 1.847544 -1.894098
v -2.924765 3.009745 -1.894099
v -2.924765 1.847544 -1.679675
v -2.924765 1.847545 -0.107211
v -2.924765 3.009755 -0.107211
v -2.924765 3.009745 -1.679666
v -2.924765 1.847545 1.679668
v -2.924765 3.009756 1.679667
v -2.924765 3.009755 0.107213
v -2.924772 1.847545 0.107213
v -2.924765 1.847576 1.894269
v -2.924765 1.847576 3.466393
v -2.924765 3.009717 3.466392
v -2.924765 3.009717 1.894269
v -2.743662 3.009756 3.645246
v -2.743662 1.847546 3.645247
v -1.174401 1.847546 3.645246
v -1.174401 3.009756 3.645246
v -2.890592 5.302296 3.859678
v -1.321333 5.302302 3.859676
v -1.321333 6.464504 3.859676
v -2.890592 6.464504 3.859678
v -0.784462 6.464496 3.859676
v -0.784462 5.302289 3.859678
v -3.138769 6.464495 -3.627388
v -3.138780 5.302285 -3.627388
v -3.138780 5.302286 -2.054923
v -3.138769 6.464496 -2.054924
v -3.138769 6.464496 -1.733275
v -3.138768 5.302286 -1.733274
v -3.138768 5.302286 -0.160819
v -3.138768 6.464496 -0.160819
v -3.138768 5.302286 0.160819
v -3.138769 5.302288 1.733275
v -3.138769 6.464503 1.733283
v -3.138768 6.464496 0.160819
v -3.138769 6.464503 2.054923
v -3.138780 5.302288 2.054923
v -3.138780 5.302289 3.627397
v -3.138768 6.464504 3.627397
v -1.321333 6.464504 3.788193
v -2.890592 6.464504 3.788194
v -2.890592 5.302296 3.788193
v -1.321333 5.302302 3.788193
v -0.784462 6.464496 3.788203
v -0.784462 5.302289 3.788203
v -3.067436 5.302288 2.054923
v -3.067436 5.302289 3.627397
v -3.067436 6.464504 3.627397
v -3.067436 6.464503 2.054923
v -3.067436 5.302288 1.733275
v -3.067436 6.464496 1.733283
v -3.067436 6.464496 0.160819
v -3.067436 5.302286 0.160819
v -3.067436 6.464496 -1.733275
v -3.067436 5.302286 -1.733274
v -3.067436 5.302286 -0.160819
v -3.067436 6.464496 -0.160819
v -3.067436 6.464496 -2.054924
v -3.067436 6.464495 -3.627388
v -3.067436 5.302285 -3.627388
v -3.067436 5.302286 -2.054923
v -2.853426 1.847576 3.466393
v -2.853426 3.009717 3.466392
v -2.853426 3.009717 1.894269
v -2.853426 1.847576 1.894269
v -2.853426 3.009756 1.679667
v -2.853426 3.009755 0.107213
v -2.853426 1.847545 0.107213
v -2.853426 1.847545 1.679668
v -2.853426 3.009755 -0.107211
v -2.853426 3.009745 -1.679675
v -2.853426 1.847544 -1.679675
v -2.853426 1.847545 -0.107211
v -2.853426 3.009745 -1.894098
v -2.853426 3.009745 -3.466554
v -2.853426 1.847544 -3.466554
v -2.853426 1.847544 -1.894098
v -1.174401 3.009756 3.573780
v -2.743662 3.009756 3.573780
v -2.743662 1.847546 3.573780
v -1.174401 1.847546 3.573780
v 2.924767 -0.104834 3.645245
v 2.924765 -0.104834 -3.645246
v 2.924767 0.249504 3.645245
v 2.924765 0.249504 -3.645246
v 0.108174 10.688434 4.145572
v 0.108174 10.688430 -4.145577
v 3.346481 6.659436 4.145572
v 3.454650 6.751852 4.145572
v 3.454650 6.751844 -4.145576
v 3.346481 6.659435 -4.145578
v 0.108174 10.617564 -4.145577
v 0.108174 10.617564 4.145572
v 1.091247 0.249504 4.002626
v 1.091247 -0.104818 4.002626
v 3.067436 3.438492 -3.788194
v 2.853433 3.438492 -3.573771
v 2.853433 0.249504 -3.573770
v 2.853428 0.249504 3.573778
v 2.853433 3.438495 3.573770
v 3.067429 3.438495 3.788193
v 1.784946 5.422761 3.859676
v 1.784946 6.344026 3.859676
v 2.426973 6.344026 3.859676
v 2.426973 5.422761 3.859676
v 0.321291 6.344016 3.859676
v 0.321291 5.422753 3.859676
v 3.138762 5.422761 3.162779
v 3.138774 6.344026 3.162779
v 3.138774 6.344024 2.519511
v 3.138762 5.422761 2.519511
v 3.138774 5.422753 1.268693
v 3.138774 6.344015 1.268693
v 3.138774 6.344015 0.625407
v 3.138774 5.422753 0.625407
v 3.138762 5.422761 -0.625408
v 3.138774 6.344024 -0.625418
v 3.138773 6.344024 -1.268697
v 3.138774 5.422761 -1.268697
v 3.138774 5.422761 -2.519503
v 3.138774 6.344024 -2.519503
v 3.138774 6.344024 -3.162783
v 3.138774 5.422758 -3.162783
v 2.924765 1.968017 -2.358679
v 2.924765 2.889281 -2.358679
v 2.924765 2.889281 -3.001966
v 2.924765 1.968017 -3.001966
v 2.924765 1.968018 -0.571800
v 2.924765 2.889282 -0.571800
v 2.924765 2.889282 -1.215079
v 2.924765 1.968018 -1.215079
v 2.924766 1.968019 1.215077
v 2.924765 2.889282 1.215077
v 2.924765 2.889282 0.571800
v 2.924765 1.968019 0.571800
v 2.924765 1.968020 3.001964
v 2.924765 2.889283 3.001964
v 2.924765 2.889283 2.358696
v 2.924765 1.968020 2.358696
v 1.638021 1.968020 3.645245
v 1.638021 2.889283 3.645244
v 2.280043 2.889283 3.645244
v 2.280043 1.968020 3.645245
v 0.636625 3.013303 3.573780
v 0.636625 0.320373 3.573780
v 1.091247 -0.104818 3.645245
v 1.091247 0.249504 3.645245
v 2.924765 3.009755 -3.466555
v 2.924765 1.847546 -3.466555
v 2.924765 1.847546 -1.894099
v 2.924765 3.009755 -1.894099
v 2.924765 1.847546 -1.679676
v 2.924765 1.847546 -0.107213
v 2.924765 3.009755 -0.107213
v 2.924765 3.009755 -1.679676
v 2.924766 1.847546 1.679665
v 2.924766 3.009756 1.679665
v 2.924765 3.009755 0.107210
v 2.924765 1.847546 0.107211
v 2.924765 1.847576 1.894269
v 2.924765 1.847576 3.466393
v 2.924765 3.009718 3.466392
v 2.924765 3.009718 1.894269
v 2.743662 3.009756 3.645244
v 2.743662 1.847546 3.645245
v 1.174396 1.847546 3.645245
v 1.174409 3.009756 3.645244
v 2.890592 5.302289 3.859676
v 1.321326 5.302304 3.859676
v 1.321326 6.464504 3.859676
v 2.890592 6.464504 3.859676
v 0.784468 6.464497 3.859676
v 0.784468 5.302280 3.859676
v 3.138774 6.464496 -3.627382
v 3.138774 5.302279 -3.627382
v 3.138774 5.302279 -2.054915
v 3.138774 6.464497 -2.054916
v 3.138774 6.464497 -1.733278
v 3.138774 5.302288 -1.733278
v 3.138774 5.302288 -0.160822
v 3.138774 6.464498 -0.160822
v 3.138774 5.302288 0.160819
v 3.138774 5.302288 1.733283
v 3.138774 6.464498 1.733283
v 3.138774 6.464498 0.160819
v 3.138774 6.464498 2.054921
v 3.138774 5.302288 2.054921
v 3.138774 5.302289 3.627377
v 3.138774 6.464499 3.627377
v 1.321339 6.464504 3.788203
v 2.890592 6.464504 3.788203
v 2.890592 5.302289 3.788203
v 1.321326 5.302304 3.788211
v 0.784468 6.464497 3.788203
v 0.784468 5.302280 3.788203
v 3.067429 5.302288 2.054921
v 3.067429 5.302289 3.627377
v 3.067429 6.464499 3.627377
v 3.067429 6.464498 2.054921
v 3.067429 5.302279 1.733283
v 3.067429 6.464498 1.733283
v 3.067429 6.464498 0.160819
v 3.067441 5.302279 0.160819
v 3.067441 6.464497 -1.733278
v 3.067429 5.302279 -1.733278
v 3.067441 5.302279 -0.160822
v 3.067429 6.464498 -0.160822
v 3.067429 6.464497 -2.054916
v 3.067429 6.464496 -3.627382
v 3.067429 5.302279 -3.627382
v 3.067429 5.302279 -2.054915
v 2.853428 1.847576 3.466393
v 2.853428 3.009718 3.466392
v 2.853426 3.009718 1.894269
v 2.853426 1.847576 1.894269
v 2.853434 3.009756 1.679665
v 2.853433 3.009755 0.107210
v 2.853433 1.847546 0.107211
v 2.853428 1.847546 1.679665
v 2.853433 3.009755 -0.107213
v 2.853433 3.009755 -1.679676
v 2.853433 1.847546 -1.679676
v 2.853420 1.847546 -0.107213
v 2.853433 3.009755 -1.894099
v 2.853433 3.009755 -3.466555
v 2.853433 1.847546 -3.466555
v 2.853433 1.847546 -1.894099
v 1.174396 3.009756 3.573778
v 2.743662 3.009756 3.573778
v 2.743655 1.847546 3.573778
v 1.174396 1.847546 3.573780
v 3.067436 6.981821 -3.788195
v 3.067441 6.981822 3.788193
v -3.067436 6.981819 -3.788195
v -3.067436 6.981822 3.788194
v 0.570639 10.036087 -2.644131
v 0.570639 10.058591 -3.358876
v 1.141278 9.399407 -3.358876
v 1.141278 9.376904 -2.644131
v 0.998613 9.532698 -2.787081
v 0.998613 9.532698 -3.215927
v 0.713297 9.532698 -3.215927
v 0.713297 9.532698 -2.787081
v 0.570637 10.950034 -3.358884
v 0.570639 10.950034 -2.644131
v 1.141278 10.950036 -2.644131
v 1.141272 10.950036 -3.358884
v 0.713297 10.950034 -3.215929
v 0.713297 10.950034 -2.787081
v 0.998613 10.950034 -2.787081
v 0.998613 10.950036 -3.215929
v 1.638021 2.889283 3.500209
v 2.280043 2.889283 3.500208
v 1.638021 1.968020 3.500209
v 2.280043 1.968020 3.500208
v 2.781778 2.889281 -2.358679
v 2.781778 2.889281 -3.001966
v 2.781778 1.968017 -2.358679
v 2.781778 1.968017 -3.001957
v 2.781778 2.889282 -0.571800
v 2.781778 2.889282 -1.215079
v 2.781778 1.968018 -0.571800
v 2.781778 1.968018 -1.215079
v 2.781778 2.889282 1.215077
v 2.781778 2.889282 0.571800
v 2.781778 1.968019 0.571800
v 2.781778 1.968019 1.215077
v 2.781778 1.968020 3.001964
v 2.781778 2.889283 3.001964
v 2.781778 2.889283 2.358696
v 2.781778 1.968020 2.358696
v 0.636625 3.013303 3.414626
v 0.636625 0.320373 3.414627
v -1.638021 2.889283 3.500208
v -2.280049 2.889283 3.500208
v -1.638021 1.968020 3.500208
v -2.280049 1.968020 3.500208
v -2.781784 2.889281 -2.358678
v -2.781784 2.889281 -3.001966
v -2.781784 1.968017 -3.001966
v -2.781784 1.968017 -2.358678
v -2.781784 2.889282 -0.571800
v -2.781784 2.889282 -1.215078
v -2.781784 1.968018 -0.571800
v -2.781784 1.968018 -1.215077
v -2.781784 2.889282 1.215080
v -2.781784 2.889282 0.571800
v -2.781784 1.968018 1.215080
v -2.781784 1.968018 0.571800
v -2.781784 1.968019 3.001966
v -2.781784 2.889283 3.001966
v -2.781784 2.889283 2.358696
v -2.781784 1.968019 2.358696
v -0.636624 0.320372 3.414627
v -0.636624 3.013301 3.414626
v 2.990421 6.344024 -2.519503
v 2.990421 6.344024 -3.162783
v 2.990421 5.422758 -3.162783
v 2.990421 5.422761 -2.519503
v 2.990421 6.344024 -1.268697
v 2.990421 5.422761 -1.268697
v 2.990421 5.422761 -0.625408
v 2.990421 6.344024 -0.625408
v 2.990421 5.422753 1.268694
v 2.990421 6.344015 1.268693
v 2.990421 5.422753 0.625407
v 2.990421 6.344015 0.625407
v 2.990408 5.422761 2.519511
v 2.990410 5.422761 3.162779
v 2.990408 6.344026 3.162779
v 2.990408 6.344024 2.519511
v 0.321291 6.344016 3.693371
v 0.321291 5.422753 3.693371
v 1.784946 6.344026 3.693371
v 2.426973 6.344026 3.693371
v 2.426973 5.422761 3.693371
v 1.784946 5.422761 3.693371
v -2.990415 6.344023 -2.519503
v -2.990415 6.344021 -3.162781
v -2.990415 5.422759 -2.519503
v -2.990415 5.422758 -3.162781
v -2.990415 6.344023 -1.268697
v -2.990415 5.422759 -1.268696
v -2.990415 6.344023 -0.625408
v -2.990415 5.422759 -0.625408
v -2.990415 5.422759 1.268687
v -2.990415 6.344023 1.268687
v -2.990415 6.344023 0.625407
v -2.990415 5.422759 0.625407
v -2.990415 5.422759 2.519511
v -2.990415 5.422760 3.162781
v -2.990415 6.344030 2.519511
v -2.990415 6.344031 3.162780
v -0.321296 5.422753 3.693371
v -0.321296 6.344016 3.693371
v -1.784952 6.344031 3.693371
v -2.426980 6.344031 3.693371
v -1.784952 5.422760 3.693371
v -2.426980 5.422760 3.693371
vn -1.0000 -0.0000 -0.0000
vn -0.4148 0.9099 -0.0000
vn 1.0000 -0.0000 -0.0000
vn -0.0000 -0.0000 1.0000
vn -0.0000 -0.0000 -1.0000
vn -0.0001 -0.0000 -1.0000
vn -0.0000 1.0000 -0.0000
vn 0.0001 1.0000 -0.0000
vn -0.6496 -0.7603 -0.0000
vn -0.0000 -1.0000 -0.0000
vn -1.0000 0.0001 -0.0000
vn -1.0000 -0.0001 -0.0000
vn -0.0000 0.0001 1.0000
vn 0.4149 0.9099 -0.0000
vn 0.4148 0.9099 -0.0000
vn -1.0000 -0.0000 -0.0002
vn 1.0000 -0.0000 -0.0001
vn -1.0000 -0.0000 0.0002
vn 0.6495 -0.7603 -0.0000
vn 0.6496 -0.7603 -0.0000
vn 1.0000 -0.0001 -0.0000
vn 1.0000 -0.0001 -0.0001
vn 1.0000 0.0001 -0.0000
vn 0.0001 -1.0000 -0.0000
vn 0.0001 -0.0000 1.0000
vn -0.7561 -0.6545 -0.0000
vn 0.7561 -0.6545 -0.0000
vn -0.7561 0.6545 -0.0000
vn 0.7511 0.6602 -0.0008
vn 0.7502 0.6612 -0.0000
vn 0.7563 0.6542 -0.0050
vn 0.7561 0.6545 -0.0046
vn 0.7559 0.6544 0.0206
vn 0.7826 0.6225 -0.0000
vt 0.899864 0.520272
vt 0.582708 0.520272
vt 0.582708 0.504568
vt 0.899864 0.504568
vt 0.398665 0.232376
vt 0.398665 0.226579
vt 0.759860 0.226580
vt 0.759860 0.232376
vt 0.759860 0.235192
vt 0.398665 0.235192
vt 0.588944 0.615789
vt 0.603397 0.615883
vt 0.603481 0.632148
vt 0.589027 0.632053
vt 0.776507 0.475718
vt 0.776507 0.358153
vt 0.784156 0.358153
vt 0.784156 0.475718
vt 0.661779 0.599103
vt 0.584973 0.599194
vt 0.585263 0.583410
vt 0.662856 0.583319
vt 0.786586 0.195381
vt 0.786586 0.302815
vt 0.779922 0.302815
vt 0.779923 0.195381
vt 0.779918 0.195381
vt 0.786581 0.195381
vt 0.786581 0.302815
vt 0.779918 0.302815
vt 0.786584 0.195381
vt 0.786584 0.302815
vt 0.779920 0.302815
vt 0.779920 0.195381
vt 0.779923 0.302815
vt 0.786583 0.195381
vt 0.786583 0.302815
vt 0.779923 0.195383
vt 0.786586 0.195383
vt 0.786586 0.302813
vt 0.779923 0.302813
vt 0.779915 0.302813
vt 0.779915 0.195383
vt 0.786578 0.195383
vt 0.786578 0.302813
vt 0.779905 0.195381
vt 0.786577 0.195381
vt 0.786577 0.302815
vt 0.779905 0.302815
vt 0.786591 0.302815
vt 0.786591 0.195381
vt 0.779914 0.195381
vt 0.779914 0.302815
vt 0.786576 0.195381
vt 0.786576 0.302815
vt 0.779913 0.302815
vt 0.779913 0.195381
vt 0.786589 0.302815
vt 0.779925 0.302815
vt 0.779925 0.195381
vt 0.786588 0.195381
vt 0.779919 0.302815
vt 0.779919 0.195381
vt 0.779915 0.195381
vt 0.786578 0.195381
vt 0.786578 0.302815
vt 0.779915 0.302815
vt 0.802537 0.329856
vt 0.802599 0.323048
vt 0.948776 0.323191
vt 0.948713 0.329999
vt 0.091267 0.095977
vt 0.091267 0.123877
vt 0.084202 0.123877
vt 0.084202 0.095977
vt 0.091267 0.163733
vt 0.084202 0.163733
vt 0.084155 0.123893
vt 0.084155 0.163749
vt 0.077090 0.163749
vt 0.077090 0.123893
vt 0.779922 0.195380
vt 0.786592 0.195380
vt 0.786592 0.302815
vt 0.786575 0.195381
vt 0.786575 0.302815
vt 0.779904 0.302815
vt 0.779904 0.195381
vt 0.137988 0.204437
vt 0.137989 0.232372
vt 0.131432 0.232372
vt 0.131431 0.204437
vt 0.131431 0.163769
vt 0.137987 0.163769
vt 0.124788 0.163768
vt 0.118231 0.163768
vt 0.118231 0.123912
vt 0.124787 0.123912
vt 0.118230 0.095977
vt 0.124786 0.095977
vt 0.124832 0.135834
vt 0.124830 0.095977
vt 0.131386 0.095977
vt 0.131389 0.135834
vt 0.131388 0.204437
vt 0.131386 0.232373
vt 0.124830 0.232373
vt 0.124831 0.204437
vt 0.124832 0.163768
vt 0.131389 0.163768
vt 0.067785 0.231058
vt 0.067865 0.203172
vt 0.074996 0.203098
vt 0.074914 0.230984
vt 0.067633 0.163732
vt 0.074763 0.163659
vt 0.176075 0.163768
vt 0.182479 0.163768
vt 0.182480 0.204436
vt 0.176076 0.204436
vt 0.182481 0.232372
vt 0.176076 0.232372
vt 0.194585 0.123913
vt 0.188967 0.123913
vt 0.188968 0.095977
vt 0.194585 0.095977
vt 0.194585 0.163769
vt 0.188967 0.163769
vt 0.188968 0.232372
vt 0.188967 0.191704
vt 0.194585 0.191704
vt 0.194585 0.232372
vt 0.601173 0.988126
vt 0.606643 0.916699
vt 0.676548 0.916699
vt 0.765179 0.916700
vt 0.755824 0.916700
vt 0.755824 0.865197
vt 0.765179 0.865197
vt 0.845236 0.865197
vt 0.845236 0.916700
vt 0.835881 0.916700
vt 0.835881 0.865197
vt 0.919829 0.988126
vt 0.915151 0.916700
vt 0.685909 0.916700
vt 0.676548 0.865198
vt 0.685909 0.865197
vt 0.601173 0.845479
vt 0.606643 0.865198
vt 0.919829 0.845479
vt 0.915151 0.865197
vt 0.169628 0.204437
vt 0.176033 0.204436
vt 0.176034 0.232372
vt 0.169629 0.232372
vt 0.169629 0.163769
vt 0.176034 0.163769
vt 0.182522 0.095977
vt 0.188926 0.095977
vt 0.188927 0.123913
vt 0.182522 0.123913
vt 0.188927 0.163769
vt 0.182522 0.163769
vt 0.195982 0.203462
vt 0.202322 0.203462
vt 0.202322 0.232174
vt 0.195982 0.232174
vt 0.195982 0.163606
vt 0.202322 0.163606
vt 0.202322 0.095850
vt 0.202322 0.135706
vt 0.195982 0.135706
vt 0.195982 0.095850
vt 0.760348 0.178865
vt 0.399947 0.178866
vt 0.399947 0.172406
vt 0.760348 0.172406
vt 0.948771 0.323191
vt 0.948708 0.329999
vt 0.802532 0.329857
vt 0.802594 0.323048
vt 0.802600 0.323048
vt 0.802537 0.329857
vt 0.948781 0.323190
vt 0.948718 0.329999
vt 0.802542 0.329857
vt 0.802604 0.323049
vt 0.948726 0.195381
vt 0.948726 0.302815
vt 0.905755 0.291491
vt 0.905755 0.206706
vt 0.802741 0.302815
vt 0.802741 0.195381
vt 0.845712 0.291491
vt 0.845712 0.206706
vt 0.948776 0.323190
vt 0.802599 0.323049
vt 0.948727 0.195381
vt 0.948727 0.302815
vt 0.905756 0.291491
vt 0.905756 0.206706
vt 0.802742 0.195381
vt 0.845713 0.291491
vt 0.802742 0.302815
vt 0.845713 0.206706
vt 0.905757 0.291490
vt 0.905757 0.206705
vt 0.845714 0.291490
vt 0.845714 0.206705
vt 0.948782 0.323191
vt 0.802605 0.323048
vt 0.802542 0.329856
vt 0.802600 0.323049
vt 0.948777 0.323190
vt 0.948714 0.329999
vt 0.948774 0.323191
vt 0.802598 0.323049
vt 0.802535 0.329857
vt 0.948711 0.329999
vt 0.845712 0.291490
vt 0.802741 0.195380
vt 0.845712 0.206705
vt 0.905755 0.291490
vt 0.905755 0.206705
vt 0.802602 0.323048
vt 0.802540 0.329857
vt 0.948716 0.329999
vt 0.948779 0.323191
vt 0.802602 0.323049
vt 0.845713 0.206705
vt 0.845713 0.291490
vt 0.905756 0.206705
vt 0.905756 0.291490
vt 0.948774 0.323190
vt 0.802597 0.323049
vt 0.802534 0.329867
vt 0.802597 0.323059
vt 0.948774 0.323180
vt 0.948711 0.329989
vt 0.802752 0.302813
vt 0.802752 0.195382
vt 0.948716 0.195382
vt 0.948716 0.302813
vt 0.802602 0.323059
vt 0.802540 0.329867
vt 0.948716 0.329989
vt 0.948779 0.323180
vt 0.802838 0.302815
vt 0.802838 0.195381
vt 0.845750 0.206705
vt 0.845750 0.291490
vt 0.948630 0.195381
vt 0.948630 0.302815
vt 0.905718 0.206705
vt 0.905718 0.291490
vt 0.802609 0.323145
vt 0.948785 0.323094
vt 0.948715 0.329902
vt 0.802538 0.329953
vt 0.845751 0.206706
vt 0.845751 0.291491
vt 0.905718 0.206706
vt 0.905718 0.291491
vt 0.802536 0.329953
vt 0.802608 0.323145
vt 0.948784 0.323094
vt 0.948713 0.329902
vt 0.579745 0.529854
vt 0.896899 0.529854
vt 0.896899 0.545558
vt 0.579745 0.545558
vt 0.759860 0.221593
vt 0.398665 0.221593
vt 0.398665 0.218777
vt 0.759860 0.218777
vt 0.798015 0.413647
vt 0.798015 0.358153
vt 0.804877 0.358153
vt 0.804877 0.413647
vt 0.695444 0.616911
vt 0.695527 0.633176
vt 0.710685 0.617003
vt 0.710767 0.633270
vt 0.829778 0.562068
vt 0.829570 0.577934
vt 0.584313 0.577982
vt 0.584521 0.562115
vt 0.413602 0.050484
vt 0.422802 0.041172
vt 0.670772 0.041173
vt 0.680759 0.050485
vt 0.738193 0.096073
vt 0.409019 0.096073
vt 0.418231 0.086774
vt 0.416443 0.075948
vt 0.407231 0.066648
vt 0.737192 0.066647
vt 0.728981 0.086773
vt 0.672187 0.028494
vt 0.405030 0.028494
vt 0.414231 0.019181
vt 0.662987 0.019182
vt 0.727980 0.075948
vt 0.009482 0.671339
vt 0.146282 0.513563
vt 0.283083 0.671339
vt 0.009482 0.829114
vt 0.283083 0.829114
vt 0.784201 0.475718
vt 0.784201 0.358153
vt 0.791063 0.358153
vt 0.791063 0.475718
vt 0.018825 0.988864
vt 0.018825 0.847029
vt 0.272953 0.847029
vt 0.272953 0.988864
vt 0.802601 0.323048
vt 0.948714 0.329998
vt 0.603480 0.648413
vt 0.695526 0.649440
vt 0.588697 0.603317
vt 0.585516 0.501739
vt 0.897056 0.501739
vt 0.586838 0.557927
vt 0.825809 0.557918
vt 0.893304 0.548387
vt 0.582553 0.548387
vt 0.753362 0.599263
vt 0.830168 0.599164
vt 0.827823 0.603100
vt 0.753651 0.583479
vt 0.830456 0.583380
vt 0.779921 0.302815
vt 0.779921 0.195381
vt 0.786582 0.302815
vt 0.786584 0.302813
vt 0.779920 0.302813
vt 0.779920 0.195383
vt 0.786584 0.195383
vt 0.786590 0.302815
vt 0.779917 0.195381
vt 0.779917 0.302815
vt 0.786585 0.195381
vt 0.786585 0.302815
vt 0.786590 0.195381
vt 0.779926 0.302815
vt 0.779926 0.195381
vt 0.099167 0.095977
vt 0.099167 0.123876
vt 0.092103 0.123877
vt 0.092103 0.095977
vt 0.099167 0.191633
vt 0.099167 0.232301
vt 0.092103 0.232301
vt 0.092103 0.191633
vt 0.084155 0.095977
vt 0.077090 0.095977
vt 0.105772 0.163769
vt 0.105773 0.191704
vt 0.099216 0.191704
vt 0.099215 0.163769
vt 0.099215 0.123913
vt 0.105772 0.123913
vt 0.105816 0.135835
vt 0.112373 0.135835
vt 0.112373 0.163770
vt 0.105816 0.163770
vt 0.112373 0.204438
vt 0.105816 0.204438
vt 0.138031 0.163770
vt 0.144588 0.163770
vt 0.144588 0.204437
vt 0.138031 0.204437
vt 0.138031 0.135835
vt 0.144589 0.135835
vt 0.112416 0.191705
vt 0.112415 0.163769
vt 0.118185 0.163769
vt 0.118186 0.191704
vt 0.169588 0.191703
vt 0.163970 0.191702
vt 0.163970 0.163767
vt 0.169588 0.163767
vt 0.169587 0.123911
vt 0.163970 0.123911
vt 0.163141 0.135835
vt 0.163140 0.163769
vt 0.157523 0.163769
vt 0.157523 0.135834
vt 0.163141 0.204437
vt 0.157523 0.204437
vt 0.157482 0.191704
vt 0.151077 0.191704
vt 0.151077 0.163769
vt 0.157482 0.163769
vt 0.151077 0.123913
vt 0.157482 0.123913
vt 0.151036 0.191704
vt 0.144630 0.191704
vt 0.144630 0.163768
vt 0.151035 0.163768
vt 0.144630 0.123912
vt 0.151035 0.123912
vt 0.202229 0.123750
vt 0.202229 0.095850
vt 0.207783 0.095850
vt 0.207783 0.123750
vt 0.207783 0.191506
vt 0.207783 0.232174
vt 0.202229 0.232174
vt 0.202229 0.191506
vt 0.763086 0.196479
vt 0.402672 0.196481
vt 0.402672 0.190835
vt 0.763086 0.190832
vt 0.676574 0.916761
vt 0.606668 0.916761
vt 0.601199 0.988188
vt 0.835907 0.916762
vt 0.845262 0.916762
vt 0.845262 0.865258
vt 0.835907 0.865258
vt 0.919854 0.988188
vt 0.765204 0.916762
vt 0.685934 0.916762
vt 0.685934 0.865258
vt 0.676574 0.865259
vt 0.915177 0.916762
vt 0.601199 0.845541
vt 0.606668 0.865259
vt 0.755849 0.865258
vt 0.919854 0.845541
vt 0.915177 0.865258
vt 0.765204 0.865258
vt 0.755849 0.916762
vt 0.382033 0.918249
vt 0.382033 0.865934
vt 0.405470 0.865831
vt 0.486226 0.865934
vt 0.486226 0.918249
vt 0.462002 0.865831
vt 0.311423 0.865934
vt 0.306672 0.847029
vt 0.405470 0.986001
vt 0.462002 0.986001
vt 0.311423 0.918249
vt 0.560800 0.847029
vt 0.556049 0.865934
vt 0.556049 0.918249
vt 0.306672 0.988864
vt 0.560800 0.988864
vt 0.398829 0.694432
vt 0.398829 0.746748
vt 0.375419 0.746747
vt 0.375419 0.694432
vt 0.492840 0.746747
vt 0.468643 0.746748
vt 0.468643 0.694432
vt 0.492840 0.694432
vt 0.305596 0.694432
vt 0.305596 0.746748
vt 0.297329 0.671339
vt 0.434129 0.513563
vt 0.570930 0.671339
vt 0.562663 0.694432
vt 0.562663 0.746748
vt 0.570930 0.829114
vt 0.297329 0.829114
vt 0.802742 0.302816
vt 0.948727 0.302816
vt 0.948772 0.323191
vt 0.948709 0.329999
vt 0.802595 0.323048
vt 0.802605 0.323049
vt 0.948783 0.323191
vt 0.948719 0.329999
vt 0.802543 0.329857
vt 0.948726 0.329851
vt 0.802742 0.329851
vt 0.802742 0.323113
vt 0.948726 0.323113
vt 0.948777 0.323191
vt 0.802741 0.329856
vt 0.802741 0.323119
vt 0.948727 0.323118
vt 0.948727 0.329856
vt 0.802606 0.323048
vt 0.948719 0.329998
vt 0.948782 0.323190
vt 0.144632 0.232373
vt 0.151037 0.232372
vt 0.151077 0.095977
vt 0.157482 0.095977
vt 0.802539 0.329857
vt 0.182522 0.232373
vt 0.182522 0.191704
vt 0.188927 0.191704
vt 0.188926 0.232373
vt 0.176033 0.135834
vt 0.169629 0.135834
vt 0.157482 0.232372
vt 0.151078 0.232372
vt 0.948716 0.195383
vt 0.802752 0.195383
vt 0.176033 0.095977
vt 0.169628 0.095977
vt 0.802592 0.323059
vt 0.948769 0.323180
vt 0.948706 0.329989
vt 0.802529 0.329867
vt 0.163142 0.232372
vt 0.157524 0.232372
vt 0.163142 0.095977
vt 0.157524 0.095977
vt 0.845750 0.206706
vt 0.845750 0.291491
vt 0.802505 0.329785
vt 0.802576 0.322977
vt 0.948753 0.322926
vt 0.948682 0.329735
vt 0.948773 0.323094
vt 0.802597 0.323145
vt 0.802526 0.329953
vt 0.948703 0.329903
vt 0.845734 0.206706
vt 0.845734 0.291491
vt 0.802848 0.302815
vt 0.802848 0.195381
vt 0.948620 0.195381
vt 0.905735 0.206706
vt 0.948620 0.302815
vt 0.905735 0.291491
vt 0.182479 0.135834
vt 0.176074 0.135834
vt 0.802536 0.329963
vt 0.948713 0.329892
vt 0.948784 0.323084
vt 0.802607 0.323155
vt 0.948779 0.323084
vt 0.948708 0.329892
vt 0.802531 0.329963
vt 0.802602 0.323155
vt 0.016909 0.235752
vt 0.032526 0.235753
vt 0.032520 0.030509
vt 0.362480 0.030508
vt 0.362478 0.235748
vt 0.378095 0.235748
vt 0.016903 0.013053
vt 0.378097 0.013053
vt 0.929210 0.828441
vt 0.922194 0.745263
vt 0.852279 0.745263
vt 0.669563 0.745263
vt 0.683596 0.745263
vt 0.683596 0.693759
vt 0.669563 0.693759
vt 0.838246 0.745263
vt 0.852279 0.693759
vt 0.838246 0.693759
vt 0.753511 0.745263
vt 0.767544 0.745263
vt 0.767544 0.693759
vt 0.753511 0.693759
vt 0.591845 0.828441
vt 0.598861 0.745263
vt 0.591845 0.670665
vt 0.598861 0.693759
vt 0.929210 0.670665
vt 0.922194 0.693759
vt 0.182479 0.095977
vt 0.176074 0.095977
vt 0.852252 0.745196
vt 0.922167 0.745196
vt 0.929183 0.828374
vt 0.683569 0.693693
vt 0.683569 0.745196
vt 0.669536 0.745196
vt 0.669536 0.693692
vt 0.838219 0.745196
vt 0.838219 0.693693
vt 0.852252 0.693693
vt 0.767517 0.693693
vt 0.767517 0.745196
vt 0.753484 0.745196
vt 0.753484 0.693693
vt 0.591817 0.828374
vt 0.598833 0.745196
vt 0.929183 0.670599
vt 0.922167 0.693693
vt 0.591818 0.670599
vt 0.598833 0.693692
vt 0.032138 0.031736
vt 0.032139 0.235726
vt 0.016521 0.235726
vt 0.377715 0.235721
vt 0.362100 0.235721
vt 0.362101 0.031736
vt 0.377718 0.013183
vt 0.016521 0.013183
vt 0.169587 0.095977
vt 0.163969 0.095977
vt 0.163969 0.232372
vt 0.169587 0.232372
vt 0.620414 0.150047
vt 0.620181 0.156417
vt 0.405614 0.154785
vt 0.405501 0.148869
vt 0.620151 0.132919
vt 0.620264 0.139647
vt 0.405351 0.137657
vt 0.405583 0.131287
vt 0.394118 0.478521
vt 0.394118 0.255979
vt 0.755312 0.255979
vt 0.755312 0.478520
vt 0.012583 0.259997
vt 0.373785 0.259995
vt 0.308496 0.411723
vt 0.012582 0.482543
vt 0.339729 0.413018
vt 0.308495 0.450178
vt 0.373785 0.482552
vt 0.339728 0.450665
vt 0.794334 0.028996
vt 0.813545 0.028996
vt 0.813545 0.091000
vt 0.794333 0.091000
vt 0.782329 0.091000
vt 0.782330 0.028996
vt 0.763904 0.028996
vt 0.763904 0.016868
vt 0.782330 0.016868
vt 0.825549 0.028996
vt 0.825549 0.091000
vt 0.763904 0.091000
vt 0.836992 0.040140
vt 0.868224 0.038692
vt 0.868224 0.078341
vt 0.836991 0.078341
vt 0.893019 0.078341
vt 0.893020 0.010307
vt 0.797970 0.413647
vt 0.791108 0.413647
vt 0.791108 0.358153
vt 0.797970 0.358153
vt 0.924252 0.010943
vt 0.924252 0.078341
vt 0.949047 0.040141
vt 0.949047 0.078341
vt 0.893020 0.103410
vt 0.899423 0.084812
vt 0.899423 0.097752
vt 0.917847 0.084812
vt 0.924252 0.103410
vt 0.917847 0.097752
vt 0.144630 0.095977
vt 0.151036 0.095977
vt 0.948726 0.302814
vt 0.802741 0.302814
vt 0.202229 0.163606
vt 0.207783 0.163606
vt 0.948629 0.195381
vt 0.905717 0.206706
vt 0.905717 0.291490
vt 0.332729 0.573646
vt 0.268071 0.573646
vt 0.268071 0.557201
vt 0.268071 0.538377
vt 0.268071 0.522731
vt 0.332729 0.522731
vt 0.265358 0.557201
vt 0.265358 0.538377
vt 0.099168 0.163732
vt 0.092103 0.163732
vt 0.084155 0.232333
vt 0.077090 0.232333
vt 0.077090 0.191665
vt 0.084155 0.191665
vt 0.091268 0.191633
vt 0.091268 0.232302
vt 0.084204 0.232302
vt 0.084202 0.191633
vt 0.131431 0.135835
vt 0.131432 0.095977
vt 0.137989 0.095977
vt 0.137988 0.135835
vt 0.099218 0.232372
vt 0.105774 0.232372
vt 0.099216 0.095977
vt 0.105773 0.095977
vt 0.118231 0.232372
vt 0.118231 0.191704
vt 0.124788 0.191704
vt 0.124788 0.232372
vt 0.112373 0.095977
vt 0.105816 0.095977
vt 0.112373 0.232373
vt 0.105817 0.232373
vt 0.144588 0.095977
vt 0.138031 0.095977
vt 0.144589 0.232373
vt 0.138031 0.232373
vt 0.067884 0.096019
vt 0.075014 0.095946
vt 0.074845 0.135775
vt 0.067715 0.135848
vt 0.112416 0.123913
vt 0.118186 0.123913
vt 0.118188 0.232372
vt 0.112418 0.232373
vt 0.112418 0.095977
vt 0.118188 0.095977
vt 0.870186 0.473965
vt 0.814502 0.473965
vt 0.814502 0.356401
vt 0.870186 0.356401
vt 0.942173 0.438583
vt 0.889834 0.438583
vt 0.889834 0.362916
vt 0.942173 0.362916
vt 0.942274 0.362918
vt 0.942274 0.438582
vt 0.889733 0.438582
vt 0.889733 0.362918
vt 0.889835 0.438582
vt 0.889835 0.362917
vt 0.942173 0.362917
vt 0.942173 0.438582
vt 0.942172 0.362918
vt 0.942172 0.438582
vt 0.889834 0.438582
vt 0.889834 0.362918
vt 0.889836 0.438582
vt 0.889836 0.362917
vt 0.942172 0.362917
vt 0.888822 0.438582
vt 0.888822 0.362918
vt 0.942397 0.362918
vt 0.942397 0.438582
vt 0.888819 0.438582
vt 0.888819 0.362918
vt 0.942400 0.362918
vt 0.942401 0.438582
vt 0.942401 0.362918
vt 0.888821 0.362917
vt 0.942400 0.362917
vt 0.942400 0.438582
vt 0.888821 0.438582
vt 0.888821 0.362918
vt 0.942399 0.362918
vt 0.942399 0.438582
vt 0.888823 0.438582
vt 0.888820 0.362918
vt 0.888823 0.438583
vt 0.888823 0.362916
vt 0.942398 0.362916
vt 0.942398 0.438583
vt 0.942398 0.438582
vt 0.888820 0.438582
vt 0.942398 0.362918
vt 0.942398 0.362917
vt 0.942398 0.438581
vt 0.888823 0.438581
vt 0.888823 0.362917
vt 0.888821 0.438581
vt 0.942400 0.438581
vt 0.942399 0.438581
vt 0.942399 0.362917
vt 0.888818 0.438581
vt 0.888818 0.362917
vt 0.620404 0.128796
vt 0.620291 0.122094
vt 0.626991 0.128361
vt 0.621506 0.130765
vt 0.627138 0.149970
vt 0.622503 0.148710
vt 0.405473 0.121985
vt 0.405585 0.128687
vt 0.620323 0.146379
vt 0.620210 0.139678
vt 0.627254 0.145490
vt 0.622556 0.148706
vt 0.627219 0.133199
vt 0.622584 0.131128
vt 0.405393 0.139568
vt 0.405505 0.145457
s 1
usemtl NoName,1
f 2/1/1 1/2/1 3/3/1
f 4/4/1 2/1/1 3/3/1
f 5/5/2 13/6/2 14/7/2
f 6/8/2 5/5/2 14/7/2
f 6/8/1 15/9/1 16/10/1
f 5/5/1 6/8/1 16/10/1
f 71/11/1 20/12/1 19/13/1
f 72/14/1 71/11/1 19/13/1
f 69/15/3 70/16/3 369/17/3
f 370/18/3 69/15/3 369/17/3
f 72/19/4 3/20/4 1/21/4
f 71/22/4 72/19/4 1/21/4
f 150/23/5 151/24/5 74/25/5
f 73/26/5 150/23/5 74/25/5
f 149/27/4 76/28/4 75/29/4
f 152/30/4 149/27/4 75/29/4
f 78/29/4 148/30/4 145/27/4
f 79/28/4 78/29/4 145/27/4
f 146/31/6 147/32/5 77/33/5
f 80/34/6 146/31/6 77/33/5
f 141/26/4 82/23/4 81/24/4
f 144/35/4 141/26/4 81/24/4
f 142/36/5 143/37/5 84/33/5
f 83/34/5 142/36/5 84/33/5
f 138/38/4 87/39/4 86/40/4
f 137/41/4 138/38/4 86/40/4
f 85/42/5 88/43/5 139/44/5
f 140/45/5 85/42/5 139/44/5
f 115/46/3 95/47/3 94/48/3
f 118/49/3 115/46/3 94/48/3
f 117/50/1 93/33/1 96/34/1
f 116/51/1 117/50/1 96/34/1
f 97/52/1 119/23/1 120/24/1
f 98/53/1 97/52/1 120/24/1
f 134/54/5 135/55/5 100/56/5
f 99/57/5 134/54/5 100/56/5
f 101/58/4 136/59/4 133/60/4
f 102/61/4 101/58/4 133/60/4
f 129/28/5 130/29/5 104/62/5
f 103/63/5 129/28/5 104/62/5
f 132/34/4 106/36/4 105/37/4
f 131/33/4 132/34/4 105/37/4
f 126/64/4 109/65/4 108/66/4
f 125/67/4 126/64/4 108/66/4
f 107/62/5 110/63/5 127/28/5
f 128/29/5 107/62/5 127/28/5
f 112/56/5 111/57/5 124/54/5
f 121/55/5 112/56/5 124/54/5
f 123/60/4 114/61/4 113/58/4
f 122/59/4 123/60/4 113/58/4
f 124/68/7 111/69/7 114/70/7
f 123/71/7 124/68/7 114/70/7
f 413/72/7 414/73/7 30/74/7
f 27/75/7 413/72/7 30/74/7
f 412/76/3 29/77/3 30/74/3
f 414/73/3 412/76/3 30/74/3
f 409/78/3 410/79/3 31/80/3
f 32/81/3 409/78/3 31/80/3
f 89/82/1 154/83/1 155/84/1
f 90/25/1 89/82/1 155/84/1
f 92/85/3 91/86/3 156/87/3
f 153/88/3 92/85/3 156/87/3
f 36/89/8 33/90/8 406/91/8
f 405/92/8 36/89/8 406/91/8
f 36/89/4 405/92/4 407/93/4
f 35/94/4 36/89/4 407/93/4
f 403/95/4 39/96/4 40/97/4
f 404/98/4 403/95/4 40/97/4
f 404/98/7 40/97/7 37/99/7
f 401/100/7 404/98/7 37/99/7
f 399/101/5 400/102/5 41/103/5
f 42/104/5 399/101/5 41/103/5
f 44/105/7 41/106/7 400/107/7
f 398/108/7 44/105/7 400/107/7
f 44/105/4 398/108/4 397/109/4
f 43/110/4 44/105/4 397/109/4
f 395/111/7 396/112/7 48/113/7
f 45/114/7 395/111/7 48/113/7
f 396/112/4 394/115/4 47/116/4
f 48/113/4 396/112/4 47/116/4
f 367/117/4 63/118/4 64/119/4
f 368/120/4 367/117/4 64/119/4
f 368/120/7 64/119/7 61/121/7
f 365/122/7 368/120/7 61/121/7
f 364/123/7 60/124/7 57/125/7
f 363/126/7 364/123/7 57/125/7
f 60/124/4 364/123/4 362/127/4
f 59/128/4 60/124/4 362/127/4
f 57/129/5 58/130/5 361/131/5
f 363/132/5 57/129/5 361/131/5
f 24/133/1 137/134/1 140/135/1
f 148/136/1 143/137/1 142/138/1
f 145/139/1 148/136/1 142/138/1
f 149/140/1 152/141/1 147/142/1
f 149/140/1 147/142/1 146/143/1
f 148/136/1 147/142/1 23/144/1
f 23/144/1 147/142/1 152/141/1
f 23/144/1 152/141/1 151/145/1
f 143/137/1 148/136/1 23/144/1
f 143/137/1 23/144/1 24/133/1
f 144/146/1 143/137/1 24/133/1
f 144/146/1 24/133/1 140/135/1
f 144/146/1 140/135/1 139/147/1
f 141/148/1 144/146/1 139/147/1
f 137/134/1 24/133/1 25/149/1
f 138/150/1 137/134/1 25/149/1
f 139/147/1 138/150/1 25/149/1
f 141/148/1 139/147/1 25/149/1
f 142/138/1 141/148/1 25/149/1
f 142/138/1 25/149/1 22/151/1
f 22/151/1 23/144/1 151/145/1
f 22/151/1 151/145/1 150/152/1
f 22/151/1 150/152/1 149/140/1
f 22/151/1 149/140/1 146/143/1
f 22/151/1 146/143/1 145/139/1
f 142/138/1 22/151/1 145/139/1
f 360/153/7 56/154/7 53/155/7
f 359/156/7 360/153/7 53/155/7
f 358/157/4 55/158/4 56/154/4
f 360/153/4 358/157/4 56/154/4
f 49/159/7 356/160/7 355/161/7
f 52/162/7 49/159/7 355/161/7
f 354/163/4 51/164/4 52/162/4
f 355/161/4 354/163/4 52/162/4
f 352/165/7 68/166/7 65/167/7
f 351/168/7 352/165/7 65/167/7
f 350/169/3 67/170/3 68/166/3
f 352/165/3 350/169/3 68/166/3
f 65/171/1 66/172/1 349/173/1
f 351/174/1 65/171/1 349/173/1
f 12/175/9 9/176/9 10/177/9
f 11/178/9 12/175/9 10/177/9
f 102/179/7 133/180/7 134/181/7
f 99/182/7 102/179/7 134/181/7
f 136/71/10 101/70/10 100/183/10
f 135/184/10 136/71/10 100/183/10
f 106/185/7 132/186/7 129/187/7
f 103/188/7 106/185/7 129/187/7
f 99/189/1 100/190/1 48/191/11
f 99/189/1 48/191/11 47/192/1
f 48/191/11 100/190/1 101/193/1
f 102/194/1 99/189/1 47/192/1
f 45/195/11 48/191/11 101/193/1
f 45/195/11 101/193/1 102/194/1
f 46/196/1 45/195/11 102/194/1
f 47/192/1 46/196/1 102/194/1
f 105/197/10 104/198/10 130/184/10
f 131/71/10 105/197/10 130/184/10
f 110/199/1 107/200/1 40/201/1
f 110/199/1 40/201/1 39/202/1
f 109/203/1 110/199/1 39/202/1
f 37/204/1 40/201/1 107/200/1
f 37/204/1 107/200/1 108/205/1
f 38/206/1 37/204/1 108/205/1
f 38/206/1 108/205/1 109/203/1
f 39/202/1 38/206/1 109/203/1
f 110/69/7 109/70/8 126/71/8
f 127/184/7 110/69/7 126/71/8
f 125/71/10 108/197/10 107/198/10
f 128/184/10 125/71/10 107/198/10
f 111/199/1 112/200/1 36/207/11
f 111/199/1 36/207/11 35/208/1
f 33/209/11 36/207/11 112/200/1
f 33/209/11 112/200/1 113/205/1
f 33/209/11 113/205/1 114/203/1
f 34/210/1 33/209/11 114/203/1
f 34/210/1 114/203/1 111/199/1
f 35/208/1 34/210/1 111/199/1
f 113/211/10 112/212/10 121/213/10
f 122/186/10 113/211/10 121/213/10
f 150/184/7 73/214/7 76/215/7
f 149/216/7 150/184/7 76/215/7
f 75/217/10 74/218/10 151/219/10
f 152/220/10 75/217/10 151/219/10
f 53/221/1 78/193/1 79/222/1
f 54/223/1 53/221/1 79/222/1
f 78/193/1 53/221/1 56/224/1
f 77/200/1 78/193/1 56/224/1
f 80/189/1 77/200/1 56/224/1
f 80/189/1 56/224/1 55/225/1
f 79/222/1 80/189/1 55/225/1
f 54/223/1 79/222/1 55/225/1
f 77/226/10 147/227/10 148/228/10
f 78/229/10 77/226/10 148/228/10
f 145/228/7 146/227/7 80/230/7
f 79/229/7 145/228/7 80/230/7
f 58/231/1 57/232/1 81/205/1
f 58/231/1 81/205/1 82/203/1
f 58/231/1 82/203/1 83/189/1
f 59/233/1 58/231/1 83/189/1
f 59/233/1 83/189/1 84/190/1
f 60/234/1 59/233/1 84/190/1
f 60/234/1 84/190/1 81/205/1
f 57/232/1 60/234/1 81/205/1
f 81/235/10 84/218/10 143/219/10
f 144/220/10 81/235/10 143/219/10
f 83/236/7 82/235/7 141/220/7
f 142/219/7 83/236/7 141/220/7
f 139/237/7 88/238/7 87/239/7
f 138/240/7 139/237/7 87/239/7
f 62/231/1 61/232/1 86/241/1
f 62/231/1 86/241/1 87/242/1
f 62/231/1 87/242/1 88/243/1
f 85/244/1 86/241/1 61/232/1
f 85/244/1 61/232/1 64/224/12
f 88/243/1 85/244/1 64/224/12
f 88/243/1 64/224/12 63/225/11
f 62/231/1 88/243/1 63/225/11
f 85/245/10 140/246/10 137/247/10
f 86/248/10 85/245/10 137/247/10
f 91/249/4 92/250/4 66/251/4
f 91/249/4 66/251/4 65/252/4
f 66/251/4 92/250/4 89/253/4
f 90/254/4 91/249/4 65/252/4
f 67/255/4 66/251/4 89/253/4
f 67/255/4 89/253/4 90/254/4
f 68/256/4 67/255/4 90/254/4
f 65/252/4 68/256/4 90/254/4
f 153/257/7 154/258/7 89/259/7
f 92/260/7 153/257/7 89/259/7
f 155/258/10 156/257/10 91/260/10
f 90/259/10 155/258/10 91/260/10
f 28/261/4 27/262/4 94/249/4
f 28/261/4 94/249/4 95/250/4
f 28/261/4 95/250/4 96/253/4
f 93/254/4 94/249/4 27/262/4
f 29/263/13 28/261/4 96/253/4
f 29/263/13 96/253/4 93/254/4
f 30/264/4 29/263/13 93/254/4
f 27/262/4 30/264/4 93/254/4
f 95/265/7 115/266/7 116/267/7
f 96/268/7 95/265/7 116/267/7
f 94/265/10 93/268/10 117/267/10
f 118/266/10 94/265/10 117/267/10
f 157/269/3 158/270/3 160/271/3
f 159/272/3 157/269/3 160/271/3
f 162/273/14 14/7/14 13/6/15
f 161/274/15 162/273/14 13/6/15
f 168/275/3 167/276/3 162/273/3
f 161/274/3 168/275/3 162/273/3
f 348/277/7 369/278/7 70/279/7
f 220/280/7 348/277/7 70/279/7
f 20/12/4 170/281/4 169/282/4
f 19/13/4 20/12/4 169/282/4
f 170/281/3 221/283/3 222/284/3
f 169/282/3 170/281/3 222/284/3
f 160/285/5 158/286/5 2/287/5
f 4/288/5 160/285/5 2/287/5
f 26/289/10 25/290/10 175/291/10
f 176/292/10 26/289/10 175/291/10
f 171/293/10 176/294/10 175/295/10
f 25/296/10 26/297/10 21/298/10
f 171/293/10 175/295/10 172/299/10
f 21/300/10 171/301/10 172/302/10
f 21/300/10 172/302/10 22/303/10
f 25/296/10 21/298/10 22/304/10
f 309/305/5 17/306/5 307/307/5
f 21/308/5 309/305/5 307/307/5
f 171/309/5 21/308/5 307/307/5
f 347/310/1 348/311/1 220/312/1
f 219/313/1 347/310/1 220/312/1
f 23/314/5 22/315/5 172/316/5
f 173/317/5 23/314/5 172/316/5
f 261/184/7 274/318/7 273/215/7
f 264/319/7 261/184/7 273/215/7
f 72/320/7 19/13/7 169/282/7
f 72/320/7 169/282/7 222/321/7
f 24/322/7 3/20/7 72/19/7
f 4/4/7 3/3/7 24/323/7
f 4/4/7 24/323/7 23/324/7
f 4/288/7 23/325/7 173/326/7
f 160/285/7 4/288/7 173/326/7
f 160/271/7 173/327/7 174/328/7
f 159/272/7 160/271/7 174/328/7
f 222/329/7 159/330/7 174/331/7
f 174/331/7 24/322/7 72/19/7
f 222/329/7 174/331/7 72/19/7
f 221/332/4 157/333/4 159/330/4
f 222/329/4 221/332/4 159/330/4
f 224/32/5 301/334/5 300/335/5
f 223/31/5 224/32/5 300/335/5
f 299/36/4 302/37/4 225/334/4
f 226/335/4 299/36/4 225/334/4
f 295/28/4 298/336/4 228/30/4
f 229/27/4 295/28/4 228/30/4
f 227/32/5 297/334/5 296/335/5
f 230/31/5 227/32/5 296/335/5
f 231/334/4 232/335/4 291/36/4
f 294/32/4 231/334/4 291/36/4
f 292/27/5 233/28/5 234/29/5
f 293/30/5 292/27/5 234/29/5
f 236/41/4 237/38/4 288/39/4
f 287/40/4 236/41/4 288/39/4
f 235/337/5 290/338/5 289/339/5
f 238/340/5 235/337/5 289/339/5
f 245/34/16 265/51/16 268/341/1
f 244/33/1 245/34/16 268/341/1
f 267/49/3 266/46/3 246/47/3
f 243/48/3 267/49/3 246/47/3
f 270/49/3 269/46/3 247/47/3
f 248/48/3 270/49/3 247/47/3
f 284/342/5 249/28/5 250/29/5
f 285/343/5 284/342/5 250/29/5
f 251/334/4 252/335/4 283/344/4
f 286/345/4 251/334/4 283/344/4
f 254/29/5 280/343/5 279/27/5
f 253/28/5 254/29/5 279/27/5
f 255/334/4 256/335/4 282/344/4
f 281/32/4 255/334/4 282/344/4
f 258/334/4 259/335/4 276/344/4
f 275/345/4 258/334/4 276/344/4
f 277/342/5 260/28/5 257/29/5
f 278/30/5 277/342/5 257/29/5
f 262/29/5 271/343/5 274/342/5
f 261/28/5 262/29/5 274/342/5
f 273/346/4 272/341/4 263/347/4
f 264/348/4 273/346/4 263/347/4
f 391/349/7 392/350/7 177/351/7
f 180/352/7 391/349/7 177/351/7
f 390/353/1 391/354/1 180/355/1
f 179/356/1 390/353/1 180/355/1
f 388/357/7 409/78/7 32/81/7
f 182/358/7 388/357/7 32/81/7
f 239/85/3 240/86/17 305/87/17
f 304/88/3 239/85/3 305/87/17
f 241/25/1 242/82/18 303/83/18
f 306/84/1 241/25/1 303/83/18
f 385/359/10 386/360/10 185/361/10
f 184/362/10 385/359/10 185/361/10
f 385/359/5 184/362/5 183/363/5
f 384/364/5 385/359/5 183/363/5
f 382/365/10 189/366/10 188/367/10
f 380/368/10 382/365/10 188/367/10
f 380/368/5 188/367/5 187/369/5
f 379/370/5 380/368/5 187/369/5
f 378/371/6 192/372/6 191/373/5
f 377/374/5 378/371/6 191/373/5
f 375/375/10 193/376/10 192/372/10
f 378/371/10 375/375/10 192/372/10
f 197/377/10 196/378/10 371/379/10
f 372/380/10 197/377/10 371/379/10
f 345/381/10 213/382/10 212/383/10
f 344/384/10 345/381/10 212/383/10
f 343/385/5 344/384/5 212/383/5
f 211/386/5 343/385/5 212/383/5
f 209/387/10 208/388/10 339/389/10
f 340/390/10 209/387/10 339/389/10
f 339/389/5 208/388/5 207/391/5
f 342/392/5 339/389/5 207/391/5
f 336/393/10 205/394/10 204/395/10
f 335/396/10 336/393/10 204/395/10
f 335/396/5 204/395/5 203/397/5
f 337/398/5 335/396/5 203/397/5
f 332/399/10 201/400/10 200/401/10
f 331/402/10 332/399/10 200/401/10
f 331/402/5 200/401/5 199/403/5
f 333/404/5 331/402/5 199/403/5
f 215/405/7 218/406/7 330/407/7
f 329/408/7 215/405/7 330/407/7
f 328/409/1 330/410/1 218/411/1
f 217/412/1 328/409/1 218/411/1
f 165/413/19 164/414/20 163/415/20
f 166/416/19 165/413/19 163/415/20
f 290/417/3 287/418/3 174/419/3
f 297/420/3 302/421/3 299/422/3
f 296/423/3 297/420/3 299/422/3
f 173/424/3 297/420/3 298/425/3
f 174/419/3 173/424/3 298/425/3
f 290/417/3 174/419/3 294/426/3
f 290/417/3 294/426/3 291/427/3
f 289/428/21 290/417/3 291/427/3
f 302/421/3 297/420/3 173/424/3
f 301/429/3 302/421/3 173/424/3
f 175/430/3 174/419/3 287/418/3
f 175/430/3 287/418/3 288/431/3
f 175/430/3 288/431/3 289/428/21
f 175/430/3 289/428/21 291/427/3
f 175/430/3 291/427/3 292/432/3
f 301/429/3 173/424/3 172/433/3
f 300/434/3 301/429/3 172/433/3
f 299/422/3 300/434/3 172/433/3
f 296/423/3 299/422/3 172/433/3
f 295/435/3 296/423/3 172/433/3
f 295/435/3 172/433/3 175/430/3
f 295/435/3 175/430/3 292/432/3
f 298/425/3 295/435/3 292/432/3
f 298/425/3 292/432/3 293/436/22
f 306/437/4 303/438/4 219/439/4
f 153/440/4 156/441/4 69/442/4
f 303/438/4 304/443/4 175/444/4
f 306/437/4 219/439/4 220/445/4
f 70/446/4 69/442/4 156/441/4
f 175/444/4 304/443/4 305/447/4
f 219/439/4 303/438/4 175/444/4
f 219/439/4 175/444/4 25/448/4
f 69/442/4 219/439/4 25/448/4
f 153/440/4 69/442/4 25/448/4
f 154/449/4 153/440/4 25/448/4
f 155/450/4 154/449/4 25/448/4
f 174/451/4 175/444/4 305/447/4
f 174/451/4 305/447/4 306/437/4
f 174/451/4 306/437/4 220/445/4
f 155/450/4 25/448/4 24/452/4
f 156/441/4 155/450/4 24/452/4
f 70/446/4 156/441/4 24/452/4
f 24/452/4 174/451/4 220/445/4
f 70/446/4 24/452/4 220/445/4
f 269/453/4 270/454/4 268/455/4
f 269/453/4 268/455/4 265/456/4
f 118/457/4 120/458/4 119/459/4
f 115/460/4 118/457/4 119/459/4
f 266/461/4 267/462/4 308/463/4
f 265/456/4 266/461/4 308/463/4
f 265/456/4 308/463/4 18/464/4
f 269/453/4 265/456/4 18/464/4
f 119/459/4 269/453/4 18/464/4
f 115/460/4 119/459/4 18/464/4
f 115/460/4 18/464/4 310/465/4
f 116/466/4 115/460/4 310/465/4
f 117/467/4 116/466/4 310/465/4
f 117/467/4 310/465/4 26/468/4
f 118/457/4 117/467/4 26/468/4
f 120/458/4 118/457/4 26/468/4
f 270/454/4 120/458/4 26/468/4
f 270/454/4 26/468/4 176/469/4
f 268/455/4 270/454/4 176/469/4
f 267/462/4 268/455/4 176/469/4
f 308/463/4 267/462/4 176/469/4
f 198/232/3 250/470/3 249/203/3
f 197/231/3 198/232/3 249/203/3
f 251/471/3 250/470/3 198/232/3
f 197/231/3 249/203/3 252/199/3
f 251/471/3 198/232/3 195/234/3
f 252/199/3 251/471/3 195/234/3
f 252/199/3 195/234/3 196/233/3
f 197/231/3 252/199/3 196/233/3
f 283/472/7 252/473/7 249/181/7
f 284/474/7 283/472/7 249/181/7
f 250/181/10 251/473/10 286/472/10
f 285/474/10 250/181/10 286/472/10
f 194/195/3 254/205/3 253/203/3
f 193/196/3 194/195/3 253/203/3
f 254/205/3 194/195/3 191/201/23
f 255/190/3 254/205/3 191/201/23
f 256/189/3 255/190/3 191/201/23
f 256/189/3 191/201/23 192/192/3
f 253/203/3 256/189/3 192/192/3
f 193/196/3 253/203/3 192/192/3
f 279/475/7 282/476/7 256/477/7
f 253/478/7 279/475/7 256/477/7
f 281/479/24 280/480/24 254/481/24
f 255/482/24 281/479/24 254/481/24
f 276/483/7 259/216/7 260/184/7
f 277/318/7 276/483/7 260/184/7
f 278/484/24 257/485/24 258/486/24
f 275/487/24 278/484/24 258/486/24
f 189/196/3 190/195/3 257/205/3
f 189/196/3 257/205/3 260/203/3
f 188/202/3 189/196/3 260/203/3
f 188/202/3 260/203/3 259/199/3
f 188/202/3 259/199/3 258/200/3
f 187/201/3 188/202/3 258/200/3
f 187/201/3 258/200/3 257/205/3
f 190/195/3 187/201/3 257/205/3
f 271/488/10 262/187/10 263/489/10
f 272/490/10 271/488/10 263/489/10
f 202/491/25 201/400/4 332/399/4
f 334/492/25 202/491/25 332/399/4
f 299/70/7 226/216/7 223/184/7
f 300/198/7 299/70/7 223/184/7
f 225/216/10 302/70/10 301/198/10
f 224/184/10 225/216/10 301/198/10
f 203/397/7 206/493/7 338/494/7
f 337/398/7 203/397/7 338/494/7
f 228/200/3 203/201/3 204/202/3
f 229/199/3 228/200/3 204/202/3
f 206/204/3 203/201/3 228/200/3
f 206/204/3 228/200/3 227/193/3
f 206/204/3 227/193/3 230/194/3
f 205/206/3 206/204/3 230/194/3
f 205/206/3 230/194/3 229/199/3
f 204/202/3 205/206/3 229/199/3
f 228/228/10 298/229/10 297/226/10
f 227/495/10 228/228/10 297/226/10
f 49/496/5 50/497/5 353/498/5
f 356/499/5 49/496/5 353/498/5
f 230/184/7 296/69/7 295/70/7
f 229/216/7 230/184/7 295/70/7
f 54/500/10 55/158/10 358/157/10
f 357/501/10 54/500/10 358/157/10
f 336/393/4 338/502/4 206/503/4
f 205/394/4 336/393/4 206/503/4
f 231/216/10 294/197/10 293/198/10
f 234/184/10 231/216/10 293/198/10
f 291/197/7 232/216/7 233/184/7
f 292/198/7 291/197/7 233/184/7
f 236/244/3 211/191/3 212/192/3
f 237/504/3 236/244/3 212/192/3
f 238/505/3 237/504/3 212/192/3
f 211/191/3 236/244/3 235/241/3
f 238/505/3 212/192/3 213/206/3
f 235/241/3 238/505/3 213/206/3
f 235/241/3 213/206/3 214/204/3
f 211/191/3 235/241/3 214/204/3
f 53/506/5 54/500/5 357/501/5
f 359/507/5 53/506/5 357/501/5
f 289/508/7 288/509/7 237/510/7
f 238/511/7 289/508/7 237/510/7
f 290/508/10 235/511/10 236/510/10
f 287/509/10 290/508/10 236/510/10
f 342/392/7 207/391/7 210/512/7
f 341/513/7 342/392/7 210/512/7
f 304/266/7 303/258/7 242/259/7
f 239/260/7 304/266/7 242/259/7
f 305/266/10 240/260/10 241/259/10
f 306/258/10 305/266/10 241/259/10
f 362/127/10 361/131/10 58/130/10
f 59/128/10 362/127/10 58/130/10
f 210/514/4 209/387/4 340/390/4
f 341/515/4 210/514/4 340/390/4
f 179/516/4 180/517/4 243/249/4
f 179/516/4 243/249/4 246/250/4
f 179/516/4 246/250/4 245/253/4
f 178/263/4 179/516/4 245/253/4
f 178/263/4 245/253/4 244/254/4
f 177/264/4 178/263/4 244/254/4
f 177/264/4 244/254/4 243/249/4
f 180/517/4 177/264/4 243/249/4
f 246/518/7 266/519/7 265/520/7
f 245/521/7 246/518/7 265/520/7
f 268/522/10 267/523/10 243/524/10
f 244/525/10 268/522/10 243/524/10
f 181/526/4 182/527/4 248/528/4
f 181/526/4 248/528/4 247/529/4
f 181/526/4 247/529/4 97/530/4
f 31/531/4 181/526/4 97/530/4
f 31/531/4 97/530/4 98/532/4
f 32/533/4 31/531/4 98/532/4
f 32/533/4 98/532/4 248/528/4
f 182/527/4 32/533/4 248/528/4
f 62/534/10 63/118/10 367/117/10
f 366/535/10 62/534/10 367/117/10
f 248/536/10 98/537/10 120/538/10
f 270/539/10 248/536/10 120/538/10
f 119/540/7 97/541/7 247/542/7
f 269/543/7 119/540/7 247/542/7
f 8/544/26 18/545/26 308/546/26
f 307/547/26 17/548/26 7/549/26
f 163/550/26 8/544/26 308/546/26
f 307/547/26 7/549/26 166/551/26
f 166/551/26 163/550/26 308/546/26
f 307/547/26 166/551/26 308/546/26
f 171/552/3 285/553/3 286/554/3
f 271/555/3 275/556/3 276/557/3
f 274/558/3 271/555/3 276/557/3
f 280/559/3 286/554/3 283/560/21
f 279/561/3 280/559/3 283/560/21
f 278/562/3 281/563/3 282/564/3
f 277/565/3 278/562/3 282/564/3
f 171/552/3 286/554/3 280/559/3
f 171/552/3 280/559/3 281/563/3
f 176/566/3 171/552/3 281/563/3
f 176/566/3 281/563/3 278/562/3
f 176/566/3 278/562/3 275/556/3
f 176/566/3 275/556/3 271/555/3
f 176/566/3 271/555/3 272/567/3
f 308/568/3 176/566/3 272/567/3
f 308/568/3 272/567/3 273/569/3
f 308/568/3 273/569/3 274/558/3
f 308/568/3 274/558/3 276/557/3
f 308/568/3 276/557/3 277/565/3
f 285/553/3 171/552/3 307/570/3
f 284/571/3 285/553/3 307/570/3
f 283/560/21 284/571/3 307/570/3
f 279/561/3 283/560/21 307/570/3
f 282/564/3 279/561/3 307/570/3
f 282/564/3 307/570/3 308/568/3
f 277/565/3 282/564/3 308/568/3
f 61/572/5 62/534/5 366/535/5
f 365/573/5 61/572/5 366/535/5
f 136/574/1 135/575/1 21/576/1
f 126/577/1 125/578/1 121/579/1
f 126/577/1 121/579/1 124/580/1
f 136/574/1 130/581/1 129/582/1
f 133/583/1 136/574/1 129/582/1
f 132/584/1 131/585/1 128/586/1
f 132/584/1 128/586/1 127/587/1
f 130/581/1 136/574/1 21/576/1
f 131/585/1 130/581/1 21/576/1
f 128/586/1 131/585/1 21/576/1
f 128/586/1 21/576/1 26/588/1
f 125/578/1 128/586/1 26/588/1
f 121/579/1 125/578/1 26/588/1
f 122/589/1 121/579/1 26/588/1
f 309/590/1 21/576/1 135/575/1
f 309/590/1 135/575/1 134/591/1
f 309/590/1 134/591/1 133/583/1
f 309/590/1 133/583/1 129/582/1
f 309/590/1 129/582/1 132/584/1
f 310/592/1 309/590/1 132/584/1
f 122/589/1 26/588/1 310/592/1
f 123/593/1 122/589/1 310/592/1
f 124/580/1 123/593/1 310/592/1
f 126/577/1 124/580/1 310/592/1
f 127/587/1 126/577/1 310/592/1
f 132/584/1 127/587/1 310/592/1
f 310/594/27 18/595/27 8/596/27
f 7/597/27 17/598/27 309/599/27
f 12/600/27 7/597/27 309/599/27
f 310/594/27 8/596/27 9/601/27
f 9/601/27 12/600/27 309/599/27
f 310/594/27 9/601/27 309/599/27
f 346/602/7 343/385/7 211/386/7
f 214/603/7 346/602/7 211/386/7
f 214/604/4 213/382/4 345/381/4
f 346/605/4 214/604/4 345/381/4
f 15/606/5 7/607/5 12/608/5
f 11/609/5 15/606/5 12/608/5
f 168/610/4 8/611/4 163/612/4
f 164/613/4 168/610/4 163/612/4
f 10/614/28 16/615/28 15/616/28
f 11/617/28 10/614/28 15/616/28
f 164/618/29 165/619/30 314/620/31
f 168/621/32 164/618/29 314/620/31
f 313/622/33 314/620/33 165/619/33
f 168/621/32 314/620/31 311/623/32
f 313/622/33 165/619/33 167/624/33
f 312/625/33 313/622/33 167/624/33
f 311/623/33 312/625/33 167/624/33
f 168/621/34 311/623/34 167/624/34
f 316/626/1 315/627/1 325/628/1
f 326/629/1 316/626/1 325/628/1
f 316/626/4 326/629/4 323/630/4
f 317/631/4 316/626/4 323/630/4
f 318/632/7 315/633/7 316/634/7
f 317/631/7 318/632/7 316/634/7
f 67/170/10 350/169/10 349/173/10
f 66/172/10 67/170/10 349/173/10
f 325/628/5 315/627/5 318/635/5
f 324/636/5 325/628/5 318/635/5
f 324/637/3 318/632/3 317/631/3
f 323/630/3 324/637/3 317/631/3
f 312/638/1 311/639/1 320/640/1
f 319/641/1 312/638/1 320/640/1
f 321/642/4 320/640/4 311/639/4
f 314/643/4 321/642/4 311/639/4
f 347/644/10 219/645/10 69/646/10
f 370/647/10 347/644/10 69/646/10
f 321/642/3 314/643/3 313/648/3
f 322/649/3 321/642/3 313/648/3
f 312/650/5 319/651/5 322/649/5
f 313/648/5 312/650/5 322/649/5
f 320/652/7 321/642/7 325/653/7
f 320/652/7 325/653/7 324/654/7
f 326/655/7 325/653/7 321/642/7
f 326/655/7 321/642/7 322/649/7
f 326/655/7 322/649/7 319/656/7
f 323/657/7 326/655/7 319/656/7
f 323/657/7 319/656/7 320/652/7
f 324/654/7 323/657/7 320/652/7
f 103/189/1 104/190/1 44/234/1
f 103/189/1 44/234/1 43/233/1
f 41/232/1 44/234/1 104/190/1
f 41/232/1 104/190/1 105/205/1
f 41/232/1 105/205/1 106/203/1
f 42/231/1 41/232/1 106/203/1
f 42/231/1 106/203/1 103/189/1
f 43/233/1 42/231/1 103/189/1
f 231/190/3 207/191/3 208/192/3
f 232/189/3 231/190/3 208/192/3
f 232/189/3 208/192/3 209/196/3
f 233/203/3 232/189/3 209/196/3
f 234/205/3 233/203/3 209/196/3
f 234/205/3 209/196/3 210/195/3
f 231/190/3 234/205/3 210/195/3
f 207/191/3 231/190/3 210/195/3
f 225/190/3 199/201/3 200/202/3
f 226/189/3 225/190/3 200/202/3
f 226/189/3 200/202/3 201/206/3
f 223/203/3 226/189/3 201/206/3
f 224/205/3 223/203/3 201/206/3
f 224/205/3 201/206/3 202/204/3
f 225/190/3 224/205/3 202/204/3
f 199/201/3 225/190/3 202/204/3
f 50/497/10 51/164/10 354/163/10
f 353/498/10 50/497/10 354/163/10
f 186/204/23 262/205/3 261/203/3
f 185/206/3 186/204/23 261/203/3
f 262/205/3 186/204/23 183/191/23
f 263/190/3 262/205/3 183/191/23
f 264/189/3 263/190/3 183/191/23
f 264/189/3 183/191/23 184/192/3
f 261/203/3 264/189/3 184/192/3
f 185/206/3 261/203/3 184/192/3
f 199/403/7 202/658/7 334/659/7
f 333/404/7 199/403/7 334/659/7
f 74/660/1 52/224/1 51/225/1
f 73/189/1 74/660/1 51/225/1
f 52/224/1 74/660/1 75/661/1
f 76/203/1 73/189/1 51/225/1
f 49/221/1 52/224/1 75/661/1
f 49/221/1 75/661/1 76/203/1
f 50/223/1 49/221/1 76/203/1
f 51/225/1 50/223/1 76/203/1
f 217/412/10 216/662/10 327/663/10
f 328/409/10 217/412/10 327/663/10
f 215/405/3 329/408/3 327/663/3
f 216/662/3 215/405/3 327/663/3
f 240/249/4 239/250/4 217/516/4
f 240/249/4 217/516/4 218/252/4
f 217/516/4 239/250/4 242/664/4
f 241/254/4 240/249/4 218/252/4
f 216/665/4 217/516/4 242/664/4
f 216/665/4 242/664/4 241/254/4
f 215/666/4 216/665/4 241/254/4
f 218/252/4 215/666/4 241/254/4
f 158/667/10 157/668/10 221/669/10
f 71/670/10 1/671/10 2/672/10
f 71/670/10 2/672/10 158/667/10
f 71/670/10 158/667/10 221/669/10
f 170/673/10 20/674/10 71/670/10
f 221/669/10 170/673/10 71/670/10
f 177/351/3 392/350/3 389/675/3
f 178/676/3 177/351/3 389/675/3
f 389/675/10 390/353/10 179/356/10
f 178/676/10 389/675/10 179/356/10
f 388/677/1 182/678/1 181/679/1
f 387/680/1 388/677/1 181/679/1
f 181/679/10 31/80/10 410/79/10
f 387/680/10 181/679/10 410/79/10
f 411/681/1 413/682/1 27/683/1
f 28/684/1 411/681/1 27/683/1
f 28/684/10 29/77/10 412/76/10
f 411/681/10 28/684/10 412/76/10
f 408/685/5 406/686/5 33/687/5
f 34/688/5 408/685/5 33/687/5
f 186/689/4 185/361/4 386/360/4
f 383/690/4 186/689/4 386/360/4
f 407/93/10 408/685/10 34/688/10
f 35/94/10 407/93/10 34/688/10
f 183/363/7 186/691/7 383/692/7
f 384/364/7 183/363/7 383/692/7
f 37/693/5 38/694/5 402/695/5
f 401/696/5 37/693/5 402/695/5
f 190/697/4 189/366/4 382/365/4
f 381/698/4 190/697/4 382/365/4
f 38/694/10 39/96/10 403/95/10
f 402/695/10 38/694/10 403/95/10
f 187/369/7 190/699/7 381/700/7
f 379/370/7 187/369/7 381/700/7
f 194/701/4 193/376/4 375/375/4
f 376/702/4 194/701/4 375/375/4
f 191/373/7 194/703/7 376/704/7
f 377/374/7 191/373/7 376/704/7
f 397/109/10 399/101/10 42/104/10
f 43/110/10 397/109/10 42/104/10
f 395/705/5 45/706/5 46/707/5
f 393/708/5 395/705/5 46/707/5
f 371/379/5 196/378/5 195/709/5
f 374/710/5 371/379/5 195/709/5
f 372/380/4 373/711/4 198/712/4
f 197/377/4 372/380/4 198/712/4
f 46/707/10 47/116/10 394/115/10
f 393/708/10 46/707/10 394/115/10
f 195/709/7 198/713/7 373/714/7
f 374/710/7 195/709/7 373/714/7
f 347/715/4 370/716/4 369/717/4
f 348/718/4 347/715/4 369/717/4
f 414/719/4 413/720/4 411/721/4
f 412/722/4 414/719/4 411/721/4
f 410/723/4 409/724/4 388/725/4
f 387/726/4 410/723/4 388/725/4
f 351/727/4 349/728/4 350/729/4
f 352/730/4 351/727/4 350/729/4
f 389/731/4 392/732/4 391/733/4
f 390/734/4 389/731/4 391/733/4
f 330/735/4 328/736/4 327/737/4
f 329/732/4 330/735/4 327/737/4
f 383/738/3 386/739/3 385/740/3
f 384/741/3 383/738/3 385/740/3
f 381/742/3 382/743/3 380/744/3
f 379/745/3 381/742/3 380/744/3
f 375/743/3 378/746/3 377/745/3
f 376/742/3 375/743/3 377/745/3
f 372/747/3 371/748/3 374/749/3
f 373/750/3 372/747/3 374/749/3
f 345/739/3 344/740/3 343/741/3
f 346/738/3 345/739/3 343/741/3
f 340/751/3 339/752/3 342/753/3
f 341/750/3 340/751/3 342/753/3
f 338/750/3 336/751/3 335/752/3
f 337/753/3 338/750/3 335/752/3
f 334/754/3 332/755/3 331/746/3
f 333/745/3 334/754/3 331/746/3
f 406/756/1 408/757/1 407/758/1
f 405/759/1 406/756/1 407/758/1
f 402/747/1 403/752/1 404/753/1
f 401/750/1 402/747/1 404/753/1
f 400/742/1 399/743/1 397/744/1
f 398/749/1 400/742/1 397/744/1
f 396/760/1 395/761/1 393/755/1
f 394/762/1 396/760/1 393/755/1
f 367/763/1 368/764/1 365/765/1
f 366/766/1 367/763/1 365/765/1
f 363/767/1 361/747/1 362/748/1
f 364/768/1 363/767/1 362/748/1
f 360/769/1 359/767/1 357/747/1
f 358/770/1 360/769/1 357/747/1
f 354/748/1 355/768/1 356/771/1
f 353/772/1 354/748/1 356/771/1
f 167/773/5 7/774/5 14/775/5
f 162/776/5 167/773/5 14/775/5
f 14/777/5 7/607/5 15/606/5
f 6/778/5 14/777/5 15/606/5
f 166/779/5 7/774/5 167/773/5
f 165/780/5 166/779/5 167/773/5
f 16/781/4 8/782/4 13/783/4
f 5/784/4 16/781/4 13/783/4
f 13/785/4 8/611/4 168/610/4
f 161/786/4 13/785/4 168/610/4
f 9/787/4 8/782/4 16/781/4
f 10/788/4 9/787/4 16/781/4
f 293/436/22 174/419/3 298/425/3
f 293/436/22 294/426/3 174/419/3
