# Blender 4.4.1
# www.blender.org
mtllib rail_buffer_750mm.mtl
o prellbock_750mm
v -0.528641 0.247244 -0.257078
v -0.528641 0.247244 -0.116127
v -0.424207 0.247244 -0.257078
v -0.424207 0.247244 -0.116127
v -0.424207 0.247244 -0.137881
v -0.447813 0.247244 -0.227576
v -0.528641 0.247244 -0.137881
v -0.505034 0.247244 -0.227576
v -0.493830 0.247244 -0.257078
v -0.459018 0.247244 -0.257078
v -0.459018 0.247244 -0.093979
v -0.493830 0.247244 -0.093979
v -0.459018 0.247244 -0.222110
v -0.493830 0.247244 -0.222110
v -0.459018 0.247244 -0.128947
v -0.493830 0.247244 -0.128947
v -0.455054 0.247244 -0.147755
v -0.497794 0.247244 -0.147755
v -0.459018 0.247244 -0.147755
v -0.493830 0.247244 -0.147755
v 0.528641 0.247244 -0.257078
v 0.528641 0.247244 -0.116127
v 0.424207 0.247244 -0.257078
v 0.424207 0.247244 -0.116127
v 0.424207 0.247244 -0.137881
v 0.447813 0.247244 -0.227576
v 0.528641 0.247244 -0.137881
v 0.505034 0.247244 -0.227576
v 0.493830 0.247244 -0.257078
v 0.459018 0.247244 -0.257078
v 0.459018 0.247244 -0.093979
v 0.493830 0.247244 -0.093979
v 0.459018 0.247244 -0.222110
v 0.493830 0.247244 -0.222110
v 0.459018 0.247244 -0.128947
v 0.493830 0.247244 -0.128947
v 0.455054 0.247244 -0.147755
v 0.497794 0.247244 -0.147755
v 0.459018 0.247244 -0.147755
v 0.493830 0.247244 -0.147755
v -0.424207 1.100968 -0.127164
v -0.424207 1.100968 -0.137882
v -0.528641 1.100968 -0.126845
v -0.528641 1.100968 -0.137882
v -0.511491 1.100968 -0.257079
v -0.528641 1.100968 -0.257079
v -0.493830 1.100968 -0.093980
v -0.511491 1.100968 -0.105216
v -0.516664 1.100968 -0.242111
v -0.497794 1.100968 -0.147756
v -0.513444 1.100968 -0.142746
v -0.435837 1.100968 -0.242544
v -0.424207 1.100968 -0.257079
v -0.439857 1.100968 -0.142891
v -0.455054 1.100968 -0.147756
v -0.424207 1.100968 -0.116128
v -0.441868 1.100968 -0.104891
v -0.476169 1.100968 -0.093980
v -0.441868 1.100968 -0.257079
v -0.459018 1.100968 -0.257079
v -0.476169 1.100968 -0.257079
v -0.499514 1.100968 -0.224884
v -0.505035 1.100968 -0.227577
v -0.447813 1.100968 -0.227577
v -0.453498 1.100968 -0.224803
v -0.493830 1.100968 -0.185478
v -0.493830 1.100968 -0.222111
v -0.457065 1.100968 -0.147756
v -0.495841 1.100968 -0.147756
v -0.459018 1.100968 -0.185478
v -0.459018 1.100968 -0.222111
v 0.424207 1.100968 -0.127164
v 0.424207 1.100968 -0.137882
v 0.528641 1.100968 -0.126845
v 0.528641 1.100968 -0.137882
v 0.511491 1.100968 -0.257079
v 0.493830 1.100968 -0.257079
v 0.511491 1.100968 -0.105216
v 0.493830 1.100968 -0.093980
v 0.516664 1.100968 -0.242111
v 0.528641 1.100968 -0.257079
v 0.513444 1.100968 -0.142746
v 0.497794 1.100968 -0.147756
v 0.436183 1.100968 -0.242111
v 0.447813 1.100968 -0.227577
v 0.439857 1.100968 -0.142891
v 0.455054 1.100968 -0.147756
v 0.441868 1.100968 -0.104891
v 0.424207 1.100968 -0.116128
v 0.476169 1.100968 -0.093980
v 0.459018 1.100968 -0.093980
v 0.441868 1.100968 -0.257079
v 0.424207 1.100968 -0.257079
v 0.476169 1.100968 -0.257079
v 0.459018 1.100968 -0.257079
v 0.499514 1.100968 -0.224884
v 0.505035 1.100968 -0.227577
v 0.453498 1.100968 -0.224803
v 0.493830 1.100968 -0.185478
v 0.493830 1.100968 -0.222111
v 0.457065 1.100968 -0.147756
v 0.495841 1.100968 -0.147756
v 0.459018 1.100968 -0.185478
v 0.459018 1.100968 -0.222111
v -0.528641 1.100968 -0.116128
v -0.493830 1.100968 -0.257079
v -0.459018 1.100968 -0.093980
v -0.493830 1.100968 -0.147756
v -0.459018 1.100968 -0.147756
v 0.528641 1.100968 -0.116128
v 0.493830 1.100968 -0.147756
v 0.459018 1.100968 -0.147756
v -0.495120 0.887421 -0.125812
v -0.495120 0.985732 -0.226818
v -0.397308 0.887421 -0.125812
v -0.397308 0.985732 -0.226818
v -0.397308 0.970559 -0.211229
v -0.419418 0.907998 -0.146953
v -0.495120 0.970559 -0.211229
v -0.473010 0.907998 -0.146953
v -0.462517 0.887421 -0.125812
v -0.429912 0.887421 -0.125812
v -0.429912 1.001180 -0.242689
v -0.462517 1.001180 -0.242689
v -0.429912 0.911811 -0.150870
v -0.462517 0.911811 -0.150870
v -0.429912 0.976791 -0.217631
v -0.462517 0.976791 -0.217631
v -0.426199 0.963672 -0.204153
v -0.466229 0.963672 -0.204153
v -0.429912 0.963672 -0.204153
v -0.462517 0.963672 -0.204153
v 0.495120 0.887421 -0.125812
v 0.495120 0.985732 -0.226818
v 0.397308 0.887421 -0.125812
v 0.397308 0.985732 -0.226818
v 0.397308 0.970559 -0.211229
v 0.419418 0.907998 -0.146953
v 0.495120 0.970559 -0.211229
v 0.473010 0.907998 -0.146953
v 0.462517 0.887421 -0.125812
v 0.429912 0.887421 -0.125812
v 0.429912 1.001180 -0.242689
v 0.462517 1.001180 -0.242689
v 0.429912 0.911811 -0.150870
v 0.462517 0.911811 -0.150870
v 0.429912 0.976791 -0.217631
v 0.462517 0.976791 -0.217631
v 0.426199 0.963672 -0.204153
v 0.466229 0.963672 -0.204153
v 0.429912 0.963672 -0.204153
v 0.462517 0.963672 -0.204153
v -0.397308 0.179569 -0.996072
v -0.397308 0.172093 -0.988392
v -0.495120 0.179791 -0.996301
v -0.495120 0.172093 -0.988392
v -0.479058 0.088955 -0.902975
v -0.495120 0.088955 -0.902975
v -0.462517 0.202714 -1.019852
v -0.479058 0.194877 -1.011800
v -0.483903 0.099395 -0.913701
v -0.466229 0.165206 -0.981316
v -0.480887 0.168700 -0.984906
v -0.408201 0.099093 -0.913391
v -0.397308 0.088955 -0.902975
v -0.411966 0.168599 -0.984802
v -0.426199 0.165206 -0.981316
v -0.397308 0.187266 -1.003981
v -0.413849 0.195104 -1.012033
v -0.445975 0.202714 -1.019852
v -0.413849 0.088955 -0.902975
v -0.429912 0.088955 -0.902975
v -0.445975 0.088955 -0.902975
v -0.467840 0.111411 -0.926046
v -0.473011 0.109533 -0.924116
v -0.419418 0.109533 -0.924116
v -0.424742 0.111467 -0.926104
v -0.462517 0.138895 -0.954284
v -0.462517 0.113345 -0.928033
v -0.428083 0.165206 -0.981316
v -0.464400 0.165206 -0.981316
v -0.429912 0.138895 -0.954284
v -0.429912 0.113345 -0.928033
v 0.397308 0.179569 -0.996072
v 0.397308 0.172093 -0.988392
v 0.495120 0.179791 -0.996301
v 0.495120 0.172093 -0.988392
v 0.479058 0.088955 -0.902975
v 0.462517 0.088955 -0.902975
v 0.479058 0.194877 -1.011800
v 0.462517 0.202714 -1.019852
v 0.483903 0.099395 -0.913701
v 0.495120 0.088955 -0.902975
v 0.480887 0.168700 -0.984906
v 0.466229 0.165206 -0.981316
v 0.408525 0.099395 -0.913701
v 0.419418 0.109533 -0.924116
v 0.411966 0.168599 -0.984802
v 0.426199 0.165206 -0.981316
v 0.413849 0.195104 -1.012033
v 0.397308 0.187266 -1.003981
v 0.445975 0.202714 -1.019852
v 0.429912 0.202714 -1.019852
v 0.413849 0.088955 -0.902975
v 0.397308 0.088955 -0.902975
v 0.445975 0.088955 -0.902975
v 0.429912 0.088955 -0.902975
v 0.467840 0.111411 -0.926046
v 0.473011 0.109533 -0.924116
v 0.424742 0.111467 -0.926104
v 0.462517 0.138895 -0.954284
v 0.462517 0.113345 -0.928033
v 0.428083 0.165206 -0.981316
v 0.464400 0.165206 -0.981316
v 0.429912 0.138895 -0.954284
v 0.429912 0.113345 -0.928033
v -0.495120 0.187266 -1.003981
v -0.462517 0.088955 -0.902975
v -0.429912 0.202714 -1.019852
v -0.462517 0.165206 -0.981316
v -0.429912 0.165206 -0.981316
v 0.495120 0.187266 -1.003981
v 0.462517 0.165206 -0.981316
v 0.429912 0.165206 -0.981316
v -0.723017 0.871812 -0.110531
v -0.723017 0.871812 0.074507
v 0.791794 0.871812 -0.110531
v 0.791794 0.871812 0.074507
v -0.723017 1.145412 -0.110531
v -0.723017 1.145412 0.074507
v 0.791794 1.145412 -0.110531
v 0.791794 1.145412 0.074507
v 0.791794 1.476467 -0.110531
v 0.791794 2.081124 -0.110531
vn 1.0000 -0.0000 -0.0000
vn -0.0000 -1.0000 -0.0000
vn -1.0000 -0.0000 -0.0000
vn -0.0000 -0.0000 -1.0000
vn -0.5368 -0.0000 0.8437
vn -0.7808 -0.0000 0.6248
vn -0.3049 -0.0000 -0.9524
vn 0.7808 -0.0000 0.6248
vn 0.3049 -0.0000 -0.9524
vn 0.5368 -0.0000 0.8437
vn -0.0000 -0.0000 1.0000
vn -0.4384 -0.0000 0.8988
vn -0.4385 -0.0000 0.8987
vn 0.4384 -0.0000 0.8988
vn 0.4385 -0.0000 0.8987
vn -0.0000 1.0000 -0.0000
vn -0.0000 0.7166 0.6975
vn -0.0000 -0.6975 0.7166
vn -0.5619 0.5770 -0.5928
vn -0.8002 0.4183 -0.4298
vn -0.8002 0.4183 -0.4297
vn -0.3234 -0.6600 0.6781
vn 0.8002 0.4183 -0.4297
vn 0.3234 -0.6600 0.6781
vn 0.5619 0.5770 -0.5928
vn -0.0000 0.6975 -0.7166
vn -0.4620 0.6186 -0.6356
vn -0.4619 0.6186 -0.6356
vn -0.4620 0.6186 -0.6355
vn 0.4619 0.6186 -0.6356
vn 0.4620 0.6186 -0.6356
vn 0.8002 0.4183 -0.4298
vn -0.5619 0.5769 -0.5928
vn 0.4620 0.6186 -0.6355
vn -0.0000 -0.7166 -0.6975
vn -0.0000 1.0000 0.0001
vn -0.0000 1.0000 -0.0003
vn -0.0000 -0.1561 -0.9877
vn -0.0000 -0.9534 -0.3017
vt 0.219096 0.576342
vt -0.887866 0.554494
vt 0.219096 0.570448
vt 0.813860 0.824802
vt 0.778782 0.837720
vt 0.778782 0.815799
vt 0.219096 0.589716
vt -0.887866 0.583974
vt -0.887866 0.569234
vt 0.219096 0.841316
vt -0.887866 0.842653
vt 0.219096 0.831883
vt -0.887866 0.819066
vt 0.219096 0.822450
vt 0.219096 0.623324
vt -0.887866 0.623954
vt -0.887866 0.603964
vt -0.887867 0.668443
vt 0.219096 0.663224
vt 0.219096 0.673829
vt 0.813860 0.695688
vt 0.802570 0.725416
vt 0.778782 0.695688
vt 0.809866 0.805850
vt 0.813860 0.805850
vt 0.219096 0.605188
vt 0.219096 0.597194
vt 0.219096 0.644262
vt -0.887867 0.626640
vt 0.219096 0.635903
vt 0.852934 0.805850
vt 0.848939 0.824802
vt 0.848939 0.805850
vt 0.860230 0.725416
vt 0.848939 0.695688
vt 0.884017 0.695688
vt 0.848939 0.730924
vt -0.887866 0.771891
vt 0.219096 0.779650
vt -0.887866 0.795478
vt 0.219096 0.798516
vt 0.219096 0.884116
vt -0.887866 0.889828
vt 0.219096 0.874683
vt 0.219096 0.865249
vt 0.884017 0.837720
vt 0.884017 0.815799
vt 0.848939 0.860038
vt 0.813860 0.730924
vt 0.219096 0.567411
vt 0.219096 0.570447
vt -0.887866 0.554493
vt -0.887866 0.539310
vt 0.219096 0.560523
vt -0.887866 0.546902
vt 0.219096 0.701825
vt 0.219096 0.721975
vt -0.887866 0.721510
vt 0.219096 0.634540
vt 0.219096 0.674903
vt 0.219096 0.742123
vt 0.219096 0.721975
vt 1.028192 0.607720
vt 1.028192 0.614288
vt 0.013894 0.625795
vt 0.847584 0.824802
vt 0.882663 0.837720
vt 0.847584 0.860038
vt 1.028193 0.619778
vt 0.013894 0.636617
vt 0.013894 0.861171
vt 1.028192 0.885340
vt 0.013894 0.878489
vt 1.028192 0.790584
vt 0.013894 0.791901
vt 0.013894 0.774583
vt 0.013894 0.651294
vt 1.028193 0.650145
vt 0.013894 0.665970
vt 0.013894 0.685259
vt 1.028193 0.688331
vt 0.013894 0.700605
vt 0.847584 0.695688
vt 0.858875 0.725416
vt 0.847584 0.730924
vt 0.851579 0.805850
vt 0.847584 0.805850
vt 1.028193 0.626346
vt 1.028192 0.635253
vt 1.028192 0.676151
vt 0.013894 0.681315
vt 1.028192 0.666838
vt 0.808511 0.805850
vt 0.812505 0.824802
vt 0.777427 0.815799
vt 0.812505 0.805850
vt 0.812505 0.695688
vt 0.801214 0.725416
vt 0.777427 0.695688
vt 0.812505 0.730924
vt 1.028192 0.829177
vt 0.013894 0.826536
vt 0.013894 0.809219
vt 1.028192 0.808156
vt 1.028193 0.818667
vt 1.028192 0.846748
vt 0.013894 0.843853
vt 1.028192 0.867768
vt 1.028193 0.857258
vt 0.777427 0.837720
vt 0.812505 0.860038
vt 1.028192 0.596019
vt 1.028192 0.599402
vt 0.013894 0.609399
vt 1.028193 0.593191
vt 0.013894 0.603825
vt 1.028192 0.720093
vt 1.028192 0.697644
vt 1.028192 0.677151
vt 0.013894 0.683287
vt 1.028193 0.680545
vt 1.028192 0.679348
vt 1.028193 0.757625
vt 1.028193 0.780074
vt 0.219096 0.583820
vt 0.813860 0.860038
vt 0.219096 0.583820
vt -0.887866 0.866241
vt 0.219096 0.853283
vt 0.219096 0.615330
vt -0.887866 0.647541
vt 0.219096 0.654865
vt 0.219096 0.615330
vt 0.219096 0.654865
vt 0.219096 0.789083
vt -0.887866 0.913416
vt 0.219096 0.896083
vt 0.219096 0.563559
vt -0.887866 0.671128
vt -0.887867 0.623954
vt 0.219096 0.633466
vt 0.219096 0.676265
vt 0.219096 0.767683
vt 0.013894 0.614973
vt 0.882663 0.815799
vt 1.028193 0.895851
vt 1.028192 0.659052
vt 1.028193 0.697644
vt 0.882663 0.695688
vt 1.028192 0.876554
vt 1.028193 0.589808
vt 0.013894 0.737594
vt 1.028192 0.738859
vt 1.028193 0.678348
vt 0.375000 0.837483
vt 0.375000 0.838885
vt 0.375000 0.834638
vt 0.375000 0.910622
vt 0.375000 0.911115
vt 0.375000 0.915362
vt 0.219096 0.597194
vt 0.219096 0.633466
vt 0.219096 0.767683
vt 0.219096 0.556672
vt 1.028193 0.614288
vt 1.028193 0.642699
vt 1.028192 0.837962
vt 1.028193 0.596019
vt 1.028192 0.642699
vt 0.375000 0.912517
vt 0.375000 0.913918
vt 0.375000 0.917228
vt 0.037889 0.418163
vt 0.964315 0.339554
vt 0.964315 0.418163
vt 0.402159 0.415707
vt 0.557445 0.310676
vt 0.557444 0.415707
vt 0.050081 0.412140
vt 0.975415 0.333623
vt 0.975415 0.412141
vt 0.266950 0.433132
vt 0.433128 0.320743
vt 0.433128 0.433133
vt 0.875734 0.410254
vt 0.188615 0.326819
vt 0.188902 0.413152
vt 0.095518 0.270497
vt 0.896754 0.455270
vt 0.897082 0.275723
vt 0.037889 0.339554
vt 0.402159 0.310676
vt 0.050081 0.333622
vt 0.266950 0.320742
vt 0.875160 0.324274
vt 0.094836 0.449272
vt 0.219096 0.810483
vt 1.028192 0.799370
vt 1.028192 0.837962
vt 0.219096 0.563560
vt 1.028192 0.602230
vt 1.028192 0.659052
vt 1.028192 0.602230
vt 1.028192 0.678348
vt 1.028193 0.738859
vt 0.375000 0.832772
vt 0.375000 0.831793
vt 0.375000 0.833195
vt 0.375000 0.834173
vt 0.375000 0.833722
vt 0.375000 0.836082
vt 0.375000 0.840329
vt 0.375000 0.839350
vt 0.375000 0.838399
vt 0.375000 0.837934
vt 0.375000 0.833035
vt 0.375000 0.834314
vt 0.375000 0.834474
vt 0.375000 0.839049
vt 0.375000 0.837643
vt 0.375000 0.837807
vt 0.375000 0.915686
vt 0.375000 0.916965
vt 0.375000 0.918207
vt 0.375000 0.916805
vt 0.375000 0.915526
vt 0.375000 0.909671
vt 0.375000 0.910951
vt 0.375000 0.912193
vt 0.375000 0.912357
vt 0.375000 0.916278
vt 0.375000 0.915827
vt 0.375000 0.912066
vt 0.375000 0.911601
s 1
usemtl mat_rail_buffer_750mm
f 41/1/1 5/2/1 42/3/1
f 16/4/2 2/5/2 7/6/2
f 43/7/3 7/8/3 2/9/3
f 45/10/4 1/11/4 46/12/4
f 12/13/5 48/14/5 2/11/5
f 49/15/6 1/16/6 8/17/6
f 18/18/7 51/19/7 50/20/7
f 9/21/2 8/22/2 1/23/2
f 16/4/2 18/24/2 20/25/2
f 52/26/8 3/8/8 53/27/8
f 54/28/9 17/29/9 55/30/9
f 17/31/2 15/32/2 19/33/2
f 15/32/2 20/25/2 19/33/2
f 6/34/2 10/35/2 3/36/2
f 13/37/2 9/21/2 10/35/2
f 4/38/10 57/39/10 11/40/10
f 58/41/11 12/13/11 11/40/11
f 59/42/4 10/43/4 60/44/4
f 60/44/4 10/43/4 61/45/4
f 4/46/2 15/32/2 5/47/2
f 11/48/2 16/4/2 15/32/2
f 19/33/2 14/49/2 13/37/2
f 62/50/12 63/51/12 8/52/13
f 6/53/14 65/54/14 13/55/14
f 66/56/3 67/57/3 14/58/3
f 17/29/4 68/59/4 55/30/4
f 69/60/4 18/18/4 50/20/4
f 70/61/1 13/58/1 71/62/1
f 72/63/3 73/64/3 25/65/3
f 36/66/2 22/67/2 32/68/2
f 27/65/1 74/69/1 22/70/1
f 29/71/4 76/72/4 21/73/4
f 78/74/10 32/75/10 22/76/10
f 21/77/8 80/78/8 28/79/8
f 38/80/9 82/81/9 27/82/9
f 29/83/2 28/84/2 34/85/2
f 38/86/2 36/66/2 40/87/2
f 85/88/6 84/89/6 26/70/6
f 87/90/7 37/91/7 86/92/7
f 37/93/2 35/94/2 25/95/2
f 40/87/2 35/94/2 39/96/2
f 30/97/2 26/98/2 23/99/2
f 29/83/2 33/100/2 30/97/2
f 88/101/5 24/102/5 31/103/5
f 90/104/11 91/105/11 31/103/11
f 23/102/4 92/106/4 30/107/4
f 94/108/4 30/107/4 95/109/4
f 35/94/2 24/110/2 25/95/2
f 36/66/2 31/111/2 35/94/2
f 34/85/2 39/96/2 33/100/2
f 97/112/14 96/113/14 28/114/15
f 98/115/12 26/114/12 33/116/12
f 99/117/1 34/82/1 100/118/1
f 37/91/4 101/119/4 39/120/4
f 83/121/4 38/80/4 102/122/4
f 103/123/3 104/124/3 33/76/3
f 4/9/1 41/1/1 56/125/1
f 16/4/2 12/126/2 2/5/2
f 105/127/3 43/7/3 2/9/3
f 9/128/4 45/10/4 106/129/4
f 48/14/5 105/12/5 2/11/5
f 63/130/6 49/15/6 8/17/6
f 51/19/7 7/131/7 44/132/7
f 9/21/2 14/49/2 8/22/2
f 16/4/2 7/6/2 18/24/2
f 6/17/8 52/26/8 64/133/8
f 5/131/9 54/28/9 42/134/9
f 17/31/2 5/47/2 15/32/2
f 15/32/2 16/4/2 20/25/2
f 6/34/2 13/37/2 10/35/2
f 13/37/2 14/49/2 9/21/2
f 57/39/10 107/135/10 11/40/10
f 107/135/11 58/41/11 11/40/11
f 3/136/4 59/42/4 53/137/4
f 9/128/4 61/45/4 10/43/4
f 4/46/2 11/48/2 15/32/2
f 11/48/2 12/126/2 16/4/2
f 19/33/2 20/25/2 14/49/2
f 14/55/13 62/50/12 8/52/13
f 65/54/14 71/138/14 13/55/14
f 20/139/3 66/56/3 14/58/3
f 68/59/4 19/140/4 109/141/4
f 20/139/4 69/60/4 108/142/4
f 19/38/1 70/61/1 109/143/1
f 24/144/3 72/63/3 25/65/3
f 36/66/2 27/145/2 22/67/2
f 110/88/1 22/70/1 74/69/1
f 81/146/4 21/73/4 76/72/4
f 110/124/10 78/74/10 22/76/10
f 97/147/8 28/79/8 80/78/8
f 75/148/9 27/82/9 82/81/9
f 29/83/2 21/149/2 28/84/2
f 38/86/2 27/145/2 36/66/2
f 84/89/6 23/77/6 26/70/6
f 25/79/7 86/92/7 37/91/7
f 37/93/2 39/96/2 35/94/2
f 40/87/2 36/66/2 35/94/2
f 30/97/2 33/100/2 26/98/2
f 29/83/2 34/85/2 33/100/2
f 91/105/5 88/101/5 31/103/5
f 32/75/11 90/104/11 31/103/11
f 95/109/4 30/107/4 92/106/4
f 29/71/4 94/108/4 77/150/4
f 35/94/2 31/111/2 24/110/2
f 36/66/2 32/68/2 31/111/2
f 34/85/2 40/87/2 39/96/2
f 96/113/14 34/144/15 28/114/15
f 104/151/12 98/115/12 33/116/12
f 40/152/1 99/117/1 111/153/1
f 112/154/4 39/120/4 101/119/4
f 40/120/4 102/122/4 38/80/4
f 39/152/3 103/123/3 33/76/3
s 0
f 112/155/16 88/156/16 111/157/16
f 52/158/16 59/159/16 67/160/16
s 1
f 153/1/1 117/2/1 154/3/1
f 128/4/17 114/5/17 119/6/17
f 156/161/3 114/9/3 155/7/3
f 157/10/18 113/11/18 158/12/18
f 124/13/19 160/14/19 114/11/19
f 158/162/20 120/17/20 161/15/21
f 162/20/22 119/131/22 163/19/22
f 121/21/17 120/22/17 113/23/17
f 128/4/17 130/24/17 132/25/17
f 164/26/23 115/8/23 165/27/23
f 166/28/24 129/29/24 167/30/24
f 129/31/17 127/32/17 131/33/17
f 127/32/17 132/25/17 131/33/17
f 118/34/17 122/35/17 115/36/17
f 125/37/17 121/21/17 122/35/17
f 123/40/25 168/163/25 169/39/25
f 170/41/26 124/13/26 123/40/26
f 171/42/18 122/43/18 172/44/18
f 172/44/18 122/43/18 173/45/18
f 116/46/17 127/32/17 117/47/17
f 123/48/17 128/4/17 127/32/17
f 131/33/17 126/49/17 125/37/17
f 174/50/27 175/51/28 120/52/29
f 125/55/30 176/164/31 177/54/30
f 178/56/3 179/57/3 126/58/3
f 129/29/18 180/59/18 167/30/18
f 181/60/18 130/18/18 162/20/18
f 182/61/1 125/58/1 183/62/1
f 184/63/3 185/64/3 137/65/3
f 148/66/17 134/67/17 144/68/17
f 187/165/1 134/70/1 139/65/1
f 141/71/18 188/72/18 133/73/18
f 190/74/25 144/75/25 134/76/25
f 193/166/32 140/79/32 133/77/32
f 195/121/24 139/82/24 150/80/24
f 141/83/17 140/84/17 146/85/17
f 150/86/17 148/66/17 152/87/17
f 197/88/21 196/89/21 138/70/21
f 199/90/22 149/91/22 198/92/22
f 149/93/17 147/94/17 137/95/17
f 152/87/17 147/94/17 151/96/17
f 142/97/17 138/98/17 135/99/17
f 141/83/17 145/100/17 142/97/17
f 201/167/33 143/103/19 200/101/19
f 202/104/26 203/105/26 143/103/26
f 135/102/18 204/106/18 142/107/18
f 206/108/18 142/107/18 207/109/18
f 147/94/17 136/110/17 137/95/17
f 148/66/17 143/111/17 147/94/17
f 146/85/17 151/96/17 145/100/17
f 209/112/30 208/113/31 140/114/34
f 197/168/27 145/116/28 210/115/28
f 211/117/1 146/82/1 212/118/1
f 149/91/18 213/119/18 151/120/18
f 195/121/18 150/80/18 214/122/18
f 215/123/3 216/124/3 145/76/3
f 116/9/1 153/1/1 168/125/1
f 128/4/17 124/126/17 114/5/17
f 217/127/3 155/7/3 114/9/3
f 121/128/18 157/10/18 218/129/18
f 160/14/19 217/12/19 114/11/19
f 175/130/21 161/15/21 120/17/20
f 163/19/22 119/131/22 156/132/22
f 121/21/17 126/49/17 120/22/17
f 128/4/17 119/6/17 130/24/17
f 118/17/23 164/26/23 176/133/23
f 117/131/24 166/28/24 154/134/24
f 129/31/17 117/47/17 127/32/17
f 127/32/17 128/4/17 132/25/17
f 118/34/17 125/37/17 122/35/17
f 125/37/17 126/49/17 121/21/17
f 169/39/25 219/135/25 123/40/25
f 219/135/26 170/41/26 123/40/26
f 115/136/18 171/42/18 165/137/18
f 121/128/18 173/45/18 122/43/18
f 116/46/17 123/48/17 127/32/17
f 123/48/17 124/126/17 128/4/17
f 131/33/17 132/25/17 126/49/17
f 126/55/29 174/50/27 120/52/29
f 177/54/30 183/138/30 125/55/30
f 132/139/3 178/56/3 126/58/3
f 180/59/18 131/140/18 221/141/18
f 132/139/18 181/60/18 220/142/18
f 131/38/1 182/61/1 221/143/1
f 136/144/3 184/63/3 137/65/3
f 148/66/17 139/145/17 134/67/17
f 222/88/1 134/70/1 186/69/1
f 193/146/18 133/73/18 188/72/18
f 222/124/25 190/74/25 134/76/25
f 209/147/23 140/79/32 192/78/23
f 187/148/24 139/82/24 194/81/24
f 141/83/17 133/149/17 140/84/17
f 150/86/17 139/145/17 148/66/17
f 205/169/21 138/70/21 196/89/21
f 137/79/22 198/92/22 149/91/22
f 149/93/17 151/96/17 147/94/17
f 152/87/17 148/66/17 147/94/17
f 142/97/17 145/100/17 138/98/17
f 141/83/17 146/85/17 145/100/17
f 203/105/19 200/101/19 143/103/19
f 144/75/26 202/104/26 143/103/26
f 207/109/18 142/107/18 204/106/18
f 141/71/18 206/108/18 189/150/18
f 147/94/17 143/111/17 136/110/17
f 148/66/17 144/68/17 143/111/17
f 146/85/17 152/87/17 151/96/17
f 208/113/31 146/144/34 140/114/34
f 216/151/28 210/115/28 145/116/28
f 152/152/1 211/117/1 223/153/1
f 224/154/18 151/120/18 213/119/18
f 152/120/18 214/122/18 150/80/18
f 151/152/3 215/123/3 145/76/3
s 0
f 224/155/35 200/156/35 223/157/35
f 183/170/35 173/171/35 161/172/35
s 1
f 227/173/2 226/174/2 225/175/2
f 231/176/1 228/177/1 227/178/1
f 229/179/16 232/180/16 231/181/16
f 225/182/3 230/183/3 229/184/3
f 225/185/4 231/186/4 227/187/4
f 230/188/11 228/189/11 232/190/11
f 227/173/2 228/191/2 226/174/2
f 231/176/1 232/192/1 228/177/1
f 229/179/16 230/193/16 232/180/16
f 225/182/3 226/194/3 230/183/3
f 225/185/4 229/195/4 231/186/4
f 230/188/11 226/196/11 228/189/11
f 43/7/3 44/161/3 7/8/3
f 12/13/5 47/197/5 48/14/5
f 49/15/6 46/162/6 1/16/6
f 18/18/7 7/131/7 51/19/7
f 4/38/10 56/163/10 57/39/10
f 58/41/11 47/197/11 12/13/11
f 6/53/14 64/164/14 65/54/14
f 17/29/4 19/140/4 68/59/4
f 27/65/1 75/165/1 74/69/1
f 29/71/4 77/150/4 76/72/4
f 78/74/10 79/198/10 32/75/10
f 21/77/8 81/166/8 80/78/8
f 38/80/9 83/121/9 82/81/9
f 88/101/5 89/167/5 24/102/5
f 23/102/4 93/199/4 92/106/4
f 98/115/12 85/168/12 26/114/12
f 37/91/4 87/90/4 101/119/4
f 4/9/1 5/2/1 41/1/1
f 9/128/4 1/11/4 45/10/4
f 6/17/8 3/8/8 52/26/8
f 5/131/9 17/29/9 54/28/9
f 3/136/4 10/43/4 59/42/4
f 9/128/4 106/129/4 61/45/4
f 14/55/13 67/200/13 62/50/12
f 20/139/3 108/142/3 66/56/3
f 20/139/4 18/18/4 69/60/4
f 19/38/1 13/58/1 70/61/1
f 24/144/3 89/201/3 72/63/3
f 84/89/6 93/169/6 23/77/6
f 25/79/7 73/202/7 86/92/7
f 32/75/11 79/198/11 90/104/11
f 29/71/4 30/107/4 94/108/4
f 96/113/14 100/203/15 34/144/15
f 40/152/1 34/82/1 99/117/1
f 40/120/4 111/204/4 102/122/4
f 39/152/3 112/205/3 103/123/3
s 0
f 80/206/16 81/207/16 76/208/16
f 80/206/16 76/208/16 77/157/16
f 96/209/16 97/210/16 80/206/16
f 100/157/36 96/209/36 80/206/36
f 80/206/16 77/157/16 94/211/16
f 80/206/16 94/211/16 95/155/16
f 100/157/16 80/206/16 95/155/16
f 92/156/16 93/212/16 84/213/16
f 100/157/16 95/155/16 92/156/16
f 99/157/16 100/157/16 92/156/16
f 92/156/16 84/213/16 85/214/16
f 92/156/16 85/214/16 98/215/16
f 82/216/16 83/217/16 102/218/16
f 74/207/16 75/207/16 82/216/16
f 78/208/16 110/207/16 74/207/16
f 90/211/16 79/157/16 78/208/16
f 88/156/16 91/155/16 90/211/16
f 72/212/16 89/212/16 88/156/16
f 86/219/16 73/212/16 72/212/16
f 101/220/16 87/221/16 86/219/16
f 112/155/16 101/220/16 86/219/16
f 86/219/16 72/212/16 88/156/16
f 88/156/16 90/211/16 78/208/16
f 78/208/16 74/207/16 82/216/16
f 82/216/37 102/218/37 111/157/37
f 92/156/16 98/215/16 104/155/16
f 99/157/16 92/156/16 104/155/16
f 78/208/16 82/216/16 111/157/16
f 111/157/16 99/157/16 104/155/16
f 111/157/16 104/155/16 103/155/16
f 88/156/16 78/208/16 111/157/16
f 112/155/16 86/219/16 88/156/16
f 111/157/16 103/155/16 112/155/16
f 50/222/38 51/223/38 44/224/38
f 43/224/16 105/224/16 48/225/16
f 50/222/16 44/224/16 43/224/16
f 69/226/16 50/222/16 43/224/16
f 43/224/16 48/225/16 47/160/16
f 58/171/16 107/170/16 57/159/16
f 43/224/16 47/160/16 58/171/16
f 108/160/16 69/226/16 43/224/16
f 108/160/16 43/224/16 58/171/16
f 58/171/16 57/159/16 56/227/16
f 41/227/16 42/227/16 54/228/16
f 58/171/16 56/227/16 41/227/16
f 66/160/16 108/160/16 58/171/16
f 67/160/16 66/160/16 58/171/16
f 58/171/16 41/227/16 54/228/16
f 54/228/36 55/229/36 68/230/36
f 54/228/16 68/230/16 109/170/16
f 49/172/16 63/231/16 62/232/16
f 45/225/16 46/224/16 49/172/16
f 106/160/16 45/225/16 49/172/16
f 49/172/16 62/232/16 67/160/16
f 58/171/16 54/228/16 109/170/16
f 58/171/16 109/170/16 70/170/16
f 106/160/16 49/172/16 67/160/16
f 67/160/16 58/171/16 70/170/16
f 67/160/16 70/170/16 71/170/16
f 61/171/16 106/160/16 67/160/16
f 60/170/16 61/171/16 67/160/16
f 67/160/16 71/170/16 65/233/16
f 65/233/16 64/234/16 52/158/16
f 52/158/16 53/227/16 59/159/16
f 59/159/16 60/170/16 67/160/16
f 67/160/16 65/233/16 52/158/16
s 1
f 156/161/3 119/8/3 114/9/3
f 124/13/19 159/197/19 160/14/19
f 158/162/20 113/16/20 120/17/20
f 162/20/22 130/18/22 119/131/22
f 123/40/25 116/38/25 168/163/25
f 170/41/26 159/197/26 124/13/26
f 125/55/30 118/53/30 176/164/31
f 129/29/18 131/140/18 180/59/18
f 187/165/1 186/69/1 134/70/1
f 141/71/18 189/150/18 188/72/18
f 190/74/25 191/198/25 144/75/25
f 193/166/32 192/78/23 140/79/32
f 195/121/24 194/81/24 139/82/24
f 201/167/33 136/102/19 143/103/19
f 135/102/18 205/199/18 204/106/18
f 197/168/27 138/114/28 145/116/28
f 149/91/18 199/90/18 213/119/18
f 116/9/1 117/2/1 153/1/1
f 121/128/18 113/11/18 157/10/18
f 118/17/23 115/8/23 164/26/23
f 117/131/24 129/29/24 166/28/24
f 115/136/18 122/43/18 171/42/18
f 121/128/18 218/129/18 173/45/18
f 126/55/29 179/200/27 174/50/27
f 132/139/3 220/142/3 178/56/3
f 132/139/18 130/18/18 181/60/18
f 131/38/1 125/58/1 182/61/1
f 136/144/3 201/201/3 184/63/3
f 205/169/21 135/77/21 138/70/21
f 137/79/22 185/202/22 198/92/22
f 144/75/26 191/198/26 202/104/26
f 141/71/18 142/107/18 206/108/18
f 208/113/31 212/203/31 146/144/34
f 152/152/1 146/82/1 211/117/1
f 152/120/18 223/204/18 214/122/18
f 151/152/3 224/205/3 215/123/3
s 0
f 192/206/35 193/207/35 188/208/35
f 192/206/35 188/208/35 189/157/35
f 208/209/35 209/210/35 192/206/35
f 212/157/35 208/209/35 192/206/35
f 192/206/35 189/157/35 206/211/35
f 192/206/35 206/211/35 207/155/35
f 212/157/35 192/206/35 207/155/35
f 204/156/35 205/212/35 196/213/35
f 212/157/35 207/155/35 204/156/35
f 211/157/35 212/157/35 204/156/35
f 204/156/35 196/213/35 197/214/35
f 197/214/39 210/215/39 216/155/39
f 204/156/35 197/214/35 216/155/35
f 194/216/35 195/217/35 214/218/35
f 186/207/35 187/207/35 194/216/35
f 190/208/35 222/207/35 186/207/35
f 202/211/35 191/157/35 190/208/35
f 200/156/35 203/155/35 202/211/35
f 184/212/35 201/212/35 200/156/35
f 198/219/35 185/212/35 184/212/35
f 213/220/35 199/221/35 198/219/35
f 224/155/35 213/220/35 198/219/35
f 198/219/35 184/212/35 200/156/35
f 200/156/35 202/211/35 190/208/35
f 190/208/35 186/207/35 194/216/35
f 194/216/35 214/218/35 223/157/35
f 211/157/35 204/156/35 216/155/35
f 211/157/35 216/155/35 215/155/35
f 190/208/35 194/216/35 223/157/35
f 223/157/35 211/157/35 215/155/35
f 224/155/35 198/219/35 200/156/35
f 223/157/35 215/155/35 224/155/35
f 200/156/35 190/208/35 223/157/35
f 163/223/35 156/224/35 155/224/35
f 155/224/35 217/224/35 160/225/35
f 160/225/35 159/160/35 170/171/35
f 170/171/35 219/170/35 169/159/35
f 169/159/35 168/227/35 153/227/35
f 153/227/35 154/227/35 166/228/35
f 166/228/35 167/229/35 180/230/35
f 221/170/11 182/170/11 183/170/11
f 166/228/35 180/230/35 221/170/35
f 169/159/35 153/227/35 166/228/35
f 160/225/35 170/171/35 169/159/35
f 163/223/35 155/224/35 160/225/35
f 181/226/35 162/222/35 163/223/35
f 220/160/35 181/226/35 163/223/35
f 163/223/35 160/225/35 169/159/35
f 169/159/35 166/228/35 221/170/35
f 183/170/39 177/233/39 176/234/39
f 163/223/35 169/159/35 221/170/35
f 183/170/35 176/234/35 164/158/35
f 220/160/35 163/223/35 221/170/35
f 178/160/35 220/160/35 221/170/35
f 183/170/35 164/158/35 165/227/35
f 178/160/35 221/170/35 183/170/35
f 179/160/35 178/160/35 183/170/35
f 183/170/35 165/227/35 171/159/35
f 183/170/35 171/159/35 172/170/35
f 174/232/35 179/160/35 183/170/35
f 161/172/35 175/231/35 174/232/35
f 157/225/35 158/224/35 161/172/35
f 173/171/4 218/160/4 157/225/4
f 183/170/35 172/170/35 173/171/35
f 161/172/35 174/232/35 183/170/35
f 173/171/35 157/225/35 161/172/35
