# Blender 4.4.1
# www.blender.org
mtllib restaurant.mtl
o restaurant
v -5.532100 -0.000000 -6.085300
v 5.532100 -0.000000 -6.085300
v 5.532100 -1.106400 -6.085300
v -5.532100 -1.106400 -6.085300
v 5.532100 -1.106400 6.085300
v 5.532100 0.000000 6.085300
v 2.557200 0.000000 6.085300
v 1.480700 0.000000 6.085300
v -5.532100 0.000000 6.085300
v -5.532100 -1.106400 6.085300
v -5.532100 6.046299 -6.085300
v -5.532100 6.046300 6.085299
v -5.532100 8.896600 6.085299
v -5.532100 8.896600 -0.000001
v -5.532100 8.896600 -6.085300
v 5.532100 8.896600 6.085299
v 3.725300 11.034400 6.085299
v 1.358400 11.034400 6.085299
v 1.358400 8.896600 6.085299
v -3.725300 11.034400 -6.085301
v -1.697500 11.034400 -6.085301
v -1.697500 8.896600 -6.085300
v 0.000000 15.442300 -6.306601
v -5.723600 8.675100 -6.306601
v -5.813000 8.809900 -6.306601
v 0.000000 15.663600 -6.306601
v -5.723600 8.675100 6.306600
v 0.000000 15.442300 6.306599
v 0.000000 15.663600 6.306599
v -5.813000 8.809900 6.306600
v 5.725400 8.674000 6.306600
v 5.809500 8.812100 6.306600
v 5.725400 8.674000 -6.306601
v 5.809500 8.812100 -6.306601
v -1.329000 13.869800 -6.085301
v 0.000000 15.442300 -6.085301
v -5.813000 8.809900 -0.000001
v -5.723600 8.675100 -0.000001
v 0.000000 15.663600 -0.000001
v 5.809500 8.812100 -0.000001
v 5.725400 8.674000 -0.000001
v 1.329000 13.869800 -6.085301
v 3.725300 11.034400 -6.085301
v 5.532100 8.896600 -6.085300
v 1.329000 13.869800 6.085299
v 0.000000 15.442300 6.085299
v -1.329000 13.869800 6.085299
v -3.725300 11.034400 6.085299
v 1.570200 13.170900 3.853199
v 1.570200 14.747000 3.853199
v 1.570200 14.747000 2.968099
v 1.570200 13.170900 2.968099
v 2.012800 13.170900 3.853199
v 2.012800 13.170900 2.968099
v 2.012800 14.747000 2.968099
v 2.012800 14.747000 3.853199
v 1.664800 13.828700 3.062699
v 1.664800 13.828700 3.758699
v 1.918200 13.828700 3.758699
v 1.918200 13.828700 3.062699
v 1.521000 14.827600 3.902499
v 1.521000 14.827600 2.918899
v 2.062000 14.827600 3.902499
v 2.062000 14.827600 2.918899
v 1.521000 14.935100 3.902499
v 1.521000 14.935100 2.918899
v 2.062000 14.935100 3.902499
v 2.062000 14.935100 2.918899
v 1.664800 14.935100 3.758699
v 1.664800 14.935100 3.062699
v 1.918200 14.935100 3.758699
v 1.918200 14.935100 3.062699
v 4.136100 10.711200 -3.848301
v 4.136100 11.851100 -3.848301
v 4.136100 11.851100 -2.987101
v 4.136100 10.711200 -2.987101
v 1.923200 11.183800 -3.848301
v 1.923200 12.323600 -3.848301
v 1.923200 12.323600 -2.987101
v 1.923200 11.183800 -2.987101
v 4.136100 12.185900 -3.414001
v 4.191400 11.805700 -2.931801
v 1.923200 12.278300 -2.931801
v 4.191400 12.241200 -3.414001
v 4.191400 11.861000 -2.931801
v 4.191400 12.185900 -3.414001
v 1.923200 12.278300 -3.903701
v 4.191400 11.805700 -3.903701
v 4.191400 11.861000 -3.903701
v 1.923200 12.333600 -3.903701
v 1.923200 12.713800 -3.414001
v 1.923200 12.333600 -2.931801
v 5.532100 6.046299 -6.085300
v 5.532100 6.046300 6.085299
v 1.358400 8.896600 -6.085300
v -1.697500 8.896600 6.085299
v -1.697500 11.034400 6.085299
v 1.358400 11.034400 -6.085301
v 2.557200 2.118300 6.085300
v -2.957500 11.972400 -3.410501
v -2.957500 13.548600 -3.410501
v -2.957500 13.548600 -4.295701
v -2.957500 11.972400 -4.295701
v -2.514900 11.972400 -3.410501
v -2.514900 11.972400 -4.295701
v -2.514900 13.548600 -4.295701
v -2.514900 13.548600 -3.410501
v -2.862900 12.630300 -4.201101
v -2.862900 12.630300 -3.505101
v -2.609500 12.630300 -3.505101
v -2.609500 12.630300 -4.201101
v -3.006800 13.629200 -3.361301
v -3.006800 13.629200 -4.344901
v -2.465700 13.629200 -3.361301
v -2.465700 13.629200 -4.344901
v -3.006800 13.736700 -3.361301
v -3.006800 13.736700 -4.344901
v -2.465700 13.736700 -3.361301
v -2.465700 13.736700 -4.344901
v -2.862900 13.736700 -3.505101
v -2.862900 13.736700 -4.201101
v -2.609500 13.736700 -3.505101
v -2.609500 13.736700 -4.201101
v 3.009700 11.975800 -0.348201
v 3.009700 13.115700 -0.348201
v 3.009700 13.115700 0.513099
v 3.009700 11.975800 0.513099
v 0.796800 12.448400 -0.348201
v 0.796800 13.588200 -0.348201
v 0.796800 13.588200 0.513099
v 0.796800 12.448400 0.513099
v 3.009700 13.450500 0.086199
v 3.065000 13.070300 0.568399
v 0.796800 13.542900 0.568399
v 3.065000 13.505800 0.086199
v 3.065000 13.125600 0.568399
v 3.065000 13.450500 0.086199
v 0.796800 13.542900 -0.403501
v 3.065000 13.070300 -0.403501
v 3.065000 13.125600 -0.403501
v 0.796800 13.598200 -0.403501
v 0.796800 13.978400 0.086199
v 0.796800 13.598200 0.568399
v -2.699600 12.338000 0.576399
v -2.699600 13.477900 0.576399
v -2.699600 13.477900 -0.284901
v -2.699600 12.338000 -0.284901
v -0.486700 12.810600 0.576399
v -0.486700 13.950400 0.576399
v -0.486700 13.950400 -0.284901
v -0.486700 12.810600 -0.284901
v -2.699600 13.812700 0.141999
v -2.754900 13.432500 -0.340201
v -0.486700 13.905100 -0.340201
v -2.754900 13.868000 0.141999
v -2.754900 13.487800 -0.340201
v -2.754900 13.812700 0.141999
v -0.486700 13.905100 0.631699
v -2.754900 13.432500 0.631699
v -2.754900 13.487800 0.631699
v -0.486700 13.960400 0.631699
v -0.486700 14.340600 0.141999
v -0.486700 13.960400 -0.340201
v -4.113400 10.711200 3.786899
v -4.113400 11.851100 3.786899
v -4.113400 11.851100 2.925699
v -4.113400 10.711200 2.925699
v -1.900500 11.183800 3.786899
v -1.900500 12.323600 3.786899
v -1.900500 12.323600 2.925699
v -1.900500 11.183800 2.925699
v -4.113400 12.185900 3.352599
v -4.168700 11.805700 2.870399
v -1.900500 12.278300 2.870399
v -4.168700 12.241200 3.352599
v -4.168700 11.861000 2.870399
v -4.168700 12.185900 3.352599
v -1.900500 12.278300 3.842199
v -4.168700 11.805700 3.842199
v -4.168700 11.861000 3.842199
v -1.900500 12.333600 3.842199
v -1.900500 12.713800 3.352599
v -1.900500 12.333600 2.870399
v -1.697500 11.034400 5.285299
v -1.697500 8.896600 5.285299
v 1.358400 8.896600 5.285299
v 1.358400 11.034400 5.285299
v 1.358400 11.034400 -5.285301
v 1.358400 8.896600 -5.285300
v -1.697500 8.896600 -5.285300
v -1.697500 11.034400 -5.285301
v 1.358400 9.787600 6.085299
v -1.697500 9.787600 -6.085301
v 1.358400 9.787600 -6.085301
v -1.697500 9.787600 6.085299
v 1.480700 0.000000 4.085300
v 2.557200 0.000000 4.085300
v 2.557200 2.118300 4.085300
v 1.480700 2.118300 4.085300
v 1.480700 2.118300 6.085300
v 1.766200 2.118300 5.047400
v 1.766200 0.000000 5.047400
v 1.519200 0.000000 6.095900
v 1.804800 0.000000 5.058000
v 1.804800 2.118300 5.058000
v 1.519200 2.118300 6.095900
vn -0.0000 -0.0000 -1.0000
vn -0.0000 -0.0000 1.0000
vn 1.0000 -0.0000 -0.0000
vn -1.0000 -0.0000 -0.0000
vn -0.2654 -0.0000 0.9641
vn -0.2655 -0.0000 0.9641
vn -0.0000 1.0000 -0.0000
vn 0.7637 -0.6454 -0.0151
vn 0.7636 -0.6456 -0.0061
vn 0.7636 -0.6455 -0.0120
vn 0.7637 -0.6455 -0.0002
vn 0.7638 -0.6455 -0.0000
vn -0.8334 -0.5527 -0.0000
vn -0.7626 0.6468 -0.0000
vn 0.7627 0.6467 -0.0000
vn 0.8541 -0.5201 -0.0000
vn -0.7638 -0.6455 0.0001
vn -0.7636 -0.6456 -0.0093
vn -0.7637 -0.6456 -0.0025
vn -0.7636 -0.6454 -0.0172
vn -0.7636 -0.6454 -0.0178
vn -0.7636 -0.6454 0.0177
vn -0.7636 -0.6455 0.0175
vn -0.7635 -0.6458 0.0040
vn -0.7637 -0.6455 0.0003
vn -0.7638 -0.6455 -0.0000
vn 0.7638 -0.6455 -0.0001
vn 0.7636 -0.6456 0.0079
vn 0.7636 -0.6456 0.0021
vn 0.7637 -0.6455 0.0143
vn 0.7637 -0.6454 0.0148
vn 0.7565 -0.6540 -0.0000
vn -0.7551 -0.6557 -0.0000
vn -0.8533 -0.5214 -0.0000
vn -0.0000 -0.5215 0.8532
vn 0.8533 -0.5214 -0.0000
vn -0.0000 -0.5215 -0.8532
vn -0.1748 -0.8386 -0.5159
vn -0.1632 -0.7646 -0.6234
vn -0.1630 -0.7632 -0.6252
vn -0.1748 -0.8388 0.5156
vn -0.1632 -0.7649 0.6231
vn -0.1749 -0.8397 0.5141
vn -0.0327 -0.7895 0.6128
vn -0.0022 -0.7918 0.6107
vn -0.0000 -0.7920 0.6105
vn 0.1624 0.7794 -0.6051
vn 0.1615 0.7750 0.6110
vn -0.0240 -0.7851 -0.6190
vn -0.0012 -0.7867 -0.6173
vn -0.0250 -0.7850 -0.6190
vn -0.0000 -0.5214 0.8533
vn -0.0000 -0.5214 -0.8533
vn -0.1748 -0.8386 0.5159
vn -0.1632 -0.7646 0.6234
vn -0.1749 -0.8395 0.5144
vn -0.0333 -0.7895 0.6129
vn -0.0018 -0.7919 0.6107
vn 0.0005 -0.7920 0.6105
vn 0.1748 -0.8387 0.5158
vn 0.1632 -0.7646 0.6234
vn 0.1630 -0.7632 0.6252
vn 0.1748 -0.8387 -0.5158
vn 0.1632 -0.7646 -0.6234
vn 0.1749 -0.8396 -0.5143
vn 0.0334 -0.7895 -0.6129
vn 0.0019 -0.7919 -0.6107
vn -0.0003 -0.7920 -0.6105
vn -0.1624 0.7794 0.6051
vn -0.1615 0.7750 -0.6110
vn 0.0239 -0.7850 0.6190
vn 0.0010 -0.7867 0.6173
vn 0.0249 -0.7850 0.6190
vn 0.1748 -0.8386 0.5159
vn 0.1632 -0.7646 0.6235
vn 0.1748 -0.8386 -0.5159
vn 0.1632 -0.7646 -0.6235
vn 0.0332 -0.7895 -0.6129
vn 0.0018 -0.7919 -0.6107
vn -0.0005 -0.7920 -0.6105
vn -0.1624 0.7793 0.6052
vn 0.0240 -0.7851 0.6190
vn 0.0012 -0.7867 0.6173
vn 0.0250 -0.7850 0.6190
vn 0.2651 -0.0000 -0.9642
vn -0.0000 -1.0000 -0.0000
vn 0.9642 -0.0000 0.2653
vn -0.9642 -0.0000 -0.2652
vn 0.7637 -0.6454 -0.0148
vn -0.7635 -0.6458 0.0041
vn -0.1749 -0.8396 -0.5143
vn -0.1630 -0.7635 0.6249
vn -0.0341 -0.7894 0.6129
vn 0.0005 -0.7868 -0.6172
vn -0.1749 -0.8395 -0.5144
vn -0.1630 -0.7632 0.6252
vn -0.0347 -0.7894 0.6130
vn 0.1749 -0.8396 0.5143
vn 0.1630 -0.7632 -0.6252
vn 0.0349 -0.7894 -0.6129
vn -0.0006 -0.7868 0.6172
vn 0.0346 -0.7894 -0.6130
vn -0.0005 -0.7868 0.6172
vt 0.999400 0.364800
vt 0.952400 0.034900
vt 0.999400 0.034900
vt 0.952400 0.364800
vt 0.999400 0.276100
vt 0.999400 0.244000
vt 0.999400 0.001900
vt 0.298300 0.170000
vt 0.150200 0.262200
vt 0.002000 0.170000
vt 0.002000 0.262200
vt 0.248700 0.332000
vt 0.185800 0.262300
vt 0.296600 0.262300
vt 0.925600 0.632400
vt 0.924700 0.585700
vt 0.925600 0.585700
vt 0.050900 0.332000
vt 0.104700 0.262300
vt 0.002900 0.262300
vt 0.740600 0.897800
vt 0.618700 0.893300
vt 0.740600 0.893300
vt 0.583300 0.338800
vt 0.316900 0.333500
vt 0.588500 0.334500
vt 0.578500 0.335300
vt 0.312100 0.339300
vt 0.310700 0.334600
vt 0.323400 0.336500
vt 0.589700 0.341700
vt 0.318300 0.340800
vt 0.319900 0.336800
vt 0.586200 0.332800
vt 0.587700 0.337400
vt 0.498100 0.334600
vt 0.569400 0.341300
vt 0.412400 0.334600
vt 0.364900 0.341300
vt 0.364900 0.334600
vt 0.587400 0.392000
vt 0.320400 0.397700
vt 0.320400 0.392000
vt 0.475900 0.768900
vt 0.347500 0.995300
vt 0.347500 0.768900
vt 0.347500 0.995200
vt 0.587400 0.397700
vt 0.320400 0.403600
vt 0.482400 0.334600
vt 0.530000 0.341300
vt 0.396800 0.334600
vt 0.325400 0.341300
vt 0.332200 0.334600
vt 0.393500 0.339800
vt 0.322100 0.333100
vt 0.479100 0.339800
vt 0.526700 0.333100
vt 0.526700 0.339800
vt 0.366200 0.341500
vt 0.318700 0.334800
vt 0.451900 0.341500
vt 0.523200 0.334800
vt 0.516500 0.341500
vt 0.581500 0.404400
vt 0.323800 0.392000
vt 0.590800 0.392000
vt 0.931200 0.189700
vt 0.772800 0.195500
vt 0.614500 0.189700
vt 0.608700 0.195500
vt 0.683600 0.982900
vt 0.607600 0.847500
vt 0.683600 0.847500
vt 0.667300 0.847500
vt 0.743300 0.982900
vt 0.743300 0.847500
vt 0.645600 0.847500
vt 0.436700 0.976700
vt 0.392500 0.855200
vt 0.436700 0.855200
vt 0.711200 0.847500
vt 0.673200 0.982900
vt 0.711200 0.982900
vt 0.603300 0.989800
vt 0.607600 0.982900
vt 0.715400 0.989800
vt 0.663100 0.989800
vt 0.747500 0.989800
vt 0.645600 0.982900
vt 0.687800 0.989800
vt 0.641300 0.989800
vt 0.603300 0.999000
vt 0.669000 0.989800
vt 0.715400 0.999000
vt 0.747500 0.999000
vt 0.641300 0.999000
vt 0.462100 0.985500
vt 0.437000 0.838800
vt 0.462100 0.813700
vt 0.367600 0.985500
vt 0.437000 0.960400
vt 0.367600 0.813700
vt 0.392700 0.960400
vt 0.392700 0.838800
vt 0.474500 0.800100
vt 0.352900 0.993400
vt 0.352900 0.800100
vt 0.383200 0.988200
vt 0.427400 0.795000
vt 0.427400 0.988200
vt 0.348600 0.987500
vt 0.470200 0.794300
vt 0.470200 0.987500
vt 0.415300 0.793700
vt 0.371000 0.986900
vt 0.371000 0.793700
vt 0.595600 0.970200
vt 0.525500 0.881400
vt 0.595600 0.881400
vt 0.458900 0.959600
vt 0.358800 0.785800
vt 0.455100 0.763300
vt 0.456100 0.785800
vt 0.362500 0.963200
vt 0.359000 0.766900
vt 0.560200 0.996300
vt 0.525500 0.970200
vt 0.542100 0.339200
vt 0.310000 0.345000
vt 0.310000 0.339200
vt 0.387400 0.338700
vt 0.448200 0.333700
vt 0.451800 0.338200
vt 0.544800 0.338700
vt 0.312600 0.332900
vt 0.550600 0.332900
vt 0.405100 0.338800
vt 0.466600 0.342400
vt 0.401600 0.343500
vt 0.414400 0.345800
vt 0.459900 0.340000
vt 0.459900 0.345800
vt 0.311300 0.345400
vt 0.552900 0.333800
vt 0.554300 0.339500
vt 0.347400 0.782300
vt 0.402400 0.763000
vt 0.402400 0.782300
vt 0.347400 0.801300
vt 0.402400 0.801300
vt 0.553000 0.330600
vt 0.311100 0.328100
vt 0.554100 0.325000
vt 0.504700 0.345800
vt 0.510500 0.340000
vt 0.754900 0.510700
vt 0.999100 0.367600
vt 0.999100 0.510700
vt 0.754100 0.509700
vt 0.998100 0.368900
vt 0.998100 0.509700
vt 0.952400 0.001900
vt 0.754100 0.368900
vt 0.296600 0.169300
vt 0.194800 0.262300
vt 0.113700 0.262300
vt 0.003000 0.169300
vt 0.298300 0.262200
vt 0.104700 0.425800
vt 0.091700 0.332300
vt 0.198500 0.425800
vt 0.199500 0.332300
vt 0.283000 0.332300
vt 0.103700 0.332300
vt 0.211500 0.332300
vt 0.129000 0.356500
vt 0.068000 0.428700
vt 0.006900 0.356500
vt 0.587000 0.397700
vt 0.320000 0.392000
vt 0.587000 0.392000
vt 0.475900 0.995300
vt 0.475900 0.995200
vt 0.587000 0.403600
vt 0.320000 0.397700
vt 0.333600 0.404400
vt 0.591200 0.392000
vt 0.591200 0.404400
vt 0.934400 0.632600
vt 1.000400 0.582700
vt 1.000400 0.725300
vt 0.667300 0.982900
vt 0.104700 0.332000
vt 0.926600 0.632400
vt 0.185800 0.332000
vt 0.248600 0.332000
vt 0.927600 0.609500
vt 0.926600 0.585700
vt 0.927600 0.585700
vt 0.908900 0.585700
vt 0.935000 0.632400
vt 0.935000 0.585700
vt 0.045800 0.329100
vt 0.009800 0.425100
vt 0.009800 0.329100
vt 0.075600 0.480900
vt 0.257700 0.433300
vt 0.257700 0.480900
vt 0.045800 0.425100
vt 0.075600 0.433300
vt 0.908500 0.585700
vt 0.406500 0.327900
vt 0.307100 0.421700
vt 0.307100 0.327900
vt 0.310000 0.371000
vt 0.403800 0.421500
vt 0.310000 0.421500
vt 0.753500 0.929100
vt 0.999300 0.999300
vt 0.753500 0.999300
vt 0.307100 0.421500
vt 0.406500 0.327700
vt 0.406500 0.421500
vt 0.328500 0.482000
vt 0.234700 0.431500
vt 0.328500 0.431500
vt 0.755000 0.582700
vt 0.910500 0.632600
vt 0.755000 0.725300
vt 0.999300 0.929500
vt 0.754000 0.999400
vt 0.999300 0.999400
vt 0.934400 0.582700
vt 0.910500 0.582700
vt 0.924700 0.632400
vt 0.618700 0.897800
vt 0.315500 0.338200
vt 0.583600 0.339600
vt 0.591200 0.337100
vt 0.314800 0.332500
vt 0.562700 0.334600
vt 0.587400 0.403600
vt 0.530000 0.334600
vt 0.328900 0.339800
vt 0.318700 0.341500
vt 0.323800 0.404400
vt 0.936900 0.195500
vt 0.392500 0.976700
vt 0.673200 0.847500
vt 0.687800 0.999000
vt 0.669000 0.999000
vt 0.663100 0.999000
vt 0.474500 0.993400
vt 0.383200 0.795000
vt 0.348600 0.794300
vt 0.415300 0.986900
vt 0.362600 0.982100
vt 0.459600 0.982100
vt 0.547900 0.345000
vt 0.383800 0.334200
vt 0.312600 0.338700
vt 0.470100 0.337800
vt 0.408600 0.340000
vt 0.310000 0.339700
vt 0.347400 0.763000
vt 0.310000 0.333800
vt 0.754900 0.367600
vt 0.003000 0.262300
vt 0.020200 0.332300
vt 0.320000 0.403600
vt 0.324200 0.392000
vt 0.926600 0.609500
vt 0.908900 0.632400
vt 0.908500 0.632400
vt 0.406500 0.421700
vt 0.403800 0.371000
vt 0.999300 0.929100
vt 0.307100 0.327700
vt 0.234700 0.482000
vt 0.754000 0.929500
s 1
usemtl House
f 2/1/1 4/2/1 1/3/1
f 5/4/2 7/5/2 8/6/2
f 8/6/2 10/2/2 5/4/2
f 6/7/3 3/4/3 2/1/3
f 12/8/4 14/9/4 11/10/4
f 15/11/4 11/10/4 14/9/4
f 17/12/2 19/13/2 16/14/2
f 8/15/5 206/16/6 200/17/6
f 20/18/1 22/19/1 15/20/1
f 201/21/7 206/22/7 205/23/7
f 23/24/1 25/25/1 26/26/1
f 28/27/2 30/28/2 27/29/2
f 28/30/2 32/31/2 29/32/2
f 23/33/1 34/34/1 33/35/1
f 20/36/8 24/37/9 35/38/10
f 35/38/10 23/39/11 36/40/12
f 37/41/13 27/42/13 30/43/13
f 39/44/14 30/45/14 29/46/14
f 40/44/15 29/47/15 32/46/15
f 41/48/16 32/49/16 31/42/16
f 42/50/17 23/51/18 43/52/19
f 43/52/19 33/53/20 44/54/21
f 17/55/22 31/56/23 45/57/22
f 45/57/24 28/58/25 46/59/26
f 47/60/27 28/61/28 48/62/29
f 48/62/29 27/63/30 13/64/31
f 15/65/32 38/66/32 24/67/32
f 44/68/33 41/69/33 16/70/33
f 16/70/33 41/69/33 31/71/33
f 50/72/4 52/73/4 49/74/4
f 54/75/3 56/76/3 53/77/3
f 51/72/1 54/78/1 52/74/1
f 58/79/7 60/80/7 57/81/7
f 49/82/2 56/83/2 50/84/2
f 50/72/34 62/85/34 51/86/34
f 56/83/35 61/87/35 50/84/35
f 56/76/36 64/88/36 63/89/36
f 55/90/37 62/91/37 64/92/37
f 61/91/4 66/93/4 62/85/4
f 63/94/2 65/95/2 61/87/2
f 64/88/3 67/96/3 63/89/3
f 62/91/1 68/97/1 64/92/1
f 65/98/7 70/99/7 66/100/7
f 67/101/7 69/102/7 65/98/7
f 68/103/7 71/104/7 67/101/7
f 66/100/7 72/105/7 68/103/7
f 69/106/3 57/107/3 70/108/3
f 71/109/1 58/110/1 69/111/1
f 72/112/4 59/113/4 71/114/4
f 70/115/2 60/116/2 72/117/2
f 74/118/3 76/119/3 73/120/3
f 77/121/1 74/122/1 73/123/1
f 80/124/2 75/125/2 79/126/2
f 74/118/3 81/127/3 75/128/3
f 75/129/38 83/130/39 79/131/40
f 85/132/3 86/133/3 84/134/3
f 74/135/41 87/136/42 88/137/43
f 86/138/3 89/139/3 84/140/3
f 74/141/44 86/142/45 81/143/46
f 87/144/1 89/145/1 88/146/1
f 84/147/47 90/148/47 91/149/47
f 92/149/48 84/150/48 91/151/48
f 83/152/2 85/153/2 92/154/2
f 75/155/49 86/142/50 82/156/51
f 93/157/1 1/158/1 11/159/1
f 94/160/3 2/161/3 93/162/3
f 10/163/4 1/1/4 4/4/4
f 9/164/4 11/162/4 1/161/4
f 11/165/1 22/166/1 95/167/1
f 95/167/1 93/168/1 11/165/1
f 94/165/2 19/13/2 96/19/2
f 96/19/2 12/168/2 94/165/2
f 16/11/3 93/8/3 44/169/3
f 47/170/2 97/171/2 45/172/2
f 45/172/2 18/173/2 17/174/2
f 42/170/1 98/175/1 35/172/1
f 35/172/1 21/176/1 20/174/1
f 45/177/2 46/178/2 47/179/2
f 35/177/1 36/178/1 42/179/1
f 24/180/13 37/181/13 25/182/13
f 25/183/14 39/46/14 26/44/14
f 26/184/15 40/46/15 34/44/15
f 34/185/16 41/186/16 33/180/16
f 13/187/32 38/188/32 14/189/32
f 99/190/2 6/191/2 94/192/2
f 101/72/4 103/73/4 100/74/4
f 105/75/3 107/76/3 104/77/3
f 102/72/1 105/78/1 103/74/1
f 109/79/7 111/80/7 108/81/7
f 100/82/2 107/83/2 101/84/2
f 102/86/34 112/91/34 113/85/34
f 101/84/52 114/94/52 112/87/52
f 106/193/36 114/89/36 107/76/36
f 102/72/53 115/92/53 106/90/53
f 112/91/4 117/93/4 113/85/4
f 114/94/2 116/95/2 112/87/2
f 115/88/3 118/96/3 114/89/3
f 113/91/1 119/97/1 115/92/1
f 116/98/7 121/99/7 117/100/7
f 118/101/7 120/102/7 116/98/7
f 118/101/7 123/105/7 122/104/7
f 119/103/7 121/99/7 123/105/7
f 120/106/3 108/107/3 121/108/3
f 122/109/1 109/110/1 120/111/1
f 123/112/4 110/113/4 122/114/4
f 121/115/2 111/116/2 123/117/2
f 125/118/3 127/119/3 124/120/3
f 128/121/1 125/122/1 124/123/1
f 131/124/2 126/125/2 130/126/2
f 125/118/3 132/127/3 126/128/3
f 126/129/38 134/130/39 130/131/40
f 136/132/3 137/133/3 135/134/3
f 125/135/54 138/136/55 139/137/56
f 137/138/3 140/139/3 135/140/3
f 125/141/57 137/142/58 132/143/59
f 138/144/1 140/145/1 139/146/1
f 135/147/47 141/148/47 142/149/47
f 143/149/48 135/150/48 142/151/48
f 134/152/2 136/153/2 143/154/2
f 126/155/49 137/142/50 133/156/51
f 145/118/4 147/119/4 144/120/4
f 148/121/2 145/122/2 144/123/2
f 151/124/1 146/125/1 150/126/1
f 145/118/4 152/127/4 146/128/4
f 146/129/60 154/130/61 150/131/62
f 156/132/4 157/133/4 155/134/4
f 145/135/63 158/136/64 159/137/65
f 157/138/4 160/139/4 155/140/4
f 145/141/66 157/142/67 152/143/68
f 158/144/2 160/145/2 159/146/2
f 155/147/69 161/148/69 162/149/69
f 163/149/70 155/150/70 162/151/70
f 154/152/1 156/153/1 163/154/1
f 146/155/71 157/142/72 153/156/73
f 165/118/4 167/119/4 164/120/4
f 168/121/2 165/122/2 164/123/2
f 171/124/1 166/125/1 170/126/1
f 165/118/4 172/127/4 166/128/4
f 166/129/74 174/130/75 170/131/62
f 176/132/4 177/133/4 175/134/4
f 165/135/76 178/136/77 179/137/65
f 177/138/4 180/139/4 175/140/4
f 165/141/78 177/142/79 172/143/80
f 178/144/2 180/145/2 179/146/2
f 175/147/81 181/148/81 182/149/81
f 183/149/70 175/150/70 182/151/70
f 174/152/1 176/153/1 183/154/1
f 166/155/82 177/142/83 173/156/84
f 48/18/2 96/19/2 97/194/2
f 201/17/85 204/195/85 202/15/85
f 185/19/2 187/196/2 184/194/2
f 189/13/1 191/194/1 188/196/1
f 43/197/1 95/13/1 98/196/1
f 202/198/86 203/199/86 8/200/86
f 204/201/87 206/202/87 203/203/87
f 97/204/3 185/205/3 184/206/3
f 185/207/7 19/208/7 186/209/7
f 187/204/4 19/205/4 18/206/4
f 97/204/3 96/210/3 185/205/3
f 97/207/86 187/208/86 18/209/86
f 189/208/7 22/207/7 190/211/7
f 191/204/3 22/205/3 21/206/3
f 200/202/88 202/212/88 8/203/88
f 98/208/86 191/207/86 21/211/86
f 8/213/3 199/214/3 200/215/3
f 98/204/4 189/205/4 188/206/4
f 95/210/4 189/205/4 98/204/4
f 200/216/86 198/217/86 99/218/86
f 95/219/1 193/220/1 194/221/1
f 99/222/4 197/223/4 7/224/4
f 7/225/7 196/226/7 8/227/7
f 9/228/2 200/229/2 12/230/2
f 19/231/1 195/232/1 192/233/1
f 94/192/2 200/229/2 99/190/2
f 197/234/2 199/229/2 196/235/2
f 2/1/1 3/4/1 4/2/1
f 5/4/2 6/1/2 7/5/2
f 8/6/2 9/3/2 10/2/2
f 6/7/3 5/163/3 3/4/3
f 12/8/4 13/169/4 14/9/4
f 17/12/2 18/196/2 19/13/2
f 8/15/5 203/236/5 206/16/6
f 20/18/1 21/194/1 22/19/1
f 201/21/7 200/237/7 206/22/7
f 23/24/1 24/238/1 25/25/1
f 28/27/2 29/239/2 30/28/2
f 28/30/2 31/240/2 32/31/2
f 23/33/1 26/241/1 34/34/1
f 20/36/8 15/242/89 24/37/9
f 35/38/10 24/37/9 23/39/11
f 37/41/13 38/48/13 27/42/13
f 39/44/14 37/183/14 30/45/14
f 40/44/15 39/184/15 29/47/15
f 41/48/16 40/243/16 32/49/16
f 42/50/17 36/244/26 23/51/18
f 43/52/19 23/51/18 33/53/20
f 17/55/22 16/245/23 31/56/23
f 45/57/24 31/56/90 28/58/25
f 47/60/27 46/246/12 28/61/28
f 48/62/29 28/61/28 27/63/30
f 15/65/32 14/247/32 38/66/32
f 44/68/33 33/248/33 41/69/33
f 50/72/4 51/86/4 52/73/4
f 54/75/3 55/193/3 56/76/3
f 51/72/1 55/90/1 54/78/1
f 58/79/7 59/249/7 60/80/7
f 49/82/2 53/250/2 56/83/2
f 50/72/34 61/91/34 62/85/34
f 56/83/35 63/94/35 61/87/35
f 56/76/36 55/193/36 64/88/36
f 55/90/37 51/72/37 62/91/37
f 61/91/4 65/251/4 66/93/4
f 63/94/2 67/252/2 65/95/2
f 64/88/3 68/253/3 67/96/3
f 62/91/1 66/251/1 68/97/1
f 65/98/7 69/102/7 70/99/7
f 67/101/7 71/104/7 69/102/7
f 68/103/7 72/105/7 71/104/7
f 66/100/7 70/99/7 72/105/7
f 69/106/3 58/254/3 57/107/3
f 71/109/1 59/255/1 58/110/1
f 72/112/4 60/256/4 59/113/4
f 70/115/2 57/257/2 60/116/2
f 74/118/3 75/128/3 76/119/3
f 77/121/1 78/258/1 74/122/1
f 80/124/2 76/259/2 75/125/2
f 75/129/38 82/260/91 83/130/39
f 85/132/3 82/261/3 86/133/3
f 74/135/41 78/262/92 87/136/42
f 86/138/3 88/263/3 89/139/3
f 74/141/44 88/264/93 86/142/45
f 87/144/1 90/265/1 89/145/1
f 84/147/47 89/266/47 90/148/47
f 92/149/48 85/147/48 84/150/48
f 83/152/2 82/267/2 85/153/2
f 75/155/49 81/143/94 86/142/50
f 93/157/1 2/268/1 1/158/1
f 94/160/3 6/164/3 2/161/3
f 10/163/4 9/7/4 1/1/4
f 9/164/4 12/160/4 11/162/4
f 11/165/1 15/14/1 22/166/1
f 95/167/1 44/269/1 93/168/1
f 94/165/2 16/14/2 19/13/2
f 96/19/2 13/269/2 12/168/2
f 16/11/3 94/10/3 93/8/3
f 47/170/2 48/270/2 97/171/2
f 45/172/2 97/171/2 18/173/2
f 42/170/1 43/270/1 98/175/1
f 35/172/1 98/175/1 21/176/1
f 24/180/13 38/186/13 37/181/13
f 25/183/14 37/45/14 39/46/14
f 26/184/15 39/47/15 40/46/15
f 34/185/16 40/271/16 41/186/16
f 13/187/32 27/272/32 38/188/32
f 99/190/2 7/234/2 6/191/2
f 101/72/4 102/86/4 103/73/4
f 105/75/3 106/193/3 107/76/3
f 102/72/1 106/90/1 105/78/1
f 109/79/7 110/249/7 111/80/7
f 100/82/2 104/250/2 107/83/2
f 102/86/34 101/72/34 112/91/34
f 101/84/52 107/83/52 114/94/52
f 106/193/36 115/88/36 114/89/36
f 102/72/53 113/91/53 115/92/53
f 112/91/4 116/251/4 117/93/4
f 114/94/2 118/252/2 116/95/2
f 115/88/3 119/253/3 118/96/3
f 113/91/1 117/251/1 119/97/1
f 116/98/7 120/102/7 121/99/7
f 118/101/7 122/104/7 120/102/7
f 118/101/7 119/103/7 123/105/7
f 119/103/7 117/100/7 121/99/7
f 120/106/3 109/254/3 108/107/3
f 122/109/1 110/255/1 109/110/1
f 123/112/4 111/256/4 110/113/4
f 121/115/2 108/257/2 111/116/2
f 125/118/3 126/128/3 127/119/3
f 128/121/1 129/258/1 125/122/1
f 131/124/2 127/259/2 126/125/2
f 126/129/38 133/260/95 134/130/39
f 136/132/3 133/261/3 137/133/3
f 125/135/54 129/262/96 138/136/55
f 137/138/3 139/263/3 140/139/3
f 125/141/57 139/264/97 137/142/58
f 138/144/1 141/265/1 140/145/1
f 135/147/47 140/266/47 141/148/47
f 143/149/48 136/147/48 135/150/48
f 134/152/2 133/267/2 136/153/2
f 126/155/49 132/143/94 137/142/50
f 145/118/4 146/128/4 147/119/4
f 148/121/2 149/258/2 145/122/2
f 151/124/1 147/259/1 146/125/1
f 146/129/60 153/260/98 154/130/61
f 156/132/4 153/261/4 157/133/4
f 145/135/63 149/262/99 158/136/64
f 157/138/4 159/263/4 160/139/4
f 145/141/66 159/264/100 157/142/67
f 158/144/2 161/265/2 160/145/2
f 155/147/69 160/266/69 161/148/69
f 163/149/70 156/147/70 155/150/70
f 154/152/1 153/267/1 156/153/1
f 146/155/71 152/143/101 157/142/72
f 165/118/4 166/128/4 167/119/4
f 168/121/2 169/258/2 165/122/2
f 171/124/1 167/259/1 166/125/1
f 166/129/74 173/260/98 174/130/75
f 176/132/4 173/261/4 177/133/4
f 165/135/76 169/262/99 178/136/77
f 177/138/4 179/263/4 180/139/4
f 165/141/78 179/264/102 177/142/79
f 178/144/2 181/265/2 180/145/2
f 175/147/81 180/266/81 181/148/81
f 183/149/70 176/147/70 175/150/70
f 174/152/1 173/267/1 176/153/1
f 166/155/82 172/143/103 177/142/83
f 48/18/2 13/269/2 96/19/2
f 201/17/85 205/199/85 204/195/85
f 185/19/2 186/13/2 187/196/2
f 189/13/1 190/19/1 191/194/1
f 43/197/1 44/14/1 95/13/1
f 202/198/86 204/273/86 203/199/86
f 204/201/87 205/274/87 206/202/87
f 185/207/7 96/211/7 19/208/7
f 187/204/4 186/210/4 19/205/4
f 97/207/86 184/211/86 187/208/86
f 189/208/7 95/209/7 22/207/7
f 191/204/3 190/210/3 22/205/3
f 200/202/88 201/275/88 202/212/88
f 98/208/86 188/209/86 191/207/86
f 8/213/3 196/276/3 199/214/3
f 200/216/86 199/277/86 198/217/86
f 95/219/1 22/278/1 193/220/1
f 99/222/4 198/279/4 197/223/4
f 7/225/7 197/280/7 196/226/7
f 9/228/2 8/235/2 200/229/2
f 19/231/1 96/281/1 195/232/1
f 94/192/2 12/230/2 200/229/2
f 197/234/2 198/190/2 199/229/2
