# Blender 4.4.1
# www.blender.org
mtllib ru_village_hut_4.mtl
o ru_village_hut_4
v 1.841009 2.387182 -2.495233
v 1.841009 2.387183 -0.402290
v -0.033289 2.600284 -2.495233
v -0.033289 2.600284 -0.402290
v -0.033289 2.639930 -2.495233
v -0.033289 2.639930 -0.402290
v 1.835889 2.424350 -0.402290
v 1.835889 2.424350 -0.402290
v 1.835889 2.424350 -2.495233
v -0.033289 2.639930 -2.495233
v -0.033289 2.600284 -2.495233
v -0.033289 2.600284 -0.402290
v -0.033289 2.639930 -0.402290
v -0.033289 2.639930 -0.402290
v -0.033289 2.639930 -2.495233
v -0.033289 2.600284 -2.495233
v 1.841009 2.387183 -0.402290
v 1.835889 2.424350 -0.402290
v -0.033289 2.600284 -0.402290
v -0.033289 2.639930 -0.402290
v 1.841009 2.387183 -0.402290
v 1.841009 2.387182 -2.495233
v 1.835889 2.424350 -2.495233
v 1.835889 2.424350 -2.495233
v 1.835889 2.424350 -0.402290
v 1.841009 2.387183 -0.402290
v -0.033289 2.600284 -2.495233
v -0.033289 2.639930 -2.495233
v 1.841009 2.387182 -2.495233
v 1.835889 2.424350 -2.495233
v 1.374996 0.684873 -2.365880
v 1.390360 0.684873 -2.311550
v 1.154792 0.684873 -2.365880
v 1.139428 0.684873 -2.311550
v 1.139428 1.036733 -2.311550
v 1.390360 1.036733 -2.311550
v 1.154792 0.989652 -2.365880
v 1.374996 0.989652 -2.365880
v 1.139428 0.684873 -2.311550
v 1.139428 1.036733 -2.311550
v 1.154792 0.684873 -2.365880
v 1.154792 0.989652 -2.365880
v 1.390360 0.684873 -2.311550
v 1.390360 1.036733 -2.311550
v 1.139428 0.684873 -2.311550
v 1.139428 1.036733 -2.311550
v 1.374996 0.684873 -2.365880
v 1.374996 0.989652 -2.365880
v 1.390360 0.684873 -2.311550
v 1.390360 1.036733 -2.311550
v 1.154792 0.684873 -2.365880
v 1.154792 0.989652 -2.365880
v 1.374996 0.684873 -2.365880
v 1.374996 0.989652 -2.365880
v 1.677134 1.735500 -2.099413
v 5.144071 1.735500 -2.099413
v 1.677134 1.735500 -2.218417
v 5.144071 1.735500 -2.218417
v 1.677134 -0.070882 -2.099412
v 1.677134 1.735500 -2.099413
v 1.677134 -0.070882 -2.218417
v 1.677134 1.735500 -2.218417
v 5.144071 -0.070882 -2.099412
v 5.144071 1.735500 -2.099413
v 1.677134 -0.070882 -2.099412
v 1.677134 1.735500 -2.099413
v 5.144071 -0.070882 -2.218417
v 5.144071 1.735500 -2.218417
v 5.144071 -0.070882 -2.099412
v 5.144071 1.735500 -2.099413
v 2.481135 -0.070882 -2.138215
v 2.481135 1.544701 -2.138215
v 2.481135 -0.070882 -2.218417
v 2.481135 1.544701 -2.218417
v 2.481135 -0.070882 -2.138215
v 1.851253 -0.070882 -2.138215
v 2.481135 1.544701 -2.138215
v 1.851253 1.544701 -2.138215
v 1.851253 1.544701 -2.138215
v 1.851253 -0.070882 -2.138215
v 1.851253 1.544701 -2.218417
v 1.851253 -0.070882 -2.218417
v 2.481135 1.544701 -2.138215
v 1.851253 1.544701 -2.138215
v 2.481135 1.544701 -2.218417
v 1.851253 1.544701 -2.218417
v 4.944354 -0.070882 -2.138215
v 4.944354 1.544701 -2.138215
v 4.944354 -0.070882 -2.218417
v 4.944354 1.544701 -2.218417
v 4.944354 -0.070882 -2.138215
v 2.716704 -0.070882 -2.138215
v 4.944354 1.544701 -2.138215
v 2.716704 1.544701 -2.138215
v 2.716704 1.544701 -2.138215
v 2.716704 -0.070882 -2.138215
v 2.716704 1.544701 -2.218417
v 2.716704 -0.070882 -2.218417
v 4.944354 1.544701 -2.138215
v 2.716704 1.544701 -2.138215
v 4.944354 1.544701 -2.218417
v 2.716704 1.544701 -2.218417
v 4.944354 -0.070882 -2.218417
v 5.144071 -0.070882 -2.218417
v 4.944354 -0.070882 -2.138215
v 5.144071 -0.070882 -2.099412
v 2.716704 -0.070882 -2.138215
v 2.481135 -0.070882 -2.138215
v 2.716704 -0.070882 -2.218417
v 2.481135 -0.070882 -2.218417
v 1.851253 -0.070882 -2.138215
v 1.677134 -0.070882 -2.099412
v 1.677134 -0.070882 -2.218417
v 1.851253 -0.070882 -2.218417
v 1.851253 -0.070882 -2.218417
v 1.677134 -0.070882 -2.218417
v 1.851253 1.544701 -2.218417
v 1.677134 1.735500 -2.218417
v 5.144071 1.735500 -2.218417
v 2.481135 1.544701 -2.218417
v 2.716704 1.544701 -2.218417
v 2.716704 -0.070882 -2.218417
v 2.481135 -0.070882 -2.218417
v 4.944354 1.544701 -2.218417
v 5.144071 -0.070882 -2.218417
v 4.944354 -0.070882 -2.218417
v -5.154315 2.729134 2.590957
v -5.154315 2.729134 -2.575434
v 0.171552 2.729134 2.590957
v 0.171552 2.729134 -2.575434
v -2.880579 4.562772 2.590957
v -5.154315 2.729134 2.590957
v -2.102180 4.562772 2.590957
v 0.171552 2.729134 2.590957
v -2.854971 4.518169 -2.575434
v -4.749753 3.016566 -2.575434
v -5.154315 2.729134 -2.575434
v -4.959718 2.845593 -2.575434
v -2.880579 4.562772 -2.575434
v -2.127787 4.518169 -2.575434
v -2.102180 4.562772 -2.575434
v -1.917826 4.344718 -2.575434
v -0.023045 2.845593 -2.575434
v 0.171552 2.729134 -2.575434
v -4.698542 3.011610 -2.376228
v -0.284217 3.011610 -2.376228
v -4.959718 2.845593 -2.575434
v -0.023045 2.845593 -2.575434
v -2.854971 4.518169 -2.575434
v -2.854971 4.518169 -2.376228
v -4.749753 3.016566 -2.575434
v -4.698542 3.011610 -2.376228
v -4.959718 2.845593 -2.575434
v -2.854971 4.518169 -2.575434
v -2.127787 4.518169 -2.575434
v -2.854971 4.518169 -2.376228
v -2.127787 4.518169 -2.376228
v -4.698542 3.011610 -2.376228
v -2.854971 4.518169 -2.376228
v -0.284217 3.011610 -2.376228
v -2.127787 4.518169 -2.376228
v -0.023045 2.845593 -2.575434
v -0.284217 3.011610 -2.376228
v -1.917826 4.344718 -2.575434
v -2.127787 4.518169 -2.376228
v -2.127787 4.518169 -2.575434
v -0.058892 2.796035 -2.637522
v -0.340551 3.033913 -2.352944
v -4.923871 2.796035 -2.637522
v -4.637092 3.033913 -2.352944
v -4.637092 3.051256 -2.363293
v -0.340551 3.051256 -2.363293
v -4.923871 2.813382 -2.647870
v -0.058892 2.813382 -2.647870
v -4.637092 3.033913 -2.352944
v -4.637092 3.051256 -2.363293
v -4.923871 2.796035 -2.637522
v -4.923871 2.813382 -2.647870
v -0.340551 3.033913 -2.352944
v -0.340551 3.051256 -2.363293
v -4.637092 3.033913 -2.352944
v -4.637092 3.051256 -2.363293
v -0.058892 2.796035 -2.637522
v -0.058892 2.813382 -2.647870
v -0.340551 3.033913 -2.352944
v -0.340551 3.051256 -2.363293
v -4.923871 2.796035 -2.637522
v -4.923871 2.813382 -2.647870
v -0.058892 2.796035 -2.637522
v -0.058892 2.813382 -2.647870
v -2.880579 4.562772 -2.632347
v -2.880579 4.562772 2.647870
v -5.231128 2.667185 -2.632347
v -5.231128 2.667185 2.647870
v -5.241372 2.682054 2.647870
v -2.890822 4.577641 2.647870
v -5.241372 2.682054 -2.632347
v -2.890822 4.577641 -2.632347
v -5.231128 2.667185 2.647870
v -5.241372 2.682054 2.647870
v -5.231128 2.667185 -2.632347
v -5.241372 2.682054 -2.632347
v -2.880579 4.562772 2.647870
v -2.890822 4.577641 2.647870
v -5.231128 2.667185 2.647870
v -5.241372 2.682054 2.647870
v -2.880579 4.562772 -2.632347
v -2.890822 4.577641 -2.632347
v -2.880579 4.562772 2.647870
v -2.890822 4.577641 2.647870
v -5.231128 2.667185 -2.632347
v -5.241372 2.682054 -2.632347
v -2.880579 4.562772 -2.632347
v -2.890822 4.577641 -2.632347
v 0.248370 2.667185 -2.632347
v 0.248370 2.667185 2.647870
v -2.102180 4.562772 -2.632347
v -2.102180 4.562772 2.647870
v -2.091941 4.577641 2.647870
v 0.258613 2.682054 2.647870
v -2.091941 4.577641 -2.632347
v 0.258613 2.682054 -2.632347
v -2.102180 4.562772 2.647870
v -2.091941 4.577641 2.647870
v -2.102180 4.562772 -2.632347
v -2.091941 4.577641 -2.632347
v 0.248370 2.667185 2.647870
v 0.258613 2.682054 2.647870
v -2.102180 4.562772 2.647870
v -2.091941 4.577641 2.647870
v 0.248370 2.667185 -2.632347
v 0.258613 2.682054 -2.632347
v 0.248370 2.667185 2.647870
v 0.258613 2.682054 2.647870
v -2.102180 4.562772 -2.632347
v -2.091941 4.577641 -2.632347
v 0.248370 2.667185 -2.632347
v 0.258613 2.682054 -2.632347
v -2.097060 4.565249 -2.632347
v -2.097060 4.565249 2.647870
v -2.885698 4.565249 -2.632347
v -2.885698 4.565249 2.647870
v -2.885698 4.582592 2.647870
v -2.097060 4.582592 2.647870
v -2.885698 4.582592 -2.632347
v -2.097060 4.582592 -2.632347
v -2.885698 4.565249 2.647870
v -2.885698 4.582592 2.647870
v -2.885698 4.565249 -2.632347
v -2.885698 4.582592 -2.632347
v -2.097060 4.565249 2.647870
v -2.097060 4.582592 2.647870
v -2.885698 4.565249 2.647870
v -2.885698 4.582592 2.647870
v -2.097060 4.565249 -2.632347
v -2.097060 4.582592 -2.632347
v -2.097060 4.565249 2.647870
v -2.097060 4.582592 2.647870
v -2.885698 4.565249 -2.632347
v -2.885698 4.582592 -2.632347
v -2.097060 4.565249 -2.632347
v -2.097060 4.582592 -2.632347
v -2.982999 4.503301 0.826568
v -2.982999 4.503301 1.494034
v -4.109626 3.596392 0.826568
v -4.109626 3.596392 1.494034
v -4.114746 3.611261 1.494034
v -2.993243 4.518169 1.494034
v -4.114746 3.611261 0.826568
v -2.993243 4.518169 0.826568
v -4.109626 3.596392 1.494034
v -4.114746 3.611261 1.494034
v -4.109626 3.596392 0.826568
v -4.114746 3.611261 0.826568
v -2.982999 4.503301 1.494034
v -2.993243 4.518169 1.494034
v -4.109626 3.596392 1.494034
v -4.114746 3.611261 1.494034
v -2.982999 4.503301 0.826568
v -2.993243 4.518169 0.826568
v -2.982999 4.503301 1.494034
v -2.993243 4.518169 1.494034
v -4.109626 3.596392 0.826568
v -4.114746 3.611261 0.826568
v -2.982999 4.503301 0.826568
v -2.993243 4.518169 0.826568
v -3.746034 3.680644 1.206870
v -3.746034 5.001357 1.206870
v -3.776761 3.680644 1.253438
v -3.776761 5.001357 1.253438
v -3.827971 3.680644 1.268961
v -3.827971 5.001357 1.268961
v -3.879177 3.680644 1.253438
v -3.879177 5.001357 1.253438
v -3.909904 3.680644 1.206870
v -3.909904 5.001357 1.206870
v -3.909904 3.680644 1.152540
v -3.909904 5.001357 1.152540
v -3.879177 3.680644 1.108563
v -3.879177 5.001357 1.108563
v -3.827971 3.680644 1.090453
v -3.827971 5.001357 1.090453
v -3.776761 3.680644 1.108563
v -3.776761 5.001357 1.108563
v -3.746034 3.680644 1.152540
v -3.746034 5.001357 1.152540
v -3.746034 3.680644 1.206870
v -3.746034 5.001357 1.206870
v -0.038409 -0.070882 -0.609257
v -0.038409 2.444175 -0.609257
v -0.038409 -0.070883 -2.311550
v -0.038409 2.444175 -2.311550
v 1.677134 -0.070882 -0.609257
v 1.677134 2.250899 -0.609257
v -0.038409 -0.070882 -0.609257
v -0.038409 2.444175 -0.609257
v 1.677134 -0.070883 -2.311550
v 1.677134 2.250898 -2.311550
v 1.677134 -0.070882 -0.609257
v 1.677134 2.250899 -0.609257
v -0.038409 -0.070883 -2.311550
v -0.038409 2.444175 -2.311550
v 1.677134 -0.070883 -2.311550
v 1.677134 2.250898 -2.311550
v 1.682258 1.532310 -2.381402
v 5.241372 1.532310 -2.381402
v 1.682258 1.804879 -2.158913
v 5.241372 1.804879 -2.158913
v 5.241372 1.839568 -2.169261
v 5.241372 1.569478 -2.394338
v 1.682258 1.839568 -2.169261
v 1.682258 1.569478 -2.394338
v 5.241372 1.804879 -2.158913
v 5.241372 1.839568 -2.169261
v 1.682258 1.804879 -2.158913
v 1.682258 1.839568 -2.169261
v 5.241372 1.532310 -2.381402
v 5.241372 1.569478 -2.394338
v 5.241372 1.804879 -2.158913
v 5.241372 1.839568 -2.169261
v 1.682258 1.532310 -2.381402
v 1.682258 1.569478 -2.394338
v 5.241372 1.532310 -2.381402
v 5.241372 1.569478 -2.394338
v 1.682258 1.804879 -2.158913
v 1.682258 1.839568 -2.169261
v 1.682258 1.532310 -2.381402
v 1.682258 1.569478 -2.394338
v 5.241372 1.532311 -1.931253
v 1.682258 1.532311 -1.931253
v 5.241372 1.804879 -2.153738
v 1.682258 1.804879 -2.153738
v 1.682258 1.839568 -2.143390
v 1.682258 1.569478 -1.920904
v 5.241372 1.839568 -2.143390
v 5.241372 1.569478 -1.920904
v 1.682258 1.804879 -2.153738
v 1.682258 1.839568 -2.143390
v 5.241372 1.804879 -2.153738
v 5.241372 1.839568 -2.143390
v 1.682258 1.532311 -1.931253
v 1.682258 1.569478 -1.920904
v 1.682258 1.804879 -2.153738
v 1.682258 1.839568 -2.143390
v 5.241372 1.532311 -1.931253
v 5.241372 1.569478 -1.920904
v 1.682258 1.532311 -1.931253
v 1.682258 1.569478 -1.920904
v 5.241372 1.804879 -2.153738
v 5.241372 1.839568 -2.143390
v 5.241372 1.532311 -1.931253
v 5.241372 1.569478 -1.920904
v -0.033289 2.845593 2.515930
v -4.949473 2.845593 2.515930
v -0.033289 -0.070882 2.515930
v -4.949473 -0.070882 2.515930
v -0.033289 -0.070883 -2.500407
v -0.033289 2.845593 -2.500407
v -0.033289 -0.070882 2.515930
v -0.033289 2.845593 2.515930
v -4.841933 2.637452 -2.308963
v -4.841933 2.637452 2.293440
v -4.949473 2.637452 -2.308963
v -4.949473 2.637452 2.293440
v -4.841933 0.672482 -2.308962
v -4.841933 2.637452 -2.308963
v -4.949473 0.672482 -2.308962
v -4.949473 2.637452 -2.308963
v -4.949473 0.672482 -2.308962
v -4.949473 0.672483 2.293440
v -4.841933 0.672482 -2.308962
v -4.841933 0.672483 2.293440
v -4.841933 0.672482 -2.308962
v -4.841933 0.672483 2.293440
v -4.841933 2.637452 -2.308963
v -4.841933 2.637452 2.293440
v -4.841933 2.637452 2.293440
v -4.841933 0.672483 2.293440
v -4.949473 2.637452 2.293440
v -4.949473 0.672483 2.293440
v -0.192040 0.672482 -2.373641
v -0.192040 2.637452 -2.373641
v -0.192040 0.672482 -2.500407
v -0.192040 2.637452 -2.500407
v -0.192040 0.672482 -2.500407
v -4.734389 0.672482 -2.500407
v -0.192040 0.672482 -2.373641
v -4.734389 0.672482 -2.373641
v -4.734389 2.637452 -2.373641
v -4.734389 0.672482 -2.373641
v -4.734389 2.637452 -2.500407
v -4.734389 0.672482 -2.500407
v -4.734389 2.637452 -2.373641
v -0.192040 2.637452 -2.373641
v -4.734389 0.672482 -2.373641
v -0.192040 0.672482 -2.373641
v -4.734389 2.637452 -2.373641
v -4.734389 2.637452 -2.500407
v -0.192040 2.637452 -2.373641
v -0.192040 2.637452 -2.500407
v -0.192040 0.672482 -2.500407
v -0.033289 -0.070883 -2.500407
v -4.734389 0.672482 -2.500407
v -4.949473 -0.070883 -2.500407
v -4.734389 2.637452 -2.500407
v -4.949473 2.845593 -2.500407
v -0.192040 2.637452 -2.500407
v -0.033289 2.845593 -2.500407
v -4.949473 2.845593 -2.500407
v -4.949473 2.637452 -2.308963
v -4.949473 2.845593 2.515930
v -4.949473 2.637452 2.293440
v -4.949473 -0.070882 2.515930
v -4.949473 0.672483 2.293440
v -4.949473 -0.070883 -2.500407
v -4.949473 0.672482 -2.308962
v 1.769315 2.243464 -2.435733
v 1.769315 2.243464 -0.565276
v -0.294460 2.473908 -2.435733
v -0.294460 2.473908 -0.565276
v -0.350790 2.630017 -2.435733
v -0.350790 2.630018 -0.565276
v 1.712985 2.397095 -0.565276
v 1.712985 2.397095 -0.565276
v 1.712985 2.397095 -2.435733
v -0.350790 2.630017 -2.435733
v -0.294460 2.473908 -2.435733
v -0.294460 2.473908 -0.565276
v -0.350790 2.630018 -0.565276
v -0.350790 2.630018 -0.565276
v -0.350790 2.630017 -2.435733
v -0.294460 2.473908 -2.435733
v 1.769315 2.243464 -0.565276
v 1.712985 2.397095 -0.565276
v -0.294460 2.473908 -0.565276
v -0.350790 2.630018 -0.565276
v 1.769315 2.243464 -2.435733
v 1.712985 2.397095 -2.435733
v 1.769315 2.243464 -0.565276
v 1.712985 2.397095 -0.565276
v -0.294460 2.473908 -2.435733
v -0.350790 2.630017 -2.435733
v 1.769315 2.243464 -2.435733
v 1.712985 2.397095 -2.435733
vn -0.1130 -0.9936 -0.0000
vn 0.1146 0.9934 -0.0000
vn -1.0000 -0.0000 -0.0000
vn -0.0000 -0.0000 1.0000
vn 0.9906 0.1365 -0.0000
vn -0.0000 -0.0000 -1.0000
vn -0.0000 -1.0000 -0.0000
vn -0.0000 0.7557 -0.6549
vn -0.9623 -0.0000 -0.2721
vn 0.9623 -0.0000 -0.2721
vn -0.0000 1.0000 -0.0000
vn 1.0000 -0.0000 -0.0000
vn -0.0000 0.7682 -0.6402
vn 0.6211 -0.7837 -0.0000
vn 0.6226 -0.7618 -0.1790
vn 0.6213 -0.7630 -0.1787
vn -0.6127 -0.7744 -0.1579
vn -0.6328 -0.7743 0.0073
vn -0.6369 -0.7710 -0.0000
vn -0.0000 -0.7673 0.6413
vn -0.0000 0.7673 -0.6413
vn -0.7874 0.3159 0.5294
vn -0.7874 0.3158 0.5294
vn -0.0000 0.5124 0.8587
vn 0.7927 0.3123 0.5235
vn 0.7927 0.3124 0.5235
vn -0.0000 -0.5123 -0.8588
vn 0.6277 -0.7784 -0.0000
vn -0.6277 0.7784 -0.0000
vn -0.8235 -0.5673 -0.0000
vn 0.8235 0.5673 -0.0000
vn -0.6277 -0.7784 -0.0000
vn 0.6277 0.7784 -0.0000
vn -0.8236 0.5672 -0.0000
vn 0.8235 -0.5673 -0.0000
vn 0.6271 -0.7790 -0.0000
vn -0.6288 0.7776 -0.0000
vn -0.9455 -0.3256 -0.0000
vn 0.8347 -0.0000 0.5507
vn 0.2901 -0.0000 0.9570
vn -0.2901 -0.0000 0.9570
vn -0.8347 -0.0000 0.5507
vn -0.8197 -0.0000 -0.5727
vn -0.3334 -0.0000 -0.9428
vn 0.3334 -0.0000 -0.9428
vn 0.8197 -0.0000 -0.5727
vn -0.0000 -0.6324 0.7747
vn -0.0000 0.6402 -0.7682
vn -0.0000 0.2859 0.9583
vn -0.0000 -0.3287 -0.9444
vn -0.0000 -0.6323 -0.7747
vn -0.0000 0.6358 0.7718
vn -0.0000 0.2859 -0.9583
vn -0.0000 -0.2682 0.9634
vn -0.1110 -0.9938 -0.0000
vn 0.1122 0.9937 -0.0000
vn 0.1121 0.9937 -0.0000
vn -0.9406 -0.3394 -0.0000
vn 0.9389 0.3442 -0.0000
vt 0.307221 0.939320
vt 0.057983 0.939320
vt 0.307221 0.787516
vt 0.057983 0.787516
vt 0.063224 0.866283
vt 0.808014 0.866283
vt 0.808014 0.878720
vt 0.063224 0.878720
vt 0.434705 0.726550
vt 0.428367 0.726550
vt 0.434705 0.948831
vt 0.428367 0.948831
vt 0.070049 0.602181
vt 0.070049 0.611326
vt 0.002041 0.602181
vt 0.002041 0.611326
vt 0.001310 0.601937
vt 0.070171 0.601937
vt 0.001310 0.611691
vt 0.070171 0.611691
vt 0.070536 0.517561
vt 0.070536 0.601327
vt 0.000457 0.517561
vt 0.000457 0.601327
vt 0.709537 0.187615
vt 0.998751 0.187615
vt 0.709537 0.707285
vt 0.998751 0.707285
vt 0.711366 0.684118
vt 0.998386 0.684118
vt 0.711366 0.704847
vt 0.998386 0.704847
vt 0.709537 0.214196
vt 0.998508 0.214196
vt 0.998508 0.707285
vt 0.710391 0.338078
vt 0.993876 0.338078
vt 0.710391 0.325154
vt 0.993876 0.325154
vt 0.711000 0.221634
vt 0.711000 0.308083
vt 0.969867 0.221634
vt 0.969867 0.308083
vt 0.993876 0.314180
vt 0.710391 0.314180
vt 0.993876 0.327104
vt 0.710391 0.327104
vt 0.970232 0.221634
vt 0.970232 0.268578
vt 0.711000 0.268578
vt 0.710634 0.342346
vt 0.710634 0.675461
vt 0.998751 0.342346
vt 0.998751 0.675461
vt 0.982298 0.187615
vt 0.982298 0.536338
vt 0.796436 0.536338
vt 0.776813 0.536338
vt 0.796436 0.187615
vt 0.776813 0.187615
vt 0.724163 0.536338
vt 0.724163 0.187615
vt 0.709537 0.213831
vt 0.968282 0.213831
vt 0.968282 0.308571
vt 0.968282 0.343809
vt 0.709537 0.343809
vt 0.709537 0.308571
vt 0.968282 0.677900
vt 0.709537 0.677900
vt 0.711731 0.310644
vt 0.711731 0.707285
vt 0.998386 0.310644
vt 0.998386 0.707285
vt 0.411792 0.661073
vt 0.626173 0.499027
vt 0.338909 0.661073
vt 0.124406 0.499027
vt 0.319165 0.647173
vt 0.091377 0.492687
vt 0.042261 0.463058
vt 0.066027 0.475129
vt 0.316240 0.651929
vt 0.406551 0.647173
vt 0.409354 0.651929
vt 0.431780 0.629493
vt 0.659568 0.475129
vt 0.683456 0.463058
vt 0.092108 0.784346
vt 0.699178 0.784346
vt 0.062614 0.857139
vt 0.740372 0.853724
vt 0.159263 0.169935
vt 0.193266 0.147866
vt 0.425076 0.166399
vt 0.456033 0.143720
vt 0.455058 0.165912
vt 0.172304 0.524877
vt 0.172425 0.524998
vt 0.189001 0.500490
vt 0.189123 0.500612
vt 0.123187 0.498539
vt 0.328915 0.661561
vt 0.627149 0.498539
vt 0.411792 0.661561
vt 0.186198 0.148476
vt 0.184857 0.170545
vt 0.445430 0.146890
vt 0.477362 0.168716
vt 0.478702 0.146647
vt 0.777910 0.936028
vt 0.738057 0.999188
vt 0.100274 0.936028
vt 0.140128 0.999188
vt 0.738178 0.999188
vt 0.778032 0.936028
vt 0.100396 0.936028
vt 0.139641 0.770080
vt 0.139641 0.773616
vt 0.090524 0.770080
vt 0.090524 0.773616
vt 0.639092 0.759106
vt 0.639092 0.762764
vt 0.036167 0.759106
vt 0.036167 0.762764
vt 0.085283 0.770080
vt 0.085283 0.773616
vt 0.036167 0.770080
vt 0.036167 0.773616
vt 0.719409 0.879208
vt 0.719409 0.882866
vt 0.036167 0.879208
vt 0.036167 0.882866
vt 0.808136 0.999066
vt 0.063833 0.999066
vt 0.808136 0.711431
vt 0.063833 0.711431
vt 0.808136 0.711065
vt 0.063955 0.711065
vt 0.063955 0.999066
vt 0.806795 0.979679
vt 0.064442 0.979679
vt 0.806795 0.937247
vt 0.064442 0.937247
vt 0.209232 0.707041
vt 0.209232 0.615227
vt 0.000944 0.707041
vt 0.000944 0.615227
vt 0.198751 0.666804
vt 0.198751 0.681680
vt 0.013376 0.666804
vt 0.013376 0.681680
vt 0.012888 0.664731
vt 0.012888 0.681802
vt 0.188513 0.664731
vt 0.188513 0.681802
vt 0.998386 0.710699
vt 0.998386 0.997481
vt 0.983517 0.710699
vt 0.983517 0.997481
vt 0.968648 0.710699
vt 0.968648 0.997481
vt 0.953779 0.710699
vt 0.953779 0.997481
vt 0.938910 0.710699
vt 0.938910 0.997481
vt 0.924041 0.710699
vt 0.924041 0.997481
vt 0.909172 0.710699
vt 0.909172 0.997481
vt 0.894303 0.710699
vt 0.894303 0.997481
vt 0.879434 0.710699
vt 0.879434 0.997481
vt 0.864687 0.710699
vt 0.864687 0.997481
vt 0.849818 0.710699
vt 0.849818 0.997481
vt 0.759873 0.712772
vt 0.759873 0.968462
vt 0.268830 0.712772
vt 0.268830 0.968462
vt 0.706978 0.186152
vt 0.976204 0.186152
vt 0.706978 0.000695
vt 0.998630 0.000695
vt 0.711853 0.313326
vt 0.998020 0.313326
vt 0.711853 0.703993
vt 0.998020 0.703993
vt 0.707100 0.000695
vt 0.998751 0.000695
vt 0.707100 0.186030
vt 0.976326 0.186030
vt 0.002895 0.938588
vt 0.572182 0.938588
vt 0.002895 0.998944
vt 0.572182 0.998944
vt 0.345613 0.719113
vt 0.353413 0.719113
vt 0.345613 0.980777
vt 0.353413 0.980777
vt 0.339153 0.987239
vt 0.350122 0.987239
vt 0.339153 0.717893
vt 0.350122 0.717893
vt 0.705150 0.479762
vt 0.001798 0.479762
vt 0.705150 0.000451
vt 0.001798 0.000451
vt 0.670659 0.447206
vt 0.023370 0.447206
vt 0.670659 0.465130
vt 0.023370 0.465130
vt 0.001554 0.119944
vt 0.001554 0.444890
vt 0.014473 0.119944
vt 0.014473 0.444890
vt 0.666027 0.099093
vt 0.018617 0.099093
vt 0.666027 0.117017
vt 0.018617 0.117017
vt 0.036289 0.124943
vt 0.669074 0.124943
vt 0.036289 0.444890
vt 0.669074 0.444890
vt 0.021785 0.444890
vt 0.021785 0.119944
vt 0.008988 0.444890
vt 0.008988 0.119944
vt 0.017032 0.119944
vt 0.017032 0.444890
vt 0.026417 0.116164
vt 0.672609 0.116164
vt 0.026417 0.101410
vt 0.672609 0.101410
vt 0.006429 0.444890
vt 0.006429 0.119944
vt 0.036411 0.444890
vt 0.036411 0.124943
vt 0.673340 0.478177
vt 0.673340 0.447206
vt 0.023370 0.478177
vt 0.024589 0.122504
vt 0.674193 0.122504
vt 0.674193 0.445743
vt 0.024589 0.445743
vt 0.028854 0.445743
vt 0.673827 0.445743
vt 0.673827 0.122504
vt 0.028854 0.122504
vt 0.847380 0.006182
vt 0.847380 0.182007
vt 0.715997 0.006182
vt 0.715997 0.182007
vt 0.172669 0.448304
vt 0.522212 0.448304
vt 0.522212 0.475982
vt 0.172669 0.475982
vt 0.183882 0.447816
vt 0.183882 0.476592
vt 0.413376 0.447816
vt 0.413376 0.476592
s 0
usemtl TexMap
f 1/1/1 2/2/1 3/3/1
f 2/2/1 4/4/1 3/3/1
f 5/4/2 6/3/2 7/1/2
f 8/1/2 9/2/2 10/4/2
f 11/5/3 12/6/3 13/7/3
f 14/7/3 15/8/3 16/5/3
f 17/9/4 18/10/4 19/11/4
f 18/10/4 20/12/4 19/11/4
f 21/5/5 22/6/5 23/7/5
f 24/7/5 25/8/5 26/5/5
f 27/9/6 28/10/6 29/11/6
f 28/10/6 30/12/6 29/11/6
f 31/13/7 32/14/7 33/15/7
f 32/14/7 34/16/7 33/15/7
f 35/15/8 36/13/8 37/16/8
f 36/13/8 38/14/8 37/16/8
f 39/17/9 40/18/9 41/19/9
f 40/18/9 42/20/9 41/19/9
f 43/21/4 44/22/4 45/23/4
f 44/22/4 46/24/4 45/23/4
f 47/17/10 48/18/10 49/19/10
f 48/18/10 50/20/10 49/19/10
f 51/21/6 52/22/6 53/23/6
f 52/22/6 54/24/6 53/23/6
f 55/25/11 56/26/11 57/27/11
f 56/26/11 58/28/11 57/27/11
f 59/29/3 60/30/3 61/31/3
f 60/30/3 62/32/3 61/31/3
f 63/33/4 64/34/4 65/27/4
f 64/34/4 66/35/4 65/27/4
f 67/29/12 68/30/12 69/31/12
f 68/30/12 70/32/12 69/31/12
f 71/36/3 72/37/3 73/38/3
f 72/37/3 74/39/3 73/38/3
f 75/40/6 76/41/6 77/42/6
f 76/41/6 78/43/6 77/42/6
f 79/44/12 80/45/12 81/46/12
f 80/45/12 82/47/12 81/46/12
f 83/48/7 84/40/7 85/49/7
f 84/40/7 86/50/7 85/49/7
f 87/36/3 88/37/3 89/38/3
f 88/37/3 90/39/3 89/38/3
f 91/51/6 92/52/6 93/53/6
f 92/52/6 94/54/6 93/53/6
f 95/44/12 96/45/12 97/46/12
f 96/45/12 98/47/12 97/46/12
f 99/48/7 100/40/7 101/49/7
f 100/40/7 102/50/7 101/49/7
f 103/55/7 104/26/7 105/56/7
f 104/26/7 106/28/7 105/56/7
f 105/56/7 106/28/7 107/57/7
f 106/28/7 108/58/7 107/57/7
f 107/57/7 108/58/7 109/59/7
f 108/58/7 110/60/7 109/59/7
f 108/58/7 106/28/7 111/61/7
f 106/28/7 112/27/7 111/61/7
f 112/27/7 113/25/7 111/61/7
f 111/61/7 113/25/7 114/62/7
f 115/63/6 116/25/6 117/64/6
f 116/25/6 118/26/6 117/64/6
f 118/26/6 119/28/6 117/64/6
f 117/64/6 119/28/6 120/65/6
f 119/28/6 121/66/6 120/65/6
f 121/66/6 122/67/6 120/65/6
f 120/65/6 122/67/6 123/68/6
f 121/66/6 119/28/6 124/69/6
f 119/28/6 125/27/6 124/69/6
f 124/69/6 125/27/6 126/70/6
f 127/71/7 128/72/7 129/73/7
f 129/73/7 128/72/7 130/74/7
f 131/75/4 132/76/4 133/77/4
f 133/77/4 132/76/4 134/78/4
f 135/79/6 136/80/6 137/81/6
f 137/81/6 136/80/6 138/82/6
f 137/81/6 139/83/6 135/79/6
f 135/79/6 139/83/6 140/84/6
f 139/83/6 141/85/6 140/84/6
f 140/84/6 141/85/6 142/86/6
f 142/86/6 141/85/6 143/87/6
f 141/85/6 144/88/6 143/87/6
f 143/87/6 144/88/6 138/82/6
f 144/88/6 137/81/6 138/82/6
f 145/89/13 146/90/13 147/91/13
f 146/90/13 148/92/13 147/91/13
f 149/93/14 150/94/14 151/95/14
f 150/94/15 152/96/15 151/95/15
f 151/95/16 152/96/16 153/97/16
f 154/98/7 155/99/7 156/100/7
f 156/100/7 155/99/7 157/101/7
f 158/102/6 159/103/6 160/104/6
f 160/104/6 159/103/6 161/105/6
f 162/106/17 163/107/17 164/108/17
f 163/107/18 165/109/18 164/108/18
f 164/108/19 165/109/19 166/110/19
f 167/111/20 168/112/20 169/113/20
f 169/113/20 168/112/20 170/114/20
f 171/115/21 172/114/21 173/116/21
f 173/116/21 172/114/21 174/117/21
f 175/118/22 176/119/22 177/120/22
f 177/120/23 176/119/23 178/121/23
f 179/122/24 180/123/24 181/124/24
f 181/124/24 180/123/24 182/125/24
f 183/126/25 184/127/25 185/128/25
f 185/128/26 184/127/26 186/129/26
f 187/130/27 188/131/27 189/132/27
f 189/132/27 188/131/27 190/133/27
f 191/134/28 192/135/28 193/136/28
f 193/136/28 192/135/28 194/137/28
f 195/136/29 196/134/29 197/137/29
f 197/137/29 196/134/29 198/135/29
f 199/6/30 200/7/30 201/5/30
f 201/5/30 200/7/30 202/8/30
f 203/9/4 204/10/4 205/11/4
f 205/11/4 204/10/4 206/12/4
f 207/6/31 208/7/31 209/5/31
f 209/5/31 208/7/31 210/8/31
f 211/9/6 212/10/6 213/11/6
f 213/11/6 212/10/6 214/12/6
f 215/138/32 216/139/32 217/134/32
f 217/134/32 216/139/32 218/140/32
f 219/134/33 220/138/33 221/140/33
f 221/140/33 220/138/33 222/139/33
f 223/6/34 224/7/34 225/5/34
f 225/5/34 224/7/34 226/8/34
f 227/9/4 228/10/4 229/11/4
f 229/11/4 228/10/4 230/12/4
f 231/6/35 232/7/35 233/5/35
f 233/5/35 232/7/35 234/8/35
f 235/9/6 236/10/6 237/11/6
f 237/11/6 236/10/6 238/12/6
f 239/141/7 240/142/7 241/143/7
f 241/143/7 240/142/7 242/144/7
f 243/143/11 244/141/11 245/144/11
f 245/144/11 244/141/11 246/142/11
f 247/6/3 248/7/3 249/5/3
f 249/5/3 248/7/3 250/8/3
f 251/9/4 252/10/4 253/11/4
f 253/11/4 252/10/4 254/12/4
f 255/6/12 256/7/12 257/5/12
f 257/5/12 256/7/12 258/8/12
f 259/9/6 260/10/6 261/11/6
f 261/11/6 260/10/6 262/12/6
f 263/145/36 264/146/36 265/147/36
f 265/147/36 264/146/36 266/148/36
f 267/147/37 268/145/37 269/148/37
f 269/148/37 268/145/37 270/146/37
f 271/149/38 272/150/38 273/151/38
f 273/151/38 272/150/38 274/152/38
f 275/153/4 276/154/4 277/155/4
f 277/155/4 276/154/4 278/156/4
f 279/149/31 280/150/31 281/151/31
f 281/151/31 280/150/31 282/152/31
f 283/153/6 284/154/6 285/155/6
f 285/155/6 284/154/6 286/156/6
f 287/157/39 288/158/39 289/159/39
f 288/158/39 290/160/39 289/159/39
f 289/159/40 290/160/40 291/161/40
f 290/160/40 292/162/40 291/161/40
f 291/161/41 292/162/41 293/163/41
f 292/162/41 294/164/41 293/163/41
f 293/163/42 294/164/42 295/165/42
f 294/164/42 296/166/42 295/165/42
f 295/165/3 296/166/3 297/167/3
f 296/166/3 298/168/3 297/167/3
f 297/167/43 298/168/43 299/169/43
f 298/168/43 300/170/43 299/169/43
f 299/169/44 300/170/44 301/171/44
f 300/170/44 302/172/44 301/171/44
f 301/171/45 302/172/45 303/173/45
f 302/172/45 304/174/45 303/173/45
f 303/173/46 304/174/46 305/175/46
f 304/174/46 306/176/46 305/175/46
f 305/175/12 306/176/12 307/177/12
f 306/176/12 308/178/12 307/177/12
f 309/179/3 310/180/3 311/181/3
f 310/180/3 312/182/3 311/181/3
f 313/183/4 314/184/4 315/185/4
f 314/184/4 316/186/4 315/185/4
f 317/187/12 318/188/12 319/189/12
f 318/188/12 320/190/12 319/189/12
f 321/191/6 322/192/6 323/193/6
f 322/192/6 324/194/6 323/193/6
f 325/195/47 326/196/47 327/197/47
f 326/196/47 328/198/47 327/197/47
f 329/197/48 330/195/48 331/198/48
f 330/195/48 332/196/48 331/198/48
f 333/199/49 334/200/49 335/201/49
f 334/200/49 336/202/49 335/201/49
f 337/203/12 338/204/12 339/205/12
f 338/204/12 340/206/12 339/205/12
f 341/199/50 342/200/50 343/201/50
f 342/200/50 344/202/50 343/201/50
f 345/203/3 346/204/3 347/205/3
f 346/204/3 348/206/3 347/205/3
f 349/195/51 350/196/51 351/197/51
f 350/196/51 352/198/51 351/197/51
f 353/197/52 354/195/52 355/198/52
f 354/195/52 356/196/52 355/198/52
f 357/199/53 358/200/53 359/201/53
f 358/200/53 360/202/53 359/201/53
f 361/203/3 362/204/3 363/205/3
f 362/204/3 364/206/3 363/205/3
f 365/199/54 366/200/54 367/201/54
f 366/200/54 368/202/54 367/201/54
f 369/203/12 370/204/12 371/205/12
f 370/204/12 372/206/12 371/205/12
f 373/207/4 374/208/4 375/209/4
f 374/208/4 376/210/4 375/209/4
f 377/209/12 378/207/12 379/210/12
f 378/207/12 380/208/12 379/210/12
f 381/211/7 382/212/7 383/213/7
f 382/212/7 384/214/7 383/213/7
f 385/215/4 386/216/4 387/217/4
f 386/216/4 388/218/4 387/217/4
f 389/219/11 390/220/11 391/221/11
f 390/220/11 392/222/11 391/221/11
f 393/223/3 394/224/3 395/225/3
f 394/224/3 396/226/3 395/225/3
f 397/227/6 398/228/6 399/229/6
f 398/228/6 400/230/6 399/229/6
f 401/215/3 402/216/3 403/231/3
f 402/216/3 404/232/3 403/231/3
f 405/233/11 406/234/11 407/235/11
f 406/234/11 408/236/11 407/235/11
f 409/227/12 410/228/12 411/237/12
f 410/228/12 412/238/12 411/237/12
f 413/226/6 414/239/6 415/224/6
f 414/239/6 416/240/6 415/224/6
f 417/241/7 418/242/7 419/243/7
f 418/242/7 420/212/7 419/243/7
f 421/244/6 422/210/6 423/245/6
f 422/210/6 424/209/6 423/245/6
f 423/245/6 424/209/6 425/246/6
f 424/209/6 426/207/6 425/246/6
f 425/246/6 426/207/6 427/247/6
f 426/207/6 428/208/6 427/247/6
f 428/208/6 422/210/6 427/247/6
f 427/247/6 422/210/6 421/244/6
f 429/208/3 430/248/3 431/207/3
f 430/248/3 432/249/3 431/207/3
f 431/207/3 432/249/3 433/209/3
f 432/249/3 434/250/3 433/209/3
f 433/209/3 434/250/3 435/210/3
f 434/250/3 436/251/3 435/210/3
f 436/251/3 430/248/3 435/210/3
f 435/210/3 430/248/3 429/208/3
f 437/252/55 438/253/55 439/254/55
f 439/254/55 438/253/55 440/255/55
f 441/255/56 442/254/56 443/252/56
f 444/252/57 445/253/57 446/255/57
f 447/256/58 448/257/58 449/258/58
f 450/258/58 451/259/58 452/256/58
f 453/260/4 454/261/4 455/262/4
f 455/262/4 454/261/4 456/263/4
f 457/257/59 458/258/59 459/256/59
f 459/256/59 458/258/59 460/259/59
f 461/260/6 462/261/6 463/262/6
f 463/262/6 462/261/6 464/263/6
