{
	"asset":{
		"generator":"Khronos glTF Blender I/O v4.4.56",
		"version":"2.0"
	},
	"scene":0,
	"scenes":[
		{
			"name":"Scene",
			"nodes":[
				0
			]
		}
	],
	"nodes":[
		{
			"mesh":0,
			"name":"v60",
			"scale":[
				1.0375492572784424,
				1,
				1
			],
			"translation":[
				0.9111859798431396,
				1.048769474029541,
				5.152756214141846
			]
		}
	],
	"materials":[
		{
			"alphaMode":"BLEND",
			"name":"mat_v60",
			"normalTexture":{
				"index":0
			},
			"pbrMetallicRoughness":{
				"baseColorTexture":{
					"index":1
				},
				"metallicFactor":0.4681818187236786,
				"roughnessFactor":0.7727272510528564
			}
		}
	],
	"meshes":[
		{
			"name":"Walec",
			"primitives":[
				{
					"attributes":{
						"POSITION":0,
						"NORMAL":1,
						"TEXCOORD_0":2
					},
					"indices":3,
					"material":0
				}
			]
		}
	],
	"textures":[
		{
			"sampler":0,
			"source":0
		},
		{
			"sampler":0,
			"source":1
		}
	],
	"images":[
		{
			"mimeType":"image/png",
			"name":"tex_dr_v60_n",
			"uri":"tex_dr_v60_n.png"
		},
		{
			"mimeType":"image/png",
			"name":"tex_dr_v60_d",
			"uri":"tex_dr_v60_d.png"
		}
	],
	"accessors":[
		{
			"bufferView":0,
			"componentType":5126,
			"count":5528,
			"max":[
				0.5732905864715576,
				3.08711576461792,
				0.20617593824863434
			],
			"min":[
				-2.3297102451324463,
				-1.0369662046432495,
				-10.511689186096191
			],
			"type":"VEC3"
		},
		{
			"bufferView":1,
			"componentType":5126,
			"count":5528,
			"type":"VEC3"
		},
		{
			"bufferView":2,
			"componentType":5126,
			"count":5528,
			"type":"VEC2"
		},
		{
			"bufferView":3,
			"componentType":5123,
			"count":13902,
			"type":"SCALAR"
		}
	],
	"bufferViews":[
		{
			"buffer":0,
			"byteLength":66336,
			"byteOffset":0,
			"target":34962
		},
		{
			"buffer":0,
			"byteLength":66336,
			"byteOffset":66336,
			"target":34962
		},
		{
			"buffer":0,
			"byteLength":44224,
			"byteOffset":132672,
			"target":34962
		},
		{
			"buffer":0,
			"byteLength":27804,
			"byteOffset":176896,
			"target":34963
		}
	],
	"samplers":[
		{
			"magFilter":9729,
			"minFilter":9987
		}
	],
	"buffers":[
		{
			"byteLength":204700,
			"uri":"dr_v60.bin"
		}
	]
}
