# Blender 5.0.1
# www.blender.org
mtllib old_city_house_bakery.mtl
o old_house_bakery
v -4.539277 2.581795 0.624585
v -4.539277 2.581795 -0.574249
v 3.779257 2.581795 0.624585
v 3.779257 2.581795 -0.574249
v 3.942789 11.157991 -0.369675
v 3.942789 -0.142420 3.642934
v 3.942789 6.122968 3.642935
v 3.942788 -0.142420 -4.150362
v 3.942788 6.122969 -4.150362
v -4.705754 6.122969 -4.150361
v -4.705754 -0.142420 -4.150362
v -4.705753 -0.142420 3.642935
v -4.705753 6.122968 3.642936
v -4.705753 11.157991 -0.369674
v -4.705753 3.761103 1.516861
v -4.705754 3.761103 -2.067478
v -4.705754 3.761103 -2.134745
v -4.705754 2.944299 -2.134744
v -4.705753 2.944298 1.516861
v 3.942789 2.581795 0.624585
v 3.942789 -0.142420 -0.574249
v 3.942788 2.581795 -0.574249
v 3.942789 -0.142420 0.624585
v 3.779257 -0.142420 0.624585
v 3.779257 -0.142420 -0.574249
v -4.705753 2.581795 -0.574249
v -4.705753 1.805351 -0.574249
v -4.539277 -0.142420 -0.574249
v -4.705753 -0.142420 -0.574249
v -4.705753 -0.142420 0.624584
v -4.705753 2.581795 0.624585
v -4.539277 -0.142420 0.624585
v -4.705753 2.458309 0.624585
vn -0.0000 -1.0000 -0.0000
vn 1.0000 -0.0000 -0.0000
vn -0.0000 -0.0000 -1.0000
vn -0.0000 -0.0000 1.0000
vn -1.0000 -0.0000 -0.0000
vn -0.0000 0.6232 0.7820
vn -0.0000 0.6004 -0.7997
vt 0.781277 0.500000
vt 0.625000 0.750000
vt 0.625000 0.500000
vt 0.295369 0.767279
vt 0.036634 0.435985
vt 0.030770 0.023736
vt 0.229806 0.202984
vt 0.308860 0.202984
vt 0.544676 0.023736
vt 0.538812 0.435985
vt 0.566639 0.971169
vt 0.960369 0.492470
vt 0.960369 0.971169
vt 0.566639 0.492470
vt 0.229806 0.023736
vt 0.308860 0.023736
vt 0.308860 0.023736
vt 0.229806 0.023736
vt 0.566639 0.492470
vt 0.960369 0.492470
vt 0.170968 0.280580
vt 0.407326 0.280580
vt 0.411762 0.280580
vt 0.411762 0.226836
vt 0.170968 0.226836
vt 0.229806 0.023736
vt 0.229806 0.202984
vt 0.000000 1.629132
vt -1.500000 0.704028
vt 0.000000 0.704028
vt -1.500000 1.629132
vt 1.500000 0.952231
vt 0.000000 0.047519
vt 1.500000 0.047519
vt 0.000000 0.952231
vt 0.177135 0.279587
vt 0.412708 0.226644
vt 0.412708 0.279587
vt 0.172715 0.226644
vt 0.172715 0.279587
vt 0.875000 0.500000
vt 0.715908 0.750000
vt 0.715908 0.500000
vt 0.377063 0.205679
vt 0.367905 0.053105
vt 0.377064 0.053105
vt 0.376921 0.205679
vt 0.367597 0.053105
vt 0.367597 0.198763
vt 0.308820 0.202670
vt 0.228960 0.021197
vt 0.308820 0.021197
vt 0.308860 0.151895
vt 0.367905 0.205679
vt 0.377064 0.053105
vt 0.228960 0.202670
vt 0.228960 0.021197
vt 0.376921 0.205679
vt 0.367597 0.162193
vt 0.781277 0.750000
vt 0.308860 0.023736
vt 0.229806 0.194859
vt 0.308860 0.202984
vt 0.875000 0.750000
vt 0.367905 0.205679
vt 0.367597 0.205679
vt 0.376921 0.053105
vt 0.377064 0.205679
vt 0.376921 0.053105
vt 0.367597 0.205679
s 0
usemtl mat_old_house_bakery
f 22/1/1 3/2/1 4/3/1
s 1
f 5/4/2 7/5/2 6/6/2
f 20/7/2 22/8/2 5/4/2
f 8/9/2 9/10/2 5/4/2
f 10/11/3 8/12/3 11/13/3
f 8/12/3 10/11/3 9/14/3
f 8/9/1 32/15/1 28/16/1
f 12/6/1 25/17/1 24/18/1
f 7/19/4 12/13/4 6/20/4
f 12/13/4 7/19/4 13/11/4
f 14/4/5 12/6/5 13/5/5
f 12/6/5 14/4/5 15/21/5
f 15/21/5 14/4/5 16/22/5
f 16/22/5 14/4/5 10/10/5
f 16/22/5 10/10/5 17/23/5
f 17/23/5 10/10/5 18/24/5
f 19/25/5 30/26/5 12/6/5
f 19/25/5 12/6/5 15/21/5
f 31/27/5 19/25/5 18/24/5
f 11/9/5 18/24/5 10/10/5
f 16/36/5 19/37/5 15/38/5
f 19/37/5 16/36/5 18/39/5
f 18/39/5 16/36/5 17/40/5
s 0
f 2/41/1 31/42/1 26/43/1
f 22/44/4 25/45/4 21/46/4
f 1/47/3 30/48/3 33/49/3
f 4/50/2 24/51/2 25/52/2
s 1
f 29/16/5 27/53/5 11/9/5
s 0
f 3/54/3 23/55/3 24/45/3
f 1/56/5 28/52/5 32/57/5
f 2/58/4 27/59/4 29/48/4
f 22/1/1 20/60/1 3/2/1
s 1
f 6/6/2 23/18/2 20/7/2
f 22/8/2 21/61/2 8/9/2
f 5/4/2 6/6/2 20/7/2
f 22/8/2 8/9/2 5/4/2
f 12/6/1 30/26/1 32/15/1
f 28/16/1 29/16/1 11/9/1
f 8/9/1 12/6/1 32/15/1
f 28/16/1 11/9/1 8/9/1
f 8/9/1 21/61/1 25/17/1
f 24/18/1 23/18/1 6/6/1
f 12/6/1 8/9/1 25/17/1
f 24/18/1 6/6/1 12/6/1
f 19/25/5 33/62/5 30/26/5
f 18/24/5 11/9/5 27/53/5
f 18/24/5 27/53/5 26/63/5
f 31/27/5 33/62/5 19/25/5
f 18/24/5 26/63/5 31/27/5
s 0
f 2/41/1 1/64/1 31/42/1
f 22/44/4 4/65/4 25/45/4
f 33/49/3 31/66/3 1/47/3
f 1/47/3 32/67/3 30/48/3
f 4/50/2 3/56/2 24/51/2
f 3/54/3 20/68/3 23/55/3
f 1/56/5 2/50/5 28/52/5
f 29/48/4 28/69/4 2/58/4
f 2/58/4 26/70/4 27/59/4
s 1
usemtl mat_roof
f 5/28/6 13/29/6 7/30/6
f 13/29/6 5/28/6 14/31/6
f 14/32/7 9/33/7 10/34/7
f 9/33/7 14/32/7 5/35/7
