<?xml version="1.0" encoding="UTF-8" standalone="no"?>
<!-- Created with Inkscape (http://www.inkscape.org/) -->

<svg
   width="32"
   height="32"
   viewBox="0 0 8.4666665 8.4666666"
   version="1.1"
   id="svg5"
   xml:space="preserve"
   inkscape:version="1.2.2 (b0a8486541, 2022-12-01)"
   sodipodi:docname="icon_locomotive.svg"
   inkscape:export-filename="icon_locomotive.png"
   inkscape:export-xdpi="96"
   inkscape:export-ydpi="96"
   xmlns:inkscape="http://www.inkscape.org/namespaces/inkscape"
   xmlns:sodipodi="http://sodipodi.sourceforge.net/DTD/sodipodi-0.dtd"
   xmlns="http://www.w3.org/2000/svg"
   xmlns:svg="http://www.w3.org/2000/svg"><sodipodi:namedview
     id="namedview7"
     pagecolor="#ffffff"
     bordercolor="#000000"
     borderopacity="0.25"
     inkscape:showpageshadow="2"
     inkscape:pageopacity="0.0"
     inkscape:pagecheckerboard="0"
     inkscape:deskcolor="#d1d1d1"
     inkscape:document-units="mm"
     showgrid="false"
     inkscape:zoom="14.481547"
     inkscape:cx="14.259526"
     inkscape:cy="14.32858"
     inkscape:window-width="1920"
     inkscape:window-height="984"
     inkscape:window-x="0"
     inkscape:window-y="0"
     inkscape:window-maximized="1"
     inkscape:current-layer="layer1" /><defs
     id="defs2" /><g
     inkscape:label="Ebene 1"
     inkscape:groupmode="layer"
     id="layer1"><path
       style="fill:#f66151;stroke-width:0.00826823"
       d="M 2.0396599,7.6644751 C 1.8681987,7.6361364 1.6890302,7.5301244 1.5779426,7.3912821 1.3546292,7.1121748 1.3542767,6.7216857 1.5770869,6.4432075 1.6729949,6.3233372 1.8267175,6.2229573 1.973514,6.1843431 2.1183789,6.1462371 2.3011367,6.1561751 2.4388828,6.2096501 2.5693615,6.2603031 2.702501,6.3642119 2.7850142,6.4797878 2.939925,6.696771 2.967026,6.9918764 2.8541602,7.232726 2.7261693,7.5058517 2.4599755,7.6752676 2.1636835,7.6721719 2.1182085,7.6716965 2.0623977,7.6682319 2.0396601,7.6644719 Z M 2.3083773,7.2215244 c 0.097599,-0.045955 0.1635891,-0.1283732 0.1870306,-0.233591 0.011872,-0.053287 0.01254,-0.071636 0.00435,-0.119484 -0.019585,-0.1144392 -0.086309,-0.2044549 -0.1890397,-0.2550288 -0.052414,-0.025804 -0.060925,-0.02744 -0.1427281,-0.02744 -0.080677,0 -0.091035,0.00192 -0.1427243,0.026402 -0.2804218,0.1328374 -0.2504514,0.5294027 0.047466,0.6280632 0.02032,0.00673 0.061767,0.010072 0.107487,0.00867 0.062927,-0.00193 0.08271,-0.00619 0.1281575,-0.02759 z m 1.9430338,0.436127 C 4.1108207,7.6265638 3.9915585,7.5620297 3.8847383,7.4592408 3.7159369,7.2968097 3.6355657,7.0790536 3.6572702,6.8429434 c 0.0286,-0.3111189 0.2533866,-0.5755077 0.5602432,-0.658944 0.095119,-0.025863 0.2404309,-0.029788 0.339905,-0.00918 0.296787,0.061485 0.519552,0.2790426 0.59255,0.5786979 0.018394,0.075507 0.018394,0.2508786 0,0.3263852 -0.057619,0.2365228 -0.2101038,0.4254327 -0.4226826,0.5236502 -0.1017096,0.046993 -0.1698598,0.062335 -0.2939737,0.066181 -0.088479,0.00274 -0.126192,2.365e-4 -0.181901,-0.012082 z M 4.5197291,7.2344762 C 4.7251105,7.1576332 4.807257,6.9266012 4.6955202,6.7400747 4.6617262,6.6836607 4.6169972,6.6444917 4.5490673,6.6118252 4.4993593,6.5879212 4.4887923,6.5859812 4.4083335,6.5859812 c -0.081229,0 -0.090564,0.00176 -0.1409556,0.026567 -0.1002456,0.049351 -0.1682755,0.1386767 -0.1901001,0.2496093 -0.030843,0.1567738 0.075305,0.3277076 0.2343759,0.3774209 0.055364,0.017303 0.154704,0.014867 0.2080754,-0.0051 z M 6.5086375,7.6614136 C 6.2060619,7.5973216 5.9709857,7.3643094 5.9099204,7.0679538 c -0.016816,-0.081611 -0.016816,-0.2208767 0,-0.3024875 0.052658,-0.2555548 0.2404535,-0.4723795 0.4846087,-0.5595192 0.1050803,-0.037503 0.1857476,-0.049236 0.2985244,-0.043418 0.3311751,0.017085 0.6050423,0.2416908 0.6934273,0.568698 0.026983,0.099831 0.026983,0.2711345 0,0.3709652 C 7.3146018,7.3681319 7.1212148,7.567248 6.8596293,7.644653 6.7681173,7.671732 6.5961247,7.679945 6.5086375,7.6614136 Z m 0.282709,-0.4375827 c 0.072399,-0.03479 0.1254807,-0.087543 0.161577,-0.1605791 0.029761,-0.060216 0.031137,-0.066676 0.031137,-0.146113 0,-0.076013 -0.00222,-0.087788 -0.025947,-0.1378747 -0.06356,-0.134147 -0.1775812,-0.2030161 -0.3242981,-0.1958767 -0.089172,0.00434 -0.147534,0.029178 -0.2121513,0.09029 -0.1345893,0.1272889 -0.1413155,0.3359865 -0.015175,0.4708411 0.075583,0.080805 0.1432157,0.1080395 0.2592449,0.1043953 0.065433,-0.00206 0.086406,-0.00624 0.1256125,-0.025083 z M 0.88624195,5.4532335 V 3.7954537 H 0.71768765 0.54913335 L 0.39590765,3.5350045 0.24268185,3.2745553 H 2.0899501 3.9372184 v 0.8018051 0.8018051 l 1.5110188,0.00262 c 1.4147769,0.00246 1.5149685,0.00356 1.5730305,0.017345 0.2224274,0.0528 0.382769,0.1394518 0.5294324,0.2861153 0.2317681,0.2317724 0.3401748,0.5521672 0.2938363,0.8684343 -0.023451,0.1600542 -0.075284,0.2952363 -0.1640586,0.4278666 l -0.044794,0.066923 0.1909528,0.00306 c 0.1748344,0.0028 0.1942741,0.00458 0.2303008,0.02106 0.05504,0.025178 0.1175597,0.086539 0.1441764,0.1415026 0.018978,0.039189 0.022579,0.057596 0.022855,0.1168002 2.794e-4,0.060046 -0.00293,0.07691 -0.022035,0.1158108 -0.029189,0.059433 -0.08222,0.112746 -0.1388688,0.1396098 -0.044118,0.020922 -0.050977,0.021644 -0.22984,0.024204 l -0.1843647,0.00264 0.0066,-0.064651 C 7.6884405,6.7243126 7.5955832,6.4424476 7.3832734,6.2213007 7.2319203,6.0636478 7.0616765,5.9688505 6.8476349,5.9230399 6.7547818,5.9031668 6.5407558,5.9033161 6.4521024,5.9233161 6.0556255,6.0127591 5.770714,6.2877106 5.667633,6.6803623 5.649941,6.7477543 5.646661,6.7794103 5.645717,6.8919057 c -6.102e-4,0.07276 0.00181,0.1518253 0.00538,0.1756998 l 0.00649,0.043408 H 5.5302047 5.4028298 l 0.00788,-0.039274 C 5.4238558,7.0062425 5.4211028,6.8171354 5.4058498,6.7374368 5.3682698,6.5411337 5.2808464,6.3685786 5.1467517,6.226035 5.0010588,6.0711623 4.8168603,5.9680937 4.605009,5.9229015 4.513228,5.9033225 4.2986633,5.9035935 4.2100737,5.9234006 4.003446,5.9695976 3.8431158,6.0565091 3.6970314,6.2015082 3.5394476,6.3579213 3.4392394,6.5553372 3.4076033,6.771698 c -0.010225,0.069931 -0.00708,0.2968398 0.00451,0.324846 0.00555,0.01342 -0.00343,0.014469 -0.1239422,0.014469 -0.1205074,0 -0.1294929,-0.00105 -0.1239421,-0.014469 C 3.175812,7.068538 3.178959,6.8416289 3.168739,6.771698 3.1374408,6.5577414 3.0372644,6.3588979 2.883427,6.2053994 2.6931206,6.0155124 2.4736111,5.9188607 2.2050244,5.9066937 1.7073082,5.8841471 1.2645461,6.2397561 1.1706823,6.7374365 c -0.01478,0.078363 -0.017431,0.2566125 -0.00491,0.3301687 l 0.00739,0.043408 H 1.0297012 0.88624195 Z M 3.308833,4.3287544 V 3.95255 H 2.4117302 1.5146274 V 4.3287544 4.7049588 H 2.4117302 3.308833 Z m 2.7450519,-0.00799 V 4.0109871 l -0.088883,-0.00235 -0.088884,-0.00235 V 3.7747831 3.5432727 l 0.543636,-0.00213 0.5436361,-0.00213 v 0.235711 0.2357039 H 6.876574 6.789758 V 4.3204862 4.6305448 H 6.4218218 6.0538856 Z M 6.1184469,3.0574061 6.1158969,2.7656562 6.0890259,2.7111002 C 5.9986789,2.5276727 5.7685283,2.4832976 5.6107546,2.6188852 5.5786536,2.6464722 5.5511956,2.6912672 5.5223476,2.7631115 5.4736876,2.8842974 5.4062184,2.9665629 5.2938427,3.0417297 5.1648781,3.1279927 5.0329572,3.1642282 4.8763346,3.156409 4.7616274,3.150679 4.7075183,3.136506 4.6014622,3.084395 4.4293653,2.999833 4.2985422,2.8370715 4.2515169,2.6490143 l -0.00859,-0.034363 -0.043299,0.011527 C 4.1428359,2.6412973 4.0291941,2.6408223 3.9628758,2.6251899 3.7965669,2.5859879 3.6530952,2.4447478 3.6107716,2.2785637 3.5865776,2.1835647 3.5991506,2.0473896 3.6393996,1.968494 3.6530006,1.941833 3.6532576,1.937252 3.6419796,1.922523 3.6162756,1.888954 3.5647236,1.771664 3.5475716,1.7077262 c -0.025193,-0.093911 -0.02517,-0.2617807 4.96e-5,-0.3555338 0.020093,-0.074702 0.06157,-0.166896 0.1013406,-0.2252608 0.035877,-0.052651 0.1256298,-0.14589467 0.1766376,-0.18350847 0.2222903,-0.1639195 0.5270485,-0.1954279 0.7763115,-0.080261 0.149186,0.068928 0.2753834,0.18416267 0.3444468,0.31452467 0.014593,0.027544 0.023726,0.036676 0.03266,0.032654 0.050533,-0.022749 0.1608067,-0.043367 0.2340123,-0.043754 0.1033577,-5.465e-4 0.1805043,0.01671 0.2744838,0.061398 0.1218408,0.057936 0.2167454,0.1480329 0.2774269,0.2633718 0.014759,0.028053 0.027717,0.052135 0.028797,0.053514 0.00108,0.00138 0.032746,-0.00373 0.07037,-0.011353 0.1010145,-0.020468 0.2677404,-0.013087 0.3657965,0.016195 0.232194,0.069338 0.4182228,0.2362245 0.5046804,0.4527476 0.052359,0.1311282 0.051041,0.11162 0.051041,0.7553312 v 0.5870437 l -0.3323131,0.00216 -0.3323131,0.00216 -0.00255,-0.29175 z"
       id="path854" /></g></svg>
