<?xml version="1.0" encoding="UTF-8" standalone="no"?>
<!-- Created with Inkscape (http://www.inkscape.org/) -->

<svg
   width="32"
   height="32"
   viewBox="0 0 8.4666665 8.4666666"
   version="1.1"
   id="svg5"
   xml:space="preserve"
   inkscape:version="1.2.2 (b0a8486541, 2022-12-01)"
   sodipodi:docname="icon_input.svg"
   inkscape:export-filename="icon_deco_white.png"
   inkscape:export-xdpi="96"
   inkscape:export-ydpi="96"
   xmlns:inkscape="http://www.inkscape.org/namespaces/inkscape"
   xmlns:sodipodi="http://sodipodi.sourceforge.net/DTD/sodipodi-0.dtd"
   xmlns="http://www.w3.org/2000/svg"
   xmlns:svg="http://www.w3.org/2000/svg"><sodipodi:namedview
     id="namedview7"
     pagecolor="#ffffff"
     bordercolor="#000000"
     borderopacity="0.25"
     inkscape:showpageshadow="2"
     inkscape:pageopacity="0.0"
     inkscape:pagecheckerboard="0"
     inkscape:deskcolor="#d1d1d1"
     inkscape:document-units="mm"
     showgrid="false"
     inkscape:zoom="7.4825836"
     inkscape:cx="20.647948"
     inkscape:cy="2.3387644"
     inkscape:window-width="1920"
     inkscape:window-height="984"
     inkscape:window-x="0"
     inkscape:window-y="0"
     inkscape:window-maximized="1"
     inkscape:current-layer="layer1" /><defs
     id="defs2" /><g
     inkscape:label="Ebene 1"
     inkscape:groupmode="layer"
     id="layer1"><path
       style="fill:#ffffff;stroke-width:0.00912946"
       d="M 1.3776742,7.7760951 C 1.0400742,7.7026345 0.68913521,7.1985739 0.60213201,6.6621686 0.59386341,6.6111895 0.58882241,6.515835 0.58885801,6.4110803 0.58918971,5.4364901 0.98547721,4.4025955 1.6015192,3.7690948 c 0.272345,-0.280063 0.53255,-0.4409527 0.79275,-0.4901715 0.08102,-0.015325 0.262235,-0.0063 0.354188,0.017634 0.207925,0.054124 0.344463,0.1418983 0.64758,0.4163012 0.230539,0.2086999 0.367854,0.3000954 0.534103,0.3554932 0.288825,0.096243 0.59274,0.052724 0.854335,-0.1223343 0.08291,-0.05548 0.170356,-0.1274694 0.332466,-0.2736869 0.275842,-0.248799 0.429029,-0.3399077 0.648192,-0.385514 0.122551,-0.025502 0.290445,-0.019239 0.405811,0.015138 0.283233,0.084398 0.597631,0.3238206 0.869556,0.6621896 0.08312,0.1034258 0.238975,0.3336922 0.306042,0.452149 0.338658,0.5981501 0.528324,1.3055792 0.531142,1.9810931 7.74e-4,0.1855791 -0.0016,0.2221299 -0.02028,0.3145622 -0.07358,0.3637805 -0.267038,0.723186 -0.492677,0.9152991 -0.136368,0.1161067 -0.242717,0.1583868 -0.394507,0.156841 -0.127,-0.00129 -0.231879,-0.027568 -0.360613,-0.090343 C 6.4534772,7.6176111 6.3433142,7.5275895 6.0344322,7.2237322 5.7636492,6.9573545 5.6611262,6.8645149 5.5277672,6.7649241 5.2595372,6.5646128 4.9688012,6.4409345 4.6285152,6.3823845 c -0.139786,-0.024052 -0.490037,-0.03349 -0.649693,-0.017508 -0.418774,0.041922 -0.783726,0.1932899 -1.125988,0.4670173 -0.05272,0.042166 -0.2218,0.2003996 -0.375727,0.3516313 -0.379077,0.372438 -0.51379,0.4776862 -0.701819,0.5483125 -0.08323,0.031263 -0.22568,0.058244 -0.301003,0.057012 -0.02259,-3.697e-4 -0.06607,-0.00611 -0.09661,-0.012755 z m 4.683868,-1.6268839 c 0.09275,-0.032277 0.171366,-0.103389 0.213377,-0.1930051 0.02147,-0.045791 0.02429,-0.062949 0.02429,-0.1476704 0,-0.084896 -0.0028,-0.1018301 -0.02447,-0.1480623 -0.10608,-0.2263291 -0.407521,-0.2818138 -0.582177,-0.1071583 -0.141068,0.1410683 -0.141674,0.3689001 -0.0014,0.5090267 0.09592,0.095793 0.244528,0.1306506 0.370335,0.086869 z M 2.8071872,5.8086658 V 5.5257824 l 0.285295,-0.00241 0.285296,-0.00241 V 5.2379442 4.9549308 l -0.285296,-0.00241 -0.285295,-0.00241 V 4.6672225 4.3843392 H 2.5196092 2.2320302 V 4.6673526 4.950366 h -0.283013 -0.283013 v 0.2875782 0.2875781 h 0.283013 0.283013 v 0.2830134 0.2830134 h 0.287579 0.287578 z M 5.4736162,5.584058 c 0.102683,-0.030026 0.182136,-0.1001229 0.23064,-0.2034807 0.02517,-0.053631 0.02838,-0.069758 0.02838,-0.1426331 0,-0.072875 -0.0032,-0.089002 -0.02838,-0.1426331 -0.01561,-0.033257 -0.04343,-0.077132 -0.06183,-0.097499 -0.172955,-0.1914412 -0.482181,-0.1448024 -0.593207,0.08947 -0.02559,0.054005 -0.02814,0.067614 -0.02814,0.1506623 0,0.083218 0.0025,0.096544 0.02828,0.1506361 0.07744,0.1625031 0.25587,0.2447167 0.424256,0.1954775 z m 1.141183,-1.908e-4 c 0.10407,-0.030832 0.181263,-0.097946 0.228324,-0.198512 0.06547,-0.1399063 0.03684,-0.2884005 -0.07787,-0.4038353 -0.07554,-0.076017 -0.133623,-0.098941 -0.251706,-0.099335 -0.08018,-2.675e-4 -0.09167,0.00205 -0.148061,0.029808 -0.07789,0.038348 -0.139355,0.099885 -0.17509,0.1752882 -0.02559,0.054005 -0.02814,0.067614 -0.02814,0.1506623 0,0.083218 0.0025,0.096544 0.02828,0.1506362 0.07748,0.1625918 0.256487,0.2449901 0.424256,0.1952877 z M 6.0615422,5.0080615 c 0.09284,-0.032395 0.171376,-0.1034439 0.213377,-0.1930384 0.02147,-0.045791 0.02429,-0.062949 0.02429,-0.1476705 0,-0.084896 -0.0028,-0.10183 -0.02447,-0.1480623 C 6.1683012,4.2921967 5.8704262,4.237915 5.6923872,4.413168 c -0.141449,0.1392355 -0.141449,0.3691337 0,0.5083693 0.09833,0.096792 0.24273,0.1306372 0.369155,0.086524 z M 4.1522532,3.5098287 c -0.08779,-0.031377 -0.152162,-0.097506 -0.181812,-0.1867724 -0.0392,-0.1180198 0.01993,-0.402191 0.128786,-0.6189694 0.09773,-0.1946069 0.272297,-0.3966042 0.449616,-0.5202548 0.349551,-0.2437524 0.752024,-0.3517478 1.376056,-0.3692355 0.293262,-0.00822 0.447102,-0.033496 0.614392,-0.1009529 0.210181,-0.084752 0.380496,-0.24444 0.467887,-0.4386922 0.03661,-0.081384 0.07007,-0.2065761 0.07741,-0.28968057 0.01308,-0.1481094 0.05934,-0.228604 0.1604,-0.2791035 0.04877,-0.024372 0.06674,-0.028391 0.126935,-0.028391 0.05988,0 0.07824,0.00406 0.125784,0.027816 0.05993,0.029947 0.09939,0.068764 0.132067,0.1299212 0.01826,0.034164 0.02058,0.051522 0.02044,0.1526647 C 7.6499552,1.1717878 7.5958442,1.374445 7.4936582,1.5744975 7.2706642,2.011066 6.8508012,2.28508 6.2855212,2.362961 c -0.05272,0.00726 -0.210891,0.017042 -0.351485,0.021729 -0.353748,0.011793 -0.526435,0.036654 -0.73254,0.1054591 -0.184857,0.061711 -0.330716,0.1485763 -0.445161,0.2651113 -0.129288,0.1316493 -0.203277,0.2856236 -0.228091,0.4746679 -0.0072,0.055229 -0.02079,0.1131227 -0.03177,0.1357952 -0.0606,0.125183 -0.215599,0.1900733 -0.344214,0.144105 z"
       id="path1580" /></g></svg>
