<?xml version="1.0" encoding="UTF-8" standalone="no"?>
<!-- Created with Inkscape (http://www.inkscape.org/) -->

<svg
   width="32"
   height="32"
   viewBox="0 0 8.4666665 8.4666666"
   version="1.1"
   id="svg5"
   xml:space="preserve"
   inkscape:version="1.2.2 (b0a8486541, 2022-12-01)"
   sodipodi:docname="icon_mouse.svg"
   inkscape:export-filename="icon_deco_white.png"
   inkscape:export-xdpi="96"
   inkscape:export-ydpi="96"
   xmlns:inkscape="http://www.inkscape.org/namespaces/inkscape"
   xmlns:sodipodi="http://sodipodi.sourceforge.net/DTD/sodipodi-0.dtd"
   xmlns="http://www.w3.org/2000/svg"
   xmlns:svg="http://www.w3.org/2000/svg"><sodipodi:namedview
     id="namedview7"
     pagecolor="#ffffff"
     bordercolor="#000000"
     borderopacity="0.25"
     inkscape:showpageshadow="2"
     inkscape:pageopacity="0.0"
     inkscape:pagecheckerboard="0"
     inkscape:deskcolor="#d1d1d1"
     inkscape:document-units="mm"
     showgrid="false"
     inkscape:zoom="9.6113928"
     inkscape:cx="28.35177"
     inkscape:cy="13.161464"
     inkscape:window-width="1920"
     inkscape:window-height="984"
     inkscape:window-x="0"
     inkscape:window-y="0"
     inkscape:window-maximized="1"
     inkscape:current-layer="layer1" /><defs
     id="defs2" /><g
     inkscape:label="Ebene 1"
     inkscape:groupmode="layer"
     id="layer1"><path
       style="fill:#ffffff;stroke-width:0.0141602"
       d="m 4.4600858,7.8290464 c -0.048782,-0.030248 -0.02391,0.024358 -0.541773,-1.1894308 -0.240072,-0.5626915 -0.441933,-1.0230755 -0.448579,-1.0230755 -0.0067,0 -0.258999,0.2153561 -0.560785,0.478569 -0.301786,0.263213 -0.568674,0.4933352 -0.593085,0.5113827 C 2.22361,6.6746978 2.0732413,6.6415836 2.00319,6.5376345 l -0.031909,-0.047349 5.66e-5,-2.8618092 c 5.67e-5,-2.78304862 7.902e-4,-2.86301922 0.026862,-2.90577352 0.059087,-0.096898 0.2080897,-0.1392185 0.3058504,-0.086869 0.023364,0.012511 0.9707418,0.95190472 2.1052828,2.08754102 1.849156,1.8509415 2.064419,2.0709714 2.078414,2.1244438 0.02783,0.1063355 -0.02236,0.216714 -0.118364,0.2603155 -0.05425,0.024636 -0.10806,0.026357 -0.833264,0.026648 -0.426399,1.714e-4 -0.775272,0.00376 -0.775272,0.00797 0,0.00421 0.200721,0.4775687 0.446047,1.0519 0.307733,0.7204316 0.446047,1.0599563 0.446047,1.0949258 0,0.09433 -0.02086,0.1068428 -0.572008,0.3430963 -0.283787,0.1216477 -0.530843,0.2210083 -0.549013,0.220801 -0.01817,-2.068e-4 -0.05049,-0.011201 -0.07183,-0.024431 z"
       id="path3037" /></g></svg>
