<?xml version="1.0" encoding="UTF-8" standalone="no"?>
<!-- Created with Inkscape (http://www.inkscape.org/) -->

<svg
   width="32"
   height="32"
   viewBox="0 0 8.4666665 8.4666666"
   version="1.1"
   id="svg5"
   xml:space="preserve"
   inkscape:version="1.2.2 (b0a8486541, 2022-12-01)"
   sodipodi:docname="icon_editor.svg"
   inkscape:export-filename="icon_locomotive.png"
   inkscape:export-xdpi="96"
   inkscape:export-ydpi="96"
   xmlns:inkscape="http://www.inkscape.org/namespaces/inkscape"
   xmlns:sodipodi="http://sodipodi.sourceforge.net/DTD/sodipodi-0.dtd"
   xmlns="http://www.w3.org/2000/svg"
   xmlns:svg="http://www.w3.org/2000/svg"><sodipodi:namedview
     id="namedview7"
     pagecolor="#ffffff"
     bordercolor="#000000"
     borderopacity="0.25"
     inkscape:showpageshadow="2"
     inkscape:pageopacity="0.0"
     inkscape:pagecheckerboard="0"
     inkscape:deskcolor="#d1d1d1"
     inkscape:document-units="mm"
     showgrid="false"
     inkscape:zoom="5.12"
     inkscape:cx="-29.6875"
     inkscape:cy="16.015625"
     inkscape:window-width="1920"
     inkscape:window-height="993"
     inkscape:window-x="0"
     inkscape:window-y="0"
     inkscape:window-maximized="1"
     inkscape:current-layer="layer1" /><defs
     id="defs2" /><g
     inkscape:label="Ebene 1"
     inkscape:groupmode="layer"
     id="layer1"><path
       style="fill:#fc7f7f;stroke-width:0.011776;fill-opacity:1"
       d="M 0.50689727,7.0265275 V 6.0932678 L 2.6972263,3.902963 4.8875553,1.7126584 5.8237621,2.6488106 6.7599709,3.5849649 4.572583,5.7723751 2.385193,7.9597871 H 1.4460451 0.50689727 Z M 2.5029384,6.9588184 2.8796407,6.5819769 2.3851687,6.0873998 1.8906969,5.5928249 1.5108616,5.9725247 1.1310264,6.3522266 V 6.5318818 6.7115371 H 1.44309 1.7551535 v 0.3120656 0.3120635 h 0.1855332 0.1855334 z m 0.1331761,-1.766392 c 0.022502,0 2.3624296,-2.3335057 2.3876771,-2.3811121 0.03339,-0.062941 0.013129,-0.1313582 -0.054054,-0.1833315 C 4.9231975,2.5920478 4.8868591,2.5881488 4.8346229,2.613439 4.803111,2.6287909 4.3997962,3.0244926 3.6198596,3.805413 2.4007333,5.0260767 2.4220439,5.0030167 2.4444836,5.0772623 c 0.017573,0.057852 0.116835,0.1343683 0.1565468,0.120531 0.00868,-0.00303 0.024401,-0.00546 0.035067,-0.00546 z M 6.2418069,2.2307618 5.3057192,1.2946196 5.641283,0.95889431 C 6.0090024,0.59099705 6.0536294,0.55709197 6.2152242,0.52284968 c 0.1001899,-0.0212298 0.1647074,-0.0212903 0.264148,-2.0003e-4 0.1713532,0.036319 0.1648692,0.0309458 0.7876833,0.65100675 0.3899612,0.3882321 0.584653,0.590424 0.6120498,0.6356287 0.1074416,0.1772717 0.1075628,0.4535112 2.989e-4,0.6305001 -0.025169,0.04155 -0.1617988,0.1876745 -0.3706928,0.3964594 L 7.1778904,3.1669121 6.2418028,2.2307698 Z"
       id="path854"
       sodipodi:nodetypes="ccccccccccccccccccccccccccccccsccccccsscccccccc" /></g></svg>
