<?xml version="1.0" encoding="UTF-8" standalone="no"?>
<!-- Created with Inkscape (http://www.inkscape.org/) -->

<svg
   width="32"
   height="32"
   viewBox="0 0 8.4666665 8.4666666"
   version="1.1"
   id="svg5"
   xml:space="preserve"
   inkscape:version="1.2.2 (b0a8486541, 2022-12-01)"
   sodipodi:docname="icon_industry.svg"
   inkscape:export-filename="icon_locomotive.png"
   inkscape:export-xdpi="96"
   inkscape:export-ydpi="96"
   xmlns:inkscape="http://www.inkscape.org/namespaces/inkscape"
   xmlns:sodipodi="http://sodipodi.sourceforge.net/DTD/sodipodi-0.dtd"
   xmlns="http://www.w3.org/2000/svg"
   xmlns:svg="http://www.w3.org/2000/svg"><sodipodi:namedview
     id="namedview7"
     pagecolor="#ffffff"
     bordercolor="#000000"
     borderopacity="0.25"
     inkscape:showpageshadow="2"
     inkscape:pageopacity="0.0"
     inkscape:pagecheckerboard="0"
     inkscape:deskcolor="#d1d1d1"
     inkscape:document-units="mm"
     showgrid="false"
     inkscape:zoom="10.24"
     inkscape:cx="31.201172"
     inkscape:cy="17.822266"
     inkscape:window-width="1920"
     inkscape:window-height="984"
     inkscape:window-x="0"
     inkscape:window-y="0"
     inkscape:window-maximized="1"
     inkscape:current-layer="layer1" /><defs
     id="defs2" /><g
     inkscape:label="Ebene 1"
     inkscape:groupmode="layer"
     id="layer1"><path
       style="fill:#fc7f7f;stroke-width:0.00831511;fill-opacity:1"
       d="m 0.96149195,6.6635295 v -1.416132 l 0.0444484,-0.00477 c 0.024444,-0.00263 0.1034866,-0.00879 0.1756555,-0.013717 0.072169,-0.00493 0.1397758,-0.010612 0.1502601,-0.012667 l 0.019042,-0.00371 V 4.3142573 3.4159808 h 0.419034 0.4190331 v 0.9025159 0.9025159 h 0.2242923 0.2242933 l 0.0021,-0.900474 0.0021,-0.9004741 h 0.4190331 0.4190331 l 0.0021,0.9413492 0.0021,0.9413492 0.1163591,-0.056316 C 3.9428556,5.0807486 4.2040678,4.9242504 4.8554236,4.4945826 5.1432743,4.3047004 5.3046665,4.2028523 5.4818576,4.0992622 l 0.1058137,-0.061863 0.00429,0.6037668 0.00429,0.603767 0.9396514,-0.5964883 c 0.5168126,-0.3280686 0.9463215,-0.6000467 0.954469,-0.604396 0.014051,-0.00752 0.014803,0.090798 0.014803,2.0138519 V 8.0796601 H 4.2333688 0.96152053 Z M 2.832328,6.7565149 V 6.250126 H 2.3074792 1.7826295 V 6.7565149 7.2629047 H 2.3074792 2.832328 Z m 2.1481405,0.00201 -0.0021,-0.5043474 H 4.4450525 3.911737 l -0.0021,0.5043474 -0.0021,0.5043476 H 4.445203 4.9828814 Z M 5.4100192,3.1534474 C 5.1756303,3.1246812 4.96016,3.034937 4.7297882,2.8701258 4.5382472,2.7330934 4.4097492,2.6961868 4.269599,2.7379516 4.2040792,2.7574777 4.1402932,2.7962653 4.0234083,2.8876515 3.8406808,3.0305261 3.6598022,3.0970795 3.4535226,3.0973378 3.2401842,3.0976048 3.0465189,3.0315454 2.8333758,2.8858041 2.7131483,2.8035913 2.6694049,2.7853872 2.5806722,2.7806207 2.4888607,2.7756944 2.4554902,2.7846923 2.2990134,2.8565543 2.1046289,2.9458304 1.9783905,2.9734596 1.8359045,2.9579141 1.5558585,2.9273594 1.2971221,2.690382 1.2373275,2.4096727 1.1617292,2.0547944 1.3892108,1.6978855 1.7487674,1.6072257 c 0.083333,-0.021012 0.2352291,-0.025508 0.3354054,-0.00993 0.1423278,0.022134 0.1581924,0.023203 0.2143177,0.014416 0.1143042,-0.01788 0.1879792,-0.07122 0.301128,-0.2180236 C 2.8284337,1.0968179 3.0976792,0.9483671 3.4079703,0.9479979 3.5605099,0.94781657 3.6709,0.9732463 3.8397015,1.0474558 c 0.1386575,0.060953 0.1988417,0.076021 0.2873782,0.071936 0.062148,-0.00287 0.083562,-0.00773 0.1287323,-0.029177 0.068482,-0.032527 0.1394272,-0.0943569 0.2299413,-0.20043303 0.2207991,-0.25874123 0.4797755,-0.41244413 0.8084822,-0.47983596 0.1200456,-0.0246115 0.3395692,-0.0304633 0.4670927,-0.0124473 0.1781199,0.0251602 0.3181281,0.067341 0.4674776,0.14083689 0.1272215,0.062604 0.2238188,0.13105177 0.3322827,0.23543745 C 6.784795,0.98906997 6.9259787,1.2654578 6.984615,1.6028947 7.003819,1.713362 7.010545,1.9187943 6.997761,2.0033314 6.940805,2.3790822 6.708669,2.7131558 6.3581659,2.9237623 6.0512622,3.1081706 5.7115978,3.1904562 5.4100487,3.1534484 Z"
       id="path4465" /></g></svg>
