<?xml version="1.0" encoding="UTF-8" standalone="no"?>
<!-- Created with Inkscape (http://www.inkscape.org/) -->

<svg
   width="32"
   height="32"
   viewBox="0 0 8.4666665 8.4666666"
   version="1.1"
   id="svg5"
   xml:space="preserve"
   inkscape:version="1.2.2 (b0a8486541, 2022-12-01)"
   sodipodi:docname="icon_door.svg"
   inkscape:export-filename="icon_door_3d.png"
   inkscape:export-xdpi="96"
   inkscape:export-ydpi="96"
   xmlns:inkscape="http://www.inkscape.org/namespaces/inkscape"
   xmlns:sodipodi="http://sodipodi.sourceforge.net/DTD/sodipodi-0.dtd"
   xmlns="http://www.w3.org/2000/svg"
   xmlns:svg="http://www.w3.org/2000/svg"><sodipodi:namedview
     id="namedview7"
     pagecolor="#ffffff"
     bordercolor="#000000"
     borderopacity="0.25"
     inkscape:showpageshadow="2"
     inkscape:pageopacity="0.0"
     inkscape:pagecheckerboard="0"
     inkscape:deskcolor="#d1d1d1"
     inkscape:document-units="mm"
     showgrid="false"
     inkscape:zoom="11.752177"
     inkscape:cx="20.464293"
     inkscape:cy="32.632251"
     inkscape:window-width="1920"
     inkscape:window-height="984"
     inkscape:window-x="0"
     inkscape:window-y="0"
     inkscape:window-maximized="1"
     inkscape:current-layer="layer1" /><defs
     id="defs2" /><g
     inkscape:label="Ebene 1"
     inkscape:groupmode="layer"
     id="layer1"><path
       style="fill:#ffffff;stroke-width:0.0734451;fill-opacity:1"
       d="M 3.0288548,7.7500067 C 2.2411558,7.5877184 1.5553618,7.420992 1.5048678,7.3795043 c -0.133431,-0.1096323 -0.133431,-6.1745699 0,-6.2844654 0.138715,-0.1142471 3.15731,-0.7144117 3.3057,-0.6572475 0.121319,0.046736 0.128036,0.2794137 0.110167,3.8158834 l -0.01903,3.7661129 -0.220335,0.01264 c -0.121185,0.007 -0.864817,-0.120136 -1.652516,-0.282425 z M 4.0203638,4.2373622 V 3.7599687 h -0.220335 c -0.214727,0 -0.220909,0.01006 -0.242868,0.3951937 -0.02958,0.5188359 0.01188,0.611506 0.260811,0.5828732 0.197747,-0.022746 0.202392,-0.034237 0.202392,-0.5006734 z m 1.505626,3.0112511 V 7.0282779 h 0.550838 0.550839 V 4.2373622 1.4464464 H 6.0768278 5.5259898 V 1.2234514 1.0004563 l 0.712937,0.021021 c 0.69019,0.02035 0.714562,0.026879 0.763853,0.2046338 0.028,0.1009871 0.05421,1.5072781 0.05824,3.1250911 0.0055,2.1982472 -0.01495,2.9637476 -0.08081,3.0296125 -0.05591,0.055913 -0.337848,0.088134 -0.771174,0.088134 h -0.68304 z"
       id="path344" /></g></svg>
