<?xml version="1.0" encoding="UTF-8" standalone="no"?>
<!-- Created with Inkscape (http://www.inkscape.org/) -->

<svg
   width="32"
   height="32"
   viewBox="0 0 8.4666665 8.4666666"
   version="1.1"
   id="svg5"
   xml:space="preserve"
   inkscape:version="1.2.2 (b0a8486541, 2022-12-01)"
   sodipodi:docname="icon_terrain.svg"
   inkscape:export-filename="icon_deco_white.png"
   inkscape:export-xdpi="96"
   inkscape:export-ydpi="96"
   xmlns:inkscape="http://www.inkscape.org/namespaces/inkscape"
   xmlns:sodipodi="http://sodipodi.sourceforge.net/DTD/sodipodi-0.dtd"
   xmlns="http://www.w3.org/2000/svg"
   xmlns:svg="http://www.w3.org/2000/svg"><sodipodi:namedview
     id="namedview7"
     pagecolor="#ffffff"
     bordercolor="#000000"
     borderopacity="0.25"
     inkscape:showpageshadow="2"
     inkscape:pageopacity="0.0"
     inkscape:pagecheckerboard="0"
     inkscape:deskcolor="#d1d1d1"
     inkscape:document-units="mm"
     showgrid="false"
     inkscape:zoom="14.481547"
     inkscape:cx="16.883555"
     inkscape:cy="19.162318"
     inkscape:window-width="1920"
     inkscape:window-height="984"
     inkscape:window-x="0"
     inkscape:window-y="0"
     inkscape:window-maximized="1"
     inkscape:current-layer="layer1" /><defs
     id="defs2" /><g
     inkscape:label="Ebene 1"
     inkscape:groupmode="layer"
     id="layer1"><path
       style="fill:#fc7f7f;stroke-width:0.0250753;fill-opacity:1"
       d="M 0.32314541,6.8268445 C 0.31536343,6.8122627 0.32173149,6.7727527 0.33729223,6.739043 0.45376852,6.4866884 1.9985271,3.4037402 2.0232268,3.3743439 c 0.017297,-0.020587 0.046623,-0.030684 0.065167,-0.022439 0.018545,0.00825 0.1733999,0.2954173 0.344123,0.6381601 l 0.3104059,0.6231688 0.039818,-0.074394 C 2.80464,4.497923 3.1337732,3.8389156 3.5141468,3.0743792 3.8945203,2.309843 4.2204918,1.6665277 4.238528,1.6447898 4.267319,1.6100888 4.275521,1.6101338 4.305744,1.6451515 4.324677,1.6670875 4.7417898,2.4910301 5.2326633,3.4761337 5.7235368,4.4612375 6.1352202,5.2651457 6.1475156,5.2625963 6.1598098,5.260049 6.2981139,5.0004698 6.4548561,4.685758 6.639765,4.314493 6.7545681,4.1107948 6.7817767,4.1056945 6.8148485,4.0994992 6.9632,4.377745 7.4836942,5.4222172 7.8466851,6.1506281 8.145089,6.7675489 8.1468144,6.7931523 8.1497718,6.8370315 7.92567,6.8400957 4.243619,6.8465307 1.7051109,6.8509667 0.33233431,6.8440698 0.32314541,6.8268445 Z"
       id="path910" /></g></svg>
