<?xml version="1.0" encoding="UTF-8" standalone="no"?>
<!-- Created with Inkscape (http://www.inkscape.org/) -->

<svg
   width="32"
   height="32"
   viewBox="0 0 8.4666665 8.4666666"
   version="1.1"
   id="svg5"
   xml:space="preserve"
   inkscape:version="1.2.2 (b0a8486541, 2022-12-01)"
   sodipodi:docname="icon_house.svg"
   inkscape:export-filename="icon_deco_white.png"
   inkscape:export-xdpi="96"
   inkscape:export-ydpi="96"
   xmlns:inkscape="http://www.inkscape.org/namespaces/inkscape"
   xmlns:sodipodi="http://sodipodi.sourceforge.net/DTD/sodipodi-0.dtd"
   xmlns="http://www.w3.org/2000/svg"
   xmlns:svg="http://www.w3.org/2000/svg"><sodipodi:namedview
     id="namedview7"
     pagecolor="#ffffff"
     bordercolor="#000000"
     borderopacity="0.25"
     inkscape:showpageshadow="2"
     inkscape:pageopacity="0.0"
     inkscape:pagecheckerboard="0"
     inkscape:deskcolor="#d1d1d1"
     inkscape:document-units="mm"
     showgrid="false"
     inkscape:zoom="10.581971"
     inkscape:cx="7.0402762"
     inkscape:cy="15.639808"
     inkscape:window-width="1920"
     inkscape:window-height="984"
     inkscape:window-x="0"
     inkscape:window-y="0"
     inkscape:window-maximized="1"
     inkscape:current-layer="layer1" /><defs
     id="defs2" /><g
     inkscape:label="Ebene 1"
     inkscape:groupmode="layer"
     id="layer1"><path
       style="fill:#fc7f7f;stroke-width:0.0151821;fill-opacity:1"
       d="m 1.4579005,8.0928369 c -0.027726,-0.01366 -0.068717,-0.04884 -0.091093,-0.07817 l -0.040682,-0.05333 -0.004,-1.6204792 -0.004,-1.6204795 -0.2920534,-0.00529 C 0.74080641,4.7099161 0.73208491,4.7088022 0.65052251,4.6671169 0.43493531,4.5569335 0.31920461,4.3375389 0.36188661,4.1199399 0.40093761,3.9208544 0.32871261,3.9991852 2.1738001,2.1548259 3.7555533,0.57369664 3.8991281,0.43421894 3.9829917,0.39726224 c 0.1708819,-0.075304 0.3988284,-0.064038 0.5541464,0.027387 0.029226,0.017203 0.4096711,0.3867088 0.8454348,0.82112386 l 0.7922975,0.7898455 0.00476,-0.2824415 c 0.00521,-0.3088958 0.00897,-0.3225923 0.1092928,-0.3974909 0.039339,-0.029371 0.062305,-0.031302 0.372205,-0.031302 h 0.3302789 l 0.053615,0.040894 c 0.1057091,0.080628 0.1034337,0.060945 0.1034337,0.8947573 v 0.7488772 l 0.4311197,0.4330315 c 0.4606087,0.4626515 0.4907666,0.5015847 0.525573,0.6785024 0.041968,0.2133214 -0.076391,0.440138 -0.2842705,0.5447571 -0.086493,0.043529 -0.092629,0.044331 -0.3801669,0.049708 l -0.2922553,0.00546 v 1.6008011 c 0,1.7701323 0.00599,1.6652413 -0.099676,1.7458503 l -0.057352,0.04375 -0.8929037,0.0042 -0.8929036,0.0041 -0.00403,-1.3808145 c -0.00399,-1.3677772 -0.00433,-1.38121 -0.035334,-1.4227355 -0.017216,-0.023057 -0.050169,-0.056007 -0.073228,-0.073223 -0.041131,-0.030709 -0.057436,-0.031302 -0.8595323,-0.031302 -0.8020959,0 -0.8184017,5.937e-4 -0.8595323,0.031302 -0.023059,0.017216 -0.056012,0.050167 -0.073228,0.073223 -0.031007,0.041525 -0.03134,0.054962 -0.035334,1.422383 l -0.00403,1.380462 -0.87653,-3.46e-4 c -0.7804584,-3.08e-4 -0.8820564,-0.0031 -0.9269414,-0.02519 z"
       id="path854" /></g></svg>
