<?xml version="1.0" encoding="UTF-8" standalone="no"?>
<!-- Created with Inkscape (http://www.inkscape.org/) -->

<svg
   width="32"
   height="32"
   viewBox="0 0 8.4666665 8.4666666"
   version="1.1"
   id="svg5"
   xml:space="preserve"
   inkscape:version="1.2.2 (b0a8486541, 2022-12-01)"
   sodipodi:docname="icon_editor.svg"
   inkscape:export-filename="icon_locomotive.png"
   inkscape:export-xdpi="96"
   inkscape:export-ydpi="96"
   xmlns:inkscape="http://www.inkscape.org/namespaces/inkscape"
   xmlns:sodipodi="http://sodipodi.sourceforge.net/DTD/sodipodi-0.dtd"
   xmlns="http://www.w3.org/2000/svg"
   xmlns:svg="http://www.w3.org/2000/svg"><sodipodi:namedview
     id="namedview7"
     pagecolor="#ffffff"
     bordercolor="#000000"
     borderopacity="0.25"
     inkscape:showpageshadow="2"
     inkscape:pageopacity="0.0"
     inkscape:pagecheckerboard="0"
     inkscape:deskcolor="#d1d1d1"
     inkscape:document-units="mm"
     showgrid="false"
     inkscape:zoom="10.24"
     inkscape:cx="5.8105468"
     inkscape:cy="14.599609"
     inkscape:window-width="1920"
     inkscape:window-height="984"
     inkscape:window-x="0"
     inkscape:window-y="0"
     inkscape:window-maximized="1"
     inkscape:current-layer="layer1" /><defs
     id="defs2" /><g
     inkscape:label="Ebene 1"
     inkscape:groupmode="layer"
     id="layer1"><path
       style="fill:#f66151;stroke-width:0.00858352"
       d="M 1.2188552,7.569144 C 1.0047258,7.5500329 0.76460205,7.4606614 0.58176294,7.3320253 0.48498551,7.263944 0.30685939,7.0858149 0.2387736,6.989036 0.13489946,6.8413831 0.06039424,6.6698958 0.01978836,6.484988 L 0,6.3948656 V 4.2318172 2.0687688 L 0.01983253,1.9786464 C 0.07987487,1.705707 0.18605177,1.5082062 0.3813116,1.3062369 0.58856518,1.0918601 0.82719303,0.96124663 1.1072792,0.90887963 1.1896718,0.89347887 1.2793893,0.89283104 3.3432869,0.89283104 h 2.1501727 l 0.090122,0.019862 C 5.633156,0.92358839 5.7084666,0.94408347 5.75096,0.95817384 5.8959274,1.0062313 5.9456677,1.0462497 5.9573626,1.1242459 5.9669328,1.1878218 5.9444059,1.220876 5.7841703,1.37923 5.6181189,1.5432893 5.6142687,1.5452917 5.5168581,1.5182785 5.4613506,1.5028778 5.3785016,1.5021711 3.3647405,1.4999036 1.4809376,1.4978424 1.2634571,1.4989113 1.2016936,1.5110935 0.94247934,1.5624931 0.71449805,1.7740857 0.6286528,2.0429556 l -0.0191847,0.060087 -0.002503,2.0943796 c -0.001767,1.4639364 3.0183e-4,2.1106711 0.006773,2.1485001 0.0417558,0.2451518 0.2402165,0.4837664 0.4764592,0.5728744 0.1307739,0.049324 0.010012,0.046806 2.2487788,0.046806 2.2387682,0 2.1180063,0.0025 2.2487773,-0.046806 0.185532,-0.069981 0.3682828,-0.2527315 0.4382635,-0.4382635 0.042875,-0.11368 0.046806,-0.1581449 0.046806,-0.5290264 0,-0.2180989 0.00339,-0.3565452 0.00928,-0.3800469 0.0081,-0.032156 0.033496,-0.061044 0.1952746,-0.2220079 0.1582847,-0.1574941 0.1907573,-0.1859193 0.2181548,-0.1909577 0.062295,-0.011484 0.1250465,0.014282 0.1644436,0.067434 0.017668,0.023852 0.017992,0.032289 0.020642,0.5364705 0.00294,0.5605906 -0.00117,0.6390697 -0.041682,0.7954978 C 6.5979708,6.7160715 6.5309495,6.8599656 6.4355473,6.9945573 6.3699689,7.0870649 6.1901349,7.2658654 6.0961652,7.3319738 5.9103991,7.4626594 5.7063066,7.5396985 5.475893,7.5660933 c -0.071114,0.0081 -4.1671053,0.011043 -4.2570805,0.00294 z M 3.0342705,5.6759814 V 4.9957287 L 4.6308007,3.3992162 6.2273308,1.8027038 6.9097317,2.4850649 7.592134,3.1674275 5.9977476,4.7618301 4.4033597,6.3562341 H 3.7188151 3.0342705 Z M 4.4891843,5.6266283 4.7637625,5.3519486 4.403342,4.9914515 4.0429216,4.630956 3.7660598,4.9077191 3.489198,5.1844837 V 5.3154343 5.446385 h 0.2274631 0.227463 v 0.2274645 0.227463 h 0.1352351 0.1352352 z m 0.097072,-1.2875226 c 0.016402,0 1.7219742,-1.7008916 1.7403771,-1.7355919 0.024338,-0.045878 0.00957,-0.095747 -0.0394,-0.1336303 -0.033923,-0.026193 -0.06041,-0.029035 -0.098485,-0.010601 -0.022969,0.01119 -0.316945,0.2996169 -0.8854406,0.8688295 -0.8886208,0.8897414 -0.8730875,0.872933 -0.8567312,0.9270506 0.012809,0.042168 0.085161,0.097941 0.1141069,0.087855 0.00633,-0.00221 0.017786,-0.00398 0.02556,-0.00398 z M 7.2144444,2.1803492 6.5321304,1.4979955 6.7767227,1.2532854 C 7.0447533,0.98512517 7.0772819,0.96041181 7.1950683,0.93545257 7.2680967,0.91997819 7.3151235,0.91993402 7.3876057,0.93530681 7.512505,0.96177962 7.5077788,0.95786318 7.9617478,1.4098254 8.2459904,1.6928077 8.3879012,1.8401853 8.4078707,1.873135 8.4861849,2.0023483 8.4862732,2.2036992 8.4080886,2.3327063 8.3897431,2.3629925 8.2901535,2.4695022 8.1378907,2.6216855 L 7.8967554,2.8627089 7.2144414,2.1803551 Z"
       id="path854" /></g></svg>
