<?xml version="1.0" encoding="UTF-8" standalone="no"?>
<!-- Created with Inkscape (http://www.inkscape.org/) -->

<svg
   width="32"
   height="32"
   viewBox="0 0 8.4666665 8.4666666"
   version="1.1"
   id="svg5"
   xml:space="preserve"
   inkscape:version="1.2.2 (b0a8486541, 2022-12-01)"
   sodipodi:docname="icon_rail_track.svg"
   inkscape:export-filename="icon_rail_track.png"
   inkscape:export-xdpi="96"
   inkscape:export-ydpi="96"
   xmlns:inkscape="http://www.inkscape.org/namespaces/inkscape"
   xmlns:sodipodi="http://sodipodi.sourceforge.net/DTD/sodipodi-0.dtd"
   xmlns="http://www.w3.org/2000/svg"
   xmlns:svg="http://www.w3.org/2000/svg"><sodipodi:namedview
     id="namedview7"
     pagecolor="#ffffff"
     bordercolor="#000000"
     borderopacity="0.25"
     inkscape:showpageshadow="2"
     inkscape:pageopacity="0.0"
     inkscape:pagecheckerboard="0"
     inkscape:deskcolor="#d1d1d1"
     inkscape:document-units="mm"
     showgrid="false"
     inkscape:zoom="16.037629"
     inkscape:cx="22.852505"
     inkscape:cy="17.17835"
     inkscape:window-width="1920"
     inkscape:window-height="984"
     inkscape:window-x="0"
     inkscape:window-y="0"
     inkscape:window-maximized="1"
     inkscape:current-layer="layer1" /><defs
     id="defs2" /><g
     inkscape:label="Ebene 1"
     inkscape:groupmode="layer"
     id="layer1"><path
       style="fill:#fc7f7f;stroke-width:0.0306806;fill-opacity:1"
       d="m 0.64370837,7.3194463 c 0,-0.0056 0.0552253,-0.1649999 0.12272245,-0.3542164 0.0674975,-0.1892166 0.12272246,-0.349808 0.12272246,-0.3568698 0,-0.00707 -0.12884296,-0.01679 -0.28631786,-0.021621 L 0.31651788,6.5779581 0.47321108,6.1484297 0.62990397,5.7189013 0.92060173,5.7100909 1.2112996,5.7012811 1.3240793,5.3802744 1.4368591,5.0592683 h -0.273853 c -0.150619,0 -0.27385282,-0.00973 -0.27385282,-0.021626 0,-0.011894 0.0511716,-0.1771043 0.11371452,-0.3671326 l 0.1137143,-0.3455066 0.2900695,-0.0087 0.2900694,-0.0087 0.1161724,-0.3221463 C 1.8767882,3.8082666 1.929792,3.646043 1.9306796,3.62495 1.9317996,3.598351 1.8758846,3.586599 1.7482101,3.586599 c -0.1025266,0 -0.1840836,-0.013621 -0.1840836,-0.030745 0,-0.01691 0.06558,-0.1472493 0.1457329,-0.2896435 L 1.8555922,3.0073117 2.0089953,2.9978198 2.1623983,2.9883274 2.2580555,2.7122021 2.3537124,2.4360766 2.157744,2.4207363 1.9617757,2.405396 2.1171711,2.2136423 C 2.2577027,2.0402296 2.283555,2.0218885 2.3874506,2.0218885 H 2.5023354 L 2.654513,1.5846899 2.806691,1.1474913 3.1825284,1.1388767 c 0.2541942,-0.00583 0.3758373,0.00212 0.3758373,0.024551 0,0.026997 -0.1435217,0.5943649 -0.2035747,0.8047692 -0.014344,0.050256 0.041857,0.053691 0.878548,0.053691 0.8366916,0 0.8928923,-0.00343 0.8785476,-0.053691 C 5.0518303,1.7577929 4.9083124,1.1904251 4.9083124,1.163428 c 0,-0.022432 0.1216431,-0.030378 0.3758373,-0.024551 l 0.375838,0.00862 0.1521771,0.4371986 0.1521783,0.4371986 h 0.1148844 c 0.1039004,0 0.1297478,0.018341 0.2702793,0.1917538 l 0.155396,0.1917537 -0.1959683,0.01534 -0.1959683,0.01534 0.095654,0.2761255 0.095654,0.2761253 0.1534024,0.0095 0.1534035,0.0095 0.1457327,0.2588987 c 0.08015,0.1423942 0.1457328,0.2727336 0.1457328,0.2896435 0,0.017124 -0.081556,0.030745 -0.1840842,0.030745 -0.1276731,0 -0.183588,0.011753 -0.1824686,0.03835 8.866e-4,0.021093 0.05388,0.1833165 0.117768,0.3604971 l 0.1161546,0.3221463 0.2482639,0.00888 0.2482639,0.00888 0.1095145,0.3286675 c 0.060236,0.1807673 0.1095144,0.3458999 0.1095144,0.3669611 0,0.027166 -0.066199,0.038293 -0.2278315,0.038293 H 7.0298083 l 0.1127794,0.3210061 0.1127794,0.3210067 0.2906982,0.00881 0.2906971,0.00881 0.1566932,0.4295284 0.1566932,0.4295284 -0.2863172,0.00878 c -0.1574751,0.00483 -0.2863183,0.014559 -0.2863183,0.021621 0,0.00707 0.05523,0.1676532 0.1227228,0.3568697 0.067493,0.1892166 0.1227228,0.3486139 0.1227228,0.3542165 0,0.0056 -0.2933995,0.010182 -0.651998,0.010182 H 6.5189741 L 6.426401,6.9691358 6.3338278,6.6086387 H 4.233339 2.1328498 L 2.0402769,6.9691358 1.947704,7.3296329 H 1.2957062 c -0.35859889,0 -0.65199783,-0.00458 -0.65199783,-0.010182 z M 6.012252,5.3890848 5.9305156,5.0746085 H 4.233339 2.5361626 L 2.4544261,5.3890848 2.3726897,5.7035609 H 4.233339 6.0939885 Z M 5.7060076,4.2739286 c 0,-0.026952 -0.03778,-0.1926279 -0.083942,-0.3681673 L 5.5381188,3.5865993 H 4.233339 2.9285595 l -0.083945,0.319162 c -0.046169,0.1755394 -0.083945,0.3412146 -0.083945,0.3681673 0,0.044206 0.1442258,0.049005 1.472669,0.049005 1.3284427,0 1.472669,-0.0048 1.4726691,-0.049005 z M 5.3662506,2.9499767 C 5.3650131,2.9204469 5.3334998,2.7927386 5.2962375,2.6661811 L 5.2285037,2.4360766 H 4.233339 3.2381744 l -0.067738,0.2301045 c -0.037257,0.1265575 -0.06876,0.2542655 -0.070009,0.2837956 -0.00213,0.050207 0.071375,0.053691 1.132912,0.053691 1.0615367,0 1.1350354,-0.00349 1.1329112,-0.053691 z"
       id="path2671" /></g></svg>
