<?xml version="1.0" encoding="UTF-8" standalone="no"?>
<!-- Created with Inkscape (http://www.inkscape.org/) -->

<svg
   width="32"
   height="32"
   viewBox="0 0 8.4666665 8.4666666"
   version="1.1"
   id="svg5"
   xml:space="preserve"
   inkscape:version="1.2.2 (b0a8486541, 2022-12-01)"
   sodipodi:docname="icon_road.svg"
   inkscape:export-filename="icon_town_white.png"
   inkscape:export-xdpi="96"
   inkscape:export-ydpi="96"
   xmlns:inkscape="http://www.inkscape.org/namespaces/inkscape"
   xmlns:sodipodi="http://sodipodi.sourceforge.net/DTD/sodipodi-0.dtd"
   xmlns="http://www.w3.org/2000/svg"
   xmlns:svg="http://www.w3.org/2000/svg"><sodipodi:namedview
     id="namedview7"
     pagecolor="#ffffff"
     bordercolor="#000000"
     borderopacity="0.25"
     inkscape:showpageshadow="2"
     inkscape:pageopacity="0.0"
     inkscape:pagecheckerboard="0"
     inkscape:deskcolor="#d1d1d1"
     inkscape:document-units="mm"
     showgrid="false"
     inkscape:zoom="14.481547"
     inkscape:cx="18.747997"
     inkscape:cy="23.857949"
     inkscape:window-width="1920"
     inkscape:window-height="984"
     inkscape:window-x="0"
     inkscape:window-y="0"
     inkscape:window-maximized="1"
     inkscape:current-layer="layer1" /><defs
     id="defs2" /><g
     inkscape:label="Ebene 1"
     inkscape:groupmode="layer"
     id="layer1"><path
       style="fill:#f66151;stroke-width:0.00649684"
       d="M 0.65237298,6.8222556 C 0.63196376,6.817291 0.59541935,6.8030796 0.5711625,6.7906502 0.46635441,6.7369165 0.39854995,6.656339 0.35750357,6.5367303 0.34205015,6.4917025 0.33962454,6.474344 0.33934794,6.4067942 0.33912196,6.3518906 0.34237112,6.3169816 0.35024717,6.2887698 0.36610308,6.2321548 2.2729272,1.8695003 2.3009947,1.8256233 2.3504367,1.748334 2.4268165,1.68936 2.519299,1.6570692 l 0.054263,-0.018945 0.6944253,-0.00186 0.6944253,-0.00186 -0.00356,0.026578 c -0.00196,0.01462 -0.010255,0.093003 -0.018431,0.1741908 l -0.014868,0.1476163 0.015936,0.028893 c 0.00981,0.017775 0.025924,0.034549 0.041905,0.043601 0.025589,0.014495 0.029242,0.014708 0.2501093,0.014708 0.2208673,0 0.2245198,-2.154e-4 0.2501093,-0.014708 0.015982,-0.00906 0.0321,-0.025816 0.041907,-0.043601 l 0.015936,-0.028893 -0.014865,-0.1476139 c -0.00818,-0.08119 -0.016475,-0.1595787 -0.018433,-0.1741961 l -0.00357,-0.026579 0.6944258,0.00186 0.6944253,0.00186 0.052484,0.017802 c 0.090346,0.030639 0.171228,0.093335 0.221223,0.1714895 0.025373,0.039673 1.9280493,4.3908849 1.9470472,4.4526977 0.00997,0.032465 0.013014,0.061004 0.01313,0.1234394 1.304e-4,0.071784 -0.00195,0.087245 -0.017651,0.1331844 -0.038281,0.1117601 -0.1113841,0.2007899 -0.204751,0.2493639 -0.095441,0.049656 0.021535,0.046038 -1.493356,0.046145 -1.2150233,8.6e-5 -1.3594615,-9.706e-4 -1.3594615,-0.00982 0,-0.016286 -0.1363751,-1.3037269 -0.1407157,-1.3284227 C 4.9006314,5.4328047 4.8496899,5.3678296 4.7889791,5.3378626 L 4.756496,5.3218338 H 4.2335001 3.7105055 l -0.038017,0.019247 c -0.020909,0.010585 -0.049139,0.03188 -0.062732,0.047324 -0.05268,0.059851 -0.046552,0.022571 -0.124172,0.7552843 -0.0388,0.3662588 -0.070576,0.6710408 -0.070616,0.6772945 -6.7e-5,0.010789 -0.069112,0.011339 -1.3627798,0.010825 -1.13733912,-4.517e-4 -1.36884604,-0.00204 -1.3998169,-0.00954 z M 4.7002932,4.8649583 C 4.7665802,4.8295853 4.812782,4.7658803 4.821589,4.6977189 4.826109,4.6627709 4.758077,3.9945779 4.745895,3.95424 4.735159,3.918681 4.695344,3.864302 4.66451,3.843089 4.608014,3.804214 4.614708,3.804808 4.2328091,3.804808 c -0.3875819,0 -0.3734584,-0.00142 -0.4356172,0.043379 -0.031899,0.022988 -0.064186,0.067999 -0.076063,0.1060436 -0.011216,0.035923 -0.080393,0.7075089 -0.076457,0.7422563 0.00885,0.078203 0.067407,0.1494189 0.1462735,0.1779143 0.018614,0.00674 0.1127114,0.00816 0.4522943,0.0071 l 0.4287908,-0.00142 z M 4.5810804,3.3522541 c 0.053189,-0.028706 0.08734,-0.084071 0.087527,-0.1419018 5.85e-5,-0.017873 -0.014251,-0.167914 -0.031797,-0.3334406 -0.029935,-0.2824196 -0.032899,-0.3024654 -0.04811,-0.3254501 -0.030836,-0.046606 -0.026332,-0.046012 -0.3548203,-0.046012 -0.2788938,0 -0.2944866,6.037e-4 -0.3183321,0.012793 -0.04988,0.025444 -0.049743,0.024868 -0.085313,0.3618483 -0.017614,0.1668732 -0.031961,0.3167584 -0.031883,0.3330779 3.222e-4,0.066979 0.048604,0.1291746 0.1167582,0.150411 0.00896,0.00275 0.1566156,0.00452 0.3281318,0.0039 0.3059787,-0.00115 0.3123366,-0.00142 0.3378352,-0.015205 z"
       id="path2751" /></g></svg>
