<?xml version="1.0" encoding="UTF-8" standalone="no"?>
<!-- Created with Inkscape (http://www.inkscape.org/) -->

<svg
   width="32"
   height="32"
   viewBox="0 0 8.4666665 8.4666666"
   version="1.1"
   id="svg5"
   xml:space="preserve"
   inkscape:version="1.2.2 (b0a8486541, 2022-12-01)"
   sodipodi:docname="icon_deco.svg"
   inkscape:export-filename="icon_locomotive.png"
   inkscape:export-xdpi="96"
   inkscape:export-ydpi="96"
   xmlns:inkscape="http://www.inkscape.org/namespaces/inkscape"
   xmlns:sodipodi="http://sodipodi.sourceforge.net/DTD/sodipodi-0.dtd"
   xmlns="http://www.w3.org/2000/svg"
   xmlns:svg="http://www.w3.org/2000/svg"><sodipodi:namedview
     id="namedview7"
     pagecolor="#ffffff"
     bordercolor="#000000"
     borderopacity="0.25"
     inkscape:showpageshadow="2"
     inkscape:pageopacity="0.0"
     inkscape:pagecheckerboard="0"
     inkscape:deskcolor="#d1d1d1"
     inkscape:document-units="mm"
     showgrid="false"
     inkscape:zoom="7.2407734"
     inkscape:cx="52.411528"
     inkscape:cy="28.104732"
     inkscape:window-width="1920"
     inkscape:window-height="984"
     inkscape:window-x="0"
     inkscape:window-y="0"
     inkscape:window-maximized="1"
     inkscape:current-layer="layer1" /><defs
     id="defs2" /><g
     inkscape:label="Ebene 1"
     inkscape:groupmode="layer"
     id="layer1"><path
       style="fill:#fc7f7f;stroke-width:0.015127;fill-opacity:1"
       d="M 2.3121823,7.8772079 V 7.6503031 h 0.219341 0.219342 V 7.1964933 6.7426836 h 0.394321 c 0.368445,0 0.393806,-0.00174 0.386482,-0.026472 -0.01983,-0.066947 -0.343062,-1.6268633 -0.356552,-1.7206953 -0.02212,-0.1538545 -0.01907,-0.4330541 0.0065,-0.5904037 0.03391,-0.2090828 0.08883,-0.3795807 0.228282,-0.7087326 0.07019,-0.1656683 0.127616,-0.319701 0.127616,-0.342295 0,-0.03625 -0.09093,-0.6976981 -0.113986,-0.8291604 -0.0075,-0.042539 -0.0123,-0.047385 -0.03144,-0.031498 -0.03815,0.031661 -0.05237,0.070538 -0.08891,0.2430789 -0.01936,0.091421 -0.03764,0.1686616 -0.04063,0.1716449 -0.0062,0.00618 -0.4237,-0.08114 -0.433149,-0.090588 -0.0132,-0.013199 0.07534,-0.3813826 0.109831,-0.4567159 0.04106,-0.089691 0.153795,-0.2179377 0.239106,-0.2720098 0.08533,-0.054086 0.189801,-0.087678 0.465067,-0.1495434 0.137277,-0.030853 0.255125,-0.059326 0.261884,-0.063274 0.0068,-0.00395 -0.02982,-0.032041 -0.08128,-0.062429 -0.220958,-0.1304788 -0.377259,-0.4013857 -0.377259,-0.6538802 0,-0.48580737 0.421497,-0.85778717 0.893948,-0.78892687 0.335179,0.048853 0.589875,0.29273411 0.659198,0.63120687 0.06163,0.3009125 -0.07413,0.6207363 -0.335312,0.7899431 -0.06138,0.039762 -0.112023,0.075699 -0.112549,0.079859 -5.25e-4,0.00416 0.119858,0.034148 0.267519,0.06664 0.16426,0.036144 0.310736,0.07819 0.377347,0.1083174 0.226395,0.1023952 0.336752,0.2631915 0.403979,0.5886222 0.02059,0.099655 0.03582,0.1828032 0.03385,0.1847746 -0.01238,0.012384 -0.427561,0.091677 -0.435585,0.083191 -0.0054,-0.00576 -0.02421,-0.081386 -0.04169,-0.1680582 -0.03037,-0.1505851 -0.07037,-0.2508438 -0.100081,-0.2508438 -0.0076,0 -0.04244,0.2004355 -0.0774,0.4454122 l -0.06357,0.4454123 0.121981,0.2882467 c 0.06709,0.1585359 0.138237,0.335897 0.158104,0.3941359 0.08857,0.2596371 0.12711,0.5983375 0.09814,0.8625262 -0.0091,0.083357 -0.0951,0.5243 -0.191025,0.979874 -0.09592,0.455574 -0.174405,0.8315395 -0.174405,0.8354785 0,0.00394 0.176986,0.00716 0.393302,0.00716 h 0.393302 V 7.1964912 7.650301 h 0.219341 0.219342 V 7.8772079 8.1041128 H 4.2333103 2.3121823 Z M 5.2619453,7.4233982 V 7.1964933 h -1.028635 -1.028636 v 0.2269049 0.2269049 h 1.028636 1.028635 z M 4.6058293,6.0695325 c 0.07735,-0.3660732 0.140894,-0.6711067 0.141215,-0.6778523 3.21e-4,-0.00675 -0.06833,0.049587 -0.152552,0.1251836 -0.183348,0.1645653 -0.41662,0.3235765 -0.609812,0.4156803 l -0.141407,0.067416 0.05854,0.2768183 c 0.0322,0.15225 0.0667,0.3195296 0.07668,0.3717324 l 0.01815,0.094914 0.234277,-0.00415 0.234277,-0.00415 z m -0.738971,-0.588569 c 0.316282,-0.1603054 0.631886,-0.4746992 0.865839,-0.8625186 0.03901,-0.064672 0.02762,-0.062099 -0.06827,0.015419 -0.237399,0.1919173 -0.595373,0.351509 -0.977016,0.4355719 l -0.03914,0.00862 0.04364,0.2083245 c 0.04795,0.2289195 0.05249,0.246142 0.0648,0.246142 0.0046,0 0.05419,-0.023202 0.110146,-0.051561 z m 0.156208,-0.9904809 c 0.193732,-0.085454 0.382415,-0.2151574 0.530842,-0.3649088 l 0.13151,-0.1326845 -0.117996,-0.278179 -0.117997,-0.2781791 0.0733,-0.5063018 c 0.04031,-0.2784659 0.07167,-0.5229278 0.06968,-0.5432485 -0.0034,-0.034389 -0.0161,-0.039673 -0.183977,-0.076337 l -0.180361,-0.03939 -0.180516,0.041391 c -0.09928,0.022765 -0.182317,0.043503 -0.184517,0.046083 -0.0022,0.00258 0.03049,0.2463797 0.07263,0.5417759 l 0.07663,0.5370843 -0.141163,0.3327177 c -0.16988,0.4004031 -0.206811,0.5055208 -0.23584,0.6712749 -0.03495,0.199538 -0.04502,0.1872434 0.117722,0.1437179 0.07696,-0.020583 0.198476,-0.06325 0.270038,-0.094816 z m 0.306814,-3.0304819 c 0.09417,-0.027967 0.196912,-0.1378557 0.220393,-0.2357361 0.02848,-0.1187285 9.97e-4,-0.2140428 -0.0883,-0.30621372 -0.200088,-0.20652314 -0.534456,-0.0826053 -0.55847,0.20697032 -0.0054,0.065492 8.59e-4,0.0963 0.03313,0.1622648 0.07464,0.1525643 0.230537,0.2210337 0.393245,0.1727147 z"
       id="path854" /></g></svg>
