<?xml version="1.0" encoding="UTF-8" standalone="no"?>
<!-- Created with Inkscape (http://www.inkscape.org/) -->

<svg
   width="32"
   height="32"
   viewBox="0 0 8.4666665 8.4666666"
   version="1.1"
   id="svg5"
   xml:space="preserve"
   inkscape:version="1.2.2 (b0a8486541, 2022-12-01)"
   sodipodi:docname="icon_town.svg"
   inkscape:export-filename="icon_rail_track_white.png"
   inkscape:export-xdpi="96"
   inkscape:export-ydpi="96"
   xmlns:inkscape="http://www.inkscape.org/namespaces/inkscape"
   xmlns:sodipodi="http://sodipodi.sourceforge.net/DTD/sodipodi-0.dtd"
   xmlns="http://www.w3.org/2000/svg"
   xmlns:svg="http://www.w3.org/2000/svg"><sodipodi:namedview
     id="namedview7"
     pagecolor="#ffffff"
     bordercolor="#000000"
     borderopacity="0.25"
     inkscape:showpageshadow="2"
     inkscape:pageopacity="0.0"
     inkscape:pagecheckerboard="0"
     inkscape:deskcolor="#d1d1d1"
     inkscape:document-units="mm"
     showgrid="false"
     inkscape:zoom="3.6203867"
     inkscape:cx="24.444903"
     inkscape:cy="17.263349"
     inkscape:window-width="1920"
     inkscape:window-height="984"
     inkscape:window-x="0"
     inkscape:window-y="0"
     inkscape:window-maximized="1"
     inkscape:current-layer="layer1" /><defs
     id="defs2" /><g
     inkscape:label="Ebene 1"
     inkscape:groupmode="layer"
     id="layer1"><path
       style="fill:#f66151;stroke-width:0.0149472"
       d="M 0.79775061,8.124928 C 0.71749639,8.0687161 0.72114585,8.194366 0.72276155,5.5452406 0.7235807,4.1946878 0.72863685,3.0749183 0.7339472,3.056864 0.74721181,3.0120853 2.8391127,0.35897464 2.8791122,0.33620653 2.9320237,0.30609001 3.016994,0.31292908 3.0582453,0.35062359 3.1016998,0.39032813 4.5690562,2.2428527 5.0974946,2.9251485 L 5.1900076,3.044603 5.1525186,3.082094 C 5.1318989,3.1027141 4.8613835,3.3449128 4.5513693,3.6203142 4.1856369,3.9452116 3.9758935,4.1420388 3.9540657,4.1808325 L 3.9204296,4.2406215 3.9201844,6.1949621 3.919937,8.1493025 H 3.6493956 3.378852 L 3.328031,8.0984815 3.27721,8.0476615 V 7.4632278 6.878794 H 2.9558672 2.6345034 v 0.5892629 0.5892627 l -0.045985,0.045991 -0.045986,0.045991 H 1.6875466 c -0.76624991,0 -0.85859706,-0.00253 -0.88978469,-0.024373 z M 2.0032836,5.2831852 2.0073511,4.9655582 H 1.6856891 1.3640282 v 0.321661 0.3216612 l 0.3176272,-0.00403 0.3176273,-0.00403 z M 3.277231,5.286925 V 4.9655582 H 2.9558672 2.6345034 v 0.3113989 c 0,0.1712696 0.00452,0.3158834 0.00994,0.3213639 0.00554,0.00548 0.1500945,0.00997 0.3213638,0.00997 H 3.2772084 Z M 2.0032836,3.3699494 2.0073511,3.0523223 H 1.6856891 1.3640282 v 0.3216611 0.3216612 l 0.3176272,-0.00403 0.3176273,-0.00403 z m 1.2739474,0.00374 V 3.0523223 H 2.9558672 2.6345034 v 0.311399 c 0,0.1712696 0.00452,0.3158834 0.00994,0.3213639 0.00554,0.00548 0.1500945,0.00997 0.3213638,0.00997 H 3.2772095 Z M 4.6242218,8.124931 c -0.078605,-0.055055 -0.07648,-0.010598 -0.07648,-1.6048657 0,-1.2347106 0.0035,-1.4890416 0.020903,-1.5307638 C 4.5845861,4.951137 4.7662117,4.7969461 5.3339524,4.3395773 6.2208887,3.6250665 6.1185208,3.6724889 6.3622731,3.8632055 c 0.4656733,0.3643502 1.3385473,1.069015 1.3562376,1.0948791 0.016891,0.024689 0.02123,0.2901835 0.024925,1.5246098 0.00305,1.033428 -4.723e-4,1.5117663 -0.01157,1.5499654 -0.00881,0.030388 -0.033614,0.069063 -0.055081,0.085947 -0.037704,0.029659 -0.057013,0.030696 -0.57178,0.030696 -0.4683466,0 -0.5369632,-0.00295 -0.5675554,-0.024375 -0.072888,-0.051051 -0.07648,-0.083275 -0.07648,-0.6851356 V 6.878794 H 6.1470781 5.8331884 v 0.5609984 c 0,0.6018598 -0.00362,0.6340846 -0.07648,0.6851356 -0.030585,0.021424 -0.099112,0.024374 -0.5662448,0.024374 -0.4671353,0 -0.5356571,-0.00295 -0.5662459,-0.024374 z M 5.8331952,5.9221761 V 5.6082858 H 5.5118314 5.1904677 v 0.3138903 0.3138903 h 0.3213637 0.3213638 z m 1.270508,0 V 5.6082858 H 6.7823395 6.4609757 v 0.3138903 0.3138903 h 0.3213638 0.3213637 z"
       id="path2711" /></g></svg>
