<?xml version="1.0" encoding="UTF-8" standalone="no"?>
<!-- Created with Inkscape (http://www.inkscape.org/) -->

<svg
   width="32"
   height="32"
   viewBox="0 0 8.4666665 8.4666666"
   version="1.1"
   id="svg5"
   xml:space="preserve"
   inkscape:version="1.2.2 (b0a8486541, 2022-12-01)"
   sodipodi:docname="icon_map.svg"
   inkscape:export-filename="icon_deco_white.png"
   inkscape:export-xdpi="96"
   inkscape:export-ydpi="96"
   xmlns:inkscape="http://www.inkscape.org/namespaces/inkscape"
   xmlns:sodipodi="http://sodipodi.sourceforge.net/DTD/sodipodi-0.dtd"
   xmlns="http://www.w3.org/2000/svg"
   xmlns:svg="http://www.w3.org/2000/svg"><sodipodi:namedview
     id="namedview7"
     pagecolor="#ffffff"
     bordercolor="#000000"
     borderopacity="0.25"
     inkscape:showpageshadow="2"
     inkscape:pageopacity="0.0"
     inkscape:pagecheckerboard="0"
     inkscape:deskcolor="#d1d1d1"
     inkscape:document-units="mm"
     showgrid="false"
     inkscape:zoom="10.24"
     inkscape:cx="28.173828"
     inkscape:cy="27.88086"
     inkscape:window-width="1920"
     inkscape:window-height="984"
     inkscape:window-x="0"
     inkscape:window-y="0"
     inkscape:window-maximized="1"
     inkscape:current-layer="layer1" /><defs
     id="defs2" /><g
     inkscape:label="Ebene 1"
     inkscape:groupmode="layer"
     id="layer1"><path
       style="fill:#fc7f7f;stroke-width:0.00719729;fill-opacity:1"
       d="M 4.609443,7.631339 4.4997358,7.598065 4.4996854,7.561357 C 4.4996423,7.529472 4.5551544,6.4727187 4.6112123,5.4383112 4.6325123,5.0452783 4.6328723,5.0168274 4.6171223,4.9706 4.6009151,4.9230388 4.5440522,4.8661759 4.4964917,4.8499705 4.4386305,4.830255 4.3996079,4.8347296 4.2296132,4.880572 4.0420956,4.9311401 2.5237639,5.342077 2.1677139,5.4386257 2.0311454,5.4756586 1.671641,5.5729939 1.3688153,5.6549264 1.0659895,5.7368589 0.74373108,5.8241432 0.65268543,5.8488911 0.56163977,5.8736389 0.48610801,5.893032 0.48483704,5.8919862 0.483566,5.8909405 0.5094293,5.7239289 0.54231096,5.5208489 L 0.60209578,5.1516123 1.5522418,4.3922763 C 2.481036,3.6500034 2.5036806,3.6324764 2.5599651,3.6122979 2.5916331,3.6009446 2.878265,3.5010946 3.1969248,3.390409 3.5155846,3.2797233 3.7905889,3.1803829 3.8080454,3.1696524 3.8447705,3.1470777 3.884107,3.0936605 3.8956941,3.0506297 3.9146796,2.980123 3.918306,2.9900069 3.5842916,2.2019001 3.411909,1.7951636 3.2742564,1.4623791 3.2783968,1.4623791 c 0.00414,0 0.3089517,0.1024728 0.6773585,0.2277173 0.3684068,0.1252445 0.7119346,0.2418537 0.7633952,0.2591315 l 0.093565,0.031414 4.175e-4,0.1457158 c 4.462e-4,0.1548563 0.00794,0.2300178 0.036772,0.3688316 0.050957,0.2453119 0.1773663,0.5125646 0.3404266,0.7197285 0.024926,0.031668 0.093033,0.1045406 0.1513474,0.1619389 l 0.1060275,0.1043606 0.462278,0.744919 c 0.5027217,0.8100897 0.4975066,0.8025973 0.5741979,0.8248916 0.081219,0.023611 0.1712616,-0.00302 0.22101,-0.06537 0.012726,-0.015949 0.2089307,-0.323726 0.4360122,-0.6839501 0.2270815,-0.3602241 0.4238531,-0.672225 0.4372703,-0.6933353 0.013417,-0.02111 0.025742,-0.037035 0.02739,-0.035387 0.00322,0.00322 0.1468707,0.8822021 0.1490918,0.9122534 9.831e-4,0.013304 -0.217972,0.334981 -0.8401737,1.2343343 C 6.4519566,6.3885608 5.9764853,7.0758835 5.8581813,7.2469572 5.6618559,7.5308519 5.6410803,7.5583348 5.6201506,7.5618355 5.6075388,7.5639458 5.4109903,7.5866446 5.1833761,7.6122784 4.955762,7.6379123 4.7581965,7.6601742 4.7443417,7.6617497 4.7280924,7.6635972 4.6802132,7.6528034 4.609443,7.631339 Z M 6.1981926,7.4907652 c 0,-0.00162 0.3390043,-0.4931011 0.7533427,-1.092188 0.4143383,-0.5990876 0.7859881,-1.1367212 0.8258884,-1.1947421 0.054561,-0.079339 0.073836,-0.1025354 0.077749,-0.093565 0.00609,0.013952 0.3531412,2.1536753 0.3497513,2.156344 -0.00126,9.896e-4 -0.1949946,0.023643 -0.4305257,0.05034 C 7.5388671,7.3436511 7.2506159,7.3764321 7.1338399,7.3898011 6.1573231,7.5015972 6.1981929,7.4971867 6.1981926,7.4907652 Z M 3.6683469,7.3450238 C 1.4825389,6.6795304 1.5701713,6.7055198 1.5163588,6.7067916 1.4698356,6.7078906 1.4207854,6.7242457 0.8758004,6.9203753 0.51198527,7.0513055 0.28502386,7.1295241 0.28406086,7.1243075 0.28320172,7.1196538 0.31081627,6.9426337 0.34542657,6.7309284 L 0.40835445,6.3460111 0.59889371,6.2945491 C 1.2194795,6.126938 3.7506093,5.4418587 4.0138142,5.3702623 c 0.098961,-0.026919 0.1813068,-0.047567 0.18299,-0.045883 0.00168,0.00168 -0.012204,0.2904752 -0.03086,0.6417603 -0.018656,0.351285 -0.044003,0.8314073 -0.056326,1.0669384 -0.012323,0.2355312 -0.024346,0.430176 -0.026716,0.4325446 -0.00237,0.00237 -0.1889203,-0.051901 -0.4145553,-0.1205988 z M 0.7066642,4.5208483 c 0,-0.011591 0.10994832,-0.6938952 0.3380179,-2.0976317 0.015436,-0.095004 0.043321,-0.2682787 0.061968,-0.3850547 0.018647,-0.1167759 0.03749,-0.2160493 0.041874,-0.2206075 0.00438,-0.00456 0.2719314,-0.081644 0.5945497,-0.1713017 C 2.0656915,1.5565949 2.4293402,1.4554298 2.5511816,1.4214414 2.6730229,1.3874529 2.7738567,1.3608978 2.7752567,1.36243 2.7867347,1.3749911 3.412437,2.8690066 3.407931,2.8730928 3.404695,2.8760273 3.1575196,2.9632764 2.8586524,3.0669797 2.5597851,3.170683 2.307666,3.260432 2.2983875,3.2664218 2.2813202,3.2774401 1.9799452,3.517366 1.1582938,4.1740557 0.82659479,4.43916 0.7066642,4.531251 0.7066642,4.5208483 Z M 6.4054175,4.23254 C 6.3281057,4.1082836 6.1572278,3.8333447 6.0256881,3.6215646 5.894149,3.4097845 5.7786376,3.2248399 5.7689969,3.2105767 5.7593561,3.1963134 5.7312255,3.1682199 5.7064849,3.1481468 5.6513918,3.1034472 5.5509199,2.9996884 5.5063082,2.9414212 5.2327553,2.5841353 5.155252,2.1316465 5.2950183,1.7078458 5.3278767,1.6082119 5.4091262,1.4467301 5.4674127,1.3652158 5.6749967,1.0749073 5.9768084,0.88296673 6.3287952,0.81741012 6.4234546,0.79978001 6.6238515,0.79632013 6.727193,0.81053175 7.0463566,0.85442331 7.3266426,1.0032636 7.5444584,1.2445249 7.7916599,1.5183351 7.9147234,1.8992729 7.8747612,2.2669593 7.8409174,2.5783479 7.6988603,2.8685941 7.4777252,3.0781696 7.4443111,3.1098376 7.3978,3.1536402 7.3743678,3.1755086 7.3381079,3.2093494 7.2747589,3.3057924 6.9488845,3.8232642 6.7383006,4.1576614 6.5614993,4.4373795 6.5559941,4.4448599 6.5468233,4.4573196 6.5341906,4.4395067 6.4054175,4.23254 Z M 6.7199957,3.0845121 C 6.8454408,3.0640685 6.9915666,3.0047753 7.1047849,2.9283761 7.166452,2.8867635 7.2707104,2.7888037 7.320702,2.7255026 7.399048,2.6262988 7.4633911,2.4954578 7.496505,2.3680087 7.6097802,1.9320384 7.4011561,1.4678388 6.9997923,1.2627923 6.8457942,1.1841187 6.7339729,1.1576043 6.5544582,1.157197 6.4216035,1.1568954 6.338025,1.1701003 6.2311648,1.208275 5.9512832,1.3082598 5.7270576,1.5366652 5.633097,1.8174922 5.5974107,1.9241514 5.5838482,2.0100086 5.5840288,2.128128 5.5844247,2.3878593 5.6769307,2.6153301 5.8581439,2.8021825 6.0847087,3.0357989 6.3950621,3.1374659 6.7199957,3.0845121 Z M 6.4788867,2.6780176 C 6.265634,2.6503067 6.0768168,2.4852333 6.0187686,2.2757594 5.9328891,1.9658541 6.1287848,1.6464177 6.4443959,1.5817118 c 0.2679937,-0.054943 0.5375896,0.096195 0.6317344,0.3541579 0.1220588,0.3344507 -0.095542,0.6931364 -0.4504478,0.7424992 -0.060694,0.00844 -0.079473,0.0084 -0.1467958,-3.513e-4 z"
       id="path1341" /></g></svg>
