<?xml version="1.0" encoding="UTF-8" standalone="no"?>
<!-- Created with Inkscape (http://www.inkscape.org/) -->

<svg
   version="1.1"
   id="svg1157"
   width="32"
   height="32"
   viewBox="0 0 32 32"
   sodipodi:docname="icon_good.svg"
   xml:space="preserve"
   inkscape:version="1.2.2 (b0a8486541, 2022-12-01)"
   xmlns:inkscape="http://www.inkscape.org/namespaces/inkscape"
   xmlns:sodipodi="http://sodipodi.sourceforge.net/DTD/sodipodi-0.dtd"
   xmlns="http://www.w3.org/2000/svg"
   xmlns:svg="http://www.w3.org/2000/svg"><defs
     id="defs1161" /><sodipodi:namedview
     id="namedview1159"
     pagecolor="#ffffff"
     bordercolor="#000000"
     borderopacity="0.25"
     inkscape:showpageshadow="2"
     inkscape:pageopacity="0.0"
     inkscape:pagecheckerboard="0"
     inkscape:deskcolor="#d1d1d1"
     showgrid="false"
     inkscape:zoom="5.8753738"
     inkscape:cx="18.126506"
     inkscape:cy="21.190141"
     inkscape:window-width="1920"
     inkscape:window-height="984"
     inkscape:window-x="0"
     inkscape:window-y="0"
     inkscape:window-maximized="1"
     inkscape:current-layer="g1163" /><g
     inkscape:groupmode="layer"
     inkscape:label="Image"
     id="g1163"><path
       style="fill:#000000;stroke-width:0.0400011"
       d="M 15.75955,27.34278 C 15.68255,27.32355 14.834622,27.127841 13.875272,26.907661 9.5949231,25.925238 4.049726,24.581645 3.7518775,24.454782 3.6657224,24.418083 3.5781167,24.340934 3.5409281,24.269038 3.4283734,24.051378 3.392128,23.185782 3.4026059,20.965641 c 0.0055,-1.166037 0.00699,-2.484573 0.00331,-2.930084 l -0.00669,-0.810023 -0.1100033,1.59e-4 c -0.060501,8.1e-5 -0.5571797,0.06309 -1.1037288,0.140004 -1.20069982,0.168976 -1.60337994,0.180389 -1.77095569,0.05019 C 0.19231117,17.243235 0.00211355,16.948018 2.0321914e-6,16.772474 -0.00112027,16.676612 0.59624326,15.036394 1.8600814,11.665385 2.8794506,8.9464366 3.2671433,7.8917332 3.4359543,7.3782789 3.5026756,7.1753434 3.5646914,7.0735321 3.694439,6.9539355 3.8530665,6.8077188 3.8974757,6.7905783 4.3221974,6.7116562 10.043666,5.6484769 12.868432,5.1353896 15.039535,4.7649734 l 0.860023,-0.1467302 0.440011,0.066421 c 1.581952,0.2387934 7.620882,1.3201157 10.480288,1.8765848 1.115132,0.2170158 1.311532,0.2623358 1.406479,0.3245476 0.162856,0.1067076 0.303634,0.3388073 0.381425,0.6288511 0.07598,0.283295 0.341993,1.003228 2.043606,5.5307763 C 31.618266,15.618089 32,16.672986 32,16.772288 c 0,0.131354 -0.165792,0.408394 -0.341107,0.569994 l -0.17712,0.163264 h -0.337205 c -0.185463,0 -0.784382,-0.06294 -1.33093,-0.139848 -0.546549,-0.07691 -1.040469,-0.139918 -1.097598,-0.140003 l -0.10387,-1.61e-4 -0.02287,0.838362 c -0.01259,0.461098 -0.01318,1.734632 -0.0013,2.830071 0.02293,2.119484 -0.01516,3.153425 -0.123932,3.363768 -0.03333,0.06449 -0.128712,0.149515 -0.211951,0.189027 -0.217587,0.103296 -1.810747,0.499138 -6.372357,1.583484 -3.721929,0.884731 -5.792895,1.358308 -5.909869,1.351437 -0.03867,-0.0023 -0.133298,-0.01981 -0.210299,-0.03893 z m -0.578803,-3.267061 c 0.03342,-1.522854 -0.0072,-12.729835 -0.04742,-13.100356 -0.01375,-0.126504 -0.03879,-0.230007 -0.05563,-0.230007 -0.01685,0 -0.05767,0.07651 -0.09071,0.170005 -0.216281,0.612132 -1.285885,3.555593 -1.400534,3.85415 -0.291913,0.760177 -0.474319,1.019075 -0.754121,1.070361 -0.07308,0.01339 -1.455899,0.21425 -3.0729433,0.446346 -3.6572451,0.524928 -4.8115237,0.700177 -4.8509076,0.736487 -0.016926,0.01561 -9.409e-4,0.108127 0.035526,0.205604 0.092152,0.246329 0.1192333,1.016004 0.1293079,3.675226 0.00462,1.219873 0.01235,2.221372 0.017175,2.225546 0.059084,0.05124 9.744306,2.306881 10.014404,2.332394 0.03249,0.0035 0.05401,-0.389885 0.07586,-1.385756 z M 4.1699646,15.403841 C 8.508757,14.802964 11.873224,14.311597 11.95748,14.266505 12.031323,14.22698 12.310346,13.478179 13.56762,9.9453345 14.725549,6.691649 14.703586,6.7559784 14.668498,6.7208907 14.617941,6.6703216 13.773672,6.8210441 9.1393683,7.7078834 5.6894348,8.3680796 4.9798532,8.5077362 4.8947085,8.5432987 4.8018316,8.5820844 4.7741203,8.648611 4.0107057,10.665354 c -0.9579722,2.530717 -1.8115276,4.859908 -1.8115276,4.94332 0,0.03125 0.018331,0.05682 0.040733,0.05682 0.022403,0 0.8909272,-0.117743 1.9300531,-0.26165 z m 25.6299694,0.203377 c 0,-0.104269 -1.330717,-3.705294 -2.173581,-5.8818891 C 27.13831,8.465018 27.183758,8.5547422 27.009979,8.5084784 26.727892,8.4333809 23.221008,7.7661744 19.719659,7.1214503 18.532354,6.9028247 17.45457,6.6996606 17.365169,6.677625 c -0.116732,-0.028773 -0.18097,-0.2391687 0.582406,1.9076732 1.573195,4.4242888 1.999442,5.5986318 2.052461,5.6546678 0.01796,0.01898 0.116134,0.0501 0.218149,0.06916 0.463121,0.08652 9.261195,1.337251 9.511748,1.352187 0.0385,0.0023 0.07001,-0.02205 0.07001,-0.0541 z"
       id="path861" /></g></svg>
