<?xml version="1.0" encoding="UTF-8" standalone="no"?>
<!-- Created with Inkscape (http://www.inkscape.org/) -->

<svg
   version="1.1"
   id="svg1157"
   width="32"
   height="32"
   viewBox="0 0 32 32"
   sodipodi:docname="icon_depot.svg"
   xml:space="preserve"
   inkscape:version="1.2.2 (b0a8486541, 2022-12-01)"
   xmlns:inkscape="http://www.inkscape.org/namespaces/inkscape"
   xmlns:sodipodi="http://sodipodi.sourceforge.net/DTD/sodipodi-0.dtd"
   xmlns="http://www.w3.org/2000/svg"
   xmlns:svg="http://www.w3.org/2000/svg"><defs
     id="defs1161" /><sodipodi:namedview
     id="namedview1159"
     pagecolor="#ffffff"
     bordercolor="#000000"
     borderopacity="0.25"
     inkscape:showpageshadow="2"
     inkscape:pageopacity="0.0"
     inkscape:pagecheckerboard="0"
     inkscape:deskcolor="#d1d1d1"
     showgrid="false"
     inkscape:zoom="9.5917645"
     inkscape:cx="20.277812"
     inkscape:cy="23.82252"
     inkscape:window-width="1920"
     inkscape:window-height="984"
     inkscape:window-x="0"
     inkscape:window-y="0"
     inkscape:window-maximized="1"
     inkscape:current-layer="g1163" /><g
     inkscape:groupmode="layer"
     inkscape:label="Image"
     id="g1163"><path
       style="fill:#ffffff;stroke-width:0.145252"
       d="M 2.5266872,19.887195 2.564171,11.430953 9.1731481,7.5467728 C 12.808086,5.410474 15.869037,3.6598843 15.975263,3.6565732 c 0.106226,-0.00331 1.772996,0.9210865 3.703932,2.0542165 1.930937,1.1331298 4.916111,2.8836971 6.633718,3.8901485 l 3.122924,1.8299118 0.03748,8.456294 0.03748,8.456292 h -2.397833 -2.397832 v -4.8369 c 0,-3.568364 -0.04571,-4.882612 -0.174303,-5.011202 -0.251647,-0.251647 -16.8300178,-0.251647 -17.0816644,0 -0.1285903,0.12859 -0.1743027,1.442838 -0.1743027,5.011202 v 4.8369 H 4.8870361 2.4892034 Z m 5.9201997,7.72998 v -0.726261 h 7.5531171 7.553117 v 0.726261 0.726261 H 16.000004 8.4468869 Z m 0,-2.541914 v -0.653635 h 7.5531171 7.553117 v 0.653635 0.653635 H 16.000004 8.4468869 Z m 0,-2.469289 v -0.653635 h 7.5531171 7.553117 v 0.653635 0.653636 H 16.000004 8.4468869 Z m 0,-2.432975 v -0.689948 h 7.5531171 7.553117 v 0.689948 0.689948 H 16.000004 8.4468869 Z"
       id="path1650" /></g></svg>
