# Blender 4.4.1
# www.blender.org
mtllib rail_track_750mm_tracks.mtl
o RailTrackLogs
v -0.723017 -0.077152 -0.120374
v -0.723017 0.107886 -0.120374
v 0.791794 -0.077152 -0.120374
v 0.791794 0.107886 -0.120374
v -0.723017 -0.077152 -0.393974
v -0.723017 0.107886 -0.393974
v 0.791794 -0.077152 -0.393974
v 0.791794 0.107886 -0.393974
v -0.723017 -0.077152 -0.725030
v -0.723017 0.107886 -0.725030
v 0.791794 -0.077152 -0.725029
v 0.791794 0.107886 -0.725029
v -0.723017 -0.077152 -0.998630
v -0.723017 0.107886 -0.998630
v 0.791794 -0.077152 -0.998629
v 0.791794 0.107886 -0.998629
v -0.723017 -0.077152 -1.329686
v -0.723017 0.107886 -1.329686
v 0.791794 -0.077152 -1.329686
v 0.791794 0.107886 -1.329686
v -0.723017 -0.077152 -1.603285
v -0.723017 0.107886 -1.603285
v 0.791794 -0.077152 -1.603285
v 0.791794 0.107886 -1.603285
v -0.723017 -0.077152 -1.934342
v -0.723017 0.107886 -1.934342
v 0.791794 -0.077152 -1.934342
v 0.791794 0.107886 -1.934342
v -0.723017 -0.077152 -2.207942
v -0.723017 0.107886 -2.207942
v 0.791794 -0.077152 -2.207941
v 0.791794 0.107886 -2.207941
v -0.723017 -0.077152 -2.538997
v -0.723017 0.107886 -2.538997
v 0.791794 -0.077152 -2.538997
v 0.791794 0.107886 -2.538997
v -0.723017 -0.077152 -2.812597
v -0.723017 0.107886 -2.812597
v 0.791794 -0.077152 -2.812597
v 0.791794 0.107886 -2.812597
v -0.723017 -0.077152 -3.143653
v -0.723017 0.107886 -3.143653
v 0.791794 -0.077152 -3.143653
v 0.791794 0.107886 -3.143653
v -0.723017 -0.077152 -3.417253
v -0.723017 0.107886 -3.417253
v 0.791794 -0.077152 -3.417253
v 0.791794 0.107886 -3.417253
vn -0.0000 -0.0000 1.0000
vn 1.0000 -0.0000 -0.0000
vn -0.0000 -0.0000 -1.0000
vn -1.0000 -0.0000 -0.0000
vn -0.0000 -1.0000 -0.0000
vn -0.0000 1.0000 -0.0000
vt 0.037889 0.418163
vt 0.964315 0.339554
vt 0.964315 0.418163
vt 0.402159 0.415707
vt 0.557445 0.310676
vt 0.557444 0.415707
vt 0.050081 0.412140
vt 0.975415 0.333623
vt 0.975415 0.412141
vt 0.266950 0.433132
vt 0.433128 0.320743
vt 0.433128 0.433133
vt 0.875734 0.410254
vt 0.188615 0.326819
vt 0.188902 0.413152
vt 0.095518 0.270497
vt 0.896754 0.455270
vt 0.897082 0.275723
vt 0.094836 0.449272
vt 0.875160 0.324274
vt 0.037889 0.339554
vt 0.402159 0.310676
vt 0.050081 0.333622
vt 0.266950 0.320742
s 1
usemtl matRailTrack
f 3/1/1 2/2/1 1/3/1
f 7/4/2 4/5/2 3/6/2
f 5/7/3 8/8/3 7/9/3
f 1/10/4 6/11/4 5/12/4
f 1/13/5 7/14/5 3/15/5
f 6/16/6 4/17/6 8/18/6
f 11/1/1 10/2/1 9/3/1
f 15/4/2 12/5/2 11/6/2
f 13/7/3 16/8/3 15/9/3
f 9/10/4 14/11/4 13/12/4
f 9/13/5 15/14/5 11/15/5
f 16/18/6 10/19/6 12/17/6
f 19/1/1 18/2/1 17/3/1
f 23/4/2 20/5/2 19/6/2
f 21/7/3 24/8/3 23/9/3
f 17/10/4 22/11/4 21/12/4
f 17/13/5 23/14/5 19/15/5
f 22/16/6 20/17/6 24/18/6
f 27/1/1 26/2/1 25/3/1
f 31/4/2 28/5/2 27/6/2
f 29/7/3 32/8/3 31/9/3
f 25/10/4 30/11/4 29/12/4
f 25/13/5 31/14/5 27/15/5
f 32/18/6 26/19/6 28/17/6
f 35/1/1 34/2/1 33/3/1
f 39/4/2 36/5/2 35/6/2
f 37/7/3 40/8/3 39/9/3
f 33/10/4 38/11/4 37/12/4
f 33/13/5 39/14/5 35/15/5
f 38/16/6 36/17/6 40/18/6
f 43/1/1 42/2/1 41/3/1
f 47/4/2 44/5/2 43/6/2
f 45/7/3 48/8/3 47/9/3
f 41/10/4 46/11/4 45/12/4
f 43/15/5 45/20/5 47/14/5
f 46/16/6 44/17/6 48/18/6
f 3/1/1 4/21/1 2/2/1
f 7/4/2 8/22/2 4/5/2
f 5/7/3 6/23/3 8/8/3
f 1/10/4 2/24/4 6/11/4
f 1/13/5 5/20/5 7/14/5
f 6/16/6 2/19/6 4/17/6
f 11/1/1 12/21/1 10/2/1
f 15/4/2 16/22/2 12/5/2
f 13/7/3 14/23/3 16/8/3
f 9/10/4 10/24/4 14/11/4
f 9/13/5 13/20/5 15/14/5
f 16/18/6 14/16/6 10/19/6
f 19/1/1 20/21/1 18/2/1
f 23/4/2 24/22/2 20/5/2
f 21/7/3 22/23/3 24/8/3
f 17/10/4 18/24/4 22/11/4
f 17/13/5 21/20/5 23/14/5
f 22/16/6 18/19/6 20/17/6
f 27/1/1 28/21/1 26/2/1
f 31/4/2 32/22/2 28/5/2
f 29/7/3 30/23/3 32/8/3
f 25/10/4 26/24/4 30/11/4
f 25/13/5 29/20/5 31/14/5
f 32/18/6 30/16/6 26/19/6
f 35/1/1 36/21/1 34/2/1
f 39/4/2 40/22/2 36/5/2
f 37/7/3 38/23/3 40/8/3
f 33/10/4 34/24/4 38/11/4
f 33/13/5 37/20/5 39/14/5
f 38/16/6 34/19/6 36/17/6
f 43/1/1 44/21/1 42/2/1
f 47/4/2 48/22/2 44/5/2
f 45/7/3 46/23/3 48/8/3
f 41/10/4 42/24/4 46/11/4
f 43/15/5 41/13/5 45/20/5
f 46/16/6 42/19/6 44/17/6
o RailTrackTrack
v -0.424960 0.098967 -3.578412
v -0.424960 0.239918 -3.578412
v -0.341009 0.098967 -3.578411
v -0.341009 0.239918 -3.578411
v -0.424960 0.098967 -0.000000
v -0.424960 0.239918 -0.000000
v -0.341009 0.098967 -0.000000
v -0.341009 0.239918 -0.000000
v -0.405984 0.128469 -3.578411
v -0.424960 0.218164 -3.578412
v -0.341009 0.218164 -3.578411
v -0.359985 0.128469 -3.578412
v -0.341009 0.218164 -0.000000
v -0.359985 0.128469 -0.000000
v -0.424960 0.218164 -0.000000
v -0.405983 0.128469 -0.000000
v -0.368992 0.098967 -3.578412
v -0.396977 0.098967 -3.578411
v -0.396977 0.262066 -3.578411
v -0.368992 0.262066 -3.578412
v -0.396977 0.098967 -0.000000
v -0.368992 0.098967 -0.000000
v -0.368992 0.262066 -0.000000
v -0.396977 0.262066 -0.000000
v -0.368992 0.133935 -0.000000
v -0.396977 0.133935 -0.000000
v -0.368992 0.227098 -0.000000
v -0.396977 0.227098 -0.000000
v -0.396977 0.133935 -3.578411
v -0.368992 0.133935 -3.578412
v -0.396977 0.227098 -3.578411
v -0.368992 0.227098 -3.578412
v -0.400163 0.208290 -3.578412
v -0.365806 0.208290 -3.578411
v -0.365806 0.208290 -0.000000
v -0.400163 0.208290 -0.000000
v -0.396977 0.208290 -3.578411
v -0.368992 0.208290 -3.578412
v -0.368992 0.208290 -0.000000
v -0.396977 0.208290 -0.000000
v -0.441518 0.083360 -0.288937
v -0.441518 0.119228 -0.288937
v -0.323752 0.083360 -0.288937
v -0.323752 0.119228 -0.288937
v -0.441518 0.083360 -0.225410
v -0.441518 0.119228 -0.225410
v -0.323752 0.083360 -0.225410
v -0.323752 0.119228 -0.225410
v -0.353575 0.087511 -0.288937
v -0.411696 0.087511 -0.288937
v -0.411696 0.123379 -0.288937
v -0.353575 0.123379 -0.288937
v -0.411696 0.087511 -0.225410
v -0.353574 0.087511 -0.225410
v -0.353574 0.123379 -0.225410
v -0.411696 0.123379 -0.225410
v -0.403131 0.149727 -0.288937
v -0.362139 0.149727 -0.288937
v -0.362139 0.149726 -0.225410
v -0.403131 0.149726 -0.225410
v -0.441518 0.083360 -0.893592
v -0.441518 0.119228 -0.893592
v -0.323752 0.083360 -0.893592
v -0.323752 0.119228 -0.893592
v -0.441518 0.083360 -0.830066
v -0.441518 0.119228 -0.830066
v -0.323752 0.083360 -0.830066
v -0.323752 0.119228 -0.830066
v -0.353574 0.087511 -0.893592
v -0.411696 0.087511 -0.893592
v -0.411696 0.123379 -0.893592
v -0.353574 0.123379 -0.893592
v -0.411696 0.087511 -0.830066
v -0.353575 0.087511 -0.830066
v -0.353575 0.123379 -0.830066
v -0.411696 0.123379 -0.830066
v -0.403131 0.149727 -0.893592
v -0.362139 0.149727 -0.893592
v -0.362139 0.149727 -0.830066
v -0.403131 0.149727 -0.830066
v -0.441518 0.083360 -1.498248
v -0.441518 0.119228 -1.498248
v -0.323752 0.083360 -1.498248
v -0.323752 0.119228 -1.498248
v -0.441518 0.083360 -1.434722
v -0.441518 0.119228 -1.434722
v -0.323752 0.083360 -1.434722
v -0.323752 0.119228 -1.434722
v -0.353575 0.087511 -1.498248
v -0.411696 0.087511 -1.498248
v -0.411696 0.123379 -1.498248
v -0.353575 0.123379 -1.498248
v -0.411696 0.087511 -1.434722
v -0.353574 0.087511 -1.434722
v -0.353574 0.123379 -1.434722
v -0.411696 0.123379 -1.434722
v -0.403131 0.149727 -1.498248
v -0.362139 0.149726 -1.498248
v -0.362139 0.149727 -1.434722
v -0.403131 0.149727 -1.434722
v -0.441518 0.083360 -2.102904
v -0.441518 0.119228 -2.102904
v -0.323752 0.083360 -2.102904
v -0.323752 0.119228 -2.102904
v -0.441518 0.083360 -2.039378
v -0.441518 0.119228 -2.039378
v -0.323752 0.083360 -2.039378
v -0.323752 0.119228 -2.039378
v -0.353574 0.087511 -2.102904
v -0.411696 0.087511 -2.102904
v -0.411696 0.123379 -2.102904
v -0.353574 0.123379 -2.102904
v -0.411696 0.087511 -2.039378
v -0.353575 0.087511 -2.039378
v -0.353575 0.123379 -2.039378
v -0.411696 0.123379 -2.039378
v -0.403131 0.149726 -2.102904
v -0.362139 0.149727 -2.102904
v -0.362139 0.149727 -2.039378
v -0.403131 0.149727 -2.039378
v -0.441518 0.083360 -2.707560
v -0.441518 0.119228 -2.707560
v -0.323752 0.083360 -2.707560
v -0.323752 0.119228 -2.707560
v -0.441518 0.083360 -2.644034
v -0.441518 0.119228 -2.644034
v -0.323752 0.083360 -2.644034
v -0.323752 0.119228 -2.644034
v -0.353574 0.087511 -2.707560
v -0.411696 0.087511 -2.707560
v -0.411696 0.123379 -2.707560
v -0.353574 0.123379 -2.707560
v -0.411696 0.087511 -2.644034
v -0.353574 0.087511 -2.644034
v -0.353574 0.123379 -2.644034
v -0.411696 0.123379 -2.644034
v -0.403131 0.149727 -2.707560
v -0.362139 0.149727 -2.707560
v -0.362139 0.149727 -2.644034
v -0.403131 0.149727 -2.644034
v -0.441518 0.083360 -3.312216
v -0.441518 0.119228 -3.312216
v -0.323752 0.083360 -3.312216
v -0.323752 0.119228 -3.312216
v -0.441518 0.083360 -3.248690
v -0.441518 0.119228 -3.248690
v -0.323752 0.083360 -3.248690
v -0.323752 0.119228 -3.248690
v -0.353574 0.087511 -3.312216
v -0.411696 0.087511 -3.312216
v -0.411696 0.123379 -3.312216
v -0.353574 0.123379 -3.312216
v -0.411696 0.087511 -3.248690
v -0.353574 0.087511 -3.248690
v -0.353574 0.123379 -3.248690
v -0.411696 0.123379 -3.248690
v -0.403131 0.149727 -3.312216
v -0.362139 0.149727 -3.312216
v -0.362139 0.149727 -3.248690
v -0.403131 0.149727 -3.248690
v 0.424960 0.098967 -3.578412
v 0.424960 0.239918 -3.578412
v 0.341009 0.098967 -3.578411
v 0.341009 0.239918 -3.578411
v 0.424960 0.098967 -0.000000
v 0.424960 0.239918 -0.000000
v 0.341009 0.098967 -0.000000
v 0.341009 0.239918 -0.000000
v 0.405984 0.128469 -3.578411
v 0.424960 0.218164 -3.578412
v 0.341009 0.218164 -3.578411
v 0.359985 0.128469 -3.578412
v 0.341009 0.218164 -0.000000
v 0.359985 0.128469 -0.000000
v 0.424960 0.218164 -0.000000
v 0.405983 0.128469 -0.000000
v 0.368992 0.098967 -3.578412
v 0.396977 0.098967 -3.578411
v 0.396977 0.262066 -3.578411
v 0.368992 0.262066 -3.578412
v 0.396977 0.098967 -0.000000
v 0.368992 0.098967 -0.000000
v 0.368992 0.262066 -0.000000
v 0.396977 0.262066 -0.000000
v 0.368992 0.133935 -0.000000
v 0.396977 0.133935 -0.000000
v 0.368992 0.227098 -0.000000
v 0.396977 0.227098 -0.000000
v 0.396977 0.133935 -3.578411
v 0.368992 0.133935 -3.578412
v 0.396977 0.227098 -3.578411
v 0.368992 0.227098 -3.578412
v 0.400163 0.208290 -3.578412
v 0.365806 0.208290 -3.578411
v 0.365806 0.208290 -0.000000
v 0.400163 0.208290 -0.000000
v 0.396977 0.208290 -3.578411
v 0.368992 0.208290 -3.578412
v 0.368992 0.208290 -0.000000
v 0.396977 0.208290 -0.000000
v 0.441519 0.083360 -0.288937
v 0.441519 0.119228 -0.288937
v 0.323752 0.083360 -0.288937
v 0.323752 0.119228 -0.288937
v 0.441519 0.083360 -0.225410
v 0.441519 0.119228 -0.225410
v 0.323752 0.083360 -0.225410
v 0.323752 0.119228 -0.225410
v 0.353575 0.087511 -0.288937
v 0.411696 0.087511 -0.288937
v 0.411696 0.123379 -0.288937
v 0.353575 0.123379 -0.288937
v 0.411696 0.087511 -0.225410
v 0.353574 0.087511 -0.225410
v 0.353574 0.123379 -0.225410
v 0.411696 0.123379 -0.225410
v 0.403131 0.149727 -0.288937
v 0.362139 0.149727 -0.288937
v 0.362139 0.149726 -0.225410
v 0.403131 0.149726 -0.225410
v 0.441519 0.083360 -0.893592
v 0.441519 0.119228 -0.893592
v 0.323752 0.083360 -0.893592
v 0.323752 0.119228 -0.893592
v 0.441519 0.083360 -0.830066
v 0.441519 0.119228 -0.830066
v 0.323752 0.083360 -0.830066
v 0.323752 0.119228 -0.830066
v 0.353574 0.087511 -0.893592
v 0.411696 0.087511 -0.893592
v 0.411696 0.123379 -0.893592
v 0.353574 0.123379 -0.893592
v 0.411696 0.087511 -0.830066
v 0.353575 0.087511 -0.830066
v 0.353575 0.123379 -0.830066
v 0.411696 0.123379 -0.830066
v 0.403131 0.149727 -0.893592
v 0.362139 0.149727 -0.893592
v 0.362139 0.149727 -0.830066
v 0.403131 0.149727 -0.830066
v 0.441519 0.083360 -1.498248
v 0.441519 0.119228 -1.498248
v 0.323752 0.083360 -1.498248
v 0.323752 0.119228 -1.498248
v 0.441519 0.083360 -1.434722
v 0.441519 0.119228 -1.434722
v 0.323752 0.083360 -1.434722
v 0.323752 0.119228 -1.434722
v 0.353575 0.087511 -1.498248
v 0.411696 0.087511 -1.498248
v 0.411696 0.123379 -1.498248
v 0.353575 0.123379 -1.498248
v 0.411696 0.087511 -1.434722
v 0.353574 0.087511 -1.434722
v 0.353574 0.123379 -1.434722
v 0.411696 0.123379 -1.434722
v 0.403131 0.149727 -1.498248
v 0.362139 0.149726 -1.498248
v 0.362139 0.149727 -1.434722
v 0.403131 0.149727 -1.434722
v 0.441519 0.083360 -2.102904
v 0.441519 0.119228 -2.102904
v 0.323752 0.083360 -2.102904
v 0.323752 0.119228 -2.102904
v 0.441519 0.083360 -2.039378
v 0.441519 0.119228 -2.039378
v 0.323752 0.083360 -2.039378
v 0.323752 0.119228 -2.039378
v 0.353574 0.087511 -2.102904
v 0.411696 0.087511 -2.102904
v 0.411696 0.123379 -2.102904
v 0.353574 0.123379 -2.102904
v 0.411696 0.087511 -2.039378
v 0.353575 0.087511 -2.039378
v 0.353575 0.123379 -2.039378
v 0.411696 0.123379 -2.039378
v 0.403131 0.149726 -2.102904
v 0.362139 0.149727 -2.102904
v 0.362139 0.149727 -2.039378
v 0.403131 0.149727 -2.039378
v 0.441519 0.083360 -2.707560
v 0.441519 0.119228 -2.707560
v 0.323752 0.083360 -2.707560
v 0.323752 0.119228 -2.707560
v 0.441519 0.083360 -2.644034
v 0.441519 0.119228 -2.644034
v 0.323752 0.083360 -2.644034
v 0.323752 0.119228 -2.644034
v 0.353574 0.087511 -2.707560
v 0.411696 0.087511 -2.707560
v 0.411696 0.123379 -2.707560
v 0.353574 0.123379 -2.707560
v 0.411696 0.087511 -2.644034
v 0.353574 0.087511 -2.644034
v 0.353574 0.123379 -2.644034
v 0.411696 0.123379 -2.644034
v 0.403131 0.149727 -2.707560
v 0.362139 0.149727 -2.707560
v 0.362139 0.149727 -2.644034
v 0.403131 0.149727 -2.644034
v 0.441519 0.083360 -3.312216
v 0.441519 0.119228 -3.312216
v 0.323752 0.083360 -3.312216
v 0.323752 0.119228 -3.312216
v 0.441519 0.083360 -3.248690
v 0.441519 0.119228 -3.248690
v 0.323752 0.083360 -3.248690
v 0.323752 0.119228 -3.248690
v 0.353574 0.087511 -3.312216
v 0.411696 0.087511 -3.312216
v 0.411696 0.123379 -3.312216
v 0.353574 0.123379 -3.312216
v 0.411696 0.087511 -3.248690
v 0.353574 0.087511 -3.248690
v 0.353574 0.123379 -3.248690
v 0.411696 0.123379 -3.248690
v 0.403131 0.149727 -3.312216
v 0.362139 0.149727 -3.312216
v 0.362139 0.149727 -3.248690
v 0.403131 0.149727 -3.248690
vn -0.0000 -0.0000 -1.0000
vn 1.0000 -0.0000 -0.0000
vn -0.0000 -0.0000 1.0000
vn -1.0000 -0.0000 -0.0000
vn -0.0000 -1.0000 -0.0000
vn -0.6206 0.7841 -0.0000
vn -0.8410 0.5410 -0.0000
vn -0.3699 -0.9291 -0.0000
vn 0.8410 0.5410 -0.0000
vn 0.3699 -0.9291 -0.0000
vn 0.0001 -0.0000 -1.0000
vn 0.0003 -0.0000 -1.0000
vn 0.6206 0.7841 -0.0000
vn -0.0000 1.0000 -0.0000
vn -0.5188 0.8549 -0.0000
vn 0.5188 0.8549 -0.0000
vn 0.1379 -0.9905 -0.0000
vn -0.1379 0.9905 -0.0000
vn 0.1379 0.9905 -0.0000
vn -0.9510 0.3092 -0.0000
vn -0.1379 -0.9905 -0.0000
vn 0.9510 0.3091 -0.0000
vn 0.9510 0.3092 -0.0000
vn -0.9510 0.3091 -0.0000
vn -0.0001 -0.0000 -1.0000
vn -0.0003 -0.0000 -1.0000
vt 0.553835 0.806370
vt 0.504871 0.824402
vt 0.504871 0.793803
vt 1.359019 0.598841
vt -0.887866 0.554494
vt 1.359019 0.586876
vt 0.813860 0.824802
vt 0.778782 0.837720
vt 0.778782 0.815799
vt -0.887866 0.569234
vt 1.359020 0.610807
vt -0.887866 0.583974
vt 1.359019 0.839939
vt -0.887866 0.842653
vt 1.359020 0.820792
vt 1.653681 0.974033
vt -0.676947 0.992258
vt -0.676947 0.974033
vt -0.887866 0.603964
vt 1.359020 0.643261
vt -0.887866 0.623954
vt -0.887866 0.647541
vt 1.359020 0.679375
vt -0.887867 0.668443
vt 0.813860 0.695688
vt 0.802570 0.725416
vt 0.778782 0.695688
vt 0.809866 0.805850
vt 0.813860 0.805850
vt 1.359020 0.627034
vt 1.359019 0.610807
vt 1.359019 0.662408
vt -0.887867 0.626640
vt 1.359019 0.645441
vt 0.553835 0.626144
vt 0.538074 0.667641
vt 0.504871 0.626144
vt 0.548259 0.779915
vt 0.553835 0.779915
vt 0.608376 0.779915
vt 0.602800 0.806370
vt 0.602800 0.779915
vt 0.618561 0.667641
vt 0.602800 0.626144
vt 0.651765 0.626144
vt 0.602800 0.675329
vt 0.852934 0.805850
vt 0.848939 0.824802
vt 0.848939 0.805850
vt 0.860230 0.725416
vt 0.848939 0.695688
vt 0.884017 0.695688
vt 0.848939 0.730924
vt 1.653681 0.937580
vt -0.676947 0.955806
vt -0.676947 0.937580
vt 1.359019 0.878234
vt -0.887866 0.889828
vt 1.359020 0.859087
vt 0.884017 0.837720
vt 0.884017 0.815799
vt 0.848939 0.860038
vt 0.651765 0.824402
vt 0.651765 0.793803
vt 0.602800 0.855555
vt 0.813860 0.730924
vt 0.553835 0.675329
vt -0.887866 0.554493
vt 1.359019 0.580713
vt 1.359020 0.574550
vt -0.887866 0.546902
vt -0.887866 0.539310
vt -0.887866 0.721510
vt 1.359019 0.681555
vt 1.359019 0.722453
vt -0.887867 0.623954
vt 1.359020 0.763350
vt 1.359020 0.722453
vt 0.608988 0.119277
vt 0.507544 0.106686
vt 0.622265 0.106686
vt 0.393237 0.168559
vt 0.638367 0.032642
vt 0.638367 0.168559
vt 0.733344 0.081706
vt 0.568674 0.061267
vt 0.754897 0.061267
vt 0.393237 0.172017
vt 0.638367 0.036101
vt 0.638367 0.172017
vt 0.768850 0.143816
vt 0.622265 0.156408
vt 0.622265 0.143816
vt 0.382441 0.206744
vt 0.282974 0.041211
vt 0.382441 0.036948
vt 0.944317 0.205734
vt 0.849307 0.037996
vt 0.944317 0.042107
vt 0.591519 0.036101
vt 0.410580 0.172017
vt 0.410580 0.036101
vt 0.768850 0.119277
vt 0.622265 0.119277
vt 0.568674 0.141979
vt 0.733344 0.121540
vt 0.754897 0.141979
vt 0.547121 0.121540
vt 0.507544 0.156408
vt 0.608988 0.143816
vt 0.494266 0.143816
vt 0.497874 0.169759
vt 0.412445 0.033843
vt 0.497872 0.033843
vt 0.410332 0.087576
vt 0.547121 0.081706
vt 0.494266 0.119277
vt 0.409998 0.140201
vt 0.409998 0.122893
vt 0.758765 0.080752
vt 0.589072 0.123187
vt 0.589072 0.080752
vt 0.382441 0.038855
vt 0.282974 0.211370
vt 0.282974 0.041722
vt 0.944317 0.042601
vt 0.849307 0.203602
vt 0.849305 0.039835
vt 0.768850 0.106686
vt 0.758765 0.123187
vt 0.382443 0.203941
vt 0.282974 0.035620
vt 0.382443 0.034148
vt 0.944317 0.200340
vt 0.849307 0.035296
vt 0.944317 0.036715
vt 0.591519 0.172017
vt 0.410332 0.115670
vt 0.382443 0.209635
vt 0.282974 0.039916
vt 0.382443 0.039840
vt 0.944317 0.040859
vt 0.849307 0.204553
vt 0.849305 0.040785
vt 0.382441 0.210726
vt 0.282974 0.039611
vt 0.382441 0.040930
vt 0.944317 0.204190
vt 0.849307 0.041836
vt 0.944317 0.040564
vt 0.382441 0.042022
vt 0.282974 0.208954
vt 0.282974 0.039306
vt 0.944317 0.203896
vt 0.849307 0.042890
vt 0.944317 0.040270
vt 0.604838 0.806370
vt 0.653802 0.824402
vt 0.604838 0.855555
vt 0.013894 0.625795
vt 2.072692 0.589107
vt 2.072692 0.602438
vt 0.847584 0.824802
vt 0.882663 0.837720
vt 0.847584 0.860038
vt 2.072693 0.602438
vt 0.013894 0.636617
vt 2.072692 0.892396
vt 0.013894 0.878489
vt 0.013894 0.861171
vt -0.572751 0.938798
vt 1.538641 0.955310
vt -0.572751 0.955310
vt 2.072693 0.633849
vt 0.013894 0.665970
vt 0.013894 0.651294
vt 2.072693 0.675691
vt 0.013894 0.700605
vt 0.013894 0.685259
vt 0.847584 0.695688
vt 0.858875 0.725416
vt 0.847584 0.730924
vt 0.851579 0.805850
vt 0.847584 0.805850
vt 2.072692 0.633849
vt 2.072693 0.615769
vt 0.013894 0.681315
vt 2.072692 0.651929
vt 2.072692 0.670833
vt 0.604838 0.626144
vt 0.620598 0.667641
vt 0.604838 0.675329
vt 0.610413 0.779915
vt 0.604838 0.779915
vt 0.550296 0.779915
vt 0.555872 0.806370
vt 0.506908 0.793803
vt 0.555872 0.779915
vt 0.555872 0.626144
vt 0.540111 0.667641
vt 0.506908 0.626144
vt 0.555872 0.675329
vt 0.808511 0.805850
vt 0.812505 0.824802
vt 0.777427 0.815799
vt 0.812505 0.805850
vt 0.812505 0.695688
vt 0.801214 0.725416
vt 0.777427 0.695688
vt 0.812505 0.730924
vt -0.572751 0.971821
vt 1.538641 0.988333
vt -0.572751 0.988333
vt 1.538642 0.971821
vt 2.072692 0.849729
vt 0.013894 0.843853
vt 0.013894 0.826536
vt 2.072693 0.871062
vt 0.777427 0.837720
vt 0.812505 0.860038
vt 0.506908 0.824402
vt 0.555872 0.855555
vt 0.013894 0.609399
vt 2.072692 0.582240
vt 0.013894 0.603825
vt 2.072693 0.582240
vt 2.072692 0.740162
vt 2.072692 0.694595
vt 0.013894 0.683287
vt 2.072692 0.673262
vt 0.013894 0.774583
vt 2.072693 0.740162
vt 2.072693 0.785729
vt 0.952703 0.011104
vt 0.835402 0.211971
vt 0.835402 0.011104
vt 0.387736 0.009113
vt 0.270435 0.209980
vt 0.270435 0.009113
vt 0.835402 0.009767
vt 0.952703 0.210630
vt 0.835399 0.210630
vt 0.270435 0.007775
vt 0.387736 0.208639
vt 0.270435 0.208639
vt 0.952703 0.012317
vt 0.835399 0.213181
vt 0.835399 0.012317
vt 0.387736 0.009333
vt 0.270435 0.210197
vt 0.270435 0.009333
vt 0.952703 0.009842
vt 0.835399 0.210707
vt 0.835399 0.009842
vt 0.270435 0.010189
vt 0.387736 0.211054
vt 0.270435 0.211054
vt 0.952703 0.010276
vt 0.835402 0.211139
vt 0.835402 0.010276
vt 0.387736 0.008284
vt 0.270435 0.209148
vt 0.270435 0.008284
vt 0.835402 0.007802
vt 0.952703 0.208666
vt 0.835399 0.208666
vt 0.387736 0.008455
vt 0.270435 0.209319
vt 0.270435 0.008455
vt 0.553835 0.855555
vt 0.813860 0.860038
vt 1.359020 0.598841
vt -0.887866 0.866241
vt 1.653682 0.992258
vt 1.359019 0.627034
vt 1.359020 0.662408
vt 1.653682 0.955806
vt -0.887866 0.913416
vt 1.359020 0.580713
vt -0.887866 0.671128
vt -0.887866 0.771891
vt 0.393237 0.032642
vt 0.393237 0.036101
vt 0.768850 0.156408
vt 0.282974 0.210859
vt 0.849305 0.201765
vt 0.412445 0.169759
vt 0.382443 0.208649
vt 0.944317 0.206226
vt 0.282974 0.205267
vt 0.849305 0.199061
vt 0.282974 0.209564
vt 0.944317 0.204484
vt 0.282974 0.209259
vt 0.849307 0.205605
vt 0.382443 0.211816
vt 0.849307 0.206656
vt 0.653802 0.793803
vt 0.013894 0.614973
vt 0.882663 0.815799
vt 2.072693 0.913729
vt 1.538642 0.938798
vt 2.072693 0.694595
vt 0.882663 0.695688
vt 0.653802 0.626144
vt 2.072693 0.575373
vt 0.013894 0.737594
vt 2.072693 0.673262
vt 0.952703 0.211971
vt 0.387740 0.209980
vt 0.952703 0.009767
vt 0.387740 0.007775
vt 0.952703 0.213181
vt 0.387740 0.210197
vt 0.952703 0.210707
vt 0.387740 0.010189
vt 0.952703 0.211139
vt 0.387736 0.209148
vt 0.952703 0.007802
vt 0.387736 0.209319
s 1
usemtl matRailTrack
f 80/25/7 52/26/7 59/27/7
f 52/28/8 61/29/8 59/30/8
f 76/31/9 54/32/9 63/33/9
f 54/34/10 58/35/10 63/36/10
f 66/37/11 53/38/11 49/39/11
f 67/40/12 54/41/12 72/42/12
f 64/43/13 49/44/13 53/45/13
f 63/46/14 81/47/14 84/48/14
f 69/49/9 64/50/9 53/51/9
f 76/31/9 84/52/9 88/53/9
f 60/54/15 55/36/15 51/55/15
f 59/56/16 83/57/16 82/58/16
f 65/59/7 60/60/7 51/61/7
f 80/25/7 82/62/17 86/63/17
f 81/64/18 79/65/7 85/66/17
f 79/65/7 86/63/17 85/66/17
f 57/67/7 66/68/7 49/69/7
f 77/70/7 65/59/7 66/68/7
f 83/71/9 75/72/9 87/73/9
f 75/72/9 88/53/9 87/73/9
f 62/74/9 70/75/9 55/76/9
f 73/77/9 69/49/9 70/75/9
f 52/78/19 71/79/19 56/80/19
f 71/79/20 67/40/20 72/42/20
f 51/81/11 70/82/11 65/83/11
f 70/82/11 66/37/11 65/83/11
f 56/84/9 75/72/9 61/85/9
f 71/86/9 76/31/9 75/72/9
f 50/87/7 79/65/7 58/88/7
f 67/89/7 80/25/7 79/65/7
f 87/73/9 74/90/9 73/77/9
f 85/66/17 78/91/7 77/70/7
f 64/92/21 77/93/21 57/30/21
f 60/94/22 73/95/22 62/96/22
f 74/97/10 85/98/10 77/99/10
f 87/100/11 82/58/11 83/57/11
f 85/98/11 84/48/11 81/47/11
f 86/101/8 73/97/8 78/102/8
f 97/103/7 92/104/7 91/105/7
f 92/106/8 95/107/8 91/108/8
f 101/109/9 94/110/9 93/111/9
f 94/112/10 89/113/10 93/114/10
f 101/115/23 89/116/23 98/117/23
f 99/118/24 94/119/24 104/120/24
f 92/121/25 103/122/25 96/123/25
f 99/124/26 108/125/26 105/126/26
f 91/105/27 102/127/27 97/128/27
f 97/128/11 101/115/11 98/117/11
f 96/129/9 102/130/9 95/131/9
f 103/132/9 101/109/9 102/130/9
f 90/133/7 98/134/7 89/116/7
f 99/135/7 97/103/7 98/134/7
f 106/136/20 108/137/20 107/138/20
f 103/132/9 108/139/9 104/140/9
f 100/141/7 105/142/7 106/143/7
f 100/144/28 107/145/29 103/146/29
f 117/103/7 112/104/7 111/105/7
f 112/106/8 115/107/8 111/108/8
f 121/109/9 114/110/9 113/111/9
f 114/112/10 109/113/10 113/114/10
f 121/115/23 109/116/23 118/117/23
f 124/147/24 110/148/24 114/149/24
f 116/150/25 120/151/25 123/152/25
f 119/124/30 128/125/30 125/126/30
f 115/153/27 117/128/27 111/105/27
f 122/127/11 118/117/11 117/128/11
f 116/129/9 122/130/9 115/131/9
f 123/132/9 121/109/9 122/130/9
f 110/133/7 118/134/7 109/116/7
f 119/135/7 117/103/7 118/134/7
f 126/136/20 128/137/20 127/138/20
f 123/132/9 128/139/9 124/140/9
f 119/135/7 126/143/7 120/141/7
f 123/146/28 126/154/28 127/145/28
f 137/103/7 132/104/7 131/105/7
f 132/106/8 135/107/8 131/108/8
f 141/109/9 134/110/9 133/111/9
f 134/112/10 129/113/10 133/114/10
f 141/115/23 129/116/23 138/117/23
f 139/155/24 134/156/24 144/157/24
f 132/158/25 143/159/25 136/160/25
f 144/161/30 145/126/30 139/124/30
f 131/105/27 142/127/27 137/128/27
f 137/128/11 141/115/11 138/117/11
f 136/129/9 142/130/9 135/131/9
f 143/132/9 141/109/9 142/130/9
f 130/133/7 138/134/7 129/116/7
f 139/135/7 137/103/7 138/134/7
f 146/136/20 148/137/20 147/138/20
f 144/140/9 147/162/9 148/139/9
f 139/135/7 146/143/7 140/141/7
f 143/146/29 146/154/28 147/145/29
f 157/103/7 152/104/7 151/105/7
f 152/106/8 155/107/8 151/108/8
f 161/109/9 154/110/9 153/111/9
f 154/112/10 149/113/10 153/114/10
f 161/115/23 149/116/23 158/117/23
f 159/163/24 154/164/24 164/165/24
f 156/166/25 160/167/25 163/168/25
f 164/161/30 165/126/30 159/124/30
f 155/153/27 157/128/27 151/105/27
f 162/127/11 158/117/11 157/128/11
f 156/129/9 162/130/9 155/131/9
f 163/132/9 161/109/9 162/130/9
f 150/133/7 158/134/7 149/116/7
f 159/135/7 157/103/7 158/134/7
f 166/136/20 168/137/20 167/138/20
f 164/140/9 167/162/9 168/139/9
f 159/135/7 166/143/7 160/141/7
f 163/146/28 166/154/29 167/145/28
f 177/103/7 172/104/7 171/105/7
f 172/106/8 175/107/8 171/108/8
f 181/109/9 174/110/9 173/111/9
f 174/112/10 169/113/10 173/114/10
f 181/115/23 169/116/23 178/117/23
f 179/169/24 174/170/24 184/171/24
f 172/172/25 183/173/25 176/174/25
f 184/161/26 185/126/26 179/124/26
f 175/153/27 177/128/27 171/105/27
f 182/127/11 178/117/11 177/128/11
f 176/129/9 182/130/9 175/131/9
f 183/132/9 181/109/9 182/130/9
f 170/133/7 178/134/7 169/116/7
f 179/135/7 177/103/7 178/134/7
f 186/136/20 188/137/20 187/138/20
f 183/132/9 188/139/9 184/140/9
f 179/135/7 186/143/7 180/141/7
f 180/144/29 187/145/29 183/146/29
f 197/103/7 192/104/7 191/105/7
f 192/106/8 195/107/8 191/108/8
f 201/109/9 194/110/9 193/111/9
f 194/112/10 189/113/10 193/114/10
f 201/115/23 189/116/23 198/117/23
f 204/175/24 190/176/24 194/177/24
f 192/178/25 203/179/25 196/180/25
f 199/124/30 208/125/30 205/126/30
f 195/153/27 197/128/27 191/105/27
f 202/127/11 198/117/11 197/128/11
f 196/129/9 202/130/9 195/131/9
f 203/132/9 201/109/9 202/130/9
f 190/133/7 198/134/7 189/116/7
f 199/135/7 197/103/7 198/134/7
f 206/136/20 208/137/20 207/138/20
f 203/132/9 208/139/9 204/140/9
f 199/135/7 206/143/7 200/141/7
f 200/144/29 207/145/29 203/146/29
f 240/181/7 212/182/7 228/183/7
f 221/184/10 212/185/10 219/186/10
f 236/187/9 214/188/9 232/189/9
f 218/190/8 214/191/8 223/184/8
f 226/192/11 213/193/11 229/194/11
f 214/195/19 227/196/19 232/197/19
f 209/198/15 224/199/15 213/200/15
f 241/201/16 223/202/16 244/203/16
f 229/204/9 224/205/9 234/206/9
f 244/207/9 236/187/9 248/208/9
f 211/209/13 222/191/13 220/210/13
f 243/211/14 219/212/14 242/213/14
f 225/214/7 220/215/7 238/216/7
f 242/217/31 240/181/7 246/218/31
f 241/219/32 239/220/7 218/221/7
f 246/218/31 239/220/7 245/222/31
f 226/223/7 217/224/7 209/225/7
f 225/214/7 237/226/7 226/223/7
f 243/227/9 235/228/9 221/229/9
f 248/208/9 235/228/9 247/230/9
f 230/231/9 222/232/9 215/233/9
f 229/204/9 233/234/9 230/231/9
f 231/235/12 212/236/12 216/237/12
f 231/235/20 227/196/20 228/238/20
f 211/239/11 230/240/11 215/241/11
f 226/192/11 230/240/11 225/242/11
f 235/228/9 216/243/9 221/229/9
f 236/187/9 231/244/9 235/228/9
f 239/220/7 210/245/7 218/221/7
f 240/181/7 227/246/7 239/220/7
f 234/206/9 247/230/9 233/234/9
f 238/216/7 245/222/31 237/226/7
f 237/185/22 224/247/22 217/248/22
f 233/249/21 220/250/21 222/247/21
f 245/251/8 234/202/8 237/252/8
f 242/213/11 247/253/11 243/211/11
f 244/203/11 245/254/11 241/201/11
f 233/255/10 246/256/10 238/257/10
f 257/103/7 252/104/7 260/141/7
f 255/107/10 252/106/10 251/108/10
f 261/109/9 254/110/9 264/140/9
f 249/113/8 254/112/8 253/114/8
f 249/116/27 261/115/27 258/117/27
f 254/258/25 259/259/25 264/260/25
f 263/261/24 252/262/24 256/263/24
f 259/124/29 268/125/29 264/161/29
f 251/105/23 262/127/23 255/153/23
f 257/128/11 261/115/11 262/127/11
f 262/130/9 256/129/9 255/131/9
f 261/109/9 263/132/9 262/130/9
f 258/134/7 250/133/7 249/116/7
f 257/103/7 259/135/7 258/134/7
f 268/137/20 266/136/20 267/138/20
f 268/139/9 263/132/9 264/140/9
f 260/141/7 265/142/7 259/135/7
f 267/145/26 260/144/30 263/146/26
f 277/103/7 272/104/7 280/141/7
f 275/107/10 272/106/10 271/108/10
f 281/109/9 274/110/9 284/140/9
f 269/113/8 274/112/8 273/114/8
f 269/116/27 281/115/27 278/117/27
f 284/264/25 270/265/25 279/266/25
f 276/267/24 280/268/24 272/269/24
f 279/124/28 288/125/28 284/161/29
f 277/128/23 275/153/23 271/105/23
f 278/117/11 282/127/11 277/128/11
f 282/130/9 276/129/9 275/131/9
f 281/109/9 283/132/9 282/130/9
f 278/134/7 270/133/7 269/116/7
f 277/103/7 279/135/7 278/134/7
f 288/137/20 286/136/20 287/138/20
f 288/139/9 283/132/9 284/140/9
f 286/143/7 279/135/7 280/141/7
f 283/146/30 286/154/30 280/144/26
f 297/103/7 292/104/7 300/141/7
f 295/107/10 292/106/10 291/108/10
f 301/109/9 294/110/9 304/140/9
f 289/113/8 294/112/8 293/114/8
f 289/116/27 301/115/27 298/117/27
f 294/270/25 299/271/25 304/272/25
f 303/273/24 292/274/24 296/275/24
f 305/126/28 304/161/28 299/124/28
f 291/105/23 302/127/23 295/153/23
f 297/128/11 301/115/11 302/127/11
f 302/130/9 296/129/9 295/131/9
f 301/109/9 303/132/9 302/130/9
f 298/134/7 290/133/7 289/116/7
f 297/103/7 299/135/7 298/134/7
f 308/137/20 306/136/20 307/138/20
f 304/140/9 307/162/9 303/132/9
f 306/143/7 299/135/7 300/141/7
f 303/146/26 306/154/30 300/144/30
f 317/103/7 312/104/7 320/141/7
f 315/107/10 312/106/10 311/108/10
f 321/109/9 314/110/9 324/140/9
f 309/113/8 314/112/8 313/114/8
f 309/116/27 321/115/27 318/117/27
f 314/276/25 319/277/25 324/278/25
f 316/279/24 320/280/24 312/281/24
f 325/126/28 324/161/28 319/124/28
f 317/128/23 315/153/23 311/105/23
f 318/117/11 322/127/11 317/128/11
f 322/130/9 316/129/9 315/131/9
f 321/109/9 323/132/9 322/130/9
f 318/134/7 310/133/7 309/116/7
f 317/103/7 319/135/7 318/134/7
f 328/137/20 326/136/20 327/138/20
f 324/140/9 327/162/9 323/132/9
f 326/143/7 319/135/7 320/141/7
f 323/146/30 326/154/26 320/144/26
f 337/103/7 332/104/7 340/141/7
f 335/107/10 332/106/10 331/108/10
f 341/109/9 334/110/9 344/140/9
f 329/113/8 334/112/8 333/114/8
f 329/116/27 341/115/27 338/117/27
f 334/282/25 339/283/25 344/284/25
f 343/285/24 332/286/24 336/287/24
f 345/126/29 344/161/29 339/124/29
f 337/128/23 335/153/23 331/105/23
f 338/117/11 342/127/11 337/128/11
f 342/130/9 336/129/9 335/131/9
f 341/109/9 343/132/9 342/130/9
f 338/134/7 330/133/7 329/116/7
f 337/103/7 339/135/7 338/134/7
f 348/137/20 346/136/20 347/138/20
f 348/139/9 343/132/9 344/140/9
f 346/143/7 339/135/7 340/141/7
f 347/145/26 340/144/26 343/146/26
f 357/103/7 352/104/7 360/141/7
f 355/107/10 352/106/10 351/108/10
f 361/109/9 354/110/9 364/140/9
f 349/113/8 354/112/8 353/114/8
f 349/116/27 361/115/27 358/117/27
f 364/288/25 350/289/25 359/290/25
f 363/291/24 352/292/24 356/293/24
f 359/124/28 368/125/28 364/161/29
f 357/128/23 355/153/23 351/105/23
f 358/117/11 362/127/11 357/128/11
f 362/130/9 356/129/9 355/131/9
f 361/109/9 363/132/9 362/130/9
f 358/134/7 350/133/7 349/116/7
f 357/103/7 359/135/7 358/134/7
f 368/137/20 366/136/20 367/138/20
f 368/139/9 363/132/9 364/140/9
f 366/143/7 359/135/7 360/141/7
f 367/145/26 360/144/26 363/146/26
f 80/25/7 68/294/7 52/26/7
f 52/28/8 56/34/8 61/29/8
f 76/31/9 72/295/9 54/32/9
f 54/34/10 50/296/10 58/35/10
f 66/37/11 69/297/11 53/38/11
f 67/40/12 50/298/12 54/41/12
f 64/43/13 57/299/13 49/44/13
f 63/46/14 58/300/14 81/47/14
f 69/49/9 74/90/9 64/50/9
f 76/31/9 63/33/9 84/52/9
f 60/54/15 62/43/15 55/36/15
f 59/56/16 61/46/16 83/57/16
f 65/59/7 78/91/7 60/60/7
f 80/25/7 59/27/7 82/62/17
f 81/64/18 58/88/7 79/65/7
f 79/65/7 80/25/7 86/63/17
f 57/67/7 77/70/7 66/68/7
f 77/70/7 78/91/7 65/59/7
f 83/71/9 61/85/9 75/72/9
f 75/72/9 76/31/9 88/53/9
f 62/74/9 73/77/9 70/75/9
f 73/77/9 74/90/9 69/49/9
f 52/78/19 68/301/19 71/79/19
f 71/79/20 68/301/20 67/40/20
f 51/81/11 55/302/11 70/82/11
f 70/82/11 69/297/11 66/37/11
f 56/84/9 71/86/9 75/72/9
f 71/86/9 72/295/9 76/31/9
f 50/87/7 67/89/7 79/65/7
f 67/89/7 68/294/7 80/25/7
f 87/73/9 88/53/9 74/90/9
f 85/66/17 86/63/17 78/91/7
f 64/92/21 74/95/21 77/93/21
f 60/94/22 78/303/22 73/95/22
f 74/97/10 88/304/10 85/98/10
f 87/100/11 86/44/11 82/58/11
f 85/98/11 88/304/11 84/48/11
f 86/101/8 87/305/8 73/97/8
f 97/103/7 100/141/7 92/104/7
f 92/106/8 96/306/8 95/107/8
f 101/109/9 104/140/9 94/110/9
f 94/112/10 90/307/10 89/113/10
f 101/115/23 93/308/23 89/116/23
f 99/118/24 90/309/24 94/119/24
f 92/121/25 100/310/25 103/122/25
f 99/124/26 104/161/26 108/125/26
f 91/105/27 95/153/27 102/127/27
f 97/128/11 102/127/11 101/115/11
f 96/129/9 103/132/9 102/130/9
f 103/132/9 104/140/9 101/109/9
f 90/133/7 99/135/7 98/134/7
f 99/135/7 100/141/7 97/103/7
f 106/136/20 105/311/20 108/137/20
f 103/132/9 107/162/9 108/139/9
f 100/141/7 99/135/7 105/142/7
f 100/144/28 106/154/28 107/145/29
f 117/103/7 120/141/7 112/104/7
f 112/106/8 116/306/8 115/107/8
f 121/109/9 124/140/9 114/110/9
f 114/112/10 110/307/10 109/113/10
f 121/115/23 113/308/23 109/116/23
f 124/147/24 119/312/24 110/148/24
f 116/150/25 112/313/25 120/151/25
f 119/124/30 124/161/26 128/125/30
f 115/153/27 122/127/27 117/128/27
f 122/127/11 121/115/11 118/117/11
f 116/129/9 123/132/9 122/130/9
f 123/132/9 124/140/9 121/109/9
f 110/133/7 119/135/7 118/134/7
f 119/135/7 120/141/7 117/103/7
f 126/136/20 125/311/20 128/137/20
f 123/132/9 127/162/9 128/139/9
f 119/135/7 125/142/7 126/143/7
f 123/146/28 120/144/29 126/154/28
f 137/103/7 140/141/7 132/104/7
f 132/106/8 136/306/8 135/107/8
f 141/109/9 144/140/9 134/110/9
f 134/112/10 130/307/10 129/113/10
f 141/115/23 133/308/23 129/116/23
f 139/155/24 130/314/24 134/156/24
f 132/158/25 140/315/25 143/159/25
f 144/161/30 148/125/30 145/126/30
f 131/105/27 135/153/27 142/127/27
f 137/128/11 142/127/11 141/115/11
f 136/129/9 143/132/9 142/130/9
f 143/132/9 144/140/9 141/109/9
f 130/133/7 139/135/7 138/134/7
f 139/135/7 140/141/7 137/103/7
f 146/136/20 145/311/20 148/137/20
f 144/140/9 143/132/9 147/162/9
f 139/135/7 145/142/7 146/143/7
f 143/146/29 140/144/28 146/154/28
f 157/103/7 160/141/7 152/104/7
f 152/106/8 156/306/8 155/107/8
f 161/109/9 164/140/9 154/110/9
f 154/112/10 150/307/10 149/113/10
f 161/115/23 153/308/23 149/116/23
f 159/163/24 150/316/24 154/164/24
f 156/166/25 152/317/25 160/167/25
f 164/161/30 168/125/30 165/126/30
f 155/153/27 162/127/27 157/128/27
f 162/127/11 161/115/11 158/117/11
f 156/129/9 163/132/9 162/130/9
f 163/132/9 164/140/9 161/109/9
f 150/133/7 159/135/7 158/134/7
f 159/135/7 160/141/7 157/103/7
f 166/136/20 165/311/20 168/137/20
f 164/140/9 163/132/9 167/162/9
f 159/135/7 165/142/7 166/143/7
f 163/146/28 160/144/29 166/154/29
f 177/103/7 180/141/7 172/104/7
f 172/106/8 176/306/8 175/107/8
f 181/109/9 184/140/9 174/110/9
f 174/112/10 170/307/10 169/113/10
f 181/115/23 173/308/23 169/116/23
f 179/169/24 170/318/24 174/170/24
f 172/172/25 180/319/25 183/173/25
f 184/161/26 188/125/26 185/126/26
f 175/153/27 182/127/27 177/128/27
f 182/127/11 181/115/11 178/117/11
f 176/129/9 183/132/9 182/130/9
f 183/132/9 184/140/9 181/109/9
f 170/133/7 179/135/7 178/134/7
f 179/135/7 180/141/7 177/103/7
f 186/136/20 185/311/20 188/137/20
f 183/132/9 187/162/9 188/139/9
f 179/135/7 185/142/7 186/143/7
f 180/144/29 186/154/29 187/145/29
f 197/103/7 200/141/7 192/104/7
f 192/106/8 196/306/8 195/107/8
f 201/109/9 204/140/9 194/110/9
f 194/112/10 190/307/10 189/113/10
f 201/115/23 193/308/23 189/116/23
f 204/175/24 199/320/24 190/176/24
f 192/178/25 200/321/25 203/179/25
f 199/124/30 204/161/26 208/125/30
f 195/153/27 202/127/27 197/128/27
f 202/127/11 201/115/11 198/117/11
f 196/129/9 203/132/9 202/130/9
f 203/132/9 204/140/9 201/109/9
f 190/133/7 199/135/7 198/134/7
f 199/135/7 200/141/7 197/103/7
f 206/136/20 205/311/20 208/137/20
f 203/132/9 207/162/9 208/139/9
f 199/135/7 205/142/7 206/143/7
f 200/144/29 206/154/29 207/145/29
f 240/181/7 219/322/7 212/182/7
f 221/184/10 216/323/10 212/185/10
f 236/187/9 223/324/9 214/188/9
f 218/190/8 210/210/8 214/191/8
f 226/192/11 209/325/11 213/193/11
f 214/195/19 210/326/19 227/196/19
f 209/198/15 217/212/15 224/199/15
f 241/201/16 218/327/16 223/202/16
f 229/204/9 213/328/9 224/205/9
f 244/207/9 223/324/9 236/187/9
f 211/209/13 215/200/13 222/191/13
f 243/211/14 221/199/14 219/212/14
f 225/214/7 211/329/7 220/215/7
f 242/217/31 219/322/7 240/181/7
f 241/219/32 245/222/31 239/220/7
f 246/218/31 240/181/7 239/220/7
f 226/223/7 237/226/7 217/224/7
f 225/214/7 238/216/7 237/226/7
f 243/227/9 247/230/9 235/228/9
f 248/208/9 236/187/9 235/228/9
f 230/231/9 233/234/9 222/232/9
f 229/204/9 234/206/9 233/234/9
f 231/235/12 228/238/12 212/236/12
f 231/235/20 232/197/20 227/196/20
f 211/239/11 225/242/11 230/240/11
f 226/192/11 229/194/11 230/240/11
f 235/228/9 231/244/9 216/243/9
f 236/187/9 232/189/9 231/244/9
f 239/220/7 227/246/7 210/245/7
f 240/181/7 228/183/7 227/246/7
f 234/206/9 248/208/9 247/230/9
f 238/216/7 246/218/31 245/222/31
f 237/185/22 234/323/22 224/247/22
f 233/249/21 238/330/21 220/250/21
f 245/251/8 248/331/8 234/202/8
f 242/213/11 246/332/11 247/253/11
f 244/203/11 248/253/11 245/254/11
f 233/255/10 247/331/10 246/256/10
f 257/103/7 251/105/7 252/104/7
f 255/107/10 256/306/10 252/106/10
f 261/109/9 253/111/9 254/110/9
f 249/113/8 250/307/8 254/112/8
f 249/116/27 253/308/27 261/115/27
f 254/258/25 250/333/25 259/259/25
f 263/261/24 260/334/24 252/262/24
f 259/124/29 265/126/29 268/125/29
f 251/105/23 257/128/23 262/127/23
f 257/128/11 258/117/11 261/115/11
f 262/130/9 263/132/9 256/129/9
f 261/109/9 264/140/9 263/132/9
f 258/134/7 259/135/7 250/133/7
f 257/103/7 260/141/7 259/135/7
f 268/137/20 265/311/20 266/136/20
f 268/139/9 267/162/9 263/132/9
f 260/141/7 266/143/7 265/142/7
f 267/145/26 266/154/30 260/144/30
f 277/103/7 271/105/7 272/104/7
f 275/107/10 276/306/10 272/106/10
f 281/109/9 273/111/9 274/110/9
f 269/113/8 270/307/8 274/112/8
f 269/116/27 273/308/27 281/115/27
f 284/264/25 274/335/25 270/265/25
f 276/267/24 283/336/24 280/268/24
f 279/124/28 285/126/28 288/125/28
f 277/128/23 282/127/23 275/153/23
f 278/117/11 281/115/11 282/127/11
f 282/130/9 283/132/9 276/129/9
f 281/109/9 284/140/9 283/132/9
f 278/134/7 279/135/7 270/133/7
f 277/103/7 280/141/7 279/135/7
f 288/137/20 285/311/20 286/136/20
f 288/139/9 287/162/9 283/132/9
f 286/143/7 285/142/7 279/135/7
f 283/146/30 287/145/30 286/154/30
f 297/103/7 291/105/7 292/104/7
f 295/107/10 296/306/10 292/106/10
f 301/109/9 293/111/9 294/110/9
f 289/113/8 290/307/8 294/112/8
f 289/116/27 293/308/27 301/115/27
f 294/270/25 290/337/25 299/271/25
f 303/273/24 300/338/24 292/274/24
f 305/126/28 308/125/28 304/161/28
f 291/105/23 297/128/23 302/127/23
f 297/128/11 298/117/11 301/115/11
f 302/130/9 303/132/9 296/129/9
f 301/109/9 304/140/9 303/132/9
f 298/134/7 299/135/7 290/133/7
f 297/103/7 300/141/7 299/135/7
f 308/137/20 305/311/20 306/136/20
f 304/140/9 308/139/9 307/162/9
f 306/143/7 305/142/7 299/135/7
f 303/146/26 307/145/26 306/154/30
f 317/103/7 311/105/7 312/104/7
f 315/107/10 316/306/10 312/106/10
f 321/109/9 313/111/9 314/110/9
f 309/113/8 310/307/8 314/112/8
f 309/116/27 313/308/27 321/115/27
f 314/276/25 310/339/25 319/277/25
f 316/279/24 323/340/24 320/280/24
f 325/126/28 328/125/28 324/161/28
f 317/128/23 322/127/23 315/153/23
f 318/117/11 321/115/11 322/127/11
f 322/130/9 323/132/9 316/129/9
f 321/109/9 324/140/9 323/132/9
f 318/134/7 319/135/7 310/133/7
f 317/103/7 320/141/7 319/135/7
f 328/137/20 325/311/20 326/136/20
f 324/140/9 328/139/9 327/162/9
f 326/143/7 325/142/7 319/135/7
f 323/146/30 327/145/30 326/154/26
f 337/103/7 331/105/7 332/104/7
f 335/107/10 336/306/10 332/106/10
f 341/109/9 333/111/9 334/110/9
f 329/113/8 330/307/8 334/112/8
f 329/116/27 333/308/27 341/115/27
f 334/282/25 330/341/25 339/283/25
f 343/285/24 340/342/24 332/286/24
f 345/126/29 348/125/29 344/161/29
f 337/128/23 342/127/23 335/153/23
f 338/117/11 341/115/11 342/127/11
f 342/130/9 343/132/9 336/129/9
f 341/109/9 344/140/9 343/132/9
f 338/134/7 339/135/7 330/133/7
f 337/103/7 340/141/7 339/135/7
f 348/137/20 345/311/20 346/136/20
f 348/139/9 347/162/9 343/132/9
f 346/143/7 345/142/7 339/135/7
f 347/145/26 346/154/26 340/144/26
f 357/103/7 351/105/7 352/104/7
f 355/107/10 356/306/10 352/106/10
f 361/109/9 353/111/9 354/110/9
f 349/113/8 350/307/8 354/112/8
f 349/116/27 353/308/27 361/115/27
f 364/288/25 354/343/25 350/289/25
f 363/291/24 360/344/24 352/292/24
f 359/124/28 365/126/28 368/125/28
f 357/128/23 362/127/23 355/153/23
f 358/117/11 361/115/11 362/127/11
f 362/130/9 363/132/9 356/129/9
f 361/109/9 364/140/9 363/132/9
f 358/134/7 359/135/7 350/133/7
f 357/103/7 360/141/7 359/135/7
f 368/137/20 365/311/20 366/136/20
f 368/139/9 367/162/9 363/132/9
f 366/143/7 365/142/7 359/135/7
f 367/145/26 366/154/26 360/144/26
