# Blender 4.4.1
# www.blender.org
mtllib rail_track_750mm_ground.mtl
o RailBed
v 2.031061 -2.214160 -0.031376
v 1.749791 -1.022278 -0.031375
v -1.962284 -2.214160 0.004482
v -1.681013 -1.022278 0.004482
v 2.031061 -2.214159 -3.578412
v 1.749791 -1.022278 -3.578412
v -1.962284 -2.214159 -3.578412
v -1.681014 -1.022277 -3.578412
v 0.887468 -0.037937 -3.578412
v 0.377469 -0.059308 -3.578412
v -0.308692 -0.059308 -3.578412
v -0.818690 -0.037937 -3.578412
v 0.887468 -2.214159 0.004482
v 0.377469 -2.214160 0.004482
v -0.308692 -2.214160 0.004482
v -0.818690 -2.214159 0.004482
v -0.818690 -2.214159 -3.578412
v -0.308692 -2.214159 -3.578412
v 0.377469 -2.214159 -3.578412
v 0.887468 -2.214159 -3.578412
v -0.818690 -0.037937 0.004482
v -0.308692 -0.059307 0.004482
v 0.377469 -0.059307 0.004482
v 0.887467 -0.037937 0.004482
v -1.337933 -0.388297 -3.578412
v -1.337933 -2.214160 0.004482
v -1.337933 -2.214159 -3.578412
v -1.337933 -0.388297 0.004482
v 1.406711 -2.214159 -3.578412
v 1.406711 -0.388297 0.004482
v 1.406711 -0.388297 -3.578412
v 1.406711 -2.214160 0.004482
v 1.783112 -1.022278 -1.804876
v -2.001343 -2.214159 -1.804876
v -1.720072 -1.022277 -1.804876
v 2.064382 -2.214159 -1.804876
v 0.887467 -0.037937 -1.804876
v 0.377469 -0.059307 -1.804876
v -0.308692 -0.059307 -1.804876
v -0.818690 -0.037937 -1.804876
v 0.887468 -2.214159 -1.804876
v 0.377469 -2.214159 -1.804876
v -0.308692 -2.214159 -1.804876
v -0.818690 -2.214159 -1.804876
v -1.337933 -0.388297 -1.804876
v -1.337933 -2.214159 -1.804876
v 1.406711 -2.214159 -1.804876
v 1.406711 -0.388297 -1.804876
v 1.147089 -0.098096 -3.578412
v 1.147089 -2.214159 -1.804876
v 1.147089 -2.214159 -3.578412
v 1.147089 -2.214159 0.004482
v 1.147089 -0.098096 -1.804876
v 1.147089 -0.098095 0.004482
v -1.650108 -2.214159 -1.804876
v -1.650108 -2.214160 0.004482
v -1.548532 -0.705287 -1.804876
v -1.509473 -0.705287 0.004482
v -1.650108 -2.214159 -3.578412
v -1.509473 -0.705287 -3.578412
v -1.078311 -2.214159 -3.578412
v -1.078311 -0.098096 -3.578412
v -1.078311 -2.214159 -1.804876
v -1.078311 -0.098095 0.004482
v -1.078311 -2.214159 0.004482
v -1.078311 -0.098096 -1.804876
v 1.718886 -2.214160 -0.013447
v 1.611572 -0.705288 -1.804876
v 1.578251 -0.705287 -0.013446
v 1.718886 -2.214159 -1.804876
v 1.718886 -2.214159 -3.578412
v 1.578251 -0.705288 -3.578412
vn -0.0000 -1.0000 -0.0000
vn -0.9730 0.2296 -0.0214
vn -0.0000 -0.0000 -1.0000
vn -0.8793 0.4758 0.0190
vn -0.0000 -0.0000 1.0000
vn 0.9731 0.2296 0.0183
vn 0.2257 0.9742 -0.0000
vn -0.0419 0.9991 -0.0000
vn -0.0000 1.0000 -0.0000
vn 0.0419 0.9991 -0.0000
vn -0.7453 0.6667 -0.0000
vn 0.8398 0.5427 0.0156
vn 0.8398 0.5427 0.0120
vn 0.0569 0.0018 0.9984
vn 0.0573 0.0053 0.9983
vn 0.0567 -0.0004 0.9984
vn 0.8794 0.4759 -0.0165
vn 0.9731 0.2296 -0.0183
vn -0.8793 0.4758 -0.0194
vn -0.9731 0.2296 0.0210
vn 0.7453 0.6667 -0.0000
vn -0.8795 0.4759 -0.0000
vn -0.8329 0.5534 -0.0000
vn -0.2257 0.9742 -0.0000
vn 0.0573 0.0135 0.9983
vn 0.0517 0.0144 0.9986
vn 0.8794 0.4759 0.0165
vn 0.8795 0.4759 -0.0000
vn 0.8791 0.4766 -0.0035
vn 0.1022 0.0032 0.9948
vn 0.1039 -0.0000 0.9946
vn 0.8399 0.5428 -0.0000
vn 0.7453 0.6668 -0.0000
vn -0.8328 0.5533 -0.0183
vn 0.1253 0.0117 0.9921
vn 0.1256 0.0081 0.9920
vn 0.1200 0.0095 0.9927
vn 0.8798 0.4752 0.0164
vn 0.8815 0.4720 0.0162
vt 0.503412 0.501997
vt 0.464047 0.725648
vt 0.464045 0.502031
vt 0.954547 0.715839
vt 0.731235 0.870035
vt 0.731235 0.715838
vt 0.035294 0.875599
vt 0.039356 0.725340
vt 0.056878 0.915590
vt 0.503412 0.670456
vt 0.731235 0.670456
vt 0.466723 0.123556
vt 0.463646 0.273909
vt 0.444862 0.083681
vt 0.731235 0.154196
vt 0.507927 0.000000
vt 0.731235 0.000000
vt 0.109194 0.009749
vt 0.144886 0.275153
vt 0.112386 0.275302
vt 0.206176 0.003821
vt 0.141796 0.001804
vt 0.292856 0.003096
vt 0.208720 0.274896
vt 0.358902 0.274299
vt 0.294766 0.274562
vt 0.731235 0.327547
vt 0.503412 0.293991
vt 0.731235 0.293991
vt 0.731235 0.391819
vt 0.503412 0.327547
vt 0.731235 0.478216
vt 0.503412 0.391819
vt 0.731235 0.542488
vt 0.503412 0.478216
vt 0.391798 0.992434
vt 0.359225 0.725616
vt 0.391955 0.725628
vt 0.294741 0.997263
vt 0.359055 1.000000
vt 0.208204 0.997194
vt 0.294931 0.725588
vt 0.144146 0.725472
vt 0.208430 0.725532
vt 0.144397 0.502108
vt 0.111426 0.725435
vt 0.111735 0.502051
vt 0.208601 0.502158
vt 0.295011 0.502151
vt 0.359256 0.502116
vt 0.446210 0.915902
vt 0.424686 0.725637
vt 0.422997 0.043816
vt 0.391594 0.274175
vt 0.390028 0.007393
vt 0.731235 0.576044
vt 0.503412 0.625073
vt 0.503412 0.576044
vt 0.424689 0.502065
vt 0.391968 0.502092
vt 0.079069 0.501973
vt 0.039760 0.501839
vt 0.731235 0.244962
vt 0.505670 0.199579
vt 0.731235 0.199579
vt 0.055647 0.087068
vt 0.079962 0.275457
vt 0.040950 0.276788
vt 0.078464 0.955579
vt 0.111162 0.992205
vt 0.954547 0.244962
vt 0.954547 0.199579
vt 0.424300 0.274054
vt 0.954547 0.625073
vt 0.954547 0.576044
vt 0.954547 0.542488
vt 0.954547 0.478216
vt 0.954547 0.391819
vt 0.954547 0.327547
vt 0.954547 0.293991
vt 0.954547 0.000000
vt 0.954547 0.154196
vt 0.954547 0.670456
vt 0.503412 0.715839
vt 0.503412 0.870035
vt 0.503022 0.273765
vt 0.143889 0.999823
vt 0.078705 0.725394
vt 0.503412 0.244962
vt 0.076949 0.046667
vt 0.731235 0.625073
vt 0.467862 0.875941
vt 0.503412 0.725659
vt 0.503412 0.542488
vt 0.357230 -0.000000
vt 0.424557 0.955860
vt 0.001650 0.278106
vt 0.000421 0.501693
vt 0.034557 0.127254
vt 0.507927 0.154196
vt 0.000000 0.725283
vt 0.954547 0.870035
s 1
usemtl matRailTrack
f 34/1/1 59/2/1 55/3/1
f 8/4/2 34/5/2 35/6/2
f 6/7/3 71/8/3 72/9/3
f 35/6/4 58/10/4 57/11/4
f 4/12/5 56/13/5 58/14/5
f 33/15/6 1/16/6 36/17/6
f 54/18/5 13/19/5 52/20/5
f 23/21/5 13/19/5 24/22/5
f 22/23/5 14/24/5 23/21/5
f 22/23/5 16/25/5 15/26/5
f 37/27/7 54/28/7 53/29/7
f 38/30/8 24/31/8 37/27/8
f 39/32/9 23/33/9 38/30/9
f 40/34/10 22/35/10 39/32/10
f 62/36/3 17/37/3 61/38/3
f 11/39/3 17/37/3 12/40/3
f 10/41/3 18/42/3 11/39/3
f 10/41/3 20/43/3 19/44/3
f 41/45/1 51/46/1 50/47/1
f 42/48/1 20/43/1 41/45/1
f 43/49/1 19/44/1 42/48/1
f 44/50/1 18/42/1 43/49/1
f 60/51/3 27/52/3 59/2/3
f 28/53/5 65/54/5 64/55/5
f 66/56/11 28/57/11 64/58/11
f 46/59/1 61/38/1 63/60/1
f 47/61/1 71/8/1 70/62/1
f 48/63/12 69/64/13 68/65/12
f 69/66/14 32/67/15 67/68/16
f 31/69/3 51/46/3 49/70/3
f 31/71/17 68/65/17 72/72/17
f 67/68/1 47/61/1 70/62/1
f 26/73/1 63/60/1 65/54/1
f 25/74/11 66/56/11 62/75/11
f 16/25/1 43/49/1 15/26/1
f 15/26/1 42/48/1 14/24/1
f 14/24/1 41/45/1 13/19/1
f 13/19/1 50/47/1 52/20/1
f 12/76/10 39/32/10 11/77/10
f 11/77/9 38/30/9 10/78/9
f 10/78/8 37/27/8 9/79/8
f 9/79/7 53/29/7 49/80/7
f 33/15/18 5/81/18 6/82/18
f 8/4/19 57/11/19 60/83/19
f 4/84/20 34/5/20 3/85/20
f 3/86/1 55/3/1 56/13/1
f 49/80/21 48/63/21 31/71/21
f 52/20/1 47/61/1 32/67/1
f 49/70/3 20/43/3 9/87/3
f 50/47/1 29/88/1 47/61/1
f 53/29/21 30/89/21 48/63/21
f 30/90/5 52/20/5 32/67/5
f 56/13/1 46/59/1 26/73/1
f 60/83/22 45/91/22 25/74/22
f 8/92/3 59/2/3 7/93/3
f 58/14/5 26/73/5 28/53/5
f 57/11/23 28/57/23 45/91/23
f 55/3/1 27/52/1 46/59/1
f 62/75/24 40/34/24 12/76/24
f 65/54/1 44/50/1 16/25/1
f 63/60/1 17/37/1 44/50/1
f 66/56/24 21/94/24 40/34/24
f 64/55/5 16/25/5 21/95/5
f 25/96/3 61/38/3 27/52/3
f 1/97/1 70/62/1 36/98/1
f 72/72/17 33/15/17 6/82/17
f 2/99/25 67/68/26 1/97/25
f 68/65/27 2/100/27 33/15/27
f 70/62/1 5/101/1 36/98/1
f 72/9/3 29/88/3 31/69/3
f 34/1/1 7/93/1 59/2/1
f 8/4/2 7/102/2 34/5/2
f 6/7/3 5/101/3 71/8/3
f 35/6/4 4/84/4 58/10/4
f 4/12/5 3/86/5 56/13/5
f 33/15/6 2/100/6 1/16/6
f 54/18/5 24/22/5 13/19/5
f 23/21/5 14/24/5 13/19/5
f 22/23/5 15/26/5 14/24/5
f 22/23/5 21/95/5 16/25/5
f 37/27/7 24/31/7 54/28/7
f 38/30/8 23/33/8 24/31/8
f 39/32/9 22/35/9 23/33/9
f 40/34/10 21/94/10 22/35/10
f 62/36/3 12/40/3 17/37/3
f 11/39/3 18/42/3 17/37/3
f 10/41/3 19/44/3 18/42/3
f 10/41/3 9/87/3 20/43/3
f 41/45/1 20/43/1 51/46/1
f 42/48/1 19/44/1 20/43/1
f 43/49/1 18/42/1 19/44/1
f 44/50/1 17/37/1 18/42/1
f 60/51/3 25/96/3 27/52/3
f 28/53/5 26/73/5 65/54/5
f 66/56/11 45/91/11 28/57/11
f 46/59/1 27/52/1 61/38/1
f 47/61/1 29/88/1 71/8/1
f 48/63/28 30/89/28 69/64/29
f 69/66/30 30/90/31 32/67/31
f 31/69/3 29/88/3 51/46/3
f 31/71/32 48/63/32 68/65/32
f 67/68/1 32/67/1 47/61/1
f 26/73/1 46/59/1 63/60/1
f 25/74/11 45/91/11 66/56/11
f 16/25/1 44/50/1 43/49/1
f 15/26/1 43/49/1 42/48/1
f 14/24/1 42/48/1 41/45/1
f 13/19/1 41/45/1 50/47/1
f 12/76/10 40/34/10 39/32/10
f 11/77/9 39/32/9 38/30/9
f 10/78/8 38/30/8 37/27/8
f 9/79/7 37/27/7 53/29/7
f 33/15/18 36/17/18 5/81/18
f 8/4/19 35/6/19 57/11/19
f 4/84/20 35/6/20 34/5/20
f 3/86/1 34/1/1 55/3/1
f 49/80/33 53/29/33 48/63/33
f 52/20/1 50/47/1 47/61/1
f 49/70/3 51/46/3 20/43/3
f 50/47/1 51/46/1 29/88/1
f 53/29/21 54/28/21 30/89/21
f 30/90/5 54/18/5 52/20/5
f 56/13/1 55/3/1 46/59/1
f 60/83/34 57/11/34 45/91/34
f 8/92/3 60/51/3 59/2/3
f 58/14/5 56/13/5 26/73/5
f 57/11/4 58/10/4 28/57/4
f 55/3/1 59/2/1 27/52/1
f 62/75/24 66/56/24 40/34/24
f 65/54/1 63/60/1 44/50/1
f 63/60/1 61/38/1 17/37/1
f 66/56/24 64/58/24 21/94/24
f 64/55/5 65/54/5 16/25/5
f 25/96/3 62/36/3 61/38/3
f 1/97/1 67/68/1 70/62/1
f 72/72/17 68/65/17 33/15/17
f 2/99/35 69/66/36 67/68/37
f 68/65/38 69/64/39 2/100/38
f 70/62/1 71/8/1 5/101/1
f 72/9/3 71/8/3 29/88/3
